<?xml version="1.0" standalone="no"?>
<!DOCTYPE svg PUBLIC "-//W3C//DTD SVG 1.1//EN" "http://www.w3.org/Graphics/SVG/1.1/DTD/svg11.dtd" >
<svg xmlns="http://www.w3.org/2000/svg" xmlns:xlink="http://www.w3.org/1999/xlink" version="1.1">
<metadata>
Created by FontForge 20170731 at Wed Oct 27 17:11:01 2021
 By Aleksey,,,
Copyright 2021 The Urbanist Project Authors (https://github.com/coreyhu/Urbanist)
</metadata>
<defs>
<font id="Urbanist-Regular" horiz-adv-x="1072" >
  <font-face 
    font-family="Urbanist"
    font-weight="400"
    font-stretch="normal"
    units-per-em="2000"
    panose-1="0 0 0 0 0 0 0 0 0 0"
    ascent="1600"
    descent="-400"
    x-height="1000"
    cap-height="1400"
    bbox="-243 -500 2808 2011"
    underline-thickness="50"
    underline-position="-175"
    unicode-range="U+000D-FFFD"
  />
<missing-glyph horiz-adv-x="1000" 
d="M100 -500v2400h800v-2400h-800zM200 -400h600v2200h-600v-2200z" />
    <glyph glyph-name=".notdef" horiz-adv-x="1000" 
d="M100 -500v2400h800v-2400h-800zM200 -400h600v2200h-600v-2200z" />
    <glyph glyph-name=".null" horiz-adv-x="1200" 
 />
    <glyph glyph-name=".null" horiz-adv-x="1200" 
 />
    <glyph glyph-name="nonmarkingreturn" unicode="&#xd;" horiz-adv-x="1200" 
 />
    <glyph glyph-name="nonmarkingreturn" unicode="&#xfeff;" horiz-adv-x="1200" 
 />
    <glyph glyph-name="space" unicode=" " horiz-adv-x="480" 
 />
    <glyph glyph-name="exclam" unicode="!" horiz-adv-x="359" 
d="M99 420v980h123v-980h-123zM161 -26q-34 0 -57.5 23.5t-23.5 57.5q0 33 23.5 56t57.5 23q32 0 55 -23t23 -56q0 -34 -23 -57.5t-55 -23.5z" />
    <glyph glyph-name="quotedbl" unicode="&#x22;" horiz-adv-x="519" 
d="M73 878v522h107v-522h-107zM339 878v522h107v-522h-107z" />
    <glyph glyph-name="numbersign" unicode="#" horiz-adv-x="1511" 
d="M1395 929h-202l-123 -456h203l-36 -136h-202l-91 -337h-140l91 337h-472l-91 -337h-140l91 337h-203l37 136h201l123 456h-203l37 135h202l90 336h140l-90 -336h473l89 336h140l-89 -336h201zM930 473l123 456h-472l-123 -456h472z" />
    <glyph glyph-name="dollar" unicode="$" horiz-adv-x="1180" 
d="M589 1280q-95 1 -177.5 -31.5t-133.5 -90t-51 -134.5q0 -90 47.5 -138.5t129.5 -72.5t185 -43q134 -23 249 -71.5t185 -129t70 -198.5q0 -112 -61.5 -197t-163.5 -136t-224 -61v-201h-107v201q-103 7 -196.5 43.5t-162 98.5t-98.5 145l131 49q22 -62 80.5 -106.5
t137 -68.5t160.5 -24q96 0 179 32t134 89.5t51 135.5q0 79 -53 130t-136.5 80.5t-174.5 45.5q-143 25 -256.5 68t-179.5 121.5t-66 207.5q0 112 61.5 197t164 136t224.5 60v207h107v-207q99 -7 191 -43t162.5 -97.5t102.5 -147.5l-133 -48q-22 63 -80.5 107.5t-136.5 68
t-161 23.5z" />
    <glyph glyph-name="percent" unicode="%" horiz-adv-x="1282" 
d="M155 0l808 1400h162l-808 -1400h-162zM319 853q-66 0 -120 32t-86.5 86.5t-32.5 120.5q0 68 32.5 122t87 86t119.5 32q66 0 120 -32.5t86.5 -86.5t32.5 -121t-32.5 -121t-87 -86t-119.5 -32zM319 960q56 0 94 38.5t38 93.5q0 56 -38 94.5t-94 38.5q-55 0 -93.5 -38.5
t-38.5 -94.5q0 -55 38.5 -93.5t93.5 -38.5zM963 67q-66 0 -120.5 33.5t-87 88t-32.5 118.5q0 67 33 121.5t87.5 86.5t119.5 32q67 0 121 -33t86 -87.5t32 -119.5q0 -66 -32 -120.5t-86.5 -87t-120.5 -32.5zM963 174q54 0 93 39t39 94t-39 94t-93 39q-55 0 -94.5 -39
t-39.5 -94t39.5 -94t94.5 -39z" />
    <glyph glyph-name="ampersand" unicode="&#x26;" horiz-adv-x="1417" 
d="M485 -26q-119 0 -210.5 57.5t-143 150.5t-51.5 199q0 65 13.5 113t47 95t93.5 109t153 155q-73 74 -112.5 119t-54.5 84t-15 95q0 79 38.5 143t102.5 101.5t139 37.5q78 0 142 -38t102 -101.5t38 -142.5q0 -58 -16 -98t-55.5 -84.5t-110.5 -115.5l374 -374l220 220v-198
l-123 -123l281 -279l-99 -99l-279 278q-94 -94 -156.5 -153.5t-109.5 -92.5t-94.5 -45.5t-113.5 -12.5zM485 936q65 64 98 97t45 57.5t12 62.5q0 66 -46.5 110t-108.5 44q-64 0 -108.5 -46t-44.5 -108q0 -38 13 -63.5t46 -58.5t94 -95zM485 114q50 0 85 11t71.5 39.5
t87 80.5t131.5 134l-375 375q-83 -84 -135 -136t-80 -87.5t-38.5 -70t-10.5 -82.5q0 -74 36 -134t96 -95t132 -35z" />
    <glyph glyph-name="quotesingle" unicode="'" horiz-adv-x="253" 
d="M73 878v522h107v-522h-107z" />
    <glyph glyph-name="parenleft" unicode="(" horiz-adv-x="643" 
d="M403 -112q-151 142 -217 339t-66 417q0 101 18 211.5t53.5 216t88.5 191.5t123 137h140q-84 -81 -146.5 -203.5t-97.5 -266t-39 -286.5q6 -236 81.5 -427.5t201.5 -328.5h-140z" />
    <glyph glyph-name="parenright" unicode=")" horiz-adv-x="643" 
d="M100 -112q126 137 201.5 328.5t81.5 427.5q-4 143 -39 286.5t-97 266t-147 203.5h140q69 -51 122 -137t89 -191.5t54 -216t18 -211.5q0 -220 -65.5 -417t-217.5 -339h-140z" />
    <glyph glyph-name="asterisk" unicode="*" horiz-adv-x="705" 
d="M212 853l-86 63l124 171l-200 65l32 101l202 -64v211h107v-211l201 64l33 -101l-202 -65l125 -171l-87 -63l-124 172z" />
    <glyph glyph-name="plus" unicode="+" horiz-adv-x="1160" 
d="M510 100v430h-430v140h430v430h140v-430h430v-140h-430v-430h-140z" />
    <glyph glyph-name="comma" unicode="," horiz-adv-x="402" 
d="M80 -112l62 338h140l-109 -338h-93z" />
    <glyph glyph-name="hyphen" unicode="-" horiz-adv-x="880" 
d="M120 670h640v-140h-640v140z" />
    <glyph glyph-name="period" unicode="." horiz-adv-x="360" 
d="M159 -26q-33 0 -56 23.5t-23 57.5q0 32 23 55.5t56 23.5q34 0 57.5 -23.5t23.5 -55.5q0 -34 -23.5 -57.5t-57.5 -23.5z" />
    <glyph glyph-name="slash" unicode="/" horiz-adv-x="705" 
d="M625 1400l-405 -1512h-140l405 1512h140z" />
    <glyph glyph-name="zero" unicode="0" horiz-adv-x="1191" 
d="M597 -26q-126 0 -225 56.5t-169 156.5t-106.5 231.5t-36.5 281.5t36.5 282t106.5 231.5t169 156t225 56.5q125 0 224 -56.5t168 -156t105.5 -231.5t36.5 -282t-36.5 -281.5t-105.5 -231.5t-168 -156.5t-224 -56.5zM597 114q132 0 221.5 81t134.5 214.5t45 290.5
q0 166 -46.5 298.5t-136 210t-218.5 77.5q-136 0 -225.5 -81.5t-134 -215t-44.5 -289.5q0 -158 46 -291.5t136 -214t222 -80.5z" />
    <glyph glyph-name="one" unicode="1" horiz-adv-x="530" 
d="M230 0v1260h-150l40 140h250v-1400h-140z" />
    <glyph glyph-name="two" unicode="2" horiz-adv-x="1089" 
d="M80 0v124q82 76 180 166.5t194.5 187t176.5 191t128.5 179t48.5 149.5q0 79 -38.5 144.5t-103 105t-143.5 39.5t-144.5 -39.5t-104.5 -105t-39 -144.5h-140q0 120 58.5 217t155.5 154.5t214 57.5t213.5 -58t154 -155t57.5 -216q0 -89 -57 -197.5t-149.5 -224t-201 -227.5
t-211.5 -208h640v-140h-889z" />
    <glyph glyph-name="three" unicode="3" horiz-adv-x="983" 
d="M491 -26q-128 0 -225 56.5t-151.5 151.5t-54.5 210h140q0 -115 78 -196.5t213 -81.5q76 0 142.5 37.5t108 101t41.5 139.5q0 143 -105 214t-267 71v116q149 0 239.5 63.5t90.5 186.5q0 67 -36.5 122t-95 88.5t-125.5 33.5t-128.5 -33.5t-100 -88.5t-38.5 -122h-140
q0 106 57 193t150 139t199 52q105 0 195.5 -52t146.5 -139t56 -193q0 -103 -53 -186t-143 -117q117 -40 177.5 -135t60.5 -213q0 -115 -60 -210t-158.5 -151.5t-213.5 -56.5z" />
    <glyph glyph-name="four" unicode="4" horiz-adv-x="1091" 
d="M684 0v393h-604v142l568 865h176v-867h147v-140h-147v-393h-140zM246 535l438 -2l-3 667z" />
    <glyph glyph-name="five" unicode="5" horiz-adv-x="1107" 
d="M529 -26q-128 0 -232.5 62t-165.5 166.5t-61 229.5h140q0 -87 43 -159.5t115.5 -115.5t160.5 -43q87 0 159 43t115.5 115.5t43.5 159.5q0 88 -41.5 160.5t-117 116t-179.5 43.5h-340l132 648h655v-140h-542l-73 -368l163 -1q143 -2 251.5 -61t170 -161.5t61.5 -236.5
q0 -126 -62 -230t-166 -166t-230 -62z" />
    <glyph glyph-name="six" unicode="6" horiz-adv-x="1077" 
d="M532 -26q-132 0 -241.5 65.5t-175 175.5t-65.5 243q0 77 18 131.5t53 121.5l397 689h163l-291 -504q110 43 220.5 27t202.5 -79t148 -162t56 -224q0 -133 -65.5 -243t-175.5 -175.5t-244 -65.5zM532 114q100 0 178 48.5t122.5 127.5t44.5 169q0 94 -46 171.5t-124 124
t-173 46.5q-98 0 -176 -48t-123 -125.5t-45 -168.5q0 -98 47.5 -176t125.5 -123.5t169 -45.5z" />
    <glyph glyph-name="seven" unicode="7" horiz-adv-x="1069" 
d="M141 0l726 1260h-827v140h989v-140l-728 -1260h-160z" />
    <glyph glyph-name="eight" unicode="8" horiz-adv-x="1053" 
d="M526 -26q-123 0 -224.5 56t-161.5 150t-60 209q0 112 62 204.5t161 143.5q-82 47 -135 128.5t-53 179.5q0 105 55.5 191.5t149 138t206.5 51.5t206.5 -51.5t149 -138t55.5 -191.5q0 -98 -52.5 -179.5t-135.5 -128.5q101 -51 162.5 -143.5t61.5 -204.5
q0 -114 -60.5 -208.5t-161.5 -150.5t-225 -56zM526 803q73 0 132 32.5t94.5 87.5t35.5 122t-35.5 121.5t-94.5 87t-132 32.5q-72 0 -131.5 -32.5t-95 -87t-35.5 -121.5t35.5 -122t95 -87.5t131.5 -32.5zM526 114q83 0 150 37t107 99.5t40 138.5t-40 138t-107 99t-150 37
q-81 0 -148.5 -37t-108 -99t-40.5 -138t40.5 -138.5t108 -99.5t148.5 -37z" />
    <glyph glyph-name="nine" unicode="9" horiz-adv-x="1053" 
d="M352 0l309 535q-106 -40 -212 -24.5t-194 76t-141.5 156t-53.5 215.5q0 129 63 235t169 169.5t235 63.5q128 0 233.5 -63.5t169 -169.5t63.5 -235q0 -73 -17.5 -125.5t-52.5 -117.5l-410 -715h-161zM525 630q95 0 169.5 45.5t117.5 120.5t43 161q0 94 -45.5 168.5
t-120.5 118t-162 43.5q-96 0 -170.5 -46t-117 -121.5t-42.5 -162.5q0 -90 44 -164.5t118.5 -118.5t165.5 -44z" />
    <glyph glyph-name="colon" unicode=":" horiz-adv-x="360" 
d="M159 840q-33 0 -56 23.5t-23 57.5q0 32 23 55.5t56 23.5q34 0 57.5 -23.5t23.5 -55.5q0 -34 -23.5 -57.5t-57.5 -23.5zM159 -26q-33 0 -56 23.5t-23 57.5q0 32 23 55.5t56 23.5q34 0 57.5 -23.5t23.5 -55.5q0 -34 -23.5 -57.5t-57.5 -23.5z" />
    <glyph glyph-name="semicolon" unicode=";" horiz-adv-x="410" 
d="M211 840q-34 0 -57.5 23t-23.5 56q0 34 23.5 57.5t57.5 23.5q32 0 55.5 -23.5t23.5 -57.5q0 -33 -23.5 -56t-55.5 -23zM80 -112l62 338h140l-109 -338h-93z" />
    <glyph glyph-name="less" unicode="&#x3c;" horiz-adv-x="1160" 
d="M1080 200l-1000 284v230l1000 286v-147l-893 -253l893 -255v-145z" />
    <glyph glyph-name="equal" unicode="=" horiz-adv-x="1160" 
d="M80 732v140h1000v-140h-1000zM80 328v140h1000v-140h-1000z" />
    <glyph glyph-name="greater" unicode="&#x3e;" horiz-adv-x="1160" 
d="M80 204v145l893 251l-893 249v147l1000 -282v-230z" />
    <glyph glyph-name="question" unicode="?" horiz-adv-x="1003" 
d="M425 481q0 99 49.5 182t136.5 131q62 32 97 94.5t35 137.5q0 73 -35.5 132t-95 94t-131.5 35t-131.5 -35t-94.5 -94t-35 -132h-140q0 111 54 202t145.5 145t201.5 54q111 0 202.5 -54t145.5 -145t54 -202q0 -113 -55 -208.5t-151 -147.5q-52 -28 -82 -78t-30 -111h-140z
M491 -26q-33 0 -56.5 24t-23.5 57t23.5 56t56.5 23t56.5 -23t23.5 -56t-23.5 -57t-56.5 -24z" />
    <glyph glyph-name="at" unicode="@" horiz-adv-x="1731" 
d="M866 -186q-163 0 -305.5 54t-250.5 152.5t-169 233.5t-61 297t61 304.5t169 250.5t250.5 169t305.5 61q164 0 306.5 -61.5t250 -169.5t168 -250t60.5 -304q0 -82 -20.5 -164t-59.5 -149.5t-95.5 -108t-129.5 -40.5q-58 0 -113.5 26.5t-92.5 72.5t-42 103
q-41 -63 -108 -100.5t-155 -37.5q-109 0 -199.5 53.5t-144 144t-53.5 200.5t53.5 200t144 143.5t199.5 53.5q86 0 157 -36.5t111 -97.5v114l113 -17v-570q0 -48 38 -80t85 -32q60 0 98 50.5t56 125t18 146.5q0 134 -50.5 251t-139.5 205.5t-205.5 138.5t-249.5 50t-250 -50
t-206 -138.5t-139.5 -205.5t-50.5 -251q0 -178 87 -312.5t234 -209.5t325 -75v-140zM844 266q79 0 136 43t88 111.5t31 142.5q0 71 -28.5 133t-85.5 100.5t-141 38.5q-79 0 -143.5 -38t-103 -102.5t-38.5 -143.5q0 -80 39 -144.5t104 -102.5t142 -38z" />
    <glyph glyph-name="A" unicode="A" horiz-adv-x="1353" 
d="M589 1400h174l510 -1400h-149l-109 300h-677l-109 -300h-149zM389 440h574l-287 788z" />
    <glyph glyph-name="B" unicode="B" horiz-adv-x="1115" 
d="M120 0v1400h473q102 0 185.5 -41.5t133 -121t49.5 -192.5q0 -64 -23 -122t-60 -98.5t-80 -52.5q83 -22 135.5 -83t77 -139.5t24.5 -154.5q0 -118 -51.5 -207t-137.5 -138.5t-191 -49.5h-535zM260 825h321q99 0 169.5 57.5t70.5 163.5q0 116 -70.5 172.5t-169.5 56.5h-321
v-450zM260 125h384q73 0 132.5 38t95 104t35.5 149q0 74 -35.5 139.5t-95 106t-132.5 40.5h-384v-577z" />
    <glyph glyph-name="C" unicode="C" horiz-adv-x="1418" 
d="M768 -26q-142 0 -267 56.5t-219.5 156t-148 231.5t-53.5 282t53.5 282t148 231.5t219.5 156t267 56.5q170 0 313 -79t237 -210l-124 -67q-74 99 -187.5 157.5t-238.5 58.5q-115 0 -214.5 -46.5t-174.5 -127.5t-117 -187t-42 -225q0 -121 42.5 -227t118 -187t175 -126.5
t212.5 -45.5q130 0 241.5 59.5t184.5 155.5l124 -67q-94 -131 -237 -209.5t-313 -78.5z" />
    <glyph glyph-name="D" unicode="D" horiz-adv-x="1343" 
d="M120 0v1400h463q145 0 272 -54.5t223 -151t150.5 -223t54.5 -271.5t-54.5 -271.5t-150.5 -223t-223 -151t-272 -54.5h-463zM260 140h323q116 0 217.5 43.5t178.5 120.5t120.5 178.5t43.5 217.5t-43.5 217.5t-121 178.5t-178.5 120.5t-217 43.5h-323v-1120z" />
    <glyph glyph-name="E" unicode="E" 
d="M120 0v1400h852v-140h-712v-440h589v-140h-589v-540h712v-140h-852z" />
    <glyph glyph-name="F" unicode="F" horiz-adv-x="959" 
d="M120 0v1400h819v-140h-679v-440h583v-140h-583v-680h-140z" />
    <glyph glyph-name="G" unicode="G" horiz-adv-x="1536" 
d="M769 -26q-144 0 -269.5 56.5t-219.5 157t-147 232t-53 281.5q0 153 55 285t151 230.5t220.5 153.5t264.5 55q161 0 304.5 -75t243.5 -213l-125 -68q-80 105 -192.5 161t-231.5 56q-113 0 -212.5 -45.5t-175.5 -126.5t-119 -187t-43 -228q0 -121 43 -227t118.5 -186.5
t175.5 -126t214 -45.5q125 0 233 57t184 155.5t105 221.5h-378v127h541q-3 -145 -58 -272t-149.5 -223.5t-217 -151t-262.5 -54.5z" />
    <glyph glyph-name="H" unicode="H" horiz-adv-x="1255" 
d="M995 1400h140v-1400h-140v680h-735v-680h-140v1400h140v-580h735v580z" />
    <glyph glyph-name="I" unicode="I" horiz-adv-x="440" 
d="M150 0v1400h140v-1400h-140z" />
    <glyph glyph-name="J" unicode="J" horiz-adv-x="803" 
d="M290 -26q-68 0 -132.5 22.5t-117.5 68.5l89 108q32 -27 73 -43t88 -16q70 0 127 37.5t91.5 98t34.5 129.5v1021h140v-1021q0 -108 -53 -200t-142 -148.5t-198 -56.5z" />
    <glyph glyph-name="K" unicode="K" horiz-adv-x="1066" 
d="M1019 0h-181l-459 629l-119 -143v-486h-140v1400h140v-696l583 696h183l-555 -661z" />
    <glyph glyph-name="L" unicode="L" horiz-adv-x="1003" 
d="M120 0v1400h140v-1260h643v-140h-783z" />
    <glyph glyph-name="M" unicode="M" horiz-adv-x="1769" 
d="M120 0l271 1400h102l392 -1030l390 1030h102l272 -1400h-143l-207 1071l-370 -979h-90l-370 979l-207 -1071h-142z" />
    <glyph glyph-name="N" unicode="N" horiz-adv-x="1271" 
d="M120 0v1400h152l739 -1147v1147h140v-1400h-151l-740 1147v-1147h-140z" />
    <glyph glyph-name="O" unicode="O" horiz-adv-x="1540" 
d="M770 -26q-142 0 -267 56.5t-220 156.5t-149 231.5t-54 281.5t54 281.5t149 231.5t220 156.5t267 56.5q143 0 268 -56.5t220 -156.5t148.5 -231.5t53.5 -281.5t-53.5 -281.5t-148.5 -231.5t-220 -156.5t-268 -56.5zM770 114q115 0 214.5 46.5t175 127.5t118 187t42.5 225
q0 120 -43 226.5t-118.5 187t-175 126.5t-213.5 46q-115 0 -214.5 -46.5t-175 -127.5t-118 -187t-42.5 -225q0 -121 43 -227t118.5 -187t175 -126.5t213.5 -45.5z" />
    <glyph glyph-name="P" unicode="P" horiz-adv-x="1047" 
d="M120 0v1400h448q112 0 202 -54.5t143.5 -147t53.5 -207.5q0 -116 -54.5 -209t-145 -147t-199.5 -54h-308v-581h-140zM260 721h297q74 0 135.5 36.5t98 99t36.5 141.5t-36.5 141.5t-98 99t-135.5 36.5h-297v-554z" />
    <glyph glyph-name="Q" unicode="Q" horiz-adv-x="1553" 
d="M1372 -24l-167 167q-88 -78 -199.5 -122t-235.5 -44q-143 0 -268 56.5t-220 156t-148.5 231.5t-53.5 282t53.5 281.5t148.5 231.5t220 156.5t268 56.5t267.5 -56.5t219.5 -156.5t148.5 -231.5t53.5 -281.5q0 -132 -42 -249t-116 -211l170 -168zM770 117q91 0 178.5 33
t154.5 94l-207 207l99 100l203 -204q121 155 121 356q0 121 -43 227t-118.5 187t-175 126.5t-212.5 45.5q-115 0 -214.5 -46.5t-175 -128t-118 -187t-42.5 -224.5q0 -121 43 -227t119 -187t175.5 -126.5t212.5 -45.5z" />
    <glyph glyph-name="R" unicode="R" horiz-adv-x="1115" 
d="M120 0v1400h475q112 0 202 -54.5t143 -147t53 -207.5q0 -103 -42 -187t-114.5 -139t-163.5 -73l342 -592h-162l-337 581h-256v-581h-140zM260 721h323q74 0 135.5 36.5t98 99t36.5 141.5t-36.5 141.5t-98 99t-135.5 36.5h-323v-554z" />
    <glyph glyph-name="S" unicode="S" horiz-adv-x="1220" 
d="M609 -26q-112 0 -216.5 35t-182.5 100t-110 155l131 49q22 -62 80.5 -106.5t137 -68.5t160.5 -24q96 0 179 32t134 89.5t51 135.5q0 79 -53 130t-136.5 80.5t-174.5 45.5q-143 25 -256.5 68t-179.5 121.5t-66 207.5q0 121 70 210t184.5 138t247.5 49q109 0 213 -34
t183.5 -99t114.5 -159l-133 -48q-22 63 -80.5 107.5t-136.5 68t-161 23.5q-95 1 -177.5 -31.5t-133.5 -90t-51 -134.5q0 -90 47.5 -138.5t129.5 -72.5t185 -43q134 -23 249 -71.5t185 -129t70 -198.5q0 -120 -70 -209.5t-184.5 -138.5t-249.5 -49z" />
    <glyph glyph-name="T" unicode="T" horiz-adv-x="1259" 
d="M1179 1400v-140h-480v-1260h-140v1260h-479v140h1099z" />
    <glyph glyph-name="U" unicode="U" horiz-adv-x="1326" 
d="M663 -26q-168 0 -290 82t-187.5 220.5t-65.5 307.5v816h140v-816q0 -128 47 -235t137 -171t219 -64q132 0 221.5 64.5t135.5 171.5t46 234v816h140v-816q0 -169 -65.5 -307.5t-187.5 -220.5t-290 -82z" />
    <glyph glyph-name="V" unicode="V" horiz-adv-x="1280" 
d="M555 0l-508 1400h148l444 -1224l446 1224h148l-509 -1400h-169z" />
    <glyph glyph-name="W" unicode="W" horiz-adv-x="1688" 
d="M405 0l-358 1400h144l296 -1159l295 1159h124l296 -1159l295 1159h144l-356 -1400h-166l-275 1075l-275 -1075h-164z" />
    <glyph glyph-name="X" unicode="X" horiz-adv-x="1319" 
d="M60 0l513 704l-507 696h173l420 -578l421 578h173l-506 -696l512 -704h-174l-426 584l-424 -584h-175z" />
    <glyph glyph-name="Y" unicode="Y" horiz-adv-x="1203" 
d="M978 1400h165l-472 -766v-634h-140v634l-471 766h165l376 -613z" />
    <glyph glyph-name="Z" unicode="Z" horiz-adv-x="1292" 
d="M80 0v140l945 1120h-945v140h1132v-140l-945 -1120h945v-140h-1132z" />
    <glyph glyph-name="bracketleft" unicode="[" horiz-adv-x="539" 
d="M439 28v-140h-319v1512h319v-140h-179v-1232h179z" />
    <glyph glyph-name="backslash" unicode="\" horiz-adv-x="705" 
d="M485 -112l-405 1512h140l405 -1512h-140z" />
    <glyph glyph-name="bracketright" unicode="]" horiz-adv-x="539" 
d="M100 -112v140h179v1232h-179v140h319v-1512h-319z" />
    <glyph glyph-name="asciicircum" unicode="^" horiz-adv-x="785" 
d="M80 1000l236 650h153l236 -650h-149l-163 451l-165 -451h-148z" />
    <glyph glyph-name="underscore" unicode="_" horiz-adv-x="1240" 
d="M120 28h1000v-140h-1000v140z" />
    <glyph glyph-name="grave" unicode="`" horiz-adv-x="753" 
d="M240 1398h140l80 -288h-93z" />
    <glyph glyph-name="a" unicode="a" horiz-adv-x="1162" 
d="M942 1000h140v-1000h-140l-5 186q-49 -95 -137 -153.5t-210 -58.5q-110 0 -206 41.5t-169 114.5t-114 169t-41 206q0 145 70.5 263.5t188.5 189t262 70.5q125 0 218 -59.5t148 -155.5zM587 110q107 0 184 52.5t118.5 141.5t41.5 196q0 110 -42 198.5t-119 140.5t-183 52
t-193.5 -52.5t-139 -141.5t-51.5 -197q0 -109 53 -197.5t140.5 -140.5t190.5 -52z" />
    <glyph glyph-name="b" unicode="b" horiz-adv-x="1203" 
d="M616 1028q146 0 265.5 -71t190.5 -190.5t71 -265.5q0 -145 -71 -265t-190.5 -191t-265.5 -71q-124 0 -214 59t-142 154v-187h-140v1500h140v-685q52 95 142 154t214 59zM615 111q107 0 194 52.5t139 141.5t52 196q0 110 -53 198.5t-140.5 140.5t-191.5 52
q-106 0 -183.5 -53t-119 -142t-41.5 -196q0 -109 42 -197.5t119.5 -140.5t182.5 -52z" />
    <glyph glyph-name="c" unicode="c" horiz-adv-x="1019" 
d="M834 251l125 -68q-68 -95 -172.5 -152t-226.5 -57q-138 0 -251.5 71t-181 190.5t-67.5 264.5q0 146 67.5 266t181 191t251.5 71q122 0 226.5 -57t172.5 -153l-125 -67q-52 66 -125 101.5t-149 35.5q-101 0 -183 -53.5t-129.5 -141.5t-47.5 -193t48.5 -193t130.5 -140.5
t181 -52.5q82 0 154 38t120 99z" />
    <glyph glyph-name="d" unicode="d" horiz-adv-x="1203" 
d="M943 1500h140v-1500h-140v187q-52 -96 -142.5 -154.5t-214.5 -58.5q-109 0 -204 41t-167.5 113.5t-113.5 167.5t-41 204t41 204.5t113.5 168t167.5 113.5t204 41q124 0 214.5 -58.5t142.5 -153.5v685zM587 110q107 0 184 52.5t118.5 141.5t41.5 196q0 110 -42 198.5
t-119 140.5t-183 52t-193 -52.5t-139 -141.5t-52 -197q0 -109 53 -197.5t140.5 -140.5t190.5 -52z" />
    <glyph glyph-name="e" unicode="e" horiz-adv-x="1117" 
d="M560 -26q-138 0 -251.5 71t-181 190.5t-67.5 264.5q0 146 67.5 266t181 191t251.5 71q149 0 263.5 -76.5t177.5 -208t55 -296.5h-848q12 -95 60.5 -170t124 -118.5t167.5 -44.5q100 0 180.5 52t129.5 143l142 -33q-60 -133 -181 -217.5t-271 -84.5zM204 560h711
q-7 93 -56.5 170.5t-127.5 124t-171 46.5t-170 -45.5t-126 -123t-60 -172.5z" />
    <glyph glyph-name="f" unicode="f" horiz-adv-x="667" 
d="M327 1261v-261h300v-140h-300v-860h-140v860h-137v140h137v261q0 73 35.5 132.5t95.5 95t133 35.5q53 0 102.5 -21t88.5 -62l-100 -99q-34 42 -91 42q-51 0 -87.5 -36t-36.5 -87z" />
    <glyph glyph-name="g" unicode="g" horiz-adv-x="1175" 
d="M915 1000h140v-1037q0 -96 -41.5 -180t-112 -147.5t-160.5 -99.5t-187 -36q-104 0 -201 47.5t-168.5 126.5t-101.5 175l129 59q19 -75 71.5 -135.5t124 -96t146.5 -35.5q92 0 174.5 44t134.5 117t52 161v221q-52 -94 -140.5 -152t-205.5 -58q-140 0 -256 71t-184.5 190.5
t-68.5 264.5q0 146 68.5 265.5t184.5 190.5t256 71q117 0 205.5 -57.5t140.5 -152.5v183zM570 110q104 0 179.5 54t116.5 143t41 193q0 107 -41.5 195.5t-117.5 142t-178 53.5t-185.5 -52.5t-132.5 -141.5t-49 -197t50 -196.5t133.5 -141t183.5 -52.5z" />
    <glyph glyph-name="h" unicode="h" 
d="M992 619v-619h-140v591q0 82 -40 149t-107 107t-149 40q-81 0 -148.5 -40t-107.5 -107t-40 -149v-591h-140v1500h140v-638q53 76 138 121t185 45q113 0 206 -55t148 -148t55 -206z" />
    <glyph glyph-name="i" unicode="i" horiz-adv-x="380" 
d="M120 1000h140v-1000h-140v1000zM191 1175q-34 0 -57.5 22.5t-23.5 56.5t23.5 56.5t57.5 22.5q33 0 56.5 -22.5t23.5 -56.5t-23 -56.5t-57 -22.5z" />
    <glyph glyph-name="j" unicode="j" horiz-adv-x="441" 
d="M-80 -500v140q112 0 186.5 72.5t74.5 179.5v1108h140v-1108q0 -108 -52.5 -197t-143 -142t-205.5 -53zM252 1175q-34 0 -57.5 22.5t-23.5 56.5t23.5 56.5t57.5 22.5q33 0 56.5 -22.5t23.5 -56.5t-23 -56.5t-57 -22.5z" />
    <glyph glyph-name="k" unicode="k" horiz-adv-x="982" 
d="M901 0h-161l-280 483l-200 -239v-244h-140v1500h140v-1038l451 538h183l-339 -403z" />
    <glyph glyph-name="l" unicode="l" horiz-adv-x="380" 
d="M120 0v1500h140v-1500h-140z" />
    <glyph glyph-name="m" unicode="m" horiz-adv-x="1777" 
d="M120 0v1000h140v-138q54 76 138 121t184 45q113 0 207 -55.5t147 -147.5q53 92 146 147.5t206 55.5t206 -55t148 -148t55 -206v-619h-140v588q0 80 -39 148t-104.5 109.5t-145.5 41.5t-145.5 -38.5t-104.5 -106t-39 -154.5v-588h-140v588q0 87 -39 154.5t-105 106
t-146 38.5q-79 0 -145 -41.5t-105 -109.5t-39 -148v-588h-140z" />
    <glyph glyph-name="n" unicode="n" 
d="M992 619v-619h-140v591q0 82 -40 149t-107 107t-149 40q-81 0 -148.5 -40t-107.5 -107t-40 -149v-591h-140v1000h140v-138q53 76 138 121t185 45q113 0 206 -55t148 -148t55 -206z" />
    <glyph glyph-name="o" unicode="o" horiz-adv-x="1120" 
d="M560 -26q-138 0 -251.5 71t-181 190.5t-67.5 264.5q0 146 67.5 266t181 191t251.5 71t251.5 -71t181 -191t67.5 -266q0 -145 -67.5 -264.5t-181 -190.5t-251.5 -71zM560 114q102 0 183.5 53.5t129 141.5t47.5 191q0 105 -48 193.5t-129.5 141.5t-182.5 53
q-102 0 -183.5 -53.5t-129 -141.5t-47.5 -193q0 -108 49 -195.5t131 -139t180 -51.5z" />
    <glyph glyph-name="p" unicode="p" horiz-adv-x="1202" 
d="M260 -500h-140v1500h140v-187q52 95 142 154t214 59q146 0 265 -71t190 -190.5t71 -264.5q0 -146 -71 -266t-190 -191t-265 -71q-124 0 -214 59t-142 154v-685zM615 890q-105 0 -182.5 -52.5t-119.5 -140.5t-42 -197q0 -107 41.5 -196t119 -142t183.5 -53q104 0 191.5 52
t140.5 140.5t53 198.5q0 107 -52 195.5t-139 141.5t-194 53z" />
    <glyph glyph-name="q" unicode="q" horiz-adv-x="1202" 
d="M586 -28q-145 0 -264.5 71t-190.5 191t-71 266q0 109 41 204t113.5 167.5t167.5 113.5t204 41q124 0 214 -59t142 -154v187h140v-1500h-140v685q-52 -95 -142 -154t-214 -59zM587 890q-106 0 -193.5 -53t-139 -141.5t-51.5 -195.5q0 -110 52.5 -198.5t140 -140.5
t191.5 -52q107 0 184 53t118.5 142t41.5 196q0 109 -42 197t-119 140.5t-183 52.5z" />
    <glyph glyph-name="r" unicode="r" horiz-adv-x="715" 
d="M120 0v1000h140v-138q53 76 138 121t185 45q58 0 112 -15l-57 -139q-42 13 -82 13q-81 0 -148.5 -40t-107.5 -107t-40 -149v-591h-140z" />
    <glyph glyph-name="s" unicode="s" horiz-adv-x="859" 
d="M429 -19q-82 2 -160 30t-136 76t-83 109l121 52q16 -39 59.5 -71.5t99.5 -52t111 -19.5q91 0 162.5 44.5t71.5 121.5q0 55 -36 86.5t-91 50t-113 35.5q-106 29 -187 64t-126.5 89.5t-45.5 140.5q0 91 51.5 157.5t135 103t178.5 36.5q122 0 222.5 -53t145.5 -141l-113 -67
q-27 61 -98.5 98t-147.5 38q-97 2 -169 -42t-72 -127q0 -55 33 -83.5t89.5 -46t127.5 -40.5q91 -29 171 -66t129 -92t48 -139q0 -90 -54 -157t-140 -102.5t-184 -32.5z" />
    <glyph glyph-name="t" unicode="t" horiz-adv-x="690" 
d="M631 860h-239l-1 -860h-140l1 860h-181v140h181l-1 314h140l1 -314h239v-140z" />
    <glyph glyph-name="u" unicode="u" horiz-adv-x="1032" 
d="M80 383v617h140v-589q0 -82 40 -149t107.5 -107t148.5 -40q82 0 148.5 40t106.5 107t40 149v589h140l1 -1000h-140l-1 140q-53 -76 -137.5 -121t-184.5 -45q-113 0 -206 55t-148 148t-55 206z" />
    <glyph glyph-name="v" unicode="v" horiz-adv-x="1028" 
d="M603 0h-178l-365 1003h149l305 -839l305 839h149z" />
    <glyph glyph-name="w" unicode="w" horiz-adv-x="1625" 
d="M539 0h-144l-335 1000h137l272 -806l270 806h148l270 -806l270 806h138l-335 -1000h-145l-274 814z" />
    <glyph glyph-name="x" unicode="x" horiz-adv-x="1065" 
d="M80 0l366 502l-365 501h173l279 -381l278 381h172l-364 -501l366 -502h-173l-279 384l-280 -384h-173z" />
    <glyph glyph-name="y" unicode="y" horiz-adv-x="1033" 
d="M805 1000h148l-547 -1500h-149l182 500l-359 1000h153l276 -807z" />
    <glyph glyph-name="z" unicode="z" horiz-adv-x="1014" 
d="M934 860l-656 -720h656v-140h-854v140l656 720h-656v140h854v-140z" />
    <glyph glyph-name="braceleft" unicode="{" horiz-adv-x="803" 
d="M629 -113q-97 0 -176.5 47.5t-126.5 127t-47 175.5v245q-1 33 -25.5 51t-55.5 31t-54.5 30.5t-23.5 48.5q0 32 23.5 50t54.5 31t55.5 30.5t25.5 49.5v246q0 96 47 175.5t126.5 127t176.5 47.5h74v-140h-74q-85 0 -147.5 -61.5t-62.5 -148.5v-251q-2 -39 -16.5 -62
t-40.5 -43t-63 -51q39 -33 64.5 -53t39.5 -41.5t16 -61.5v-250q0 -87 61.5 -148.5t148.5 -61.5h74v-140h-74z" />
    <glyph glyph-name="bar" unicode="|" horiz-adv-x="420" 
d="M140 1400h140v-1702h-140v1702z" />
    <glyph glyph-name="braceright" unicode="}" horiz-adv-x="803" 
d="M100 -113v140h74q87 0 148.5 61.5t61.5 148.5v250q2 40 16 61.5t40 41.5t65 53q-37 31 -63.5 51t-41 43t-16.5 62v251q0 87 -62 148.5t-148 61.5h-74v140h74q97 0 176.5 -47.5t126.5 -127t47 -175.5v-246q2 -32 26 -49.5t55 -30.5t54.5 -31t23.5 -50q0 -31 -23.5 -48.5
t-54.5 -30.5t-55 -31t-26 -51v-245q0 -96 -47 -175.5t-126.5 -127t-176.5 -47.5h-74z" />
    <glyph glyph-name="asciitilde" unicode="~" horiz-adv-x="1224" 
d="M897 423q-63 0 -137 33t-149 76.5t-142.5 76.5t-117.5 33q-67 1 -104 -52t-24 -119l-136 -7q-18 78 12.5 149.5t94.5 117.5t147 46q61 0 130 -33.5t139.5 -77.5t137 -77.5t121.5 -33.5q68 0 106.5 52t23.5 117l137 9q20 -81 -8 -151.5t-89 -114.5t-142 -44z" />
    <glyph glyph-name="uni00A0" unicode="&#xa0;" horiz-adv-x="480" 
 />
    <glyph glyph-name="exclamdown" unicode="&#xa1;" horiz-adv-x="333" 
d="M159 1026q34 0 57 -23t23 -58q0 -33 -23 -56t-57 -23q-33 0 -56 23t-23 56q0 35 23 58t56 23zM221 580v-980h-124v980h124z" />
    <glyph glyph-name="cent" unicode="&#xa2;" horiz-adv-x="1092" 
d="M526 0v203q-125 14 -226.5 83.5t-160.5 178t-59 237.5t59 237t160.5 177.5t226.5 82.5v201h107v-201q120 -10 219.5 -74.5t159.5 -162.5l-121 -70q-49 78 -133 125t-176 47q-99 0 -181 -49t-131.5 -131t-49.5 -182q0 -102 50 -184.5t132.5 -131t179.5 -48.5q92 0 176 47
t133 125l121 -70q-60 -98 -159.5 -162t-219.5 -75v-203h-107z" />
    <glyph glyph-name="sterling" unicode="&#xa3;" horiz-adv-x="1161" 
d="M104 0v140q77 0 147 27t110.5 76t29.5 114q-4 50 -22 92h-265v107h189q-46 47 -95.5 93t-83.5 110.5t-34 167.5q0 137 67.5 250.5t181 181t250.5 67.5q139 0 252.5 -67.5t181.5 -180.5t68 -251h-140q0 99 -49 180.5t-131 130t-182 48.5q-98 0 -180 -48.5t-130.5 -130
t-48.5 -180.5q0 -82 23 -136t59 -91.5t76.5 -70.5t75.5 -73h401v-107h-338q18 -55 18 -124q0 -61 -39.5 -112.5t-83.5 -72.5h660v-140h-968z" />
    <glyph glyph-name="currency" unicode="&#xa4;" horiz-adv-x="983" 
d="M155 288l-75 75l124 125q-70 94 -69.5 211.5t71.5 210.5l-126 128l75 74l127 -126q61 46 135.5 62t149.5 1t136 -61l126 124l74 -74l-123 -125q73 -94 73 -213.5t-71 -213.5l121 -123l-74 -75l-123 122q-96 -72 -214 -71.5t-213 73.5zM493 445q70 1 127 35t91.5 91
t34.5 127q0 72 -34 128.5t-91.5 90t-127.5 33.5q-71 0 -128 -34t-90.5 -91.5t-33.5 -126.5q0 -71 35 -128.5t92.5 -91t124.5 -33.5z" />
    <glyph glyph-name="yen" unicode="&#xa5;" horiz-adv-x="1229" 
d="M545 0v193h-294v106h294v160h-294v106h294v69l-472 766h165l377 -613l376 613h165l-471 -766v-69h294v-106h-294v-160h294v-106h-294v-193h-140z" />
    <glyph glyph-name="brokenbar" unicode="&#xa6;" horiz-adv-x="380" 
d="M120 1400h140v-750h-140v750zM120 448h140v-750h-140v750z" />
    <glyph glyph-name="section" unicode="&#xa7;" horiz-adv-x="1076" 
d="M545 -401q-122 0 -222.5 53t-145.5 141l113 66q27 -60 98.5 -97t147.5 -39q97 -1 169 43.5t72 126.5q0 83 -71 115.5t-179 54.5q-181 35 -294 147.5t-113 288.5q0 126 73.5 230t190.5 144q-218 50 -218 232q0 91 51.5 157.5t135 102.5t178.5 36q122 0 222.5 -52.5
t145.5 -141.5l-113 -66q-27 60 -98.5 97.5t-147.5 38.5q-97 2 -169 -42.5t-72 -127.5q0 -82 69.5 -113.5t178.5 -55.5q186 -40 297.5 -147t111.5 -292q0 -126 -74.5 -229.5t-190.5 -143.5q219 -50 219 -231q0 -91 -51.5 -157.5t-134.5 -102.5t-179 -36zM543 205q78 0 143 40
t104 106t39 144q0 93 -42.5 160.5t-110.5 103.5t-145 36t-141.5 -40t-103.5 -107.5t-39 -148.5q0 -83 41.5 -149.5t109 -105.5t145.5 -39z" />
    <glyph glyph-name="dieresis" unicode="&#xa8;" horiz-adv-x="1278" 
d="M483 1081q-34 0 -58.5 22.5t-24.5 56.5q0 33 24.5 57t58.5 24q33 0 56.5 -24t23.5 -57q0 -34 -23.5 -56.5t-56.5 -22.5zM797 1081q-34 0 -58 22.5t-24 56.5q0 33 24 57t58 24q33 0 57 -24t24 -57q0 -34 -24 -56.5t-57 -22.5z" />
    <glyph glyph-name="copyright" unicode="&#xa9;" horiz-adv-x="1803" 
d="M901 -217q-170 0 -319 64t-262 177t-176.5 262t-63.5 319t63.5 319t176.5 262t262 176.5t319 63.5t319 -63.5t262 -176.5t177 -262t64 -319t-64 -319t-177 -262t-262 -177t-319 -64zM901 -77q144 0 268 54t217 148.5t145 217.5t52 262q0 141 -53.5 265t-147.5 218
t-217.5 146.5t-263.5 51.5q-142 -1 -265.5 -54.5t-217 -147.5t-146 -216.5t-52.5 -262.5q0 -144 54 -268t148.5 -217t217.5 -145t261 -52zM1183 356l125 -68q-68 -95 -172.5 -152t-226.5 -57q-138 0 -251.5 71t-181 190.5t-67.5 264.5q0 146 67.5 266t181 191t251.5 71
q122 0 226.5 -57t172.5 -153l-125 -67q-52 66 -125 101.5t-149 35.5q-101 0 -183 -53.5t-129.5 -141.5t-47.5 -193q0 -106 48.5 -193.5t130.5 -140t181 -52.5q82 0 154 38t120 99z" />
    <glyph glyph-name="ordfeminine" unicode="&#xaa;" horiz-adv-x="1162" 
d="M942 1000h140v-1000h-140l-5 186q-49 -95 -137 -153.5t-210 -58.5q-110 0 -206 41.5t-169 114.5t-114 169t-41 206q0 145 70.5 263.5t188.5 189t262 70.5q125 0 218 -59.5t148 -155.5zM587 110q107 0 184 52.5t118.5 141.5t41.5 196q0 110 -42 198.5t-119 140.5t-183 52
t-193.5 -52.5t-139 -141.5t-51.5 -197q0 -109 53 -197.5t140.5 -140.5t190.5 -52z" />
    <glyph glyph-name="guillemotleft" unicode="&#xab;" horiz-adv-x="1020" 
d="M420 261l-300 340l300 338h153l-299 -338l299 -340h-153zM767 261l-300 340l300 338h153l-299 -338l299 -340h-153z" />
    <glyph glyph-name="logicalnot" unicode="&#xac;" horiz-adv-x="973" 
d="M753 315v430h-673v140h813v-570h-140z" />
    <glyph glyph-name="uni00AD" unicode="&#xad;" horiz-adv-x="907" 
d="M147 670h640v-140h-640v140z" />
    <glyph glyph-name="registered" unicode="&#xae;" horiz-adv-x="995" 
d="M497 463q-122 1 -221 60.5t-157.5 159t-58.5 218.5t59 218.5t158 159t220 59.5q124 0 223 -61t157 -160.5t58 -215.5q0 -120 -59 -219.5t-158.5 -158.5t-220.5 -60zM497 573q91 0 165 44.5t118.5 119t44.5 164.5t-44.5 164.5t-118.5 118.5t-165 44q-90 0 -164 -44
t-118.5 -118.5t-44.5 -164.5t44.5 -164.5t118.5 -119t164 -44.5zM375 709v400h150q48 0 81.5 -35.5t33.5 -85.5q0 -39 -21 -69.5t-56 -41.5l98 -168h-88l-94 160h-27v-160h-77zM452 945h73q16 0 27 13t11 30q0 19 -11 31.5t-27 12.5h-73v-87z" />
    <glyph glyph-name="macron" unicode="&#xaf;" horiz-adv-x="1200" 
d="M262 1283h676v-113h-676v113z" />
    <glyph glyph-name="degree" unicode="&#xb0;" horiz-adv-x="705" 
d="M353 808q-76 0 -138 37.5t-98.5 99.5t-36.5 135q0 75 36.5 136.5t98.5 98.5t138 37q77 0 138.5 -37.5t97.5 -99t36 -135.5q0 -76 -37 -138t-99 -98t-136 -36zM353 948q55 0 93.5 38.5t38.5 93.5q0 56 -38.5 94t-93.5 38t-94 -38t-39 -94q0 -55 39 -93.5t94 -38.5z" />
    <glyph glyph-name="plusminus" unicode="&#xb1;" horiz-adv-x="1160" 
d="M510 333v430h-430v140h430v430h140v-430h430v-140h-430v-430h-140zM80 0v140h1000v-140h-1000z" />
    <glyph glyph-name="uni00B2" unicode="&#xb2;" horiz-adv-x="689" 
d="M96 818v98q39 26 93.5 65t109 84.5t94 94t48.5 94.5q0 50 -34.5 82t-84.5 32t-86 -32t-36 -82h-104q0 93 66 153.5t160 60.5q92 0 157.5 -60.5t65.5 -153.5q0 -57 -43 -118.5t-104.5 -117t-117.5 -96.5h261v-104h-445z" />
    <glyph glyph-name="uni00B3" unicode="&#xb3;" horiz-adv-x="556" 
d="M279 798q-85 0 -146 55t-61 141h104q0 -43 30 -69.5t73 -26.5q42 0 71.5 26.5t29.5 69.5q0 49 -37.5 81t-107.5 32v83q65 0 96 27t31 70q0 35 -26.5 57.5t-61.5 22.5t-61 -22.5t-26 -57.5h-104q0 80 56 130t135 50q80 0 136 -50t56 -130q0 -42 -17.5 -79.5t-42.5 -56.5
q39 -32 58.5 -68t19.5 -89q0 -86 -60.5 -141t-144.5 -55z" />
    <glyph glyph-name="acute" unicode="&#xb4;" horiz-adv-x="753" 
d="M293 1110l80 288h140l-126 -288h-94z" />
    <glyph glyph-name="uni00B5" unicode="&#xb5;" horiz-adv-x="1057" 
d="M80 -432v1432h140v-532q0 -98 41.5 -179.5t112.5 -130t159 -48.5q87 0 156 48.5t108.5 130t39.5 179.5v532h140v-1000h-140v168q-56 -91 -138.5 -143t-183.5 -52q-94 0 -170 46.5t-125 119.5v-571h-140z" />
    <glyph glyph-name="paragraph" unicode="&#xb6;" horiz-adv-x="857" 
d="M420 -302v1020q-94 0 -171 46t-123 123.5t-46 171.5t46 171.5t123 123.5t171 46h140v-1702h-140zM637 -302v1702h140v-1702h-140z" />
    <glyph glyph-name="periodcentered" unicode="&#xb7;" horiz-adv-x="320" 
d="M159 520q-33 0 -56 23.5t-23 57.5q0 32 23 55.5t56 23.5q34 0 57.5 -23.5t23.5 -55.5q0 -34 -23.5 -57.5t-57.5 -23.5z" />
    <glyph glyph-name="cedilla" unicode="&#xb8;" horiz-adv-x="1219" 
d="M595 -367q-63 -17 -120 16t-74 96l87 23q7 -27 31.5 -41t52.5 -7q28 8 42.5 32.5t6.5 52.5q-7 28 -31.5 41.5t-53.5 7.5l-95 -13l123 214l78 -45l-42 -73q38 -10 67.5 -39t40.5 -70q17 -64 -16 -121t-97 -74z" />
    <glyph glyph-name="uni00B9" unicode="&#xb9;" horiz-adv-x="423" 
d="M175 818v527h-79l15 104h168v-631h-104z" />
    <glyph glyph-name="ordmasculine" unicode="&#xba;" horiz-adv-x="1120" 
d="M560 -26q-138 0 -251.5 71t-181 190.5t-67.5 264.5q0 146 67.5 266t181 191t251.5 71t251.5 -71t181 -191t67.5 -266q0 -145 -67.5 -264.5t-181 -190.5t-251.5 -71zM560 114q102 0 183.5 53.5t129 141.5t47.5 191q0 105 -48 193.5t-129.5 141.5t-182.5 53
q-102 0 -183.5 -53.5t-129 -141.5t-47.5 -193q0 -108 49 -195.5t131 -139t180 -51.5z" />
    <glyph glyph-name="guillemotright" unicode="&#xbb;" horiz-adv-x="1040" 
d="M447 261l299 340l-299 338h153l300 -338l-300 -340h-153zM100 261l299 340l-299 338h153l300 -338l-300 -340h-153z" />
    <glyph glyph-name="onequarter" unicode="&#xbc;" horiz-adv-x="1554" 
d="M175 818v527h-79l15 104h168v-631h-104zM180 0l808 1400h128l-808 -1400h-128zM1236 0v121h-267v126l244 384h127v-406h70v-104h-70v-121h-104zM1075 225h167v264z" />
    <glyph glyph-name="onehalf" unicode="&#xbd;" horiz-adv-x="1562" 
d="M175 818v527h-79l15 104h168v-631h-104zM180 0l808 1400h128l-808 -1400h-128zM969 0v98q39 26 93.5 65t109 85t94 94.5t48.5 94.5q0 50 -34.5 81.5t-84.5 31.5t-86 -31.5t-36 -81.5h-104q0 92 66 154.5t160 62.5q92 0 157.5 -62.5t65.5 -154.5q0 -57 -43 -118.5
t-104.5 -117.5t-117.5 -97h261v-104h-445z" />
    <glyph glyph-name="threequarters" unicode="&#xbe;" horiz-adv-x="1687" 
d="M279 798q-85 0 -146 55t-61 141h104q0 -43 30 -69.5t73 -26.5q42 0 71.5 26.5t29.5 69.5q0 49 -37.5 81t-107.5 32v83q65 0 96 27t31 70q0 35 -26.5 57.5t-61.5 22.5t-61 -22.5t-26 -57.5h-104q0 80 56 130t135 50q80 0 136 -50t56 -130q0 -42 -17.5 -79.5t-42.5 -56.5
q39 -32 58.5 -68t19.5 -89q0 -86 -60.5 -141t-144.5 -55zM313 0l808 1400h128l-808 -1400h-128zM1369 0v121h-267v126l244 384h127v-406h70v-104h-70v-121h-104zM1208 225h167v264z" />
    <glyph glyph-name="questiondown" unicode="&#xbf;" horiz-adv-x="977" 
d="M472 866q-34 0 -57 23t-23 56q0 35 23 58t57 23q33 0 56 -23t23 -58q0 -33 -23 -56t-56 -23zM482 -427q-111 0 -202 54t-145.5 145.5t-54.5 201.5q0 113 55 209.5t150 146.5q53 29 83 79t30 111h140q0 -97 -49.5 -180.5t-137.5 -132.5q-61 -33 -96 -95.5t-35 -137.5
q0 -72 35.5 -131t95 -94.5t131.5 -35.5t131.5 35.5t95 94.5t35.5 131h140q0 -110 -54 -201.5t-145.5 -145.5t-202.5 -54z" />
    <glyph glyph-name="Agrave" unicode="&#xc0;" horiz-adv-x="1353" 
d="M589 1400h174l510 -1400h-149l-109 300h-677l-109 -300h-149zM389 440h574l-287 788zM483 1798h140l80 -288h-93z" />
    <glyph glyph-name="Aacute" unicode="&#xc1;" horiz-adv-x="1353" 
d="M589 1400h174l510 -1400h-149l-109 300h-677l-109 -300h-149zM389 440h574l-287 788zM642 1510l80 288h140l-126 -288h-94z" />
    <glyph glyph-name="Acircumflex" unicode="&#xc2;" horiz-adv-x="1353" 
d="M589 1400h174l510 -1400h-149l-109 300h-677l-109 -300h-149zM389 440h574l-287 788zM753 1798l193 -288h-94l-176 203l-174 -203h-93l191 288h153z" />
    <glyph glyph-name="Atilde" unicode="&#xc3;" horiz-adv-x="1353" 
d="M589 1400h174l510 -1400h-149l-109 300h-677l-109 -300h-149zM389 440h574l-287 788zM831 1531q-37 0 -82 23.5t-91 54t-85 51.5t-64 15q-26 -6 -41 -33t-5 -65l-95 -26q-19 57 -4.5 109t55.5 84.5t100 32.5q38 0 83 -22t91 -50.5t85 -50.5t64 -22q34 0 45.5 36.5
t1.5 61.5l95 30q20 -60 4.5 -112t-57 -84.5t-100.5 -32.5z" />
    <glyph glyph-name="Adieresis" unicode="&#xc4;" horiz-adv-x="1353" 
d="M589 1400h174l510 -1400h-149l-109 300h-677l-109 -300h-149zM389 440h574l-287 788zM520 1481q-34 0 -58.5 22.5t-24.5 56.5q0 33 24.5 57t58.5 24q33 0 56.5 -24t23.5 -57q0 -34 -23.5 -56.5t-56.5 -22.5zM834 1481q-34 0 -58 22.5t-24 56.5q0 33 24 57t58 24
q33 0 57 -24t24 -57q0 -34 -24 -56.5t-57 -22.5z" />
    <glyph glyph-name="Aring" unicode="&#xc5;" horiz-adv-x="1353" 
d="M589 1400h174l510 -1400h-149l-109 300h-677l-109 -300h-149zM389 440h574l-287 788zM676 1495q-66 0 -112.5 47.5t-46.5 112.5t46.5 111.5t112.5 46.5q65 0 111.5 -46.5t46.5 -111.5q0 -67 -46.5 -113.5t-111.5 -46.5zM676 1573q33 0 56.5 24t23.5 58q0 32 -23.5 55
t-56.5 23q-34 0 -57 -23t-23 -55q0 -34 23 -58t57 -24z" />
    <glyph glyph-name="AE" unicode="&#xc6;" horiz-adv-x="1619" 
d="M80 0l509 1400h930v-140h-572v-490h476v-140h-476v-490h572v-140h-712v300h-469l-109 -300h-149zM389 440h418v820h-118z" />
    <glyph glyph-name="Ccedilla" unicode="&#xc7;" horiz-adv-x="1418" 
d="M768 -26q-142 0 -267 56.5t-219.5 156t-148 231.5t-53.5 282t53.5 282t148 231.5t219.5 156t267 56.5q170 0 313 -79t237 -210l-124 -67q-74 99 -187.5 157.5t-238.5 58.5q-115 0 -214.5 -46.5t-174.5 -127.5t-117 -187t-42 -225q0 -121 42.5 -227t118 -187t175 -126.5
t212.5 -45.5q130 0 241.5 59.5t184.5 155.5l124 -67q-94 -131 -237 -209.5t-313 -78.5zM770 -367q-63 -17 -120 16t-74 96l87 23q7 -27 31.5 -41t52.5 -7q28 8 42.5 32.5t6.5 52.5q-7 28 -31.5 41.5t-53.5 7.5l-95 -13l123 214l78 -45l-42 -73q38 -10 67.5 -39t40.5 -70
q17 -64 -16 -121t-97 -74z" />
    <glyph glyph-name="Egrave" unicode="&#xc8;" 
d="M120 0v1400h852v-140h-712v-440h589v-140h-589v-540h712v-140h-852zM343 1798h140l80 -288h-93z" />
    <glyph glyph-name="Eacute" unicode="&#xc9;" 
d="M120 0v1400h852v-140h-712v-440h589v-140h-589v-540h712v-140h-852zM502 1510l80 288h140l-126 -288h-94z" />
    <glyph glyph-name="Ecircumflex" unicode="&#xca;" 
d="M120 0v1400h852v-140h-712v-440h589v-140h-589v-540h712v-140h-852zM613 1798l193 -288h-94l-176 203l-174 -203h-93l191 288h153z" />
    <glyph glyph-name="Edieresis" unicode="&#xcb;" 
d="M120 0v1400h852v-140h-712v-440h589v-140h-589v-540h712v-140h-852zM380 1481q-34 0 -58.5 22.5t-24.5 56.5q0 33 24.5 57t58.5 24q33 0 56.5 -24t23.5 -57q0 -34 -23.5 -56.5t-56.5 -22.5zM694 1481q-34 0 -58 22.5t-24 56.5q0 33 24 57t58 24q33 0 57 -24t24 -57
q0 -34 -24 -56.5t-57 -22.5z" />
    <glyph glyph-name="Igrave" unicode="&#xcc;" horiz-adv-x="440" 
d="M150 0v1400h140v-1400h-140zM27 1798h140l80 -288h-93z" />
    <glyph glyph-name="Iacute" unicode="&#xcd;" horiz-adv-x="440" 
d="M150 0v1400h140v-1400h-140zM186 1510l80 288h140l-126 -288h-94z" />
    <glyph glyph-name="Icircumflex" unicode="&#xce;" horiz-adv-x="440" 
d="M150 0v1400h140v-1400h-140zM297 1798l193 -288h-94l-176 203l-174 -203h-93l191 288h153z" />
    <glyph glyph-name="Idieresis" unicode="&#xcf;" horiz-adv-x="440" 
d="M150 0v1400h140v-1400h-140zM64 1481q-34 0 -58.5 22.5t-24.5 56.5q0 33 24.5 57t58.5 24q33 0 56.5 -24t23.5 -57q0 -34 -23.5 -56.5t-56.5 -22.5zM378 1481q-34 0 -58 22.5t-24 56.5q0 33 24 57t58 24q33 0 57 -24t24 -57q0 -34 -24 -56.5t-57 -22.5z" />
    <glyph glyph-name="Eth" unicode="&#xd0;" horiz-adv-x="1455" 
d="M232 0v680h-132v140h132v580h463q145 0 271.5 -54.5t223 -151t151 -223t54.5 -271.5t-54.5 -271.5t-151 -223t-223 -151t-271.5 -54.5h-463zM372 140h323q118 0 219.5 44t178 122t119.5 179t43 215q0 117 -44.5 219t-122 178.5t-178.5 119.5t-215 43h-323v-440h345v-140
h-345v-540z" />
    <glyph glyph-name="Ntilde" unicode="&#xd1;" horiz-adv-x="1271" 
d="M120 0v1400h152l739 -1147v1147h140v-1400h-151l-740 1147v-1147h-140zM790 1531q-37 0 -82 23.5t-91 54t-85 51.5t-64 15q-26 -6 -41 -33t-5 -65l-95 -26q-19 57 -4.5 109t55.5 84.5t100 32.5q38 0 83 -22t91 -50.5t85 -50.5t64 -22q34 0 45.5 36.5t1.5 61.5l95 30
q20 -60 4.5 -112t-57 -84.5t-100.5 -32.5z" />
    <glyph glyph-name="Ograve" unicode="&#xd2;" horiz-adv-x="1540" 
d="M770 -26q-142 0 -267 56.5t-220 156.5t-149 231.5t-54 281.5t54 281.5t149 231.5t220 156.5t267 56.5q143 0 268 -56.5t220 -156.5t148.5 -231.5t53.5 -281.5t-53.5 -281.5t-148.5 -231.5t-220 -156.5t-268 -56.5zM770 114q115 0 214.5 46.5t175 127.5t118 187t42.5 225
q0 120 -43 226.5t-118.5 187t-175 126.5t-213.5 46q-115 0 -214.5 -46.5t-175 -127.5t-118 -187t-42.5 -225q0 -121 43 -227t118.5 -187t175 -126.5t213.5 -45.5zM577 1798h140l80 -288h-93z" />
    <glyph glyph-name="Oacute" unicode="&#xd3;" horiz-adv-x="1540" 
d="M770 -26q-142 0 -267 56.5t-220 156.5t-149 231.5t-54 281.5t54 281.5t149 231.5t220 156.5t267 56.5q143 0 268 -56.5t220 -156.5t148.5 -231.5t53.5 -281.5t-53.5 -281.5t-148.5 -231.5t-220 -156.5t-268 -56.5zM770 114q115 0 214.5 46.5t175 127.5t118 187t42.5 225
q0 120 -43 226.5t-118.5 187t-175 126.5t-213.5 46q-115 0 -214.5 -46.5t-175 -127.5t-118 -187t-42.5 -225q0 -121 43 -227t118.5 -187t175 -126.5t213.5 -45.5zM736 1510l80 288h140l-126 -288h-94z" />
    <glyph glyph-name="Ocircumflex" unicode="&#xd4;" horiz-adv-x="1540" 
d="M770 -26q-142 0 -267 56.5t-220 156.5t-149 231.5t-54 281.5t54 281.5t149 231.5t220 156.5t267 56.5q143 0 268 -56.5t220 -156.5t148.5 -231.5t53.5 -281.5t-53.5 -281.5t-148.5 -231.5t-220 -156.5t-268 -56.5zM770 114q115 0 214.5 46.5t175 127.5t118 187t42.5 225
q0 120 -43 226.5t-118.5 187t-175 126.5t-213.5 46q-115 0 -214.5 -46.5t-175 -127.5t-118 -187t-42.5 -225q0 -121 43 -227t118.5 -187t175 -126.5t213.5 -45.5zM847 1798l193 -288h-94l-176 203l-174 -203h-93l191 288h153z" />
    <glyph glyph-name="Otilde" unicode="&#xd5;" horiz-adv-x="1540" 
d="M770 -26q-142 0 -267 56.5t-220 156.5t-149 231.5t-54 281.5t54 281.5t149 231.5t220 156.5t267 56.5q143 0 268 -56.5t220 -156.5t148.5 -231.5t53.5 -281.5t-53.5 -281.5t-148.5 -231.5t-220 -156.5t-268 -56.5zM770 114q115 0 214.5 46.5t175 127.5t118 187t42.5 225
q0 120 -43 226.5t-118.5 187t-175 126.5t-213.5 46q-115 0 -214.5 -46.5t-175 -127.5t-118 -187t-42.5 -225q0 -121 43 -227t118.5 -187t175 -126.5t213.5 -45.5zM925 1531q-37 0 -82 23.5t-91 54t-85 51.5t-64 15q-26 -6 -41 -33t-5 -65l-95 -26q-19 57 -4.5 109t55.5 84.5
t100 32.5q38 0 83 -22t91 -50.5t85 -50.5t64 -22q34 0 45.5 36.5t1.5 61.5l95 30q20 -60 4.5 -112t-57 -84.5t-100.5 -32.5z" />
    <glyph glyph-name="Odieresis" unicode="&#xd6;" horiz-adv-x="1540" 
d="M770 -26q-142 0 -267 56.5t-220 156.5t-149 231.5t-54 281.5t54 281.5t149 231.5t220 156.5t267 56.5q143 0 268 -56.5t220 -156.5t148.5 -231.5t53.5 -281.5t-53.5 -281.5t-148.5 -231.5t-220 -156.5t-268 -56.5zM770 114q115 0 214.5 46.5t175 127.5t118 187t42.5 225
q0 120 -43 226.5t-118.5 187t-175 126.5t-213.5 46q-115 0 -214.5 -46.5t-175 -127.5t-118 -187t-42.5 -225q0 -121 43 -227t118.5 -187t175 -126.5t213.5 -45.5zM614 1481q-34 0 -58.5 22.5t-24.5 56.5q0 33 24.5 57t58.5 24q33 0 56.5 -24t23.5 -57q0 -34 -23.5 -56.5
t-56.5 -22.5zM928 1481q-34 0 -58 22.5t-24 56.5q0 33 24 57t58 24q33 0 57 -24t24 -57q0 -34 -24 -56.5t-57 -22.5z" />
    <glyph glyph-name="multiply" unicode="&#xd7;" horiz-adv-x="966" 
d="M179 197l-99 99l303 304l-303 304l99 99l303 -304l304 304l100 -99l-305 -304l305 -304l-100 -99l-304 304z" />
    <glyph glyph-name="Oslash" unicode="&#xd8;" horiz-adv-x="1540" 
d="M401 -82l-122 70l78 135q-124 99 -200.5 250t-76.5 327q0 150 54 281.5t149 231.5t220 156.5t267 56.5q81 0 155.5 -19t141.5 -54l74 129l122 -70l-78 -134q125 -98 200 -249t75 -329q0 -150 -53.5 -281.5t-148.5 -231.5t-220 -156.5t-268 -56.5q-79 0 -153 19.5
t-142 53.5zM430 251l566 978q-50 27 -107.5 42t-118.5 15q-115 0 -214.5 -46.5t-175 -127.5t-118 -187t-42.5 -225q0 -137 57.5 -254.5t152.5 -194.5zM770 114q115 0 214.5 46.5t175 127.5t118 187t42.5 225q0 137 -56.5 254.5t-151.5 196.5l-566 -980q106 -57 224 -57z" />
    <glyph glyph-name="Ugrave" unicode="&#xd9;" horiz-adv-x="1326" 
d="M663 -26q-168 0 -290 82t-187.5 220.5t-65.5 307.5v816h140v-816q0 -128 47 -235t137 -171t219 -64q132 0 221.5 64.5t135.5 171.5t46 234v816h140v-816q0 -169 -65.5 -307.5t-187.5 -220.5t-290 -82zM470 1798h140l80 -288h-93z" />
    <glyph glyph-name="Uacute" unicode="&#xda;" horiz-adv-x="1326" 
d="M663 -26q-168 0 -290 82t-187.5 220.5t-65.5 307.5v816h140v-816q0 -128 47 -235t137 -171t219 -64q132 0 221.5 64.5t135.5 171.5t46 234v816h140v-816q0 -169 -65.5 -307.5t-187.5 -220.5t-290 -82zM629 1510l80 288h140l-126 -288h-94z" />
    <glyph glyph-name="Ucircumflex" unicode="&#xdb;" horiz-adv-x="1326" 
d="M663 -26q-168 0 -290 82t-187.5 220.5t-65.5 307.5v816h140v-816q0 -128 47 -235t137 -171t219 -64q132 0 221.5 64.5t135.5 171.5t46 234v816h140v-816q0 -169 -65.5 -307.5t-187.5 -220.5t-290 -82zM740 1798l193 -288h-94l-176 203l-174 -203h-93l191 288h153z" />
    <glyph glyph-name="Udieresis" unicode="&#xdc;" horiz-adv-x="1326" 
d="M663 -26q-168 0 -290 82t-187.5 220.5t-65.5 307.5v816h140v-816q0 -128 47 -235t137 -171t219 -64q132 0 221.5 64.5t135.5 171.5t46 234v816h140v-816q0 -169 -65.5 -307.5t-187.5 -220.5t-290 -82zM507 1481q-34 0 -58.5 22.5t-24.5 56.5q0 33 24.5 57t58.5 24
q33 0 56.5 -24t23.5 -57q0 -34 -23.5 -56.5t-56.5 -22.5zM821 1481q-34 0 -58 22.5t-24 56.5q0 33 24 57t58 24q33 0 57 -24t24 -57q0 -34 -24 -56.5t-57 -22.5z" />
    <glyph glyph-name="Yacute" unicode="&#xdd;" horiz-adv-x="1203" 
d="M978 1400h165l-472 -766v-634h-140v634l-471 766h165l376 -613zM567 1510l80 288h140l-126 -288h-94z" />
    <glyph glyph-name="Thorn" unicode="&#xde;" horiz-adv-x="1027" 
d="M120 0v1400h140v-291h308q112 0 202 -54.5t143.5 -147t53.5 -207.5q0 -116 -54.5 -208.5t-145 -146.5t-199.5 -54h-308v-291h-140zM260 431h297q74 0 135.5 36t98 98.5t36.5 141.5t-36.5 141.5t-98 99t-135.5 36.5h-297v-553z" />
    <glyph glyph-name="germandbls" unicode="&#xdf;" horiz-adv-x="1069" 
d="M120 0v953q0 123 60 224.5t161.5 162t224.5 60.5q103 0 186.5 -51t133 -137.5t49.5 -193.5q0 -91 -42 -174.5t-122 -126.5q80 -19 133 -71.5t79 -123.5t26 -147q0 -105 -51.5 -190t-138 -135t-191.5 -50h-74l-27 125h90q73 0 132.5 35t95 93.5t35.5 129.5t-35.5 128.5
t-95 92.5t-132.5 35l-90 2v120l27 2q66 2 121 36t87.5 91.5t32.5 127.5q0 71 -32.5 129t-87.5 93t-121 35q-81 0 -148 -40t-106.5 -107t-39.5 -149v-979h-140z" />
    <glyph glyph-name="agrave" unicode="&#xe0;" horiz-adv-x="1162" 
d="M942 1000h140v-1000h-140l-5 186q-49 -95 -137 -153.5t-210 -58.5q-110 0 -206 41.5t-169 114.5t-114 169t-41 206q0 145 70.5 263.5t188.5 189t262 70.5q125 0 218 -59.5t148 -155.5zM587 110q107 0 184 52.5t118.5 141.5t41.5 196q0 110 -42 198.5t-119 140.5t-183 52
t-193.5 -52.5t-139 -141.5t-51.5 -197q0 -109 53 -197.5t140.5 -140.5t190.5 -52zM403 1398h140l80 -288h-93z" />
    <glyph glyph-name="aacute" unicode="&#xe1;" horiz-adv-x="1162" 
d="M942 1000h140v-1000h-140l-5 186q-49 -95 -137 -153.5t-210 -58.5q-110 0 -206 41.5t-169 114.5t-114 169t-41 206q0 145 70.5 263.5t188.5 189t262 70.5q125 0 218 -59.5t148 -155.5zM587 110q107 0 184 52.5t118.5 141.5t41.5 196q0 110 -42 198.5t-119 140.5t-183 52
t-193.5 -52.5t-139 -141.5t-51.5 -197q0 -109 53 -197.5t140.5 -140.5t190.5 -52zM562 1110l80 288h140l-126 -288h-94z" />
    <glyph glyph-name="acircumflex" unicode="&#xe2;" horiz-adv-x="1162" 
d="M942 1000h140v-1000h-140l-5 186q-49 -95 -137 -153.5t-210 -58.5q-110 0 -206 41.5t-169 114.5t-114 169t-41 206q0 145 70.5 263.5t188.5 189t262 70.5q125 0 218 -59.5t148 -155.5zM587 110q107 0 184 52.5t118.5 141.5t41.5 196q0 110 -42 198.5t-119 140.5t-183 52
t-193.5 -52.5t-139 -141.5t-51.5 -197q0 -109 53 -197.5t140.5 -140.5t190.5 -52zM673 1398l193 -288h-94l-176 203l-174 -203h-93l191 288h153z" />
    <glyph glyph-name="atilde" unicode="&#xe3;" horiz-adv-x="1162" 
d="M942 1000h140v-1000h-140l-5 186q-49 -95 -137 -153.5t-210 -58.5q-110 0 -206 41.5t-169 114.5t-114 169t-41 206q0 145 70.5 263.5t188.5 189t262 70.5q125 0 218 -59.5t148 -155.5zM587 110q107 0 184 52.5t118.5 141.5t41.5 196q0 110 -42 198.5t-119 140.5t-183 52
t-193.5 -52.5t-139 -141.5t-51.5 -197q0 -109 53 -197.5t140.5 -140.5t190.5 -52zM751 1131q-37 0 -82 23.5t-91 54t-85 51.5t-64 15q-26 -6 -41 -33t-5 -65l-95 -26q-19 57 -4.5 109t55.5 84.5t100 32.5q38 0 83 -22t91 -50.5t85 -50.5t64 -22q34 0 45.5 36.5t1.5 61.5
l95 30q20 -60 4.5 -112t-57 -84.5t-100.5 -32.5z" />
    <glyph glyph-name="adieresis" unicode="&#xe4;" horiz-adv-x="1162" 
d="M942 1000h140v-1000h-140l-5 186q-49 -95 -137 -153.5t-210 -58.5q-110 0 -206 41.5t-169 114.5t-114 169t-41 206q0 145 70.5 263.5t188.5 189t262 70.5q125 0 218 -59.5t148 -155.5zM587 110q107 0 184 52.5t118.5 141.5t41.5 196q0 110 -42 198.5t-119 140.5t-183 52
t-193.5 -52.5t-139 -141.5t-51.5 -197q0 -109 53 -197.5t140.5 -140.5t190.5 -52zM440 1081q-34 0 -58.5 22.5t-24.5 56.5q0 33 24.5 57t58.5 24q33 0 56.5 -24t23.5 -57q0 -34 -23.5 -56.5t-56.5 -22.5zM754 1081q-34 0 -58 22.5t-24 56.5q0 33 24 57t58 24q33 0 57 -24
t24 -57q0 -34 -24 -56.5t-57 -22.5z" />
    <glyph glyph-name="aring" unicode="&#xe5;" horiz-adv-x="1162" 
d="M942 1000h140v-1000h-140l-5 186q-49 -95 -137 -153.5t-210 -58.5q-110 0 -206 41.5t-169 114.5t-114 169t-41 206q0 145 70.5 263.5t188.5 189t262 70.5q125 0 218 -59.5t148 -155.5zM587 110q107 0 184 52.5t118.5 141.5t41.5 196q0 110 -42 198.5t-119 140.5t-183 52
t-193.5 -52.5t-139 -141.5t-51.5 -197q0 -109 53 -197.5t140.5 -140.5t190.5 -52zM596 1095q-66 0 -112.5 47.5t-46.5 112.5t46.5 111.5t112.5 46.5q65 0 111.5 -46.5t46.5 -111.5q0 -67 -46.5 -113.5t-111.5 -46.5zM596 1173q33 0 56.5 24t23.5 58q0 32 -23.5 55t-56.5 23
q-34 0 -57 -23t-23 -55q0 -34 23 -58t57 -24z" />
    <glyph glyph-name="ae" unicode="&#xe6;" horiz-adv-x="1776" 
d="M333 -25q-87 0 -155.5 37.5t-108 103.5t-39.5 150q0 79 36.5 146t103.5 108t158 41h388q-1 89 -40.5 163.5t-111 119t-169.5 44.5q-75 0 -144 -32l-76 118q104 54 218 54q133 0 241.5 -69.5t168.5 -185.5q61 114 172 184.5t245 70.5q149 0 263.5 -77t177 -208.5
t54.5 -295.5h-847q11 -95 60 -170.5t125 -119t168 -43.5q99 0 179.5 52t129.5 143l142 -33q-60 -133 -181 -217.5t-271 -84.5q-145 0 -262 80.5t-175 207.5q-59 -124 -180.5 -205.5t-269.5 -81.5zM864 560h710q-7 93 -56.5 170.5t-127 124t-170.5 46.5t-170.5 -45.5
t-126.5 -123t-59 -172.5zM333 102q113 0 200.5 59.5t133.5 149.5q34 63 48 137h-387q-78 0 -124.5 -50t-46.5 -124q0 -67 45.5 -119.5t130.5 -52.5z" />
    <glyph glyph-name="ccedilla" unicode="&#xe7;" horiz-adv-x="1019" 
d="M834 251l125 -68q-68 -95 -172.5 -152t-226.5 -57q-138 0 -251.5 71t-181 190.5t-67.5 264.5q0 146 67.5 266t181 191t251.5 71q122 0 226.5 -57t172.5 -153l-125 -67q-52 66 -125 101.5t-149 35.5q-101 0 -183 -53.5t-129.5 -141.5t-47.5 -193t48.5 -193t130.5 -140.5
t181 -52.5q82 0 154 38t120 99zM562 -367q-63 -17 -120 16t-74 96l87 23q7 -27 31.5 -41t52.5 -7q28 8 42.5 32.5t6.5 52.5q-7 28 -31.5 41.5t-53.5 7.5l-95 -13l123 214l78 -45l-42 -73q38 -10 67.5 -39t40.5 -70q17 -64 -16 -121t-97 -74z" />
    <glyph glyph-name="egrave" unicode="&#xe8;" horiz-adv-x="1117" 
d="M560 -26q-138 0 -251.5 71t-181 190.5t-67.5 264.5q0 146 67.5 266t181 191t251.5 71q149 0 263.5 -76.5t177.5 -208t55 -296.5h-848q12 -95 60.5 -170t124 -118.5t167.5 -44.5q100 0 180.5 52t129.5 143l142 -33q-60 -133 -181 -217.5t-271 -84.5zM204 560h711
q-7 93 -56.5 170.5t-127.5 124t-171 46.5t-170 -45.5t-126 -123t-60 -172.5zM366 1398h140l80 -288h-93z" />
    <glyph glyph-name="eacute" unicode="&#xe9;" horiz-adv-x="1117" 
d="M560 -26q-138 0 -251.5 71t-181 190.5t-67.5 264.5q0 146 67.5 266t181 191t251.5 71q149 0 263.5 -76.5t177.5 -208t55 -296.5h-848q12 -95 60.5 -170t124 -118.5t167.5 -44.5q100 0 180.5 52t129.5 143l142 -33q-60 -133 -181 -217.5t-271 -84.5zM204 560h711
q-7 93 -56.5 170.5t-127.5 124t-171 46.5t-170 -45.5t-126 -123t-60 -172.5zM525 1110l80 288h140l-126 -288h-94z" />
    <glyph glyph-name="ecircumflex" unicode="&#xea;" horiz-adv-x="1117" 
d="M560 -26q-138 0 -251.5 71t-181 190.5t-67.5 264.5q0 146 67.5 266t181 191t251.5 71q149 0 263.5 -76.5t177.5 -208t55 -296.5h-848q12 -95 60.5 -170t124 -118.5t167.5 -44.5q100 0 180.5 52t129.5 143l142 -33q-60 -133 -181 -217.5t-271 -84.5zM204 560h711
q-7 93 -56.5 170.5t-127.5 124t-171 46.5t-170 -45.5t-126 -123t-60 -172.5zM636 1398l193 -288h-94l-176 203l-174 -203h-93l191 288h153z" />
    <glyph glyph-name="edieresis" unicode="&#xeb;" horiz-adv-x="1117" 
d="M560 -26q-138 0 -251.5 71t-181 190.5t-67.5 264.5q0 146 67.5 266t181 191t251.5 71q149 0 263.5 -76.5t177.5 -208t55 -296.5h-848q12 -95 60.5 -170t124 -118.5t167.5 -44.5q100 0 180.5 52t129.5 143l142 -33q-60 -133 -181 -217.5t-271 -84.5zM204 560h711
q-7 93 -56.5 170.5t-127.5 124t-171 46.5t-170 -45.5t-126 -123t-60 -172.5zM403 1081q-34 0 -58.5 22.5t-24.5 56.5q0 33 24.5 57t58.5 24q33 0 56.5 -24t23.5 -57q0 -34 -23.5 -56.5t-56.5 -22.5zM717 1081q-34 0 -58 22.5t-24 56.5q0 33 24 57t58 24q33 0 57 -24t24 -57
q0 -34 -24 -56.5t-57 -22.5z" />
    <glyph glyph-name="igrave" unicode="&#xec;" horiz-adv-x="380" 
d="M120 1000h140v-1000h-140v1000zM-3 1398h140l80 -288h-93z" />
    <glyph glyph-name="iacute" unicode="&#xed;" horiz-adv-x="380" 
d="M120 1000h140v-1000h-140v1000zM156 1110l80 288h140l-126 -288h-94z" />
    <glyph glyph-name="icircumflex" unicode="&#xee;" horiz-adv-x="380" 
d="M120 1000h140v-1000h-140v1000zM267 1398l193 -288h-94l-176 203l-174 -203h-93l191 288h153z" />
    <glyph glyph-name="idieresis" unicode="&#xef;" horiz-adv-x="380" 
d="M120 1000h140v-1000h-140v1000zM34 1081q-34 0 -58.5 22.5t-24.5 56.5q0 33 24.5 57t58.5 24q33 0 56.5 -24t23.5 -57q0 -34 -23.5 -56.5t-56.5 -22.5zM348 1081q-34 0 -58 22.5t-24 56.5q0 33 24 57t58 24q33 0 57 -24t24 -57q0 -34 -24 -56.5t-57 -22.5z" />
    <glyph glyph-name="eth" unicode="&#xf0;" horiz-adv-x="1125" 
d="M583 -26q-138 0 -252.5 68t-182.5 182t-68 252q0 139 68 253t182.5 182t252.5 68q95 0 175.5 -42t132.5 -113q-28 123 -91.5 239.5t-160.5 193.5l-207 -204l-77 76l191 187q-43 20 -91.5 31.5t-101.5 11.5v140q80 0 155 -21t142 -61l145 142l74 -76l-130 -128
q105 -87 182.5 -216t120 -287.5t43.5 -332.5q0 -160 -64 -283t-177 -192.5t-261 -69.5zM583 114q102 0 184.5 50t130.5 132.5t48 179.5q0 100 -48.5 182t-131 131.5t-183.5 49.5q-102 0 -184 -50t-130.5 -132.5t-48.5 -180.5t48.5 -180.5t131 -132t183.5 -49.5z" />
    <glyph glyph-name="ntilde" unicode="&#xf1;" 
d="M992 619v-619h-140v591q0 82 -40 149t-107 107t-149 40q-81 0 -148.5 -40t-107.5 -107t-40 -149v-591h-140v1000h140v-138q53 76 138 121t185 45q113 0 206 -55t148 -148t55 -206zM718 1131q-37 0 -82 23.5t-91 54t-85 51.5t-64 15q-26 -6 -41 -33t-5 -65l-95 -26
q-19 57 -4.5 109t55.5 84.5t100 32.5q38 0 83 -22t91 -50.5t85 -50.5t64 -22q34 0 45.5 36.5t1.5 61.5l95 30q20 -60 4.5 -112t-57 -84.5t-100.5 -32.5z" />
    <glyph glyph-name="ograve" unicode="&#xf2;" horiz-adv-x="1120" 
d="M560 -26q-138 0 -251.5 71t-181 190.5t-67.5 264.5q0 146 67.5 266t181 191t251.5 71t251.5 -71t181 -191t67.5 -266q0 -145 -67.5 -264.5t-181 -190.5t-251.5 -71zM560 114q102 0 183.5 53.5t129 141.5t47.5 191q0 105 -48 193.5t-129.5 141.5t-182.5 53
q-102 0 -183.5 -53.5t-129 -141.5t-47.5 -193q0 -108 49 -195.5t131 -139t180 -51.5zM367 1398h140l80 -288h-93z" />
    <glyph glyph-name="oacute" unicode="&#xf3;" horiz-adv-x="1120" 
d="M560 -26q-138 0 -251.5 71t-181 190.5t-67.5 264.5q0 146 67.5 266t181 191t251.5 71t251.5 -71t181 -191t67.5 -266q0 -145 -67.5 -264.5t-181 -190.5t-251.5 -71zM560 114q102 0 183.5 53.5t129 141.5t47.5 191q0 105 -48 193.5t-129.5 141.5t-182.5 53
q-102 0 -183.5 -53.5t-129 -141.5t-47.5 -193q0 -108 49 -195.5t131 -139t180 -51.5zM526 1110l80 288h140l-126 -288h-94z" />
    <glyph glyph-name="ocircumflex" unicode="&#xf4;" horiz-adv-x="1120" 
d="M560 -26q-138 0 -251.5 71t-181 190.5t-67.5 264.5q0 146 67.5 266t181 191t251.5 71t251.5 -71t181 -191t67.5 -266q0 -145 -67.5 -264.5t-181 -190.5t-251.5 -71zM560 114q102 0 183.5 53.5t129 141.5t47.5 191q0 105 -48 193.5t-129.5 141.5t-182.5 53
q-102 0 -183.5 -53.5t-129 -141.5t-47.5 -193q0 -108 49 -195.5t131 -139t180 -51.5zM637 1398l193 -288h-94l-176 203l-174 -203h-93l191 288h153z" />
    <glyph glyph-name="otilde" unicode="&#xf5;" horiz-adv-x="1120" 
d="M560 -26q-138 0 -251.5 71t-181 190.5t-67.5 264.5q0 146 67.5 266t181 191t251.5 71t251.5 -71t181 -191t67.5 -266q0 -145 -67.5 -264.5t-181 -190.5t-251.5 -71zM560 114q102 0 183.5 53.5t129 141.5t47.5 191q0 105 -48 193.5t-129.5 141.5t-182.5 53
q-102 0 -183.5 -53.5t-129 -141.5t-47.5 -193q0 -108 49 -195.5t131 -139t180 -51.5zM715 1131q-37 0 -82 23.5t-91 54t-85 51.5t-64 15q-26 -6 -41 -33t-5 -65l-95 -26q-19 57 -4.5 109t55.5 84.5t100 32.5q38 0 83 -22t91 -50.5t85 -50.5t64 -22q34 0 45.5 36.5t1.5 61.5
l95 30q20 -60 4.5 -112t-57 -84.5t-100.5 -32.5z" />
    <glyph glyph-name="odieresis" unicode="&#xf6;" horiz-adv-x="1120" 
d="M560 -26q-138 0 -251.5 71t-181 190.5t-67.5 264.5q0 146 67.5 266t181 191t251.5 71t251.5 -71t181 -191t67.5 -266q0 -145 -67.5 -264.5t-181 -190.5t-251.5 -71zM560 114q102 0 183.5 53.5t129 141.5t47.5 191q0 105 -48 193.5t-129.5 141.5t-182.5 53
q-102 0 -183.5 -53.5t-129 -141.5t-47.5 -193q0 -108 49 -195.5t131 -139t180 -51.5zM404 1081q-34 0 -58.5 22.5t-24.5 56.5q0 33 24.5 57t58.5 24q33 0 56.5 -24t23.5 -57q0 -34 -23.5 -56.5t-56.5 -22.5zM718 1081q-34 0 -58 22.5t-24 56.5q0 33 24 57t58 24q33 0 57 -24
t24 -57q0 -34 -24 -56.5t-57 -22.5z" />
    <glyph glyph-name="divide" unicode="&#xf7;" horiz-adv-x="1160" 
d="M580 1066q41 0 71.5 -32t30.5 -73q0 -42 -30.5 -72.5t-71.5 -30.5q-45 0 -74 30.5t-29 72.5q0 41 29 73t74 32zM80 530v140h1000v-140h-1000zM580 341q41 0 73 -32t32 -73q0 -43 -32 -72.5t-73 -29.5q-45 0 -74 29.5t-29 72.5q0 41 29 73t74 32z" />
    <glyph glyph-name="oslash" unicode="&#xf8;" horiz-adv-x="1120" 
d="M308 -55l-104 60l49 83q-88 72 -140.5 179.5t-52.5 232.5q0 146 67.5 266t181 191t251.5 71q112 0 206 -48l47 79l104 -60l-48 -84q87 -72 139 -179.5t52 -235.5q0 -145 -67.5 -264.5t-181 -190.5t-251.5 -71q-55 0 -107.5 13.5t-99.5 35.5zM322 208l379 658
q-90 41 -180 28t-164.5 -68t-119.5 -141t-45 -191q0 -88 35.5 -162t94.5 -124zM419 137q93 -41 183.5 -28t164 68t117.5 140.5t44 188.5q0 88 -35 163t-94 126z" />
    <glyph glyph-name="ugrave" unicode="&#xf9;" horiz-adv-x="1032" 
d="M80 383v617h140v-589q0 -82 40 -149t107.5 -107t148.5 -40q82 0 148.5 40t106.5 107t40 149v589h140l1 -1000h-140l-1 140q-53 -76 -137.5 -121t-184.5 -45q-113 0 -206 55t-148 148t-55 206zM336 1399h140l80 -288h-93z" />
    <glyph glyph-name="uacute" unicode="&#xfa;" horiz-adv-x="1032" 
d="M80 383v617h140v-589q0 -82 40 -149t107.5 -107t148.5 -40q82 0 148.5 40t106.5 107t40 149v589h140l1 -1000h-140l-1 140q-53 -76 -137.5 -121t-184.5 -45q-113 0 -206 55t-148 148t-55 206zM495 1111l80 288h140l-126 -288h-94z" />
    <glyph glyph-name="ucircumflex" unicode="&#xfb;" horiz-adv-x="1032" 
d="M80 383v617h140v-589q0 -82 40 -149t107.5 -107t148.5 -40q82 0 148.5 40t106.5 107t40 149v589h140l1 -1000h-140l-1 140q-53 -76 -137.5 -121t-184.5 -45q-113 0 -206 55t-148 148t-55 206zM606 1399l193 -288h-94l-176 203l-174 -203h-93l191 288h153z" />
    <glyph glyph-name="udieresis" unicode="&#xfc;" horiz-adv-x="1032" 
d="M80 383v617h140v-589q0 -82 40 -149t107.5 -107t148.5 -40q82 0 148.5 40t106.5 107t40 149v589h140l1 -1000h-140l-1 140q-53 -76 -137.5 -121t-184.5 -45q-113 0 -206 55t-148 148t-55 206zM373 1082q-34 0 -58.5 22.5t-24.5 56.5q0 33 24.5 57t58.5 24q33 0 56.5 -24
t23.5 -57q0 -34 -23.5 -56.5t-56.5 -22.5zM687 1082q-34 0 -58 22.5t-24 56.5q0 33 24 57t58 24q33 0 57 -24t24 -57q0 -34 -24 -56.5t-57 -22.5z" />
    <glyph glyph-name="yacute" unicode="&#xfd;" horiz-adv-x="1033" 
d="M805 1000h148l-547 -1500h-149l182 500l-359 1000h153l276 -807zM482 1110l80 288h140l-126 -288h-94z" />
    <glyph glyph-name="thorn" unicode="&#xfe;" horiz-adv-x="1202" 
d="M120 -500v1900h140v-587q52 95 142 154t214 59q146 0 265 -71t190 -190.5t71 -264.5q0 -146 -71 -266t-190 -191t-265 -71q-124 0 -214 59t-142 154v-685h-140zM615 109q104 0 191.5 52t140.5 140.5t53 198.5q0 107 -52 195.5t-139 141.5t-194 53q-105 0 -182.5 -52.5
t-119.5 -140.5t-42 -197q0 -107 41.5 -196t119 -142t183.5 -53z" />
    <glyph glyph-name="ydieresis" unicode="&#xff;" horiz-adv-x="1033" 
d="M805 1000h148l-547 -1500h-149l182 500l-359 1000h153l276 -807zM360 1081q-34 0 -58.5 22.5t-24.5 56.5q0 33 24.5 57t58.5 24q33 0 56.5 -24t23.5 -57q0 -34 -23.5 -56.5t-56.5 -22.5zM674 1081q-34 0 -58 22.5t-24 56.5q0 33 24 57t58 24q33 0 57 -24t24 -57
q0 -34 -24 -56.5t-57 -22.5z" />
    <glyph glyph-name="Amacron" unicode="&#x100;" horiz-adv-x="1353" 
d="M589 1400h174l510 -1400h-149l-109 300h-677l-109 -300h-149zM389 440h574l-287 788zM338 1683h676v-113h-676v113z" />
    <glyph glyph-name="amacron" unicode="&#x101;" horiz-adv-x="1162" 
d="M942 1000h140v-1000h-140l-5 186q-49 -95 -137 -153.5t-210 -58.5q-110 0 -206 41.5t-169 114.5t-114 169t-41 206q0 145 70.5 263.5t188.5 189t262 70.5q125 0 218 -59.5t148 -155.5zM587 110q107 0 184 52.5t118.5 141.5t41.5 196q0 110 -42 198.5t-119 140.5t-183 52
t-193.5 -52.5t-139 -141.5t-51.5 -197q0 -109 53 -197.5t140.5 -140.5t190.5 -52zM258 1283h676v-113h-676v113z" />
    <glyph glyph-name="Abreve" unicode="&#x102;" horiz-adv-x="1353" 
d="M589 1400h174l510 -1400h-149l-109 300h-677l-109 -300h-149zM389 440h574l-287 788zM676 1488q-91 0 -166.5 45t-120.5 120.5t-45 166.5h100q0 -65 32.5 -117.5t85.5 -83.5t114 -31q64 0 116.5 31t84 84t31.5 117h100q0 -93 -45.5 -168.5t-121 -119.5t-165.5 -44z" />
    <glyph glyph-name="abreve" unicode="&#x103;" horiz-adv-x="1162" 
d="M942 1000h140v-1000h-140l-5 186q-49 -95 -137 -153.5t-210 -58.5q-110 0 -206 41.5t-169 114.5t-114 169t-41 206q0 145 70.5 263.5t188.5 189t262 70.5q125 0 218 -59.5t148 -155.5zM587 110q107 0 184 52.5t118.5 141.5t41.5 196q0 110 -42 198.5t-119 140.5t-183 52
t-193.5 -52.5t-139 -141.5t-51.5 -197q0 -109 53 -197.5t140.5 -140.5t190.5 -52zM596 1088q-91 0 -166.5 45t-120.5 120.5t-45 166.5h100q0 -65 32.5 -117.5t85.5 -83.5t114 -31q64 0 116.5 31t84 84t31.5 117h100q0 -93 -45.5 -168.5t-121 -119.5t-165.5 -44z" />
    <glyph glyph-name="Aogonek" unicode="&#x104;" horiz-adv-x="1353" 
d="M589 1400h174l510 -1400h-149l-109 300h-677l-109 -300h-149zM389 440h574l-287 788zM1157 -406q-82 1 -131.5 57.5t-49.5 126.5q0 35 13 68t41 61l168 168l75 -75q-74 -74 -114 -113.5t-55 -63t-15 -49.5q0 -28 19.5 -50.5t53.5 -24.5q38 0 70.5 28t32.5 74h101
q0 -87 -61 -147t-148 -60z" />
    <glyph glyph-name="aogonek" unicode="&#x105;" horiz-adv-x="1162" 
d="M942 1000h140v-1000h-140l-5 186q-49 -95 -137 -153.5t-210 -58.5q-110 0 -206 41.5t-169 114.5t-114 169t-41 206q0 145 70.5 263.5t188.5 189t262 70.5q125 0 218 -59.5t148 -155.5zM587 110q107 0 184 52.5t118.5 141.5t41.5 196q0 110 -42 198.5t-119 140.5t-183 52
t-193.5 -52.5t-139 -141.5t-51.5 -197q0 -109 53 -197.5t140.5 -140.5t190.5 -52zM966 -406q-82 1 -131.5 57.5t-49.5 126.5q0 35 13 68t41 61l168 168l75 -75q-74 -74 -114 -113.5t-55 -63t-15 -49.5q0 -28 19.5 -50.5t53.5 -24.5q38 0 70.5 28t32.5 74h101q0 -87 -61 -147
t-148 -60z" />
    <glyph glyph-name="Cacute" unicode="&#x106;" horiz-adv-x="1418" 
d="M768 -26q-142 0 -267 56.5t-219.5 156t-148 231.5t-53.5 282t53.5 282t148 231.5t219.5 156t267 56.5q170 0 313 -79t237 -210l-124 -67q-74 99 -187.5 157.5t-238.5 58.5q-115 0 -214.5 -46.5t-174.5 -127.5t-117 -187t-42 -225q0 -121 42.5 -227t118 -187t175 -126.5
t212.5 -45.5q130 0 241.5 59.5t184.5 155.5l124 -67q-94 -131 -237 -209.5t-313 -78.5zM734 1510l80 288h140l-126 -288h-94z" />
    <glyph glyph-name="cacute" unicode="&#x107;" horiz-adv-x="1019" 
d="M834 251l125 -68q-68 -95 -172.5 -152t-226.5 -57q-138 0 -251.5 71t-181 190.5t-67.5 264.5q0 146 67.5 266t181 191t251.5 71q122 0 226.5 -57t172.5 -153l-125 -67q-52 66 -125 101.5t-149 35.5q-101 0 -183 -53.5t-129.5 -141.5t-47.5 -193t48.5 -193t130.5 -140.5
t181 -52.5q82 0 154 38t120 99zM526 1110l80 288h140l-126 -288h-94z" />
    <glyph glyph-name="Ccircumflex" unicode="&#x108;" horiz-adv-x="1418" 
d="M768 -26q-142 0 -267 56.5t-219.5 156t-148 231.5t-53.5 282t53.5 282t148 231.5t219.5 156t267 56.5q170 0 313 -79t237 -210l-124 -67q-74 99 -187.5 157.5t-238.5 58.5q-115 0 -214.5 -46.5t-174.5 -127.5t-117 -187t-42 -225q0 -121 42.5 -227t118 -187t175 -126.5
t212.5 -45.5q130 0 241.5 59.5t184.5 155.5l124 -67q-94 -131 -237 -209.5t-313 -78.5zM845 1798l193 -288h-94l-176 203l-174 -203h-93l191 288h153z" />
    <glyph glyph-name="ccircumflex" unicode="&#x109;" horiz-adv-x="1019" 
d="M834 251l125 -68q-68 -95 -172.5 -152t-226.5 -57q-138 0 -251.5 71t-181 190.5t-67.5 264.5q0 146 67.5 266t181 191t251.5 71q122 0 226.5 -57t172.5 -153l-125 -67q-52 66 -125 101.5t-149 35.5q-101 0 -183 -53.5t-129.5 -141.5t-47.5 -193t48.5 -193t130.5 -140.5
t181 -52.5q82 0 154 38t120 99zM637 1398l193 -288h-94l-176 203l-174 -203h-93l191 288h153z" />
    <glyph glyph-name="Cdotaccent" unicode="&#x10a;" horiz-adv-x="1418" 
d="M768 -26q-142 0 -267 56.5t-219.5 156t-148 231.5t-53.5 282t53.5 282t148 231.5t219.5 156t267 56.5q170 0 313 -79t237 -210l-124 -67q-74 99 -187.5 157.5t-238.5 58.5q-115 0 -214.5 -46.5t-174.5 -127.5t-117 -187t-42 -225q0 -121 42.5 -227t118 -187t175 -126.5
t212.5 -45.5q130 0 241.5 59.5t184.5 155.5l124 -67q-94 -131 -237 -209.5t-313 -78.5zM769 1575q-34 0 -57.5 22.5t-23.5 56.5t23.5 56.5t57.5 22.5q33 0 56.5 -22.5t23.5 -56.5t-23 -56.5t-57 -22.5z" />
    <glyph glyph-name="cdotaccent" unicode="&#x10b;" horiz-adv-x="1019" 
d="M834 251l125 -68q-68 -95 -172.5 -152t-226.5 -57q-138 0 -251.5 71t-181 190.5t-67.5 264.5q0 146 67.5 266t181 191t251.5 71q122 0 226.5 -57t172.5 -153l-125 -67q-52 66 -125 101.5t-149 35.5q-101 0 -183 -53.5t-129.5 -141.5t-47.5 -193t48.5 -193t130.5 -140.5
t181 -52.5q82 0 154 38t120 99zM561 1175q-34 0 -57.5 22.5t-23.5 56.5t23.5 56.5t57.5 22.5q33 0 56.5 -22.5t23.5 -56.5t-23 -56.5t-57 -22.5z" />
    <glyph glyph-name="Ccaron" unicode="&#x10c;" horiz-adv-x="1418" 
d="M768 -26q-142 0 -267 56.5t-219.5 156t-148 231.5t-53.5 282t53.5 282t148 231.5t219.5 156t267 56.5q170 0 313 -79t237 -210l-124 -67q-74 99 -187.5 157.5t-238.5 58.5q-115 0 -214.5 -46.5t-174.5 -127.5t-117 -187t-42 -225q0 -121 42.5 -227t118 -187t175 -126.5
t212.5 -45.5q130 0 241.5 59.5t184.5 155.5l124 -67q-94 -131 -237 -209.5t-313 -78.5zM691 1510l-193 288h93l177 -203l173 203h94l-191 -288h-153z" />
    <glyph glyph-name="ccaron" unicode="&#x10d;" horiz-adv-x="1019" 
d="M834 251l125 -68q-68 -95 -172.5 -152t-226.5 -57q-138 0 -251.5 71t-181 190.5t-67.5 264.5q0 146 67.5 266t181 191t251.5 71q122 0 226.5 -57t172.5 -153l-125 -67q-52 66 -125 101.5t-149 35.5q-101 0 -183 -53.5t-129.5 -141.5t-47.5 -193t48.5 -193t130.5 -140.5
t181 -52.5q82 0 154 38t120 99zM483 1110l-193 288h93l177 -203l173 203h94l-191 -288h-153z" />
    <glyph glyph-name="Dcaron" unicode="&#x10e;" horiz-adv-x="1343" 
d="M120 0v1400h463q145 0 272 -54.5t223 -151t150.5 -223t54.5 -271.5t-54.5 -271.5t-150.5 -223t-223 -151t-272 -54.5h-463zM260 140h323q116 0 217.5 43.5t178.5 120.5t120.5 178.5t43.5 217.5t-43.5 217.5t-121 178.5t-178.5 120.5t-217 43.5h-323v-1120zM575 1510
l-193 288h93l177 -203l173 203h94l-191 -288h-153z" />
    <glyph glyph-name="dcaron" unicode="&#x10f;" horiz-adv-x="1203" 
d="M943 1500h140v-1500h-140v187q-52 -96 -142.5 -154.5t-214.5 -58.5q-109 0 -204 41t-167.5 113.5t-113.5 167.5t-41 204t41 204.5t113.5 168t167.5 113.5t204 41q124 0 214.5 -58.5t142.5 -153.5v685zM587 110q107 0 184 52.5t118.5 141.5t41.5 196q0 110 -42 198.5
t-119 140.5t-183 52t-193 -52.5t-139 -141.5t-52 -197q0 -109 53 -197.5t140.5 -140.5t190.5 -52zM1169 1212l80 288h140l-126 -288h-94z" />
    <glyph glyph-name="Emacron" unicode="&#x112;" 
d="M120 0v1400h852v-140h-712v-440h589v-140h-589v-540h712v-140h-852zM198 1683h676v-113h-676v113z" />
    <glyph glyph-name="emacron" unicode="&#x113;" horiz-adv-x="1117" 
d="M560 -26q-138 0 -251.5 71t-181 190.5t-67.5 264.5q0 146 67.5 266t181 191t251.5 71q149 0 263.5 -76.5t177.5 -208t55 -296.5h-848q12 -95 60.5 -170t124 -118.5t167.5 -44.5q100 0 180.5 52t129.5 143l142 -33q-60 -133 -181 -217.5t-271 -84.5zM204 560h711
q-7 93 -56.5 170.5t-127.5 124t-171 46.5t-170 -45.5t-126 -123t-60 -172.5zM221 1283h676v-113h-676v113z" />
    <glyph glyph-name="Edotaccent" unicode="&#x116;" 
d="M120 0v1400h852v-140h-712v-440h589v-140h-589v-540h712v-140h-852zM537 1575q-34 0 -57.5 22.5t-23.5 56.5t23.5 56.5t57.5 22.5q33 0 56.5 -22.5t23.5 -56.5t-23 -56.5t-57 -22.5z" />
    <glyph glyph-name="edotaccent" unicode="&#x117;" horiz-adv-x="1117" 
d="M560 -26q-138 0 -251.5 71t-181 190.5t-67.5 264.5q0 146 67.5 266t181 191t251.5 71q149 0 263.5 -76.5t177.5 -208t55 -296.5h-848q12 -95 60.5 -170t124 -118.5t167.5 -44.5q100 0 180.5 52t129.5 143l142 -33q-60 -133 -181 -217.5t-271 -84.5zM204 560h711
q-7 93 -56.5 170.5t-127.5 124t-171 46.5t-170 -45.5t-126 -123t-60 -172.5zM560 1175q-34 0 -57.5 22.5t-23.5 56.5t23.5 56.5t57.5 22.5q33 0 56.5 -22.5t23.5 -56.5t-23 -56.5t-57 -22.5z" />
    <glyph glyph-name="Eogonek" unicode="&#x118;" 
d="M120 0v1400h852v-140h-712v-440h589v-140h-589v-540h712v-140h-852zM736 -406q-82 1 -131.5 57.5t-49.5 126.5q0 35 13 68t41 61l168 168l75 -75q-74 -74 -114 -113.5t-55 -63t-15 -49.5q0 -28 19.5 -50.5t53.5 -24.5q38 0 70.5 28t32.5 74h101q0 -87 -61 -147t-148 -60z
" />
    <glyph glyph-name="eogonek" unicode="&#x119;" horiz-adv-x="1117" 
d="M560 -26q-138 0 -251.5 71t-181 190.5t-67.5 264.5q0 146 67.5 266t181 191t251.5 71q149 0 263.5 -76.5t177.5 -208t55 -296.5h-848q12 -95 60.5 -170t124 -118.5t167.5 -44.5q100 0 180.5 52t129.5 143l142 -33q-60 -133 -181 -217.5t-271 -84.5zM204 560h711
q-7 93 -56.5 170.5t-127.5 124t-171 46.5t-170 -45.5t-126 -123t-60 -172.5zM600 -406q-82 1 -131.5 57.5t-49.5 126.5q0 35 13 68t41 61l168 168l75 -75q-74 -74 -114 -113.5t-55 -63t-15 -49.5q0 -28 19.5 -50.5t53.5 -24.5q38 0 70.5 28t32.5 74h101q0 -87 -61 -147
t-148 -60z" />
    <glyph glyph-name="Ecaron" unicode="&#x11a;" 
d="M120 0v1400h852v-140h-712v-440h589v-140h-589v-540h712v-140h-852zM459 1510l-193 288h93l177 -203l173 203h94l-191 -288h-153z" />
    <glyph glyph-name="ecaron" unicode="&#x11b;" horiz-adv-x="1117" 
d="M560 -26q-138 0 -251.5 71t-181 190.5t-67.5 264.5q0 146 67.5 266t181 191t251.5 71q149 0 263.5 -76.5t177.5 -208t55 -296.5h-848q12 -95 60.5 -170t124 -118.5t167.5 -44.5q100 0 180.5 52t129.5 143l142 -33q-60 -133 -181 -217.5t-271 -84.5zM204 560h711
q-7 93 -56.5 170.5t-127.5 124t-171 46.5t-170 -45.5t-126 -123t-60 -172.5zM482 1110l-193 288h93l177 -203l173 203h94l-191 -288h-153z" />
    <glyph glyph-name="Gcircumflex" unicode="&#x11c;" horiz-adv-x="1536" 
d="M769 -26q-144 0 -269.5 56.5t-219.5 157t-147 232t-53 281.5q0 153 55 285t151 230.5t220.5 153.5t264.5 55q161 0 304.5 -75t243.5 -213l-125 -68q-80 105 -192.5 161t-231.5 56q-113 0 -212.5 -45.5t-175.5 -126.5t-119 -187t-43 -228q0 -121 43 -227t118.5 -186.5
t175.5 -126t214 -45.5q125 0 233 57t184 155.5t105 221.5h-378v127h541q-3 -145 -58 -272t-149.5 -223.5t-217 -151t-262.5 -54.5zM847 1798l193 -288h-94l-176 203l-174 -203h-93l191 288h153z" />
    <glyph glyph-name="gcircumflex" unicode="&#x11d;" horiz-adv-x="1175" 
d="M915 1000h140v-1037q0 -96 -41.5 -180t-112 -147.5t-160.5 -99.5t-187 -36q-104 0 -201 47.5t-168.5 126.5t-101.5 175l129 59q19 -75 71.5 -135.5t124 -96t146.5 -35.5q92 0 174.5 44t134.5 117t52 161v221q-52 -94 -140.5 -152t-205.5 -58q-140 0 -256 71t-184.5 190.5
t-68.5 264.5q0 146 68.5 265.5t184.5 190.5t256 71q117 0 205.5 -57.5t140.5 -152.5v183zM570 110q104 0 179.5 54t116.5 143t41 193q0 107 -41.5 195.5t-117.5 142t-178 53.5t-185.5 -52.5t-132.5 -141.5t-49 -197t50 -196.5t133.5 -141t183.5 -52.5zM665 1398l193 -288
h-94l-176 203l-174 -203h-93l191 288h153z" />
    <glyph glyph-name="Gbreve" unicode="&#x11e;" horiz-adv-x="1536" 
d="M769 -26q-144 0 -269.5 56.5t-219.5 157t-147 232t-53 281.5q0 153 55 285t151 230.5t220.5 153.5t264.5 55q161 0 304.5 -75t243.5 -213l-125 -68q-80 105 -192.5 161t-231.5 56q-113 0 -212.5 -45.5t-175.5 -126.5t-119 -187t-43 -228q0 -121 43 -227t118.5 -186.5
t175.5 -126t214 -45.5q125 0 233 57t184 155.5t105 221.5h-378v127h541q-3 -145 -58 -272t-149.5 -223.5t-217 -151t-262.5 -54.5zM770 1488q-91 0 -166.5 45t-120.5 120.5t-45 166.5h100q0 -65 32.5 -117.5t85.5 -83.5t114 -31q64 0 116.5 31t84 84t31.5 117h100
q0 -93 -45.5 -168.5t-121 -119.5t-165.5 -44z" />
    <glyph glyph-name="gbreve" unicode="&#x11f;" horiz-adv-x="1175" 
d="M915 1000h140v-1037q0 -96 -41.5 -180t-112 -147.5t-160.5 -99.5t-187 -36q-104 0 -201 47.5t-168.5 126.5t-101.5 175l129 59q19 -75 71.5 -135.5t124 -96t146.5 -35.5q92 0 174.5 44t134.5 117t52 161v221q-52 -94 -140.5 -152t-205.5 -58q-140 0 -256 71t-184.5 190.5
t-68.5 264.5q0 146 68.5 265.5t184.5 190.5t256 71q117 0 205.5 -57.5t140.5 -152.5v183zM570 110q104 0 179.5 54t116.5 143t41 193q0 107 -41.5 195.5t-117.5 142t-178 53.5t-185.5 -52.5t-132.5 -141.5t-49 -197t50 -196.5t133.5 -141t183.5 -52.5zM588 1088
q-91 0 -166.5 45t-120.5 120.5t-45 166.5h100q0 -65 32.5 -117.5t85.5 -83.5t114 -31q64 0 116.5 31t84 84t31.5 117h100q0 -93 -45.5 -168.5t-121 -119.5t-165.5 -44z" />
    <glyph glyph-name="Gdotaccent" unicode="&#x120;" horiz-adv-x="1536" 
d="M769 -26q-144 0 -269.5 56.5t-219.5 157t-147 232t-53 281.5q0 153 55 285t151 230.5t220.5 153.5t264.5 55q161 0 304.5 -75t243.5 -213l-125 -68q-80 105 -192.5 161t-231.5 56q-113 0 -212.5 -45.5t-175.5 -126.5t-119 -187t-43 -228q0 -121 43 -227t118.5 -186.5
t175.5 -126t214 -45.5q125 0 233 57t184 155.5t105 221.5h-378v127h541q-3 -145 -58 -272t-149.5 -223.5t-217 -151t-262.5 -54.5zM771 1575q-34 0 -57.5 22.5t-23.5 56.5t23.5 56.5t57.5 22.5q33 0 56.5 -22.5t23.5 -56.5t-23 -56.5t-57 -22.5z" />
    <glyph glyph-name="gdotaccent" unicode="&#x121;" horiz-adv-x="1175" 
d="M915 1000h140v-1037q0 -96 -41.5 -180t-112 -147.5t-160.5 -99.5t-187 -36q-104 0 -201 47.5t-168.5 126.5t-101.5 175l129 59q19 -75 71.5 -135.5t124 -96t146.5 -35.5q92 0 174.5 44t134.5 117t52 161v221q-52 -94 -140.5 -152t-205.5 -58q-140 0 -256 71t-184.5 190.5
t-68.5 264.5q0 146 68.5 265.5t184.5 190.5t256 71q117 0 205.5 -57.5t140.5 -152.5v183zM570 110q104 0 179.5 54t116.5 143t41 193q0 107 -41.5 195.5t-117.5 142t-178 53.5t-185.5 -52.5t-132.5 -141.5t-49 -197t50 -196.5t133.5 -141t183.5 -52.5zM589 1175
q-34 0 -57.5 22.5t-23.5 56.5t23.5 56.5t57.5 22.5q33 0 56.5 -22.5t23.5 -56.5t-23 -56.5t-57 -22.5z" />
    <glyph glyph-name="uni0122" unicode="&#x122;" horiz-adv-x="1536" 
d="M769 -26q-144 0 -269.5 56.5t-219.5 157t-147 232t-53 281.5q0 153 55 285t151 230.5t220.5 153.5t264.5 55q161 0 304.5 -75t243.5 -213l-125 -68q-80 105 -192.5 161t-231.5 56q-113 0 -212.5 -45.5t-175.5 -126.5t-119 -187t-43 -228q0 -121 43 -227t118.5 -186.5
t175.5 -126t214 -45.5q125 0 233 57t184 155.5t105 221.5h-378v127h541q-3 -145 -58 -272t-149.5 -223.5t-217 -151t-262.5 -54.5zM636 -441l62 338h140l-109 -338h-93z" />
    <glyph glyph-name="Hcircumflex" unicode="&#x124;" horiz-adv-x="1255" 
d="M995 1400h140v-1400h-140v680h-735v-680h-140v1400h140v-580h735v580zM704 1798l193 -288h-94l-176 203l-174 -203h-93l191 288h153z" />
    <glyph glyph-name="hcircumflex" unicode="&#x125;" 
d="M992 619v-619h-140v591q0 82 -40 149t-107 107t-149 40q-81 0 -148.5 -40t-107.5 -107t-40 -149v-591h-140v1500h140v-638q53 76 138 121t185 45q113 0 206 -55t148 -148t55 -206zM646 1823l193 -288h-94l-176 203l-174 -203h-93l191 288h153z" />
    <glyph glyph-name="Itilde" unicode="&#x128;" horiz-adv-x="440" 
d="M150 0v1400h140v-1400h-140zM375 1531q-37 0 -82 23.5t-91 54t-85 51.5t-64 15q-26 -6 -41 -33t-5 -65l-95 -26q-19 57 -4.5 109t55.5 84.5t100 32.5q38 0 83 -22t91 -50.5t85 -50.5t64 -22q34 0 45.5 36.5t1.5 61.5l95 30q20 -60 4.5 -112t-57 -84.5t-100.5 -32.5z" />
    <glyph glyph-name="itilde" unicode="&#x129;" horiz-adv-x="380" 
d="M304 1105q-28 0 -61 19t-66.5 43t-62 41t-47.5 12t-29.5 -26.5t-3.5 -51.5l-70 -21q-21 68 12 124.5t99 56.5q27 0 60.5 -17.5t67 -40.5t62.5 -40.5t47 -17.5q24 0 32.5 29t1.5 49l70 24q21 -72 -13.5 -127.5t-98.5 -55.5zM120 1000h140v-1000h-140v1000z" />
    <glyph glyph-name="Imacron" unicode="&#x12a;" horiz-adv-x="440" 
d="M150 0v1400h140v-1400h-140zM-118 1683h676v-113h-676v113z" />
    <glyph glyph-name="imacron" unicode="&#x12b;" horiz-adv-x="380" 
d="M0 1283h380v-113h-380v113zM120 1000h140v-1000h-140v1000z" />
    <glyph glyph-name="Iogonek" unicode="&#x12e;" horiz-adv-x="440" 
d="M150 0v1400h140v-1400h-140zM174 -406q-82 1 -131.5 57.5t-49.5 126.5q0 35 13 68t41 61l168 168l75 -75q-74 -74 -114 -113.5t-55 -63t-15 -49.5q0 -28 19.5 -50.5t53.5 -24.5q38 0 70.5 28t32.5 74h101q0 -87 -61 -147t-148 -60z" />
    <glyph glyph-name="iogonek" unicode="&#x12f;" horiz-adv-x="380" 
d="M120 1000h140v-1000h-140v1000zM191 1175q-34 0 -57.5 22.5t-23.5 56.5t23.5 56.5t57.5 22.5q33 0 56.5 -22.5t23.5 -56.5t-23 -56.5t-57 -22.5zM144 -406q-82 1 -131.5 57.5t-49.5 126.5q0 35 13 68t41 61l168 168l75 -75q-74 -74 -114 -113.5t-55 -63t-15 -49.5
q0 -28 19.5 -50.5t53.5 -24.5q38 0 70.5 28t32.5 74h101q0 -87 -61 -147t-148 -60z" />
    <glyph glyph-name="Idotaccent" unicode="&#x130;" horiz-adv-x="440" 
d="M150 0v1400h140v-1400h-140zM221 1575q-34 0 -57.5 22.5t-23.5 56.5t23.5 56.5t57.5 22.5q33 0 56.5 -22.5t23.5 -56.5t-23 -56.5t-57 -22.5z" />
    <glyph glyph-name="dotlessi" unicode="&#x131;" horiz-adv-x="380" 
d="M120 1000h140v-1000h-140v1000z" />
    <glyph glyph-name="IJ" unicode="&#x132;" horiz-adv-x="1243" 
d="M150 0v1400h140v-1400h-140zM730 -26q-68 0 -132.5 22.5t-117.5 68.5l89 108q32 -27 73 -43t88 -16q70 0 127 37.5t91.5 98t34.5 129.5v1021h140v-1021q0 -108 -53 -200t-142 -148.5t-198 -56.5z" />
    <glyph glyph-name="ij" unicode="&#x133;" horiz-adv-x="774" 
d="M120 1000h140v-1000h-140v1000zM191 1175q-34 0 -57.5 22.5t-23.5 56.5t23.5 56.5t57.5 22.5q33 0 56.5 -22.5t23.5 -56.5t-23 -56.5t-57 -22.5zM253 -500v140q112 0 186.5 72.5t74.5 179.5v1108h140v-1108q0 -108 -52.5 -197t-143 -142t-205.5 -53zM585 1175
q-34 0 -57.5 22.5t-23.5 56.5t23.5 56.5t57.5 22.5q33 0 56.5 -22.5t23.5 -56.5t-23 -56.5t-57 -22.5z" />
    <glyph glyph-name="Jcircumflex" unicode="&#x134;" horiz-adv-x="803" 
d="M290 -26q-68 0 -132.5 22.5t-117.5 68.5l89 108q32 -27 73 -43t88 -16q70 0 127 37.5t91.5 98t34.5 129.5v1021h140v-1021q0 -108 -53 -200t-142 -148.5t-198 -56.5zM690 1798l193 -288h-94l-176 203l-174 -203h-93l191 288h153z" />
    <glyph glyph-name="jcircumflex" unicode="&#x135;" horiz-adv-x="441" 
d="M-80 -500v140q112 0 186.5 72.5t74.5 179.5v1108h140v-1108q0 -108 -52.5 -197t-143 -142t-205.5 -53zM328 1398l193 -288h-94l-176 203l-174 -203h-93l191 288h153z" />
    <glyph glyph-name="uni0136" unicode="&#x136;" horiz-adv-x="1066" 
d="M1019 0h-181l-459 629l-119 -143v-486h-140v1400h140v-696l583 696h183l-555 -661zM401 -441l62 338h140l-109 -338h-93z" />
    <glyph glyph-name="uni0137" unicode="&#x137;" horiz-adv-x="982" 
d="M901 0h-161l-280 483l-200 -239v-244h-140v1500h140v-1038l451 538h183l-339 -403zM349 -441l62 338h140l-109 -338h-93z" />
    <glyph glyph-name="Lacute" unicode="&#x139;" horiz-adv-x="1003" 
d="M120 0v1400h140v-1260h643v-140h-783zM156 1510l80 288h140l-126 -288h-94z" />
    <glyph glyph-name="lacute" unicode="&#x13a;" horiz-adv-x="380" 
d="M120 0v1500h140v-1500h-140zM156 1610l80 288h140l-126 -288h-94z" />
    <glyph glyph-name="uni013B" unicode="&#x13b;" horiz-adv-x="1003" 
d="M120 0v1400h140v-1260h643v-140h-783zM380 -441l62 338h140l-109 -338h-93z" />
    <glyph glyph-name="uni013C" unicode="&#x13c;" horiz-adv-x="380" 
d="M120 0v1500h140v-1500h-140zM58 -441l62 338h140l-109 -338h-93z" />
    <glyph glyph-name="Lcaron" unicode="&#x13d;" horiz-adv-x="1003" 
d="M120 0v1400h140v-1260h643v-140h-783zM560 1212l80 288h140l-126 -288h-94z" />
    <glyph glyph-name="lcaron" unicode="&#x13e;" horiz-adv-x="380" 
d="M120 0v1500h140v-1500h-140zM340 1212l80 288h140l-126 -288h-94z" />
    <glyph glyph-name="Nacute" unicode="&#x143;" horiz-adv-x="1271" 
d="M120 0v1400h152l739 -1147v1147h140v-1400h-151l-740 1147v-1147h-140zM601 1510l80 288h140l-126 -288h-94z" />
    <glyph glyph-name="nacute" unicode="&#x144;" 
d="M992 619v-619h-140v591q0 82 -40 149t-107 107t-149 40q-81 0 -148.5 -40t-107.5 -107t-40 -149v-591h-140v1000h140v-138q53 76 138 121t185 45q113 0 206 -55t148 -148t55 -206zM529 1110l80 288h140l-126 -288h-94z" />
    <glyph glyph-name="uni0145" unicode="&#x145;" horiz-adv-x="1271" 
d="M120 0v1400h152l739 -1147v1147h140v-1400h-151l-740 1147v-1147h-140zM503 -441l62 338h140l-109 -338h-93z" />
    <glyph glyph-name="uni0146" unicode="&#x146;" 
d="M992 619v-619h-140v591q0 82 -40 149t-107 107t-149 40q-81 0 -148.5 -40t-107.5 -107t-40 -149v-591h-140v1000h140v-138q53 76 138 121t185 45q113 0 206 -55t148 -148t55 -206zM424 -441l62 338h140l-109 -338h-93z" />
    <glyph glyph-name="Ncaron" unicode="&#x147;" horiz-adv-x="1271" 
d="M120 0v1400h152l739 -1147v1147h140v-1400h-151l-740 1147v-1147h-140zM558 1510l-193 288h93l177 -203l173 203h94l-191 -288h-153z" />
    <glyph glyph-name="ncaron" unicode="&#x148;" 
d="M992 619v-619h-140v591q0 82 -40 149t-107 107t-149 40q-81 0 -148.5 -40t-107.5 -107t-40 -149v-591h-140v1000h140v-138q53 76 138 121t185 45q113 0 206 -55t148 -148t55 -206zM486 1110l-193 288h93l177 -203l173 203h94l-191 -288h-153z" />
    <glyph glyph-name="Omacron" unicode="&#x14c;" horiz-adv-x="1540" 
d="M770 -26q-142 0 -267 56.5t-220 156.5t-149 231.5t-54 281.5t54 281.5t149 231.5t220 156.5t267 56.5q143 0 268 -56.5t220 -156.5t148.5 -231.5t53.5 -281.5t-53.5 -281.5t-148.5 -231.5t-220 -156.5t-268 -56.5zM770 114q115 0 214.5 46.5t175 127.5t118 187t42.5 225
q0 120 -43 226.5t-118.5 187t-175 126.5t-213.5 46q-115 0 -214.5 -46.5t-175 -127.5t-118 -187t-42.5 -225q0 -121 43 -227t118.5 -187t175 -126.5t213.5 -45.5zM432 1683h676v-113h-676v113z" />
    <glyph glyph-name="omacron" unicode="&#x14d;" horiz-adv-x="1120" 
d="M560 -26q-138 0 -251.5 71t-181 190.5t-67.5 264.5q0 146 67.5 266t181 191t251.5 71t251.5 -71t181 -191t67.5 -266q0 -145 -67.5 -264.5t-181 -190.5t-251.5 -71zM560 114q102 0 183.5 53.5t129 141.5t47.5 191q0 105 -48 193.5t-129.5 141.5t-182.5 53
q-102 0 -183.5 -53.5t-129 -141.5t-47.5 -193q0 -108 49 -195.5t131 -139t180 -51.5zM222 1283h676v-113h-676v113z" />
    <glyph glyph-name="Ohungarumlaut" unicode="&#x150;" horiz-adv-x="1540" 
d="M770 -26q-142 0 -267 56.5t-220 156.5t-149 231.5t-54 281.5t54 281.5t149 231.5t220 156.5t267 56.5q143 0 268 -56.5t220 -156.5t148.5 -231.5t53.5 -281.5t-53.5 -281.5t-148.5 -231.5t-220 -156.5t-268 -56.5zM770 114q115 0 214.5 46.5t175 127.5t118 187t42.5 225
q0 120 -43 226.5t-118.5 187t-175 126.5t-213.5 46q-115 0 -214.5 -46.5t-175 -127.5t-118 -187t-42.5 -225q0 -121 43 -227t118.5 -187t175 -126.5t213.5 -45.5zM882 1510l80 288h140l-126 -288h-94zM608 1510l80 288h140l-126 -288h-94z" />
    <glyph glyph-name="ohungarumlaut" unicode="&#x151;" horiz-adv-x="1120" 
d="M560 -26q-138 0 -251.5 71t-181 190.5t-67.5 264.5q0 146 67.5 266t181 191t251.5 71t251.5 -71t181 -191t67.5 -266q0 -145 -67.5 -264.5t-181 -190.5t-251.5 -71zM560 114q102 0 183.5 53.5t129 141.5t47.5 191q0 105 -48 193.5t-129.5 141.5t-182.5 53
q-102 0 -183.5 -53.5t-129 -141.5t-47.5 -193q0 -108 49 -195.5t131 -139t180 -51.5zM672 1110l80 288h140l-126 -288h-94zM398 1110l80 288h140l-126 -288h-94z" />
    <glyph glyph-name="OE" unicode="&#x152;" horiz-adv-x="2169" 
d="M770 -26q-142 0 -267 56.5t-220 156.5t-149 231.5t-54 281.5t54 281.5t149 231.5t220 156.5t267 56.5q176 0 322.5 -92t228.5 -238v304h748v-140h-608v-490h512v-140h-512v-490h608v-140h-748v304q-82 -146 -228.5 -238t-322.5 -92zM770 114q115 0 214.5 46.5t175 127.5
t118 187t42.5 225q0 120 -43 226.5t-118.5 187t-175 126.5t-213.5 46q-115 0 -214.5 -46.5t-175 -127.5t-118 -187t-42.5 -225q0 -121 43 -227t118.5 -187t175 -126.5t213.5 -45.5z" />
    <glyph glyph-name="oe" unicode="&#x153;" horiz-adv-x="1976" 
d="M560 -26q-138 0 -251.5 71t-181 190.5t-67.5 264.5q0 146 67.5 266t181 191t251.5 71q142 0 257 -78.5t173 -203.5q58 125 173 203.5t257 78.5q149 0 263.5 -76.5t177 -208t54.5 -296.5h-847q12 -95 60.5 -170t124 -118.5t167.5 -44.5q100 0 180.5 52t129.5 143l142 -33
q-60 -133 -181 -217.5t-271 -84.5q-142 0 -257 78.5t-173 202.5q-58 -124 -173 -202.5t-257 -78.5zM1064 561h710q-7 92 -56.5 169.5t-127 124t-170.5 46.5t-170.5 -45.5t-126.5 -122.5t-59 -172zM560 114q102 0 183.5 53.5t129 141.5t47.5 191q0 105 -48 193.5
t-129.5 141.5t-182.5 53q-102 0 -183.5 -53.5t-129 -141.5t-47.5 -193q0 -108 49 -195.5t131 -139t180 -51.5z" />
    <glyph glyph-name="Racute" unicode="&#x154;" horiz-adv-x="1115" 
d="M120 0v1400h475q112 0 202 -54.5t143 -147t53 -207.5q0 -103 -42 -187t-114.5 -139t-163.5 -73l342 -592h-162l-337 581h-256v-581h-140zM260 721h323q74 0 135.5 36.5t98 99t36.5 141.5t-36.5 141.5t-98 99t-135.5 36.5h-323v-554zM403 1510l80 288h140l-126 -288h-94z
" />
    <glyph glyph-name="racute" unicode="&#x155;" horiz-adv-x="715" 
d="M120 0v1000h140v-138q53 76 138 121t185 45q58 0 112 -15l-57 -139q-42 13 -82 13q-81 0 -148.5 -40t-107.5 -107t-40 -149v-591h-140zM361 1110l80 288h140l-126 -288h-94z" />
    <glyph glyph-name="uni0156" unicode="&#x156;" horiz-adv-x="1115" 
d="M120 0v1400h475q112 0 202 -54.5t143 -147t53 -207.5q0 -103 -42 -187t-114.5 -139t-163.5 -73l342 -592h-162l-337 581h-256v-581h-140zM260 721h323q74 0 135.5 36.5t98 99t36.5 141.5t-36.5 141.5t-98 99t-135.5 36.5h-323v-554zM416 -441l62 338h140l-109 -338h-93z
" />
    <glyph glyph-name="uni0157" unicode="&#x157;" horiz-adv-x="715" 
d="M120 0v1000h140v-138q53 76 138 121t185 45q58 0 112 -15l-57 -139q-42 13 -82 13q-81 0 -148.5 -40t-107.5 -107t-40 -149v-591h-140zM58 -441l62 338h140l-109 -338h-93z" />
    <glyph glyph-name="Rcaron" unicode="&#x158;" horiz-adv-x="1115" 
d="M120 0v1400h475q112 0 202 -54.5t143 -147t53 -207.5q0 -103 -42 -187t-114.5 -139t-163.5 -73l342 -592h-162l-337 581h-256v-581h-140zM260 721h323q74 0 135.5 36.5t98 99t36.5 141.5t-36.5 141.5t-98 99t-135.5 36.5h-323v-554zM360 1510l-193 288h93l177 -203
l173 203h94l-191 -288h-153z" />
    <glyph glyph-name="rcaron" unicode="&#x159;" horiz-adv-x="715" 
d="M120 0v1000h140v-138q53 76 138 121t185 45q58 0 112 -15l-57 -139q-42 13 -82 13q-81 0 -148.5 -40t-107.5 -107t-40 -149v-591h-140zM318 1110l-193 288h93l177 -203l173 203h94l-191 -288h-153z" />
    <glyph glyph-name="Sacute" unicode="&#x15a;" horiz-adv-x="1220" 
d="M609 -26q-112 0 -216.5 35t-182.5 100t-110 155l131 49q22 -62 80.5 -106.5t137 -68.5t160.5 -24q96 0 179 32t134 89.5t51 135.5q0 79 -53 130t-136.5 80.5t-174.5 45.5q-143 25 -256.5 68t-179.5 121.5t-66 207.5q0 121 70 210t184.5 138t247.5 49q109 0 213 -34
t183.5 -99t114.5 -159l-133 -48q-22 63 -80.5 107.5t-136.5 68t-161 23.5q-95 1 -177.5 -31.5t-133.5 -90t-51 -134.5q0 -90 47.5 -138.5t129.5 -72.5t185 -43q134 -23 249 -71.5t185 -129t70 -198.5q0 -120 -70 -209.5t-184.5 -138.5t-249.5 -49zM576 1510l80 288h140
l-126 -288h-94z" />
    <glyph glyph-name="sacute" unicode="&#x15b;" horiz-adv-x="859" 
d="M429 -19q-82 2 -160 30t-136 76t-83 109l121 52q16 -39 59.5 -71.5t99.5 -52t111 -19.5q91 0 162.5 44.5t71.5 121.5q0 55 -36 86.5t-91 50t-113 35.5q-106 29 -187 64t-126.5 89.5t-45.5 140.5q0 91 51.5 157.5t135 103t178.5 36.5q122 0 222.5 -53t145.5 -141l-113 -67
q-27 61 -98.5 98t-147.5 38q-97 2 -169 -42t-72 -127q0 -55 33 -83.5t89.5 -46t127.5 -40.5q91 -29 171 -66t129 -92t48 -139q0 -90 -54 -157t-140 -102.5t-184 -32.5zM396 1110l80 288h140l-126 -288h-94z" />
    <glyph glyph-name="Scircumflex" unicode="&#x15c;" horiz-adv-x="1220" 
d="M609 -26q-112 0 -216.5 35t-182.5 100t-110 155l131 49q22 -62 80.5 -106.5t137 -68.5t160.5 -24q96 0 179 32t134 89.5t51 135.5q0 79 -53 130t-136.5 80.5t-174.5 45.5q-143 25 -256.5 68t-179.5 121.5t-66 207.5q0 121 70 210t184.5 138t247.5 49q109 0 213 -34
t183.5 -99t114.5 -159l-133 -48q-22 63 -80.5 107.5t-136.5 68t-161 23.5q-95 1 -177.5 -31.5t-133.5 -90t-51 -134.5q0 -90 47.5 -138.5t129.5 -72.5t185 -43q134 -23 249 -71.5t185 -129t70 -198.5q0 -120 -70 -209.5t-184.5 -138.5t-249.5 -49zM687 1798l193 -288h-94
l-176 203l-174 -203h-93l191 288h153z" />
    <glyph glyph-name="scircumflex" unicode="&#x15d;" horiz-adv-x="859" 
d="M429 -19q-82 2 -160 30t-136 76t-83 109l121 52q16 -39 59.5 -71.5t99.5 -52t111 -19.5q91 0 162.5 44.5t71.5 121.5q0 55 -36 86.5t-91 50t-113 35.5q-106 29 -187 64t-126.5 89.5t-45.5 140.5q0 91 51.5 157.5t135 103t178.5 36.5q122 0 222.5 -53t145.5 -141l-113 -67
q-27 61 -98.5 98t-147.5 38q-97 2 -169 -42t-72 -127q0 -55 33 -83.5t89.5 -46t127.5 -40.5q91 -29 171 -66t129 -92t48 -139q0 -90 -54 -157t-140 -102.5t-184 -32.5zM507 1398l193 -288h-94l-176 203l-174 -203h-93l191 288h153z" />
    <glyph glyph-name="Scedilla" unicode="&#x15e;" horiz-adv-x="1220" 
d="M609 -26q-112 0 -216.5 35t-182.5 100t-110 155l131 49q22 -62 80.5 -106.5t137 -68.5t160.5 -24q96 0 179 32t134 89.5t51 135.5q0 79 -53 130t-136.5 80.5t-174.5 45.5q-143 25 -256.5 68t-179.5 121.5t-66 207.5q0 121 70 210t184.5 138t247.5 49q109 0 213 -34
t183.5 -99t114.5 -159l-133 -48q-22 63 -80.5 107.5t-136.5 68t-161 23.5q-95 1 -177.5 -31.5t-133.5 -90t-51 -134.5q0 -90 47.5 -138.5t129.5 -72.5t185 -43q134 -23 249 -71.5t185 -129t70 -198.5q0 -120 -70 -209.5t-184.5 -138.5t-249.5 -49zM682 -367q-63 -17 -120 16
t-74 96l87 23q7 -27 31.5 -41t52.5 -7q28 8 42.5 32.5t6.5 52.5q-7 28 -31.5 41.5t-53.5 7.5l-95 -13l123 214l78 -45l-42 -73q38 -10 67.5 -39t40.5 -70q17 -64 -16 -121t-97 -74z" />
    <glyph glyph-name="scedilla" unicode="&#x15f;" horiz-adv-x="859" 
d="M429 -19q-82 2 -160 30t-136 76t-83 109l121 52q16 -39 59.5 -71.5t99.5 -52t111 -19.5q91 0 162.5 44.5t71.5 121.5q0 55 -36 86.5t-91 50t-113 35.5q-106 29 -187 64t-126.5 89.5t-45.5 140.5q0 91 51.5 157.5t135 103t178.5 36.5q122 0 222.5 -53t145.5 -141l-113 -67
q-27 61 -98.5 98t-147.5 38q-97 2 -169 -42t-72 -127q0 -55 33 -83.5t89.5 -46t127.5 -40.5q91 -29 171 -66t129 -92t48 -139q0 -90 -54 -157t-140 -102.5t-184 -32.5zM492 -367q-63 -17 -120 16t-74 96l87 23q7 -27 31.5 -41t52.5 -7q28 8 42.5 32.5t6.5 52.5
q-7 28 -31.5 41.5t-53.5 7.5l-95 -13l123 214l78 -45l-42 -73q38 -10 67.5 -39t40.5 -70q17 -64 -16 -121t-97 -74z" />
    <glyph glyph-name="Scaron" unicode="&#x160;" horiz-adv-x="1220" 
d="M609 -26q-112 0 -216.5 35t-182.5 100t-110 155l131 49q22 -62 80.5 -106.5t137 -68.5t160.5 -24q96 0 179 32t134 89.5t51 135.5q0 79 -53 130t-136.5 80.5t-174.5 45.5q-143 25 -256.5 68t-179.5 121.5t-66 207.5q0 121 70 210t184.5 138t247.5 49q109 0 213 -34
t183.5 -99t114.5 -159l-133 -48q-22 63 -80.5 107.5t-136.5 68t-161 23.5q-95 1 -177.5 -31.5t-133.5 -90t-51 -134.5q0 -90 47.5 -138.5t129.5 -72.5t185 -43q134 -23 249 -71.5t185 -129t70 -198.5q0 -120 -70 -209.5t-184.5 -138.5t-249.5 -49zM533 1510l-193 288h93
l177 -203l173 203h94l-191 -288h-153z" />
    <glyph glyph-name="scaron" unicode="&#x161;" horiz-adv-x="859" 
d="M429 -19q-82 2 -160 30t-136 76t-83 109l121 52q16 -39 59.5 -71.5t99.5 -52t111 -19.5q91 0 162.5 44.5t71.5 121.5q0 55 -36 86.5t-91 50t-113 35.5q-106 29 -187 64t-126.5 89.5t-45.5 140.5q0 91 51.5 157.5t135 103t178.5 36.5q122 0 222.5 -53t145.5 -141l-113 -67
q-27 61 -98.5 98t-147.5 38q-97 2 -169 -42t-72 -127q0 -55 33 -83.5t89.5 -46t127.5 -40.5q91 -29 171 -66t129 -92t48 -139q0 -90 -54 -157t-140 -102.5t-184 -32.5zM353 1110l-193 288h93l177 -203l173 203h94l-191 -288h-153z" />
    <glyph glyph-name="uni0162" unicode="&#x162;" horiz-adv-x="1259" 
d="M1179 1400v-140h-480v-1260h-140v1260h-479v140h1099zM631 -367q-63 -17 -120 16t-74 96l87 23q7 -27 31.5 -41t52.5 -7q28 8 42.5 32.5t6.5 52.5q-7 28 -31.5 41.5t-53.5 7.5l-95 -13l123 214l78 -45l-42 -73q38 -10 67.5 -39t40.5 -70q17 -64 -16 -121t-97 -74z" />
    <glyph glyph-name="uni0163" unicode="&#x163;" horiz-adv-x="690" 
d="M631 860h-239l-1 -860h-140l1 860h-181v140h181l-1 314h140l1 -314h239v-140zM323 -367q-63 -17 -120 16t-74 96l87 23q7 -27 31.5 -41t52.5 -7q28 8 42.5 32.5t6.5 52.5q-7 28 -31.5 41.5t-53.5 7.5l-95 -13l123 214l78 -45l-42 -73q38 -10 67.5 -39t40.5 -70
q17 -64 -16 -121t-97 -74z" />
    <glyph glyph-name="Tcaron" unicode="&#x164;" horiz-adv-x="1259" 
d="M1179 1400v-140h-480v-1260h-140v1260h-479v140h1099zM552 1510l-193 288h93l177 -203l173 203h94l-191 -288h-153z" />
    <glyph glyph-name="tcaron" unicode="&#x165;" horiz-adv-x="690" 
d="M631 860h-239l-1 -860h-140l1 860h-181v140h181l-1 314h140l1 -314h239v-140zM517 1212l80 288h140l-126 -288h-94z" />
    <glyph glyph-name="Utilde" unicode="&#x168;" horiz-adv-x="1326" 
d="M663 -26q-168 0 -290 82t-187.5 220.5t-65.5 307.5v816h140v-816q0 -128 47 -235t137 -171t219 -64q132 0 221.5 64.5t135.5 171.5t46 234v816h140v-816q0 -169 -65.5 -307.5t-187.5 -220.5t-290 -82zM818 1531q-37 0 -82 23.5t-91 54t-85 51.5t-64 15q-26 -6 -41 -33
t-5 -65l-95 -26q-19 57 -4.5 109t55.5 84.5t100 32.5q38 0 83 -22t91 -50.5t85 -50.5t64 -22q34 0 45.5 36.5t1.5 61.5l95 30q20 -60 4.5 -112t-57 -84.5t-100.5 -32.5z" />
    <glyph glyph-name="utilde" unicode="&#x169;" horiz-adv-x="1032" 
d="M80 383v617h140v-589q0 -82 40 -149t107.5 -107t148.5 -40q82 0 148.5 40t106.5 107t40 149v589h140l1 -1000h-140l-1 140q-53 -76 -137.5 -121t-184.5 -45q-113 0 -206 55t-148 148t-55 206zM684 1132q-37 0 -82 23.5t-91 54t-85 51.5t-64 15q-26 -6 -41 -33t-5 -65
l-95 -26q-19 57 -4.5 109t55.5 84.5t100 32.5q38 0 83 -22t91 -50.5t85 -50.5t64 -22q34 0 45.5 36.5t1.5 61.5l95 30q20 -60 4.5 -112t-57 -84.5t-100.5 -32.5z" />
    <glyph glyph-name="Umacron" unicode="&#x16a;" horiz-adv-x="1326" 
d="M663 -26q-168 0 -290 82t-187.5 220.5t-65.5 307.5v816h140v-816q0 -128 47 -235t137 -171t219 -64q132 0 221.5 64.5t135.5 171.5t46 234v816h140v-816q0 -169 -65.5 -307.5t-187.5 -220.5t-290 -82zM325 1683h676v-113h-676v113z" />
    <glyph glyph-name="umacron" unicode="&#x16b;" horiz-adv-x="1032" 
d="M80 383v617h140v-589q0 -82 40 -149t107.5 -107t148.5 -40q82 0 148.5 40t106.5 107t40 149v589h140l1 -1000h-140l-1 140q-53 -76 -137.5 -121t-184.5 -45q-113 0 -206 55t-148 148t-55 206zM191 1284h676v-113h-676v113z" />
    <glyph glyph-name="Ubreve" unicode="&#x16c;" horiz-adv-x="1326" 
d="M663 -26q-168 0 -290 82t-187.5 220.5t-65.5 307.5v816h140v-816q0 -128 47 -235t137 -171t219 -64q132 0 221.5 64.5t135.5 171.5t46 234v816h140v-816q0 -169 -65.5 -307.5t-187.5 -220.5t-290 -82zM663 1488q-91 0 -166.5 45t-120.5 120.5t-45 166.5h100
q0 -65 32.5 -117.5t85.5 -83.5t114 -31q64 0 116.5 31t84 84t31.5 117h100q0 -93 -45.5 -168.5t-121 -119.5t-165.5 -44z" />
    <glyph glyph-name="ubreve" unicode="&#x16d;" horiz-adv-x="1032" 
d="M80 383v617h140v-589q0 -82 40 -149t107.5 -107t148.5 -40q82 0 148.5 40t106.5 107t40 149v589h140l1 -1000h-140l-1 140q-53 -76 -137.5 -121t-184.5 -45q-113 0 -206 55t-148 148t-55 206zM529 1089q-91 0 -166.5 45t-120.5 120.5t-45 166.5h100q0 -65 32.5 -117.5
t85.5 -83.5t114 -31q64 0 116.5 31t84 84t31.5 117h100q0 -93 -45.5 -168.5t-121 -119.5t-165.5 -44z" />
    <glyph glyph-name="Uring" unicode="&#x16e;" horiz-adv-x="1326" 
d="M663 -26q-168 0 -290 82t-187.5 220.5t-65.5 307.5v816h140v-816q0 -128 47 -235t137 -171t219 -64q132 0 221.5 64.5t135.5 171.5t46 234v816h140v-816q0 -169 -65.5 -307.5t-187.5 -220.5t-290 -82zM663 1495q-66 0 -112.5 47.5t-46.5 112.5t46.5 111.5t112.5 46.5
q65 0 111.5 -46.5t46.5 -111.5q0 -67 -46.5 -113.5t-111.5 -46.5zM663 1573q33 0 56.5 24t23.5 58q0 32 -23.5 55t-56.5 23q-34 0 -57 -23t-23 -55q0 -34 23 -58t57 -24z" />
    <glyph glyph-name="uring" unicode="&#x16f;" horiz-adv-x="1032" 
d="M80 383v617h140v-589q0 -82 40 -149t107.5 -107t148.5 -40q82 0 148.5 40t106.5 107t40 149v589h140l1 -1000h-140l-1 140q-53 -76 -137.5 -121t-184.5 -45q-113 0 -206 55t-148 148t-55 206zM529 1096q-66 0 -112.5 47.5t-46.5 112.5t46.5 111.5t112.5 46.5
q65 0 111.5 -46.5t46.5 -111.5q0 -67 -46.5 -113.5t-111.5 -46.5zM529 1174q33 0 56.5 24t23.5 58q0 32 -23.5 55t-56.5 23q-34 0 -57 -23t-23 -55q0 -34 23 -58t57 -24z" />
    <glyph glyph-name="Uhungarumlaut" unicode="&#x170;" horiz-adv-x="1326" 
d="M663 -26q-168 0 -290 82t-187.5 220.5t-65.5 307.5v816h140v-816q0 -128 47 -235t137 -171t219 -64q132 0 221.5 64.5t135.5 171.5t46 234v816h140v-816q0 -169 -65.5 -307.5t-187.5 -220.5t-290 -82zM775 1510l80 288h140l-126 -288h-94zM501 1510l80 288h140l-126 -288
h-94z" />
    <glyph glyph-name="uhungarumlaut" unicode="&#x171;" horiz-adv-x="1032" 
d="M80 383v617h140v-589q0 -82 40 -149t107.5 -107t148.5 -40q82 0 148.5 40t106.5 107t40 149v589h140l1 -1000h-140l-1 140q-53 -76 -137.5 -121t-184.5 -45q-113 0 -206 55t-148 148t-55 206zM641 1111l80 288h140l-126 -288h-94zM367 1111l80 288h140l-126 -288h-94z
" />
    <glyph glyph-name="Uogonek" unicode="&#x172;" horiz-adv-x="1326" 
d="M663 -26q-168 0 -290 82t-187.5 220.5t-65.5 307.5v816h140v-816q0 -128 47 -235t137 -171t219 -64q132 0 221.5 64.5t135.5 171.5t46 234v816h140v-816q0 -169 -65.5 -307.5t-187.5 -220.5t-290 -82zM664 -417q-82 1 -131.5 57.5t-49.5 126.5q0 35 13 68t41 61l168 168
l75 -75q-74 -74 -114 -113.5t-55 -63t-15 -49.5q0 -28 19.5 -50.5t53.5 -24.5q38 0 70.5 28t32.5 74h101q0 -87 -61 -147t-148 -60z" />
    <glyph glyph-name="uogonek" unicode="&#x173;" horiz-adv-x="1032" 
d="M80 383v617h140v-589q0 -82 40 -149t107.5 -107t148.5 -40q82 0 148.5 40t106.5 107t40 149v589h140l1 -1000h-140l-1 140q-53 -76 -137.5 -121t-184.5 -45q-113 0 -206 55t-148 148t-55 206zM836 -405q-82 1 -131.5 57.5t-49.5 126.5q0 35 13 68t41 61l168 168l75 -75
q-74 -74 -114 -113.5t-55 -63t-15 -49.5q0 -28 19.5 -50.5t53.5 -24.5q38 0 70.5 28t32.5 74h101q0 -87 -61 -147t-148 -60z" />
    <glyph glyph-name="Wcircumflex" unicode="&#x174;" horiz-adv-x="1688" 
d="M405 0l-358 1400h144l296 -1159l295 1159h124l296 -1159l295 1159h144l-356 -1400h-166l-275 1075l-275 -1075h-164zM921 1798l193 -288h-94l-176 203l-174 -203h-93l191 288h153z" />
    <glyph glyph-name="wcircumflex" unicode="&#x175;" horiz-adv-x="1625" 
d="M539 0h-144l-335 1000h137l272 -806l270 806h148l270 -806l270 806h138l-335 -1000h-145l-274 814zM890 1398l193 -288h-94l-176 203l-174 -203h-93l191 288h153z" />
    <glyph glyph-name="Ycircumflex" unicode="&#x176;" horiz-adv-x="1203" 
d="M978 1400h165l-472 -766v-634h-140v634l-471 766h165l376 -613zM678 1798l193 -288h-94l-176 203l-174 -203h-93l191 288h153z" />
    <glyph glyph-name="ycircumflex" unicode="&#x177;" horiz-adv-x="1033" 
d="M805 1000h148l-547 -1500h-149l182 500l-359 1000h153l276 -807zM593 1398l193 -288h-94l-176 203l-174 -203h-93l191 288h153z" />
    <glyph glyph-name="Ydieresis" unicode="&#x178;" horiz-adv-x="1203" 
d="M978 1400h165l-472 -766v-634h-140v634l-471 766h165l376 -613zM445 1481q-34 0 -58.5 22.5t-24.5 56.5q0 33 24.5 57t58.5 24q33 0 56.5 -24t23.5 -57q0 -34 -23.5 -56.5t-56.5 -22.5zM759 1481q-34 0 -58 22.5t-24 56.5q0 33 24 57t58 24q33 0 57 -24t24 -57
q0 -34 -24 -56.5t-57 -22.5z" />
    <glyph glyph-name="Zacute" unicode="&#x179;" horiz-adv-x="1292" 
d="M80 0v140l945 1120h-945v140h1132v-140l-945 -1120h945v-140h-1132zM612 1510l80 288h140l-126 -288h-94z" />
    <glyph glyph-name="zacute" unicode="&#x17a;" horiz-adv-x="1014" 
d="M934 860l-656 -720h656v-140h-854v140l656 720h-656v140h854v-140zM473 1110l80 288h140l-126 -288h-94z" />
    <glyph glyph-name="Zdotaccent" unicode="&#x17b;" horiz-adv-x="1292" 
d="M80 0v140l945 1120h-945v140h1132v-140l-945 -1120h945v-140h-1132zM647 1575q-34 0 -57.5 22.5t-23.5 56.5t23.5 56.5t57.5 22.5q33 0 56.5 -22.5t23.5 -56.5t-23 -56.5t-57 -22.5z" />
    <glyph glyph-name="zdotaccent" unicode="&#x17c;" horiz-adv-x="1014" 
d="M934 860l-656 -720h656v-140h-854v140l656 720h-656v140h854v-140zM508 1175q-34 0 -57.5 22.5t-23.5 56.5t23.5 56.5t57.5 22.5q33 0 56.5 -22.5t23.5 -56.5t-23 -56.5t-57 -22.5z" />
    <glyph glyph-name="Zcaron" unicode="&#x17d;" horiz-adv-x="1292" 
d="M80 0v140l945 1120h-945v140h1132v-140l-945 -1120h945v-140h-1132zM569 1510l-193 288h93l177 -203l173 203h94l-191 -288h-153z" />
    <glyph glyph-name="zcaron" unicode="&#x17e;" horiz-adv-x="1014" 
d="M934 860l-656 -720h656v-140h-854v140l656 720h-656v140h854v-140zM430 1110l-193 288h93l177 -203l173 203h94l-191 -288h-153z" />
    <glyph glyph-name="uni01CD" unicode="&#x1cd;" horiz-adv-x="1353" 
d="M589 1400h174l510 -1400h-149l-109 300h-677l-109 -300h-149zM389 440h574l-287 788zM599 1510l-193 288h93l177 -203l173 203h94l-191 -288h-153z" />
    <glyph glyph-name="uni01CE" unicode="&#x1ce;" horiz-adv-x="1162" 
d="M942 1000h140v-1000h-140l-5 186q-49 -95 -137 -153.5t-210 -58.5q-110 0 -206 41.5t-169 114.5t-114 169t-41 206q0 145 70.5 263.5t188.5 189t262 70.5q125 0 218 -59.5t148 -155.5zM587 110q107 0 184 52.5t118.5 141.5t41.5 196q0 110 -42 198.5t-119 140.5t-183 52
t-193.5 -52.5t-139 -141.5t-51.5 -197q0 -109 53 -197.5t140.5 -140.5t190.5 -52zM519 1110l-193 288h93l177 -203l173 203h94l-191 -288h-153z" />
    <glyph glyph-name="uni01CF" unicode="&#x1cf;" horiz-adv-x="440" 
d="M150 0v1400h140v-1400h-140zM143 1510l-193 288h93l177 -203l173 203h94l-191 -288h-153z" />
    <glyph glyph-name="uni01D0" unicode="&#x1d0;" horiz-adv-x="380" 
d="M120 1000h140v-1000h-140v1000zM113 1110l-193 288h93l177 -203l173 203h94l-191 -288h-153z" />
    <glyph glyph-name="uni01D1" unicode="&#x1d1;" horiz-adv-x="1540" 
d="M770 -26q-142 0 -267 56.5t-220 156.5t-149 231.5t-54 281.5t54 281.5t149 231.5t220 156.5t267 56.5q143 0 268 -56.5t220 -156.5t148.5 -231.5t53.5 -281.5t-53.5 -281.5t-148.5 -231.5t-220 -156.5t-268 -56.5zM770 114q115 0 214.5 46.5t175 127.5t118 187t42.5 225
q0 120 -43 226.5t-118.5 187t-175 126.5t-213.5 46q-115 0 -214.5 -46.5t-175 -127.5t-118 -187t-42.5 -225q0 -121 43 -227t118.5 -187t175 -126.5t213.5 -45.5zM693 1510l-193 288h93l177 -203l173 203h94l-191 -288h-153z" />
    <glyph glyph-name="uni01D2" unicode="&#x1d2;" horiz-adv-x="1120" 
d="M560 -26q-138 0 -251.5 71t-181 190.5t-67.5 264.5q0 146 67.5 266t181 191t251.5 71t251.5 -71t181 -191t67.5 -266q0 -145 -67.5 -264.5t-181 -190.5t-251.5 -71zM560 114q102 0 183.5 53.5t129 141.5t47.5 191q0 105 -48 193.5t-129.5 141.5t-182.5 53
q-102 0 -183.5 -53.5t-129 -141.5t-47.5 -193q0 -108 49 -195.5t131 -139t180 -51.5zM483 1110l-193 288h93l177 -203l173 203h94l-191 -288h-153z" />
    <glyph glyph-name="uni01D3" unicode="&#x1d3;" horiz-adv-x="1326" 
d="M663 -26q-168 0 -290 82t-187.5 220.5t-65.5 307.5v816h140v-816q0 -128 47 -235t137 -171t219 -64q132 0 221.5 64.5t135.5 171.5t46 234v816h140v-816q0 -169 -65.5 -307.5t-187.5 -220.5t-290 -82zM586 1510l-193 288h93l177 -203l173 203h94l-191 -288h-153z" />
    <glyph glyph-name="uni01D4" unicode="&#x1d4;" horiz-adv-x="1032" 
d="M80 383v617h140v-589q0 -82 40 -149t107.5 -107t148.5 -40q82 0 148.5 40t106.5 107t40 149v589h140l1 -1000h-140l-1 140q-53 -76 -137.5 -121t-184.5 -45q-113 0 -206 55t-148 148t-55 206zM452 1111l-193 288h93l177 -203l173 203h94l-191 -288h-153z" />
    <glyph glyph-name="uni01D5" unicode="&#x1d5;" horiz-adv-x="1326" 
d="M663 -26q-168 0 -290 82t-187.5 220.5t-65.5 307.5v816h140v-816q0 -128 47 -235t137 -171t219 -64q132 0 221.5 64.5t135.5 171.5t46 234v816h140v-816q0 -169 -65.5 -307.5t-187.5 -220.5t-290 -82zM507 1481q-34 0 -58.5 22.5t-24.5 56.5q0 33 24.5 57t58.5 24
q33 0 56.5 -24t23.5 -57q0 -34 -23.5 -56.5t-56.5 -22.5zM821 1481q-34 0 -58 22.5t-24 56.5q0 33 24 57t58 24q33 0 57 -24t24 -57q0 -34 -24 -56.5t-57 -22.5zM325 1896h676v-113h-676v113z" />
    <glyph glyph-name="uni01D6" unicode="&#x1d6;" horiz-adv-x="1032" 
d="M80 383v617h140v-589q0 -82 40 -149t107.5 -107t148.5 -40q82 0 148.5 40t106.5 107t40 149v589h140l1 -1000h-140l-1 140q-53 -76 -137.5 -121t-184.5 -45q-113 0 -206 55t-148 148t-55 206zM373 1082q-34 0 -58.5 22.5t-24.5 56.5q0 33 24.5 57t58.5 24q33 0 56.5 -24
t23.5 -57q0 -34 -23.5 -56.5t-56.5 -22.5zM687 1082q-34 0 -58 22.5t-24 56.5q0 33 24 57t58 24q33 0 57 -24t24 -57q0 -34 -24 -56.5t-57 -22.5zM191 1497h676v-113h-676v113z" />
    <glyph glyph-name="uni01D7" unicode="&#x1d7;" horiz-adv-x="1326" 
d="M663 -26q-168 0 -290 82t-187.5 220.5t-65.5 307.5v816h140v-816q0 -128 47 -235t137 -171t219 -64q132 0 221.5 64.5t135.5 171.5t46 234v816h140v-816q0 -169 -65.5 -307.5t-187.5 -220.5t-290 -82zM507 1481q-34 0 -58.5 22.5t-24.5 56.5q0 33 24.5 57t58.5 24
q33 0 56.5 -24t23.5 -57q0 -34 -23.5 -56.5t-56.5 -22.5zM821 1481q-34 0 -58 22.5t-24 56.5q0 33 24 57t58 24q33 0 57 -24t24 -57q0 -34 -24 -56.5t-57 -22.5zM629 1723l80 288h140l-126 -288h-94z" />
    <glyph glyph-name="uni01D8" unicode="&#x1d8;" horiz-adv-x="1032" 
d="M80 383v617h140v-589q0 -82 40 -149t107.5 -107t148.5 -40q82 0 148.5 40t106.5 107t40 149v589h140l1 -1000h-140l-1 140q-53 -76 -137.5 -121t-184.5 -45q-113 0 -206 55t-148 148t-55 206zM373 1082q-34 0 -58.5 22.5t-24.5 56.5q0 33 24.5 57t58.5 24q33 0 56.5 -24
t23.5 -57q0 -34 -23.5 -56.5t-56.5 -22.5zM687 1082q-34 0 -58 22.5t-24 56.5q0 33 24 57t58 24q33 0 57 -24t24 -57q0 -34 -24 -56.5t-57 -22.5zM495 1324l80 288h140l-126 -288h-94z" />
    <glyph glyph-name="uni01D9" unicode="&#x1d9;" horiz-adv-x="1326" 
d="M663 -26q-168 0 -290 82t-187.5 220.5t-65.5 307.5v816h140v-816q0 -128 47 -235t137 -171t219 -64q132 0 221.5 64.5t135.5 171.5t46 234v816h140v-816q0 -169 -65.5 -307.5t-187.5 -220.5t-290 -82zM507 1481q-34 0 -58.5 22.5t-24.5 56.5q0 33 24.5 57t58.5 24
q33 0 56.5 -24t23.5 -57q0 -34 -23.5 -56.5t-56.5 -22.5zM821 1481q-34 0 -58 22.5t-24 56.5q0 33 24 57t58 24q33 0 57 -24t24 -57q0 -34 -24 -56.5t-57 -22.5zM586 1723l-193 288h93l177 -203l173 203h94l-191 -288h-153z" />
    <glyph glyph-name="uni01DA" unicode="&#x1da;" horiz-adv-x="1032" 
d="M80 383v617h140v-589q0 -82 40 -149t107.5 -107t148.5 -40q82 0 148.5 40t106.5 107t40 149v589h140l1 -1000h-140l-1 140q-53 -76 -137.5 -121t-184.5 -45q-113 0 -206 55t-148 148t-55 206zM373 1082q-34 0 -58.5 22.5t-24.5 56.5q0 33 24.5 57t58.5 24q33 0 56.5 -24
t23.5 -57q0 -34 -23.5 -56.5t-56.5 -22.5zM687 1082q-34 0 -58 22.5t-24 56.5q0 33 24 57t58 24q33 0 57 -24t24 -57q0 -34 -24 -56.5t-57 -22.5zM452 1324l-193 288h93l177 -203l173 203h94l-191 -288h-153z" />
    <glyph glyph-name="uni01DB" unicode="&#x1db;" horiz-adv-x="1326" 
d="M663 -26q-168 0 -290 82t-187.5 220.5t-65.5 307.5v816h140v-816q0 -128 47 -235t137 -171t219 -64q132 0 221.5 64.5t135.5 171.5t46 234v816h140v-816q0 -169 -65.5 -307.5t-187.5 -220.5t-290 -82zM507 1481q-34 0 -58.5 22.5t-24.5 56.5q0 33 24.5 57t58.5 24
q33 0 56.5 -24t23.5 -57q0 -34 -23.5 -56.5t-56.5 -22.5zM821 1481q-34 0 -58 22.5t-24 56.5q0 33 24 57t58 24q33 0 57 -24t24 -57q0 -34 -24 -56.5t-57 -22.5zM470 2011h140l80 -288h-93z" />
    <glyph glyph-name="uni01DC" unicode="&#x1dc;" horiz-adv-x="1032" 
d="M80 383v617h140v-589q0 -82 40 -149t107.5 -107t148.5 -40q82 0 148.5 40t106.5 107t40 149v589h140l1 -1000h-140l-1 140q-53 -76 -137.5 -121t-184.5 -45q-113 0 -206 55t-148 148t-55 206zM373 1082q-34 0 -58.5 22.5t-24.5 56.5q0 33 24.5 57t58.5 24q33 0 56.5 -24
t23.5 -57q0 -34 -23.5 -56.5t-56.5 -22.5zM687 1082q-34 0 -58 22.5t-24 56.5q0 33 24 57t58 24q33 0 57 -24t24 -57q0 -34 -24 -56.5t-57 -22.5zM336 1612h140l80 -288h-93z" />
    <glyph glyph-name="uni01DE" unicode="&#x1de;" horiz-adv-x="1353" 
d="M589 1400h174l510 -1400h-149l-109 300h-677l-109 -300h-149zM389 440h574l-287 788zM520 1481q-34 0 -58.5 22.5t-24.5 56.5q0 33 24.5 57t58.5 24q33 0 56.5 -24t23.5 -57q0 -34 -23.5 -56.5t-56.5 -22.5zM834 1481q-34 0 -58 22.5t-24 56.5q0 33 24 57t58 24
q33 0 57 -24t24 -57q0 -34 -24 -56.5t-57 -22.5zM338 1896h676v-113h-676v113z" />
    <glyph glyph-name="uni01DF" unicode="&#x1df;" horiz-adv-x="1162" 
d="M942 1000h140v-1000h-140l-5 186q-49 -95 -137 -153.5t-210 -58.5q-110 0 -206 41.5t-169 114.5t-114 169t-41 206q0 145 70.5 263.5t188.5 189t262 70.5q125 0 218 -59.5t148 -155.5zM587 110q107 0 184 52.5t118.5 141.5t41.5 196q0 110 -42 198.5t-119 140.5t-183 52
t-193.5 -52.5t-139 -141.5t-51.5 -197q0 -109 53 -197.5t140.5 -140.5t190.5 -52zM440 1081q-34 0 -58.5 22.5t-24.5 56.5q0 33 24.5 57t58.5 24q33 0 56.5 -24t23.5 -57q0 -34 -23.5 -56.5t-56.5 -22.5zM754 1081q-34 0 -58 22.5t-24 56.5q0 33 24 57t58 24q33 0 57 -24
t24 -57q0 -34 -24 -56.5t-57 -22.5zM258 1496h676v-113h-676v113z" />
    <glyph glyph-name="uni01E2" unicode="&#x1e2;" horiz-adv-x="1619" 
d="M80 0l509 1400h930v-140h-572v-490h476v-140h-476v-490h572v-140h-712v300h-469l-109 -300h-149zM389 440h418v820h-118zM716 1683h676v-113h-676v113z" />
    <glyph glyph-name="uni01E3" unicode="&#x1e3;" horiz-adv-x="1776" 
d="M333 -25q-87 0 -155.5 37.5t-108 103.5t-39.5 150q0 79 36.5 146t103.5 108t158 41h388q-1 89 -40.5 163.5t-111 119t-169.5 44.5q-75 0 -144 -32l-76 118q104 54 218 54q133 0 241.5 -69.5t168.5 -185.5q61 114 172 184.5t245 70.5q149 0 263.5 -77t177 -208.5
t54.5 -295.5h-847q11 -95 60 -170.5t125 -119t168 -43.5q99 0 179.5 52t129.5 143l142 -33q-60 -133 -181 -217.5t-271 -84.5q-145 0 -262 80.5t-175 207.5q-59 -124 -180.5 -205.5t-269.5 -81.5zM864 560h710q-7 93 -56.5 170.5t-127 124t-170.5 46.5t-170.5 -45.5
t-126.5 -123t-59 -172.5zM333 102q113 0 200.5 59.5t133.5 149.5q34 63 48 137h-387q-78 0 -124.5 -50t-46.5 -124q0 -67 45.5 -119.5t130.5 -52.5zM465 1284h676v-113h-676v113z" />
    <glyph glyph-name="Gcaron" unicode="&#x1e6;" horiz-adv-x="1536" 
d="M769 -26q-144 0 -269.5 56.5t-219.5 157t-147 232t-53 281.5q0 153 55 285t151 230.5t220.5 153.5t264.5 55q161 0 304.5 -75t243.5 -213l-125 -68q-80 105 -192.5 161t-231.5 56q-113 0 -212.5 -45.5t-175.5 -126.5t-119 -187t-43 -228q0 -121 43 -227t118.5 -186.5
t175.5 -126t214 -45.5q125 0 233 57t184 155.5t105 221.5h-378v127h541q-3 -145 -58 -272t-149.5 -223.5t-217 -151t-262.5 -54.5zM693 1510l-193 288h93l177 -203l173 203h94l-191 -288h-153z" />
    <glyph glyph-name="gcaron" unicode="&#x1e7;" horiz-adv-x="1175" 
d="M915 1000h140v-1037q0 -96 -41.5 -180t-112 -147.5t-160.5 -99.5t-187 -36q-104 0 -201 47.5t-168.5 126.5t-101.5 175l129 59q19 -75 71.5 -135.5t124 -96t146.5 -35.5q92 0 174.5 44t134.5 117t52 161v221q-52 -94 -140.5 -152t-205.5 -58q-140 0 -256 71t-184.5 190.5
t-68.5 264.5q0 146 68.5 265.5t184.5 190.5t256 71q117 0 205.5 -57.5t140.5 -152.5v183zM570 110q104 0 179.5 54t116.5 143t41 193q0 107 -41.5 195.5t-117.5 142t-178 53.5t-185.5 -52.5t-132.5 -141.5t-49 -197t50 -196.5t133.5 -141t183.5 -52.5zM511 1110l-193 288h93
l177 -203l173 203h94l-191 -288h-153z" />
    <glyph glyph-name="uni01E8" unicode="&#x1e8;" horiz-adv-x="1066" 
d="M1019 0h-181l-459 629l-119 -143v-486h-140v1400h140v-696l583 696h183l-555 -661zM456 1510l-193 288h93l177 -203l173 203h94l-191 -288h-153z" />
    <glyph glyph-name="uni01E9" unicode="&#x1e9;" horiz-adv-x="982" 
d="M901 0h-161l-280 483l-200 -239v-244h-140v1500h140v-1038l451 538h183l-339 -403zM464 1510l-193 288h93l177 -203l173 203h94l-191 -288h-153z" />
    <glyph glyph-name="uni0218" unicode="&#x218;" horiz-adv-x="1220" 
d="M609 -26q-112 0 -216.5 35t-182.5 100t-110 155l131 49q22 -62 80.5 -106.5t137 -68.5t160.5 -24q96 0 179 32t134 89.5t51 135.5q0 79 -53 130t-136.5 80.5t-174.5 45.5q-143 25 -256.5 68t-179.5 121.5t-66 207.5q0 121 70 210t184.5 138t247.5 49q109 0 213 -34
t183.5 -99t114.5 -159l-133 -48q-22 63 -80.5 107.5t-136.5 68t-161 23.5q-95 1 -177.5 -31.5t-133.5 -90t-51 -134.5q0 -90 47.5 -138.5t129.5 -72.5t185 -43q134 -23 249 -71.5t185 -129t70 -198.5q0 -120 -70 -209.5t-184.5 -138.5t-249.5 -49zM548 -441l62 338h140
l-109 -338h-93z" />
    <glyph glyph-name="uni0219" unicode="&#x219;" horiz-adv-x="859" 
d="M429 -19q-82 2 -160 30t-136 76t-83 109l121 52q16 -39 59.5 -71.5t99.5 -52t111 -19.5q91 0 162.5 44.5t71.5 121.5q0 55 -36 86.5t-91 50t-113 35.5q-106 29 -187 64t-126.5 89.5t-45.5 140.5q0 91 51.5 157.5t135 103t178.5 36.5q122 0 222.5 -53t145.5 -141l-113 -67
q-27 61 -98.5 98t-147.5 38q-97 2 -169 -42t-72 -127q0 -55 33 -83.5t89.5 -46t127.5 -40.5q91 -29 171 -66t129 -92t48 -139q0 -90 -54 -157t-140 -102.5t-184 -32.5zM358 -441l62 338h140l-109 -338h-93z" />
    <glyph glyph-name="uni021A" unicode="&#x21a;" horiz-adv-x="1259" 
d="M1179 1400v-140h-480v-1260h-140v1260h-479v140h1099zM497 -441l62 338h140l-109 -338h-93z" />
    <glyph glyph-name="uni021B" unicode="&#x21b;" horiz-adv-x="690" 
d="M631 860h-239l-1 -860h-140l1 860h-181v140h181l-1 314h140l1 -314h239v-140zM189 -441l62 338h140l-109 -338h-93z" />
    <glyph glyph-name="uni022A" unicode="&#x22a;" horiz-adv-x="1540" 
d="M770 -26q-142 0 -267 56.5t-220 156.5t-149 231.5t-54 281.5t54 281.5t149 231.5t220 156.5t267 56.5q143 0 268 -56.5t220 -156.5t148.5 -231.5t53.5 -281.5t-53.5 -281.5t-148.5 -231.5t-220 -156.5t-268 -56.5zM770 114q115 0 214.5 46.5t175 127.5t118 187t42.5 225
q0 120 -43 226.5t-118.5 187t-175 126.5t-213.5 46q-115 0 -214.5 -46.5t-175 -127.5t-118 -187t-42.5 -225q0 -121 43 -227t118.5 -187t175 -126.5t213.5 -45.5zM614 1481q-34 0 -58.5 22.5t-24.5 56.5q0 33 24.5 57t58.5 24q33 0 56.5 -24t23.5 -57q0 -34 -23.5 -56.5
t-56.5 -22.5zM928 1481q-34 0 -58 22.5t-24 56.5q0 33 24 57t58 24q33 0 57 -24t24 -57q0 -34 -24 -56.5t-57 -22.5zM432 1896h676v-113h-676v113z" />
    <glyph glyph-name="uni022B" unicode="&#x22b;" horiz-adv-x="1120" 
d="M560 -26q-138 0 -251.5 71t-181 190.5t-67.5 264.5q0 146 67.5 266t181 191t251.5 71t251.5 -71t181 -191t67.5 -266q0 -145 -67.5 -264.5t-181 -190.5t-251.5 -71zM560 114q102 0 183.5 53.5t129 141.5t47.5 191q0 105 -48 193.5t-129.5 141.5t-182.5 53
q-102 0 -183.5 -53.5t-129 -141.5t-47.5 -193q0 -108 49 -195.5t131 -139t180 -51.5zM404 1081q-34 0 -58.5 22.5t-24.5 56.5q0 33 24.5 57t58.5 24q33 0 56.5 -24t23.5 -57q0 -34 -23.5 -56.5t-56.5 -22.5zM718 1081q-34 0 -58 22.5t-24 56.5q0 33 24 57t58 24q33 0 57 -24
t24 -57q0 -34 -24 -56.5t-57 -22.5zM222 1496h676v-113h-676v113z" />
    <glyph glyph-name="uni0232" unicode="&#x232;" horiz-adv-x="1203" 
d="M978 1400h165l-472 -766v-634h-140v634l-471 766h165l376 -613zM263 1683h676v-113h-676v113z" />
    <glyph glyph-name="uni0233" unicode="&#x233;" horiz-adv-x="1033" 
d="M805 1000h148l-547 -1500h-149l182 500l-359 1000h153l276 -807zM178 1283h676v-113h-676v113z" />
    <glyph glyph-name="uni0237" unicode="&#x237;" horiz-adv-x="441" 
d="M-80 -500v140q112 0 186.5 72.5t74.5 179.5v1108h140v-1108q0 -108 -52.5 -197t-143 -142t-205.5 -53z" />
    <glyph glyph-name="quoteleft" unicode="&#x2bb;" horiz-adv-x="302" 
d="M60 878l109 522h93l-62 -522h-140z" />
    <glyph glyph-name="quoteleft" unicode="&#x2018;" horiz-adv-x="302" 
d="M60 878l109 522h93l-62 -522h-140z" />
    <glyph glyph-name="uni02BC" unicode="&#x2bc;" horiz-adv-x="402" 
d="M40 878l62 522h140l-109 -522h-93z" />
    <glyph glyph-name="circumflex" unicode="&#x2c6;" horiz-adv-x="565" 
d="M358 1398l193 -288h-94l-176 203l-174 -203h-93l191 288h153z" />
    <glyph glyph-name="caron" unicode="&#x2c7;" horiz-adv-x="529" 
d="M189 1110l-193 288h93l177 -203l173 203h94l-191 -288h-153z" />
    <glyph glyph-name="breve" unicode="&#x2d8;" horiz-adv-x="1144" 
d="M572 1088q-91 0 -166.5 45t-120.5 120.5t-45 166.5h100q0 -65 32.5 -117.5t85.5 -83.5t114 -31q64 0 116.5 31t84 84t31.5 117h100q0 -93 -45.5 -168.5t-121 -119.5t-165.5 -44z" />
    <glyph glyph-name="dotaccent" unicode="&#x2d9;" horiz-adv-x="961" 
d="M481 1175q-34 0 -57.5 22.5t-23.5 56.5t23.5 56.5t57.5 22.5q33 0 56.5 -22.5t23.5 -56.5t-23 -56.5t-57 -22.5z" />
    <glyph glyph-name="ring" unicode="&#x2da;" horiz-adv-x="1117" 
d="M559 1095q-66 0 -112.5 47.5t-46.5 112.5t46.5 111.5t112.5 46.5q65 0 111.5 -46.5t46.5 -111.5q0 -67 -46.5 -113.5t-111.5 -46.5zM559 1173q33 0 56.5 24t23.5 58q0 32 -23.5 55t-56.5 23q-34 0 -57 -23t-23 -55q0 -34 23 -58t57 -24z" />
    <glyph glyph-name="ogonek" unicode="&#x2db;" horiz-adv-x="990" 
d="M481 -406q-82 1 -131.5 57.5t-49.5 126.5q0 35 13 68t41 61l168 168l75 -75q-74 -74 -114 -113.5t-55 -63t-15 -49.5q0 -28 19.5 -50.5t53.5 -24.5q38 0 70.5 28t32.5 74h101q0 -87 -61 -147t-148 -60z" />
    <glyph glyph-name="tilde" unicode="&#x2dc;" horiz-adv-x="1196" 
d="M761 1143q-37 0 -82 23.5t-91 54t-85 51.5t-64 15q-26 -6 -41 -33t-5 -65l-95 -26q-19 57 -4.5 109t55.5 84.5t100 32.5q38 0 83 -22t91 -50.5t85 -50.5t64 -22q34 0 45.5 36.5t1.5 61.5l95 30q20 -60 4.5 -112t-57 -84.5t-100.5 -32.5z" />
    <glyph glyph-name="hungarumlaut" unicode="&#x2dd;" horiz-adv-x="894" 
d="M474 1110l80 288h140l-126 -288h-94zM200 1110l80 288h140l-126 -288h-94z" />
    <glyph glyph-name="gravecomb" unicode="&#x300;" horiz-adv-x="0" 
d="M240 1398h140l80 -288h-93z" />
    <glyph glyph-name="acutecomb" unicode="&#x301;" horiz-adv-x="0" 
d="M293 1110l80 288h140l-126 -288h-94z" />
    <glyph glyph-name="uni0302" unicode="&#x302;" horiz-adv-x="0" 
d="M358 1398l193 -288h-94l-176 203l-174 -203h-93l191 288h153z" />
    <glyph glyph-name="tildecomb" unicode="&#x303;" horiz-adv-x="0" 
d="M774 1131q-37 0 -82 23.5t-91 54t-85 51.5t-64 15q-26 -6 -41 -33t-5 -65l-95 -26q-19 57 -4.5 109t55.5 84.5t100 32.5q38 0 83 -22t91 -50.5t85 -50.5t64 -22q34 0 45.5 36.5t1.5 61.5l95 30q20 -60 4.5 -112t-57 -84.5t-100.5 -32.5z" />
    <glyph glyph-name="uni0304" unicode="&#x304;" horiz-adv-x="0" 
d="M262 1283h676v-113h-676v113z" />
    <glyph glyph-name="uni0306" unicode="&#x306;" horiz-adv-x="0" 
d="M572 1088q-91 0 -166.5 45t-120.5 120.5t-45 166.5h100q0 -65 32.5 -117.5t85.5 -83.5t114 -31q64 0 116.5 31t84 84t31.5 117h100q0 -93 -45.5 -168.5t-121 -119.5t-165.5 -44z" />
    <glyph glyph-name="uni0307" unicode="&#x307;" horiz-adv-x="0" 
d="M481 1175q-34 0 -57.5 22.5t-23.5 56.5t23.5 56.5t57.5 22.5q33 0 56.5 -22.5t23.5 -56.5t-23 -56.5t-57 -22.5z" />
    <glyph glyph-name="uni0308" unicode="&#x308;" horiz-adv-x="0" 
d="M483 1081q-34 0 -58.5 22.5t-24.5 56.5q0 33 24.5 57t58.5 24q33 0 56.5 -24t23.5 -57q0 -34 -23.5 -56.5t-56.5 -22.5zM797 1081q-34 0 -58 22.5t-24 56.5q0 33 24 57t58 24q33 0 57 -24t24 -57q0 -34 -24 -56.5t-57 -22.5z" />
    <glyph glyph-name="uni030A" unicode="&#x30a;" horiz-adv-x="0" 
d="M559 1095q-66 0 -112.5 47.5t-46.5 112.5t46.5 111.5t112.5 46.5q65 0 111.5 -46.5t46.5 -111.5q0 -67 -46.5 -113.5t-111.5 -46.5zM559 1173q33 0 56.5 24t23.5 58q0 32 -23.5 55t-56.5 23q-34 0 -57 -23t-23 -55q0 -34 23 -58t57 -24z" />
    <glyph glyph-name="uni030B" unicode="&#x30b;" horiz-adv-x="0" 
d="M474 1110l80 288h140l-126 -288h-94zM200 1110l80 288h140l-126 -288h-94z" />
    <glyph glyph-name="uni030C" unicode="&#x30c;" horiz-adv-x="0" 
d="M189 1110l-193 288h93l177 -203l173 203h94l-191 -288h-153z" />
    <glyph glyph-name="dotbelowcomb" unicode="&#x323;" horiz-adv-x="0" 
d="M481 -394q-34 0 -57.5 22.5t-23.5 56.5t23.5 56.5t57.5 22.5q33 0 56.5 -22.5t23.5 -56.5t-23 -56.5t-57 -22.5z" />
    <glyph glyph-name="uni0326" unicode="&#x326;" horiz-adv-x="0" 
d="M400 -441l62 338h140l-109 -338h-93z" />
    <glyph glyph-name="uni0327" unicode="&#x327;" horiz-adv-x="0" 
d="M595 -367q-63 -17 -120 16t-74 96l87 23q7 -27 31.5 -41t52.5 -7q28 8 42.5 32.5t6.5 52.5q-7 28 -31.5 41.5t-53.5 7.5l-95 -13l123 214l78 -45l-42 -73q38 -10 67.5 -39t40.5 -70q17 -64 -16 -121t-97 -74z" />
    <glyph glyph-name="uni0328" unicode="&#x328;" horiz-adv-x="0" 
d="M481 -406q-82 1 -131.5 57.5t-49.5 126.5q0 35 13 68t41 61l168 168l75 -75q-74 -74 -114 -113.5t-55 -63t-15 -49.5q0 -28 19.5 -50.5t53.5 -24.5q38 0 70.5 28t32.5 74h101q0 -87 -61 -147t-148 -60z" />
    <glyph glyph-name="uni03BC" unicode="&#x3bc;" horiz-adv-x="1057" 
d="M80 -432v1432h140v-532q0 -98 41.5 -179.5t112.5 -130t159 -48.5q87 0 156 48.5t108.5 130t39.5 179.5v532h140v-1000h-140v168q-56 -91 -138.5 -143t-183.5 -52q-94 0 -170 46.5t-125 119.5v-571h-140z" />
    <glyph glyph-name="uni1E04" unicode="&#x1e04;" horiz-adv-x="1115" 
d="M120 0v1400h473q102 0 185.5 -41.5t133 -121t49.5 -192.5q0 -64 -23 -122t-60 -98.5t-80 -52.5q83 -22 135.5 -83t77 -139.5t24.5 -154.5q0 -118 -51.5 -207t-137.5 -138.5t-191 -49.5h-535zM260 825h321q99 0 169.5 57.5t70.5 163.5q0 116 -70.5 172.5t-169.5 56.5h-321
v-450zM260 125h384q73 0 132.5 38t95 104t35.5 149q0 74 -35.5 139.5t-95 106t-132.5 40.5h-384v-577zM559 -394q-34 0 -57.5 22.5t-23.5 56.5t23.5 56.5t57.5 22.5q33 0 56.5 -22.5t23.5 -56.5t-23 -56.5t-57 -22.5z" />
    <glyph glyph-name="uni1E05" unicode="&#x1e05;" horiz-adv-x="1203" 
d="M616 1028q146 0 265.5 -71t190.5 -190.5t71 -265.5q0 -145 -71 -265t-190.5 -191t-265.5 -71q-124 0 -214 59t-142 154v-187h-140v1500h140v-685q52 95 142 154t214 59zM615 111q107 0 194 52.5t139 141.5t52 196q0 110 -53 198.5t-140.5 140.5t-191.5 52
q-106 0 -183.5 -53t-119 -142t-41.5 -196q0 -109 42 -197.5t119.5 -140.5t182.5 -52zM602 -394q-34 0 -57.5 22.5t-23.5 56.5t23.5 56.5t57.5 22.5q33 0 56.5 -22.5t23.5 -56.5t-23 -56.5t-57 -22.5z" />
    <glyph glyph-name="uni1E0C" unicode="&#x1e0c;" horiz-adv-x="1343" 
d="M120 0v1400h463q145 0 272 -54.5t223 -151t150.5 -223t54.5 -271.5t-54.5 -271.5t-150.5 -223t-223 -151t-272 -54.5h-463zM260 140h323q116 0 217.5 43.5t178.5 120.5t120.5 178.5t43.5 217.5t-43.5 217.5t-121 178.5t-178.5 120.5t-217 43.5h-323v-1120zM666 -394
q-34 0 -57.5 22.5t-23.5 56.5t23.5 56.5t57.5 22.5q33 0 56.5 -22.5t23.5 -56.5t-23 -56.5t-57 -22.5z" />
    <glyph glyph-name="uni1E0D" unicode="&#x1e0d;" horiz-adv-x="1203" 
d="M943 1500h140v-1500h-140v187q-52 -96 -142.5 -154.5t-214.5 -58.5q-109 0 -204 41t-167.5 113.5t-113.5 167.5t-41 204t41 204.5t113.5 168t167.5 113.5t204 41q124 0 214.5 -58.5t142.5 -153.5v685zM587 110q107 0 184 52.5t118.5 141.5t41.5 196q0 110 -42 198.5
t-119 140.5t-183 52t-193 -52.5t-139 -141.5t-52 -197q0 -109 53 -197.5t140.5 -140.5t190.5 -52zM609 -394q-34 0 -57.5 22.5t-23.5 56.5t23.5 56.5t57.5 22.5q33 0 56.5 -22.5t23.5 -56.5t-23 -56.5t-57 -22.5z" />
    <glyph glyph-name="uni1E20" unicode="&#x1e20;" horiz-adv-x="1536" 
d="M769 -26q-144 0 -269.5 56.5t-219.5 157t-147 232t-53 281.5q0 153 55 285t151 230.5t220.5 153.5t264.5 55q161 0 304.5 -75t243.5 -213l-125 -68q-80 105 -192.5 161t-231.5 56q-113 0 -212.5 -45.5t-175.5 -126.5t-119 -187t-43 -228q0 -121 43 -227t118.5 -186.5
t175.5 -126t214 -45.5q125 0 233 57t184 155.5t105 221.5h-378v127h541q-3 -145 -58 -272t-149.5 -223.5t-217 -151t-262.5 -54.5zM432 1683h676v-113h-676v113z" />
    <glyph glyph-name="uni1E21" unicode="&#x1e21;" horiz-adv-x="1175" 
d="M915 1000h140v-1037q0 -96 -41.5 -180t-112 -147.5t-160.5 -99.5t-187 -36q-104 0 -201 47.5t-168.5 126.5t-101.5 175l129 59q19 -75 71.5 -135.5t124 -96t146.5 -35.5q92 0 174.5 44t134.5 117t52 161v221q-52 -94 -140.5 -152t-205.5 -58q-140 0 -256 71t-184.5 190.5
t-68.5 264.5q0 146 68.5 265.5t184.5 190.5t256 71q117 0 205.5 -57.5t140.5 -152.5v183zM570 110q104 0 179.5 54t116.5 143t41 193q0 107 -41.5 195.5t-117.5 142t-178 53.5t-185.5 -52.5t-132.5 -141.5t-49 -197t50 -196.5t133.5 -141t183.5 -52.5zM250 1283h676v-113
h-676v113z" />
    <glyph glyph-name="uni1E24" unicode="&#x1e24;" horiz-adv-x="1255" 
d="M995 1400h140v-1400h-140v680h-735v-680h-140v1400h140v-580h735v580zM628 -394q-34 0 -57.5 22.5t-23.5 56.5t23.5 56.5t57.5 22.5q33 0 56.5 -22.5t23.5 -56.5t-23 -56.5t-57 -22.5z" />
    <glyph glyph-name="uni1E25" unicode="&#x1e25;" 
d="M992 619v-619h-140v591q0 82 -40 149t-107 107t-149 40q-81 0 -148.5 -40t-107.5 -107t-40 -149v-591h-140v1500h140v-638q53 76 138 121t185 45q113 0 206 -55t148 -148t55 -206zM570 -394q-34 0 -57.5 22.5t-23.5 56.5t23.5 56.5t57.5 22.5q33 0 56.5 -22.5t23.5 -56.5
t-23 -56.5t-57 -22.5z" />
    <glyph glyph-name="uni1E2E" unicode="&#x1e2e;" horiz-adv-x="440" 
d="M150 0v1400h140v-1400h-140zM64 1481q-34 0 -58.5 22.5t-24.5 56.5q0 33 24.5 57t58.5 24q33 0 56.5 -24t23.5 -57q0 -34 -23.5 -56.5t-56.5 -22.5zM378 1481q-34 0 -58 22.5t-24 56.5q0 33 24 57t58 24q33 0 57 -24t24 -57q0 -34 -24 -56.5t-57 -22.5zM186 1723l80 288
h140l-126 -288h-94z" />
    <glyph glyph-name="uni1E2F" unicode="&#x1e2f;" horiz-adv-x="380" 
d="M120 1000h140v-1000h-140v1000zM34 1081q-34 0 -58.5 22.5t-24.5 56.5q0 33 24.5 57t58.5 24q33 0 56.5 -24t23.5 -57q0 -34 -23.5 -56.5t-56.5 -22.5zM348 1081q-34 0 -58 22.5t-24 56.5q0 33 24 57t58 24q33 0 57 -24t24 -57q0 -34 -24 -56.5t-57 -22.5zM156 1323
l80 288h140l-126 -288h-94z" />
    <glyph glyph-name="uni1E36" unicode="&#x1e36;" horiz-adv-x="1003" 
d="M120 0v1400h140v-1260h643v-140h-783zM513 -394q-34 0 -57.5 22.5t-23.5 56.5t23.5 56.5t57.5 22.5q33 0 56.5 -22.5t23.5 -56.5t-23 -56.5t-57 -22.5z" />
    <glyph glyph-name="uni1E37" unicode="&#x1e37;" horiz-adv-x="380" 
d="M120 0v1500h140v-1500h-140zM191 -394q-34 0 -57.5 22.5t-23.5 56.5t23.5 56.5t57.5 22.5q33 0 56.5 -22.5t23.5 -56.5t-23 -56.5t-57 -22.5z" />
    <glyph glyph-name="uni1E3E" unicode="&#x1e3e;" horiz-adv-x="1769" 
d="M120 0l271 1400h102l392 -1030l390 1030h102l272 -1400h-143l-207 1071l-370 -979h-90l-370 979l-207 -1071h-142zM851 1510l80 288h140l-126 -288h-94z" />
    <glyph glyph-name="uni1E3F" unicode="&#x1e3f;" horiz-adv-x="1777" 
d="M120 0v1000h140v-138q54 76 138 121t184 45q113 0 207 -55.5t147 -147.5q53 92 146 147.5t206 55.5t206 -55t148 -148t55 -206v-619h-140v588q0 80 -39 148t-104.5 109.5t-145.5 41.5t-145.5 -38.5t-104.5 -106t-39 -154.5v-588h-140v588q0 87 -39 154.5t-105 106
t-146 38.5q-79 0 -145 -41.5t-105 -109.5t-39 -148v-588h-140zM902 1110l80 288h140l-126 -288h-94z" />
    <glyph glyph-name="uni1E40" unicode="&#x1e40;" horiz-adv-x="1769" 
d="M120 0l271 1400h102l392 -1030l390 1030h102l272 -1400h-143l-207 1071l-370 -979h-90l-370 979l-207 -1071h-142zM886 1575q-34 0 -57.5 22.5t-23.5 56.5t23.5 56.5t57.5 22.5q33 0 56.5 -22.5t23.5 -56.5t-23 -56.5t-57 -22.5z" />
    <glyph glyph-name="uni1E41" unicode="&#x1e41;" horiz-adv-x="1777" 
d="M120 0v1000h140v-138q54 76 138 121t184 45q113 0 207 -55.5t147 -147.5q53 92 146 147.5t206 55.5t206 -55t148 -148t55 -206v-619h-140v588q0 80 -39 148t-104.5 109.5t-145.5 41.5t-145.5 -38.5t-104.5 -106t-39 -154.5v-588h-140v588q0 87 -39 154.5t-105 106
t-146 38.5q-79 0 -145 -41.5t-105 -109.5t-39 -148v-588h-140zM937 1175q-34 0 -57.5 22.5t-23.5 56.5t23.5 56.5t57.5 22.5q33 0 56.5 -22.5t23.5 -56.5t-23 -56.5t-57 -22.5z" />
    <glyph glyph-name="uni1E42" unicode="&#x1e42;" horiz-adv-x="1769" 
d="M120 0l271 1400h102l392 -1030l390 1030h102l272 -1400h-143l-207 1071l-370 -979h-90l-370 979l-207 -1071h-142zM886 -394q-34 0 -57.5 22.5t-23.5 56.5t23.5 56.5t57.5 22.5q33 0 56.5 -22.5t23.5 -56.5t-23 -56.5t-57 -22.5z" />
    <glyph glyph-name="uni1E43" unicode="&#x1e43;" horiz-adv-x="1777" 
d="M120 0v1000h140v-138q54 76 138 121t184 45q113 0 207 -55.5t147 -147.5q53 92 146 147.5t206 55.5t206 -55t148 -148t55 -206v-619h-140v588q0 80 -39 148t-104.5 109.5t-145.5 41.5t-145.5 -38.5t-104.5 -106t-39 -154.5v-588h-140v588q0 87 -39 154.5t-105 106
t-146 38.5q-79 0 -145 -41.5t-105 -109.5t-39 -148v-588h-140zM910 -394q-34 0 -57.5 22.5t-23.5 56.5t23.5 56.5t57.5 22.5q33 0 56.5 -22.5t23.5 -56.5t-23 -56.5t-57 -22.5z" />
    <glyph glyph-name="uni1E44" unicode="&#x1e44;" horiz-adv-x="1271" 
d="M120 0v1400h152l739 -1147v1147h140v-1400h-151l-740 1147v-1147h-140zM636 1575q-34 0 -57.5 22.5t-23.5 56.5t23.5 56.5t57.5 22.5q33 0 56.5 -22.5t23.5 -56.5t-23 -56.5t-57 -22.5z" />
    <glyph glyph-name="uni1E45" unicode="&#x1e45;" 
d="M992 619v-619h-140v591q0 82 -40 149t-107 107t-149 40q-81 0 -148.5 -40t-107.5 -107t-40 -149v-591h-140v1000h140v-138q53 76 138 121t185 45q113 0 206 -55t148 -148t55 -206zM564 1175q-34 0 -57.5 22.5t-23.5 56.5t23.5 56.5t57.5 22.5q33 0 56.5 -22.5t23.5 -56.5
t-23 -56.5t-57 -22.5z" />
    <glyph glyph-name="uni1E46" unicode="&#x1e46;" horiz-adv-x="1271" 
d="M120 0v1400h152l739 -1147v1147h140v-1400h-151l-740 1147v-1147h-140zM636 -394q-34 0 -57.5 22.5t-23.5 56.5t23.5 56.5t57.5 22.5q33 0 56.5 -22.5t23.5 -56.5t-23 -56.5t-57 -22.5z" />
    <glyph glyph-name="uni1E47" unicode="&#x1e47;" 
d="M992 619v-619h-140v591q0 82 -40 149t-107 107t-149 40q-81 0 -148.5 -40t-107.5 -107t-40 -149v-591h-140v1000h140v-138q53 76 138 121t185 45q113 0 206 -55t148 -148t55 -206zM557 -394q-34 0 -57.5 22.5t-23.5 56.5t23.5 56.5t57.5 22.5q33 0 56.5 -22.5t23.5 -56.5
t-23 -56.5t-57 -22.5z" />
    <glyph glyph-name="uni1E62" unicode="&#x1e62;" horiz-adv-x="1220" 
d="M609 -26q-112 0 -216.5 35t-182.5 100t-110 155l131 49q22 -62 80.5 -106.5t137 -68.5t160.5 -24q96 0 179 32t134 89.5t51 135.5q0 79 -53 130t-136.5 80.5t-174.5 45.5q-143 25 -256.5 68t-179.5 121.5t-66 207.5q0 121 70 210t184.5 138t247.5 49q109 0 213 -34
t183.5 -99t114.5 -159l-133 -48q-22 63 -80.5 107.5t-136.5 68t-161 23.5q-95 1 -177.5 -31.5t-133.5 -90t-51 -134.5q0 -90 47.5 -138.5t129.5 -72.5t185 -43q134 -23 249 -71.5t185 -129t70 -198.5q0 -120 -70 -209.5t-184.5 -138.5t-249.5 -49zM681 -394
q-34 0 -57.5 22.5t-23.5 56.5t23.5 56.5t57.5 22.5q33 0 56.5 -22.5t23.5 -56.5t-23 -56.5t-57 -22.5z" />
    <glyph glyph-name="uni1E63" unicode="&#x1e63;" horiz-adv-x="859" 
d="M429 -19q-82 2 -160 30t-136 76t-83 109l121 52q16 -39 59.5 -71.5t99.5 -52t111 -19.5q91 0 162.5 44.5t71.5 121.5q0 55 -36 86.5t-91 50t-113 35.5q-106 29 -187 64t-126.5 89.5t-45.5 140.5q0 91 51.5 157.5t135 103t178.5 36.5q122 0 222.5 -53t145.5 -141l-113 -67
q-27 61 -98.5 98t-147.5 38q-97 2 -169 -42t-72 -127q0 -55 33 -83.5t89.5 -46t127.5 -40.5q91 -29 171 -66t129 -92t48 -139q0 -90 -54 -157t-140 -102.5t-184 -32.5zM491 -394q-34 0 -57.5 22.5t-23.5 56.5t23.5 56.5t57.5 22.5q33 0 56.5 -22.5t23.5 -56.5t-23 -56.5
t-57 -22.5z" />
    <glyph glyph-name="uni1E6C" unicode="&#x1e6c;" horiz-adv-x="1259" 
d="M1179 1400v-140h-480v-1260h-140v1260h-479v140h1099zM630 -394q-34 0 -57.5 22.5t-23.5 56.5t23.5 56.5t57.5 22.5q33 0 56.5 -22.5t23.5 -56.5t-23 -56.5t-57 -22.5z" />
    <glyph glyph-name="uni1E6D" unicode="&#x1e6d;" horiz-adv-x="690" 
d="M631 860h-239l-1 -860h-140l1 860h-181v140h181l-1 314h140l1 -314h239v-140zM322 -394q-34 0 -57.5 22.5t-23.5 56.5t23.5 56.5t57.5 22.5q33 0 56.5 -22.5t23.5 -56.5t-23 -56.5t-57 -22.5z" />
    <glyph glyph-name="Wgrave" unicode="&#x1e80;" horiz-adv-x="1688" 
d="M405 0l-358 1400h144l296 -1159l295 1159h124l296 -1159l295 1159h144l-356 -1400h-166l-275 1075l-275 -1075h-164zM651 1798h140l80 -288h-93z" />
    <glyph glyph-name="wgrave" unicode="&#x1e81;" horiz-adv-x="1625" 
d="M539 0h-144l-335 1000h137l272 -806l270 806h148l270 -806l270 806h138l-335 -1000h-145l-274 814zM620 1398h140l80 -288h-93z" />
    <glyph glyph-name="Wacute" unicode="&#x1e82;" horiz-adv-x="1688" 
d="M405 0l-358 1400h144l296 -1159l295 1159h124l296 -1159l295 1159h144l-356 -1400h-166l-275 1075l-275 -1075h-164zM810 1510l80 288h140l-126 -288h-94z" />
    <glyph glyph-name="wacute" unicode="&#x1e83;" horiz-adv-x="1625" 
d="M539 0h-144l-335 1000h137l272 -806l270 806h148l270 -806l270 806h138l-335 -1000h-145l-274 814zM779 1110l80 288h140l-126 -288h-94z" />
    <glyph glyph-name="Wdieresis" unicode="&#x1e84;" horiz-adv-x="1688" 
d="M405 0l-358 1400h144l296 -1159l295 1159h124l296 -1159l295 1159h144l-356 -1400h-166l-275 1075l-275 -1075h-164zM688 1481q-34 0 -58.5 22.5t-24.5 56.5q0 33 24.5 57t58.5 24q33 0 56.5 -24t23.5 -57q0 -34 -23.5 -56.5t-56.5 -22.5zM1002 1481q-34 0 -58 22.5
t-24 56.5q0 33 24 57t58 24q33 0 57 -24t24 -57q0 -34 -24 -56.5t-57 -22.5z" />
    <glyph glyph-name="wdieresis" unicode="&#x1e85;" horiz-adv-x="1625" 
d="M539 0h-144l-335 1000h137l272 -806l270 806h148l270 -806l270 806h138l-335 -1000h-145l-274 814zM657 1081q-34 0 -58.5 22.5t-24.5 56.5q0 33 24.5 57t58.5 24q33 0 56.5 -24t23.5 -57q0 -34 -23.5 -56.5t-56.5 -22.5zM971 1081q-34 0 -58 22.5t-24 56.5q0 33 24 57
t58 24q33 0 57 -24t24 -57q0 -34 -24 -56.5t-57 -22.5z" />
    <glyph glyph-name="uni1E92" unicode="&#x1e92;" horiz-adv-x="1292" 
d="M80 0v140l945 1120h-945v140h1132v-140l-945 -1120h945v-140h-1132zM647 -394q-34 0 -57.5 22.5t-23.5 56.5t23.5 56.5t57.5 22.5q33 0 56.5 -22.5t23.5 -56.5t-23 -56.5t-57 -22.5z" />
    <glyph glyph-name="uni1E93" unicode="&#x1e93;" horiz-adv-x="1014" 
d="M934 860l-656 -720h656v-140h-854v140l656 720h-656v140h854v-140zM508 -394q-34 0 -57.5 22.5t-23.5 56.5t23.5 56.5t57.5 22.5q33 0 56.5 -22.5t23.5 -56.5t-23 -56.5t-57 -22.5z" />
    <glyph glyph-name="uni1E97" unicode="&#x1e97;" horiz-adv-x="690" 
d="M631 860h-239l-1 -860h-140l1 860h-181v140h181l-1 314h140l1 -314h239v-140zM165 1395q-34 0 -58.5 22.5t-24.5 56.5q0 33 24.5 57t58.5 24q33 0 56.5 -24t23.5 -57q0 -34 -23.5 -56.5t-56.5 -22.5zM479 1395q-34 0 -58 22.5t-24 56.5q0 33 24 57t58 24q33 0 57 -24
t24 -57q0 -34 -24 -56.5t-57 -22.5z" />
    <glyph glyph-name="uni1E9E" unicode="&#x1e9e;" horiz-adv-x="1129" 
d="M120 0v951q0 124 60.5 225.5t162 162t224.5 60.5q98 0 182.5 -33t136 -94.5t51.5 -147.5q0 -43 -27 -90t-84 -118.5t-147 -190.5q96 13 185.5 -31.5t147 -126.5t57.5 -185q0 -125 -66.5 -210.5t-168 -128.5t-206.5 -43h-67l-34 125h90q73 0 147.5 26.5t125 84t50.5 148.5
q0 90 -51 146.5t-125.5 82.5t-147.5 26h-71l-3 58q-1 28 23.5 71t61.5 93.5t74.5 101t63 93.5t25.5 70q-1 83 -74 115t-170 32q-77 0 -142.5 -39.5t-104.5 -106t-39 -148.5v-979h-140z" />
    <glyph glyph-name="uni1EA0" unicode="&#x1ea0;" horiz-adv-x="1353" 
d="M589 1400h174l510 -1400h-149l-109 300h-677l-109 -300h-149zM389 440h574l-287 788zM677 -394q-34 0 -57.5 22.5t-23.5 56.5t23.5 56.5t57.5 22.5q33 0 56.5 -22.5t23.5 -56.5t-23 -56.5t-57 -22.5z" />
    <glyph glyph-name="uni1EA1" unicode="&#x1ea1;" horiz-adv-x="1162" 
d="M942 1000h140v-1000h-140l-5 186q-49 -95 -137 -153.5t-210 -58.5q-110 0 -206 41.5t-169 114.5t-114 169t-41 206q0 145 70.5 263.5t188.5 189t262 70.5q125 0 218 -59.5t148 -155.5zM587 110q107 0 184 52.5t118.5 141.5t41.5 196q0 110 -42 198.5t-119 140.5t-183 52
t-193.5 -52.5t-139 -141.5t-51.5 -197q0 -109 53 -197.5t140.5 -140.5t190.5 -52zM597 -394q-34 0 -57.5 22.5t-23.5 56.5t23.5 56.5t57.5 22.5q33 0 56.5 -22.5t23.5 -56.5t-23 -56.5t-57 -22.5z" />
    <glyph glyph-name="uni1EAC" unicode="&#x1eac;" horiz-adv-x="1353" 
d="M589 1400h174l510 -1400h-149l-109 300h-677l-109 -300h-149zM389 440h574l-287 788zM677 -394q-34 0 -57.5 22.5t-23.5 56.5t23.5 56.5t57.5 22.5q33 0 56.5 -22.5t23.5 -56.5t-23 -56.5t-57 -22.5zM753 1798l193 -288h-94l-176 203l-174 -203h-93l191 288h153z" />
    <glyph glyph-name="uni1EAD" unicode="&#x1ead;" horiz-adv-x="1162" 
d="M942 1000h140v-1000h-140l-5 186q-49 -95 -137 -153.5t-210 -58.5q-110 0 -206 41.5t-169 114.5t-114 169t-41 206q0 145 70.5 263.5t188.5 189t262 70.5q125 0 218 -59.5t148 -155.5zM587 110q107 0 184 52.5t118.5 141.5t41.5 196q0 110 -42 198.5t-119 140.5t-183 52
t-193.5 -52.5t-139 -141.5t-51.5 -197q0 -109 53 -197.5t140.5 -140.5t190.5 -52zM597 -394q-34 0 -57.5 22.5t-23.5 56.5t23.5 56.5t57.5 22.5q33 0 56.5 -22.5t23.5 -56.5t-23 -56.5t-57 -22.5zM673 1398l193 -288h-94l-176 203l-174 -203h-93l191 288h153z" />
    <glyph glyph-name="uni1EB6" unicode="&#x1eb6;" horiz-adv-x="1353" 
d="M589 1400h174l510 -1400h-149l-109 300h-677l-109 -300h-149zM389 440h574l-287 788zM677 -394q-34 0 -57.5 22.5t-23.5 56.5t23.5 56.5t57.5 22.5q33 0 56.5 -22.5t23.5 -56.5t-23 -56.5t-57 -22.5zM676 1488q-91 0 -166.5 45t-120.5 120.5t-45 166.5h100
q0 -65 32.5 -117.5t85.5 -83.5t114 -31q64 0 116.5 31t84 84t31.5 117h100q0 -93 -45.5 -168.5t-121 -119.5t-165.5 -44z" />
    <glyph glyph-name="uni1EB7" unicode="&#x1eb7;" horiz-adv-x="1162" 
d="M942 1000h140v-1000h-140l-5 186q-49 -95 -137 -153.5t-210 -58.5q-110 0 -206 41.5t-169 114.5t-114 169t-41 206q0 145 70.5 263.5t188.5 189t262 70.5q125 0 218 -59.5t148 -155.5zM587 110q107 0 184 52.5t118.5 141.5t41.5 196q0 110 -42 198.5t-119 140.5t-183 52
t-193.5 -52.5t-139 -141.5t-51.5 -197q0 -109 53 -197.5t140.5 -140.5t190.5 -52zM597 -394q-34 0 -57.5 22.5t-23.5 56.5t23.5 56.5t57.5 22.5q33 0 56.5 -22.5t23.5 -56.5t-23 -56.5t-57 -22.5zM596 1088q-91 0 -166.5 45t-120.5 120.5t-45 166.5h100q0 -65 32.5 -117.5
t85.5 -83.5t114 -31q64 0 116.5 31t84 84t31.5 117h100q0 -93 -45.5 -168.5t-121 -119.5t-165.5 -44z" />
    <glyph glyph-name="uni1EB8" unicode="&#x1eb8;" 
d="M120 0v1400h852v-140h-712v-440h589v-140h-589v-540h712v-140h-852zM537 -394q-34 0 -57.5 22.5t-23.5 56.5t23.5 56.5t57.5 22.5q33 0 56.5 -22.5t23.5 -56.5t-23 -56.5t-57 -22.5z" />
    <glyph glyph-name="uni1EB9" unicode="&#x1eb9;" horiz-adv-x="1117" 
d="M560 -26q-138 0 -251.5 71t-181 190.5t-67.5 264.5q0 146 67.5 266t181 191t251.5 71q149 0 263.5 -76.5t177.5 -208t55 -296.5h-848q12 -95 60.5 -170t124 -118.5t167.5 -44.5q100 0 180.5 52t129.5 143l142 -33q-60 -133 -181 -217.5t-271 -84.5zM204 560h711
q-7 93 -56.5 170.5t-127.5 124t-171 46.5t-170 -45.5t-126 -123t-60 -172.5zM560 -394q-34 0 -57.5 22.5t-23.5 56.5t23.5 56.5t57.5 22.5q33 0 56.5 -22.5t23.5 -56.5t-23 -56.5t-57 -22.5z" />
    <glyph glyph-name="uni1EBC" unicode="&#x1ebc;" 
d="M120 0v1400h852v-140h-712v-440h589v-140h-589v-540h712v-140h-852zM691 1531q-37 0 -82 23.5t-91 54t-85 51.5t-64 15q-26 -6 -41 -33t-5 -65l-95 -26q-19 57 -4.5 109t55.5 84.5t100 32.5q38 0 83 -22t91 -50.5t85 -50.5t64 -22q34 0 45.5 36.5t1.5 61.5l95 30
q20 -60 4.5 -112t-57 -84.5t-100.5 -32.5z" />
    <glyph glyph-name="uni1EBD" unicode="&#x1ebd;" horiz-adv-x="1117" 
d="M560 -26q-138 0 -251.5 71t-181 190.5t-67.5 264.5q0 146 67.5 266t181 191t251.5 71q149 0 263.5 -76.5t177.5 -208t55 -296.5h-848q12 -95 60.5 -170t124 -118.5t167.5 -44.5q100 0 180.5 52t129.5 143l142 -33q-60 -133 -181 -217.5t-271 -84.5zM204 560h711
q-7 93 -56.5 170.5t-127.5 124t-171 46.5t-170 -45.5t-126 -123t-60 -172.5zM714 1131q-37 0 -82 23.5t-91 54t-85 51.5t-64 15q-26 -6 -41 -33t-5 -65l-95 -26q-19 57 -4.5 109t55.5 84.5t100 32.5q38 0 83 -22t91 -50.5t85 -50.5t64 -22q34 0 45.5 36.5t1.5 61.5l95 30
q20 -60 4.5 -112t-57 -84.5t-100.5 -32.5z" />
    <glyph glyph-name="uni1EC6" unicode="&#x1ec6;" 
d="M120 0v1400h852v-140h-712v-440h589v-140h-589v-540h712v-140h-852zM537 -394q-34 0 -57.5 22.5t-23.5 56.5t23.5 56.5t57.5 22.5q33 0 56.5 -22.5t23.5 -56.5t-23 -56.5t-57 -22.5zM613 1798l193 -288h-94l-176 203l-174 -203h-93l191 288h153z" />
    <glyph glyph-name="uni1EC7" unicode="&#x1ec7;" horiz-adv-x="1117" 
d="M560 -26q-138 0 -251.5 71t-181 190.5t-67.5 264.5q0 146 67.5 266t181 191t251.5 71q149 0 263.5 -76.5t177.5 -208t55 -296.5h-848q12 -95 60.5 -170t124 -118.5t167.5 -44.5q100 0 180.5 52t129.5 143l142 -33q-60 -133 -181 -217.5t-271 -84.5zM204 560h711
q-7 93 -56.5 170.5t-127.5 124t-171 46.5t-170 -45.5t-126 -123t-60 -172.5zM560 -394q-34 0 -57.5 22.5t-23.5 56.5t23.5 56.5t57.5 22.5q33 0 56.5 -22.5t23.5 -56.5t-23 -56.5t-57 -22.5zM636 1398l193 -288h-94l-176 203l-174 -203h-93l191 288h153z" />
    <glyph glyph-name="uni1ECA" unicode="&#x1eca;" horiz-adv-x="440" 
d="M150 0v1400h140v-1400h-140zM221 -394q-34 0 -57.5 22.5t-23.5 56.5t23.5 56.5t57.5 22.5q33 0 56.5 -22.5t23.5 -56.5t-23 -56.5t-57 -22.5z" />
    <glyph glyph-name="uni1ECB" unicode="&#x1ecb;" horiz-adv-x="380" 
d="M120 1000h140v-1000h-140v1000zM191 1175q-34 0 -57.5 22.5t-23.5 56.5t23.5 56.5t57.5 22.5q33 0 56.5 -22.5t23.5 -56.5t-23 -56.5t-57 -22.5zM191 -394q-34 0 -57.5 22.5t-23.5 56.5t23.5 56.5t57.5 22.5q33 0 56.5 -22.5t23.5 -56.5t-23 -56.5t-57 -22.5z" />
    <glyph glyph-name="uni1ECC" unicode="&#x1ecc;" horiz-adv-x="1540" 
d="M770 -26q-142 0 -267 56.5t-220 156.5t-149 231.5t-54 281.5t54 281.5t149 231.5t220 156.5t267 56.5q143 0 268 -56.5t220 -156.5t148.5 -231.5t53.5 -281.5t-53.5 -281.5t-148.5 -231.5t-220 -156.5t-268 -56.5zM770 114q115 0 214.5 46.5t175 127.5t118 187t42.5 225
q0 120 -43 226.5t-118.5 187t-175 126.5t-213.5 46q-115 0 -214.5 -46.5t-175 -127.5t-118 -187t-42.5 -225q0 -121 43 -227t118.5 -187t175 -126.5t213.5 -45.5zM771 -394q-34 0 -57.5 22.5t-23.5 56.5t23.5 56.5t57.5 22.5q33 0 56.5 -22.5t23.5 -56.5t-23 -56.5
t-57 -22.5z" />
    <glyph glyph-name="uni1ECD" unicode="&#x1ecd;" horiz-adv-x="1120" 
d="M560 -26q-138 0 -251.5 71t-181 190.5t-67.5 264.5q0 146 67.5 266t181 191t251.5 71t251.5 -71t181 -191t67.5 -266q0 -145 -67.5 -264.5t-181 -190.5t-251.5 -71zM560 114q102 0 183.5 53.5t129 141.5t47.5 191q0 105 -48 193.5t-129.5 141.5t-182.5 53
q-102 0 -183.5 -53.5t-129 -141.5t-47.5 -193q0 -108 49 -195.5t131 -139t180 -51.5zM561 -394q-34 0 -57.5 22.5t-23.5 56.5t23.5 56.5t57.5 22.5q33 0 56.5 -22.5t23.5 -56.5t-23 -56.5t-57 -22.5z" />
    <glyph glyph-name="uni1ED8" unicode="&#x1ed8;" horiz-adv-x="1540" 
d="M770 -26q-142 0 -267 56.5t-220 156.5t-149 231.5t-54 281.5t54 281.5t149 231.5t220 156.5t267 56.5q143 0 268 -56.5t220 -156.5t148.5 -231.5t53.5 -281.5t-53.5 -281.5t-148.5 -231.5t-220 -156.5t-268 -56.5zM770 114q115 0 214.5 46.5t175 127.5t118 187t42.5 225
q0 120 -43 226.5t-118.5 187t-175 126.5t-213.5 46q-115 0 -214.5 -46.5t-175 -127.5t-118 -187t-42.5 -225q0 -121 43 -227t118.5 -187t175 -126.5t213.5 -45.5zM771 -394q-34 0 -57.5 22.5t-23.5 56.5t23.5 56.5t57.5 22.5q33 0 56.5 -22.5t23.5 -56.5t-23 -56.5
t-57 -22.5zM847 1798l193 -288h-94l-176 203l-174 -203h-93l191 288h153z" />
    <glyph glyph-name="uni1ED9" unicode="&#x1ed9;" horiz-adv-x="1120" 
d="M560 -26q-138 0 -251.5 71t-181 190.5t-67.5 264.5q0 146 67.5 266t181 191t251.5 71t251.5 -71t181 -191t67.5 -266q0 -145 -67.5 -264.5t-181 -190.5t-251.5 -71zM560 114q102 0 183.5 53.5t129 141.5t47.5 191q0 105 -48 193.5t-129.5 141.5t-182.5 53
q-102 0 -183.5 -53.5t-129 -141.5t-47.5 -193q0 -108 49 -195.5t131 -139t180 -51.5zM561 -394q-34 0 -57.5 22.5t-23.5 56.5t23.5 56.5t57.5 22.5q33 0 56.5 -22.5t23.5 -56.5t-23 -56.5t-57 -22.5zM637 1398l193 -288h-94l-176 203l-174 -203h-93l191 288h153z" />
    <glyph glyph-name="uni1EE4" unicode="&#x1ee4;" horiz-adv-x="1326" 
d="M663 -26q-168 0 -290 82t-187.5 220.5t-65.5 307.5v816h140v-816q0 -128 47 -235t137 -171t219 -64q132 0 221.5 64.5t135.5 171.5t46 234v816h140v-816q0 -169 -65.5 -307.5t-187.5 -220.5t-290 -82zM664 -394q-34 0 -57.5 22.5t-23.5 56.5t23.5 56.5t57.5 22.5
q33 0 56.5 -22.5t23.5 -56.5t-23 -56.5t-57 -22.5z" />
    <glyph glyph-name="uni1EE5" unicode="&#x1ee5;" horiz-adv-x="1032" 
d="M80 383v617h140v-589q0 -82 40 -149t107.5 -107t148.5 -40q82 0 148.5 40t106.5 107t40 149v589h140l1 -1000h-140l-1 140q-53 -76 -137.5 -121t-184.5 -45q-113 0 -206 55t-148 148t-55 206zM530 -393q-34 0 -57.5 22.5t-23.5 56.5t23.5 56.5t57.5 22.5q33 0 56.5 -22.5
t23.5 -56.5t-23 -56.5t-57 -22.5z" />
    <glyph glyph-name="Ygrave" unicode="&#x1ef2;" horiz-adv-x="1203" 
d="M978 1400h165l-472 -766v-634h-140v634l-471 766h165l376 -613zM408 1798h140l80 -288h-93z" />
    <glyph glyph-name="ygrave" unicode="&#x1ef3;" horiz-adv-x="1033" 
d="M805 1000h148l-547 -1500h-149l182 500l-359 1000h153l276 -807zM323 1398h140l80 -288h-93z" />
    <glyph glyph-name="uni1EF4" unicode="&#x1ef4;" horiz-adv-x="1203" 
d="M978 1400h165l-472 -766v-634h-140v634l-471 766h165l376 -613zM602 -394q-34 0 -57.5 22.5t-23.5 56.5t23.5 56.5t57.5 22.5q33 0 56.5 -22.5t23.5 -56.5t-23 -56.5t-57 -22.5z" />
    <glyph glyph-name="uni1EF5" unicode="&#x1ef5;" horiz-adv-x="1033" 
d="M805 1000h148l-547 -1500h-149l182 500l-359 1000h153l276 -807zM709 -394q-34 0 -57.5 22.5t-23.5 56.5t23.5 56.5t57.5 22.5q33 0 56.5 -22.5t23.5 -56.5t-23 -56.5t-57 -22.5z" />
    <glyph glyph-name="uni1EF8" unicode="&#x1ef8;" horiz-adv-x="1203" 
d="M978 1400h165l-472 -766v-634h-140v634l-471 766h165l376 -613zM756 1531q-37 0 -82 23.5t-91 54t-85 51.5t-64 15q-26 -6 -41 -33t-5 -65l-95 -26q-19 57 -4.5 109t55.5 84.5t100 32.5q38 0 83 -22t91 -50.5t85 -50.5t64 -22q34 0 45.5 36.5t1.5 61.5l95 30
q20 -60 4.5 -112t-57 -84.5t-100.5 -32.5z" />
    <glyph glyph-name="uni1EF9" unicode="&#x1ef9;" horiz-adv-x="1033" 
d="M805 1000h148l-547 -1500h-149l182 500l-359 1000h153l276 -807zM671 1131q-37 0 -82 23.5t-91 54t-85 51.5t-64 15q-26 -6 -41 -33t-5 -65l-95 -26q-19 57 -4.5 109t55.5 84.5t100 32.5q38 0 83 -22t91 -50.5t85 -50.5t64 -22q34 0 45.5 36.5t1.5 61.5l95 30
q20 -60 4.5 -112t-57 -84.5t-100.5 -32.5z" />
    <glyph glyph-name="uni2002" unicode="&#x2002;" horiz-adv-x="1000" 
 />
    <glyph glyph-name="uni2009" unicode="&#x2009;" horiz-adv-x="400" 
 />
    <glyph glyph-name="uni200B" unicode="&#x200b;" horiz-adv-x="0" 
 />
    <glyph glyph-name="endash" unicode="&#x2013;" horiz-adv-x="1240" 
d="M120 670h1000v-140h-1000v140z" />
    <glyph glyph-name="emdash" unicode="&#x2014;" horiz-adv-x="2040" 
d="M120 670h1800v-140h-1800v140z" />
    <glyph glyph-name="quoteright" unicode="&#x2019;" horiz-adv-x="302" 
d="M40 878l62 522h140l-109 -522h-93z" />
    <glyph glyph-name="quoteright" unicode="&#x2032;" horiz-adv-x="302" 
d="M40 878l62 522h140l-109 -522h-93z" />
    <glyph glyph-name="quotesinglbase" unicode="&#x201a;" horiz-adv-x="335" 
d="M53 -112l62 338h140l-109 -338h-93z" />
    <glyph glyph-name="quotedblleft" unicode="&#x201c;" horiz-adv-x="648" 
d="M120 878l109 522h93l-62 -522h-140zM406 882l109 522h93l-62 -522h-140z" />
    <glyph glyph-name="quotedblright" unicode="&#x201d;" horiz-adv-x="648" 
d="M40 878l62 522h140l-109 -522h-93zM326 878l62 522h140l-109 -522h-93z" />
    <glyph glyph-name="quotedblright" unicode="&#x2033;" horiz-adv-x="648" 
d="M40 878l62 522h140l-109 -522h-93zM326 878l62 522h140l-109 -522h-93z" />
    <glyph glyph-name="quotedblbase" unicode="&#x201e;" horiz-adv-x="609" 
d="M53 -112l62 338h140l-109 -338h-93zM327 -112l62 338h140l-109 -338h-93z" />
    <glyph glyph-name="dagger" unicode="&#x2020;" horiz-adv-x="789" 
d="M80 1093v140h245v267h140v-267h244v-140h-244v-506h-140v506h-245z" />
    <glyph glyph-name="daggerdbl" unicode="&#x2021;" horiz-adv-x="789" 
d="M80 782v138h245v207h-245v140h245v233h140v-233h244v-140h-244v-207h244v-138h-244v-222h-140v222h-245z" />
    <glyph glyph-name="bullet" unicode="&#x2022;" horiz-adv-x="373" 
d="M185 493q-43 0 -74 31t-31 77q0 44 31 75t74 31q46 0 77 -31t31 -75q0 -46 -31 -77t-77 -31z" />
    <glyph glyph-name="ellipsis" unicode="&#x2026;" horiz-adv-x="1027" 
d="M159 -26q-33 0 -56 23.5t-23 57.5q0 32 23 55.5t56 23.5q34 0 57.5 -23.5t23.5 -55.5q0 -34 -23.5 -57.5t-57.5 -23.5zM492 -26q-33 0 -56 23.5t-23 57.5q0 32 23 55.5t56 23.5q34 0 57.5 -23.5t23.5 -55.5q0 -34 -23.5 -57.5t-57.5 -23.5zM826 -26q-33 0 -56 23.5
t-23 57.5q0 32 23 55.5t56 23.5q34 0 57.5 -23.5t23.5 -55.5q0 -34 -23.5 -57.5t-57.5 -23.5z" />
    <glyph glyph-name="perthousand" unicode="&#x2030;" horiz-adv-x="1795" 
d="M155 0l808 1400h162l-808 -1400h-162zM319 853q-66 0 -120 32t-86.5 86.5t-32.5 120.5q0 68 32.5 122t87 86t119.5 32q66 0 120 -32.5t86.5 -87t32.5 -120.5q0 -67 -32.5 -121t-87 -86t-119.5 -32zM319 960q56 0 94 38.5t38 93.5q0 56 -38 94.5t-94 38.5
q-55 0 -93.5 -38.5t-38.5 -94.5q0 -55 38.5 -93.5t93.5 -38.5zM923 67q-66 0 -120.5 33.5t-87 88t-32.5 118.5q0 67 33 121.5t87.5 86.5t119.5 32q67 0 121 -33t86 -87.5t32 -119.5q0 -66 -32 -120.5t-86.5 -87t-120.5 -32.5zM1476 67q-66 0 -120.5 33.5t-87 88t-32.5 118.5
q0 67 33 121.5t88 86.5t119 32q68 0 122 -33t85.5 -87.5t31.5 -119.5q0 -66 -32 -120.5t-86.5 -87t-120.5 -32.5zM923 174q54 0 93 39t39 94t-39 94t-93 39q-55 0 -94.5 -39t-39.5 -94t39.5 -94t94.5 -39zM1476 174q55 0 94 39t39 94t-39 94t-94 39t-94 -39t-39 -94t39 -94
t94 -39z" />
    <glyph glyph-name="uni2035" unicode="&#x2035;" horiz-adv-x="442" 
d="M229 878l-109 522h140l62 -522h-93z" />
    <glyph glyph-name="guilsinglleft" unicode="&#x2039;" horiz-adv-x="673" 
d="M420 261l-300 340l300 338h153l-299 -338l299 -340h-153z" />
    <glyph glyph-name="guilsinglright" unicode="&#x203a;" horiz-adv-x="673" 
d="M100 261l299 340l-299 338h153l300 -338l-300 -340h-153z" />
    <glyph glyph-name="fraction" unicode="&#x2044;" horiz-adv-x="450" 
d="M-243 0l808 1400h128l-808 -1400h-128z" />
    <glyph glyph-name="fraction" unicode="&#x2215;" horiz-adv-x="450" 
d="M-243 0l808 1400h128l-808 -1400h-128z" />
    <glyph glyph-name="uni2070" unicode="&#x2070;" horiz-adv-x="648" 
d="M324 798q-69 0 -126.5 43.5t-91.5 119.5t-34 172t34 171.5t91.5 119.5t126.5 44q70 0 127 -44t91 -119.5t34 -171.5t-34 -172t-91 -119.5t-127 -43.5zM324 898q46 0 79 36.5t51 91t18 107.5q0 58 -18.5 112t-52 88.5t-77.5 34.5q-46 0 -79.5 -36t-51 -90t-17.5 -109
q0 -58 18.5 -112t52 -88.5t77.5 -34.5z" />
    <glyph glyph-name="uni2074" unicode="&#x2074;" horiz-adv-x="681" 
d="M363 818v121h-267v125l244 385h127v-406h70v-104h-70v-121h-104zM202 1043h167v264z" />
    <glyph glyph-name="uni2075" unicode="&#x2075;" horiz-adv-x="682" 
d="M311 798q-94 0 -160.5 60.5t-66.5 154.5h104q0 -50 36 -82.5t87 -32.5q50 0 86.5 32.5t36.5 82.5t-36.5 85t-86.5 36q-45 1 -88 -4.5t-100 -20.5l31 340h345v-96h-251l-8 -120q130 14 214 -45t84 -175q0 -94 -66.5 -154.5t-160.5 -60.5z" />
    <glyph glyph-name="uni2076" unicode="&#x2076;" horiz-adv-x="706" 
d="M329 798q-101 0 -167 63.5t-66 157.5q0 29 8 57t29.5 70.5t63.5 113.5t109 186h121l-116 -201q70 6 127 -24t90.5 -84t33.5 -119q0 -100 -70 -160t-163 -60zM329 898q55 0 92.5 35.5t35.5 90.5q-1 56 -41 89.5t-87 33.5q-57 0 -93.5 -40.5t-34.5 -94.5q2 -53 40 -83.5
t88 -30.5z" />
    <glyph glyph-name="uni2077" unicode="&#x2077;" horiz-adv-x="637" 
d="M143 818l301 526h-324v104h445v-102l-302 -528h-120z" />
    <glyph glyph-name="uni2078" unicode="&#x2078;" horiz-adv-x="607" 
d="M302 798q-85 0 -145.5 54t-60.5 140q0 49 21 89.5t55 68.5q-28 26 -44.5 61.5t-16.5 74.5q0 81 56 132t135 51q80 0 137 -51t57 -132q0 -39 -16.5 -74.5t-44.5 -61.5q35 -28 55.5 -68.5t20.5 -89.5q0 -86 -61 -140t-148 -54zM302 1199q38 0 64 26t26 61q0 38 -26 60
t-64 22q-35 0 -61 -22t-26 -60q0 -35 26 -61t61 -26zM302 897q44 0 74.5 26.5t30.5 68.5q0 43 -30.5 73t-74.5 30q-41 0 -71.5 -30t-30.5 -73q0 -42 30.5 -68.5t71.5 -26.5z" />
    <glyph glyph-name="uni2079" unicode="&#x2079;" horiz-adv-x="659" 
d="M205 818l118 204q-63 -9 -116 15t-87.5 70t-43 103t16.5 114q22 70 81.5 107t131.5 37q81 0 140 -44.5t80.5 -113t-9.5 -140.5q-1 -20 -13 -45l-179 -307h-120zM306 1118q60 0 98.5 48t26.5 109q-10 47 -47.5 70t-77.5 23q-62 0 -100 -44.5t-26 -104.5q11 -50 49 -75.5
t77 -25.5z" />
    <glyph glyph-name="uni2080" unicode="&#x2080;" horiz-adv-x="648" 
d="M324 -31q-69 0 -126.5 44t-91.5 120.5t-34 172.5t34 172.5t91.5 121.5t126.5 45q70 0 127 -45t91 -121.5t34 -172.5t-34 -172.5t-91 -120.5t-127 -44zM324 73q46 0 79 36t51 90t18 107q0 58 -18.5 112t-52 88.5t-77.5 34.5q-46 0 -79.5 -36t-51 -90t-17.5 -109
q0 -57 18.5 -110.5t52 -88t77.5 -34.5z" />
    <glyph glyph-name="uni2081" unicode="&#x2081;" horiz-adv-x="423" 
d="M175 0v527h-79l15 104h168v-631h-104z" />
    <glyph glyph-name="uni2082" unicode="&#x2082;" horiz-adv-x="689" 
d="M96 0v98q39 26 93.5 65t109 85t94 94.5t48.5 94.5q0 50 -34.5 81.5t-84.5 31.5t-86 -31.5t-36 -81.5h-104q0 92 66 154.5t160 62.5q92 0 157.5 -62.5t65.5 -154.5q0 -57 -43 -118.5t-104.5 -117.5t-117.5 -97h261v-104h-445z" />
    <glyph glyph-name="uni2083" unicode="&#x2083;" horiz-adv-x="556" 
d="M279 -31q-85 0 -146 57t-61 142h104q0 -43 30 -69t73 -26q42 0 71.5 26t29.5 69q0 49 -37.5 81t-107.5 32v83q65 0 96 27.5t31 70.5q0 35 -26.5 57t-61.5 22t-61 -22t-26 -57h-104q0 79 56 131t135 52q80 0 136 -52t56 -131q0 -43 -17.5 -80t-42.5 -56q39 -33 58.5 -69
t19.5 -89q0 -85 -60.5 -142t-144.5 -57z" />
    <glyph glyph-name="uni2084" unicode="&#x2084;" horiz-adv-x="681" 
d="M363 0v121h-267v126l244 384h127v-406h70v-104h-70v-121h-104zM202 225h167v264z" />
    <glyph glyph-name="uni2085" unicode="&#x2085;" horiz-adv-x="682" 
d="M311 -31q-94 0 -160.5 62t-66.5 156h104q0 -50 36 -82t87 -32q50 0 86.5 32t36.5 82t-36.5 85.5t-86.5 35.5l-189 -23l32 337h345v-97h-251l-8 -118l72 5q100 0 163 -65.5t63 -159.5t-66.5 -156t-160.5 -62z" />
    <glyph glyph-name="uni2086" unicode="&#x2086;" horiz-adv-x="682" 
d="M329 -31q-101 0 -167 65.5t-66 159.5q0 29 8 57t30 70.5t64 114t109 186.5h121l-117 -203q70 7 127 -23.5t90.5 -84t33.5 -118.5q0 -100 -70 -162t-163 -62zM329 73q55 0 92.5 35.5t35.5 90.5q-1 56 -41 89t-87 33q-57 0 -93.5 -40.5t-34.5 -94.5q2 -52 40 -82.5
t88 -30.5z" />
    <glyph glyph-name="uni2087" unicode="&#x2087;" horiz-adv-x="637" 
d="M140 0l304 527h-324v104h445v-102l-305 -529h-120z" />
    <glyph glyph-name="uni2088" unicode="&#x2088;" horiz-adv-x="607" 
d="M302 -31q-85 0 -145.5 56t-60.5 141q0 49 21 90t55 69q-28 25 -44.5 60.5t-16.5 75.5q0 81 56 133t135 52q80 0 137 -52t57 -133q0 -40 -16.5 -75.5t-44.5 -60.5q35 -28 55.5 -69t20.5 -90q0 -85 -61 -141t-148 -56zM302 373q38 0 64 26.5t26 61.5q0 37 -26 59t-64 22
q-35 0 -61 -22t-26 -59q0 -35 26 -61.5t61 -26.5zM302 72q44 0 74.5 26t30.5 68q0 43 -30.5 73t-74.5 30q-41 0 -71.5 -30t-30.5 -73q0 -42 30.5 -68t71.5 -26z" />
    <glyph glyph-name="uni2089" unicode="&#x2089;" horiz-adv-x="659" 
d="M205 0l118 204q-63 -9 -116 15t-87.5 70.5t-43 103.5t16.5 114q22 70 81.5 108.5t131.5 38.5q66 0 118.5 -31t82.5 -81t32 -110t-32 -118l-182 -314h-120zM306 301q60 0 98.5 47.5t26.5 108.5q-10 47 -47.5 70t-77.5 23q-62 0 -100 -44.5t-26 -103.5q11 -51 49 -76
t77 -25z" />
    <glyph glyph-name="Euro" unicode="&#x20ac;" horiz-adv-x="1167" 
d="M1087 -15q-136 -25 -263 3.5t-233.5 101.5t-182 181.5t-108.5 242.5h-220v107h201v157h-201v107h220q34 136 110.5 245t183.5 181.5t233 101t260 3.5v-143q-145 32 -274.5 -11t-224.5 -142t-138 -235h331v-107h-358v-157h358v-107h-330q43 -139 139.5 -237t225.5 -139
t271 -9v-144z" />
    <glyph glyph-name="trademark" unicode="&#x2122;" horiz-adv-x="2928" 
d="M1179 1400v-140h-480v-1260h-140v1260h-479v140h1099zM1279 0l271 1400h102l392 -1030l390 1030h102l272 -1400h-143l-207 1071l-370 -979h-90l-370 979l-207 -1071h-142z" />
    <glyph glyph-name="oneeighth" unicode="&#x215b;" horiz-adv-x="1480" 
d="M175 818v527h-79l15 104h168v-631h-104zM180 0l808 1400h128l-808 -1400h-128zM1175 -31q-85 0 -145.5 56t-60.5 141q0 49 21 90t55 69q-28 25 -44.5 60.5t-16.5 75.5q0 81 56 133t135 52q80 0 137 -52t57 -133q0 -40 -16.5 -75.5t-44.5 -60.5q35 -28 55.5 -69t20.5 -90
q0 -85 -61 -141t-148 -56zM1175 373q38 0 64 26.5t26 61.5q0 37 -26 59t-64 22q-35 0 -61 -22t-26 -59q0 -35 26 -61.5t61 -26.5zM1175 72q44 0 74.5 26t30.5 68q0 43 -30.5 73t-74.5 30q-41 0 -71.5 -30t-30.5 -73q0 -42 30.5 -68t71.5 -26z" />
    <glyph glyph-name="threeeighths" unicode="&#x215c;" horiz-adv-x="1613" 
d="M279 798q-85 0 -146 55t-61 141h104q0 -43 30 -69.5t73 -26.5q42 0 71.5 26.5t29.5 69.5q0 49 -37.5 81t-107.5 32v83q65 0 96 27t31 70q0 35 -26.5 57.5t-61.5 22.5t-61 -22.5t-26 -57.5h-104q0 80 56 130t135 50q80 0 136 -50t56 -130q0 -42 -17.5 -79.5t-42.5 -56.5
q39 -32 58.5 -68t19.5 -89q0 -86 -60.5 -141t-144.5 -55zM313 0l808 1400h128l-808 -1400h-128zM1308 -31q-85 0 -145.5 56t-60.5 141q0 49 21 90t55 69q-28 25 -44.5 60.5t-16.5 75.5q0 81 56 133t135 52q80 0 137 -52t57 -133q0 -40 -16.5 -75.5t-44.5 -60.5
q35 -28 55.5 -69t20.5 -90q0 -85 -61 -141t-148 -56zM1308 373q38 0 64 26.5t26 61.5q0 37 -26 59t-64 22q-35 0 -61 -22t-26 -59q0 -35 26 -61.5t61 -26.5zM1308 72q44 0 74.5 26t30.5 68q0 43 -30.5 73t-74.5 30q-41 0 -71.5 -30t-30.5 -73q0 -42 30.5 -68t71.5 -26z" />
    <glyph glyph-name="fiveeighths" unicode="&#x215d;" horiz-adv-x="1739" 
d="M311 798q-94 0 -160.5 60.5t-66.5 154.5h104q0 -50 36 -82.5t87 -32.5q50 0 86.5 32.5t36.5 82.5t-36.5 85t-86.5 36q-45 1 -88 -4.5t-100 -20.5l31 340h345v-96h-251l-8 -120q130 14 214 -45t84 -175q0 -94 -66.5 -154.5t-160.5 -60.5zM439 0l808 1400h128l-808 -1400
h-128zM1434 -31q-85 0 -145.5 56t-60.5 141q0 49 21 90t55 69q-28 25 -44.5 60.5t-16.5 75.5q0 81 56 133t135 52q80 0 137 -52t57 -133q0 -40 -16.5 -75.5t-44.5 -60.5q35 -28 55.5 -69t20.5 -90q0 -85 -61 -141t-148 -56zM1434 373q38 0 64 26.5t26 61.5q0 37 -26 59
t-64 22q-35 0 -61 -22t-26 -59q0 -35 26 -61.5t61 -26.5zM1434 72q44 0 74.5 26t30.5 68q0 43 -30.5 73t-74.5 30q-41 0 -71.5 -30t-30.5 -73q0 -42 30.5 -68t71.5 -26z" />
    <glyph glyph-name="seveneighths" unicode="&#x215e;" horiz-adv-x="1694" 
d="M143 818l301 526h-324v104h445v-102l-302 -528h-120zM394 0l808 1400h128l-808 -1400h-128zM1389 -31q-85 0 -145.5 56t-60.5 141q0 49 21 90t55 69q-28 25 -44.5 60.5t-16.5 75.5q0 81 56 133t135 52q80 0 137 -52t57 -133q0 -40 -16.5 -75.5t-44.5 -60.5
q35 -28 55.5 -69t20.5 -90q0 -85 -61 -141t-148 -56zM1389 373q38 0 64 26.5t26 61.5q0 37 -26 59t-64 22q-35 0 -61 -22t-26 -59q0 -35 26 -61.5t61 -26.5zM1389 72q44 0 74.5 26t30.5 68q0 43 -30.5 73t-74.5 30q-41 0 -71.5 -30t-30.5 -73q0 -42 30.5 -68t71.5 -26z" />
    <glyph glyph-name="arrowleft" unicode="&#x2190;" horiz-adv-x="1370" 
d="M575 255l-495 495l495 495l98 -99l-326 -326h943v-140h-943l326 -326z" />
    <glyph glyph-name="arrowup" unicode="&#x2191;" horiz-adv-x="1151" 
d="M506 144v944l-326 -327l-100 100l496 495l495 -495l-99 -100l-326 327v-944h-140z" />
    <glyph glyph-name="arrowright" unicode="&#x2192;" horiz-adv-x="1371" 
d="M795 255l-99 99l325 326h-941v140h941l-325 326l99 99l496 -495z" />
    <glyph glyph-name="arrowdown" unicode="&#x2193;" horiz-adv-x="1150" 
d="M574 145l-494 495l99 99l325 -326v942h140v-942l327 326l99 -99z" />
    <glyph glyph-name="arrowboth" unicode="&#x2194;" horiz-adv-x="1684" 
d="M575 255l-495 495l495 495l98 -99l-326 -326h988l-326 326l99 99l496 -495l-496 -495l-99 99l326 326h-988l326 -326z" />
    <glyph glyph-name="arrowupdn" unicode="&#x2195;" horiz-adv-x="1151" 
d="M575 -13l-495 496l99 100l326 -328v990l-326 -327l-99 100l495 495l496 -495l-100 -100l-326 327v-990l326 328l100 -100z" />
    <glyph glyph-name="uni2196" unicode="&#x2196;" horiz-adv-x="1066" 
d="M887 298l-667 666v-462h-140v700h700v-140h-460l666 -666z" />
    <glyph glyph-name="uni2197" unicode="&#x2197;" horiz-adv-x="1065" 
d="M179 298l-99 99l666 665h-462v140h701v-700h-140v461z" />
    <glyph glyph-name="uni2198" unicode="&#x2198;" horiz-adv-x="1065" 
d="M285 298v140h461l-666 665l99 99l666 -665v461h140v-700h-700z" />
    <glyph glyph-name="uni2199" unicode="&#x2199;" horiz-adv-x="1065" 
d="M80 298v700h140v-461l666 665l99 -99l-666 -665h461v-140h-700z" />
    <glyph glyph-name="partialdiff" unicode="&#x2202;" horiz-adv-x="1165" 
d="M583 -26q-138 0 -252.5 68t-182.5 182t-68 252q0 139 68 253t182.5 182t252.5 68q95 0 175.5 -42t132.5 -113q-23 99 -68.5 194.5t-113 172.5t-157 122.5t-199.5 45.5v140q158 0 291 -77.5t231.5 -213.5t153.5 -313t56 -376q0 -160 -64 -283t-177 -192.5t-261 -69.5z
M583 114q102 0 184.5 50t130.5 132.5t48 179.5q0 100 -48.5 182t-131 131.5t-183.5 49.5q-102 0 -184 -50t-130.5 -132.5t-48.5 -180.5t48.5 -180.5t131 -132t183.5 -49.5z" />
    <glyph glyph-name="emptyset" unicode="&#x2205;" horiz-adv-x="1160" 
d="M328 -55l-104 60l49 83q-88 72 -140.5 179.5t-52.5 232.5q0 146 67.5 266t181 191t251.5 71q112 0 206 -48l47 79l104 -60l-48 -84q87 -72 139 -179.5t52 -235.5q0 -145 -67.5 -264.5t-181 -190.5t-251.5 -71q-55 0 -107.5 13.5t-99.5 35.5zM342 208l379 658
q-90 41 -180 28t-164.5 -68t-119.5 -141t-45 -191q0 -88 35.5 -162t94.5 -124zM439 137q93 -41 183.5 -28t164 68t117.5 140.5t44 188.5q0 88 -35 163t-94 126z" />
    <glyph glyph-name="product" unicode="&#x220f;" horiz-adv-x="1280" 
d="M80 1400h1120v-140h-190v-1260h-140v1260h-460v-1260h-140v1260h-190v140z" />
    <glyph glyph-name="summation" unicode="&#x2211;" horiz-adv-x="955" 
d="M80 0v140l285 558l-285 558v140h815v-140h-657l285 -558l-285 -558h657v-140h-815z" />
    <glyph glyph-name="minus" unicode="&#x2212;" horiz-adv-x="1160" 
d="M80 530v140h1000v-140h-1000z" />
    <glyph glyph-name="radical" unicode="&#x221a;" horiz-adv-x="1286" 
d="M869 1400h337v-140h-239l-461 -1260h-168l-258 708h149l194 -529z" />
    <glyph glyph-name="infinity" unicode="&#x221e;" horiz-adv-x="1472" 
d="M386 303q-139 15 -222.5 107t-83.5 216q0 87 39.5 158.5t108.5 116t158 48.5q77 0 132.5 -23.5t106.5 -71t112 -121.5q87 107 161 161.5t171 54.5q155 -7 239 -100t84 -223q0 -86 -39 -157.5t-107.5 -115.5t-157.5 -50q-75 0 -130 21.5t-106 69t-115 124.5
q-63 -75 -114 -123.5t-106 -71t-131 -20.5zM1085 433q78 8 128 63.5t50 129.5q0 77 -50.5 131.5t-137.5 61.5q-51 0 -89.5 -21.5t-77 -64.5t-91.5 -107q62 -74 102 -116t77 -59.5t89 -17.5zM387 433q58 0 98.5 21.5t79 64.5t90.5 107q-55 68 -93.5 110.5t-78 62.5t-96.5 19
q-78 -7 -127.5 -63t-49.5 -129q0 -79 52 -132t125 -61z" />
    <glyph glyph-name="integral" unicode="&#x222b;" horiz-adv-x="878" 
d="M267 -26q-82 1 -137.5 60.5t-48.5 144.5l101 -8q-1 -31 13.5 -52.5t45.5 -25.5q30 -2 52 16t26 48l101 1114q10 71 68.5 114t126.5 41q81 -3 135.5 -64.5t46.5 -141.5l-94 9q-1 38 -22.5 58t-51.5 19q-29 2 -49.5 -18.5t-22.5 -47.5l-100 -1110q-14 -80 -65.5 -117.5
t-124.5 -38.5z" />
    <glyph glyph-name="approxequal" unicode="&#x2248;" horiz-adv-x="1224" 
d="M857 721q-63 0 -137 33t-149 76.5t-142.5 76.5t-117.5 33q-67 1 -104 -52t-24 -119l-136 -7q-18 78 12.5 149.5t94.5 117.5t147 46q61 0 130 -33.5t139.5 -77.5t137 -77.5t121.5 -33.5q68 0 106.5 52t23.5 117l137 9q20 -81 -8 -151.5t-89 -114.5t-142 -44zM857 173
q-63 0 -137 33t-149 76.5t-142.5 76.5t-117.5 33q-67 1 -104 -52t-24 -119l-136 -7q-18 78 12.5 149.5t94.5 117.5t147 46q61 0 130 -33.5t139.5 -77.5t137 -77.5t121.5 -33.5q68 0 106.5 52t23.5 117l137 9q20 -81 -8 -151.5t-89 -114.5t-142 -44z" />
    <glyph glyph-name="notequal" unicode="&#x2260;" horiz-adv-x="1160" 
d="M822 1182l-90 -310h348v-140h-389l-77 -264h466v-140h-507l-92 -310h-145l91 310h-347v140h387l78 264h-465v140h507l90 310h145z" />
    <glyph glyph-name="lessequal" unicode="&#x2264;" horiz-adv-x="1160" 
d="M1080 341l-1000 284v230l1000 286v-146l-893 -254l893 -254v-146zM80 0v140h1000v-140h-1000z" />
    <glyph glyph-name="greaterequal" unicode="&#x2265;" horiz-adv-x="1160" 
d="M80 349v146l893 250l-893 250v146l1000 -282v-230zM80 0v140h1000v-140h-1000z" />
    <glyph glyph-name="lozenge" unicode="&#x25ca;" horiz-adv-x="864" 
d="M328 0l-268 702l266 698h212l266 -698l-268 -702h-208zM432 134l226 568l-226 568l-224 -568z" />
    <glyph glyph-name="uniFFFD" unicode="&#xfffd;" horiz-adv-x="1630" 
d="M816 -26q-54 0 -106 20t-94 62l-414 414q-42 42 -62 94t-20 106t21 106t61 92l414 414q42 42 94 62t106 20t105 -20t93 -62l414 -414q42 -42 62 -93t20 -105t-20 -106t-62 -94l-414 -414q-40 -40 -92 -61t-106 -21zM766 517h107v2q0 52 47 78q52 29 83 81t31 115
q0 61 -30 111t-80 79.5t-111 29.5q-92 0 -157 -64t-65 -156h107q0 48 33.5 81t81.5 33q47 0 80.5 -33t33.5 -81q0 -73 -57 -102q-49 -25 -76.5 -71.5t-27.5 -100.5v-2zM823 310q23 0 38 16t15 38t-15 37.5t-38 15.5q-22 0 -38 -15.5t-16 -37.5t16 -38t38 -16z" />
    <glyph glyph-name="uni004A0301" horiz-adv-x="803" 
d="M290 -26q-68 0 -132.5 22.5t-117.5 68.5l89 108q32 -27 73 -43t88 -16q70 0 127 37.5t91.5 98t34.5 129.5v1021h140v-1021q0 -108 -53 -200t-142 -148.5t-198 -56.5zM579 1510l80 288h140l-126 -288h-94z" />
    <glyph glyph-name="uni013B.loclMAH" horiz-adv-x="1003" 
d="M120 0v1400h140v-1260h643v-140h-783zM380 -441l62 338h140l-109 -338h-93z" />
    <glyph glyph-name="uni0145.loclMAH" horiz-adv-x="1271" 
d="M120 0v1400h152l739 -1147v1147h140v-1400h-151l-740 1147v-1147h-140zM503 -441l62 338h140l-109 -338h-93z" />
    <glyph glyph-name="i.loclTRK" horiz-adv-x="380" 
d="M120 1000h140v-1000h-140v1000zM191 1175q-34 0 -57.5 22.5t-23.5 56.5t23.5 56.5t57.5 22.5q33 0 56.5 -22.5t23.5 -56.5t-23 -56.5t-57 -22.5z" />
    <glyph glyph-name="uni006A0301" horiz-adv-x="441" 
d="M-80 -500v140q112 0 186.5 72.5t74.5 179.5v1108h140v-1108q0 -108 -52.5 -197t-143 -142t-205.5 -53zM217 1110l80 288h140l-126 -288h-94z" />
    <glyph glyph-name="uni013C.loclMAH" horiz-adv-x="380" 
d="M120 0v1500h140v-1500h-140zM58 -441l62 338h140l-109 -338h-93z" />
    <glyph glyph-name="uni0146.loclMAH" 
d="M992 619v-619h-140v591q0 82 -40 149t-107 107t-149 40q-81 0 -148.5 -40t-107.5 -107t-40 -149v-591h-140v1000h140v-138q53 76 138 121t185 45q113 0 206 -55t148 -148t55 -206zM424 -441l62 338h140l-109 -338h-93z" />
    <glyph glyph-name="uni030C.alt" horiz-adv-x="0" 
d="M293 1110l80 288h140l-126 -288h-94z" />
    <glyph glyph-name="uni0326.loclMAH" horiz-adv-x="0" 
d="M400 -441l62 338h140l-109 -338h-93z" />
    </font>
</defs>
</svg>
