<?xml version="1.0" standalone="no"?>
<!DOCTYPE svg PUBLIC "-//W3C//DTD SVG 1.1//EN" "http://www.w3.org/Graphics/SVG/1.1/DTD/svg11.dtd" >
<svg xmlns="http://www.w3.org/2000/svg" xmlns:xlink="http://www.w3.org/1999/xlink" version="1.1">
<metadata>
Created by FontForge 20170731 at Wed Oct 27 17:11:03 2021
 By Aleksey,,,
Copyright 2021 The Urbanist Project Authors (https://github.com/coreyhu/Urbanist)
</metadata>
<defs>
<font id="Urbanist-SemiBoldItalic" horiz-adv-x="448" >
  <font-face 
    font-family="Urbanist SemiBold"
    font-weight="600"
    font-style="italic"
    font-stretch="normal"
    units-per-em="2000"
    panose-1="0 0 0 0 0 0 0 0 0 0"
    ascent="1600"
    descent="-400"
    x-height="1000"
    cap-height="1400"
    bbox="-365 -500 2776 2056"
    underline-thickness="50"
    underline-position="-175"
    slope="-8"
    unicode-range="U+000D-FFFD"
  />
<missing-glyph horiz-adv-x="1000" 
d="M100 -500v2400h800v-2400h-800zM200 -400h600v2200h-600v-2200z" />
    <glyph glyph-name=".notdef" horiz-adv-x="1000" 
d="M100 -500v2400h800v-2400h-800zM200 -400h600v2200h-600v-2200z" />
    <glyph glyph-name=".null" horiz-adv-x="1200" 
 />
    <glyph glyph-name=".null" horiz-adv-x="1200" 
 />
    <glyph glyph-name="nonmarkingreturn" unicode="&#xd;" horiz-adv-x="1200" 
 />
    <glyph glyph-name="nonmarkingreturn" unicode="&#xfeff;" horiz-adv-x="1200" 
 />
    <glyph glyph-name="space" unicode=" " horiz-adv-x="480" 
 />
    <glyph glyph-name="exclam" unicode="!" horiz-adv-x="418" 
d="M62 420l137 980h177l-137 -980h-177zM88 -26q-46 0 -73.5 32t-21.5 79q7 45 43.5 77t82.5 32q45 0 72 -32t20 -77q-6 -47 -42 -79t-81 -32z" />
    <glyph glyph-name="quotedbl" unicode="&#x22;" horiz-adv-x="565" 
d="M92 878l73 522h147l-73 -522h-147zM375 878l73 522h147l-73 -522h-147z" />
    <glyph glyph-name="numbersign" unicode="#" horiz-adv-x="1552" 
d="M1445 895h-179l-160 -389h181l-84 -202h-178l-125 -304h-208l125 304h-406l-123 -304h-208l123 304h-179l83 202h179l160 389h-181l83 201h180l123 304h208l-123 -304h405l122 304h208l-122 -304h179zM898 506l160 389h-404l-160 -389h404z" />
    <glyph glyph-name="dollar" unicode="$" horiz-adv-x="1199" 
d="M671 1214q-79 0 -153 -26t-124 -72.5t-59 -106.5q-10 -75 25.5 -114t102.5 -58t150 -33q135 -22 245.5 -73t170.5 -135.5t42 -207.5q-16 -113 -88 -200.5t-180.5 -141t-231.5 -67.5l-28 -203h-147l29 203q-149 15 -263 92.5t-142 202.5l206 73q15 -72 101.5 -118.5
t198.5 -46.5q80 0 154 25.5t124 72t59 108.5q9 64 -30.5 105t-107 65t-141.5 36q-143 24 -253 70.5t-166.5 129t-37.5 215.5q16 113 88.5 201t180.5 141.5t231 66.5l29 206h147l-29 -206q97 -10 182 -48t144 -101t78 -148l-206 -71q-16 72 -102 118t-199 46z" />
    <glyph glyph-name="percent" unicode="%" horiz-adv-x="1430" 
d="M92 0l1004 1400h240l-1004 -1400h-240zM375 813q-76 0 -134.5 37.5t-87.5 100.5t-18 141q11 80 58.5 143t116.5 99.5t144 36.5q76 0 134 -37.5t87 -100.5t18 -141q-11 -79 -58.5 -142t-116 -100t-143.5 -37zM396 960q55 0 99 38.5t51 93.5q8 56 -25 94.5t-88 38.5
t-99.5 -38.5t-51.5 -94.5q-8 -55 25.5 -93.5t88.5 -38.5zM976 27q-78 0 -136 39.5t-86 103t-18 137.5q11 78 58.5 141.5t116.5 101t143 37.5q80 0 138 -39t85.5 -103t17.5 -138q-11 -77 -57.5 -140.5t-115.5 -101.5t-146 -38zM997 174q54 0 99 39t52 94q8 55 -26 94t-88 39
q-55 0 -99.5 -39t-52.5 -94q-7 -55 26.5 -94t88.5 -39z" />
    <glyph glyph-name="ampersand" unicode="&#x26;" horiz-adv-x="1426" 
d="M400 -26q-122 0 -209 59t-128 155.5t-26 208.5q9 64 28.5 112t56.5 94t98.5 103t154.5 139q-52 62 -80.5 105t-37 84t-0.5 97q12 88 64 157.5t127 110t157 40.5q85 0 149 -41.5t96 -111t20 -155.5q-8 -58 -29 -99.5t-62 -84t-109 -102.5l258 -302l276 241l-41 -294
l-109 -95l214 -248l-167 -147l-213 247q-95 -83 -160 -136.5t-115.5 -83t-100 -41.5t-112.5 -12zM539 963q58 50 88 76t42.5 45.5t16.5 50.5q8 55 -25.5 88.5t-80.5 33.5q-50 0 -91 -36t-48 -86q-4 -31 3.5 -52t30.5 -47t64 -73zM429 182q53 0 91.5 18t91.5 64t149 132
l-259 302q-76 -66 -123.5 -107.5t-74.5 -71t-40 -57.5t-18 -67q-13 -92 42 -152.5t141 -60.5z" />
    <glyph glyph-name="quotesingle" unicode="'" horiz-adv-x="282" 
d="M92 878l73 522h147l-73 -522h-147z" />
    <glyph glyph-name="parenleft" unicode="(" horiz-adv-x="718" 
d="M296 -112q-133 148 -174.5 338t-9.5 418q13 94 49.5 208t90.5 225t119.5 197.5t136.5 125.5h208q-62 -45 -125 -130.5t-119 -193t-96 -220t-56 -212.5q-20 -157 1 -297.5t70 -257t113 -201.5h-208z" />
    <glyph glyph-name="parenright" unicode=")" horiz-adv-x="718" 
d="M-14 -112q88 85 169.5 201.5t142 257t84.5 297.5q13 100 4.5 212.5t-34 220t-65 193t-89.5 130.5h208q61 -39 102.5 -125.5t64 -197.5t27 -225t-9.5 -208q-32 -228 -126.5 -418t-269.5 -338h-208z" />
    <glyph glyph-name="asterisk" unicode="*" horiz-adv-x="717" 
d="M254 842l-106 86l129 149l-166 56l63 140l169 -56l25 183h147l-26 -183l183 56l26 -140l-184 -56l88 -149l-131 -86l-86 149z" />
    <glyph glyph-name="plus" unicode="+" horiz-adv-x="1160" 
d="M392 100l55 396h-396l30 208h396l55 396h208l-55 -396h396l-30 -208h-396l-55 -396h-208z" />
    <glyph glyph-name="comma" unicode="," horiz-adv-x="470" 
d="M-34 -112l109 338h208l-179 -338h-138z" />
    <glyph glyph-name="hyphen" unicode="-" horiz-adv-x="880" 
d="M121 704h640l-30 -208h-640z" />
    <glyph glyph-name="period" unicode="." horiz-adv-x="420" 
d="M87 -26q-46 0 -73 32t-21 78q7 45 43.5 77.5t81.5 32.5q46 0 74 -32.5t21 -77.5q-7 -46 -43.5 -78t-82.5 -32z" />
    <glyph glyph-name="slash" unicode="/" horiz-adv-x="773" 
d="M791 1400l-617 -1512h-208l617 1512h208z" />
    <glyph glyph-name="zero" unicode="0" horiz-adv-x="1203" 
d="M501 -26q-124 0 -216 56.5t-149 156.5t-77 231.5t1 281.5t78 281.5t142.5 231.5t193 156.5t231.5 56.5q122 0 213.5 -56.5t148.5 -156.5t76.5 -231.5t-1.5 -281.5t-77.5 -281.5t-141.5 -231.5t-192.5 -156.5t-229.5 -56.5zM529 182q116 0 203 72.5t141.5 190.5t73.5 255
q20 144 -3 261.5t-90 187t-179 69.5q-117 0 -204.5 -73t-141.5 -191t-74 -254q-19 -137 3.5 -255t89 -190.5t181.5 -72.5z" />
    <glyph glyph-name="one" unicode="1" horiz-adv-x="615" 
d="M149 0l167 1192h-167l86 208h318l-196 -1400h-208z" />
    <glyph glyph-name="two" unicode="2" horiz-adv-x="1124" 
d="M-18 0l26 185q79 58 182.5 137t210.5 167.5t199.5 177t153 168t69.5 138.5q9 67 -16 122.5t-75 89t-117 33.5t-127.5 -33.5t-101.5 -89t-50 -122.5h-208q18 127 94.5 230t187.5 163t234 60q124 0 217.5 -61t140 -164t29.5 -228q-12 -87 -70 -181t-148 -192t-199.5 -196.5
t-224.5 -195.5h547l-30 -208h-924z" />
    <glyph glyph-name="three" unicode="3" horiz-adv-x="1009" 
d="M402 -26q-127 0 -219 59t-136.5 158t-26.5 220h208q-14 -94 42 -161.5t162 -67.5q62 0 120.5 31t99 83t48.5 115q17 121 -67 181t-229 60l23 164q132 0 218.5 52t100.5 155q11 80 -42 138t-133 58q-55 0 -109 -26.5t-92.5 -71t-46.5 -98.5h-208q16 111 88.5 203
t177.5 146.5t216 54.5q110 0 196.5 -54t131 -146t29.5 -204q-13 -89 -67 -169t-137 -112q96 -36 134.5 -130.5t23.5 -200.5q-17 -120 -92 -219.5t-184.5 -158.5t-229.5 -59z" />
    <glyph glyph-name="four" unicode="4" horiz-adv-x="1135" 
d="M581 0l50 358h-599l29 209l666 833h258l-117 -834h128l-29 -208h-128l-50 -358h-208zM304 567l356 -1l76 547z" />
    <glyph glyph-name="five" unicode="5" horiz-adv-x="1134" 
d="M441 -26q-133 0 -231 64.5t-146 171.5t-30 236h208q-10 -73 17 -133t82 -95.5t129 -35.5q72 0 137 35.5t109.5 95.5t54.5 133q15 109 -47 188t-215 79h-353l238 687h677l-29 -208h-508l-92 -271l120 -2q142 -3 242 -65.5t146.5 -168.5t28.5 -239q-18 -130 -97 -237
t-195 -171t-246 -64z" />
    <glyph glyph-name="six" unicode="6" horiz-adv-x="1091" 
d="M437 -26q-134 0 -236 66.5t-152.5 177.5t-31.5 247q10 71 35 129.5t69 122.5l490 683h242l-340 -472q107 20 201 -7.5t163.5 -92t103 -158t17.5 -205.5q-14 -101 -65 -190t-128 -156.5t-171.5 -106t-196.5 -38.5zM466 182q82 0 151.5 40t115.5 105t57 138q11 77 -18 141
t-87.5 102.5t-137.5 38.5q-82 0 -151.5 -39.5t-114.5 -104t-56 -138.5q-11 -81 19 -145t89 -101t133 -37z" />
    <glyph glyph-name="seven" unicode="7" horiz-adv-x="1089" 
d="M23 0l854 1192h-768l29 208h1009l-29 -208l-856 -1192h-239z" />
    <glyph glyph-name="eight" unicode="8" horiz-adv-x="1077" 
d="M436 -26q-127 0 -223 58t-144 155.5t-31 217.5q15 101 77 188t153 144q-61 50 -92 125.5t-19 164.5q16 110 86.5 200.5t175 144.5t221.5 54t206 -54t134 -144.5t29 -200.5q-12 -89 -64.5 -164.5t-126.5 -125.5q77 -57 114.5 -144t22.5 -188q-16 -119 -91.5 -217
t-188 -156t-239.5 -58zM557 835q85 0 153.5 56t78.5 136q12 79 -40 135t-138 56t-154 -56t-80 -135q-10 -80 42 -136t138 -56zM465 182q66 0 124.5 30t98 80.5t47.5 112.5q13 92 -47.5 157t-159.5 65q-66 0 -124.5 -30t-98 -80.5t-48.5 -111.5q-13 -93 48.5 -158t159.5 -65z
" />
    <glyph glyph-name="nine" unicode="9" horiz-adv-x="1082" 
d="M213 0l352 490q-104 -19 -195.5 8t-159 90.5t-99.5 155t-16 200.5q18 133 98 242t199 174.5t252 65.5q131 0 231 -65t150 -174.5t31 -242.5q-10 -69 -35 -126.5t-67 -119.5l-500 -698h-241zM536 671q80 0 147.5 38.5t111.5 101t54 134.5q11 78 -18.5 140t-86.5 98
t-129 36q-80 0 -147.5 -39t-112 -101.5t-54.5 -133.5q-11 -75 17 -137.5t84.5 -99.5t133.5 -37z" />
    <glyph glyph-name="colon" unicode=":" horiz-adv-x="420" 
d="M201 781q-46 0 -73.5 31.5t-20.5 78.5q6 45 42 77t82 32t74 -32t21 -77q-7 -47 -43.5 -78.5t-81.5 -31.5zM87 -26q-46 0 -73 32t-21 78q7 45 43.5 77.5t81.5 32.5q46 0 74 -32.5t21 -77.5q-7 -46 -43.5 -78t-82.5 -32z" />
    <glyph glyph-name="semicolon" unicode=";" horiz-adv-x="475" 
d="M257 781q-47 0 -74.5 31.5t-20.5 77.5q6 45 42.5 77.5t82.5 32.5q45 0 73 -32.5t21 -77.5q-6 -46 -42.5 -77.5t-81.5 -31.5zM-34 -112l109 338h208l-179 -338h-138z" />
    <glyph glyph-name="less" unicode="&#x3c;" horiz-adv-x="1160" 
d="M1002 142l-960 284l48 346l1040 286l-30 -217l-882 -241l814 -242z" />
    <glyph glyph-name="equal" unicode="=" horiz-adv-x="1160" 
d="M81 707l29 208h1000l-29 -208h-1000zM22 286l29 208h1000l-29 -208h-1000z" />
    <glyph glyph-name="greater" unicode="&#x3e;" horiz-adv-x="1160" 
d="M2 150l31 216l881 234l-815 233l31 217l960 -278l-48 -346z" />
    <glyph glyph-name="question" unicode="?" horiz-adv-x="1071" 
d="M390 447q15 108 82 199t170 143q57 28 95 82.5t47 120.5q14 94 -44 160.5t-152 66.5q-63 0 -118.5 -30.5t-93.5 -82t-47 -114.5h-208q17 120 89.5 218.5t179.5 157.5t227 59q121 0 211.5 -59t135.5 -157.5t28 -218.5q-17 -123 -91.5 -227t-186.5 -160q-101 -50 -116 -158
h-208zM432 -26q-46 0 -73.5 32.5t-21.5 78.5q7 45 43.5 77t81.5 32q46 0 73 -32t21 -77q-6 -46 -42.5 -78.5t-81.5 -32.5z" />
    <glyph glyph-name="at" unicode="@" horiz-adv-x="1798" 
d="M769 -228q-170 0 -310.5 57.5t-238.5 162t-141.5 247t-19.5 312.5q24 169 108.5 317.5t213 261.5t286 176.5t327.5 63.5q171 0 310.5 -64t236 -177t138.5 -261.5t19 -316.5q-13 -91 -48 -179.5t-88.5 -160t-122 -114t-150.5 -42.5q-60 0 -116.5 26.5t-93.5 72t-38 100.5
q-46 -47 -108 -74t-136 -27q-109 0 -192 53.5t-123.5 144t-25.5 200.5q16 109 82 199.5t164 144t207 53.5q69 0 132 -25.5t95 -68.5l10 74l154 -31l-76 -542q-6 -41 18.5 -66.5t63.5 -25.5q51 0 89 47.5t62 115t33 125.5q17 127 -15 238t-104.5 194.5t-176.5 131t-230 47.5
t-243 -47.5t-213.5 -131t-159.5 -194.5t-81 -238q-24 -170 40.5 -298.5t193 -200.5t297.5 -72zM836 311q66 0 121 35t91 91.5t45 119.5q13 94 -37 163.5t-154 69.5q-66 0 -125 -32t-98.5 -86.5t-49.5 -120.5q-9 -67 16.5 -121.5t75.5 -86.5t115 -32z" />
    <glyph glyph-name="A" unicode="A" horiz-adv-x="1421" 
d="M687 1400h243l313 -1400h-220l-60 266h-626l-134 -266h-221zM442 474h474l-146 650z" />
    <glyph glyph-name="B" unicode="B" horiz-adv-x="1154" 
d="M22 0l196 1400h497q108 0 189.5 -44.5t121.5 -126.5t24 -197q-12 -83 -62.5 -160t-123.5 -103q82 -22 121 -86t47 -144t-2 -150q-16 -113 -82 -201t-163.5 -138t-206.5 -50h-556zM349 846h266q83 0 149 50t78 137q13 93 -39.5 139.5t-135.5 46.5h-266zM255 180h328
q63 0 120.5 32t96.5 88.5t49 127.5q9 62 -14.5 117t-71.5 89.5t-112 34.5h-328z" />
    <glyph glyph-name="C" unicode="C" horiz-adv-x="1418" 
d="M666 -26q-142 0 -259 56.5t-197.5 156.5t-115.5 231.5t-14 281.5q21 151 93 282.5t180.5 231t241.5 156t275 56.5q170 0 301.5 -79t207.5 -210l-199 -99q-53 82 -142 131t-197 49q-100 0 -193 -40.5t-169 -112.5t-126 -165.5t-65 -199.5q-20 -143 28 -260.5t147 -187.5
t232 -70q111 0 213 49.5t177 131.5l171 -101q-112 -131 -266 -209.5t-324 -78.5z" />
    <glyph glyph-name="D" unicode="D" horiz-adv-x="1343" 
d="M22 0l196 1400h463q145 0 264.5 -54.5t202 -151t119.5 -223t16 -271.5q-20 -145 -92 -271.5t-182 -223t-244.5 -151t-279.5 -54.5h-463zM259 208h255q101 0 195.5 38t172 105.5t128.5 157t65 191.5q19 136 -32 247.5t-153.5 178t-237.5 66.5h-255z" />
    <glyph glyph-name="E" unicode="E" horiz-adv-x="1089" 
d="M22 0l196 1400h869l-29 -208h-661l-47 -338h532l-29 -208h-533l-61 -438h661l-29 -208h-869z" />
    <glyph glyph-name="F" unicode="F" horiz-adv-x="964" 
d="M22 0l196 1400h825l-30 -208h-616l-47 -338h520l-29 -208h-521l-90 -646h-208z" />
    <glyph glyph-name="G" unicode="G" horiz-adv-x="1537" 
d="M667 -26q-146 0 -263 57t-197 157t-114 232t-13 281q22 157 96.5 289t185.5 229.5t243 151.5t269 54q154 0 287 -72.5t219 -215.5l-200 -101q-60 90 -148.5 136t-188.5 46q-97 0 -189.5 -39.5t-169.5 -110t-129 -165.5t-67 -205q-20 -143 28.5 -260t148.5 -186.5
t233 -69.5q98 0 191.5 42t171 118t125.5 177h-297l26 184h542q-20 -150 -91.5 -282t-180.5 -232.5t-242 -157.5t-276 -57z" />
    <glyph glyph-name="H" unicode="H" horiz-adv-x="1289" 
d="M1059 1400h208l-196 -1400h-208l91 646h-634l-90 -646h-208l196 1400h208l-76 -546h633z" />
    <glyph glyph-name="I" unicode="I" horiz-adv-x="508" 
d="M52 0l196 1400h208l-196 -1400h-208z" />
    <glyph glyph-name="J" unicode="J" horiz-adv-x="859" 
d="M210 -26q-74 0 -141 25t-118 74l156 160q22 -21 55.5 -36t76.5 -15q60 0 114 31.5t91 83t45 110.5l140 993h208l-139 -993q-17 -117 -88.5 -215.5t-176.5 -158t-223 -59.5z" />
    <glyph glyph-name="K" unicode="K" horiz-adv-x="1136" 
d="M1002 0h-270l-336 577l-100 -103l-66 -474h-208l196 1400h208l-85 -602l589 602h272l-647 -661z" />
    <glyph glyph-name="L" unicode="L" horiz-adv-x="1032" 
d="M22 0l196 1400h208l-167 -1192h604l-30 -208h-811z" />
    <glyph glyph-name="M" unicode="M" horiz-adv-x="1835" 
d="M22 0l467 1400h168l226 -943l490 943h168l76 -1400h-212l-50 937l-459 -884h-139l-211 884l-312 -937h-212z" />
    <glyph glyph-name="N" unicode="N" horiz-adv-x="1315" 
d="M22 0l196 1400h225l499 -1024l144 1024h208l-196 -1400h-225l-499 1024l-144 -1024h-208z" />
    <glyph glyph-name="O" unicode="O" horiz-adv-x="1540" 
d="M668 -26q-142 0 -259.5 56.5t-198 156.5t-116 231.5t-14.5 281.5t93 281.5t181.5 231.5t242.5 156.5t275 56.5q143 0 260 -56.5t197.5 -156.5t116 -231.5t14.5 -281.5t-93 -281.5t-181.5 -231.5t-242 -156.5t-275.5 -56.5zM697 182q100 0 193 40.5t169.5 112.5t127 165.5
t65.5 199.5q20 142 -28.5 259.5t-148 188t-232.5 70.5q-100 0 -193 -40.5t-169.5 -112.5t-127 -165.5t-65.5 -199.5q-20 -142 28.5 -260t148 -188t232.5 -70z" />
    <glyph glyph-name="P" unicode="P" horiz-adv-x="1086" 
d="M22 0l196 1400h482q113 0 197 -56.5t124.5 -151t24.5 -209.5q-17 -117 -85.5 -211.5t-168.5 -150.5t-209 -56h-274l-79 -565h-208zM338 773h253q59 0 113 29.5t90.5 80t45.5 113.5q13 95 -42 159t-144 64h-253z" />
    <glyph glyph-name="Q" unicode="Q" horiz-adv-x="1566" 
d="M1234 -36l-137 159q-94 -68 -203.5 -106t-225.5 -38q-142 0 -259 56.5t-198 156t-116.5 231.5t-14.5 282t93.5 281.5t181.5 231.5t242 156.5t275 56.5q143 0 260 -56.5t197.5 -156.5t116 -231.5t14.5 -281.5q-17 -122 -69 -232t-129 -200l140 -162zM698 187q144 0 269 88
l-133 154l168 148l127 -149q102 124 123 277q20 142 -29 260t-148 188t-231 70q-100 0 -193.5 -41t-169.5 -112.5t-127 -165t-66 -199.5q-20 -143 29 -260.5t148.5 -187.5t232.5 -70z" />
    <glyph glyph-name="R" unicode="R" horiz-adv-x="1179" 
d="M22 0l196 1400h515q114 0 197.5 -56t123.5 -150.5t24 -210.5q-20 -146 -116.5 -253.5t-228.5 -145.5l257 -584h-241l-249 565h-191l-79 -565h-208zM338 773h285q60 0 113.5 29.5t90 80t45.5 113.5q14 95 -41.5 159t-144.5 64h-285z" />
    <glyph glyph-name="S" unicode="S" horiz-adv-x="1239" 
d="M517 -26q-115 0 -216 36t-170.5 103.5t-90.5 160.5l206 73q15 -72 101.5 -118.5t198.5 -46.5q80 0 154 25.5t124 72t59 108.5q9 64 -30.5 105t-107 65t-141.5 36q-143 24 -253 70.5t-166.5 129t-37.5 215.5q18 125 103 218t209.5 144.5t261.5 51.5q112 0 213 -35.5
t171.5 -103t92.5 -163.5l-206 -71q-16 72 -102 118t-199 46q-79 0 -153 -26t-124 -72.5t-59 -106.5q-10 -75 25.5 -114t102.5 -58t150 -33q135 -22 245.5 -73t170.5 -135.5t42 -207.5q-17 -125 -102 -218t-209.5 -144.5t-262.5 -51.5z" />
    <glyph glyph-name="T" unicode="T" horiz-adv-x="1259" 
d="M1277 1400l-29 -208h-446l-167 -1192h-208l167 1192h-445l29 208h1099z" />
    <glyph glyph-name="U" unicode="U" horiz-adv-x="1348" 
d="M572 -26q-168 0 -281 82t-162 220.5t-25 307.5l114 816h208l-114 -816q-15 -110 12.5 -201.5t97 -146t180.5 -54.5q112 0 196.5 54.5t137.5 146t68 201.5l114 816h208l-114 -816q-24 -169 -112 -307.5t-224 -220.5t-304 -82z" />
    <glyph glyph-name="V" unicode="V" horiz-adv-x="1418" 
d="M480 0l-312 1400h220l257 -1153l581 1153h220l-704 -1400h-262z" />
    <glyph glyph-name="W" unicode="W" horiz-adv-x="1804" 
d="M330 0l-162 1400h214l118 -1027l406 1027h188l118 -1027l406 1027h214l-552 -1400h-239l-107 927l-367 -927h-237z" />
    <glyph glyph-name="X" unicode="X" horiz-adv-x="1403" 
d="M-38 0l612 704l-410 696h257l306 -520l451 520h257l-603 -696l413 -704h-258l-310 526l-456 -526h-259z" />
    <glyph glyph-name="Y" unicode="Y" horiz-adv-x="1283" 
d="M1076 1400h245l-585 -768l-89 -632h-208l89 632l-370 768h245l261 -541z" />
    <glyph glyph-name="Z" unicode="Z" horiz-adv-x="1292" 
d="M-18 0l29 208l990 984h-852l29 208h1132l-29 -208l-990 -984h852l-29 -208h-1132z" />
    <glyph glyph-name="bracketleft" unicode="[" horiz-adv-x="606" 
d="M421 96l-29 -208h-386l212 1512h386l-30 -208h-177l-154 -1096h178z" />
    <glyph glyph-name="backslash" unicode="\" horiz-adv-x="773" 
d="M371 -112l-193 1512h208l193 -1512h-208z" />
    <glyph glyph-name="bracketright" unicode="]" horiz-adv-x="607" 
d="M-14 -112l29 208h179l154 1096h-179l29 208h387l-212 -1512h-387z" />
    <glyph glyph-name="asciicircum" unicode="^" horiz-adv-x="899" 
d="M122 1000l328 650h266l144 -650h-221l-90 407l-206 -407h-221z" />
    <glyph glyph-name="underscore" unicode="_" horiz-adv-x="1240" 
d="M35 96h1000l-29 -208h-1000z" />
    <glyph glyph-name="grave" unicode="`" horiz-adv-x="934" 
d="M372 1398h208l40 -288h-138z" />
    <glyph glyph-name="a" unicode="a" horiz-adv-x="1185" 
d="M940 1000h208l-140 -1000h-209l12 145q-55 -77 -136 -124t-184 -47q-147 0 -258 72t-166 193.5t-34 269.5q15 107 68.5 201.5t134 165.5t180 111.5t206.5 40.5q109 0 185.5 -49.5t120.5 -126.5zM514 175q88 0 160 43.5t119.5 117.5t59.5 164q13 91 -13.5 165t-86.5 117.5
t-147 43.5q-88 0 -165.5 -44t-130 -118t-65.5 -164q-13 -91 20 -165t98.5 -117t150.5 -43z" />
    <glyph glyph-name="b" unicode="b" horiz-adv-x="1228" 
d="M687 1028q146 0 255.5 -71t164 -190.5t33.5 -265.5q-15 -109 -69.5 -204.5t-137 -168t-184 -113.5t-210.5 -41q-105 0 -177 48t-111 125l-20 -147h-208l210 1500h208l-90 -645q60 77 145.5 125t190.5 48zM565 176q87 0 165.5 44t131.5 118t65 163q13 91 -20 165
t-98.5 117.5t-151.5 43.5q-88 0 -160 -44t-119 -118t-60 -164q-12 -90 14.5 -164t86.5 -117.5t146 -43.5z" />
    <glyph glyph-name="c" unicode="c" horiz-adv-x="1019" 
d="M714 284l172 -101q-82 -95 -193.5 -152t-234.5 -57q-138 0 -241.5 71t-154 190.5t-30.5 264.5q15 110 67.5 205.5t131.5 168t175.5 113.5t199.5 41q123 0 219 -57t151 -153l-201 -101q-34 50 -86.5 76.5t-111.5 26.5q-83 0 -155 -44.5t-121 -117t-61 -158.5t16.5 -158
t88.5 -116t142 -44q63 0 122.5 28t104.5 74z" />
    <glyph glyph-name="d" unicode="d" horiz-adv-x="1227" 
d="M1011 1500h208l-210 -1500h-208l21 147q-61 -78 -146.5 -125.5t-191.5 -47.5q-145 0 -254.5 71t-163.5 190.5t-34 264.5q15 109 69.5 204.5t137 168t183.5 113.5t210 41q106 0 178 -47.5t111 -124.5zM514 175q88 0 160 43.5t119.5 117.5t59.5 164q13 91 -13.5 165
t-86.5 117.5t-147 43.5q-88 0 -165.5 -44t-130 -118t-65.5 -164q-13 -91 20 -165t98.5 -117t150.5 -43z" />
    <glyph glyph-name="e" unicode="e" horiz-adv-x="1118" 
d="M458 -26q-138 0 -241.5 71t-154 190.5t-30.5 264.5q15 110 67.5 205.5t131.5 168t175.5 113.5t199.5 41q115 0 204.5 -47.5t145.5 -131t73 -192t-14 -230.5h-770q4 -104 68.5 -174t173.5 -71q76 0 144 38t117 105l204 -49q-79 -133 -211.5 -217.5t-282.5 -84.5zM260 586
h568q-1 107 -70 182.5t-177 75.5q-72 0 -137 -34t-113.5 -92.5t-70.5 -131.5z" />
    <glyph glyph-name="f" unicode="f" horiz-adv-x="708" 
d="M450 1227l-31 -227h282l-29 -208h-283l-110 -792h-208l110 792h-118l29 208h119l31 227q12 82 62 149.5t123 107.5t156 40q59 0 113 -24t92 -74l-170 -147q-19 37 -65 37q-37 0 -67 -26t-36 -63z" />
    <glyph glyph-name="g" unicode="g" horiz-adv-x="1209" 
d="M923 1000h208l-144 -1026q-15 -103 -70 -190t-138.5 -150.5t-184 -98.5t-204.5 -35q-105 0 -195.5 44.5t-153 120.5t-85.5 172l203 86q16 -93 91 -153.5t170 -60.5q82 0 160.5 34t133 93.5t65.5 137.5l24 169q-60 -75 -144 -122t-185 -47q-142 0 -249.5 71t-160 190.5
t-32.5 264.5q15 109 68.5 204.5t135 168t180.5 113.5t206 41q101 0 171.5 -47t109.5 -123zM504 175q86 0 157.5 44.5t118.5 118.5t59 162q13 89 -13.5 163t-85.5 118.5t-144 44.5t-160.5 -44t-126.5 -118t-64 -164t18 -164t94.5 -117.5t146.5 -43.5z" />
    <glyph glyph-name="h" unicode="h" horiz-adv-x="1101" 
d="M1011 628l-88 -628h-208l81 576q9 67 -16 122t-75.5 87.5t-116.5 32.5q-67 0 -126.5 -32.5t-99.5 -87.5t-50 -122l-81 -576h-208l210 1500h208l-84 -606q60 62 141 98t169 36q111 0 194 -54t124.5 -145t25.5 -201z" />
    <glyph glyph-name="i" unicode="i" 
d="M162 1000h208l-140 -1000h-208zM288 1145q-47 0 -75 31t-21 78q7 46 43 77.5t83 31.5q46 0 73.5 -31.5t21.5 -77.5q-7 -47 -42.5 -78t-82.5 -31z" />
    <glyph glyph-name="j" unicode="j" horiz-adv-x="471" 
d="M-249 -500l30 208q94 0 167 63t87 155l150 1074h208l-150 -1074q-17 -118 -88 -214.5t-176.5 -154t-227.5 -57.5zM311 1145q-47 0 -75 31t-21 78q7 46 43 77.5t83 31.5q46 0 73.5 -31.5t21.5 -77.5q-7 -47 -42.5 -78t-82.5 -31z" />
    <glyph glyph-name="k" unicode="k" horiz-adv-x="1041" 
d="M878 0h-240l-187 424l-188 -192l-32 -232h-208l210 1500h208l-133 -944l435 444h272l-398 -407z" />
    <glyph glyph-name="l" unicode="l" 
d="M23 0l210 1500h208l-210 -1500h-208z" />
    <glyph glyph-name="m" unicode="m" horiz-adv-x="1776" 
d="M22 0l140 1000h208l-15 -106q61 62 141.5 98t168.5 36q107 0 189.5 -51.5t123.5 -136.5q65 85 161 136.5t204 51.5q110 0 193.5 -54t124.5 -145t25 -201l-87 -628h-208l81 574q9 66 -15.5 121.5t-74 89t-115.5 33.5t-124.5 -32t-98 -87.5t-49.5 -124.5l-80 -574h-208
l80 574q15 104 -45.5 174t-159.5 70q-65 0 -123.5 -33.5t-98.5 -89t-49 -121.5l-81 -574h-208z" />
    <glyph glyph-name="n" unicode="n" horiz-adv-x="1100" 
d="M1010 628l-88 -628h-208l81 576q9 67 -16 122t-75.5 87.5t-116.5 32.5q-67 0 -126.5 -32.5t-99.5 -87.5t-50 -122l-81 -576h-208l140 1000h208l-14 -106q60 62 141 98t169 36q111 0 194 -54t124.5 -145t25.5 -201z" />
    <glyph glyph-name="o" unicode="o" horiz-adv-x="1120" 
d="M458 -26q-138 0 -241.5 71t-154 190.5t-30.5 264.5q15 110 67.5 205.5t131.5 168t175.5 113.5t199.5 41q138 0 241.5 -71t154.5 -191t30 -266q-15 -109 -67.5 -204t-131.5 -167.5t-175 -113.5t-200 -41zM487 182q83 0 155 44t121 116.5t61 157.5q12 87 -17 160t-89 116.5
t-141 43.5q-82 0 -154.5 -44t-121.5 -117t-61 -159q-13 -89 17 -161t90 -114.5t140 -42.5z" />
    <glyph glyph-name="p" unicode="p" horiz-adv-x="1226" 
d="M159 -500h-208l211 1500h208l-20 -147q60 77 145 125t191 48q146 0 255 -71t163 -190.5t34 -264.5q-16 -109 -70 -205t-136.5 -168.5t-183.5 -113.5t-210 -41q-106 0 -177.5 48t-110.5 125zM655 825q-87 0 -159 -43.5t-119 -117.5t-60 -164q-12 -90 14 -164t85.5 -118
t146.5 -44q86 0 164 43.5t132 117.5t67 165q13 89 -19.5 163t-98.5 118t-153 44z" />
    <glyph glyph-name="q" unicode="q" horiz-adv-x="1226" 
d="M484 -28q-145 0 -254.5 71t-163.5 191t-34 266q15 109 69.5 204t137 167.5t183.5 113.5t210 41q106 0 177.5 -48t109.5 -125l21 147h208l-211 -1500h-208l91 645q-60 -77 -145 -125t-191 -48zM606 825q-88 0 -165.5 -44t-130 -118t-65.5 -163q-13 -91 19.5 -165
t98 -117.5t151.5 -43.5q88 0 160 44t118.5 118t59.5 164t-13.5 164t-86 117.5t-146.5 43.5z" />
    <glyph glyph-name="r" unicode="r" horiz-adv-x="751" 
d="M22 0l140 1000h208l-14 -106q60 62 141 98t169 36q56 0 109 -15l-113 -210q-36 15 -75 15q-67 0 -126.5 -32.5t-99.5 -87.5t-50 -122l-81 -576h-208z" />
    <glyph glyph-name="s" unicode="s" horiz-adv-x="866" 
d="M319 -19q-118 7 -215 64t-125 151l188 76q14 -41 70 -76.5t129 -35.5q68 0 128 31t69 91q6 44 -20.5 68t-68.5 37.5t-84 25.5q-96 22 -172 60.5t-115.5 99t-27.5 148.5q14 96 76 166.5t151.5 108.5t186.5 38q120 0 213 -51t134 -140l-180 -98q-16 45 -66 75.5t-110 33.5
q-77 3 -137.5 -28.5t-70.5 -99.5q-6 -44 21.5 -66t73.5 -34.5t93 -28.5q85 -29 157.5 -69t112 -99t26.5 -144q-13 -94 -79.5 -164.5t-162 -108t-195.5 -31.5z" />
    <glyph glyph-name="t" unicode="t" horiz-adv-x="707" 
d="M661 792h-210l-112 -792h-208l112 792h-159l29 208h159l43 314h208l-43 -314h210z" />
    <glyph glyph-name="u" unicode="u" horiz-adv-x="1060" 
d="M35 375l87 625h208l-81 -574q-9 -67 16 -122t75.5 -87.5t116.5 -32.5q67 0 126.5 32.5t100 87.5t49.5 122l80 574h208l-139 -1000h-208l14 108q-60 -62 -141 -98t-168 -36q-111 0 -194.5 54t-124.5 145t-25 202z" />
    <glyph glyph-name="v" unicode="v" horiz-adv-x="1117" 
d="M594 0h-267l-224 1002h221l170 -761l383 761h222z" />
    <glyph glyph-name="w" unicode="w" horiz-adv-x="1677" 
d="M504 0h-207l-195 1000h204l137 -702l333 702h210l135 -702l334 702h204l-474 -1000h-209l-137 707z" />
    <glyph glyph-name="x" unicode="x" horiz-adv-x="1149" 
d="M-18 0l436 502l-293 500h257l189 -322l281 322h256l-433 -500l296 -502h-257l-193 326l-282 -326h-257z" />
    <glyph glyph-name="y" unicode="y" horiz-adv-x="1106" 
d="M847 1000h222l-759 -1500h-221l252 500l-219 1000h227l136 -715z" />
    <glyph glyph-name="z" unicode="z" horiz-adv-x="1014" 
d="M947 792l-638 -584h556l-29 -208h-854l29 208l638 584h-556l29 208h854z" />
    <glyph glyph-name="braceleft" unicode="{" horiz-adv-x="815" 
d="M504 -113q-97 0 -169.5 47.5t-108.5 127t-23 175.5l34 245q4 29 -16 46.5t-47.5 32t-46.5 33t-15 49.5t29 50t56.5 34t56.5 32.5t29 44.5l34 246q14 96 72 175.5t144 127t183 47.5h96l-28 -208h-96q-59 0 -106.5 -41.5t-56.5 -100.5l-35 -253q-11 -54 -49 -82t-76 -72
q17 -31 37.5 -51.5t34 -43t10.5 -58.5l-36 -253q-8 -59 28 -100.5t95 -41.5h96l-30 -208h-96z" />
    <glyph glyph-name="bar" unicode="|" horiz-adv-x="488" 
d="M238 1400h208l-239 -1702h-208z" />
    <glyph glyph-name="braceright" unicode="}" horiz-adv-x="815" 
d="M-14 -113l29 208h96q59 0 106 41.5t56 100.5l36 253q7 36 26.5 58.5t46 43t53.5 51.5q-18 30 -38.5 51t-34 44t-10.5 59l35 253q9 59 -27.5 100.5t-94.5 41.5h-96l29 208h96q97 0 170 -47.5t109 -127t22 -175.5l-34 -246q-3 -27 17 -44.5t47 -32.5t46.5 -34t14.5 -50
q-4 -31 -29 -49.5t-56 -33t-56 -32t-30 -46.5l-34 -245q-13 -96 -71.5 -175.5t-144.5 -127t-183 -47.5h-96z" />
    <glyph glyph-name="asciitilde" unicode="~" horiz-adv-x="1277" 
d="M898 406q-65 0 -135.5 29t-141 67t-134.5 66.5t-116 28.5q-54 0 -85.5 -42t-30.5 -93l-204 -1q-4 85 41.5 161t122 124t165.5 48q63 0 127.5 -30t127.5 -68.5t123 -68t114 -29.5q55 0 88 41t32 94l204 2q4 -86 -34.5 -161t-107.5 -121.5t-156 -46.5z" />
    <glyph glyph-name="uni00A0" unicode="&#xa0;" horiz-adv-x="480" 
 />
    <glyph glyph-name="exclamdown" unicode="&#xa1;" horiz-adv-x="403" 
d="M234 1026q47 0 74 -32t20 -79q-6 -45 -42.5 -76.5t-82.5 -31.5q-44 0 -71.5 31.5t-21.5 76.5q7 47 43 79t81 32zM261 580l-138 -980h-178l138 980h178z" />
    <glyph glyph-name="cent" unicode="&#xa2;" horiz-adv-x="1092" 
d="M409 0l29 205q-118 18 -205 88.5t-129 176.5t-24 232t89.5 231.5t178 175.5t229.5 88l28 203h147l-29 -203q111 -15 196 -78t130 -157l-195 -104q-31 63 -93.5 100.5t-136.5 37.5q-81 0 -153 -40t-121.5 -106.5t-61.5 -147.5q-11 -82 20 -149.5t92 -107t141 -39.5
q74 0 147 37.5t122 100.5l165 -104q-70 -94 -172.5 -157t-218.5 -78l-28 -205h-147z" />
    <glyph glyph-name="sterling" unicode="&#xa3;" horiz-adv-x="1183" 
d="M6 0l29 208q71 0 143.5 24.5t118 68.5t33.5 105q-1 21 -6 41h-255l20 146h148q-34 43 -67.5 88.5t-51.5 102t-8 132.5q15 105 68 197t133 162.5t178 110.5t203 40q142 0 248.5 -69t159.5 -185t34 -256h-208q12 83 -19.5 151.5t-95 109.5t-147.5 41q-83 0 -157.5 -41
t-125.5 -109.5t-63 -151.5q-11 -84 12 -138.5t62.5 -96.5t76.5 -88h383l-21 -146h-293q8 -46 0 -100q-7 -45 -37 -84t-58 -55h575l-29 -208h-983z" />
    <glyph glyph-name="currency" unicode="&#xa4;" horiz-adv-x="1012" 
d="M123 274l-89 103l146 128q-46 88 -31 194.5t87 193.5l-110 131l118 102l110 -129q94 59 202.5 59.5t186.5 -57.5l147 127l87 -102l-144 -127q49 -88 34 -197t-87 -197l106 -126l-117 -103l-107 125q-99 -60 -206 -60.5t-188 62.5zM478 485q88 1 159 62.5t84 150.5
q12 93 -42.5 152t-140.5 60q-61 1 -113.5 -28.5t-87 -78t-42.5 -105.5q-13 -89 42 -151.5t141 -61.5z" />
    <glyph glyph-name="yen" unicode="&#xa5;" horiz-adv-x="1298" 
d="M447 0l23 164h-260l20 146h260l17 120h-260l21 146h260l7 56l-370 768h246l261 -541l411 541h246l-586 -768l-7 -56h260l-21 -146h-260l-17 -120h260l-20 -146h-260l-23 -164h-208z" />
    <glyph glyph-name="brokenbar" unicode="&#xa6;" 
d="M218 1400h208l-105 -750h-208zM85 448h208l-106 -750h-208z" />
    <glyph glyph-name="section" unicode="&#xa7;" horiz-adv-x="1093" 
d="M392 -382q-120 0 -212.5 51t-134.5 140l179 97q17 -44 66.5 -75t109.5 -34q78 -2 139 30t70 99q6 44 -21 68.5t-72 37.5t-95 23q-111 18 -190.5 80.5t-117 157t-21.5 206.5q16 116 88.5 214t174.5 148q-144 60 -123 209q13 96 75 166t151.5 108t186.5 38q120 0 212.5 -51
t134.5 -140l-180 -97q-16 44 -66 75t-110 34q-78 2 -138.5 -30t-69.5 -99q-6 -43 19.5 -67t70 -37t94.5 -23q173 -36 265.5 -151t67.5 -297q-16 -115 -89.5 -212.5t-175.5 -146.5q146 -62 126 -210q-14 -96 -76 -166t-151.5 -108t-186.5 -38zM491 246q64 0 122 35.5t98 92.5
t49 123q16 117 -48.5 187t-170.5 70q-61 0 -118 -36t-97 -94t-50 -125q-10 -71 15.5 -128t78 -91t121.5 -34z" />
    <glyph glyph-name="dieresis" unicode="&#xa8;" horiz-adv-x="1390" 
d="M564 1074q-47 0 -75 31t-21 78q6 46 43 78t84 32q46 0 73.5 -32t21.5 -78q-7 -47 -43.5 -78t-82.5 -31zM933 1074q-48 0 -76 31t-21 78q6 46 43 78t84 32q46 0 74 -32t21 -78q-7 -47 -43.5 -78t-81.5 -31z" />
    <glyph glyph-name="copyright" unicode="&#xa9;" horiz-adv-x="1871" 
d="M796 -284q-177 0 -322.5 66.5t-246.5 184t-145.5 272.5t-19.5 332q25 178 113 333t222 272t298 183.5t342 66.5q177 0 323 -66t247 -183.5t146 -272.5t20 -333q-25 -177 -113.5 -332t-222.5 -272.5t-299 -184t-342 -66.5zM826 -76q136 0 261 51.5t226 141t167 206.5
t85 248q19 134 -15 251.5t-111 206.5t-187 139.5t-244 49.5q-136 -1 -261 -52t-225.5 -140t-166.5 -206t-85 -249q-19 -137 15.5 -254.5t112 -205.5t187 -137.5t241.5 -49.5zM1094 355l172 -101q-82 -95 -194 -152t-235 -57q-138 0 -241.5 71.5t-154 190.5t-30.5 264
q16 110 68 205.5t131 168t175.5 113.5t199.5 41q123 0 219.5 -57t151.5 -153l-202 -100q-34 49 -86.5 75.5t-111.5 26.5q-82 0 -154.5 -44t-121.5 -117t-61 -159q-12 -85 16.5 -157.5t89 -116.5t141.5 -44q63 0 122.5 28t105.5 74z" />
    <glyph glyph-name="ordfeminine" unicode="&#xaa;" horiz-adv-x="1185" 
d="M940 1000h208l-140 -1000h-209l12 145q-55 -77 -136 -124t-184 -47q-147 0 -258 72t-166 193.5t-34 269.5q15 107 68.5 201.5t134 165.5t180 111.5t206.5 40.5q109 0 185.5 -49.5t120.5 -126.5zM514 175q88 0 160 43.5t119.5 117.5t59.5 164q13 91 -13.5 165t-86.5 117.5
t-147 43.5q-88 0 -165.5 -44t-130 -118t-65.5 -164q-13 -91 20 -165t98.5 -117t150.5 -43z" />
    <glyph glyph-name="guillemotleft" unicode="&#xab;" horiz-adv-x="1122" 
d="M358 261l-252 340l348 338h215l-346 -338l250 -340h-215zM745 261l-252 340l348 338h215l-346 -338l250 -340h-215z" />
    <glyph glyph-name="logicalnot" unicode="&#xac;" horiz-adv-x="1006" 
d="M661 298l56 396h-638l30 208h845l-85 -604h-208z" />
    <glyph glyph-name="uni00AD" unicode="&#xad;" horiz-adv-x="895" 
d="M137 704h640l-30 -208h-640z" />
    <glyph glyph-name="registered" unicode="&#xae;" horiz-adv-x="1080" 
d="M500 421q-133 0 -232.5 65.5t-148.5 174.5t-31 240q19 132 99 240.5t198 174t250 65.5q136 0 235 -66.5t147.5 -175.5t30.5 -238q-19 -133 -99.5 -242t-198.5 -173.5t-250 -64.5zM521 573q91 0 171.5 44.5t135.5 119t67 164.5q13 90 -20.5 164.5t-102 118.5t-159.5 44
q-90 0 -170.5 -44t-135 -118.5t-66.5 -164.5q-13 -90 20.5 -164.5t101.5 -119t158 -44.5zM408 704l59 417h160q52 0 82.5 -38t22.5 -92q-6 -39 -30 -70.5t-59 -44.5l77 -172h-105l-71 159h-23l-23 -159h-90zM533 953h70q13 0 24.5 11.5t13.5 26.5q2 17 -6 28t-21 11h-70z
" />
    <glyph glyph-name="macron" unicode="&#xaf;" horiz-adv-x="1200" 
d="M348 1311h676l-23 -158h-676z" />
    <glyph glyph-name="degree" unicode="&#xb0;" horiz-adv-x="841" 
d="M427 740q-96 0 -167 47t-105.5 124.5t-21.5 168.5q13 93 69.5 170t140.5 123.5t179 46.5q97 0 167 -47t104 -124.5t21 -168.5q-13 -97 -70.5 -174t-141 -121.5t-175.5 -44.5zM456 948q55 0 99 38.5t51 93.5q9 56 -24.5 94t-88.5 38t-99.5 -38t-52.5 -94
q-7 -55 26.5 -93.5t88.5 -38.5z" />
    <glyph glyph-name="plusminus" unicode="&#xb1;" horiz-adv-x="1160" 
d="M429 361l55 396h-396l29 208h396l56 396h208l-56 -396h396l-29 -208h-396l-55 -396h-208zM-18 0l29 208h1000l-29 -208h-1000z" />
    <glyph glyph-name="uni00B2" unicode="&#xb2;" horiz-adv-x="705" 
d="M113 818l16 118q60 37 136.5 84.5t143.5 104.5t98 121q5 43 -20 70.5t-66 27.5q-43 0 -77 -27.5t-40 -70.5h-131q13 96 90.5 159t174.5 63q96 0 154.5 -63t45.5 -159q-8 -55 -51.5 -108t-103.5 -101t-116 -88h222l-18 -131h-458z" />
    <glyph glyph-name="uni00B3" unicode="&#xb3;" horiz-adv-x="570" 
d="M300 798q-88 0 -143 57t-43 146h131q-5 -35 16 -57t56 -22q34 0 60.5 22t31.5 57q5 40 -24 70t-93 30l13 93q61 0 90.5 26t34.5 60q4 27 -13.5 45.5t-45.5 18.5q-27 0 -49.5 -18.5t-25.5 -45.5h-132q12 83 77.5 135t147.5 52t133 -52t39 -135q-5 -38 -24 -72.5t-44 -56.5
q60 -62 47 -150q-13 -89 -83.5 -146t-156.5 -57z" />
    <glyph glyph-name="acute" unicode="&#xb4;" horiz-adv-x="934" 
d="M430 1110l120 288h208l-188 -288h-140z" />
    <glyph glyph-name="uni00B5" unicode="&#xb5;" horiz-adv-x="1108" 
d="M-79 -432l201 1432h208l-73 -518q-12 -85 13.5 -154.5t81 -111t134.5 -41.5q78 0 142 41.5t106.5 111t54.5 154.5l73 518h208l-140 -1000h-208l19 136q-63 -75 -143 -119t-173 -44q-73 0 -130 29.5t-94 77.5l-72 -512h-208z" />
    <glyph glyph-name="paragraph" unicode="&#xb6;" horiz-adv-x="988" 
d="M279 -302l144 1020q-94 0 -165 46t-106 123.5t-22 171.5q14 94 70.5 171.5t140 123.5t177.5 46h208l-239 -1702h-208zM559 -302l239 1702h208l-239 -1702h-208z" />
    <glyph glyph-name="periodcentered" unicode="&#xb7;" horiz-adv-x="380" 
d="M160 490q-46 0 -73.5 32t-20.5 79q6 44 42.5 76.5t81.5 32.5q46 0 74 -32.5t22 -76.5q-7 -47 -44 -79t-82 -32z" />
    <glyph glyph-name="cedilla" unicode="&#xb8;" horiz-adv-x="1258" 
d="M461 -373q-71 -18 -128 17.5t-66 103.5l116 30q3 -22 21.5 -34t41.5 -5q24 6 38.5 26t11.5 43t-21 33.5t-42 6.5l-118 -7l167 235l93 -58l-49 -68q76 -28 87 -113q8 -68 -36 -130t-116 -80z" />
    <glyph glyph-name="uni00B9" unicode="&#xb9;" horiz-adv-x="441" 
d="M183 818l70 500h-70l37 131h182l-88 -631h-131z" />
    <glyph glyph-name="ordmasculine" unicode="&#xba;" horiz-adv-x="1120" 
d="M458 -26q-138 0 -241.5 71t-154 190.5t-30.5 264.5q15 110 67.5 205.5t131.5 168t175.5 113.5t199.5 41q138 0 241.5 -71t154.5 -191t30 -266q-15 -109 -67.5 -204t-131.5 -167.5t-175 -113.5t-200 -41zM487 182q83 0 155 44t121 116.5t61 157.5q12 87 -17 160t-89 116.5
t-141 43.5q-82 0 -154.5 -44t-121.5 -117t-61 -159q-13 -89 17 -161t90 -114.5t140 -42.5z" />
    <glyph glyph-name="guillemotright" unicode="&#xbb;" horiz-adv-x="1142" 
d="M425 261l347 340l-251 338h215l252 -338l-348 -340h-215zM38 261l347 340l-251 338h215l252 -338l-348 -340h-215z" />
    <glyph glyph-name="onequarter" unicode="&#xbc;" horiz-adv-x="1579" 
d="M183 818l70 500h-70l37 131h182l-88 -631h-131zM76 0l1004 1400h176l-1004 -1400h-176zM1142 0l15 106h-253l22 158l284 367h152l-56 -394h63l-18 -131h-63l-14 -106h-132zM1052 237h134l30 212z" />
    <glyph glyph-name="onehalf" unicode="&#xbd;" horiz-adv-x="1596" 
d="M183 818l70 500h-70l37 131h182l-88 -631h-131zM76 0l1004 1400h176l-1004 -1400h-176zM889 0l16 118q60 38 136.5 85.5t143.5 104t98 121.5q6 43 -19.5 70t-66.5 27q-43 0 -77 -27t-40 -70h-131q9 64 47.5 115.5t96 82t122.5 30.5q96 0 154 -66t45 -162
q-8 -55 -51.5 -108.5t-103.5 -101.5t-116 -88h222l-18 -131h-458z" />
    <glyph glyph-name="threequarters" unicode="&#xbe;" horiz-adv-x="1707" 
d="M300 798q-88 0 -143 57t-43 146h131q-5 -35 16 -57t56 -22q34 0 60.5 22t31.5 57q5 40 -24 70t-93 30l13 93q61 0 90.5 26t34.5 60q4 27 -13.5 45.5t-45.5 18.5q-27 0 -49.5 -18.5t-25.5 -45.5h-132q12 83 77.5 135t147.5 52t133 -52t39 -135q-5 -38 -24 -72.5t-44 -56.5
q60 -62 47 -150q-13 -89 -83.5 -146t-156.5 -57zM205 0l1004 1400h176l-1004 -1400h-176zM1271 0l15 106h-253l22 158l284 367h152l-56 -394h63l-18 -131h-63l-14 -106h-132zM1181 237h134l30 212z" />
    <glyph glyph-name="questiondown" unicode="&#xbf;" horiz-adv-x="1057" 
d="M512 807q-45 0 -72.5 31.5t-21.5 76.5q8 47 44 79t82 32q45 0 72.5 -32t19.5 -79q-5 -45 -41.5 -76.5t-82.5 -31.5zM357 -427q-120 0 -210.5 59t-135.5 157.5t-28 218.5q17 123 91.5 227.5t185.5 159.5q103 50 118 159h208q-16 -107 -83 -198.5t-170 -143.5
q-57 -29 -95 -83.5t-47 -120.5q-13 -94 44.5 -160.5t151.5 -66.5q62 0 118.5 31t94.5 82t47 114h208q-17 -120 -90 -218.5t-180 -157.5t-228 -59z" />
    <glyph glyph-name="Agrave" unicode="&#xc0;" horiz-adv-x="1421" 
d="M687 1400h243l313 -1400h-220l-60 266h-626l-134 -266h-221zM442 474h474l-146 650zM627 1798h208l40 -288h-138z" />
    <glyph glyph-name="Aacute" unicode="&#xc1;" horiz-adv-x="1421" 
d="M687 1400h243l313 -1400h-220l-60 266h-626l-134 -266h-221zM442 474h474l-146 650zM770 1510l120 288h208l-188 -288h-140z" />
    <glyph glyph-name="Acircumflex" unicode="&#xc2;" horiz-adv-x="1421" 
d="M687 1400h243l313 -1400h-220l-60 266h-626l-134 -266h-221zM442 474h474l-146 650zM981 1798l153 -288h-139l-143 197l-196 -197h-138l230 288h233z" />
    <glyph glyph-name="Atilde" unicode="&#xc3;" horiz-adv-x="1421" 
d="M687 1400h243l313 -1400h-220l-60 266h-626l-134 -266h-221zM442 474h474l-146 650zM980 1514q-37 0 -82 25t-89 56.5t-79.5 51.5t-54.5 9t-29 -33.5t-6 -57.5l-130 -34q-15 70 7 130t72 96.5t119 36.5q37 0 81 -21.5t87 -50t77.5 -50.5t53.5 -22q32 0 39.5 32t1.5 59
l133 41q15 -75 -9 -135.5t-74.5 -96.5t-117.5 -36z" />
    <glyph glyph-name="Adieresis" unicode="&#xc4;" horiz-adv-x="1421" 
d="M687 1400h243l313 -1400h-220l-60 266h-626l-134 -266h-221zM442 474h474l-146 650zM635 1474q-47 0 -75 31t-21 78q6 46 43 78t84 32q46 0 73.5 -32t21.5 -78q-7 -47 -43.5 -78t-82.5 -31zM1004 1474q-48 0 -76 31t-21 78q6 46 43 78t84 32q46 0 74 -32t21 -78
q-7 -47 -43.5 -78t-81.5 -31z" />
    <glyph glyph-name="Aring" unicode="&#xc5;" horiz-adv-x="1421" 
d="M687 1400h243l313 -1400h-220l-60 266h-626l-134 -266h-221zM442 474h474l-146 650zM819 1478q-72 0 -116.5 52.5t-34.5 124.5t69 123.5t132 51.5t117 -51.5t34 -123.5q-10 -74 -69 -125.5t-132 -51.5zM834 1582q29 0 53 21t29 52q4 29 -14 49.5t-48 20.5t-53.5 -20.5
t-27.5 -49.5q-5 -31 13 -52t48 -21z" />
    <glyph glyph-name="AE" unicode="&#xc6;" horiz-adv-x="1658" 
d="M-18 0l705 1400h969l-29 -208h-521l-55 -388h425l-28 -208h-425l-55 -388h521l-29 -208h-729l37 266h-431l-134 -266h-221zM442 474h355l101 718h-94z" />
    <glyph glyph-name="Ccedilla" unicode="&#xc7;" horiz-adv-x="1418" 
d="M666 -26q-142 0 -259 56.5t-197.5 156.5t-115.5 231.5t-14 281.5q21 151 93 282.5t180.5 231t241.5 156t275 56.5q170 0 301.5 -79t207.5 -210l-199 -99q-53 82 -142 131t-197 49q-100 0 -193 -40.5t-169 -112.5t-126 -165.5t-65 -199.5q-20 -143 28 -260.5t147 -187.5
t232 -70q111 0 213 49.5t177 131.5l171 -101q-112 -131 -266 -209.5t-324 -78.5zM623 -373q-71 -18 -128 17.5t-66 103.5l116 30q3 -22 21.5 -34t41.5 -5q24 6 38.5 26t11.5 43t-21 33.5t-42 6.5l-118 -7l167 235l93 -58l-49 -68q76 -28 87 -113q8 -68 -36 -130t-116 -80z
" />
    <glyph glyph-name="Egrave" unicode="&#xc8;" horiz-adv-x="1089" 
d="M22 0l196 1400h869l-29 -208h-661l-47 -338h532l-29 -208h-533l-61 -438h661l-29 -208h-869zM461 1798h208l40 -288h-138z" />
    <glyph glyph-name="Eacute" unicode="&#xc9;" horiz-adv-x="1089" 
d="M22 0l196 1400h869l-29 -208h-661l-47 -338h532l-29 -208h-533l-61 -438h661l-29 -208h-869zM604 1510l120 288h208l-188 -288h-140z" />
    <glyph glyph-name="Ecircumflex" unicode="&#xca;" horiz-adv-x="1089" 
d="M22 0l196 1400h869l-29 -208h-661l-47 -338h532l-29 -208h-533l-61 -438h661l-29 -208h-869zM815 1798l153 -288h-139l-143 197l-196 -197h-138l230 288h233z" />
    <glyph glyph-name="Edieresis" unicode="&#xcb;" horiz-adv-x="1089" 
d="M22 0l196 1400h869l-29 -208h-661l-47 -338h532l-29 -208h-533l-61 -438h661l-29 -208h-869zM469 1474q-47 0 -75 31t-21 78q6 46 43 78t84 32q46 0 73.5 -32t21.5 -78q-7 -47 -43.5 -78t-82.5 -31zM838 1474q-48 0 -76 31t-21 78q6 46 43 78t84 32q46 0 74 -32t21 -78
q-7 -47 -43.5 -78t-81.5 -31z" />
    <glyph glyph-name="Igrave" unicode="&#xcc;" horiz-adv-x="508" 
d="M52 0l196 1400h208l-196 -1400h-208zM170 1798h208l40 -288h-138z" />
    <glyph glyph-name="Iacute" unicode="&#xcd;" horiz-adv-x="508" 
d="M52 0l196 1400h208l-196 -1400h-208zM314 1510l120 288h208l-188 -288h-140z" />
    <glyph glyph-name="Icircumflex" unicode="&#xce;" horiz-adv-x="508" 
d="M52 0l196 1400h208l-196 -1400h-208zM524 1798l153 -288h-139l-143 197l-196 -197h-138l230 288h233z" />
    <glyph glyph-name="Idieresis" unicode="&#xcf;" horiz-adv-x="508" 
d="M52 0l196 1400h208l-196 -1400h-208zM179 1474q-47 0 -75 31t-21 78q6 46 43 78t84 32q46 0 73.5 -32t21.5 -78q-7 -47 -43.5 -78t-82.5 -31zM548 1474q-48 0 -76 31t-21 78q6 46 43 78t84 32q46 0 74 -32t21 -78q-7 -47 -43.5 -78t-81.5 -31z" />
    <glyph glyph-name="Eth" unicode="&#xd0;" horiz-adv-x="1458" 
d="M137 0l91 646h-136l30 208h135l76 546h463q145 0 264 -54.5t202 -151t119.5 -223t16.5 -271.5t-92.5 -271.5t-182 -223t-244 -151t-279.5 -54.5h-463zM374 208h255q103 0 197.5 38.5t171.5 106.5t127.5 157t64.5 190q20 137 -32 248.5t-154.5 177.5t-236.5 66h-254
l-48 -338h299l-29 -208h-299z" />
    <glyph glyph-name="Ntilde" unicode="&#xd1;" horiz-adv-x="1316" 
d="M22 0l196 1400h225l499 -1024l144 1024h208l-196 -1400h-225l-499 1024l-144 -1024h-208zM927 1514q-37 0 -82 25t-89 56.5t-79.5 51.5t-54.5 9t-29 -33.5t-6 -57.5l-130 -34q-15 70 7 130t72 96.5t119 36.5q37 0 81 -21.5t87 -50t77.5 -50.5t53.5 -22q32 0 39.5 32
t1.5 59l133 41q15 -75 -9 -135.5t-74.5 -96.5t-117.5 -36z" />
    <glyph glyph-name="Ograve" unicode="&#xd2;" horiz-adv-x="1540" 
d="M668 -26q-142 0 -259.5 56.5t-198 156.5t-116 231.5t-14.5 281.5t93 281.5t181.5 231.5t242.5 156.5t275 56.5q143 0 260 -56.5t197.5 -156.5t116 -231.5t14.5 -281.5t-93 -281.5t-181.5 -231.5t-242 -156.5t-275.5 -56.5zM697 182q100 0 193 40.5t169.5 112.5t127 165.5
t65.5 199.5q20 142 -28.5 259.5t-148 188t-232.5 70.5q-100 0 -193 -40.5t-169.5 -112.5t-127 -165.5t-65.5 -199.5q-20 -142 28.5 -260t148 -188t232.5 -70zM686 1798h208l40 -288h-138z" />
    <glyph glyph-name="Oacute" unicode="&#xd3;" horiz-adv-x="1540" 
d="M668 -26q-142 0 -259.5 56.5t-198 156.5t-116 231.5t-14.5 281.5t93 281.5t181.5 231.5t242.5 156.5t275 56.5q143 0 260 -56.5t197.5 -156.5t116 -231.5t14.5 -281.5t-93 -281.5t-181.5 -231.5t-242 -156.5t-275.5 -56.5zM697 182q100 0 193 40.5t169.5 112.5t127 165.5
t65.5 199.5q20 142 -28.5 259.5t-148 188t-232.5 70.5q-100 0 -193 -40.5t-169.5 -112.5t-127 -165.5t-65.5 -199.5q-20 -142 28.5 -260t148 -188t232.5 -70zM830 1510l120 288h208l-188 -288h-140z" />
    <glyph glyph-name="Ocircumflex" unicode="&#xd4;" horiz-adv-x="1540" 
d="M668 -26q-142 0 -259.5 56.5t-198 156.5t-116 231.5t-14.5 281.5t93 281.5t181.5 231.5t242.5 156.5t275 56.5q143 0 260 -56.5t197.5 -156.5t116 -231.5t14.5 -281.5t-93 -281.5t-181.5 -231.5t-242 -156.5t-275.5 -56.5zM697 182q100 0 193 40.5t169.5 112.5t127 165.5
t65.5 199.5q20 142 -28.5 259.5t-148 188t-232.5 70.5q-100 0 -193 -40.5t-169.5 -112.5t-127 -165.5t-65.5 -199.5q-20 -142 28.5 -260t148 -188t232.5 -70zM1040 1798l153 -288h-139l-143 197l-196 -197h-138l230 288h233z" />
    <glyph glyph-name="Otilde" unicode="&#xd5;" horiz-adv-x="1540" 
d="M668 -26q-142 0 -259.5 56.5t-198 156.5t-116 231.5t-14.5 281.5t93 281.5t181.5 231.5t242.5 156.5t275 56.5q143 0 260 -56.5t197.5 -156.5t116 -231.5t14.5 -281.5t-93 -281.5t-181.5 -231.5t-242 -156.5t-275.5 -56.5zM697 182q100 0 193 40.5t169.5 112.5t127 165.5
t65.5 199.5q20 142 -28.5 259.5t-148 188t-232.5 70.5q-100 0 -193 -40.5t-169.5 -112.5t-127 -165.5t-65.5 -199.5q-20 -142 28.5 -260t148 -188t232.5 -70zM1039 1514q-37 0 -82 25t-89 56.5t-79.5 51.5t-54.5 9t-29 -33.5t-6 -57.5l-130 -34q-15 70 7 130t72 96.5
t119 36.5q37 0 81 -21.5t87 -50t77.5 -50.5t53.5 -22q32 0 39.5 32t1.5 59l133 41q15 -75 -9 -135.5t-74.5 -96.5t-117.5 -36z" />
    <glyph glyph-name="Odieresis" unicode="&#xd6;" horiz-adv-x="1540" 
d="M668 -26q-142 0 -259.5 56.5t-198 156.5t-116 231.5t-14.5 281.5t93 281.5t181.5 231.5t242.5 156.5t275 56.5q143 0 260 -56.5t197.5 -156.5t116 -231.5t14.5 -281.5t-93 -281.5t-181.5 -231.5t-242 -156.5t-275.5 -56.5zM697 182q100 0 193 40.5t169.5 112.5t127 165.5
t65.5 199.5q20 142 -28.5 259.5t-148 188t-232.5 70.5q-100 0 -193 -40.5t-169.5 -112.5t-127 -165.5t-65.5 -199.5q-20 -142 28.5 -260t148 -188t232.5 -70zM695 1474q-47 0 -75 31t-21 78q6 46 43 78t84 32q46 0 73.5 -32t21.5 -78q-7 -47 -43.5 -78t-82.5 -31zM1064 1474
q-48 0 -76 31t-21 78q6 46 43 78t84 32q46 0 74 -32t21 -78q-7 -47 -43.5 -78t-81.5 -31z" />
    <glyph glyph-name="multiply" unicode="&#xd7;" horiz-adv-x="1014" 
d="M153 173l-127 147l319 280l-239 280l167 147l240 -280l319 280l127 -147l-320 -280l241 -280l-168 -147l-241 280z" />
    <glyph glyph-name="Oslash" unicode="&#xd8;" horiz-adv-x="1540" 
d="M318 -99l-166 104l100 141q-99 99 -147 243t-25 311q21 150 93 281.5t181.5 231.5t242.5 156.5t275 56.5q72 0 136.5 -15t121.5 -43l94 131l166 -104l-101 -139q100 -99 147 -243.5t24 -312.5q-21 -150 -93 -281.5t-181.5 -231.5t-242 -156.5t-275.5 -56.5
q-71 0 -134.5 15.5t-121.5 43.5zM389 336l608 847q-70 35 -154 35q-100 0 -193 -40.5t-169.5 -112.5t-127 -165.5t-65.5 -199.5q-15 -108 13 -202.5t88 -161.5zM697 182q100 0 193 40.5t169.5 112.5t127 165.5t65.5 199.5q15 108 -12.5 202.5t-86.5 162.5l-608 -847
q69 -36 152 -36z" />
    <glyph glyph-name="Ugrave" unicode="&#xd9;" horiz-adv-x="1348" 
d="M572 -26q-168 0 -281 82t-162 220.5t-25 307.5l114 816h208l-114 -816q-15 -110 12.5 -201.5t97 -146t180.5 -54.5q112 0 196.5 54.5t137.5 146t68 201.5l114 816h208l-114 -816q-24 -169 -112 -307.5t-224 -220.5t-304 -82zM590 1798h208l40 -288h-138z" />
    <glyph glyph-name="Uacute" unicode="&#xda;" horiz-adv-x="1348" 
d="M572 -26q-168 0 -281 82t-162 220.5t-25 307.5l114 816h208l-114 -816q-15 -110 12.5 -201.5t97 -146t180.5 -54.5q112 0 196.5 54.5t137.5 146t68 201.5l114 816h208l-114 -816q-24 -169 -112 -307.5t-224 -220.5t-304 -82zM734 1510l120 288h208l-188 -288h-140z" />
    <glyph glyph-name="Ucircumflex" unicode="&#xdb;" horiz-adv-x="1348" 
d="M572 -26q-168 0 -281 82t-162 220.5t-25 307.5l114 816h208l-114 -816q-15 -110 12.5 -201.5t97 -146t180.5 -54.5q112 0 196.5 54.5t137.5 146t68 201.5l114 816h208l-114 -816q-24 -169 -112 -307.5t-224 -220.5t-304 -82zM944 1798l153 -288h-139l-143 197l-196 -197
h-138l230 288h233z" />
    <glyph glyph-name="Udieresis" unicode="&#xdc;" horiz-adv-x="1348" 
d="M572 -26q-168 0 -281 82t-162 220.5t-25 307.5l114 816h208l-114 -816q-15 -110 12.5 -201.5t97 -146t180.5 -54.5q112 0 196.5 54.5t137.5 146t68 201.5l114 816h208l-114 -816q-24 -169 -112 -307.5t-224 -220.5t-304 -82zM599 1474q-47 0 -75 31t-21 78q6 46 43 78
t84 32q46 0 73.5 -32t21.5 -78q-7 -47 -43.5 -78t-82.5 -31zM968 1474q-48 0 -76 31t-21 78q6 46 43 78t84 32q46 0 74 -32t21 -78q-7 -47 -43.5 -78t-81.5 -31z" />
    <glyph glyph-name="Yacute" unicode="&#xdd;" horiz-adv-x="1283" 
d="M1076 1400h245l-585 -768l-89 -632h-208l89 632l-370 768h245l261 -541zM701 1510l120 288h208l-188 -288h-140z" />
    <glyph glyph-name="Thorn" unicode="&#xde;" horiz-adv-x="1066" 
d="M22 0l196 1400h208l-40 -283h274q114 0 197.5 -56.5t124.5 -151t25 -209.5q-17 -117 -86 -211.5t-168.5 -150t-208.5 -55.5h-274l-40 -283h-208zM299 491h253q59 0 112.5 29.5t90 80t45.5 112.5q14 95 -41 159t-145 64h-253z" />
    <glyph glyph-name="germandbls" unicode="&#xdf;" horiz-adv-x="1119" 
d="M22 0l128 918q19 132 99 241.5t198.5 175t252.5 65.5q108 0 188 -52t119 -140.5t24 -199.5q-11 -80 -57.5 -162t-131.5 -122q82 -16 122.5 -70t50.5 -126t-1 -142q-15 -109 -81 -196.5t-163.5 -138.5t-207.5 -51h-74l-8 180h87q64 0 120.5 30t95 80t46.5 110
q13 91 -45.5 154.5t-154.5 65.5l-86 3l24 172l26 2q83 6 150.5 65t79.5 146t-38 149t-133 62q-69 0 -131 -34t-104 -91.5t-52 -126.5l-135 -967h-208z" />
    <glyph glyph-name="agrave" unicode="&#xe0;" horiz-adv-x="1185" 
d="M940 1000h208l-140 -1000h-209l12 145q-55 -77 -136 -124t-184 -47q-147 0 -258 72t-166 193.5t-34 269.5q15 107 68.5 201.5t134 165.5t180 111.5t206.5 40.5q109 0 185.5 -49.5t120.5 -126.5zM514 175q88 0 160 43.5t119.5 117.5t59.5 164q13 91 -13.5 165t-86.5 117.5
t-147 43.5q-88 0 -165.5 -44t-130 -118t-65.5 -164q-13 -91 20 -165t98.5 -117t150.5 -43zM468 1398h208l40 -288h-138z" />
    <glyph glyph-name="aacute" unicode="&#xe1;" horiz-adv-x="1185" 
d="M940 1000h208l-140 -1000h-209l12 145q-55 -77 -136 -124t-184 -47q-147 0 -258 72t-166 193.5t-34 269.5q15 107 68.5 201.5t134 165.5t180 111.5t206.5 40.5q109 0 185.5 -49.5t120.5 -126.5zM514 175q88 0 160 43.5t119.5 117.5t59.5 164q13 91 -13.5 165t-86.5 117.5
t-147 43.5q-88 0 -165.5 -44t-130 -118t-65.5 -164q-13 -91 20 -165t98.5 -117t150.5 -43zM611 1110l120 288h208l-188 -288h-140z" />
    <glyph glyph-name="acircumflex" unicode="&#xe2;" horiz-adv-x="1185" 
d="M940 1000h208l-140 -1000h-209l12 145q-55 -77 -136 -124t-184 -47q-147 0 -258 72t-166 193.5t-34 269.5q15 107 68.5 201.5t134 165.5t180 111.5t206.5 40.5q109 0 185.5 -49.5t120.5 -126.5zM514 175q88 0 160 43.5t119.5 117.5t59.5 164q13 91 -13.5 165t-86.5 117.5
t-147 43.5q-88 0 -165.5 -44t-130 -118t-65.5 -164q-13 -91 20 -165t98.5 -117t150.5 -43zM822 1398l153 -288h-139l-143 197l-196 -197h-138l230 288h233z" />
    <glyph glyph-name="atilde" unicode="&#xe3;" horiz-adv-x="1185" 
d="M940 1000h208l-140 -1000h-209l12 145q-55 -77 -136 -124t-184 -47q-147 0 -258 72t-166 193.5t-34 269.5q15 107 68.5 201.5t134 165.5t180 111.5t206.5 40.5q109 0 185.5 -49.5t120.5 -126.5zM514 175q88 0 160 43.5t119.5 117.5t59.5 164q13 91 -13.5 165t-86.5 117.5
t-147 43.5q-88 0 -165.5 -44t-130 -118t-65.5 -164q-13 -91 20 -165t98.5 -117t150.5 -43zM821 1114q-37 0 -82 25t-89 56.5t-79.5 51.5t-54.5 9t-29 -33.5t-6 -57.5l-130 -34q-15 70 7 130t72 96.5t119 36.5q37 0 81 -21.5t87 -50t77.5 -50.5t53.5 -22q32 0 39.5 32t1.5 59
l133 41q15 -75 -9 -135.5t-74.5 -96.5t-117.5 -36z" />
    <glyph glyph-name="adieresis" unicode="&#xe4;" horiz-adv-x="1185" 
d="M940 1000h208l-140 -1000h-209l12 145q-55 -77 -136 -124t-184 -47q-147 0 -258 72t-166 193.5t-34 269.5q15 107 68.5 201.5t134 165.5t180 111.5t206.5 40.5q109 0 185.5 -49.5t120.5 -126.5zM514 175q88 0 160 43.5t119.5 117.5t59.5 164q13 91 -13.5 165t-86.5 117.5
t-147 43.5q-88 0 -165.5 -44t-130 -118t-65.5 -164q-13 -91 20 -165t98.5 -117t150.5 -43zM476 1074q-47 0 -75 31t-21 78q6 46 43 78t84 32q46 0 73.5 -32t21.5 -78q-7 -47 -43.5 -78t-82.5 -31zM845 1074q-48 0 -76 31t-21 78q6 46 43 78t84 32q46 0 74 -32t21 -78
q-7 -47 -43.5 -78t-81.5 -31z" />
    <glyph glyph-name="aring" unicode="&#xe5;" horiz-adv-x="1185" 
d="M940 1000h208l-140 -1000h-209l12 145q-55 -77 -136 -124t-184 -47q-147 0 -258 72t-166 193.5t-34 269.5q15 107 68.5 201.5t134 165.5t180 111.5t206.5 40.5q109 0 185.5 -49.5t120.5 -126.5zM514 175q88 0 160 43.5t119.5 117.5t59.5 164q13 91 -13.5 165t-86.5 117.5
t-147 43.5q-88 0 -165.5 -44t-130 -118t-65.5 -164q-13 -91 20 -165t98.5 -117t150.5 -43zM660 1078q-72 0 -116.5 52.5t-34.5 124.5t69 123.5t132 51.5t117 -51.5t34 -123.5q-10 -74 -69 -125.5t-132 -51.5zM675 1182q29 0 53 21t29 52q4 29 -14 49.5t-48 20.5t-53.5 -20.5
t-27.5 -49.5q-5 -31 13 -52t48 -21z" />
    <glyph glyph-name="ae" unicode="&#xe6;" horiz-adv-x="1745" 
d="M247 -25q-92 0 -158.5 40.5t-98 109.5t-19.5 155q12 81 61.5 151t127 113t170.5 43h334q6 96 -51 164.5t-165 68.5q-77 0 -149 -36l-90 173q128 71 265 71q117 0 208.5 -55t139.5 -149q77 92 185 148t226 56q116 0 205 -48t145 -131.5t72.5 -191.5t-12.5 -230h-771
q4 -105 69 -175t175 -70q75 0 142.5 38.5t116.5 104.5l205 -49q-79 -133 -212 -217.5t-283 -84.5q-129 0 -228 65.5t-146 172.5q-48 -65 -121 -119t-161.5 -86t-181.5 -32zM887 586h568q-1 107 -70.5 182.5t-176.5 75.5q-72 0 -137 -34t-113.5 -92.5t-70.5 -131.5zM273 158
q89 0 165 42t127 108q46 52 75 120h-332q-59 0 -101.5 -39t-49.5 -95q-8 -53 22.5 -94.5t93.5 -41.5z" />
    <glyph glyph-name="ccedilla" unicode="&#xe7;" horiz-adv-x="1019" 
d="M714 284l172 -101q-82 -95 -193.5 -152t-234.5 -57q-138 0 -241.5 71t-154 190.5t-30.5 264.5q15 110 67.5 205.5t131.5 168t175.5 113.5t199.5 41q123 0 219 -57t151 -153l-201 -101q-34 50 -86.5 76.5t-111.5 26.5q-83 0 -155 -44.5t-121 -117t-61 -158.5t16.5 -158
t88.5 -116t142 -44q63 0 122.5 28t104.5 74zM415 -373q-71 -18 -128 17.5t-66 103.5l116 30q3 -22 21.5 -34t41.5 -5q24 6 38.5 26t11.5 43t-21 33.5t-42 6.5l-118 -7l167 235l93 -58l-49 -68q76 -28 87 -113q8 -68 -36 -130t-116 -80z" />
    <glyph glyph-name="egrave" unicode="&#xe8;" horiz-adv-x="1118" 
d="M458 -26q-138 0 -241.5 71t-154 190.5t-30.5 264.5q15 110 67.5 205.5t131.5 168t175.5 113.5t199.5 41q115 0 204.5 -47.5t145.5 -131t73 -192t-14 -230.5h-770q4 -104 68.5 -174t173.5 -71q76 0 144 38t117 105l204 -49q-79 -133 -211.5 -217.5t-282.5 -84.5zM260 586
h568q-1 107 -70 182.5t-177 75.5q-72 0 -137 -34t-113.5 -92.5t-70.5 -131.5zM420 1398h208l40 -288h-138z" />
    <glyph glyph-name="eacute" unicode="&#xe9;" horiz-adv-x="1118" 
d="M458 -26q-138 0 -241.5 71t-154 190.5t-30.5 264.5q15 110 67.5 205.5t131.5 168t175.5 113.5t199.5 41q115 0 204.5 -47.5t145.5 -131t73 -192t-14 -230.5h-770q4 -104 68.5 -174t173.5 -71q76 0 144 38t117 105l204 -49q-79 -133 -211.5 -217.5t-282.5 -84.5zM260 586
h568q-1 107 -70 182.5t-177 75.5q-72 0 -137 -34t-113.5 -92.5t-70.5 -131.5zM563 1110l120 288h208l-188 -288h-140z" />
    <glyph glyph-name="ecircumflex" unicode="&#xea;" horiz-adv-x="1118" 
d="M458 -26q-138 0 -241.5 71t-154 190.5t-30.5 264.5q15 110 67.5 205.5t131.5 168t175.5 113.5t199.5 41q115 0 204.5 -47.5t145.5 -131t73 -192t-14 -230.5h-770q4 -104 68.5 -174t173.5 -71q76 0 144 38t117 105l204 -49q-79 -133 -211.5 -217.5t-282.5 -84.5zM260 586
h568q-1 107 -70 182.5t-177 75.5q-72 0 -137 -34t-113.5 -92.5t-70.5 -131.5zM774 1398l153 -288h-139l-143 197l-196 -197h-138l230 288h233z" />
    <glyph glyph-name="edieresis" unicode="&#xeb;" horiz-adv-x="1118" 
d="M458 -26q-138 0 -241.5 71t-154 190.5t-30.5 264.5q15 110 67.5 205.5t131.5 168t175.5 113.5t199.5 41q115 0 204.5 -47.5t145.5 -131t73 -192t-14 -230.5h-770q4 -104 68.5 -174t173.5 -71q76 0 144 38t117 105l204 -49q-79 -133 -211.5 -217.5t-282.5 -84.5zM260 586
h568q-1 107 -70 182.5t-177 75.5q-72 0 -137 -34t-113.5 -92.5t-70.5 -131.5zM428 1074q-47 0 -75 31t-21 78q6 46 43 78t84 32q46 0 73.5 -32t21.5 -78q-7 -47 -43.5 -78t-82.5 -31zM797 1074q-48 0 -76 31t-21 78q6 46 43 78t84 32q46 0 74 -32t21 -78q-7 -47 -43.5 -78
t-81.5 -31z" />
    <glyph glyph-name="igrave" unicode="&#xec;" 
d="M162 1000h208l-140 -1000h-208zM84 1398h208l40 -288h-138z" />
    <glyph glyph-name="iacute" unicode="&#xed;" 
d="M162 1000h208l-140 -1000h-208zM228 1110l120 288h208l-188 -288h-140z" />
    <glyph glyph-name="icircumflex" unicode="&#xee;" 
d="M162 1000h208l-140 -1000h-208zM438 1398l153 -288h-139l-143 197l-196 -197h-138l230 288h233z" />
    <glyph glyph-name="idieresis" unicode="&#xef;" 
d="M162 1000h208l-140 -1000h-208zM93 1074q-47 0 -75 31t-21 78q6 46 43 78t84 32q46 0 73.5 -32t21.5 -78q-7 -47 -43.5 -78t-82.5 -31zM462 1074q-48 0 -76 31t-21 78q6 46 43 78t84 32q46 0 74 -32t21 -78q-7 -47 -43.5 -78t-81.5 -31z" />
    <glyph glyph-name="eth" unicode="&#xf0;" horiz-adv-x="1125" 
d="M481 -26q-138 0 -243 68t-157 182t-32 252q15 104 66.5 195.5t130.5 160.5t175.5 108t200.5 39q63 0 114.5 -25t83.5 -67q-13 87 -45 173.5t-94 149.5l-198 -172l-90 104l168 145q-58 21 -128 21l28 208q79 0 148.5 -19.5t130.5 -55.5l152 132l88 -104l-132 -114
q90 -91 145 -222t72.5 -288.5t-6.5 -328.5q-22 -159 -103.5 -281t-204.5 -191.5t-270 -69.5zM510 182q83 0 155.5 40.5t121.5 107.5t60 146q11 81 -19.5 148t-91.5 107t-143 40t-155 -40t-121.5 -107.5t-59.5 -147.5t19 -147t91.5 -107t142.5 -40z" />
    <glyph glyph-name="ntilde" unicode="&#xf1;" horiz-adv-x="1100" 
d="M1010 628l-88 -628h-208l81 576q9 67 -16 122t-75.5 87.5t-116.5 32.5q-67 0 -126.5 -32.5t-99.5 -87.5t-50 -122l-81 -576h-208l140 1000h208l-14 -106q60 62 141 98t169 36q111 0 194 -54t124.5 -145t25.5 -201zM796 1114q-37 0 -82 25t-89 56.5t-79.5 51.5t-54.5 9
t-29 -33.5t-6 -57.5l-130 -34q-15 70 7 130t72 96.5t119 36.5q37 0 81 -21.5t87 -50t77.5 -50.5t53.5 -22q32 0 39.5 32t1.5 59l133 41q15 -75 -9 -135.5t-74.5 -96.5t-117.5 -36z" />
    <glyph glyph-name="ograve" unicode="&#xf2;" horiz-adv-x="1120" 
d="M458 -26q-138 0 -241.5 71t-154 190.5t-30.5 264.5q15 110 67.5 205.5t131.5 168t175.5 113.5t199.5 41q138 0 241.5 -71t154.5 -191t30 -266q-15 -109 -67.5 -204t-131.5 -167.5t-175 -113.5t-200 -41zM487 182q83 0 155 44t121 116.5t61 157.5q12 87 -17 160t-89 116.5
t-141 43.5q-82 0 -154.5 -44t-121.5 -117t-61 -159q-13 -89 17 -161t90 -114.5t140 -42.5zM420 1398h208l40 -288h-138z" />
    <glyph glyph-name="oacute" unicode="&#xf3;" horiz-adv-x="1120" 
d="M458 -26q-138 0 -241.5 71t-154 190.5t-30.5 264.5q15 110 67.5 205.5t131.5 168t175.5 113.5t199.5 41q138 0 241.5 -71t154.5 -191t30 -266q-15 -109 -67.5 -204t-131.5 -167.5t-175 -113.5t-200 -41zM487 182q83 0 155 44t121 116.5t61 157.5q12 87 -17 160t-89 116.5
t-141 43.5q-82 0 -154.5 -44t-121.5 -117t-61 -159q-13 -89 17 -161t90 -114.5t140 -42.5zM564 1110l120 288h208l-188 -288h-140z" />
    <glyph glyph-name="ocircumflex" unicode="&#xf4;" horiz-adv-x="1120" 
d="M458 -26q-138 0 -241.5 71t-154 190.5t-30.5 264.5q15 110 67.5 205.5t131.5 168t175.5 113.5t199.5 41q138 0 241.5 -71t154.5 -191t30 -266q-15 -109 -67.5 -204t-131.5 -167.5t-175 -113.5t-200 -41zM487 182q83 0 155 44t121 116.5t61 157.5q12 87 -17 160t-89 116.5
t-141 43.5q-82 0 -154.5 -44t-121.5 -117t-61 -159q-13 -89 17 -161t90 -114.5t140 -42.5zM774 1398l153 -288h-139l-143 197l-196 -197h-138l230 288h233z" />
    <glyph glyph-name="otilde" unicode="&#xf5;" horiz-adv-x="1120" 
d="M458 -26q-138 0 -241.5 71t-154 190.5t-30.5 264.5q15 110 67.5 205.5t131.5 168t175.5 113.5t199.5 41q138 0 241.5 -71t154.5 -191t30 -266q-15 -109 -67.5 -204t-131.5 -167.5t-175 -113.5t-200 -41zM487 182q83 0 155 44t121 116.5t61 157.5q12 87 -17 160t-89 116.5
t-141 43.5q-82 0 -154.5 -44t-121.5 -117t-61 -159q-13 -89 17 -161t90 -114.5t140 -42.5zM773 1114q-37 0 -82 25t-89 56.5t-79.5 51.5t-54.5 9t-29 -33.5t-6 -57.5l-130 -34q-15 70 7 130t72 96.5t119 36.5q37 0 81 -21.5t87 -50t77.5 -50.5t53.5 -22q32 0 39.5 32t1.5 59
l133 41q15 -75 -9 -135.5t-74.5 -96.5t-117.5 -36z" />
    <glyph glyph-name="odieresis" unicode="&#xf6;" horiz-adv-x="1120" 
d="M458 -26q-138 0 -241.5 71t-154 190.5t-30.5 264.5q15 110 67.5 205.5t131.5 168t175.5 113.5t199.5 41q138 0 241.5 -71t154.5 -191t30 -266q-15 -109 -67.5 -204t-131.5 -167.5t-175 -113.5t-200 -41zM487 182q83 0 155 44t121 116.5t61 157.5q12 87 -17 160t-89 116.5
t-141 43.5q-82 0 -154.5 -44t-121.5 -117t-61 -159q-13 -89 17 -161t90 -114.5t140 -42.5zM429 1074q-47 0 -75 31t-21 78q6 46 43 78t84 32q46 0 73.5 -32t21.5 -78q-7 -47 -43.5 -78t-82.5 -31zM798 1074q-48 0 -76 31t-21 78q6 46 43 78t84 32q46 0 74 -32t21 -78
q-7 -47 -43.5 -78t-81.5 -31z" />
    <glyph glyph-name="divide" unicode="&#xf7;" horiz-adv-x="1160" 
d="M634 1085q50 0 81 -37.5t24 -86.5q-7 -51 -48.5 -87t-91.5 -36q-53 0 -82.5 36t-22.5 87q7 49 47 86.5t93 37.5zM51 496l30 208h1000l-30 -208h-1000zM532 362q50 0 82 -37t25 -87q-7 -51 -49 -87t-92 -36q-53 0 -83 36t-23 87q7 50 47 87t93 37z" />
    <glyph glyph-name="oslash" unicode="&#xf8;" horiz-adv-x="1120" 
d="M222 -68l-136 85l64 88q-69 72 -101.5 174.5t-16.5 220.5q15 110 67.5 205.5t131.5 168t175.5 113.5t199.5 41q98 0 177 -38l60 81l136 -85l-63 -88q69 -72 100.5 -175t15.5 -223q-15 -109 -67.5 -204t-131.5 -167.5t-175 -113.5t-200 -41q-49 0 -94 10.5t-84 27.5z
M277 281l388 543q-70 22 -142.5 5t-136 -65.5t-107.5 -119.5t-56 -155q-8 -63 7 -116t47 -92zM399 179q72 -23 145 -5.5t136 65.5t105.5 118.5t54.5 153.5q9 63 -5.5 117t-46.5 93z" />
    <glyph glyph-name="ugrave" unicode="&#xf9;" horiz-adv-x="1060" 
d="M35 375l87 625h208l-81 -574q-9 -67 16 -122t75.5 -87.5t116.5 -32.5q67 0 126.5 32.5t100 87.5t49.5 122l80 574h208l-139 -1000h-208l14 108q-60 -62 -141 -98t-168 -36q-111 0 -194.5 54t-124.5 145t-25 202zM414 1399h208l40 -288h-138z" />
    <glyph glyph-name="uacute" unicode="&#xfa;" horiz-adv-x="1060" 
d="M35 375l87 625h208l-81 -574q-9 -67 16 -122t75.5 -87.5t116.5 -32.5q67 0 126.5 32.5t100 87.5t49.5 122l80 574h208l-139 -1000h-208l14 108q-60 -62 -141 -98t-168 -36q-111 0 -194.5 54t-124.5 145t-25 202zM558 1111l120 288h208l-188 -288h-140z" />
    <glyph glyph-name="ucircumflex" unicode="&#xfb;" horiz-adv-x="1060" 
d="M35 375l87 625h208l-81 -574q-9 -67 16 -122t75.5 -87.5t116.5 -32.5q67 0 126.5 32.5t100 87.5t49.5 122l80 574h208l-139 -1000h-208l14 108q-60 -62 -141 -98t-168 -36q-111 0 -194.5 54t-124.5 145t-25 202zM768 1399l153 -288h-139l-143 197l-196 -197h-138l230 288
h233z" />
    <glyph glyph-name="udieresis" unicode="&#xfc;" horiz-adv-x="1060" 
d="M35 375l87 625h208l-81 -574q-9 -67 16 -122t75.5 -87.5t116.5 -32.5q67 0 126.5 32.5t100 87.5t49.5 122l80 574h208l-139 -1000h-208l14 108q-60 -62 -141 -98t-168 -36q-111 0 -194.5 54t-124.5 145t-25 202zM423 1075q-47 0 -75 31t-21 78q6 46 43 78t84 32
q46 0 73.5 -32t21.5 -78q-7 -47 -43.5 -78t-82.5 -31zM792 1075q-48 0 -76 31t-21 78q6 46 43 78t84 32q46 0 74 -32t21 -78q-7 -47 -43.5 -78t-81.5 -31z" />
    <glyph glyph-name="yacute" unicode="&#xfd;" horiz-adv-x="1107" 
d="M847 1000h222l-759 -1500h-221l252 500l-219 1000h227l136 -715zM557 1110l120 288h208l-188 -288h-140z" />
    <glyph glyph-name="thorn" unicode="&#xfe;" horiz-adv-x="1226" 
d="M-49 -500l267 1900h208l-76 -547q60 77 145 125t191 48q146 0 255 -71t163 -190.5t34 -264.5q-16 -109 -70 -205t-136.5 -168.5t-183.5 -113.5t-210 -41q-106 0 -177.5 48t-110.5 125l-91 -645h-208zM563 174q86 0 164 43.5t132 117.5t67 165q13 89 -19.5 163t-98.5 118
t-153 44t-159 -43.5t-119 -117.5t-60 -164q-12 -90 14 -164t85.5 -118t146.5 -44z" />
    <glyph glyph-name="ydieresis" unicode="&#xff;" horiz-adv-x="1107" 
d="M847 1000h222l-759 -1500h-221l252 500l-219 1000h227l136 -715zM422 1074q-47 0 -75 31t-21 78q6 46 43 78t84 32q46 0 73.5 -32t21.5 -78q-7 -47 -43.5 -78t-82.5 -31zM791 1074q-48 0 -76 31t-21 78q6 46 43 78t84 32q46 0 74 -32t21 -78q-7 -47 -43.5 -78t-81.5 -31z
" />
    <glyph glyph-name="Amacron" unicode="&#x100;" horiz-adv-x="1421" 
d="M687 1400h243l313 -1400h-220l-60 266h-626l-134 -266h-221zM442 474h474l-146 650zM514 1711h676l-23 -158h-676z" />
    <glyph glyph-name="amacron" unicode="&#x101;" horiz-adv-x="1185" 
d="M940 1000h208l-140 -1000h-209l12 145q-55 -77 -136 -124t-184 -47q-147 0 -258 72t-166 193.5t-34 269.5q15 107 68.5 201.5t134 165.5t180 111.5t206.5 40.5q109 0 185.5 -49.5t120.5 -126.5zM514 175q88 0 160 43.5t119.5 117.5t59.5 164q13 91 -13.5 165t-86.5 117.5
t-147 43.5q-88 0 -165.5 -44t-130 -118t-65.5 -164q-13 -91 20 -165t98.5 -117t150.5 -43zM355 1311h676l-23 -158h-676z" />
    <glyph glyph-name="Abreve" unicode="&#x102;" horiz-adv-x="1421" 
d="M687 1400h243l313 -1400h-220l-60 266h-626l-134 -266h-221zM442 474h474l-146 650zM821 1488q-91 0 -160 45t-103.5 120.5t-22.5 166.5h134q-11 -82 40 -140t131 -58q81 0 147 57.5t78 140.5h134q-13 -93 -68.5 -168.5t-137 -119.5t-172.5 -44z" />
    <glyph glyph-name="abreve" unicode="&#x103;" horiz-adv-x="1185" 
d="M940 1000h208l-140 -1000h-209l12 145q-55 -77 -136 -124t-184 -47q-147 0 -258 72t-166 193.5t-34 269.5q15 107 68.5 201.5t134 165.5t180 111.5t206.5 40.5q109 0 185.5 -49.5t120.5 -126.5zM514 175q88 0 160 43.5t119.5 117.5t59.5 164q13 91 -13.5 165t-86.5 117.5
t-147 43.5q-88 0 -165.5 -44t-130 -118t-65.5 -164q-13 -91 20 -165t98.5 -117t150.5 -43zM662 1088q-91 0 -160 45t-103.5 120.5t-22.5 166.5h134q-11 -82 40 -140t131 -58q81 0 147 57.5t78 140.5h134q-13 -93 -68.5 -168.5t-137 -119.5t-172.5 -44z" />
    <glyph glyph-name="Aogonek" unicode="&#x104;" horiz-adv-x="1421" 
d="M687 1400h243l313 -1400h-220l-60 266h-626l-134 -266h-221zM442 474h474l-146 650zM1062 -436q-98 1 -147.5 68.5t-37.5 150.5q6 41 27 80.5t58 71.5l192 168l89 -103q-99 -87 -151.5 -133.5t-57.5 -91.5q-4 -25 10.5 -46t45.5 -21q38 0 71.5 27t40.5 70h136
q-9 -65 -49 -120t-99.5 -88t-127.5 -33z" />
    <glyph glyph-name="aogonek" unicode="&#x105;" horiz-adv-x="1185" 
d="M940 1000h208l-140 -1000h-209l12 145q-55 -77 -136 -124t-184 -47q-147 0 -258 72t-166 193.5t-34 269.5q15 107 68.5 201.5t134 165.5t180 111.5t206.5 40.5q109 0 185.5 -49.5t120.5 -126.5zM514 175q88 0 160 43.5t119.5 117.5t59.5 164q13 91 -13.5 165t-86.5 117.5
t-147 43.5q-88 0 -165.5 -44t-130 -118t-65.5 -164q-13 -91 20 -165t98.5 -117t150.5 -43zM826 -436q-98 1 -147.5 68.5t-37.5 150.5q6 41 27 80.5t58 71.5l192 168l89 -103q-99 -87 -151.5 -133.5t-57.5 -91.5q-4 -25 10.5 -46t45.5 -21q38 0 71.5 27t40.5 70h136
q-9 -65 -49 -120t-99.5 -88t-127.5 -33z" />
    <glyph glyph-name="Cacute" unicode="&#x106;" horiz-adv-x="1418" 
d="M666 -26q-142 0 -259 56.5t-197.5 156.5t-115.5 231.5t-14 281.5q21 151 93 282.5t180.5 231t241.5 156t275 56.5q170 0 301.5 -79t207.5 -210l-199 -99q-53 82 -142 131t-197 49q-100 0 -193 -40.5t-169 -112.5t-126 -165.5t-65 -199.5q-20 -143 28 -260.5t147 -187.5
t232 -70q111 0 213 49.5t177 131.5l171 -101q-112 -131 -266 -209.5t-324 -78.5zM828 1510l120 288h208l-188 -288h-140z" />
    <glyph glyph-name="cacute" unicode="&#x107;" horiz-adv-x="1019" 
d="M714 284l172 -101q-82 -95 -193.5 -152t-234.5 -57q-138 0 -241.5 71t-154 190.5t-30.5 264.5q15 110 67.5 205.5t131.5 168t175.5 113.5t199.5 41q123 0 219 -57t151 -153l-201 -101q-34 50 -86.5 76.5t-111.5 26.5q-83 0 -155 -44.5t-121 -117t-61 -158.5t16.5 -158
t88.5 -116t142 -44q63 0 122.5 28t104.5 74zM564 1110l120 288h208l-188 -288h-140z" />
    <glyph glyph-name="Ccircumflex" unicode="&#x108;" horiz-adv-x="1418" 
d="M666 -26q-142 0 -259 56.5t-197.5 156.5t-115.5 231.5t-14 281.5q21 151 93 282.5t180.5 231t241.5 156t275 56.5q170 0 301.5 -79t207.5 -210l-199 -99q-53 82 -142 131t-197 49q-100 0 -193 -40.5t-169 -112.5t-126 -165.5t-65 -199.5q-20 -143 28 -260.5t147 -187.5
t232 -70q111 0 213 49.5t177 131.5l171 -101q-112 -131 -266 -209.5t-324 -78.5zM1038 1798l153 -288h-139l-143 197l-196 -197h-138l230 288h233z" />
    <glyph glyph-name="ccircumflex" unicode="&#x109;" horiz-adv-x="1019" 
d="M714 284l172 -101q-82 -95 -193.5 -152t-234.5 -57q-138 0 -241.5 71t-154 190.5t-30.5 264.5q15 110 67.5 205.5t131.5 168t175.5 113.5t199.5 41q123 0 219 -57t151 -153l-201 -101q-34 50 -86.5 76.5t-111.5 26.5q-83 0 -155 -44.5t-121 -117t-61 -158.5t16.5 -158
t88.5 -116t142 -44q63 0 122.5 28t104.5 74zM774 1398l153 -288h-139l-143 197l-196 -197h-138l230 288h233z" />
    <glyph glyph-name="Cdotaccent" unicode="&#x10a;" horiz-adv-x="1418" 
d="M666 -26q-142 0 -259 56.5t-197.5 156.5t-115.5 231.5t-14 281.5q21 151 93 282.5t180.5 231t241.5 156t275 56.5q170 0 301.5 -79t207.5 -210l-199 -99q-53 82 -142 131t-197 49q-100 0 -193 -40.5t-169 -112.5t-126 -165.5t-65 -199.5q-20 -143 28 -260.5t147 -187.5
t232 -70q111 0 213 49.5t177 131.5l171 -101q-112 -131 -266 -209.5t-324 -78.5zM888 1545q-47 0 -75 31t-21 78q7 46 43 77.5t83 31.5q46 0 73.5 -31.5t21.5 -77.5q-7 -47 -42.5 -78t-82.5 -31z" />
    <glyph glyph-name="cdotaccent" unicode="&#x10b;" horiz-adv-x="1019" 
d="M714 284l172 -101q-82 -95 -193.5 -152t-234.5 -57q-138 0 -241.5 71t-154 190.5t-30.5 264.5q15 110 67.5 205.5t131.5 168t175.5 113.5t199.5 41q123 0 219 -57t151 -153l-201 -101q-34 50 -86.5 76.5t-111.5 26.5q-83 0 -155 -44.5t-121 -117t-61 -158.5t16.5 -158
t88.5 -116t142 -44q63 0 122.5 28t104.5 74zM624 1145q-47 0 -75 31t-21 78q7 46 43 77.5t83 31.5q46 0 73.5 -31.5t21.5 -77.5q-7 -47 -42.5 -78t-82.5 -31z" />
    <glyph glyph-name="Ccaron" unicode="&#x10c;" horiz-adv-x="1418" 
d="M666 -26q-142 0 -259 56.5t-197.5 156.5t-115.5 231.5t-14 281.5q21 151 93 282.5t180.5 231t241.5 156t275 56.5q170 0 301.5 -79t207.5 -210l-199 -99q-53 82 -142 131t-197 49q-100 0 -193 -40.5t-169 -112.5t-126 -165.5t-65 -199.5q-20 -143 28 -260.5t147 -187.5
t232 -70q111 0 213 49.5t177 131.5l171 -101q-112 -131 -266 -209.5t-324 -78.5zM765 1510l-153 288h138l144 -197l195 197h139l-230 -288h-233z" />
    <glyph glyph-name="ccaron" unicode="&#x10d;" horiz-adv-x="1019" 
d="M714 284l172 -101q-82 -95 -193.5 -152t-234.5 -57q-138 0 -241.5 71t-154 190.5t-30.5 264.5q15 110 67.5 205.5t131.5 168t175.5 113.5t199.5 41q123 0 219 -57t151 -153l-201 -101q-34 50 -86.5 76.5t-111.5 26.5q-83 0 -155 -44.5t-121 -117t-61 -158.5t16.5 -158
t88.5 -116t142 -44q63 0 122.5 28t104.5 74zM501 1110l-153 288h138l144 -197l195 197h139l-230 -288h-233z" />
    <glyph glyph-name="Dcaron" unicode="&#x10e;" horiz-adv-x="1343" 
d="M22 0l196 1400h463q145 0 264.5 -54.5t202 -151t119.5 -223t16 -271.5q-20 -145 -92 -271.5t-182 -223t-244.5 -151t-279.5 -54.5h-463zM259 208h255q101 0 195.5 38t172 105.5t128.5 157t65 191.5q19 136 -32 247.5t-153.5 178t-237.5 66.5h-255zM649 1510l-153 288h138
l144 -197l195 197h139l-230 -288h-233z" />
    <glyph glyph-name="dcaron" unicode="&#x10f;" horiz-adv-x="1227" 
d="M1011 1500h208l-210 -1500h-208l21 147q-61 -78 -146.5 -125.5t-191.5 -47.5q-145 0 -254.5 71t-163.5 190.5t-34 264.5q15 109 69.5 204.5t137 168t183.5 113.5t210 41q106 0 178 -47.5t111 -124.5zM514 175q88 0 160 43.5t119.5 117.5t59.5 164q13 91 -13.5 165
t-86.5 117.5t-147 43.5q-88 0 -165.5 -44t-130 -118t-65.5 -164q-13 -91 20 -165t98.5 -117t150.5 -43zM1245 1212l120 288h208l-188 -288h-140z" />
    <glyph glyph-name="Emacron" unicode="&#x112;" horiz-adv-x="1089" 
d="M22 0l196 1400h869l-29 -208h-661l-47 -338h532l-29 -208h-533l-61 -438h661l-29 -208h-869zM349 1711h676l-23 -158h-676z" />
    <glyph glyph-name="emacron" unicode="&#x113;" horiz-adv-x="1118" 
d="M458 -26q-138 0 -241.5 71t-154 190.5t-30.5 264.5q15 110 67.5 205.5t131.5 168t175.5 113.5t199.5 41q115 0 204.5 -47.5t145.5 -131t73 -192t-14 -230.5h-770q4 -104 68.5 -174t173.5 -71q76 0 144 38t117 105l204 -49q-79 -133 -211.5 -217.5t-282.5 -84.5zM260 586
h568q-1 107 -70 182.5t-177 75.5q-72 0 -137 -34t-113.5 -92.5t-70.5 -131.5zM307 1311h676l-23 -158h-676z" />
    <glyph glyph-name="Edotaccent" unicode="&#x116;" horiz-adv-x="1089" 
d="M22 0l196 1400h869l-29 -208h-661l-47 -338h532l-29 -208h-533l-61 -438h661l-29 -208h-869zM664 1545q-47 0 -75 31t-21 78q7 46 43 77.5t83 31.5q46 0 73.5 -31.5t21.5 -77.5q-7 -47 -42.5 -78t-82.5 -31z" />
    <glyph glyph-name="edotaccent" unicode="&#x117;" horiz-adv-x="1118" 
d="M458 -26q-138 0 -241.5 71t-154 190.5t-30.5 264.5q15 110 67.5 205.5t131.5 168t175.5 113.5t199.5 41q115 0 204.5 -47.5t145.5 -131t73 -192t-14 -230.5h-770q4 -104 68.5 -174t173.5 -71q76 0 144 38t117 105l204 -49q-79 -133 -211.5 -217.5t-282.5 -84.5zM260 586
h568q-1 107 -70 182.5t-177 75.5q-72 0 -137 -34t-113.5 -92.5t-70.5 -131.5zM623 1145q-47 0 -75 31t-21 78q7 46 43 77.5t83 31.5q46 0 73.5 -31.5t21.5 -77.5q-7 -47 -42.5 -78t-82.5 -31z" />
    <glyph glyph-name="Eogonek" unicode="&#x118;" horiz-adv-x="1089" 
d="M22 0l196 1400h869l-29 -208h-661l-47 -338h532l-29 -208h-533l-61 -438h661l-29 -208h-869zM597 -436q-98 1 -147.5 68.5t-37.5 150.5q6 41 27 80.5t58 71.5l192 168l89 -103q-99 -87 -151.5 -133.5t-57.5 -91.5q-4 -25 10.5 -46t45.5 -21q38 0 71.5 27t40.5 70h136
q-9 -65 -49 -120t-99.5 -88t-127.5 -33z" />
    <glyph glyph-name="eogonek" unicode="&#x119;" horiz-adv-x="1118" 
d="M458 -26q-138 0 -241.5 71t-154 190.5t-30.5 264.5q15 110 67.5 205.5t131.5 168t175.5 113.5t199.5 41q115 0 204.5 -47.5t145.5 -131t73 -192t-14 -230.5h-770q4 -104 68.5 -174t173.5 -71q76 0 144 38t117 105l204 -49q-79 -133 -211.5 -217.5t-282.5 -84.5zM260 586
h568q-1 107 -70 182.5t-177 75.5q-72 0 -137 -34t-113.5 -92.5t-70.5 -131.5zM436 -436q-98 1 -147.5 68.5t-37.5 150.5q6 41 27 80.5t58 71.5l192 168l89 -103q-99 -87 -151.5 -133.5t-57.5 -91.5q-4 -25 10.5 -46t45.5 -21q38 0 71.5 27t40.5 70h136q-9 -65 -49 -120
t-99.5 -88t-127.5 -33z" />
    <glyph glyph-name="Ecaron" unicode="&#x11a;" horiz-adv-x="1089" 
d="M22 0l196 1400h869l-29 -208h-661l-47 -338h532l-29 -208h-533l-61 -438h661l-29 -208h-869zM542 1510l-153 288h138l144 -197l195 197h139l-230 -288h-233z" />
    <glyph glyph-name="ecaron" unicode="&#x11b;" horiz-adv-x="1118" 
d="M458 -26q-138 0 -241.5 71t-154 190.5t-30.5 264.5q15 110 67.5 205.5t131.5 168t175.5 113.5t199.5 41q115 0 204.5 -47.5t145.5 -131t73 -192t-14 -230.5h-770q4 -104 68.5 -174t173.5 -71q76 0 144 38t117 105l204 -49q-79 -133 -211.5 -217.5t-282.5 -84.5zM260 586
h568q-1 107 -70 182.5t-177 75.5q-72 0 -137 -34t-113.5 -92.5t-70.5 -131.5zM501 1110l-153 288h138l144 -197l195 197h139l-230 -288h-233z" />
    <glyph glyph-name="Gcircumflex" unicode="&#x11c;" horiz-adv-x="1536" 
d="M667 -26q-146 0 -263 57t-197 157t-114 232t-13 281q22 157 96.5 289t185.5 229.5t243 151.5t269 54q154 0 287 -72.5t219 -215.5l-200 -101q-60 90 -148.5 136t-188.5 46q-97 0 -189.5 -39.5t-169.5 -110t-129 -165.5t-67 -205q-20 -143 28.5 -260t148.5 -186.5
t233 -69.5q98 0 191.5 42t171 118t125.5 177h-297l26 184h542q-20 -150 -91.5 -282t-180.5 -232.5t-242 -157.5t-276 -57zM1040 1798l153 -288h-139l-143 197l-196 -197h-138l230 288h233z" />
    <glyph glyph-name="gcircumflex" unicode="&#x11d;" horiz-adv-x="1209" 
d="M923 1000h208l-144 -1026q-15 -103 -70 -190t-138.5 -150.5t-184 -98.5t-204.5 -35q-105 0 -195.5 44.5t-153 120.5t-85.5 172l203 86q16 -93 91 -153.5t170 -60.5q82 0 160.5 34t133 93.5t65.5 137.5l24 169q-60 -75 -144 -122t-185 -47q-142 0 -249.5 71t-160 190.5
t-32.5 264.5q15 109 68.5 204.5t135 168t180.5 113.5t206 41q101 0 171.5 -47t109.5 -123zM504 175q86 0 157.5 44.5t118.5 118.5t59 162q13 89 -13.5 163t-85.5 118.5t-144 44.5t-160.5 -44t-126.5 -118t-64 -164t18 -164t94.5 -117.5t146.5 -43.5zM819 1398l153 -288h-139
l-143 197l-196 -197h-138l230 288h233z" />
    <glyph glyph-name="Gbreve" unicode="&#x11e;" horiz-adv-x="1536" 
d="M667 -26q-146 0 -263 57t-197 157t-114 232t-13 281q22 157 96.5 289t185.5 229.5t243 151.5t269 54q154 0 287 -72.5t219 -215.5l-200 -101q-60 90 -148.5 136t-188.5 46q-97 0 -189.5 -39.5t-169.5 -110t-129 -165.5t-67 -205q-20 -143 28.5 -260t148.5 -186.5
t233 -69.5q98 0 191.5 42t171 118t125.5 177h-297l26 184h542q-20 -150 -91.5 -282t-180.5 -232.5t-242 -157.5t-276 -57zM881 1488q-91 0 -160 45t-103.5 120.5t-22.5 166.5h134q-11 -82 40 -140t131 -58q81 0 147 57.5t78 140.5h134q-13 -93 -68.5 -168.5t-137 -119.5
t-172.5 -44z" />
    <glyph glyph-name="gbreve" unicode="&#x11f;" horiz-adv-x="1209" 
d="M923 1000h208l-144 -1026q-15 -103 -70 -190t-138.5 -150.5t-184 -98.5t-204.5 -35q-105 0 -195.5 44.5t-153 120.5t-85.5 172l203 86q16 -93 91 -153.5t170 -60.5q82 0 160.5 34t133 93.5t65.5 137.5l24 169q-60 -75 -144 -122t-185 -47q-142 0 -249.5 71t-160 190.5
t-32.5 264.5q15 109 68.5 204.5t135 168t180.5 113.5t206 41q101 0 171.5 -47t109.5 -123zM504 175q86 0 157.5 44.5t118.5 118.5t59 162q13 89 -13.5 163t-85.5 118.5t-144 44.5t-160.5 -44t-126.5 -118t-64 -164t18 -164t94.5 -117.5t146.5 -43.5zM660 1088q-91 0 -160 45
t-103.5 120.5t-22.5 166.5h134q-11 -82 40 -140t131 -58q81 0 147 57.5t78 140.5h134q-13 -93 -68.5 -168.5t-137 -119.5t-172.5 -44z" />
    <glyph glyph-name="Gdotaccent" unicode="&#x120;" horiz-adv-x="1536" 
d="M667 -26q-146 0 -263 57t-197 157t-114 232t-13 281q22 157 96.5 289t185.5 229.5t243 151.5t269 54q154 0 287 -72.5t219 -215.5l-200 -101q-60 90 -148.5 136t-188.5 46q-97 0 -189.5 -39.5t-169.5 -110t-129 -165.5t-67 -205q-20 -143 28.5 -260t148.5 -186.5
t233 -69.5q98 0 191.5 42t171 118t125.5 177h-297l26 184h542q-20 -150 -91.5 -282t-180.5 -232.5t-242 -157.5t-276 -57zM889 1545q-47 0 -75 31t-21 78q7 46 43 77.5t83 31.5q46 0 73.5 -31.5t21.5 -77.5q-7 -47 -42.5 -78t-82.5 -31z" />
    <glyph glyph-name="gdotaccent" unicode="&#x121;" horiz-adv-x="1209" 
d="M923 1000h208l-144 -1026q-15 -103 -70 -190t-138.5 -150.5t-184 -98.5t-204.5 -35q-105 0 -195.5 44.5t-153 120.5t-85.5 172l203 86q16 -93 91 -153.5t170 -60.5q82 0 160.5 34t133 93.5t65.5 137.5l24 169q-60 -75 -144 -122t-185 -47q-142 0 -249.5 71t-160 190.5
t-32.5 264.5q15 109 68.5 204.5t135 168t180.5 113.5t206 41q101 0 171.5 -47t109.5 -123zM504 175q86 0 157.5 44.5t118.5 118.5t59 162q13 89 -13.5 163t-85.5 118.5t-144 44.5t-160.5 -44t-126.5 -118t-64 -164t18 -164t94.5 -117.5t146.5 -43.5zM668 1145q-47 0 -75 31
t-21 78q7 46 43 77.5t83 31.5q46 0 73.5 -31.5t21.5 -77.5q-7 -47 -42.5 -78t-82.5 -31z" />
    <glyph glyph-name="uni0122" unicode="&#x122;" horiz-adv-x="1536" 
d="M667 -26q-146 0 -263 57t-197 157t-114 232t-13 281q22 157 96.5 289t185.5 229.5t243 151.5t269 54q154 0 287 -72.5t219 -215.5l-200 -101q-60 90 -148.5 136t-188.5 46q-97 0 -189.5 -39.5t-169.5 -110t-129 -165.5t-67 -205q-20 -143 28.5 -260t148.5 -186.5
t233 -69.5q98 0 191.5 42t171 118t125.5 177h-297l26 184h542q-20 -150 -91.5 -282t-180.5 -232.5t-242 -157.5t-276 -57zM442 -441l109 338h208l-179 -338h-138z" />
    <glyph glyph-name="Hcircumflex" unicode="&#x124;" horiz-adv-x="1289" 
d="M1059 1400h208l-196 -1400h-208l91 646h-634l-90 -646h-208l196 1400h208l-76 -546h633zM915 1798l153 -288h-139l-143 197l-196 -197h-138l230 288h233z" />
    <glyph glyph-name="hcircumflex" unicode="&#x125;" horiz-adv-x="1101" 
d="M1011 628l-88 -628h-208l81 576q9 67 -16 122t-75.5 87.5t-116.5 32.5q-67 0 -126.5 -32.5t-99.5 -87.5t-50 -122l-81 -576h-208l210 1500h208l-84 -606q60 62 141 98t169 36q111 0 194 -54t124.5 -145t25.5 -201zM870 1823l153 -288h-139l-143 197l-196 -197h-138
l230 288h233z" />
    <glyph glyph-name="Itilde" unicode="&#x128;" horiz-adv-x="508" 
d="M52 0l196 1400h208l-196 -1400h-208zM523 1514q-37 0 -82 25t-89 56.5t-79.5 51.5t-54.5 9t-29 -33.5t-6 -57.5l-130 -34q-15 70 7 130t72 96.5t119 36.5q37 0 81 -21.5t87 -50t77.5 -50.5t53.5 -22q32 0 39.5 32t1.5 59l133 41q15 -75 -9 -135.5t-74.5 -96.5t-117.5 -36
z" />
    <glyph glyph-name="itilde" unicode="&#x129;" 
d="M396 1091q-29 0 -63.5 20.5t-68 45.5t-60.5 40.5t-41 7.5q-33 -20 -26 -73l-100 -28q-17 85 27.5 148t123.5 63q28 0 61.5 -17.5t66.5 -40t59.5 -40t40.5 -17.5q24 0 30 25.5t2 47.5l101 32q16 -89 -31 -151.5t-122 -62.5zM162 1000h208l-140 -1000h-208z" />
    <glyph glyph-name="Imacron" unicode="&#x12a;" horiz-adv-x="508" 
d="M52 0l196 1400h208l-196 -1400h-208zM58 1711h676l-23 -158h-676z" />
    <glyph glyph-name="imacron" unicode="&#x12b;" 
d="M71 1311h448l-15 -158h-448zM162 1000h208l-140 -1000h-208z" />
    <glyph glyph-name="Iogonek" unicode="&#x12e;" horiz-adv-x="508" 
d="M52 0l196 1400h208l-196 -1400h-208zM78 -436q-98 1 -147.5 68.5t-37.5 150.5q6 41 27 80.5t58 71.5l192 168l89 -103q-99 -87 -151.5 -133.5t-57.5 -91.5q-4 -25 10.5 -46t45.5 -21q38 0 71.5 27t40.5 70h136q-9 -65 -49 -120t-99.5 -88t-127.5 -33z" />
    <glyph glyph-name="iogonek" unicode="&#x12f;" 
d="M162 1000h208l-140 -1000h-208zM288 1145q-47 0 -75 31t-21 78q7 46 43 77.5t83 31.5q46 0 73.5 -31.5t21.5 -77.5q-7 -47 -42.5 -78t-82.5 -31zM48 -436q-98 1 -147.5 68.5t-37.5 150.5q6 41 27 80.5t58 71.5l192 168l89 -103q-99 -87 -151.5 -133.5t-57.5 -91.5
q-4 -25 10.5 -46t45.5 -21q38 0 71.5 27t40.5 70h136q-9 -65 -49 -120t-99.5 -88t-127.5 -33z" />
    <glyph glyph-name="Idotaccent" unicode="&#x130;" horiz-adv-x="508" 
d="M52 0l196 1400h208l-196 -1400h-208zM374 1545q-47 0 -75 31t-21 78q7 46 43 77.5t83 31.5q46 0 73.5 -31.5t21.5 -77.5q-7 -47 -42.5 -78t-82.5 -31z" />
    <glyph glyph-name="dotlessi" unicode="&#x131;" 
d="M162 1000h208l-140 -1000h-208z" />
    <glyph glyph-name="IJ" unicode="&#x132;" horiz-adv-x="1367" 
d="M52 0l196 1400h208l-196 -1400h-208zM718 -26q-74 0 -141 25t-118 74l156 160q22 -21 55.5 -36t76.5 -15q60 0 114 31.5t91 83t45 110.5l140 993h208l-139 -993q-17 -117 -88.5 -215.5t-176.5 -158t-223 -59.5z" />
    <glyph glyph-name="ij" unicode="&#x133;" horiz-adv-x="901" 
d="M162 1000h208l-140 -1000h-208zM288 1145q-47 0 -75 31t-21 78q7 46 43 77.5t83 31.5q46 0 73.5 -31.5t21.5 -77.5q-7 -47 -42.5 -78t-82.5 -31zM180 -500l30 208q94 0 167 63t87 155l150 1074h208l-150 -1074q-17 -118 -88 -214.5t-176.5 -154t-227.5 -57.5zM740 1145
q-47 0 -75 31t-21 78q7 46 43 77.5t83 31.5q46 0 73.5 -31.5t21.5 -77.5q-7 -47 -42.5 -78t-82.5 -31z" />
    <glyph glyph-name="Jcircumflex" unicode="&#x134;" horiz-adv-x="859" 
d="M210 -26q-74 0 -141 25t-118 74l156 160q22 -21 55.5 -36t76.5 -15q60 0 114 31.5t91 83t45 110.5l140 993h208l-139 -993q-17 -117 -88.5 -215.5t-176.5 -158t-223 -59.5zM905 1798l153 -288h-139l-143 197l-196 -197h-138l230 288h233z" />
    <glyph glyph-name="jcircumflex" unicode="&#x135;" horiz-adv-x="471" 
d="M-249 -500l30 208q94 0 167 63t87 155l150 1074h208l-150 -1074q-17 -118 -88 -214.5t-176.5 -154t-227.5 -57.5zM461 1398l153 -288h-139l-143 197l-196 -197h-138l230 288h233z" />
    <glyph glyph-name="uni0136" unicode="&#x136;" horiz-adv-x="1136" 
d="M1002 0h-270l-336 577l-100 -103l-66 -474h-208l196 1400h208l-85 -602l589 602h272l-647 -661zM242 -441l109 338h208l-179 -338h-138z" />
    <glyph glyph-name="uni0137" unicode="&#x137;" horiz-adv-x="1041" 
d="M878 0h-240l-187 424l-188 -192l-32 -232h-208l210 1500h208l-133 -944l435 444h272l-398 -407zM189 -441l109 338h208l-179 -338h-138z" />
    <glyph glyph-name="Lacute" unicode="&#x139;" horiz-adv-x="1031" 
d="M22 0l196 1400h208l-167 -1192h604l-30 -208h-811zM284 1510l120 288h208l-188 -288h-140z" />
    <glyph glyph-name="lacute" unicode="&#x13a;" 
d="M23 0l210 1500h208l-210 -1500h-208zM299 1610l120 288h208l-188 -288h-140z" />
    <glyph glyph-name="uni013B" unicode="&#x13b;" horiz-adv-x="1031" 
d="M22 0l196 1400h208l-167 -1192h604l-30 -208h-811zM200 -441l109 338h208l-179 -338h-138z" />
    <glyph glyph-name="uni013C" unicode="&#x13c;" 
d="M23 0l210 1500h208l-210 -1500h-208zM-101 -441l109 338h208l-179 -338h-138z" />
    <glyph glyph-name="Lcaron" unicode="&#x13d;" horiz-adv-x="1031" 
d="M22 0l196 1400h208l-167 -1192h604l-30 -208h-811zM646 1212l120 288h208l-188 -288h-140z" />
    <glyph glyph-name="lcaron" unicode="&#x13e;" 
d="M23 0l210 1500h208l-210 -1500h-208zM464 1212l120 288h208l-188 -288h-140z" />
    <glyph glyph-name="Nacute" unicode="&#x143;" horiz-adv-x="1316" 
d="M22 0l196 1400h225l499 -1024l144 1024h208l-196 -1400h-225l-499 1024l-144 -1024h-208zM718 1510l120 288h208l-188 -288h-140z" />
    <glyph glyph-name="nacute" unicode="&#x144;" horiz-adv-x="1100" 
d="M1010 628l-88 -628h-208l81 576q9 67 -16 122t-75.5 87.5t-116.5 32.5q-67 0 -126.5 -32.5t-99.5 -87.5t-50 -122l-81 -576h-208l140 1000h208l-14 -106q60 62 141 98t169 36q111 0 194 -54t124.5 -145t25.5 -201zM587 1110l120 288h208l-188 -288h-140z" />
    <glyph glyph-name="uni0145" unicode="&#x145;" horiz-adv-x="1316" 
d="M22 0l196 1400h225l499 -1024l144 1024h208l-196 -1400h-225l-499 1024l-144 -1024h-208zM332 -441l109 338h208l-179 -338h-138z" />
    <glyph glyph-name="uni0146" unicode="&#x146;" horiz-adv-x="1100" 
d="M1010 628l-88 -628h-208l81 576q9 67 -16 122t-75.5 87.5t-116.5 32.5q-67 0 -126.5 -32.5t-99.5 -87.5t-50 -122l-81 -576h-208l140 1000h208l-14 -106q60 62 141 98t169 36q111 0 194 -54t124.5 -145t25.5 -201zM244 -441l109 338h208l-179 -338h-138z" />
    <glyph glyph-name="Ncaron" unicode="&#x147;" horiz-adv-x="1316" 
d="M22 0l196 1400h225l499 -1024l144 1024h208l-196 -1400h-225l-499 1024l-144 -1024h-208zM655 1510l-153 288h138l144 -197l195 197h139l-230 -288h-233z" />
    <glyph glyph-name="ncaron" unicode="&#x148;" horiz-adv-x="1100" 
d="M1010 628l-88 -628h-208l81 576q9 67 -16 122t-75.5 87.5t-116.5 32.5q-67 0 -126.5 -32.5t-99.5 -87.5t-50 -122l-81 -576h-208l140 1000h208l-14 -106q60 62 141 98t169 36q111 0 194 -54t124.5 -145t25.5 -201zM524 1110l-153 288h138l144 -197l195 197h139l-230 -288
h-233z" />
    <glyph glyph-name="Omacron" unicode="&#x14c;" horiz-adv-x="1540" 
d="M668 -26q-142 0 -259.5 56.5t-198 156.5t-116 231.5t-14.5 281.5t93 281.5t181.5 231.5t242.5 156.5t275 56.5q143 0 260 -56.5t197.5 -156.5t116 -231.5t14.5 -281.5t-93 -281.5t-181.5 -231.5t-242 -156.5t-275.5 -56.5zM697 182q100 0 193 40.5t169.5 112.5t127 165.5
t65.5 199.5q20 142 -28.5 259.5t-148 188t-232.5 70.5q-100 0 -193 -40.5t-169.5 -112.5t-127 -165.5t-65.5 -199.5q-20 -142 28.5 -260t148 -188t232.5 -70zM574 1711h676l-23 -158h-676z" />
    <glyph glyph-name="omacron" unicode="&#x14d;" horiz-adv-x="1120" 
d="M458 -26q-138 0 -241.5 71t-154 190.5t-30.5 264.5q15 110 67.5 205.5t131.5 168t175.5 113.5t199.5 41q138 0 241.5 -71t154.5 -191t30 -266q-15 -109 -67.5 -204t-131.5 -167.5t-175 -113.5t-200 -41zM487 182q83 0 155 44t121 116.5t61 157.5q12 87 -17 160t-89 116.5
t-141 43.5q-82 0 -154.5 -44t-121.5 -117t-61 -159q-13 -89 17 -161t90 -114.5t140 -42.5zM308 1311h676l-23 -158h-676z" />
    <glyph glyph-name="Ohungarumlaut" unicode="&#x150;" horiz-adv-x="1540" 
d="M668 -26q-142 0 -259.5 56.5t-198 156.5t-116 231.5t-14.5 281.5t93 281.5t181.5 231.5t242.5 156.5t275 56.5q143 0 260 -56.5t197.5 -156.5t116 -231.5t14.5 -281.5t-93 -281.5t-181.5 -231.5t-242 -156.5t-275.5 -56.5zM697 182q100 0 193 40.5t169.5 112.5t127 165.5
t65.5 199.5q20 142 -28.5 259.5t-148 188t-232.5 70.5q-100 0 -193 -40.5t-169.5 -112.5t-127 -165.5t-65.5 -199.5q-20 -142 28.5 -260t148 -188t232.5 -70zM997 1510l120 288h208l-188 -288h-140zM683 1510l120 288h208l-188 -288h-140z" />
    <glyph glyph-name="ohungarumlaut" unicode="&#x151;" horiz-adv-x="1120" 
d="M458 -26q-138 0 -241.5 71t-154 190.5t-30.5 264.5q15 110 67.5 205.5t131.5 168t175.5 113.5t199.5 41q138 0 241.5 -71t154.5 -191t30 -266q-15 -109 -67.5 -204t-131.5 -167.5t-175 -113.5t-200 -41zM487 182q83 0 155 44t121 116.5t61 157.5q12 87 -17 160t-89 116.5
t-141 43.5q-82 0 -154.5 -44t-121.5 -117t-61 -159q-13 -89 17 -161t90 -114.5t140 -42.5zM731 1110l120 288h208l-188 -288h-140zM417 1110l120 288h208l-188 -288h-140z" />
    <glyph glyph-name="OE" unicode="&#x152;" horiz-adv-x="2138" 
d="M668 -26q-142 0 -259.5 56.5t-198 156.5t-116 231.5t-14.5 281.5t93 281.5t181.5 231.5t242.5 156.5t275 56.5q148 0 265.5 -67.5t184.5 -177.5l30 219h784l-29 -208h-575l-55 -388h480l-29 -208h-480l-54 -388h575l-29 -208h-784l30 219q-97 -110 -233.5 -177.5
t-284.5 -67.5zM697 182q100 0 193 40.5t169.5 112.5t127 165.5t65.5 199.5q20 142 -28.5 259.5t-148 188t-232.5 70.5q-100 0 -193 -40.5t-169.5 -112.5t-127 -165.5t-65.5 -199.5q-20 -142 28.5 -260t148 -188t232.5 -70z" />
    <glyph glyph-name="oe" unicode="&#x153;" horiz-adv-x="1909" 
d="M458 -26q-138 0 -241.5 71t-154 190.5t-30.5 264.5q15 110 67.5 205.5t131.5 168t175.5 113.5t199.5 41q125 0 221 -62.5t143 -163.5q76 101 189.5 163.5t238.5 62.5q115 0 204 -47.5t145.5 -130.5t73 -191.5t-13.5 -230.5h-770q4 -105 68 -175t174 -71q76 0 144 38
t117 106l204 -50q-79 -133 -211.5 -217.5t-282.5 -84.5q-125 0 -221 62t-143 163q-76 -101 -189.5 -163t-238.5 -62zM1051 587h567q1 107 -68 182t-177 75q-72 0 -137.5 -34t-114 -92t-70.5 -131zM487 182q83 0 155 44t121 116.5t61 157.5q12 87 -17 160t-89 116.5
t-141 43.5q-82 0 -154.5 -44t-121.5 -117t-61 -159q-13 -89 17 -161t90 -114.5t140 -42.5z" />
    <glyph glyph-name="Racute" unicode="&#x154;" horiz-adv-x="1179" 
d="M22 0l196 1400h515q114 0 197.5 -56t123.5 -150.5t24 -210.5q-20 -146 -116.5 -253.5t-228.5 -145.5l257 -584h-241l-249 565h-191l-79 -565h-208zM338 773h285q60 0 113.5 29.5t90 80t45.5 113.5q14 95 -41.5 159t-144.5 64h-285zM534 1510l120 288h208l-188 -288h-140z
" />
    <glyph glyph-name="racute" unicode="&#x155;" horiz-adv-x="751" 
d="M22 0l140 1000h208l-14 -106q60 62 141 98t169 36q56 0 109 -15l-113 -210q-36 15 -75 15q-67 0 -126.5 -32.5t-99.5 -87.5t-50 -122l-81 -576h-208zM429 1110l120 288h208l-188 -288h-140z" />
    <glyph glyph-name="uni0156" unicode="&#x156;" horiz-adv-x="1179" 
d="M22 0l196 1400h515q114 0 197.5 -56t123.5 -150.5t24 -210.5q-20 -146 -116.5 -253.5t-228.5 -145.5l257 -584h-241l-249 565h-191l-79 -565h-208zM338 773h285q60 0 113.5 29.5t90 80t45.5 113.5q14 95 -41.5 159t-144.5 64h-285zM258 -441l109 338h208l-179 -338h-138z
" />
    <glyph glyph-name="uni0157" unicode="&#x157;" horiz-adv-x="751" 
d="M22 0l140 1000h208l-14 -106q60 62 141 98t169 36q56 0 109 -15l-113 -210q-36 15 -75 15q-67 0 -126.5 -32.5t-99.5 -87.5t-50 -122l-81 -576h-208zM-102 -441l109 338h208l-179 -338h-138z" />
    <glyph glyph-name="Rcaron" unicode="&#x158;" horiz-adv-x="1179" 
d="M22 0l196 1400h515q114 0 197.5 -56t123.5 -150.5t24 -210.5q-20 -146 -116.5 -253.5t-228.5 -145.5l257 -584h-241l-249 565h-191l-79 -565h-208zM338 773h285q60 0 113.5 29.5t90 80t45.5 113.5q14 95 -41.5 159t-144.5 64h-285zM471 1510l-153 288h138l144 -197
l195 197h139l-230 -288h-233z" />
    <glyph glyph-name="rcaron" unicode="&#x159;" horiz-adv-x="751" 
d="M22 0l140 1000h208l-14 -106q60 62 141 98t169 36q56 0 109 -15l-113 -210q-36 15 -75 15q-67 0 -126.5 -32.5t-99.5 -87.5t-50 -122l-81 -576h-208zM366 1110l-153 288h138l144 -197l195 197h139l-230 -288h-233z" />
    <glyph glyph-name="Sacute" unicode="&#x15a;" horiz-adv-x="1239" 
d="M517 -26q-115 0 -216 36t-170.5 103.5t-90.5 160.5l206 73q15 -72 101.5 -118.5t198.5 -46.5q80 0 154 25.5t124 72t59 108.5q9 64 -30.5 105t-107 65t-141.5 36q-143 24 -253 70.5t-166.5 129t-37.5 215.5q18 125 103 218t209.5 144.5t261.5 51.5q112 0 213 -35.5
t171.5 -103t92.5 -163.5l-206 -71q-16 72 -102 118t-199 46q-79 0 -153 -26t-124 -72.5t-59 -106.5q-10 -75 25.5 -114t102.5 -58t150 -33q135 -22 245.5 -73t170.5 -135.5t42 -207.5q-17 -125 -102 -218t-209.5 -144.5t-262.5 -51.5zM679 1510l120 288h208l-188 -288h-140z
" />
    <glyph glyph-name="sacute" unicode="&#x15b;" horiz-adv-x="865" 
d="M319 -19q-118 7 -215 64t-125 151l188 76q14 -41 70 -76.5t129 -35.5q68 0 128 31t69 91q6 44 -20.5 68t-68.5 37.5t-84 25.5q-96 22 -172 60.5t-115.5 99t-27.5 148.5q14 96 76 166.5t151.5 108.5t186.5 38q120 0 213 -51t134 -140l-180 -98q-16 45 -66 75.5t-110 33.5
q-77 3 -137.5 -28.5t-70.5 -99.5q-6 -44 21.5 -66t73.5 -34.5t93 -28.5q85 -29 157.5 -69t112 -99t26.5 -144q-13 -94 -79.5 -164.5t-162 -108t-195.5 -31.5zM437 1110l120 288h208l-188 -288h-140z" />
    <glyph glyph-name="Scircumflex" unicode="&#x15c;" horiz-adv-x="1239" 
d="M517 -26q-115 0 -216 36t-170.5 103.5t-90.5 160.5l206 73q15 -72 101.5 -118.5t198.5 -46.5q80 0 154 25.5t124 72t59 108.5q9 64 -30.5 105t-107 65t-141.5 36q-143 24 -253 70.5t-166.5 129t-37.5 215.5q18 125 103 218t209.5 144.5t261.5 51.5q112 0 213 -35.5
t171.5 -103t92.5 -163.5l-206 -71q-16 72 -102 118t-199 46q-79 0 -153 -26t-124 -72.5t-59 -106.5q-10 -75 25.5 -114t102.5 -58t150 -33q135 -22 245.5 -73t170.5 -135.5t42 -207.5q-17 -125 -102 -218t-209.5 -144.5t-262.5 -51.5zM890 1798l153 -288h-139l-143 197
l-196 -197h-138l230 288h233z" />
    <glyph glyph-name="scircumflex" unicode="&#x15d;" horiz-adv-x="865" 
d="M319 -19q-118 7 -215 64t-125 151l188 76q14 -41 70 -76.5t129 -35.5q68 0 128 31t69 91q6 44 -20.5 68t-68.5 37.5t-84 25.5q-96 22 -172 60.5t-115.5 99t-27.5 148.5q14 96 76 166.5t151.5 108.5t186.5 38q120 0 213 -51t134 -140l-180 -98q-16 45 -66 75.5t-110 33.5
q-77 3 -137.5 -28.5t-70.5 -99.5q-6 -44 21.5 -66t73.5 -34.5t93 -28.5q85 -29 157.5 -69t112 -99t26.5 -144q-13 -94 -79.5 -164.5t-162 -108t-195.5 -31.5zM647 1398l153 -288h-139l-143 197l-196 -197h-138l230 288h233z" />
    <glyph glyph-name="Scedilla" unicode="&#x15e;" horiz-adv-x="1239" 
d="M517 -26q-115 0 -216 36t-170.5 103.5t-90.5 160.5l206 73q15 -72 101.5 -118.5t198.5 -46.5q80 0 154 25.5t124 72t59 108.5q9 64 -30.5 105t-107 65t-141.5 36q-143 24 -253 70.5t-166.5 129t-37.5 215.5q18 125 103 218t209.5 144.5t261.5 51.5q112 0 213 -35.5
t171.5 -103t92.5 -163.5l-206 -71q-16 72 -102 118t-199 46q-79 0 -153 -26t-124 -72.5t-59 -106.5q-10 -75 25.5 -114t102.5 -58t150 -33q135 -22 245.5 -73t170.5 -135.5t42 -207.5q-17 -125 -102 -218t-209.5 -144.5t-262.5 -51.5zM550 -373q-71 -18 -128 17.5t-66 103.5
l116 30q3 -22 21.5 -34t41.5 -5q24 6 38.5 26t11.5 43t-21 33.5t-42 6.5l-118 -7l167 235l93 -58l-49 -68q76 -28 87 -113q8 -68 -36 -130t-116 -80z" />
    <glyph glyph-name="scedilla" unicode="&#x15f;" horiz-adv-x="865" 
d="M319 -19q-118 7 -215 64t-125 151l188 76q14 -41 70 -76.5t129 -35.5q68 0 128 31t69 91q6 44 -20.5 68t-68.5 37.5t-84 25.5q-96 22 -172 60.5t-115.5 99t-27.5 148.5q14 96 76 166.5t151.5 108.5t186.5 38q120 0 213 -51t134 -140l-180 -98q-16 45 -66 75.5t-110 33.5
q-77 3 -137.5 -28.5t-70.5 -99.5q-6 -44 21.5 -66t73.5 -34.5t93 -28.5q85 -29 157.5 -69t112 -99t26.5 -144q-13 -94 -79.5 -164.5t-162 -108t-195.5 -31.5zM347 -373q-71 -18 -128 17.5t-66 103.5l116 30q3 -22 21.5 -34t41.5 -5q24 6 38.5 26t11.5 43t-21 33.5t-42 6.5
l-118 -7l167 235l93 -58l-49 -68q76 -28 87 -113q8 -68 -36 -130t-116 -80z" />
    <glyph glyph-name="Scaron" unicode="&#x160;" horiz-adv-x="1239" 
d="M517 -26q-115 0 -216 36t-170.5 103.5t-90.5 160.5l206 73q15 -72 101.5 -118.5t198.5 -46.5q80 0 154 25.5t124 72t59 108.5q9 64 -30.5 105t-107 65t-141.5 36q-143 24 -253 70.5t-166.5 129t-37.5 215.5q18 125 103 218t209.5 144.5t261.5 51.5q112 0 213 -35.5
t171.5 -103t92.5 -163.5l-206 -71q-16 72 -102 118t-199 46q-79 0 -153 -26t-124 -72.5t-59 -106.5q-10 -75 25.5 -114t102.5 -58t150 -33q135 -22 245.5 -73t170.5 -135.5t42 -207.5q-17 -125 -102 -218t-209.5 -144.5t-262.5 -51.5zM617 1510l-153 288h138l144 -197
l195 197h139l-230 -288h-233z" />
    <glyph glyph-name="scaron" unicode="&#x161;" horiz-adv-x="865" 
d="M319 -19q-118 7 -215 64t-125 151l188 76q14 -41 70 -76.5t129 -35.5q68 0 128 31t69 91q6 44 -20.5 68t-68.5 37.5t-84 25.5q-96 22 -172 60.5t-115.5 99t-27.5 148.5q14 96 76 166.5t151.5 108.5t186.5 38q120 0 213 -51t134 -140l-180 -98q-16 45 -66 75.5t-110 33.5
q-77 3 -137.5 -28.5t-70.5 -99.5q-6 -44 21.5 -66t73.5 -34.5t93 -28.5q85 -29 157.5 -69t112 -99t26.5 -144q-13 -94 -79.5 -164.5t-162 -108t-195.5 -31.5zM374 1110l-153 288h138l144 -197l195 197h139l-230 -288h-233z" />
    <glyph glyph-name="uni0162" unicode="&#x162;" horiz-adv-x="1259" 
d="M1277 1400l-29 -208h-446l-167 -1192h-208l167 1192h-445l29 208h1099zM485 -373q-71 -18 -128 17.5t-66 103.5l116 30q3 -22 21.5 -34t41.5 -5q24 6 38.5 26t11.5 43t-21 33.5t-42 6.5l-118 -7l167 235l93 -58l-49 -68q76 -28 87 -113q8 -68 -36 -130t-116 -80z" />
    <glyph glyph-name="uni0163" unicode="&#x163;" horiz-adv-x="707" 
d="M661 792h-210l-112 -792h-208l112 792h-159l29 208h159l43 314h208l-43 -314h210zM189 -373q-71 -18 -128 17.5t-66 103.5l116 30q3 -22 21.5 -34t41.5 -5q24 6 38.5 26t11.5 43t-21 33.5t-42 6.5l-118 -7l167 235l93 -58l-49 -68q76 -28 87 -113q8 -68 -36 -130
t-116 -80z" />
    <glyph glyph-name="Tcaron" unicode="&#x164;" horiz-adv-x="1259" 
d="M1277 1400l-29 -208h-446l-167 -1192h-208l167 1192h-445l29 208h1099zM627 1510l-153 288h138l144 -197l195 197h139l-230 -288h-233z" />
    <glyph glyph-name="tcaron" unicode="&#x165;" horiz-adv-x="707" 
d="M661 792h-210l-112 -792h-208l112 792h-159l29 208h159l43 314h208l-43 -314h210zM597 1212l120 288h208l-188 -288h-140z" />
    <glyph glyph-name="Utilde" unicode="&#x168;" horiz-adv-x="1348" 
d="M572 -26q-168 0 -281 82t-162 220.5t-25 307.5l114 816h208l-114 -816q-15 -110 12.5 -201.5t97 -146t180.5 -54.5q112 0 196.5 54.5t137.5 146t68 201.5l114 816h208l-114 -816q-24 -169 -112 -307.5t-224 -220.5t-304 -82zM943 1514q-37 0 -82 25t-89 56.5t-79.5 51.5
t-54.5 9t-29 -33.5t-6 -57.5l-130 -34q-15 70 7 130t72 96.5t119 36.5q37 0 81 -21.5t87 -50t77.5 -50.5t53.5 -22q32 0 39.5 32t1.5 59l133 41q15 -75 -9 -135.5t-74.5 -96.5t-117.5 -36z" />
    <glyph glyph-name="utilde" unicode="&#x169;" horiz-adv-x="1060" 
d="M35 375l87 625h208l-81 -574q-9 -67 16 -122t75.5 -87.5t116.5 -32.5q67 0 126.5 32.5t100 87.5t49.5 122l80 574h208l-139 -1000h-208l14 108q-60 -62 -141 -98t-168 -36q-111 0 -194.5 54t-124.5 145t-25 202zM767 1115q-37 0 -82 25t-89 56.5t-79.5 51.5t-54.5 9
t-29 -33.5t-6 -57.5l-130 -34q-15 70 7 130t72 96.5t119 36.5q37 0 81 -21.5t87 -50t77.5 -50.5t53.5 -22q32 0 39.5 32t1.5 59l133 41q15 -75 -9 -135.5t-74.5 -96.5t-117.5 -36z" />
    <glyph glyph-name="Umacron" unicode="&#x16a;" horiz-adv-x="1348" 
d="M572 -26q-168 0 -281 82t-162 220.5t-25 307.5l114 816h208l-114 -816q-15 -110 12.5 -201.5t97 -146t180.5 -54.5q112 0 196.5 54.5t137.5 146t68 201.5l114 816h208l-114 -816q-24 -169 -112 -307.5t-224 -220.5t-304 -82zM478 1711h676l-23 -158h-676z" />
    <glyph glyph-name="umacron" unicode="&#x16b;" horiz-adv-x="1060" 
d="M35 375l87 625h208l-81 -574q-9 -67 16 -122t75.5 -87.5t116.5 -32.5q67 0 126.5 32.5t100 87.5t49.5 122l80 574h208l-139 -1000h-208l14 108q-60 -62 -141 -98t-168 -36q-111 0 -194.5 54t-124.5 145t-25 202zM302 1312h676l-23 -158h-676z" />
    <glyph glyph-name="Ubreve" unicode="&#x16c;" horiz-adv-x="1348" 
d="M572 -26q-168 0 -281 82t-162 220.5t-25 307.5l114 816h208l-114 -816q-15 -110 12.5 -201.5t97 -146t180.5 -54.5q112 0 196.5 54.5t137.5 146t68 201.5l114 816h208l-114 -816q-24 -169 -112 -307.5t-224 -220.5t-304 -82zM785 1488q-91 0 -160 45t-103.5 120.5
t-22.5 166.5h134q-11 -82 40 -140t131 -58q81 0 147 57.5t78 140.5h134q-13 -93 -68.5 -168.5t-137 -119.5t-172.5 -44z" />
    <glyph glyph-name="ubreve" unicode="&#x16d;" horiz-adv-x="1060" 
d="M35 375l87 625h208l-81 -574q-9 -67 16 -122t75.5 -87.5t116.5 -32.5q67 0 126.5 32.5t100 87.5t49.5 122l80 574h208l-139 -1000h-208l14 108q-60 -62 -141 -98t-168 -36q-111 0 -194.5 54t-124.5 145t-25 202zM609 1089q-91 0 -160 45t-103.5 120.5t-22.5 166.5h134
q-11 -82 40 -140t131 -58q81 0 147 57.5t78 140.5h134q-13 -93 -68.5 -168.5t-137 -119.5t-172.5 -44z" />
    <glyph glyph-name="Uring" unicode="&#x16e;" horiz-adv-x="1348" 
d="M572 -26q-168 0 -281 82t-162 220.5t-25 307.5l114 816h208l-114 -816q-15 -110 12.5 -201.5t97 -146t180.5 -54.5q112 0 196.5 54.5t137.5 146t68 201.5l114 816h208l-114 -816q-24 -169 -112 -307.5t-224 -220.5t-304 -82zM783 1478q-72 0 -116.5 52.5t-34.5 124.5
t69 123.5t132 51.5t117 -51.5t34 -123.5q-10 -74 -69 -125.5t-132 -51.5zM798 1582q29 0 53 21t29 52q4 29 -14 49.5t-48 20.5t-53.5 -20.5t-27.5 -49.5q-5 -31 13 -52t48 -21z" />
    <glyph glyph-name="uring" unicode="&#x16f;" horiz-adv-x="1060" 
d="M35 375l87 625h208l-81 -574q-9 -67 16 -122t75.5 -87.5t116.5 -32.5q67 0 126.5 32.5t100 87.5t49.5 122l80 574h208l-139 -1000h-208l14 108q-60 -62 -141 -98t-168 -36q-111 0 -194.5 54t-124.5 145t-25 202zM607 1079q-72 0 -116.5 52.5t-34.5 124.5t69 123.5
t132 51.5t117 -51.5t34 -123.5q-10 -74 -69 -125.5t-132 -51.5zM622 1183q29 0 53 21t29 52q4 29 -14 49.5t-48 20.5t-53.5 -20.5t-27.5 -49.5q-5 -31 13 -52t48 -21z" />
    <glyph glyph-name="Uhungarumlaut" unicode="&#x170;" horiz-adv-x="1348" 
d="M572 -26q-168 0 -281 82t-162 220.5t-25 307.5l114 816h208l-114 -816q-15 -110 12.5 -201.5t97 -146t180.5 -54.5q112 0 196.5 54.5t137.5 146t68 201.5l114 816h208l-114 -816q-24 -169 -112 -307.5t-224 -220.5t-304 -82zM901 1510l120 288h208l-188 -288h-140z
M587 1510l120 288h208l-188 -288h-140z" />
    <glyph glyph-name="uhungarumlaut" unicode="&#x171;" horiz-adv-x="1060" 
d="M35 375l87 625h208l-81 -574q-9 -67 16 -122t75.5 -87.5t116.5 -32.5q67 0 126.5 32.5t100 87.5t49.5 122l80 574h208l-139 -1000h-208l14 108q-60 -62 -141 -98t-168 -36q-111 0 -194.5 54t-124.5 145t-25 202zM725 1111l120 288h208l-188 -288h-140zM411 1111l120 288
h208l-188 -288h-140z" />
    <glyph glyph-name="Uogonek" unicode="&#x172;" horiz-adv-x="1348" 
d="M572 -26q-168 0 -281 82t-162 220.5t-25 307.5l114 816h208l-114 -816q-15 -110 12.5 -201.5t97 -146t180.5 -54.5q112 0 196.5 54.5t137.5 146t68 201.5l114 816h208l-114 -816q-24 -169 -112 -307.5t-224 -220.5t-304 -82zM534 -442q-98 1 -147.5 68.5t-37.5 150.5
q6 41 27 80.5t58 71.5l192 168l89 -103q-99 -87 -151.5 -133.5t-57.5 -91.5q-4 -25 10.5 -46t45.5 -21q38 0 71.5 27t40.5 70h136q-9 -65 -49 -120t-99.5 -88t-127.5 -33z" />
    <glyph glyph-name="uogonek" unicode="&#x173;" horiz-adv-x="1060" 
d="M35 375l87 625h208l-81 -574q-9 -67 16 -122t75.5 -87.5t116.5 -32.5q67 0 126.5 32.5t100 87.5t49.5 122l80 574h208l-139 -1000h-208l14 108q-60 -62 -141 -98t-168 -36q-111 0 -194.5 54t-124.5 145t-25 202zM701 -435q-98 1 -147.5 68.5t-37.5 150.5q6 41 27 80.5
t58 71.5l192 168l89 -103q-99 -87 -151.5 -133.5t-57.5 -91.5q-4 -25 10.5 -46t45.5 -21q38 0 71.5 27t40.5 70h136q-9 -65 -49 -120t-99.5 -88t-127.5 -33z" />
    <glyph glyph-name="Wcircumflex" unicode="&#x174;" horiz-adv-x="1804" 
d="M330 0l-162 1400h214l118 -1027l406 1027h188l118 -1027l406 1027h214l-552 -1400h-239l-107 927l-367 -927h-237zM1172 1798l153 -288h-139l-143 197l-196 -197h-138l230 288h233z" />
    <glyph glyph-name="wcircumflex" unicode="&#x175;" horiz-adv-x="1677" 
d="M504 0h-207l-195 1000h204l137 -702l333 702h210l135 -702l334 702h204l-474 -1000h-209l-137 707zM1053 1398l153 -288h-139l-143 197l-196 -197h-138l230 288h233z" />
    <glyph glyph-name="Ycircumflex" unicode="&#x176;" horiz-adv-x="1283" 
d="M1076 1400h245l-585 -768l-89 -632h-208l89 632l-370 768h245l261 -541zM912 1798l153 -288h-139l-143 197l-196 -197h-138l230 288h233z" />
    <glyph glyph-name="ycircumflex" unicode="&#x177;" horiz-adv-x="1107" 
d="M847 1000h222l-759 -1500h-221l252 500l-219 1000h227l136 -715zM767 1398l153 -288h-139l-143 197l-196 -197h-138l230 288h233z" />
    <glyph glyph-name="Ydieresis" unicode="&#x178;" horiz-adv-x="1283" 
d="M1076 1400h245l-585 -768l-89 -632h-208l89 632l-370 768h245l261 -541zM566 1474q-47 0 -75 31t-21 78q6 46 43 78t84 32q46 0 73.5 -32t21.5 -78q-7 -47 -43.5 -78t-82.5 -31zM935 1474q-48 0 -76 31t-21 78q6 46 43 78t84 32q46 0 74 -32t21 -78q-7 -47 -43.5 -78
t-81.5 -31z" />
    <glyph glyph-name="Zacute" unicode="&#x179;" horiz-adv-x="1292" 
d="M-18 0l29 208l990 984h-852l29 208h1132l-29 -208l-990 -984h852l-29 -208h-1132zM706 1510l120 288h208l-188 -288h-140z" />
    <glyph glyph-name="zacute" unicode="&#x17a;" horiz-adv-x="1014" 
d="M947 792l-638 -584h556l-29 -208h-854l29 208l638 584h-556l29 208h854zM511 1110l120 288h208l-188 -288h-140z" />
    <glyph glyph-name="Zdotaccent" unicode="&#x17b;" horiz-adv-x="1292" 
d="M-18 0l29 208l990 984h-852l29 208h1132l-29 -208l-990 -984h852l-29 -208h-1132zM766 1545q-47 0 -75 31t-21 78q7 46 43 77.5t83 31.5q46 0 73.5 -31.5t21.5 -77.5q-7 -47 -42.5 -78t-82.5 -31z" />
    <glyph glyph-name="zdotaccent" unicode="&#x17c;" horiz-adv-x="1014" 
d="M947 792l-638 -584h556l-29 -208h-854l29 208l638 584h-556l29 208h854zM571 1145q-47 0 -75 31t-21 78q7 46 43 77.5t83 31.5q46 0 73.5 -31.5t21.5 -77.5q-7 -47 -42.5 -78t-82.5 -31z" />
    <glyph glyph-name="Zcaron" unicode="&#x17d;" horiz-adv-x="1292" 
d="M-18 0l29 208l990 984h-852l29 208h1132l-29 -208l-990 -984h852l-29 -208h-1132zM643 1510l-153 288h138l144 -197l195 197h139l-230 -288h-233z" />
    <glyph glyph-name="zcaron" unicode="&#x17e;" horiz-adv-x="1014" 
d="M947 792l-638 -584h556l-29 -208h-854l29 208l638 584h-556l29 208h854zM448 1110l-153 288h138l144 -197l195 197h139l-230 -288h-233z" />
    <glyph glyph-name="uni01CD" unicode="&#x1cd;" horiz-adv-x="1421" 
d="M687 1400h243l313 -1400h-220l-60 266h-626l-134 -266h-221zM442 474h474l-146 650zM708 1510l-153 288h138l144 -197l195 197h139l-230 -288h-233z" />
    <glyph glyph-name="uni01CE" unicode="&#x1ce;" horiz-adv-x="1185" 
d="M940 1000h208l-140 -1000h-209l12 145q-55 -77 -136 -124t-184 -47q-147 0 -258 72t-166 193.5t-34 269.5q15 107 68.5 201.5t134 165.5t180 111.5t206.5 40.5q109 0 185.5 -49.5t120.5 -126.5zM514 175q88 0 160 43.5t119.5 117.5t59.5 164q13 91 -13.5 165t-86.5 117.5
t-147 43.5q-88 0 -165.5 -44t-130 -118t-65.5 -164q-13 -91 20 -165t98.5 -117t150.5 -43zM549 1110l-153 288h138l144 -197l195 197h139l-230 -288h-233z" />
    <glyph glyph-name="uni01CF" unicode="&#x1cf;" horiz-adv-x="508" 
d="M52 0l196 1400h208l-196 -1400h-208zM251 1510l-153 288h138l144 -197l195 197h139l-230 -288h-233z" />
    <glyph glyph-name="uni01D0" unicode="&#x1d0;" 
d="M162 1000h208l-140 -1000h-208zM165 1110l-153 288h138l144 -197l195 197h139l-230 -288h-233z" />
    <glyph glyph-name="uni01D1" unicode="&#x1d1;" horiz-adv-x="1540" 
d="M668 -26q-142 0 -259.5 56.5t-198 156.5t-116 231.5t-14.5 281.5t93 281.5t181.5 231.5t242.5 156.5t275 56.5q143 0 260 -56.5t197.5 -156.5t116 -231.5t14.5 -281.5t-93 -281.5t-181.5 -231.5t-242 -156.5t-275.5 -56.5zM697 182q100 0 193 40.5t169.5 112.5t127 165.5
t65.5 199.5q20 142 -28.5 259.5t-148 188t-232.5 70.5q-100 0 -193 -40.5t-169.5 -112.5t-127 -165.5t-65.5 -199.5q-20 -142 28.5 -260t148 -188t232.5 -70zM767 1510l-153 288h138l144 -197l195 197h139l-230 -288h-233z" />
    <glyph glyph-name="uni01D2" unicode="&#x1d2;" horiz-adv-x="1120" 
d="M458 -26q-138 0 -241.5 71t-154 190.5t-30.5 264.5q15 110 67.5 205.5t131.5 168t175.5 113.5t199.5 41q138 0 241.5 -71t154.5 -191t30 -266q-15 -109 -67.5 -204t-131.5 -167.5t-175 -113.5t-200 -41zM487 182q83 0 155 44t121 116.5t61 157.5q12 87 -17 160t-89 116.5
t-141 43.5q-82 0 -154.5 -44t-121.5 -117t-61 -159q-13 -89 17 -161t90 -114.5t140 -42.5zM501 1110l-153 288h138l144 -197l195 197h139l-230 -288h-233z" />
    <glyph glyph-name="uni01D3" unicode="&#x1d3;" horiz-adv-x="1348" 
d="M572 -26q-168 0 -281 82t-162 220.5t-25 307.5l114 816h208l-114 -816q-15 -110 12.5 -201.5t97 -146t180.5 -54.5q112 0 196.5 54.5t137.5 146t68 201.5l114 816h208l-114 -816q-24 -169 -112 -307.5t-224 -220.5t-304 -82zM672 1510l-153 288h138l144 -197l195 197h139
l-230 -288h-233z" />
    <glyph glyph-name="uni01D4" unicode="&#x1d4;" horiz-adv-x="1060" 
d="M35 375l87 625h208l-81 -574q-9 -67 16 -122t75.5 -87.5t116.5 -32.5q67 0 126.5 32.5t100 87.5t49.5 122l80 574h208l-139 -1000h-208l14 108q-60 -62 -141 -98t-168 -36q-111 0 -194.5 54t-124.5 145t-25 202zM496 1111l-153 288h138l144 -197l195 197h139l-230 -288
h-233z" />
    <glyph glyph-name="uni01D5" unicode="&#x1d5;" horiz-adv-x="1348" 
d="M572 -26q-168 0 -281 82t-162 220.5t-25 307.5l114 816h208l-114 -816q-15 -110 12.5 -201.5t97 -146t180.5 -54.5q112 0 196.5 54.5t137.5 146t68 201.5l114 816h208l-114 -816q-24 -169 -112 -307.5t-224 -220.5t-304 -82zM599 1474q-47 0 -75 31t-21 78q6 46 43 78
t84 32q46 0 73.5 -32t21.5 -78q-7 -47 -43.5 -78t-82.5 -31zM968 1474q-48 0 -76 31t-21 78q6 46 43 78t84 32q46 0 74 -32t21 -78q-7 -47 -43.5 -78t-81.5 -31zM514 1969h676l-23 -158h-676z" />
    <glyph glyph-name="uni01D6" unicode="&#x1d6;" horiz-adv-x="1060" 
d="M35 375l87 625h208l-81 -574q-9 -67 16 -122t75.5 -87.5t116.5 -32.5q67 0 126.5 32.5t100 87.5t49.5 122l80 574h208l-139 -1000h-208l14 108q-60 -62 -141 -98t-168 -36q-111 0 -194.5 54t-124.5 145t-25 202zM423 1075q-47 0 -75 31t-21 78q6 46 43 78t84 32
q46 0 73.5 -32t21.5 -78q-7 -47 -43.5 -78t-82.5 -31zM792 1075q-48 0 -76 31t-21 78q6 46 43 78t84 32q46 0 74 -32t21 -78q-7 -47 -43.5 -78t-81.5 -31zM338 1571h676l-23 -158h-676z" />
    <glyph glyph-name="uni01D7" unicode="&#x1d7;" horiz-adv-x="1348" 
d="M572 -26q-168 0 -281 82t-162 220.5t-25 307.5l114 816h208l-114 -816q-15 -110 12.5 -201.5t97 -146t180.5 -54.5q112 0 196.5 54.5t137.5 146t68 201.5l114 816h208l-114 -816q-24 -169 -112 -307.5t-224 -220.5t-304 -82zM599 1474q-47 0 -75 31t-21 78q6 46 43 78
t84 32q46 0 73.5 -32t21.5 -78q-7 -47 -43.5 -78t-82.5 -31zM968 1474q-48 0 -76 31t-21 78q6 46 43 78t84 32q46 0 74 -32t21 -78q-7 -47 -43.5 -78t-81.5 -31zM770 1768l120 288h208l-188 -288h-140z" />
    <glyph glyph-name="uni01D8" unicode="&#x1d8;" horiz-adv-x="1060" 
d="M35 375l87 625h208l-81 -574q-9 -67 16 -122t75.5 -87.5t116.5 -32.5q67 0 126.5 32.5t100 87.5t49.5 122l80 574h208l-139 -1000h-208l14 108q-60 -62 -141 -98t-168 -36q-111 0 -194.5 54t-124.5 145t-25 202zM423 1075q-47 0 -75 31t-21 78q6 46 43 78t84 32
q46 0 73.5 -32t21.5 -78q-7 -47 -43.5 -78t-82.5 -31zM792 1075q-48 0 -76 31t-21 78q6 46 43 78t84 32q46 0 74 -32t21 -78q-7 -47 -43.5 -78t-81.5 -31zM594 1370l120 288h208l-188 -288h-140z" />
    <glyph glyph-name="uni01D9" unicode="&#x1d9;" horiz-adv-x="1348" 
d="M572 -26q-168 0 -281 82t-162 220.5t-25 307.5l114 816h208l-114 -816q-15 -110 12.5 -201.5t97 -146t180.5 -54.5q112 0 196.5 54.5t137.5 146t68 201.5l114 816h208l-114 -816q-24 -169 -112 -307.5t-224 -220.5t-304 -82zM599 1474q-47 0 -75 31t-21 78q6 46 43 78
t84 32q46 0 73.5 -32t21.5 -78q-7 -47 -43.5 -78t-82.5 -31zM968 1474q-48 0 -76 31t-21 78q6 46 43 78t84 32q46 0 74 -32t21 -78q-7 -47 -43.5 -78t-81.5 -31zM708 1768l-153 288h138l144 -197l195 197h139l-230 -288h-233z" />
    <glyph glyph-name="uni01DA" unicode="&#x1da;" horiz-adv-x="1060" 
d="M35 375l87 625h208l-81 -574q-9 -67 16 -122t75.5 -87.5t116.5 -32.5q67 0 126.5 32.5t100 87.5t49.5 122l80 574h208l-139 -1000h-208l14 108q-60 -62 -141 -98t-168 -36q-111 0 -194.5 54t-124.5 145t-25 202zM423 1075q-47 0 -75 31t-21 78q6 46 43 78t84 32
q46 0 73.5 -32t21.5 -78q-7 -47 -43.5 -78t-82.5 -31zM792 1075q-48 0 -76 31t-21 78q6 46 43 78t84 32q46 0 74 -32t21 -78q-7 -47 -43.5 -78t-81.5 -31zM532 1370l-153 288h138l144 -197l195 197h139l-230 -288h-233z" />
    <glyph glyph-name="uni01DB" unicode="&#x1db;" horiz-adv-x="1348" 
d="M572 -26q-168 0 -281 82t-162 220.5t-25 307.5l114 816h208l-114 -816q-15 -110 12.5 -201.5t97 -146t180.5 -54.5q112 0 196.5 54.5t137.5 146t68 201.5l114 816h208l-114 -816q-24 -169 -112 -307.5t-224 -220.5t-304 -82zM599 1474q-47 0 -75 31t-21 78q6 46 43 78
t84 32q46 0 73.5 -32t21.5 -78q-7 -47 -43.5 -78t-82.5 -31zM968 1474q-48 0 -76 31t-21 78q6 46 43 78t84 32q46 0 74 -32t21 -78q-7 -47 -43.5 -78t-81.5 -31zM627 2056h208l40 -288h-138z" />
    <glyph glyph-name="uni01DC" unicode="&#x1dc;" horiz-adv-x="1060" 
d="M35 375l87 625h208l-81 -574q-9 -67 16 -122t75.5 -87.5t116.5 -32.5q67 0 126.5 32.5t100 87.5t49.5 122l80 574h208l-139 -1000h-208l14 108q-60 -62 -141 -98t-168 -36q-111 0 -194.5 54t-124.5 145t-25 202zM423 1075q-47 0 -75 31t-21 78q6 46 43 78t84 32
q46 0 73.5 -32t21.5 -78q-7 -47 -43.5 -78t-82.5 -31zM792 1075q-48 0 -76 31t-21 78q6 46 43 78t84 32q46 0 74 -32t21 -78q-7 -47 -43.5 -78t-81.5 -31zM451 1658h208l40 -288h-138z" />
    <glyph glyph-name="uni01DE" unicode="&#x1de;" horiz-adv-x="1421" 
d="M687 1400h243l313 -1400h-220l-60 266h-626l-134 -266h-221zM442 474h474l-146 650zM635 1474q-47 0 -75 31t-21 78q6 46 43 78t84 32q46 0 73.5 -32t21.5 -78q-7 -47 -43.5 -78t-82.5 -31zM1004 1474q-48 0 -76 31t-21 78q6 46 43 78t84 32q46 0 74 -32t21 -78
q-7 -47 -43.5 -78t-81.5 -31zM551 1969h676l-23 -158h-676z" />
    <glyph glyph-name="uni01DF" unicode="&#x1df;" horiz-adv-x="1185" 
d="M940 1000h208l-140 -1000h-209l12 145q-55 -77 -136 -124t-184 -47q-147 0 -258 72t-166 193.5t-34 269.5q15 107 68.5 201.5t134 165.5t180 111.5t206.5 40.5q109 0 185.5 -49.5t120.5 -126.5zM514 175q88 0 160 43.5t119.5 117.5t59.5 164q13 91 -13.5 165t-86.5 117.5
t-147 43.5q-88 0 -165.5 -44t-130 -118t-65.5 -164q-13 -91 20 -165t98.5 -117t150.5 -43zM476 1074q-47 0 -75 31t-21 78q6 46 43 78t84 32q46 0 73.5 -32t21.5 -78q-7 -47 -43.5 -78t-82.5 -31zM845 1074q-48 0 -76 31t-21 78q6 46 43 78t84 32q46 0 74 -32t21 -78
q-7 -47 -43.5 -78t-81.5 -31zM392 1569h676l-23 -158h-676z" />
    <glyph glyph-name="uni01E2" unicode="&#x1e2;" horiz-adv-x="1658" 
d="M-18 0l705 1400h969l-29 -208h-521l-55 -388h425l-28 -208h-425l-55 -388h521l-29 -208h-729l37 266h-431l-134 -266h-221zM442 474h355l101 718h-94zM877 1711h676l-23 -158h-676z" />
    <glyph glyph-name="uni01E3" unicode="&#x1e3;" horiz-adv-x="1745" 
d="M247 -25q-92 0 -158.5 40.5t-98 109.5t-19.5 155q12 81 61.5 151t127 113t170.5 43h334q6 96 -51 164.5t-165 68.5q-77 0 -149 -36l-90 173q128 71 265 71q117 0 208.5 -55t139.5 -149q77 92 185 148t226 56q116 0 205 -48t145 -131.5t72.5 -191.5t-12.5 -230h-771
q4 -105 69 -175t175 -70q75 0 142.5 38.5t116.5 104.5l205 -49q-79 -133 -212 -217.5t-283 -84.5q-129 0 -228 65.5t-146 172.5q-48 -65 -121 -119t-161.5 -86t-181.5 -32zM887 586h568q-1 107 -70.5 182.5t-176.5 75.5q-72 0 -137 -34t-113.5 -92.5t-70.5 -131.5zM273 158
q89 0 165 42t127 108q46 52 75 120h-332q-59 0 -101.5 -39t-49.5 -95q-8 -53 22.5 -94.5t93.5 -41.5zM553 1312h676l-23 -158h-676z" />
    <glyph glyph-name="Gcaron" unicode="&#x1e6;" horiz-adv-x="1536" 
d="M667 -26q-146 0 -263 57t-197 157t-114 232t-13 281q22 157 96.5 289t185.5 229.5t243 151.5t269 54q154 0 287 -72.5t219 -215.5l-200 -101q-60 90 -148.5 136t-188.5 46q-97 0 -189.5 -39.5t-169.5 -110t-129 -165.5t-67 -205q-20 -143 28.5 -260t148.5 -186.5
t233 -69.5q98 0 191.5 42t171 118t125.5 177h-297l26 184h542q-20 -150 -91.5 -282t-180.5 -232.5t-242 -157.5t-276 -57zM767 1510l-153 288h138l144 -197l195 197h139l-230 -288h-233z" />
    <glyph glyph-name="gcaron" unicode="&#x1e7;" horiz-adv-x="1209" 
d="M923 1000h208l-144 -1026q-15 -103 -70 -190t-138.5 -150.5t-184 -98.5t-204.5 -35q-105 0 -195.5 44.5t-153 120.5t-85.5 172l203 86q16 -93 91 -153.5t170 -60.5q82 0 160.5 34t133 93.5t65.5 137.5l24 169q-60 -75 -144 -122t-185 -47q-142 0 -249.5 71t-160 190.5
t-32.5 264.5q15 109 68.5 204.5t135 168t180.5 113.5t206 41q101 0 171.5 -47t109.5 -123zM504 175q86 0 157.5 44.5t118.5 118.5t59 162q13 89 -13.5 163t-85.5 118.5t-144 44.5t-160.5 -44t-126.5 -118t-64 -164t18 -164t94.5 -117.5t146.5 -43.5zM546 1110l-153 288h138
l144 -197l195 197h139l-230 -288h-233z" />
    <glyph glyph-name="uni01E8" unicode="&#x1e8;" horiz-adv-x="1136" 
d="M1002 0h-270l-336 577l-100 -103l-66 -474h-208l196 1400h208l-85 -602l589 602h272l-647 -661zM565 1510l-153 288h138l144 -197l195 197h139l-230 -288h-233z" />
    <glyph glyph-name="uni01E9" unicode="&#x1e9;" horiz-adv-x="1041" 
d="M878 0h-240l-187 424l-188 -192l-32 -232h-208l210 1500h208l-133 -944l435 444h272l-398 -407zM603 1510l-153 288h138l144 -197l195 197h139l-230 -288h-233z" />
    <glyph glyph-name="uni0218" unicode="&#x218;" horiz-adv-x="1239" 
d="M517 -26q-115 0 -216 36t-170.5 103.5t-90.5 160.5l206 73q15 -72 101.5 -118.5t198.5 -46.5q80 0 154 25.5t124 72t59 108.5q9 64 -30.5 105t-107 65t-141.5 36q-143 24 -253 70.5t-166.5 129t-37.5 215.5q18 125 103 218t209.5 144.5t261.5 51.5q112 0 213 -35.5
t171.5 -103t92.5 -163.5l-206 -71q-16 72 -102 118t-199 46q-79 0 -153 -26t-124 -72.5t-59 -106.5q-10 -75 25.5 -114t102.5 -58t150 -33q135 -22 245.5 -73t170.5 -135.5t42 -207.5q-17 -125 -102 -218t-209.5 -144.5t-262.5 -51.5zM369 -441l109 338h208l-179 -338h-138z
" />
    <glyph glyph-name="uni0219" unicode="&#x219;" horiz-adv-x="865" 
d="M319 -19q-118 7 -215 64t-125 151l188 76q14 -41 70 -76.5t129 -35.5q68 0 128 31t69 91q6 44 -20.5 68t-68.5 37.5t-84 25.5q-96 22 -172 60.5t-115.5 99t-27.5 148.5q14 96 76 166.5t151.5 108.5t186.5 38q120 0 213 -51t134 -140l-180 -98q-16 45 -66 75.5t-110 33.5
q-77 3 -137.5 -28.5t-70.5 -99.5q-6 -44 21.5 -66t73.5 -34.5t93 -28.5q85 -29 157.5 -69t112 -99t26.5 -144q-13 -94 -79.5 -164.5t-162 -108t-195.5 -31.5zM166 -441l109 338h208l-179 -338h-138z" />
    <glyph glyph-name="uni021A" unicode="&#x21a;" horiz-adv-x="1259" 
d="M1277 1400l-29 -208h-446l-167 -1192h-208l167 1192h-445l29 208h1099zM303 -441l109 338h208l-179 -338h-138z" />
    <glyph glyph-name="uni021B" unicode="&#x21b;" horiz-adv-x="707" 
d="M661 792h-210l-112 -792h-208l112 792h-159l29 208h159l43 314h208l-43 -314h210zM7 -441l109 338h208l-179 -338h-138z" />
    <glyph glyph-name="uni022A" unicode="&#x22a;" horiz-adv-x="1540" 
d="M668 -26q-142 0 -259.5 56.5t-198 156.5t-116 231.5t-14.5 281.5t93 281.5t181.5 231.5t242.5 156.5t275 56.5q143 0 260 -56.5t197.5 -156.5t116 -231.5t14.5 -281.5t-93 -281.5t-181.5 -231.5t-242 -156.5t-275.5 -56.5zM697 182q100 0 193 40.5t169.5 112.5t127 165.5
t65.5 199.5q20 142 -28.5 259.5t-148 188t-232.5 70.5q-100 0 -193 -40.5t-169.5 -112.5t-127 -165.5t-65.5 -199.5q-20 -142 28.5 -260t148 -188t232.5 -70zM695 1474q-47 0 -75 31t-21 78q6 46 43 78t84 32q46 0 73.5 -32t21.5 -78q-7 -47 -43.5 -78t-82.5 -31zM1064 1474
q-48 0 -76 31t-21 78q6 46 43 78t84 32q46 0 74 -32t21 -78q-7 -47 -43.5 -78t-81.5 -31zM610 1969h676l-23 -158h-676z" />
    <glyph glyph-name="uni022B" unicode="&#x22b;" horiz-adv-x="1120" 
d="M458 -26q-138 0 -241.5 71t-154 190.5t-30.5 264.5q15 110 67.5 205.5t131.5 168t175.5 113.5t199.5 41q138 0 241.5 -71t154.5 -191t30 -266q-15 -109 -67.5 -204t-131.5 -167.5t-175 -113.5t-200 -41zM487 182q83 0 155 44t121 116.5t61 157.5q12 87 -17 160t-89 116.5
t-141 43.5q-82 0 -154.5 -44t-121.5 -117t-61 -159q-13 -89 17 -161t90 -114.5t140 -42.5zM429 1074q-47 0 -75 31t-21 78q6 46 43 78t84 32q46 0 73.5 -32t21.5 -78q-7 -47 -43.5 -78t-82.5 -31zM798 1074q-48 0 -76 31t-21 78q6 46 43 78t84 32q46 0 74 -32t21 -78
q-7 -47 -43.5 -78t-81.5 -31zM344 1569h676l-23 -158h-676z" />
    <glyph glyph-name="uni0232" unicode="&#x232;" horiz-adv-x="1283" 
d="M1076 1400h245l-585 -768l-89 -632h-208l89 632l-370 768h245l261 -541zM445 1711h676l-23 -158h-676z" />
    <glyph glyph-name="uni0233" unicode="&#x233;" horiz-adv-x="1107" 
d="M847 1000h222l-759 -1500h-221l252 500l-219 1000h227l136 -715zM301 1311h676l-23 -158h-676z" />
    <glyph glyph-name="uni0237" unicode="&#x237;" horiz-adv-x="471" 
d="M-249 -500l30 208q94 0 167 63t87 155l150 1074h208l-150 -1074q-17 -118 -88 -214.5t-176.5 -154t-227.5 -57.5z" />
    <glyph glyph-name="quoteleft" unicode="&#x2bb;" horiz-adv-x="370" 
d="M85 878l205 522h138l-135 -522h-208z" />
    <glyph glyph-name="quoteleft" unicode="&#x2018;" horiz-adv-x="370" 
d="M85 878l205 522h138l-135 -522h-208z" />
    <glyph glyph-name="uni02BC" unicode="&#x2bc;" horiz-adv-x="487" 
d="M65 878l135 522h208l-205 -522h-138z" />
    <glyph glyph-name="circumflex" unicode="&#x2c6;" horiz-adv-x="646" 
d="M536 1398l153 -288h-139l-143 197l-196 -197h-138l230 288h233z" />
    <glyph glyph-name="caron" unicode="&#x2c7;" horiz-adv-x="608" 
d="M247 1110l-153 288h138l144 -197l195 197h139l-230 -288h-233z" />
    <glyph glyph-name="breve" unicode="&#x2d8;" horiz-adv-x="1144" 
d="M627 1088q-91 0 -160 45t-103.5 120.5t-22.5 166.5h134q-11 -82 40 -140t131 -58q81 0 147 57.5t78 140.5h134q-13 -93 -68.5 -168.5t-137 -119.5t-172.5 -44z" />
    <glyph glyph-name="dotaccent" unicode="&#x2d9;" horiz-adv-x="1021" 
d="M574 1145q-47 0 -75 31t-21 78q7 46 43 77.5t83 31.5q46 0 73.5 -31.5t21.5 -77.5q-7 -47 -42.5 -78t-82.5 -31z" />
    <glyph glyph-name="ring" unicode="&#x2da;" horiz-adv-x="1152" 
d="M629 1078q-72 0 -116.5 52.5t-34.5 124.5t69 123.5t132 51.5t117 -51.5t34 -123.5q-10 -74 -69 -125.5t-132 -51.5zM644 1182q29 0 53 21t29 52q4 29 -14 49.5t-48 20.5t-53.5 -20.5t-27.5 -49.5q-5 -31 13 -52t48 -21z" />
    <glyph glyph-name="ogonek" unicode="&#x2db;" horiz-adv-x="1058" 
d="M356 -436q-98 1 -147.5 68.5t-37.5 150.5q6 41 27 80.5t58 71.5l192 168l89 -103q-99 -87 -151.5 -133.5t-57.5 -91.5q-4 -25 10.5 -46t45.5 -21q38 0 71.5 27t40.5 70h136q-9 -65 -49 -120t-99.5 -88t-127.5 -33z" />
    <glyph glyph-name="tilde" unicode="&#x2dc;" horiz-adv-x="1232" 
d="M840 1121q-37 0 -82 25t-89 56.5t-79.5 51.5t-54.5 9t-29 -33.5t-6 -57.5l-130 -34q-15 70 7 130t72 96.5t119 36.5q37 0 81 -21.5t87 -50t77.5 -50.5t53.5 -22q32 0 39.5 32t1.5 59l133 41q15 -75 -9 -135.5t-74.5 -96.5t-117.5 -36z" />
    <glyph glyph-name="hungarumlaut" unicode="&#x2dd;" horiz-adv-x="1001" 
d="M571 1110l120 288h208l-188 -288h-140zM258 1110l120 288h208l-188 -288h-140z" />
    <glyph glyph-name="gravecomb" unicode="&#x300;" horiz-adv-x="0" 
d="M372 1398h208l40 -288h-138z" />
    <glyph glyph-name="acutecomb" unicode="&#x301;" horiz-adv-x="0" 
d="M430 1110l120 288h208l-188 -288h-140z" />
    <glyph glyph-name="uni0302" unicode="&#x302;" horiz-adv-x="0" 
d="M536 1398l153 -288h-139l-143 197l-196 -197h-138l230 288h233z" />
    <glyph glyph-name="tildecomb" unicode="&#x303;" horiz-adv-x="0" 
d="M847 1114q-37 0 -82 25t-89 56.5t-79.5 51.5t-54.5 9t-29 -33.5t-6 -57.5l-130 -34q-15 70 7 130t72 96.5t119 36.5q37 0 81 -21.5t87 -50t77.5 -50.5t53.5 -22q32 0 39.5 32t1.5 59l133 41q15 -75 -9 -135.5t-74.5 -96.5t-117.5 -36z" />
    <glyph glyph-name="uni0304" unicode="&#x304;" horiz-adv-x="0" 
d="M348 1311h676l-23 -158h-676z" />
    <glyph glyph-name="uni0306" unicode="&#x306;" horiz-adv-x="0" 
d="M627 1088q-91 0 -160 45t-103.5 120.5t-22.5 166.5h134q-11 -82 40 -140t131 -58q81 0 147 57.5t78 140.5h134q-13 -93 -68.5 -168.5t-137 -119.5t-172.5 -44z" />
    <glyph glyph-name="uni0307" unicode="&#x307;" horiz-adv-x="0" 
d="M574 1145q-47 0 -75 31t-21 78q7 46 43 77.5t83 31.5q46 0 73.5 -31.5t21.5 -77.5q-7 -47 -42.5 -78t-82.5 -31z" />
    <glyph glyph-name="uni0308" unicode="&#x308;" horiz-adv-x="0" 
d="M564 1074q-47 0 -75 31t-21 78q6 46 43 78t84 32q46 0 73.5 -32t21.5 -78q-7 -47 -43.5 -78t-82.5 -31zM933 1074q-48 0 -76 31t-21 78q6 46 43 78t84 32q46 0 74 -32t21 -78q-7 -47 -43.5 -78t-81.5 -31z" />
    <glyph glyph-name="uni030A" unicode="&#x30a;" horiz-adv-x="0" 
d="M629 1078q-72 0 -116.5 52.5t-34.5 124.5t69 123.5t132 51.5t117 -51.5t34 -123.5q-10 -74 -69 -125.5t-132 -51.5zM644 1182q29 0 53 21t29 52q4 29 -14 49.5t-48 20.5t-53.5 -20.5t-27.5 -49.5q-5 -31 13 -52t48 -21z" />
    <glyph glyph-name="uni030B" unicode="&#x30b;" horiz-adv-x="0" 
d="M571 1110l120 288h208l-188 -288h-140zM258 1110l120 288h208l-188 -288h-140z" />
    <glyph glyph-name="uni030C" unicode="&#x30c;" horiz-adv-x="0" 
d="M247 1110l-153 288h138l144 -197l195 197h139l-230 -288h-233z" />
    <glyph glyph-name="dotbelowcomb" unicode="&#x323;" horiz-adv-x="0" 
d="M574 -424q-47 0 -75 31t-21 78q7 46 43 77.5t83 31.5q46 0 73.5 -31.5t21.5 -77.5q-7 -47 -42.5 -78t-82.5 -31z" />
    <glyph glyph-name="uni0326" unicode="&#x326;" horiz-adv-x="0" 
d="M240 -441l109 338h208l-179 -338h-138z" />
    <glyph glyph-name="uni0327" unicode="&#x327;" horiz-adv-x="0" 
d="M461 -373q-71 -18 -128 17.5t-66 103.5l116 30q3 -22 21.5 -34t41.5 -5q24 6 38.5 26t11.5 43t-21 33.5t-42 6.5l-118 -7l167 235l93 -58l-49 -68q76 -28 87 -113q8 -68 -36 -130t-116 -80z" />
    <glyph glyph-name="uni0328" unicode="&#x328;" horiz-adv-x="0" 
d="M356 -436q-98 1 -147.5 68.5t-37.5 150.5q6 41 27 80.5t58 71.5l192 168l89 -103q-99 -87 -151.5 -133.5t-57.5 -91.5q-4 -25 10.5 -46t45.5 -21q38 0 71.5 27t40.5 70h136q-9 -65 -49 -120t-99.5 -88t-127.5 -33z" />
    <glyph glyph-name="uni03BC" unicode="&#x3bc;" horiz-adv-x="1108" 
d="M-79 -432l201 1432h208l-73 -518q-12 -85 13.5 -154.5t81 -111t134.5 -41.5q78 0 142 41.5t106.5 111t54.5 154.5l73 518h208l-140 -1000h-208l19 136q-63 -75 -143 -119t-173 -44q-73 0 -130 29.5t-94 77.5l-72 -512h-208z" />
    <glyph glyph-name="uni1E04" unicode="&#x1e04;" horiz-adv-x="1154" 
d="M22 0l196 1400h497q108 0 189.5 -44.5t121.5 -126.5t24 -197q-12 -83 -62.5 -160t-123.5 -103q82 -22 121 -86t47 -144t-2 -150q-16 -113 -82 -201t-163.5 -138t-206.5 -50h-556zM349 846h266q83 0 149 50t78 137q13 93 -39.5 139.5t-135.5 46.5h-266zM255 180h328
q63 0 120.5 32t96.5 88.5t49 127.5q9 62 -14.5 117t-71.5 89.5t-112 34.5h-328zM424 -424q-47 0 -75 31t-21 78q7 46 43 77.5t83 31.5q46 0 73.5 -31.5t21.5 -77.5q-7 -47 -42.5 -78t-82.5 -31z" />
    <glyph glyph-name="uni1E05" unicode="&#x1e05;" horiz-adv-x="1228" 
d="M687 1028q146 0 255.5 -71t164 -190.5t33.5 -265.5q-15 -109 -69.5 -204.5t-137 -168t-184 -113.5t-210.5 -41q-105 0 -177 48t-111 125l-20 -147h-208l210 1500h208l-90 -645q60 77 145.5 125t190.5 48zM565 176q87 0 165.5 44t131.5 118t65 163q13 91 -20 165
t-98.5 117.5t-151.5 43.5q-88 0 -160 -44t-119 -118t-60 -164q-12 -90 14.5 -164t86.5 -117.5t146 -43.5zM461 -424q-47 0 -75 31t-21 78q7 46 43 77.5t83 31.5q46 0 73.5 -31.5t21.5 -77.5q-7 -47 -42.5 -78t-82.5 -31z" />
    <glyph glyph-name="uni1E0C" unicode="&#x1e0c;" horiz-adv-x="1343" 
d="M22 0l196 1400h463q145 0 264.5 -54.5t202 -151t119.5 -223t16 -271.5q-20 -145 -92 -271.5t-182 -223t-244.5 -151t-279.5 -54.5h-463zM259 208h255q101 0 195.5 38t172 105.5t128.5 157t65 191.5q19 136 -32 247.5t-153.5 178t-237.5 66.5h-255zM506 -424q-47 0 -75 31
t-21 78q7 46 43 77.5t83 31.5q46 0 73.5 -31.5t21.5 -77.5q-7 -47 -42.5 -78t-82.5 -31z" />
    <glyph glyph-name="uni1E0D" unicode="&#x1e0d;" horiz-adv-x="1227" 
d="M1011 1500h208l-210 -1500h-208l21 147q-61 -78 -146.5 -125.5t-191.5 -47.5q-145 0 -254.5 71t-163.5 190.5t-34 264.5q15 109 69.5 204.5t137 168t183.5 113.5t210 41q106 0 178 -47.5t111 -124.5zM514 175q88 0 160 43.5t119.5 117.5t59.5 164q13 91 -13.5 165
t-86.5 117.5t-147 43.5q-88 0 -165.5 -44t-130 -118t-65.5 -164q-13 -91 20 -165t98.5 -117t150.5 -43zM460 -424q-47 0 -75 31t-21 78q7 46 43 77.5t83 31.5q46 0 73.5 -31.5t21.5 -77.5q-7 -47 -42.5 -78t-82.5 -31z" />
    <glyph glyph-name="uni1E20" unicode="&#x1e20;" horiz-adv-x="1536" 
d="M667 -26q-146 0 -263 57t-197 157t-114 232t-13 281q22 157 96.5 289t185.5 229.5t243 151.5t269 54q154 0 287 -72.5t219 -215.5l-200 -101q-60 90 -148.5 136t-188.5 46q-97 0 -189.5 -39.5t-169.5 -110t-129 -165.5t-67 -205q-20 -143 28.5 -260t148.5 -186.5
t233 -69.5q98 0 191.5 42t171 118t125.5 177h-297l26 184h542q-20 -150 -91.5 -282t-180.5 -232.5t-242 -157.5t-276 -57zM574 1711h676l-23 -158h-676z" />
    <glyph glyph-name="uni1E21" unicode="&#x1e21;" horiz-adv-x="1209" 
d="M923 1000h208l-144 -1026q-15 -103 -70 -190t-138.5 -150.5t-184 -98.5t-204.5 -35q-105 0 -195.5 44.5t-153 120.5t-85.5 172l203 86q16 -93 91 -153.5t170 -60.5q82 0 160.5 34t133 93.5t65.5 137.5l24 169q-60 -75 -144 -122t-185 -47q-142 0 -249.5 71t-160 190.5
t-32.5 264.5q15 109 68.5 204.5t135 168t180.5 113.5t206 41q101 0 171.5 -47t109.5 -123zM504 175q86 0 157.5 44.5t118.5 118.5t59 162q13 89 -13.5 163t-85.5 118.5t-144 44.5t-160.5 -44t-126.5 -118t-64 -164t18 -164t94.5 -117.5t146.5 -43.5zM353 1311h676l-23 -158
h-676z" />
    <glyph glyph-name="uni1E24" unicode="&#x1e24;" horiz-adv-x="1289" 
d="M1059 1400h208l-196 -1400h-208l91 646h-634l-90 -646h-208l196 1400h208l-76 -546h633zM491 -424q-47 0 -75 31t-21 78q7 46 43 77.5t83 31.5q46 0 73.5 -31.5t21.5 -77.5q-7 -47 -42.5 -78t-82.5 -31z" />
    <glyph glyph-name="uni1E25" unicode="&#x1e25;" horiz-adv-x="1101" 
d="M1011 628l-88 -628h-208l81 576q9 67 -16 122t-75.5 87.5t-116.5 32.5q-67 0 -126.5 -32.5t-99.5 -87.5t-50 -122l-81 -576h-208l210 1500h208l-84 -606q60 62 141 98t169 36q111 0 194 -54t124.5 -145t25.5 -201zM443 -424q-47 0 -75 31t-21 78q7 46 43 77.5t83 31.5
q46 0 73.5 -31.5t21.5 -77.5q-7 -47 -42.5 -78t-82.5 -31z" />
    <glyph glyph-name="uni1E2E" unicode="&#x1e2e;" horiz-adv-x="508" 
d="M52 0l196 1400h208l-196 -1400h-208zM179 1474q-47 0 -75 31t-21 78q6 46 43 78t84 32q46 0 73.5 -32t21.5 -78q-7 -47 -43.5 -78t-82.5 -31zM548 1474q-48 0 -76 31t-21 78q6 46 43 78t84 32q46 0 74 -32t21 -78q-7 -47 -43.5 -78t-81.5 -31zM350 1768l120 288h208
l-188 -288h-140z" />
    <glyph glyph-name="uni1E2F" unicode="&#x1e2f;" 
d="M162 1000h208l-140 -1000h-208zM93 1074q-47 0 -75 31t-21 78q6 46 43 78t84 32q46 0 73.5 -32t21.5 -78q-7 -47 -43.5 -78t-82.5 -31zM462 1074q-48 0 -76 31t-21 78q6 46 43 78t84 32q46 0 74 -32t21 -78q-7 -47 -43.5 -78t-81.5 -31zM264 1368l120 288h208l-188 -288
h-140z" />
    <glyph glyph-name="uni1E36" unicode="&#x1e36;" horiz-adv-x="1031" 
d="M22 0l196 1400h208l-167 -1192h604l-30 -208h-811zM373 -424q-47 0 -75 31t-21 78q7 46 43 77.5t83 31.5q46 0 73.5 -31.5t21.5 -77.5q-7 -47 -42.5 -78t-82.5 -31z" />
    <glyph glyph-name="uni1E37" unicode="&#x1e37;" 
d="M23 0l210 1500h208l-210 -1500h-208zM72 -424q-47 0 -75 31t-21 78q7 46 43 77.5t83 31.5q46 0 73.5 -31.5t21.5 -77.5q-7 -47 -42.5 -78t-82.5 -31z" />
    <glyph glyph-name="uni1E3E" unicode="&#x1e3e;" horiz-adv-x="1835" 
d="M22 0l467 1400h168l226 -943l490 943h168l76 -1400h-212l-50 937l-459 -884h-139l-211 884l-312 -937h-212zM978 1510l120 288h208l-188 -288h-140z" />
    <glyph glyph-name="uni1E3F" unicode="&#x1e3f;" horiz-adv-x="1776" 
d="M22 0l140 1000h208l-15 -106q61 62 141.5 98t168.5 36q107 0 189.5 -51.5t123.5 -136.5q65 85 161 136.5t204 51.5q110 0 193.5 -54t124.5 -145t25 -201l-87 -628h-208l81 574q9 66 -15.5 121.5t-74 89t-115.5 33.5t-124.5 -32t-98 -87.5t-49.5 -124.5l-80 -574h-208
l80 574q15 104 -45.5 174t-159.5 70q-65 0 -123.5 -33.5t-98.5 -89t-49 -121.5l-81 -574h-208zM963 1110l120 288h208l-188 -288h-140z" />
    <glyph glyph-name="uni1E40" unicode="&#x1e40;" horiz-adv-x="1835" 
d="M22 0l467 1400h168l226 -943l490 943h168l76 -1400h-212l-50 937l-459 -884h-139l-211 884l-312 -937h-212zM1038 1545q-47 0 -75 31t-21 78q7 46 43 77.5t83 31.5q46 0 73.5 -31.5t21.5 -77.5q-7 -47 -42.5 -78t-82.5 -31z" />
    <glyph glyph-name="uni1E41" unicode="&#x1e41;" horiz-adv-x="1776" 
d="M22 0l140 1000h208l-15 -106q61 62 141.5 98t168.5 36q107 0 189.5 -51.5t123.5 -136.5q65 85 161 136.5t204 51.5q110 0 193.5 -54t124.5 -145t25 -201l-87 -628h-208l81 574q9 66 -15.5 121.5t-74 89t-115.5 33.5t-124.5 -32t-98 -87.5t-49.5 -124.5l-80 -574h-208
l80 574q15 104 -45.5 174t-159.5 70q-65 0 -123.5 -33.5t-98.5 -89t-49 -121.5l-81 -574h-208zM1022 1145q-47 0 -75 31t-21 78q7 46 43 77.5t83 31.5q46 0 73.5 -31.5t21.5 -77.5q-7 -47 -42.5 -78t-82.5 -31z" />
    <glyph glyph-name="uni1E42" unicode="&#x1e42;" horiz-adv-x="1835" 
d="M22 0l467 1400h168l226 -943l490 943h168l76 -1400h-212l-50 937l-459 -884h-139l-211 884l-312 -937h-212zM765 -424q-47 0 -75 31t-21 78q7 46 43 77.5t83 31.5q46 0 73.5 -31.5t21.5 -77.5q-7 -47 -42.5 -78t-82.5 -31z" />
    <glyph glyph-name="uni1E43" unicode="&#x1e43;" horiz-adv-x="1776" 
d="M22 0l140 1000h208l-15 -106q61 62 141.5 98t168.5 36q107 0 189.5 -51.5t123.5 -136.5q65 85 161 136.5t204 51.5q110 0 193.5 -54t124.5 -145t25 -201l-87 -628h-208l81 574q9 66 -15.5 121.5t-74 89t-115.5 33.5t-124.5 -32t-98 -87.5t-49.5 -124.5l-80 -574h-208
l80 574q15 104 -45.5 174t-159.5 70q-65 0 -123.5 -33.5t-98.5 -89t-49 -121.5l-81 -574h-208zM756 -424q-47 0 -75 31t-21 78q7 46 43 77.5t83 31.5q46 0 73.5 -31.5t21.5 -77.5q-7 -47 -42.5 -78t-82.5 -31z" />
    <glyph glyph-name="uni1E44" unicode="&#x1e44;" horiz-adv-x="1316" 
d="M22 0l196 1400h225l499 -1024l144 1024h208l-196 -1400h-225l-499 1024l-144 -1024h-208zM777 1545q-47 0 -75 31t-21 78q7 46 43 77.5t83 31.5q46 0 73.5 -31.5t21.5 -77.5q-7 -47 -42.5 -78t-82.5 -31z" />
    <glyph glyph-name="uni1E45" unicode="&#x1e45;" horiz-adv-x="1100" 
d="M1010 628l-88 -628h-208l81 576q9 67 -16 122t-75.5 87.5t-116.5 32.5q-67 0 -126.5 -32.5t-99.5 -87.5t-50 -122l-81 -576h-208l140 1000h208l-14 -106q60 62 141 98t169 36q111 0 194 -54t124.5 -145t25.5 -201zM647 1145q-47 0 -75 31t-21 78q7 46 43 77.5t83 31.5
q46 0 73.5 -31.5t21.5 -77.5q-7 -47 -42.5 -78t-82.5 -31z" />
    <glyph glyph-name="uni1E46" unicode="&#x1e46;" horiz-adv-x="1316" 
d="M22 0l196 1400h225l499 -1024l144 1024h208l-196 -1400h-225l-499 1024l-144 -1024h-208zM505 -424q-47 0 -75 31t-21 78q7 46 43 77.5t83 31.5q46 0 73.5 -31.5t21.5 -77.5q-7 -47 -42.5 -78t-82.5 -31z" />
    <glyph glyph-name="uni1E47" unicode="&#x1e47;" horiz-adv-x="1100" 
d="M1010 628l-88 -628h-208l81 576q9 67 -16 122t-75.5 87.5t-116.5 32.5q-67 0 -126.5 -32.5t-99.5 -87.5t-50 -122l-81 -576h-208l140 1000h208l-14 -106q60 62 141 98t169 36q111 0 194 -54t124.5 -145t25.5 -201zM417 -424q-47 0 -75 31t-21 78q7 46 43 77.5t83 31.5
q46 0 73.5 -31.5t21.5 -77.5q-7 -47 -42.5 -78t-82.5 -31z" />
    <glyph glyph-name="uni1E62" unicode="&#x1e62;" horiz-adv-x="1239" 
d="M517 -26q-115 0 -216 36t-170.5 103.5t-90.5 160.5l206 73q15 -72 101.5 -118.5t198.5 -46.5q80 0 154 25.5t124 72t59 108.5q9 64 -30.5 105t-107 65t-141.5 36q-143 24 -253 70.5t-166.5 129t-37.5 215.5q18 125 103 218t209.5 144.5t261.5 51.5q112 0 213 -35.5
t171.5 -103t92.5 -163.5l-206 -71q-16 72 -102 118t-199 46q-79 0 -153 -26t-124 -72.5t-59 -106.5q-10 -75 25.5 -114t102.5 -58t150 -33q135 -22 245.5 -73t170.5 -135.5t42 -207.5q-17 -125 -102 -218t-209.5 -144.5t-262.5 -51.5zM542 -424q-47 0 -75 31t-21 78
q7 46 43 77.5t83 31.5q46 0 73.5 -31.5t21.5 -77.5q-7 -47 -42.5 -78t-82.5 -31z" />
    <glyph glyph-name="uni1E63" unicode="&#x1e63;" horiz-adv-x="865" 
d="M319 -19q-118 7 -215 64t-125 151l188 76q14 -41 70 -76.5t129 -35.5q68 0 128 31t69 91q6 44 -20.5 68t-68.5 37.5t-84 25.5q-96 22 -172 60.5t-115.5 99t-27.5 148.5q14 96 76 166.5t151.5 108.5t186.5 38q120 0 213 -51t134 -140l-180 -98q-16 45 -66 75.5t-110 33.5
q-77 3 -137.5 -28.5t-70.5 -99.5q-6 -44 21.5 -66t73.5 -34.5t93 -28.5q85 -29 157.5 -69t112 -99t26.5 -144q-13 -94 -79.5 -164.5t-162 -108t-195.5 -31.5zM339 -424q-47 0 -75 31t-21 78q7 46 43 77.5t83 31.5q46 0 73.5 -31.5t21.5 -77.5q-7 -47 -42.5 -78t-82.5 -31z
" />
    <glyph glyph-name="uni1E6C" unicode="&#x1e6c;" horiz-adv-x="1259" 
d="M1277 1400l-29 -208h-446l-167 -1192h-208l167 1192h-445l29 208h1099zM476 -424q-47 0 -75 31t-21 78q7 46 43 77.5t83 31.5q46 0 73.5 -31.5t21.5 -77.5q-7 -47 -42.5 -78t-82.5 -31z" />
    <glyph glyph-name="uni1E6D" unicode="&#x1e6d;" horiz-adv-x="707" 
d="M661 792h-210l-112 -792h-208l112 792h-159l29 208h159l43 314h208l-43 -314h210zM180 -424q-47 0 -75 31t-21 78q7 46 43 77.5t83 31.5q46 0 73.5 -31.5t21.5 -77.5q-7 -47 -42.5 -78t-82.5 -31z" />
    <glyph glyph-name="Wgrave" unicode="&#x1e80;" horiz-adv-x="1804" 
d="M330 0l-162 1400h214l118 -1027l406 1027h188l118 -1027l406 1027h214l-552 -1400h-239l-107 927l-367 -927h-237zM818 1798h208l40 -288h-138z" />
    <glyph glyph-name="wgrave" unicode="&#x1e81;" horiz-adv-x="1677" 
d="M504 0h-207l-195 1000h204l137 -702l333 702h210l135 -702l334 702h204l-474 -1000h-209l-137 707zM699 1398h208l40 -288h-138z" />
    <glyph glyph-name="Wacute" unicode="&#x1e82;" horiz-adv-x="1804" 
d="M330 0l-162 1400h214l118 -1027l406 1027h188l118 -1027l406 1027h214l-552 -1400h-239l-107 927l-367 -927h-237zM962 1510l120 288h208l-188 -288h-140z" />
    <glyph glyph-name="wacute" unicode="&#x1e83;" horiz-adv-x="1677" 
d="M504 0h-207l-195 1000h204l137 -702l333 702h210l135 -702l334 702h204l-474 -1000h-209l-137 707zM843 1110l120 288h208l-188 -288h-140z" />
    <glyph glyph-name="Wdieresis" unicode="&#x1e84;" horiz-adv-x="1804" 
d="M330 0l-162 1400h214l118 -1027l406 1027h188l118 -1027l406 1027h214l-552 -1400h-239l-107 927l-367 -927h-237zM827 1474q-47 0 -75 31t-21 78q6 46 43 78t84 32q46 0 73.5 -32t21.5 -78q-7 -47 -43.5 -78t-82.5 -31zM1196 1474q-48 0 -76 31t-21 78q6 46 43 78t84 32
q46 0 74 -32t21 -78q-7 -47 -43.5 -78t-81.5 -31z" />
    <glyph glyph-name="wdieresis" unicode="&#x1e85;" horiz-adv-x="1677" 
d="M504 0h-207l-195 1000h204l137 -702l333 702h210l135 -702l334 702h204l-474 -1000h-209l-137 707zM708 1074q-47 0 -75 31t-21 78q6 46 43 78t84 32q46 0 73.5 -32t21.5 -78q-7 -47 -43.5 -78t-82.5 -31zM1077 1074q-48 0 -76 31t-21 78q6 46 43 78t84 32q46 0 74 -32
t21 -78q-7 -47 -43.5 -78t-81.5 -31z" />
    <glyph glyph-name="uni1E92" unicode="&#x1e92;" horiz-adv-x="1292" 
d="M-18 0l29 208l990 984h-852l29 208h1132l-29 -208l-990 -984h852l-29 -208h-1132zM493 -424q-47 0 -75 31t-21 78q7 46 43 77.5t83 31.5q46 0 73.5 -31.5t21.5 -77.5q-7 -47 -42.5 -78t-82.5 -31z" />
    <glyph glyph-name="uni1E93" unicode="&#x1e93;" horiz-adv-x="1014" 
d="M947 792l-638 -584h556l-29 -208h-854l29 208l638 584h-556l29 208h854zM354 -424q-47 0 -75 31t-21 78q7 46 43 77.5t83 31.5q46 0 73.5 -31.5t21.5 -77.5q-7 -47 -42.5 -78t-82.5 -31z" />
    <glyph glyph-name="uni1E97" unicode="&#x1e97;" horiz-adv-x="707" 
d="M661 792h-210l-112 -792h-208l112 792h-159l29 208h159l43 314h208l-43 -314h210zM246 1388q-47 0 -75 31t-21 78q6 46 43 78t84 32q46 0 73.5 -32t21.5 -78q-7 -47 -43.5 -78t-82.5 -31zM615 1388q-48 0 -76 31t-21 78q6 46 43 78t84 32q46 0 74 -32t21 -78
q-7 -47 -43.5 -78t-81.5 -31z" />
    <glyph glyph-name="uni1E9E" unicode="&#x1e9e;" horiz-adv-x="1179" 
d="M22 0l128 917q19 133 99.5 242.5t199.5 174.5t251 65q101 0 183.5 -38t128 -105.5t33.5 -155.5q-7 -45 -40.5 -90.5t-97 -110.5t-159.5 -170q95 15 175 -30t123 -125.5t30 -174.5q-13 -97 -63.5 -171.5t-124.5 -125.5t-159 -76.5t-167 -25.5h-61l-21 180h87
q64 0 134.5 21.5t123.5 70t65 129.5q11 80 -28.5 128t-104 69.5t-128.5 21.5h-76l10 80q5 44 45.5 103t91.5 118.5t90.5 108.5t42.5 74q7 48 -19.5 72.5t-73 33t-101.5 8.5q-63 0 -122 -33.5t-100.5 -91t-51.5 -126.5l-135 -967h-208z" />
    <glyph glyph-name="uni1EA0" unicode="&#x1ea0;" horiz-adv-x="1421" 
d="M687 1400h243l313 -1400h-220l-60 266h-626l-134 -266h-221zM442 474h474l-146 650zM557 -424q-47 0 -75 31t-21 78q7 46 43 77.5t83 31.5q46 0 73.5 -31.5t21.5 -77.5q-7 -47 -42.5 -78t-82.5 -31z" />
    <glyph glyph-name="uni1EA1" unicode="&#x1ea1;" horiz-adv-x="1185" 
d="M940 1000h208l-140 -1000h-209l12 145q-55 -77 -136 -124t-184 -47q-147 0 -258 72t-166 193.5t-34 269.5q15 107 68.5 201.5t134 165.5t180 111.5t206.5 40.5q109 0 185.5 -49.5t120.5 -126.5zM514 175q88 0 160 43.5t119.5 117.5t59.5 164q13 91 -13.5 165t-86.5 117.5
t-147 43.5q-88 0 -165.5 -44t-130 -118t-65.5 -164q-13 -91 20 -165t98.5 -117t150.5 -43zM454 -424q-47 0 -75 31t-21 78q7 46 43 77.5t83 31.5q46 0 73.5 -31.5t21.5 -77.5q-7 -47 -42.5 -78t-82.5 -31z" />
    <glyph glyph-name="uni1EAC" unicode="&#x1eac;" horiz-adv-x="1421" 
d="M687 1400h243l313 -1400h-220l-60 266h-626l-134 -266h-221zM442 474h474l-146 650zM557 -424q-47 0 -75 31t-21 78q7 46 43 77.5t83 31.5q46 0 73.5 -31.5t21.5 -77.5q-7 -47 -42.5 -78t-82.5 -31zM981 1798l153 -288h-139l-143 197l-196 -197h-138l230 288h233z" />
    <glyph glyph-name="uni1EAD" unicode="&#x1ead;" horiz-adv-x="1185" 
d="M940 1000h208l-140 -1000h-209l12 145q-55 -77 -136 -124t-184 -47q-147 0 -258 72t-166 193.5t-34 269.5q15 107 68.5 201.5t134 165.5t180 111.5t206.5 40.5q109 0 185.5 -49.5t120.5 -126.5zM514 175q88 0 160 43.5t119.5 117.5t59.5 164q13 91 -13.5 165t-86.5 117.5
t-147 43.5q-88 0 -165.5 -44t-130 -118t-65.5 -164q-13 -91 20 -165t98.5 -117t150.5 -43zM454 -424q-47 0 -75 31t-21 78q7 46 43 77.5t83 31.5q46 0 73.5 -31.5t21.5 -77.5q-7 -47 -42.5 -78t-82.5 -31zM822 1398l153 -288h-139l-143 197l-196 -197h-138l230 288h233z" />
    <glyph glyph-name="uni1EB6" unicode="&#x1eb6;" horiz-adv-x="1421" 
d="M687 1400h243l313 -1400h-220l-60 266h-626l-134 -266h-221zM442 474h474l-146 650zM557 -424q-47 0 -75 31t-21 78q7 46 43 77.5t83 31.5q46 0 73.5 -31.5t21.5 -77.5q-7 -47 -42.5 -78t-82.5 -31zM821 1488q-91 0 -160 45t-103.5 120.5t-22.5 166.5h134
q-11 -82 40 -140t131 -58q81 0 147 57.5t78 140.5h134q-13 -93 -68.5 -168.5t-137 -119.5t-172.5 -44z" />
    <glyph glyph-name="uni1EB7" unicode="&#x1eb7;" horiz-adv-x="1185" 
d="M940 1000h208l-140 -1000h-209l12 145q-55 -77 -136 -124t-184 -47q-147 0 -258 72t-166 193.5t-34 269.5q15 107 68.5 201.5t134 165.5t180 111.5t206.5 40.5q109 0 185.5 -49.5t120.5 -126.5zM514 175q88 0 160 43.5t119.5 117.5t59.5 164q13 91 -13.5 165t-86.5 117.5
t-147 43.5q-88 0 -165.5 -44t-130 -118t-65.5 -164q-13 -91 20 -165t98.5 -117t150.5 -43zM454 -424q-47 0 -75 31t-21 78q7 46 43 77.5t83 31.5q46 0 73.5 -31.5t21.5 -77.5q-7 -47 -42.5 -78t-82.5 -31zM662 1088q-91 0 -160 45t-103.5 120.5t-22.5 166.5h134
q-11 -82 40 -140t131 -58q81 0 147 57.5t78 140.5h134q-13 -93 -68.5 -168.5t-137 -119.5t-172.5 -44z" />
    <glyph glyph-name="uni1EB8" unicode="&#x1eb8;" horiz-adv-x="1089" 
d="M22 0l196 1400h869l-29 -208h-661l-47 -338h532l-29 -208h-533l-61 -438h661l-29 -208h-869zM392 -424q-47 0 -75 31t-21 78q7 46 43 77.5t83 31.5q46 0 73.5 -31.5t21.5 -77.5q-7 -47 -42.5 -78t-82.5 -31z" />
    <glyph glyph-name="uni1EB9" unicode="&#x1eb9;" horiz-adv-x="1118" 
d="M458 -26q-138 0 -241.5 71t-154 190.5t-30.5 264.5q15 110 67.5 205.5t131.5 168t175.5 113.5t199.5 41q115 0 204.5 -47.5t145.5 -131t73 -192t-14 -230.5h-770q4 -104 68.5 -174t173.5 -71q76 0 144 38t117 105l204 -49q-79 -133 -211.5 -217.5t-282.5 -84.5zM260 586
h568q-1 107 -70 182.5t-177 75.5q-72 0 -137 -34t-113.5 -92.5t-70.5 -131.5zM406 -424q-47 0 -75 31t-21 78q7 46 43 77.5t83 31.5q46 0 73.5 -31.5t21.5 -77.5q-7 -47 -42.5 -78t-82.5 -31z" />
    <glyph glyph-name="uni1EBC" unicode="&#x1ebc;" horiz-adv-x="1089" 
d="M22 0l196 1400h869l-29 -208h-661l-47 -338h532l-29 -208h-533l-61 -438h661l-29 -208h-869zM814 1514q-37 0 -82 25t-89 56.5t-79.5 51.5t-54.5 9t-29 -33.5t-6 -57.5l-130 -34q-15 70 7 130t72 96.5t119 36.5q37 0 81 -21.5t87 -50t77.5 -50.5t53.5 -22q32 0 39.5 32
t1.5 59l133 41q15 -75 -9 -135.5t-74.5 -96.5t-117.5 -36z" />
    <glyph glyph-name="uni1EBD" unicode="&#x1ebd;" horiz-adv-x="1118" 
d="M458 -26q-138 0 -241.5 71t-154 190.5t-30.5 264.5q15 110 67.5 205.5t131.5 168t175.5 113.5t199.5 41q115 0 204.5 -47.5t145.5 -131t73 -192t-14 -230.5h-770q4 -104 68.5 -174t173.5 -71q76 0 144 38t117 105l204 -49q-79 -133 -211.5 -217.5t-282.5 -84.5zM260 586
h568q-1 107 -70 182.5t-177 75.5q-72 0 -137 -34t-113.5 -92.5t-70.5 -131.5zM773 1114q-37 0 -82 25t-89 56.5t-79.5 51.5t-54.5 9t-29 -33.5t-6 -57.5l-130 -34q-15 70 7 130t72 96.5t119 36.5q37 0 81 -21.5t87 -50t77.5 -50.5t53.5 -22q32 0 39.5 32t1.5 59l133 41
q15 -75 -9 -135.5t-74.5 -96.5t-117.5 -36z" />
    <glyph glyph-name="uni1EC6" unicode="&#x1ec6;" horiz-adv-x="1089" 
d="M22 0l196 1400h869l-29 -208h-661l-47 -338h532l-29 -208h-533l-61 -438h661l-29 -208h-869zM392 -424q-47 0 -75 31t-21 78q7 46 43 77.5t83 31.5q46 0 73.5 -31.5t21.5 -77.5q-7 -47 -42.5 -78t-82.5 -31zM815 1798l153 -288h-139l-143 197l-196 -197h-138l230 288h233
z" />
    <glyph glyph-name="uni1EC7" unicode="&#x1ec7;" horiz-adv-x="1118" 
d="M458 -26q-138 0 -241.5 71t-154 190.5t-30.5 264.5q15 110 67.5 205.5t131.5 168t175.5 113.5t199.5 41q115 0 204.5 -47.5t145.5 -131t73 -192t-14 -230.5h-770q4 -104 68.5 -174t173.5 -71q76 0 144 38t117 105l204 -49q-79 -133 -211.5 -217.5t-282.5 -84.5zM260 586
h568q-1 107 -70 182.5t-177 75.5q-72 0 -137 -34t-113.5 -92.5t-70.5 -131.5zM406 -424q-47 0 -75 31t-21 78q7 46 43 77.5t83 31.5q46 0 73.5 -31.5t21.5 -77.5q-7 -47 -42.5 -78t-82.5 -31zM774 1398l153 -288h-139l-143 197l-196 -197h-138l230 288h233z" />
    <glyph glyph-name="uni1ECA" unicode="&#x1eca;" horiz-adv-x="508" 
d="M52 0l196 1400h208l-196 -1400h-208zM101 -424q-47 0 -75 31t-21 78q7 46 43 77.5t83 31.5q46 0 73.5 -31.5t21.5 -77.5q-7 -47 -42.5 -78t-82.5 -31z" />
    <glyph glyph-name="uni1ECB" unicode="&#x1ecb;" 
d="M162 1000h208l-140 -1000h-208zM288 1145q-47 0 -75 31t-21 78q7 46 43 77.5t83 31.5q46 0 73.5 -31.5t21.5 -77.5q-7 -47 -42.5 -78t-82.5 -31zM71 -424q-47 0 -75 31t-21 78q7 46 43 77.5t83 31.5q46 0 73.5 -31.5t21.5 -77.5q-7 -47 -42.5 -78t-82.5 -31z" />
    <glyph glyph-name="uni1ECC" unicode="&#x1ecc;" horiz-adv-x="1540" 
d="M668 -26q-142 0 -259.5 56.5t-198 156.5t-116 231.5t-14.5 281.5t93 281.5t181.5 231.5t242.5 156.5t275 56.5q143 0 260 -56.5t197.5 -156.5t116 -231.5t14.5 -281.5t-93 -281.5t-181.5 -231.5t-242 -156.5t-275.5 -56.5zM697 182q100 0 193 40.5t169.5 112.5t127 165.5
t65.5 199.5q20 142 -28.5 259.5t-148 188t-232.5 70.5q-100 0 -193 -40.5t-169.5 -112.5t-127 -165.5t-65.5 -199.5q-20 -142 28.5 -260t148 -188t232.5 -70zM617 -424q-47 0 -75 31t-21 78q7 46 43 77.5t83 31.5q46 0 73.5 -31.5t21.5 -77.5q-7 -47 -42.5 -78t-82.5 -31z
" />
    <glyph glyph-name="uni1ECD" unicode="&#x1ecd;" horiz-adv-x="1120" 
d="M458 -26q-138 0 -241.5 71t-154 190.5t-30.5 264.5q15 110 67.5 205.5t131.5 168t175.5 113.5t199.5 41q138 0 241.5 -71t154.5 -191t30 -266q-15 -109 -67.5 -204t-131.5 -167.5t-175 -113.5t-200 -41zM487 182q83 0 155 44t121 116.5t61 157.5q12 87 -17 160t-89 116.5
t-141 43.5q-82 0 -154.5 -44t-121.5 -117t-61 -159q-13 -89 17 -161t90 -114.5t140 -42.5zM407 -424q-47 0 -75 31t-21 78q7 46 43 77.5t83 31.5q46 0 73.5 -31.5t21.5 -77.5q-7 -47 -42.5 -78t-82.5 -31z" />
    <glyph glyph-name="uni1ED8" unicode="&#x1ed8;" horiz-adv-x="1540" 
d="M668 -26q-142 0 -259.5 56.5t-198 156.5t-116 231.5t-14.5 281.5t93 281.5t181.5 231.5t242.5 156.5t275 56.5q143 0 260 -56.5t197.5 -156.5t116 -231.5t14.5 -281.5t-93 -281.5t-181.5 -231.5t-242 -156.5t-275.5 -56.5zM697 182q100 0 193 40.5t169.5 112.5t127 165.5
t65.5 199.5q20 142 -28.5 259.5t-148 188t-232.5 70.5q-100 0 -193 -40.5t-169.5 -112.5t-127 -165.5t-65.5 -199.5q-20 -142 28.5 -260t148 -188t232.5 -70zM617 -424q-47 0 -75 31t-21 78q7 46 43 77.5t83 31.5q46 0 73.5 -31.5t21.5 -77.5q-7 -47 -42.5 -78t-82.5 -31z
M1040 1798l153 -288h-139l-143 197l-196 -197h-138l230 288h233z" />
    <glyph glyph-name="uni1ED9" unicode="&#x1ed9;" horiz-adv-x="1120" 
d="M458 -26q-138 0 -241.5 71t-154 190.5t-30.5 264.5q15 110 67.5 205.5t131.5 168t175.5 113.5t199.5 41q138 0 241.5 -71t154.5 -191t30 -266q-15 -109 -67.5 -204t-131.5 -167.5t-175 -113.5t-200 -41zM487 182q83 0 155 44t121 116.5t61 157.5q12 87 -17 160t-89 116.5
t-141 43.5q-82 0 -154.5 -44t-121.5 -117t-61 -159q-13 -89 17 -161t90 -114.5t140 -42.5zM407 -424q-47 0 -75 31t-21 78q7 46 43 77.5t83 31.5q46 0 73.5 -31.5t21.5 -77.5q-7 -47 -42.5 -78t-82.5 -31zM774 1398l153 -288h-139l-143 197l-196 -197h-138l230 288h233z" />
    <glyph glyph-name="uni1EE4" unicode="&#x1ee4;" horiz-adv-x="1348" 
d="M572 -26q-168 0 -281 82t-162 220.5t-25 307.5l114 816h208l-114 -816q-15 -110 12.5 -201.5t97 -146t180.5 -54.5q112 0 196.5 54.5t137.5 146t68 201.5l114 816h208l-114 -816q-24 -169 -112 -307.5t-224 -220.5t-304 -82zM521 -424q-47 0 -75 31t-21 78q7 46 43 77.5
t83 31.5q46 0 73.5 -31.5t21.5 -77.5q-7 -47 -42.5 -78t-82.5 -31z" />
    <glyph glyph-name="uni1EE5" unicode="&#x1ee5;" horiz-adv-x="1060" 
d="M35 375l87 625h208l-81 -574q-9 -67 16 -122t75.5 -87.5t116.5 -32.5q67 0 126.5 32.5t100 87.5t49.5 122l80 574h208l-139 -1000h-208l14 108q-60 -62 -141 -98t-168 -36q-111 0 -194.5 54t-124.5 145t-25 202zM401 -423q-47 0 -75 31t-21 78q7 46 43 77.5t83 31.5
q46 0 73.5 -31.5t21.5 -77.5q-7 -47 -42.5 -78t-82.5 -31z" />
    <glyph glyph-name="Ygrave" unicode="&#x1ef2;" horiz-adv-x="1283" 
d="M1076 1400h245l-585 -768l-89 -632h-208l89 632l-370 768h245l261 -541zM558 1798h208l40 -288h-138z" />
    <glyph glyph-name="ygrave" unicode="&#x1ef3;" horiz-adv-x="1107" 
d="M847 1000h222l-759 -1500h-221l252 500l-219 1000h227l136 -715zM413 1398h208l40 -288h-138z" />
    <glyph glyph-name="uni1EF4" unicode="&#x1ef4;" horiz-adv-x="1283" 
d="M1076 1400h245l-585 -768l-89 -632h-208l89 632l-370 768h245l261 -541zM488 -424q-47 0 -75 31t-21 78q7 46 43 77.5t83 31.5q46 0 73.5 -31.5t21.5 -77.5q-7 -47 -42.5 -78t-82.5 -31z" />
    <glyph glyph-name="uni1EF5" unicode="&#x1ef5;" horiz-adv-x="1107" 
d="M847 1000h222l-759 -1500h-221l252 500l-219 1000h227l136 -715zM622 -424q-47 0 -75 31t-21 78q7 46 43 77.5t83 31.5q46 0 73.5 -31.5t21.5 -77.5q-7 -47 -42.5 -78t-82.5 -31z" />
    <glyph glyph-name="uni1EF8" unicode="&#x1ef8;" horiz-adv-x="1283" 
d="M1076 1400h245l-585 -768l-89 -632h-208l89 632l-370 768h245l261 -541zM911 1514q-37 0 -82 25t-89 56.5t-79.5 51.5t-54.5 9t-29 -33.5t-6 -57.5l-130 -34q-15 70 7 130t72 96.5t119 36.5q37 0 81 -21.5t87 -50t77.5 -50.5t53.5 -22q32 0 39.5 32t1.5 59l133 41
q15 -75 -9 -135.5t-74.5 -96.5t-117.5 -36z" />
    <glyph glyph-name="uni1EF9" unicode="&#x1ef9;" horiz-adv-x="1107" 
d="M847 1000h222l-759 -1500h-221l252 500l-219 1000h227l136 -715zM766 1114q-37 0 -82 25t-89 56.5t-79.5 51.5t-54.5 9t-29 -33.5t-6 -57.5l-130 -34q-15 70 7 130t72 96.5t119 36.5q37 0 81 -21.5t87 -50t77.5 -50.5t53.5 -22q32 0 39.5 32t1.5 59l133 41
q15 -75 -9 -135.5t-74.5 -96.5t-117.5 -36z" />
    <glyph glyph-name="uni2002" unicode="&#x2002;" horiz-adv-x="1000" 
 />
    <glyph glyph-name="uni2009" unicode="&#x2009;" horiz-adv-x="400" 
 />
    <glyph glyph-name="uni200B" unicode="&#x200b;" horiz-adv-x="0" 
 />
    <glyph glyph-name="endash" unicode="&#x2013;" horiz-adv-x="1240" 
d="M121 704h1000l-30 -208h-1000z" />
    <glyph glyph-name="emdash" unicode="&#x2014;" horiz-adv-x="2040" 
d="M121 704h1800l-30 -208h-1800z" />
    <glyph glyph-name="quoteright" unicode="&#x2019;" horiz-adv-x="370" 
d="M65 878l135 522h208l-205 -522h-138z" />
    <glyph glyph-name="quoteright" unicode="&#x2032;" horiz-adv-x="370" 
d="M65 878l135 522h208l-205 -522h-138z" />
    <glyph glyph-name="quotesinglbase" unicode="&#x201a;" horiz-adv-x="415" 
d="M-50 -112l109 338h208l-179 -338h-138z" />
    <glyph glyph-name="quotedblleft" unicode="&#x201c;" horiz-adv-x="750" 
d="M145 878l205 522h138l-135 -522h-208zM465 882l205 522h138l-135 -522h-208z" />
    <glyph glyph-name="quotedblright" unicode="&#x201d;" horiz-adv-x="750" 
d="M65 878l135 522h208l-205 -522h-138zM385 878l135 522h208l-205 -522h-138z" />
    <glyph glyph-name="quotedblright" unicode="&#x2033;" horiz-adv-x="750" 
d="M65 878l135 522h208l-205 -522h-138zM385 878l135 522h208l-205 -522h-138z" />
    <glyph glyph-name="quotedblbase" unicode="&#x201e;" horiz-adv-x="750" 
d="M-50 -112l109 338h208l-179 -338h-138zM287 -112l109 338h208l-179 -338h-138z" />
    <glyph glyph-name="dagger" unicode="&#x2020;" horiz-adv-x="835" 
d="M129 1053l30 208h233l34 239h208l-34 -239h233l-28 -208h-234l-67 -477h-208l67 477h-234z" />
    <glyph glyph-name="daggerdbl" unicode="&#x2021;" horiz-adv-x="835" 
d="M86 748l30 206h233l23 162h-234l29 208h234l25 176h208l-25 -176h233l-29 -208h-233l-23 -162h233l-29 -206h-233l-26 -188h-208l26 188h-234z" />
    <glyph glyph-name="bullet" unicode="&#x2022;" horiz-adv-x="453" 
d="M191 453q-61 0 -97.5 43t-27.5 105q8 60 56.5 103t109.5 43t98 -43t28 -103q-8 -62 -57 -105t-110 -43z" />
    <glyph glyph-name="ellipsis" unicode="&#x2026;" horiz-adv-x="1177" 
d="M87 -26q-46 0 -73 32t-21 78q7 45 43.5 77.5t81.5 32.5q46 0 74 -32.5t21 -77.5q-7 -46 -43.5 -78t-82.5 -32zM465 -26q-46 0 -73 32t-21 78q7 45 43.5 77.5t81.5 32.5q46 0 74 -32.5t21 -77.5q-7 -46 -43.5 -78t-82.5 -32zM845 -26q-46 0 -73 32t-21 78q7 45 43.5 77.5
t81.5 32.5q46 0 74 -32.5t21 -77.5q-7 -46 -43.5 -78t-82.5 -32z" />
    <glyph glyph-name="perthousand" unicode="&#x2030;" horiz-adv-x="2031" 
d="M92 0l1004 1400h240l-1004 -1400h-240zM375 813q-76 0 -134.5 37.5t-87.5 100.5t-18 141q11 80 58.5 143t116.5 99.5t144 36.5q76 0 134 -37.5t87 -101t18 -140.5q-11 -79 -58.5 -142t-116 -100t-143.5 -37zM396 960q55 0 99 38.5t51 93.5q8 56 -25 94.5t-88 38.5
t-99.5 -38.5t-51.5 -94.5q-8 -55 25.5 -93.5t88.5 -38.5zM953 27q-78 0 -136 39.5t-86 103t-18 137.5q11 78 58.5 141.5t116.5 101t143 37.5q80 0 138 -39t85.5 -103t17.5 -138q-11 -77 -57.5 -140.5t-115.5 -101.5t-146 -38zM1577 27q-78 0 -135.5 39.5t-86 103
t-18.5 137.5q11 78 59 141.5t116.5 101t143.5 37.5q79 0 137 -39t85.5 -103t17.5 -138q-11 -77 -57.5 -140.5t-115.5 -101.5t-146 -38zM974 174q54 0 99 39t52 94q8 55 -26 94t-88 39q-55 0 -99.5 -39t-52.5 -94q-7 -55 26.5 -94t88.5 -39zM1598 174q55 0 99.5 39t52.5 94
q7 55 -26.5 94t-88.5 39t-99.5 -39t-51.5 -94q-8 -55 25.5 -94t88.5 -39z" />
    <glyph glyph-name="uni2035" unicode="&#x2035;" horiz-adv-x="510" 
d="M277 878l-59 522h208l-11 -522h-138z" />
    <glyph glyph-name="guilsinglleft" unicode="&#x2039;" horiz-adv-x="736" 
d="M358 261l-252 340l348 338h215l-346 -338l250 -340h-215z" />
    <glyph glyph-name="guilsinglright" unicode="&#x203a;" horiz-adv-x="736" 
d="M38 261l347 340l-251 338h215l252 -338l-348 -340h-215z" />
    <glyph glyph-name="fraction" unicode="&#x2044;" horiz-adv-x="450" 
d="M-365 0l1004 1400h176l-1004 -1400h-176z" />
    <glyph glyph-name="fraction" unicode="&#x2215;" horiz-adv-x="450" 
d="M-365 0l1004 1400h176l-1004 -1400h-176z" />
    <glyph glyph-name="uni2070" unicode="&#x2070;" horiz-adv-x="648" 
d="M338 798q-69 0 -120.5 44t-74.5 119.5t-10 171.5q14 96 58.5 171.5t108 119.5t132.5 44q70 0 121 -44t74.5 -119.5t9.5 -171.5q-13 -96 -58 -171.5t-108 -119.5t-133 -44zM355 922q39 0 70.5 34.5t53 83.5t27.5 93q7 50 -1.5 98.5t-31 80.5t-58.5 32q-40 0 -71.5 -33
t-52 -82t-27.5 -96q-7 -50 1 -98.5t30.5 -80.5t59.5 -32z" />
    <glyph glyph-name="uni2074" unicode="&#x2074;" horiz-adv-x="688" 
d="M366 818l15 106h-253l22 158l284 367h152l-56 -394h63l-18 -131h-63l-14 -106h-132zM276 1055h134l30 212z" />
    <glyph glyph-name="uni2075" unicode="&#x2075;" horiz-adv-x="692" 
d="M330 798q-96 0 -155.5 61.5t-45.5 158.5h131q-6 -41 19.5 -68.5t67.5 -27.5t75.5 27.5t39.5 68.5t-20 69t-68 30q-36 2 -89.5 -2.5t-109.5 -15.5l82 350h343l-16 -116h-224l-17 -88q127 8 196.5 -54.5t53.5 -172.5q-14 -97 -90.5 -158.5t-172.5 -61.5z" />
    <glyph glyph-name="uni2076" unicode="&#x2076;" horiz-adv-x="706" 
d="M343 798q-100 0 -158 62.5t-44 158.5q4 28 15 54t38 67.5t79 113.5t138 192h153l-145 -201q97 -7 148.5 -72.5t39.5 -154.5q-14 -100 -92 -160t-172 -60zM360 922q45 0 79 31t36 75q3 42 -23.5 66.5t-63.5 24.5q-49 0 -82 -34.5t-34 -76.5q-3 -43 24.5 -64.5t63.5 -21.5z
" />
    <glyph glyph-name="uni2077" unicode="&#x2077;" horiz-adv-x="658" 
d="M166 818l354 498h-314l19 131h466l-19 -128l-356 -501h-150z" />
    <glyph glyph-name="uni2078" unicode="&#x2078;" horiz-adv-x="620" 
d="M322 798q-88 0 -142 55.5t-42 144.5q6 45 29 84t57 68q-43 54 -33 129q12 84 77.5 137t147.5 53q83 0 134.5 -53t40.5 -137q-11 -75 -70 -129q26 -29 38.5 -68t5.5 -84q-12 -89 -82.5 -144.5t-160.5 -55.5zM380 1211q29 0 52.5 20t27.5 48q4 29 -14 47t-47 18
q-27 0 -50 -18t-26 -47q-4 -28 13 -48t44 -20zM339 920q35 0 62.5 22t32.5 56t-16 58t-56 24q-33 0 -60.5 -24t-32.5 -58t16 -56t54 -22z" />
    <glyph glyph-name="uni2079" unicode="&#x2079;" horiz-adv-x="658" 
d="M190 818l146 204q-73 -2 -121 38.5t-62 103t14 127.5q24 81 94 129t153 48q75 0 125.5 -38t67.5 -99t-10 -128q-6 -37 -32 -75l-223 -310h-152zM368 1145q46 0 81.5 36.5t34.5 82.5q-1 37 -28 58.5t-60 21.5q-49 0 -83 -35t-33 -79q0 -44 29 -64.5t59 -20.5z" />
    <glyph glyph-name="uni2080" unicode="&#x2080;" horiz-adv-x="648" 
d="M221 -31q-69 0 -120 45.5t-74 123t-10 173.5q14 95 59 172.5t108.5 123t132.5 45.5q70 0 121 -45.5t74 -123t9 -172.5q-13 -96 -58 -173.5t-108.5 -123t-133.5 -45.5zM240 100q38 0 69.5 34.5t53 83t27.5 93.5q7 49 -1 97.5t-30.5 80.5t-59.5 32q-40 0 -71.5 -33.5
t-52 -82t-26.5 -94.5q-8 -50 0 -98.5t31 -80.5t60 -32z" />
    <glyph glyph-name="uni2081" unicode="&#x2081;" horiz-adv-x="441" 
d="M68 0l70 500h-70l37 131h182l-88 -631h-131z" />
    <glyph glyph-name="uni2082" unicode="&#x2082;" horiz-adv-x="705" 
d="M-2 0l16 118q60 38 136.5 85.5t143.5 104t98 121.5q6 43 -19.5 70t-66.5 27q-43 0 -77 -27t-40 -70h-131q9 64 47.5 115.5t96 82t122.5 30.5q96 0 154 -66t45 -162q-8 -55 -51.5 -108.5t-103.5 -101.5t-116 -88h222l-18 -131h-458z" />
    <glyph glyph-name="uni2083" unicode="&#x2083;" horiz-adv-x="570" 
d="M183 -31q-88 0 -142.5 60.5t-41.5 148.5h131q-5 -34 15.5 -56t56.5 -22q33 0 59.5 22t32.5 56q5 40 -24.5 70.5t-93.5 30.5l14 93q61 0 90.5 26t33.5 61q4 27 -13.5 44.5t-44.5 17.5t-49.5 -17.5t-26.5 -44.5h-131q12 82 77.5 137.5t147.5 55.5q83 0 133 -55.5t39 -137.5
q-6 -39 -24.5 -73t-43.5 -57q59 -62 47 -151q-9 -58 -44.5 -105.5t-88 -75.5t-109.5 -28z" />
    <glyph glyph-name="uni2084" unicode="&#x2084;" horiz-adv-x="688" 
d="M251 0l15 106h-253l22 158l284 367h152l-56 -394h63l-18 -131h-63l-14 -106h-132zM161 237h134l30 212z" />
    <glyph glyph-name="uni2085" unicode="&#x2085;" horiz-adv-x="692" 
d="M213 -31q-96 0 -155 65t-45 161h131q-6 -41 20 -68t67 -27q42 0 75.5 27t39.5 68t-20 70t-68 29l-199 -13l82 345h344l-16 -118h-225l-17 -85l52 3q108 0 160 -67t38 -164q-9 -64 -47.5 -115.5t-95.5 -81t-121 -29.5z" />
    <glyph glyph-name="uni2086" unicode="&#x2086;" horiz-adv-x="682" 
d="M226 -31q-100 0 -157 66t-44 162q4 28 15 54.5t38 68t79.5 113.5t138.5 192h153l-146 -203q97 -6 149 -71.5t39 -154.5q-9 -66 -48.5 -117.5t-96.5 -80.5t-120 -29zM245 100q44 0 78.5 31t35.5 75q3 42 -23 66.5t-63 24.5q-49 0 -81.5 -35t-34.5 -76q-3 -43 24 -64.5
t64 -21.5z" />
    <glyph glyph-name="uni2087" unicode="&#x2087;" horiz-adv-x="658" 
d="M48 0l358 500h-314l18 131h466l-19 -128l-359 -503h-150z" />
    <glyph glyph-name="uni2088" unicode="&#x2088;" horiz-adv-x="620" 
d="M205 -31q-88 0 -141.5 59t-41.5 147q7 45 30 84.5t56 68.5q-19 25 -28 58.5t-4 70.5q12 84 78 140t148 56q83 0 134 -56t39 -140q-10 -75 -69 -129q26 -29 38 -68.5t6 -84.5q-13 -88 -84 -147t-161 -59zM265 389q29 0 52 20.5t27 47.5q4 29 -13.5 47t-47.5 18
q-27 0 -49.5 -18t-26.5 -47q-4 -27 13 -47.5t45 -20.5zM224 98q35 0 62.5 22t32.5 55q4 34 -16.5 58.5t-55.5 24.5q-34 0 -61.5 -24.5t-32.5 -58.5q-4 -33 16.5 -55t54.5 -22z" />
    <glyph glyph-name="uni2089" unicode="&#x2089;" horiz-adv-x="659" 
d="M75 0l146 204q-73 -2 -120.5 39t-62 103.5t13.5 127.5q24 81 94.5 132t152.5 51q89 0 143 -53t60 -132.5t-49 -157.5l-226 -314h-152zM253 328q46 0 81.5 36t34.5 82q-1 37 -28 58.5t-60 21.5q-49 0 -83 -34.5t-33 -78.5q0 -45 29 -65t59 -20z" />
    <glyph glyph-name="Euro" unicode="&#x20ac;" horiz-adv-x="1137" 
d="M956 -15q-184 -32 -336 26t-250 184t-123 299h-196l21 146h170l16 118h-170l21 146h196q55 132 145.5 236.5t205.5 174.5t243 97t259 4l-31 -214q-119 31 -233.5 0t-209.5 -109t-154 -189h291l-20 -146h-334l-15 -118h332l-20 -146h-291q29 -114 103.5 -190.5
t180.5 -105.5t229 1z" />
    <glyph glyph-name="trademark" unicode="&#x2122;" horiz-adv-x="2994" 
d="M1277 1400l-29 -208h-446l-167 -1192h-208l167 1192h-445l29 208h1099zM1181 0l467 1400h168l226 -943l490 943h168l76 -1400h-212l-50 937l-459 -884h-139l-211 884l-312 -937h-212z" />
    <glyph glyph-name="oneeighth" unicode="&#x215b;" horiz-adv-x="1511" 
d="M183 818l70 500h-70l37 131h182l-88 -631h-131zM76 0l1004 1400h176l-1004 -1400h-176zM1096 -31q-88 0 -141.5 59t-41.5 147q7 45 30 84.5t56 68.5q-19 25 -28 58.5t-4 70.5q12 84 78 140t148 56q83 0 134 -56t39 -140q-10 -75 -69 -129q26 -29 38 -68.5t6 -84.5
q-13 -88 -84 -147t-161 -59zM1156 389q29 0 52 20.5t27 47.5q4 29 -13.5 47t-47.5 18q-27 0 -49.5 -18t-26.5 -47q-4 -27 13 -47.5t45 -20.5zM1115 98q35 0 62.5 22t32.5 55q4 34 -16.5 58.5t-55.5 24.5q-34 0 -61.5 -24.5t-32.5 -58.5q-4 -33 16.5 -55t54.5 -22z" />
    <glyph glyph-name="threeeighths" unicode="&#x215c;" horiz-adv-x="1639" 
d="M300 798q-88 0 -143 57t-43 146h131q-5 -35 16 -57t56 -22q34 0 60.5 22t31.5 57q5 40 -24 70t-93 30l13 93q61 0 90.5 26t34.5 60q4 27 -13.5 45.5t-45.5 18.5q-27 0 -49.5 -18.5t-25.5 -45.5h-132q12 83 77.5 135t147.5 52t133 -52t39 -135q-5 -38 -24 -72.5t-44 -56.5
q60 -62 47 -150q-13 -89 -83.5 -146t-156.5 -57zM205 0l1004 1400h176l-1004 -1400h-176zM1225 -31q-88 0 -141.5 59t-41.5 147q7 45 30 84.5t56 68.5q-19 25 -28 58.5t-4 70.5q12 84 78 140t148 56q83 0 134 -56t39 -140q-10 -75 -69 -129q26 -29 38 -68.5t6 -84.5
q-13 -88 -84 -147t-161 -59zM1285 389q29 0 52 20.5t27 47.5q4 29 -13.5 47t-47.5 18q-27 0 -49.5 -18t-26.5 -47q-4 -27 13 -47.5t45 -20.5zM1244 98q35 0 62.5 22t32.5 55q4 34 -16.5 58.5t-55.5 24.5q-34 0 -61.5 -24.5t-32.5 -58.5q-4 -33 16.5 -55t54.5 -22z" />
    <glyph glyph-name="fiveeighths" unicode="&#x215d;" horiz-adv-x="1762" 
d="M330 798q-96 0 -155.5 61.5t-45.5 158.5h131q-6 -41 19.5 -68.5t67.5 -27.5t75.5 27.5t39.5 68.5t-20 69t-68 30q-36 2 -89.5 -2.5t-109.5 -15.5l82 350h343l-16 -116h-224l-17 -88q127 8 196.5 -54.5t53.5 -172.5q-14 -97 -90.5 -158.5t-172.5 -61.5zM327 0l1004 1400
h176l-1004 -1400h-176zM1347 -31q-88 0 -141.5 59t-41.5 147q7 45 30 84.5t56 68.5q-19 25 -28 58.5t-4 70.5q12 84 78 140t148 56q83 0 134 -56t39 -140q-10 -75 -69 -129q26 -29 38 -68.5t6 -84.5q-13 -88 -84 -147t-161 -59zM1407 389q29 0 52 20.5t27 47.5
q4 29 -13.5 47t-47.5 18q-27 0 -49.5 -18t-26.5 -47q-4 -27 13 -47.5t45 -20.5zM1366 98q35 0 62.5 22t32.5 55q4 34 -16.5 58.5t-55.5 24.5q-34 0 -61.5 -24.5t-32.5 -58.5q-4 -33 16.5 -55t54.5 -22z" />
    <glyph glyph-name="seveneighths" unicode="&#x215e;" horiz-adv-x="1727" 
d="M166 818l354 498h-314l19 131h466l-19 -128l-356 -501h-150zM293 0l1004 1400h176l-1004 -1400h-176zM1313 -31q-88 0 -141.5 59t-41.5 147q7 45 30 84.5t56 68.5q-19 25 -28 58.5t-4 70.5q12 84 78 140t148 56q83 0 134 -56t39 -140q-10 -75 -69 -129q26 -29 38 -68.5
t6 -84.5q-13 -88 -84 -147t-161 -59zM1373 389q29 0 52 20.5t27 47.5q4 29 -13.5 47t-47.5 18q-27 0 -49.5 -18t-26.5 -47q-4 -27 13 -47.5t45 -20.5zM1332 98q35 0 62.5 22t32.5 55q4 34 -16.5 58.5t-55.5 24.5q-34 0 -61.5 -24.5t-32.5 -58.5q-4 -33 16.5 -55t54.5 -22z
" />
    <glyph glyph-name="arrowleft" unicode="&#x2190;" horiz-adv-x="1394" 
d="M533 231l-446 519l593 519l125 -147l-306 -268h836l-29 -208h-836l230 -268z" />
    <glyph glyph-name="arrowup" unicode="&#x2191;" horiz-adv-x="1199" 
d="M416 132l117 837l-305 -268l-127 148l593 519l446 -519l-167 -148l-232 268l-117 -837h-208z" />
    <glyph glyph-name="arrowright" unicode="&#x2192;" horiz-adv-x="1395" 
d="M729 231l-126 147l305 268h-836l30 208h835l-229 268l168 147l446 -519z" />
    <glyph glyph-name="arrowdown" unicode="&#x2193;" horiz-adv-x="1198" 
d="M518 133l-444 519l167 147l229 -267l118 835h208l-118 -835l307 267l126 -147z" />
    <glyph glyph-name="arrowboth" unicode="&#x2194;" horiz-adv-x="1788" 
d="M533 231l-446 519l593 519l125 -147l-306 -268h830l-229 268l168 147l447 -519l-593 -519l-127 147l306 268h-831l230 -268z" />
    <glyph glyph-name="arrowupdn" unicode="&#x2195;" horiz-adv-x="1199" 
d="M491 -64l-446 519l168 148l231 -269l116 832l-306 -268l-125 147l591 519l447 -519l-168 -147l-231 268l-116 -832l305 269l127 -148z" />
    <glyph glyph-name="uni2196" unicode="&#x2196;" horiz-adv-x="1107" 
d="M821 277l-510 591l-53 -379h-208l103 734h734l-29 -208h-378l508 -591z" />
    <glyph glyph-name="uni2197" unicode="&#x2197;" horiz-adv-x="1106" 
d="M167 278l-125 147l673 589h-380l29 208h735l-102 -734h-208l53 379z" />
    <glyph glyph-name="uni2198" unicode="&#x2198;" horiz-adv-x="1106" 
d="M233 278l29 208h379l-508 589l167 147l509 -589l53 379h208l-103 -734h-734z" />
    <glyph glyph-name="uni2199" unicode="&#x2199;" horiz-adv-x="1106" 
d="M21 278l103 734h208l-53 -379l673 589l127 -147l-674 -589h379l-29 -208h-734z" />
    <glyph glyph-name="partialdiff" unicode="&#x2202;" horiz-adv-x="1165" 
d="M481 -26q-138 0 -243 68t-157 182t-32 252q15 104 66.5 195.5t130.5 160.5t175.5 108t200.5 39q63 0 114.5 -25t83.5 -67q-11 74 -36.5 148.5t-70 136.5t-113.5 99t-167 37l28 208q164 0 288 -80t203 -220t107 -320t0 -380q-22 -159 -103.5 -281t-204.5 -191.5
t-270 -69.5zM510 182q83 0 155.5 40.5t121.5 107.5t60 146q11 81 -19.5 148t-91.5 107t-143 40t-155 -40t-121.5 -107.5t-59.5 -147.5t19 -147t91.5 -107t142.5 -40z" />
    <glyph glyph-name="emptyset" unicode="&#x2205;" horiz-adv-x="1160" 
d="M242 -68l-136 85l64 88q-69 72 -101.5 174.5t-16.5 220.5q15 110 67.5 205.5t131.5 168t175.5 113.5t199.5 41q98 0 177 -38l60 81l136 -85l-63 -88q69 -72 100.5 -175t15.5 -223q-15 -109 -67.5 -204t-131.5 -167.5t-175 -113.5t-200 -41q-49 0 -94 10t-84 28zM297 281
l388 543q-70 22 -142.5 5t-136 -65.5t-107.5 -119.5t-56 -155q-8 -63 7 -116t47 -92zM419 179q72 -23 145 -5.5t136 65.5t105.5 118.5t54.5 153.5q9 63 -5.5 117t-46.5 93z" />
    <glyph glyph-name="product" unicode="&#x220f;" horiz-adv-x="1280" 
d="M178 1400h1120l-29 -208h-156l-167 -1192h-208l167 1192h-392l-167 -1192h-208l167 1192h-156z" />
    <glyph glyph-name="summation" unicode="&#x2211;" horiz-adv-x="934" 
d="M-18 0l29 208l320 490l-182 490l29 208h794l-29 -208h-560l181 -490l-319 -490h561l-30 -208h-794z" />
    <glyph glyph-name="minus" unicode="&#x2212;" horiz-adv-x="1160" 
d="M51 496l30 208h1000l-30 -208h-1000z" />
    <glyph glyph-name="radical" unicode="&#x221a;" horiz-adv-x="1325" 
d="M988 1400h355l-29 -208h-210l-602 -1192h-262l-159 708h221l104 -459z" />
    <glyph glyph-name="infinity" unicode="&#x221e;" horiz-adv-x="1504" 
d="M360 271q-156 15 -233.5 114t-57.5 236q13 96 67.5 174.5t138 125.5t183.5 50q105 0 172.5 -48t133.5 -143q92 95 173.5 143t175.5 48q111 -3 182.5 -51t101 -127t16.5 -172q-14 -97 -67.5 -175t-136.5 -124.5t-183 -50.5q-105 0 -171.5 45.5t-135.5 143.5
q-96 -98 -176.5 -146t-182.5 -43zM1053 461q69 5 116.5 52t55.5 108q9 62 -25.5 108.5t-102.5 50.5q-66 0 -119 -44.5t-120 -114.5q50 -75 91 -117.5t104 -42.5zM386 461q68 0 123 47t116 113q-46 70 -87 115t-108 43q-69 -5 -116.5 -52.5t-55.5 -105.5q-9 -66 27.5 -110.5
t100.5 -49.5z" />
    <glyph glyph-name="integral" unicode="&#x222b;" horiz-adv-x="1006" 
d="M222 -26q-107 0 -168.5 74t-38.5 185l135 -11q-3 -32 4.5 -54.5t39.5 -24.5q31 -2 55.5 16t33.5 49l243 1031q15 54 57 96.5t98 67t111 23.5q70 -1 120 -38t72 -96t6 -126l-122 12q2 43 -19 61.5t-51 15.5q-27 0 -48.5 -19t-29.5 -49l-241 -1026q-34 -99 -104.5 -143
t-152.5 -44z" />
    <glyph glyph-name="approxequal" unicode="&#x2248;" horiz-adv-x="1277" 
d="M858 694q-65 0 -135.5 29t-141 67t-134.5 66.5t-116 28.5q-54 0 -85.5 -42t-30.5 -93l-204 -1q-4 85 41.5 161t122 124t165.5 48q63 0 127.5 -30t127.5 -68.5t123 -68t114 -29.5q55 0 88 41t32 94l204 2q4 -86 -34.5 -161t-107.5 -121.5t-156 -46.5zM858 146
q-65 0 -135.5 29t-141 67t-134.5 66.5t-116 28.5q-54 0 -85.5 -42t-30.5 -93l-204 -1q-4 85 41.5 161t122 124t165.5 48q63 0 127.5 -30t127.5 -68.5t123 -68t114 -29.5q55 0 88 41t32 94l204 2q4 -86 -34.5 -161t-107.5 -121.5t-156 -46.5z" />
    <glyph glyph-name="notequal" unicode="&#x2260;" horiz-adv-x="1160" 
d="M926 1182l-116 -267h300l-29 -208h-362l-92 -213h424l-29 -208h-484l-118 -268h-216l117 268h-299l29 208h360l92 213h-422l29 208h484l116 267h216z" />
    <glyph glyph-name="lessequal" unicode="&#x2264;" horiz-adv-x="1160" 
d="M1029 335l-960 284l48 346l1040 286l-29 -216l-882 -242l813 -241zM-18 0l29 208h1000l-29 -208h-1000z" />
    <glyph glyph-name="greaterequal" unicode="&#x2265;" horiz-adv-x="1160" 
d="M31 350l30 217l881 234l-814 234l29 216l962 -279l-49 -345zM-18 0l29 208h1000l-29 -208h-1000z" />
    <glyph glyph-name="lozenge" unicode="&#x25ca;" horiz-adv-x="1007" 
d="M230 0l-170 702l364 698h355l168 -698l-366 -702h-351zM423 134l306 568l-146 568l-304 -568z" />
    <glyph glyph-name="uniFFFD" unicode="&#xfffd;" horiz-adv-x="1630" 
d="M714 -26q-54 0 -103 20t-86 62l-355 414q-36 42 -48.5 94t-5.5 106q8 54 36 106t74 92l472 414q48 42 102.5 62t108.5 20t102.5 -20t84.5 -62l356 -414q36 -42 49 -93t5 -105q-7 -54 -34.5 -106t-75.5 -94l-473 -414q-46 -40 -100.5 -61t-108.5 -21zM718 515h146v2
q6 40 46 61q61 32 102.5 88.5t51.5 124.5q9 66 -16 121t-75 87t-116 32q-67 0 -126.5 -32t-99.5 -87t-50 -121h147q5 40 37 67t71 27t63 -27t18 -67q-8 -60 -58 -84q-58 -28 -95 -79t-46 -111v-2zM762 276q31 0 55 21.5t29 52.5q4 30 -14.5 51.5t-48.5 21.5
q-31 0 -55.5 -21.5t-28.5 -51.5q-4 -31 14.5 -52.5t48.5 -21.5z" />
    <glyph glyph-name="uni004A0301" horiz-adv-x="859" 
d="M210 -26q-74 0 -141 25t-118 74l156 160q22 -21 55.5 -36t76.5 -15q60 0 114 31.5t91 83t45 110.5l140 993h208l-139 -993q-17 -117 -88.5 -215.5t-176.5 -158t-223 -59.5zM695 1510l120 288h208l-188 -288h-140z" />
    <glyph glyph-name="uni013B.loclMAH" horiz-adv-x="1031" 
d="M22 0l196 1400h208l-167 -1192h604l-30 -208h-811zM200 -441l109 338h208l-179 -338h-138z" />
    <glyph glyph-name="uni0145.loclMAH" horiz-adv-x="1316" 
d="M22 0l196 1400h225l499 -1024l144 1024h208l-196 -1400h-225l-499 1024l-144 -1024h-208zM332 -441l109 338h208l-179 -338h-138z" />
    <glyph glyph-name="i.loclTRK" 
d="M162 1000h208l-140 -1000h-208zM288 1145q-47 0 -75 31t-21 78q7 46 43 77.5t83 31.5q46 0 73.5 -31.5t21.5 -77.5q-7 -47 -42.5 -78t-82.5 -31z" />
    <glyph glyph-name="uni006A0301" horiz-adv-x="471" 
d="M-249 -500l30 208q94 0 167 63t87 155l150 1074h208l-150 -1074q-17 -118 -88 -214.5t-176.5 -154t-227.5 -57.5zM251 1110l120 288h208l-188 -288h-140z" />
    <glyph glyph-name="uni013C.loclMAH" 
d="M23 0l210 1500h208l-210 -1500h-208zM-101 -441l109 338h208l-179 -338h-138z" />
    <glyph glyph-name="uni0146.loclMAH" horiz-adv-x="1100" 
d="M1010 628l-88 -628h-208l81 576q9 67 -16 122t-75.5 87.5t-116.5 32.5q-67 0 -126.5 -32.5t-99.5 -87.5t-50 -122l-81 -576h-208l140 1000h208l-14 -106q60 62 141 98t169 36q111 0 194 -54t124.5 -145t25.5 -201zM244 -441l109 338h208l-179 -338h-138z" />
    <glyph glyph-name="uni030C.alt" horiz-adv-x="0" 
d="M430 1110l120 288h208l-188 -288h-140z" />
    <glyph glyph-name="uni0326.loclMAH" horiz-adv-x="0" 
d="M240 -441l109 338h208l-179 -338h-138z" />
    </font>
</defs>
</svg>
