<?xml version="1.0" standalone="no"?>
<!DOCTYPE svg PUBLIC "-//W3C//DTD SVG 1.1//EN" "http://www.w3.org/Graphics/SVG/1.1/DTD/svg11.dtd" >
<svg xmlns="http://www.w3.org/2000/svg" xmlns:xlink="http://www.w3.org/1999/xlink" version="1.1">
<metadata>
Created by FontForge 20170731 at Thu Feb 17 13:04:11 2022
 By Aleksey,,,
(c) 1987, 1991, 1995, 1998, 2001, 2002 Adobe Systems Incorporated. All rights reserved.
</metadata>
<defs>
<font id="CooperBlackStd-Italic" horiz-adv-x="1208" >
  <font-face 
    font-family="Cooper Std Black"
    font-weight="900"
    font-style="italic"
    font-stretch="normal"
    units-per-em="2048"
    panose-1="2 8 9 3 5 3 11 9 4 4"
    ascent="1436"
    descent="-612"
    x-height="1049"
    cap-height="1452"
    bbox="-340 -512 2478 1989"
    underline-thickness="102"
    underline-position="-307"
    slope="-7"
    unicode-range="U+0020-FB02"
  />
<missing-glyph horiz-adv-x="1157" 
d="M133 0v1436h1024v-1436h-1024zM645 809l348 524h-696zM707 717l348 -522v1046zM297 102h696l-348 523zM236 1241v-1046l348 522z" />
    <glyph glyph-name="f_i" unicode="fi" horiz-adv-x="1593" 
d="M995 233l54 349q3 15 8 41.5t7.5 42.5t2.5 28q0 21 -10 31t-35 10q-18 0 -26.5 1t-24 7t-22.5 22t-7 42q0 25 11.5 47.5t25 37t40 30t41.5 22.5t44 19q79 34 181 60t175 26q92 0 92 -95q0 -30 -5 -79t-10.5 -87t-12 -80t-6.5 -44q-35 -199 -52 -338q-1 -14 2 -22.5
t12.5 -12t17.5 -4t24 -0.5q24 0 36 -2t21.5 -14t9.5 -35q0 -55 -52 -104.5t-125 -80t-144.5 -48t-118.5 -17.5q-64 0 -115 36t-51 97q0 36 12 114zM1206 1133q-182 10 -182 112q0 58 47.5 107.5t116 78.5t138 45.5t122.5 16.5q67 0 119 -28.5t51 -88.5q-1 -70 -79.5 -130
t-172.5 -88.5t-160 -24.5zM879 788l-7 -92q-2 -47 -7 -55q-8 -12 -48 -12q-43 -1 -54.5 -15.5t-19.5 -62.5l-79 -631q0 -9 0.5 -33.5t0 -34.5t-2 -29.5t-5.5 -30.5t-11 -26t-18.5 -26.5t-27.5 -22.5q-48 -33 -146.5 -58.5t-162.5 -25.5q-32 0 -63 6.5t-60.5 19.5t-47.5 38.5
t-18 58.5q0 44 37 76q15 14 24 24.5t14.5 24t8 21.5t6.5 30.5t7 36.5q36 152 66 328.5t30 282.5q0 15 -5 25t-9.5 15.5t-17.5 8t-18.5 3t-23.5 0t-22 -0.5q-52 0 -67 6.5t-15 32.5q0 11 4 61l6 68q1 5 2.5 19.5t3 18.5t6 11t12.5 9t21 1q9 0 29 -1t29.5 -0.5t22 2.5t18 8
t5.5 16q0 14 -14.5 34.5t-31.5 42t-31.5 65.5t-14.5 99q0 82 39 149t102.5 108.5t139.5 64t153 22.5q69 0 131 -22t107 -73t45 -122q0 -74 -45.5 -126t-118.5 -52q-53 0 -90 19t-86 61q-3 2 -16 13.5t-20.5 17t-19.5 11t-22 5.5q-24 0 -38.5 -17t-14.5 -40q0 -36 27 -63.5
t65 -37.5q45 -13 71 -21.5t63 -26.5t61 -43.5t37 -59.5q3 -9 5 -14t5.5 -9.5t4.5 -6t7 -2.5t8 -1h12.5h16.5q53 0 61.5 -8t4.5 -62z" />
    <glyph glyph-name="f_l" unicode="fl" horiz-adv-x="1654" 
d="M1616 1366l-109 -991q0 -72 35 -72q10 0 31 3t31 3q45 0 45 -63q0 -48 -36 -92t-90.5 -73.5t-119 -51.5t-122 -32.5t-99.5 -10.5q-88 0 -131.5 46t-34.5 152q17 193 64.5 538t54.5 411q3 26 -5.5 37.5t-33.5 11.5q-8 0 -24.5 -2t-24.5 -2q-64 0 -64 59q0 36 14.5 63.5
t44.5 46.5t53.5 29t63.5 23q197 65 340 65q59 0 88 -21t29 -77zM879 788l-7 -92q-2 -47 -7 -55q-8 -12 -48 -12q-43 -1 -54.5 -15.5t-19.5 -62.5l-79 -631q0 -9 0.5 -33.5t0 -34.5t-2 -29.5t-5.5 -30.5t-11 -26t-18.5 -26.5t-27.5 -22.5q-48 -33 -146.5 -58.5t-162.5 -25.5
q-32 0 -63 6.5t-60.5 19.5t-47.5 38.5t-18 58.5q0 44 37 76q15 14 24 24.5t14.5 24t8 21.5t6.5 30.5t7 36.5q36 152 66 328.5t30 282.5q0 15 -5 25t-9.5 15.5t-17.5 8t-18.5 3t-23.5 0t-22 -0.5q-52 0 -67 6.5t-15 32.5q0 11 4 61l6 68q1 5 2.5 19.5t3 18.5t6 11t12.5 9
t21 1q9 0 29 -1t29.5 -0.5t22 2.5t18 8t5.5 16q0 14 -14.5 34.5t-31.5 42t-31.5 65.5t-14.5 99q0 82 39 149t102.5 108.5t139.5 64t153 22.5q69 0 131 -22t107 -73t45 -122q0 -74 -45.5 -126t-118.5 -52q-53 0 -90 19t-86 61q-3 2 -16 13.5t-20.5 17t-19.5 11t-22 5.5
q-24 0 -38.5 -17t-14.5 -40q0 -36 27 -63.5t65 -37.5q45 -13 71 -21.5t63 -26.5t61 -43.5t37 -59.5q3 -9 5 -14t5.5 -9.5t4.5 -6t7 -2.5t8 -1h12.5h16.5q53 0 61.5 -8t4.5 -62z" />
    <glyph glyph-name=".notdef" horiz-adv-x="1157" 
d="M133 0v1436h1024v-1436h-1024zM645 809l348 524h-696zM707 717l348 -522v1046zM297 102h696l-348 523zM236 1241v-1046l348 522z" />
    <glyph glyph-name=".null" horiz-adv-x="0" 
 />
    <glyph glyph-name="nonmarkingreturn" horiz-adv-x="682" 
 />
    <glyph glyph-name="space" unicode=" " horiz-adv-x="604" 
 />
    <glyph glyph-name="exclam" unicode="!" horiz-adv-x="686" 
d="M367 424q97 0 162 -63.5t61 -163.5q-4 -105 -76 -172.5t-168 -67.5t-161.5 67.5t-61.5 172.5q4 100 75.5 163.5t168.5 63.5zM489 1464q109 0 170 -57t60 -164q-2 -98 -38 -215.5t-73.5 -195.5t-99.5 -193q-18 -36 -47 -63t-64 -27q-37 0 -57.5 26t-36.5 70
q-46 121 -72 269.5t-26 283.5q0 133 74 199.5t210 66.5z" />
    <glyph glyph-name="quotedbl" unicode="&#x22;" horiz-adv-x="1159" 
d="M449 1464q56 0 97 -23.5t61.5 -61.5t30 -77t9.5 -79q0 -97 -49 -229.5t-112.5 -226t-104.5 -93.5q-38 0 -81 80.5t-71 188t-28 187.5q0 144 67 239t181 95zM1008 1464q56 0 97 -23.5t61.5 -61.5t30 -77t9.5 -79q0 -97 -49 -229.5t-112.5 -226t-104.5 -93.5
q-38 0 -81 80.5t-71 188t-28 187.5q0 144 67 239t181 95z" />
    <glyph glyph-name="numbersign" unicode="#" 
d="M831 336l-38 -297q-6 -39 -45 -39h-78q-15 0 -25.5 12t-7.5 27l41 297q1 17 -8 28t-23 11h-74q-15 0 -27 -12t-14 -27l-40 -297q-6 -39 -46 -39h-77q-15 0 -25.5 12t-7.5 27l43 297q1 17 -8 28t-23 11h-92q-17 0 -28 11t-11 28v78q0 17 11 27.5t28 10.5h115q15 0 27.5 12
t15.5 27l10 76q1 17 -8 28t-23 11h-92q-17 0 -28 11t-11 28v78q0 17 11 28t28 11h115q15 0 27.5 12t15.5 27l37 274q6 39 45 39h77q15 0 25.5 -12t7.5 -27l-41 -276q-3 -15 6.5 -26t24.5 -11h72q15 0 27.5 12t15.5 27l39 274q6 39 45 39h78q15 0 25 -12t7 -27l-39 -276
q-3 -15 6.5 -26t24.5 -11h92q17 0 28 -11t11 -28v-78q0 -17 -11 -28t-28 -11h-114q-15 0 -27 -12t-14 -27l-11 -78q-3 -15 6.5 -26t24.5 -11h92q17 0 28 -10.5t11 -27.5v-78q0 -17 -11 -28t-28 -11h-119q-15 0 -27 -12t-14 -27zM598 530h72q15 0 27.5 12t15.5 27l10 76
q1 17 -8 28t-23 11h-74q-15 0 -26.5 -12t-13.5 -27l-11 -78q-3 -15 6.5 -26t24.5 -11z" />
    <glyph glyph-name="dollar" unicode="$" 
d="M868 1376l-8 -94q1 -5 3.5 -8.5t5 -5.5t7.5 -3.5t7 -2t9 -1.5l7 -1q37 -5 85.5 -20t101.5 -38t88.5 -58.5t35.5 -74.5q0 -59 -43.5 -127t-99.5 -68q-26 0 -53 18t-52.5 44t-53.5 52.5t-65.5 44.5t-78.5 18q-44 0 -74.5 -23.5t-30.5 -66.5q0 -38 28 -69t72.5 -55.5
t98.5 -49.5t108 -58t98.5 -73.5t72.5 -104t28 -141.5q0 -156 -110.5 -275t-268.5 -149q-55 -10 -59 -13q-10 -4 -16 -47q-6 -58 -21 -72t-78 -14l-96 -2q-17 0 -29 2.5t-20.5 5t-13 10.5t-7 12.5t-2 17.5t1 19.5t2.5 24.5l3 27q1 7 -3 11.5t-11.5 7t-13.5 3.5t-15.5 2
t-10.5 1q-48 7 -91.5 19.5t-89 34.5t-78.5 50.5t-54 71t-21 92.5q0 63 41 120.5t101 57.5q52 0 76 -41q63 -99 87 -126q75 -87 185 -87q49 0 90 31t41 78q0 24 -8 42.5t-25.5 32.5t-31.5 22.5t-39 20.5q-379 189 -379 443q0 151 94.5 252t247.5 151q3 1 12.5 4t12.5 4
t10 4.5t10 7t6.5 9.5t5.5 14t2 19q3 88 25 102q25 16 121 8q15 -1 37.5 -1.5t34.5 -1t24.5 -4t18 -12.5t5.5 -24z" />
    <glyph glyph-name="percent" unicode="%" horiz-adv-x="1576" 
d="M1239 1260q-52 -87 -216.5 -355.5t-273 -455t-198.5 -359.5q-3 -5 -11 -21t-11 -21.5t-11 -17.5t-14 -17t-16 -11.5t-21 -9t-25 -2.5q-37 0 -78.5 12.5t-41.5 40.5q0 20 22 55l94 148q108 169 216 353t243 422.5t201 352.5q27 52 50.5 71t74.5 19q98 0 98 -47
q0 -20 -15 -49t-39 -65t-28 -43zM1159 137q19 0 32.5 10t22 30t12 33.5t7.5 35.5q37 167 37 256q0 76 -47 76q-44 0 -68 -78q-17 -57 -29 -147.5t-12 -151.5q0 -64 45 -64zM422 877q19 0 32.5 10t22 30t12 33t7.5 35q36 162 36 256q0 76 -47 76q-19 0 -33.5 -14t-20.5 -28
t-13 -36q-17 -57 -29 -147.5t-12 -151.5q0 -63 45 -63zM1114 -10q-88 0 -159 28.5t-116.5 92t-45.5 153.5q0 200 137 330.5t338 130.5q88 0 159.5 -28.5t117.5 -92t46 -153.5q0 -132 -64 -238t-173 -164.5t-240 -58.5zM377 729q-88 0 -159 28.5t-117 92.5t-46 154
q0 200 137 330t338 130q65 0 122.5 -17t103 -49.5t72 -86t26.5 -121.5q0 -132 -64 -238t-173 -164.5t-240 -58.5z" />
    <glyph glyph-name="ampersand" unicode="&#x26;" horiz-adv-x="1937" 
d="M1092 772l356 152q35 14 62 28.5t58.5 36.5t48.5 51t17 62q0 26 -16.5 51t-40.5 25q-16 0 -45.5 -15.5t-48.5 -15.5q-23 0 -38 19.5t-15 43.5q0 58 47 104.5t108 68.5t115 22q132 0 207 -90t75 -223q0 -162 -105.5 -280.5t-250.5 -147.5q-26 -4 -58 -22t-32 -40
q0 -11 17.5 -35t35 -59t17.5 -72q0 -114 -82 -209.5t-199 -152.5q-217 -103 -475 -103q-114 0 -222.5 25t-204.5 77t-168 125.5t-113 177t-40 224.5q1 181 85.5 283t256.5 161q29 11 37 21t8 39q0 73 13 121t55 94q61 67 153.5 100t192.5 33q142 0 251.5 -60t109.5 -137
q0 -41 -31 -74.5t-72 -33.5q-25 0 -79 28.5t-95 28.5q-47 0 -77.5 -29.5t-30.5 -76.5q0 -36 18 -60.5t39 -34.5t39 -25t18 -34q0 -42 -50 -81.5t-105 -39.5q-34 0 -75 19.5t-48 19.5q-26 0 -62 -80q-30 -67 -30 -159q0 -102 40 -191t120.5 -146t183.5 -57q80 0 144.5 48
t64.5 126q0 38 -25 66.5t-64 28.5q-33 0 -71.5 -27t-57.5 -27q-39 0 -60 34.5t-21 76.5q0 40 19.5 74.5t57 62t66 44t72.5 36.5z" />
    <glyph glyph-name="quotesingle" unicode="'" horiz-adv-x="626" 
d="M449 1464q56 0 97 -23.5t61.5 -61.5t30 -77t9.5 -79q0 -97 -49 -229.5t-112.5 -226t-104.5 -93.5q-38 0 -81 80.5t-71 188t-28 187.5q0 144 67 239t181 95z" />
    <glyph glyph-name="parenleft" unicode="(" horiz-adv-x="1159" 
d="M1184 1432q-16 0 -55.5 8t-63.5 8q-48 0 -93 -33.5t-76 -81.5t-58.5 -111.5t-42.5 -113.5t-25 -96q-82 -366 -82 -609q0 -60 4 -109.5t19 -109t40 -100t71.5 -68.5t109.5 -28q28 0 85 8t85 8q59 0 59 -80q0 -25 -9.5 -45t-22 -32.5t-35.5 -21.5t-40.5 -13t-47.5 -6.5
t-44.5 -2.5h-42.5h-12q-141 0 -251.5 42t-182.5 113.5t-119 173.5t-66.5 215.5t-19.5 246.5q0 410 170 668q110 165 257.5 267.5t324.5 102.5q37 0 71.5 -5.5t71 -18t58.5 -40.5t22 -67q0 -29 -15.5 -49t-43.5 -20z" />
    <glyph glyph-name="parenright" unicode=")" horiz-adv-x="1159" 
d="M104 4q16 0 55.5 -8t63.5 -8q48 0 93 33.5t76 81.5t58.5 111.5t42.5 113.5t25 96q82 366 82 608q0 416 -244 416q-28 0 -85 -8t-85 -8q-59 0 -59 79q0 25 9.5 45t22 32.5t35.5 21.5t40.5 13t47.5 6.5t44.5 2.5h42.5h12q141 0 251.5 -41.5t182.5 -113t119 -173.5
t66.5 -215.5t19.5 -246.5q0 -410 -170 -668q-71 -106 -153.5 -185.5t-195.5 -132.5t-233 -53q-37 0 -71.5 5.5t-71 18t-58.5 40.5t-22 67q0 29 15.5 49.5t43.5 20.5z" />
    <glyph glyph-name="asterisk" unicode="*" horiz-adv-x="1484" 
d="M1214 1153l7 -61q0 -34 -34.5 -48.5t-75.5 -12.5t-75.5 -3t-34.5 -24q0 -9 44.5 -85t44.5 -106q0 -28 -64.5 -61t-85.5 -33q-26 0 -48.5 51.5t-42 103.5t-36.5 52q-11 0 -48.5 -36t-79 -72t-62.5 -36q-25 0 -69 51t-44 74q0 24 25 51.5t55 47t55 40t25 33.5
q0 11 -26.5 24.5t-58.5 25t-58.5 33t-26.5 46.5q0 26 31 82t59 56q30 0 96.5 -45.5t75.5 -45.5q8 0 14 7t9 19.5t4.5 23t2.5 22.5t1 14q1 7 2.5 25t3 28t5.5 25.5t10.5 23.5t18 14.5t27.5 6.5q27 0 53 -4t51 -20t25 -41q0 -23 -17.5 -88t-17.5 -82q0 -6 6 -11.5t13 -5.5
q22 0 88 13.5t90 13.5q35 0 47 -22t16 -64z" />
    <glyph glyph-name="plus" unicode="+" 
d="M1008 406h-140h-14q-71 0 -80 -9q-2 -2 -3.5 -4.5t-2.5 -6l-2 -7t-1.5 -9t-0.5 -10v-12.5v-13.5v-16v-17.5v-139q0 -72 -5 -89q-13 -36 -74 -42q-17 -2 -40 -2q-44 0 -69 5.5t-36 23.5t-12.5 33t-1.5 52v19v139q0 12 0.5 30t0.5 26t-1 17.5t-2.5 14.5t-5.5 8q-11 9 -96 9
h-139h-20q-36 0 -51.5 1.5t-33 12.5t-23 35.5t-5.5 68.5t5.5 69t23.5 36t33 12.5t52 1.5h19h139h17.5h16h13.5h12.5t10 0.5t9 1.5l7 2t6 2.5t4.5 3.5t3 4t2 5.5t1.5 7t1 9t0.5 10v12v13.5v16v18v139v19q-1 64 12 83q20 31 107 31q44 0 69 -5.5t36 -23.5t12.5 -33t1.5 -52
v-6.5v-6v-6.5v-139v-17.5v-16.5v-14v-12t0.5 -10t1.5 -9t2 -6.5t2.5 -5.5t3.5 -4q12 -10 94 -10h140q72 0 89 -5q36 -13 42 -74q2 -17 2 -40q0 -44 -5.5 -68.5t-23 -35.5t-32.5 -12.5t-52 -1.5h-20z" />
    <glyph glyph-name="comma" unicode="," horiz-adv-x="604" 
d="M258 -45q0 22 -16 38t-39 30.5t-46 34.5t-39 60t-16 97q0 103 58.5 162t161.5 59q119 0 180 -76.5t63 -199.5q1 -79 -35.5 -178t-88.5 -178t-108.5 -133t-92.5 -54q-28 0 -66.5 35.5t-38.5 62.5q0 22 21 47q102 131 102 193z" />
    <glyph glyph-name="hyphen" unicode="-" horiz-adv-x="604" 
d="M281 752l200 -15q37 0 85.5 6.5t51.5 6.5q35 0 35 -50q0 -29 -13 -84t-33.5 -112.5t-51 -99t-59.5 -39.5q-3 0 -22.5 2t-27.5 4q-161 11 -177 11.5t-183 -3.5q-22 0 -33.5 12.5t-9.5 34.5q2 36 16 91t36.5 111t57 94t70.5 34q9 -1 29 -2t29 -2z" />
    <glyph glyph-name="period" unicode="." horiz-adv-x="604" 
d="M324 432q97 0 162 -63.5t61 -163.5q-4 -105 -76 -172.5t-168 -67.5t-161.5 67.5t-61.5 172.5q4 100 75.5 163.5t168.5 63.5z" />
    <glyph glyph-name="slash" unicode="/" horiz-adv-x="856" 
d="M233 293l342 788l107 267q16 46 34.5 65.5t65.5 22.5q177 6 181 -62q0 -34 -21 -76l-170 -352l-414 -948q-37 -109 -53 -133q-18 -30 -39.5 -43.5t-58.5 -14.5q-53 -2 -108 14t-58 54q-1 11 2 22.5t6 19t9.5 21t9.5 19.5z" />
    <glyph glyph-name="zero" unicode="0" 
d="M578 -14q-220 0 -346 143.5t-126 378.5q0 140 45 270.5t125.5 232t203.5 163t268 61.5q220 0 345.5 -143.5t125.5 -378.5q0 -140 -45 -270.5t-125.5 -232t-203 -163t-267.5 -61.5zM598 195q29 0 55 22t37 68q34 125 60.5 336t23.5 284q-3 70 -16 93q-17 28 -53 28
q-30 0 -56 -22t-37 -68q-36 -131 -63 -342.5t-19 -278.5q1 -7 2.5 -25.5t2.5 -28t5.5 -24.5t11 -22.5t18.5 -13.5t28 -6z" />
    <glyph glyph-name="one" unicode="1" 
d="M442 485l23 242q0 117 -72 117q-23 0 -67.5 -22.5t-63.5 -22.5q-29 0 -43 27t-14 59q0 35 9.5 61.5t32 46.5t42.5 32t57 30q104 51 311 109.5t306 58.5q59 0 88.5 -20.5t29.5 -76.5q0 -58 -67 -104q-38 -23 -47 -38.5t-17 -63.5q-40 -226 -61 -566q-4 -79 18.5 -99.5
t102.5 -23.5q26 -2 38 -3t30 -6t25.5 -13t14 -23.5t6.5 -38.5q0 -163 -563 -163h-23q-28 -2 -66 0t-78.5 3.5t-80 11t-71 23.5t-51 39t-19.5 58q0 29 7.5 47.5t25 27.5t34 12.5t46.5 6.5q51 7 72.5 18.5t43.5 53.5q23 42 41 200z" />
    <glyph glyph-name="two" unicode="2" 
d="M979 395q4 5 14 20.5t15 22t15.5 18t19 17t21 10t26.5 4.5q86 0 86 -125q0 -47 -13 -118t-38 -147.5t-69.5 -130.5t-99.5 -54q-26 0 -41 11t-28 36q-18 30 -23 33q-14 8 -102 8h-443q-7 0 -35.5 -1t-45 0t-44 3t-44.5 8t-35 16.5t-26.5 28t-8.5 41.5q0 33 17 59.5
t48 57.5q2 2 40.5 36t56 50.5t62.5 58t71 68t68.5 70t69 75t58 72t49 72t30 64t12.5 57.5q0 41 -25.5 65.5t-65.5 24.5q-43 0 -91.5 -24.5t-83.5 -54.5t-74.5 -54.5t-67.5 -24.5q-43 0 -76.5 42t-30.5 83q6 64 77.5 128.5t170.5 110.5t208.5 74.5t191.5 28.5q64 0 125 -14
t116.5 -42.5t89 -80.5t33.5 -121q0 -66 -20.5 -116t-65.5 -111q-32 -44 -111.5 -121.5t-140 -139.5t-63.5 -86q-2 -15 6 -24t25 -12.5t28.5 -4t30.5 -0.5h2h2q30 -1 50.5 -1t39 7.5t37.5 26.5z" />
    <glyph glyph-name="three" unicode="3" 
d="M1178 410q0 -139 -55 -253.5t-148.5 -189t-215 -115t-255.5 -40.5q-57 0 -119.5 9.5t-131.5 31t-113 66t-44 104.5q0 32 22 62t52 30q19 0 56 -17t88.5 -34t105.5 -17q117 0 193.5 61.5t76.5 178.5q0 48 -10 77t-33 40t-43.5 13.5t-58.5 0.5q-81 -5 -108 16t-27 101
q0 24 1 35t5.5 24.5t16 21t30.5 13.5q80 24 139.5 75.5t59.5 124.5q0 45 -27 71t-72 26q-39 0 -75.5 -15t-63.5 -36t-51 -42t-47.5 -36t-44.5 -15q-41 0 -71 38.5t-30 80.5q0 112 223 229q205 105 383 105q52 0 100.5 -9t94 -29.5t79.5 -50.5t54.5 -75.5t20.5 -101.5
q0 -54 -19.5 -103.5t-43 -78.5t-43 -54.5t-19.5 -36.5q0 -15 17.5 -31.5t42 -36t49 -46t42 -71t17.5 -101.5z" />
    <glyph glyph-name="four" unicode="4" 
d="M1176 362l-19 -223q-1 -6 -2 -18.5t-1.5 -16.5t-2 -13t-3 -11.5t-5 -8t-8.5 -7t-12 -4t-15.5 -3t-20.5 -0.5q-49 0 -55 -12q-4 -7 -14 -82q-1 -10 -3 -37t-4.5 -43.5t-6.5 -25.5q-8 -14 -25 -18.5t-61 -4.5h-230q-49 0 -68.5 7t-23.5 28q-5 22 3.5 93t8.5 75q0 8 -4.5 13
t-12.5 6.5t-15 1.5t-16 -0.5t-11 -0.5h-387h-4q-14 -1 -24.5 0t-31 9t-33 23t-20.5 48.5t-4 79.5q11 112 49 187.5t125 187.5l426 502q40 43 65 68.5t66 60.5t76 54t81.5 33.5t94.5 14.5q35 0 58 -2.5t48 -11.5t37 -29.5t11 -52.5l-97 -768q-7 -44 -1.5 -54t36.5 -10h16.5
t14 -1.5t14 -5t7.5 -10.5t4 -18zM672 528l20 242q8 55 -18 55q-21 0 -94 -84t-138 -180t-65 -125q0 -9 8 -16t21 -11.5t30.5 -7.5t35 -4t36 -1h31.5t24 0.5t12 0.5q14 0 26 2t20.5 4t15.5 8t12 9.5t8.5 13.5t5.5 14.5t3.5 18t2 18.5t2 21t1.5 22z" />
    <glyph glyph-name="five" unicode="5" 
d="M283 741l57 193q40 139 68 184q10 16 20 25t27.5 13.5t24.5 5.5t34 3l377 29q4 0 26.5 1t51.5 3.5t57 7.5q24 4 53 11.5t47 12.5t21 5q27 0 27 -47q0 -57 -19 -137.5t-47 -120.5q-45 -66 -266 -76l-254 -14q-49 -3 -65 -17.5t-23 -70.5q-5 -41 43 -52q36 -8 98 -4
q82 7 162.5 -12.5t148 -62.5t111 -118t47.5 -171q5 -106 -42.5 -202.5t-128.5 -163.5t-186.5 -106.5t-213.5 -39.5q-51 0 -109.5 8.5t-123.5 28.5t-107.5 61t-42.5 96q0 32 13 57t42 25q14 0 88.5 -29.5t132.5 -29.5q81 0 138 40.5t57 119.5q0 48 -18.5 80.5t-53.5 49
t-70 23.5t-84 10q-30 2 -58.5 0t-53 -1t-43 5.5t-29 19t-10.5 40.5q0 72 76 317z" />
    <glyph glyph-name="six" unicode="6" 
d="M705 1384q33 0 106.5 -30.5t73.5 -57.5q0 -16 -25 -41q-180 -203 -217 -319q-21 -64 10 -59q5 1 35.5 18.5t81 33t111.5 15.5q100 0 173 -51t107.5 -131.5t34.5 -179.5q0 -121 -44.5 -231t-121.5 -190t-185.5 -127.5t-230.5 -47.5q-143 0 -249.5 71t-159.5 187.5
t-53 259.5q0 135 46 282t121 267q25 40 69.5 93.5t99.5 108t114.5 92t102.5 37.5zM715 709q-36 0 -66 -41t-46.5 -98.5t-25 -109.5t-8.5 -85q0 -187 80 -187q36 0 66 40.5t46.5 98t25 109t8.5 84.5q0 189 -80 189z" />
    <glyph glyph-name="seven" unicode="7" 
d="M1239 1016l-547 -1200q-15 -32 -22 -43.5t-25 -22t-47 -10.5q-41 0 -116.5 25t-141.5 68.5t-66 84.5q0 11 3.5 22t6.5 17.5t11 19.5t10 17l391 678q1 1 20 35t28.5 56.5t9.5 39.5q0 20 -16.5 33t-48.5 17.5t-54 6t-59 0.5l-37 -2q-13 -1 -44.5 -2t-39 -2t-26.5 -5.5
t-26 -12t-17 -21t-19 -33.5q-2 -3 -7.5 -15.5t-7 -15t-7 -12.5t-8 -12t-8 -9t-9.5 -9t-11 -6t-14 -5t-16 -2.5t-19 -1.5q-99 0 -110 133q-4 52 26 153t87 190.5t116 93.5q21 1 36.5 -5t25.5 -15t41 -16t79 -7h461q22 0 67 4t68 4q127 0 127 -82q0 -38 -45 -131z" />
    <glyph glyph-name="eight" unicode="8" 
d="M264 774q-49 96 -49 160q0 76 31 143.5t83 116t118.5 83.5t139 52t144.5 17q64 0 127 -14t120 -43t100.5 -70t69.5 -100t26 -128q0 -53 -18.5 -101t-41 -74t-41 -47.5t-18.5 -29.5q0 -7 20.5 -30t45 -53t45 -86.5t20.5 -120.5q0 -111 -49.5 -202.5t-130.5 -149
t-180.5 -89t-204.5 -31.5q-96 0 -187.5 29.5t-165 83.5t-118 138.5t-44.5 185.5q0 63 17.5 117t42.5 87.5t50 58t42.5 41t17.5 25.5q0 13 -12 31zM565 1038q0 -33 35 -67.5t79 -57t78.5 -37t39.5 -14.5q28 0 28 82q0 74 -38.5 133.5t-108.5 59.5q-43 0 -78 -28.5t-35 -70.5z
M805 291q0 18 -5 33.5t-19 29.5t-22 21.5t-31.5 20.5t-28 15t-31.5 15q-23 13 -94.5 50.5t-77.5 37.5q-21 0 -31 -38.5t-10 -65.5q0 -90 66 -157t155 -67q52 0 90.5 28t38.5 77z" />
    <glyph glyph-name="nine" unicode="9" 
d="M793 1235q146 0 248.5 -68t150 -179.5t47.5 -256.5q0 -281 -170 -577q-10 -18 -33.5 -56t-67 -99t-87 -113t-94 -90t-87.5 -38q-42 0 -114 37t-72 72q0 16 27 43q50 54 113 150.5t63 144.5q0 20 -15 20q-10 0 -43.5 -14.5t-87 -29.5t-110.5 -15q-112 0 -194.5 59.5
t-121.5 152t-39 202.5q0 139 55.5 261.5t148.5 208.5t219 135.5t264 49.5zM629 424q38 0 68.5 35t48 85.5t29.5 111.5t16 107.5t4 78.5q0 16 -2 35.5t-8.5 50.5t-23 51t-40.5 20q-38 0 -68.5 -35t-48 -85.5t-29.5 -111t-16 -107t-4 -78.5q0 -16 2 -35.5t8.5 -50.5t23 -51.5
t40.5 -20.5z" />
    <glyph glyph-name="colon" unicode=":" horiz-adv-x="604" 
d="M430 1059q96 0 159 -64t54 -164q-9 -105 -83.5 -172t-170.5 -67t-159 67t-54 172q9 100 83 164t171 64zM344 424q97 0 159.5 -63.5t53.5 -163.5q-9 -105 -83.5 -172.5t-170.5 -67.5t-159 67.5t-54 172.5q9 100 83 163.5t171 63.5z" />
    <glyph glyph-name="semicolon" unicode=";" horiz-adv-x="604" 
d="M258 -45q0 22 -16 38t-39 30.5t-46 34.5t-39 60t-16 97q0 103 58.5 162t161.5 59q119 0 180 -76.5t63 -199.5q1 -79 -35.5 -178t-88.5 -178t-108.5 -133t-92.5 -54q-28 0 -66.5 35.5t-38.5 62.5q0 22 21 47q102 131 102 193zM416 1059q96 0 161.5 -64t61.5 -164
q-4 -105 -76 -172t-168 -67t-161.5 67t-61.5 172q4 100 75.5 164t168.5 64z" />
    <glyph glyph-name="less" unicode="&#x3c;" 
d="M526 524l537 -233q48 -20 63 -39.5t15 -56.5v-66q0 -33 -10 -66.5t-31 -33.5q-10 0 -21 2.5t-18 4.5t-20.5 7.5t-18.5 7.5l-838 365q-8 3 -14.5 10.5t-9.5 14.5t-5.5 20.5t-3 20.5t-1 23t-0.5 19t0.5 19t1 23t3 20.5t5.5 20.5t9.5 15t14.5 11l838 364q7 2 19.5 7.5
t19.5 8t18 5t21 2.5q21 0 31 -33.5t10 -66.5v-64q0 -38 -15 -58t-63 -40z" />
    <glyph glyph-name="equal" unicode="=" 
d="M1008 606h-725q-72 0 -89 5q-36 13 -42 74q-2 17 -2 40q0 44 5.5 69t23.5 36t33 12.5t52 1.5h19h725q72 0 89 -5q36 -13 42 -74q2 -17 2 -40q0 -44 -5.5 -69t-23.5 -36t-33 -12.5t-52 -1.5h-19zM1008 205h-725h-19q-64 -1 -83 12q-31 20 -31 107q0 44 5.5 68.5t23 35.5
t32.5 12.5t52 1.5h20h725h20q36 0 51.5 -1.5t33 -12.5t23 -35.5t5.5 -68.5t-5.5 -69t-23.5 -36t-33 -12.5t-52 -1.5h-19z" />
    <glyph glyph-name="greater" unicode="&#x3e;" 
d="M227 291l537 233l-537 234q-48 19 -62.5 39t-14.5 57v66q0 34 9.5 67t30.5 33q10 0 21 -2.5t18 -5t19.5 -8t19.5 -7.5l838 -364q7 -3 12.5 -8t9 -13.5t6 -15t4 -18.5t2 -18t1 -19.5t0.5 -16.5t-0.5 -16.5t-1 -19t-2 -17.5t-4 -18.5t-6 -15t-9 -13.5t-12.5 -8l-838 -365
q-5 -2 -18.5 -7.5t-20.5 -7.5t-18 -4.5t-21 -2.5q-21 0 -30.5 33t-9.5 67v64q0 39 14.5 59t62.5 39z" />
    <glyph glyph-name="question" unicode="?" horiz-adv-x="997" 
d="M434 1075q-12 -31 -20 -49t-22.5 -42t-30.5 -37t-40.5 -22.5t-54.5 -9.5q-56 0 -88.5 31.5t-32.5 87.5q0 97 62.5 182t156.5 138t197 82.5t191 27.5q67 -2 127.5 -19t110.5 -50t80 -88t30 -125q0 -129 -86.5 -220t-222.5 -147q-8 -4 -28 -12.5t-32 -14t-29 -16t-27 -20.5
t-17 -25.5t-7 -32.5q0 -12 8.5 -32.5t8.5 -30.5q0 -32 -35.5 -54.5t-74 -30t-69.5 -7.5q-54 0 -88 28.5t-34 81.5q0 52 24 105.5t57.5 99t67.5 89t58 91t24 90.5q0 26 -12.5 45t-36.5 19q-25 0 -43.5 -8.5t-32.5 -29t-20.5 -33t-18.5 -42.5zM485 424q97 0 162.5 -63.5
t61.5 -163.5q-4 -105 -76 -172.5t-168 -67.5t-161.5 67.5t-61.5 172.5q4 100 75 163.5t168 63.5z" />
    <glyph glyph-name="at" unicode="@" horiz-adv-x="1484" 
d="M1008 1016q10 0 39 15t69.5 30.5t77.5 15.5q57 0 57 -39q0 -31 -45 -227t-45 -238q0 -45 29 -45q9 0 28 8.5t48 32t55.5 59t48.5 97.5t29 139q4 50 -10 108.5t-51.5 120.5t-93 112t-144 82t-195.5 32q-174 0 -321 -75.5t-240 -213.5t-108 -313q-12 -137 28.5 -251
t121.5 -190t195.5 -117.5t249.5 -41.5q75 0 148 22.5t125 54t93.5 63.5t68 54.5t34.5 22.5q24 0 52 -31.5t26 -52.5q-1 -7 -30.5 -36.5t-85.5 -70.5t-125 -79.5t-161.5 -65.5t-182.5 -27q-156 0 -292 54t-232 149t-145.5 232.5t-35.5 295.5q18 216 131 390.5t293.5 273
t392.5 98.5q95 0 188.5 -24.5t176.5 -75.5t144.5 -120.5t93.5 -167t22 -208.5q-15 -173 -102.5 -300.5t-219.5 -191t-290 -63.5q-45 0 -64.5 19.5t-18.5 43t-2 43t-18 19.5q-11 0 -37 -21t-55.5 -45.5t-78.5 -45.5t-101 -21q-89 0 -135 65.5t-37 174.5q10 105 59 205
t116.5 170.5t145.5 113.5t146 43q41 0 74 -15.5t56.5 -30.5t39.5 -15zM741 539q26 0 72 56.5t84 136t43 136.5q2 19 -3.5 34.5t-21.5 15.5q-19 0 -51 -28.5t-64 -72.5t-58 -104.5t-31 -116.5q-6 -57 30 -57z" />
    <glyph glyph-name="A" unicode="A" horiz-adv-x="1587" 
d="M870 340h-274q-72 -6 -95.5 -26.5t-23.5 -63.5q0 -22 18.5 -33t40 -14.5t40 -24t18.5 -57.5q0 -25 -5.5 -42.5t-28 -36.5t-62 -31t-111.5 -19.5t-174 -7.5q-35 0 -54.5 1t-55 4t-57 12t-44.5 23t-34 38.5t-11 56.5q0 37 10.5 55t30 25t41.5 13.5t51 29t53 61.5
q37 61 115 186t128 208.5t110.5 194.5t101 212.5t61.5 193.5q22 99 77.5 132.5t160.5 33.5q133 0 205.5 -66t120.5 -202q17 -49 41.5 -137.5t52 -203t47.5 -201.5t45 -198.5t29 -127.5q10 -45 29.5 -70t39 -32.5t38.5 -14t30.5 -25.5t11.5 -57q0 -36 -21.5 -62.5t-57 -41.5
t-79.5 -25t-89.5 -12t-87.5 -4t-72 0h-25q-5 0 -32.5 -0.5t-42 0t-45 1.5t-49 4.5t-44.5 8.5t-42.5 14t-32.5 21t-23.5 30t-7.5 39q0 33 13.5 53t33 29t38.5 16.5t32.5 23.5t13.5 42q0 42 -26.5 57t-70.5 17zM700 575h134q42 3 54.5 15t12.5 39q0 65 -37.5 175.5
t-62.5 110.5q-34 0 -98 -135t-64 -170q0 -27 61 -35z" />
    <glyph glyph-name="B" unicode="B" horiz-adv-x="1439" 
d="M752 1163l-23 -229q0 -4 -1.5 -17t-1.5 -16.5v-13.5t1.5 -13t4.5 -9.5t8.5 -8.5t13.5 -4t18 -2q46 0 78 25.5t46.5 69t20 82.5t5.5 83q0 65 -23.5 96t-85.5 31q-14 0 -23 -0.5t-15.5 -3.5t-9.5 -5t-5.5 -10t-3 -12.5t-2 -19t-2.5 -23.5zM698 557l-20 -303q0 -6 1 -11
t2 -8.5t4.5 -6.5t5.5 -5t6.5 -3t7 -1.5t9 -1t9 -0.5h10h10.5q162 0 162 264q0 85 -30.5 121.5t-112.5 36.5q-16 0 -25.5 -0.5t-17.5 -3.5t-11 -5t-5 -10t-2.5 -14t-1 -21.5t-1.5 -27.5zM918 0h-662q-130 0 -178.5 33t-48.5 94q0 39 20.5 61t45.5 28t50 19t31 35
q50 172 85.5 426t35.5 439q0 32 -14 50.5t-34 27t-40.5 16.5t-34.5 26.5t-14 49.5q0 53 35 85.5t79 42t95 7.5q207 -8 622 0q191 3 301.5 -82.5t110.5 -249.5q0 -57 -20.5 -109t-49.5 -86.5t-58.5 -61t-50 -44t-20.5 -25.5q0 -13 16.5 -25.5t41.5 -24t53.5 -35t53.5 -54
t41.5 -86t16.5 -125.5q0 -51 -12.5 -104t-48 -113.5t-90 -106.5t-147.5 -77t-211 -31z" />
    <glyph glyph-name="C" unicode="C" horiz-adv-x="1464" 
d="M670 623q0 -56 11.5 -107.5t35.5 -98t68.5 -74.5t103.5 -28q71 0 126.5 32.5t117.5 94.5q6 6 35.5 38t47.5 49t47.5 34t55.5 17q60 0 90.5 -38t30.5 -100q0 -42 -15.5 -95t-42 -102t-67.5 -84t-86 -38q-31 -3 -41.5 -6t-42.5 -19q-129 -68 -230.5 -97.5t-232.5 -29.5
q-261 0 -426.5 149.5t-165.5 407.5q0 173 65.5 341t177.5 298.5t274.5 212.5t342.5 84q60 1 116 -11t90 -24t40 -12q12 0 42.5 10.5t45.5 10.5q56 0 107.5 -54.5t79.5 -128.5t28 -139q0 -92 -49.5 -154.5t-138.5 -62.5q-52 0 -90 27.5t-61.5 67l-47 79t-60 67t-87.5 27.5
q-58 0 -109 -42.5t-84 -106t-57 -139.5t-34.5 -142t-10.5 -114z" />
    <glyph glyph-name="D" unicode="D" horiz-adv-x="1632" 
d="M815 1020l-53 -653q2 -70 10 -88q16 -30 62 -31q72 0 127 42t86.5 106t51.5 151.5t27 165.5t7 161q0 54 -4 97t-16.5 89.5t-33.5 78t-58.5 51.5t-88.5 20q-30 0 -51.5 -9.5t-32.5 -22.5t-17.5 -35.5t-8.5 -39t-3.5 -43.5t-3.5 -40zM850 0h-463q-30 0 -88 -4
q-62 -4 -90 -4q-75 0 -117.5 26t-42.5 95q0 39 13.5 60.5t34 29.5t42.5 14.5t43 24t31 49.5q37 119 77 403t40 408q0 46 -14 71.5t-34 34t-40.5 15.5t-34.5 24t-14 51q0 32 9 56t27.5 39t38 24t49 13t50.5 5t53 1q102 0 604 10q58 1 107 -2t117 -17t122 -38.5t110.5 -71
t94.5 -110.5t62 -161.5t24 -218.5q0 -43 -3.5 -88t-15 -107t-29.5 -120t-50 -122.5t-74 -119t-104 -105.5t-137.5 -87t-177.5 -57t-220 -21z" />
    <glyph glyph-name="E" unicode="E" horiz-adv-x="1427" 
d="M1026 0h-547q-46 0 -139 -9t-139 -9q-172 0 -172 120q0 34 13.5 54.5t34.5 31t43.5 20.5t45.5 32.5t35 58.5q35 105 76.5 387.5t41.5 400.5q0 44 -13 72t-31.5 40t-37 22.5t-31.5 29t-13 49.5q0 43 18 73t49 44.5t65 20.5t74 4q102 -4 156 -4q53 -2 160 -2h321
q88 0 150 12t69 12q60 0 116 -85.5t56 -219.5q0 -64 -31 -111t-91 -47q-39 0 -64.5 15t-37 37.5t-27.5 49t-33.5 49t-57 37.5t-96.5 15q-36 0 -61 -1t-45.5 -6.5t-33 -9.5t-23 -18t-15 -23t-9 -34t-5.5 -41.5t-4.5 -55t-6.5 -65.5q-1 -14 -3.5 -34t-2.5 -27t1 -16.5t7 -12
t16 -4.5t27 -2q33 0 52 19.5t27 47t16.5 55t28.5 47t55 19.5q137 0 137 -256q0 -48 -8.5 -105.5t-27 -121t-56.5 -105.5t-88 -42q-42 0 -62 21t-24 51.5t-6 61t-17.5 51.5t-50.5 21q-18 0 -30.5 -10.5t-19.5 -29.5t-11 -40t-5 -48t-0.5 -47.5t1.5 -45t1 -33.5v-52.5t6 -34
t10 -22.5t22.5 -10t33 -5h51.5h4h3.5h4h3.5q65 0 114 14.5t78 38t51 51.5t37.5 56t32 51.5t41 38t57.5 14.5q123 0 123 -164q0 -68 -23 -134.5t-57 -112.5t-71 -74.5t-66 -28.5q-1 0 -47 8q-75 6 -125 6z" />
    <glyph glyph-name="F" unicode="F" horiz-adv-x="1339" 
d="M702 1436h310q102 0 172 12q15 3 28.5 6t20.5 4.5t10 1.5q57 0 104 -57t69 -125.5t22 -122.5q0 -74 -34.5 -122t-105.5 -48q-43 0 -69 22t-40.5 53.5t-31.5 63.5t-54 54t-95 22q-56 0 -91 -3.5t-56 -9t-32 -20t-14.5 -27.5t-7.5 -40q-33 -175 -33 -236q0 -4 0.5 -7.5
t2.5 -6t3 -4.5t4.5 -3t5 -2t6 -1h6.5h7.5h7.5q38 0 58.5 19t29 46.5t17.5 55t32.5 46.5t65.5 19q37 0 63.5 -22t39.5 -58t18.5 -70.5t5.5 -68.5q0 -44 -2.5 -88.5t-14 -107.5t-29.5 -109t-53.5 -79.5t-82.5 -33.5q-42 0 -62.5 22t-24 53.5t-5.5 63.5t-15.5 54t-44.5 22
q-16 0 -23.5 -1.5t-20.5 -16.5t-18.5 -45.5t-10.5 -92t-5 -151.5q0 -36 14.5 -56.5t35.5 -28.5t42 -14.5t35.5 -22.5t14.5 -44q0 -27 -11.5 -49t-35 -37t-47 -26t-61.5 -17.5t-63.5 -10.5t-67 -5.5t-58.5 -1.5h-52h-9h-7q-243 0 -333.5 29.5t-90.5 115.5q0 32 11.5 50.5
t29.5 26t37.5 14t39.5 22.5t31 43q40 101 83.5 389t43.5 418q0 36 -7.5 60.5t-19.5 36t-26.5 18.5t-29.5 13t-27 14.5t-19.5 27t-7.5 47.5q0 40 19.5 68.5t53 42t67 19t71.5 5.5q95 0 190 -4t121 -4z" />
    <glyph glyph-name="G" unicode="G" horiz-adv-x="1576" 
d="M1386 1366q45 -49 71 -119t26 -137q0 -92 -54.5 -154.5t-144.5 -62.5q-43 0 -76 20.5t-51 51.5t-38 67t-37.5 67t-50 51.5t-75.5 20.5q-68 0 -124 -43.5t-91.5 -109.5t-59.5 -147.5t-34 -152.5t-10 -130q0 -52 10 -102t31.5 -98.5t63.5 -78.5t98 -30q60 0 95.5 37.5
t35.5 97.5q0 43 -10.5 55t-53.5 23q-80 20 -80 94q0 159 435 159q352 0 352 -161q0 -45 -24.5 -65.5t-71.5 -31.5q-14 -3 -24.5 -9t-16.5 -10t-12 -15.5t-8 -15.5t-7.5 -22t-7.5 -24q-39 -108 -117 -191t-178 -132t-209.5 -73t-224.5 -24q-141 0 -258.5 37t-204.5 108.5
t-135.5 184.5t-48.5 256q0 174 68 340t182 291.5t275 202.5t337 77q53 0 104.5 -13t87 -26.5t49.5 -13.5q13 0 44.5 10.5t48.5 10.5q62 0 124 -70z" />
    <glyph glyph-name="H" unicode="H" horiz-adv-x="1636" 
d="M707 508l-21 -248q0 -28 14 -44t31 -21.5t31 -23t14 -48.5t-12.5 -53.5t-47.5 -43.5t-107.5 -31.5t-182.5 -10.5q-70 0 -116.5 1.5t-94 6t-76.5 13.5t-53 23t-34.5 36t-10.5 51q0 31 18 52.5t40.5 32t44.5 26.5t28 36q63 211 90 443.5t27 420.5q0 33 -12 52t-29 27
t-34.5 16t-29.5 26t-12 49v4q-1 16 1 28.5t25 38t65.5 42t134.5 30t220 13.5q91 0 151 -8t92 -25t44.5 -37.5t12.5 -50.5q0 -33 -12.5 -54.5t-31.5 -34t-38.5 -24t-36 -33.5t-21.5 -55q-26 -172 -26 -221v-8.5v-9t1.5 -8t5 -8t9.5 -6.5t14.5 -6.5t22 -5t30.5 -4.5t40 -2
t51 -1q124 0 141 49q9 26 17 114t8 132q0 31 -9.5 50.5t-23 29t-26.5 18t-22.5 26t-9.5 44.5q0 54 34.5 83t124 42.5t259.5 13.5q100 0 165 -8t97.5 -24.5t44 -36t11.5 -48.5q0 -37 -13.5 -57t-34 -28.5t-42 -17.5t-39.5 -34t-23 -68q-4 -30 -27 -189t-32 -229.5t-20.5 -192
t-14.5 -214.5q-1 -42 10 -64t27.5 -28.5t33 -12t28.5 -24t12 -55.5q0 -42 -27 -70.5t-107 -47.5t-215 -19q-81 0 -132.5 1.5t-101 6t-77 13t-49.5 23.5t-30.5 36t-8.5 51q0 36 17 55t38.5 24t42.5 22t27 48q45 225 45 285q0 65 -133 65q-117 0 -144.5 -17.5t-37.5 -78.5
q-1 -6 -2 -10z" />
    <glyph glyph-name="I" unicode="I" horiz-adv-x="944" 
d="M233 383l84 676q1 10 6 43.5t5 58.5q0 27 -15 42.5t-36 21.5t-42 13.5t-36 27t-15 53.5q0 33 13 51q60 82 387 82q176 0 268.5 -11t135 -40t42.5 -84q0 -36 -16.5 -54.5t-40.5 -24.5t-49.5 -12t-46 -23.5t-25.5 -51.5q-4 -23 -14 -67.5t-11 -51.5l-79 -565
q-15 -113 -15 -135q0 -46 15 -72t36.5 -35t43 -16.5t36.5 -26t15 -53.5q0 -30 -15.5 -54t-37 -39t-58.5 -25.5t-65.5 -15.5t-72.5 -8t-65 -3h-58h-7h-6q-265 0 -366 30.5t-101 120.5q0 27 10 44t26.5 25.5t36.5 15t41 16t39.5 25t33 46.5t19.5 76z" />
    <glyph glyph-name="J" unicode="J" horiz-adv-x="1261" 
d="M1221 1116l-74 -649q-12 -110 -66 -198t-127.5 -142.5t-165.5 -91t-174.5 -50.5t-160.5 -14q-62 0 -124 11t-122.5 36.5t-107 62.5t-75 93.5t-28.5 124.5q0 115 80.5 190.5t202.5 75.5q79 0 138.5 -51.5t59.5 -130.5q0 -37 -16.5 -80t-16.5 -49q0 -22 17.5 -34.5
t40.5 -12.5q46 -2 82.5 53.5t58 151t36 196.5t20.5 216.5t8 182.5t2 121q0 43 -17 60t-41.5 16l-49 -2t-41.5 17t-17 63q0 59 37.5 94t146 55.5t303.5 20.5q345 0 356 -118v-25q0 -39 -15 -56.5t-37.5 -21.5t-45.5 -10t-42 -31t-25 -74z" />
    <glyph glyph-name="K" unicode="K" horiz-adv-x="1585" 
d="M1421 1174l-174 -142q-139 -115 -139 -147q0 -24 31 -80l288 -531q19 -30 48 -54t50 -36t36.5 -31.5t15.5 -46.5q0 -25 -4 -40t-22.5 -32.5t-53 -27t-98 -16t-156.5 -6.5q-32 0 -56.5 1t-47.5 4.5t-38.5 6.5t-31.5 12t-26 15t-23 22t-20 26t-19.5 34.5t-20 40t-22.5 48.5
q-4 9 -6 13l-139 268q-1 1 -5.5 10.5t-7.5 15t-9 15.5t-10 16.5t-10.5 15t-12 13.5t-11.5 8.5t-12 3.5q-9 0 -16 -3.5t-11.5 -11t-8 -15t-5.5 -19.5t-3.5 -20.5t-2 -21.5t-0.5 -19.5v-18v-12.5q0 -11 -1 -45.5t-0.5 -59.5t3.5 -44q4 -22 15.5 -39t25.5 -27t27.5 -20
t22.5 -25t9 -35q0 -28 -11 -50.5t-34 -38t-46.5 -27.5t-59.5 -18.5t-62.5 -10.5t-66 -5.5t-58.5 -2t-51 -0.5h-10q-98 0 -167 10.5t-102.5 23t-51 35t-19.5 34.5t-2 34q0 35 16.5 53t38 24t46 30.5t36.5 68.5q43 151 81 413t38 418q0 35 -18 55t-39.5 27.5t-39.5 29
t-18 58.5q0 45 36 77t95.5 48t117.5 22.5t120 6.5q76 0 135 -5.5t95.5 -12.5t62 -20.5t36.5 -21.5t17 -25t6 -20.5v-17.5q0 -33 -10.5 -52.5t-27.5 -27.5t-35 -15t-35.5 -22.5t-26.5 -42.5q-10 -36 -20.5 -103t-10.5 -99q0 -62 20 -62q18 0 96 65.5t149 142t71 101.5
q0 9 -19.5 43t-19.5 64q0 20 5 35t25.5 34.5t56.5 32t104.5 21t162.5 8.5q84 0 140.5 -12t82 -33.5t34.5 -42.5t9 -49q0 -47 -21 -68t-50 -22.5t-73 -12.5t-77 -38z" />
    <glyph glyph-name="L" unicode="L" horiz-adv-x="1345" 
d="M1030 0h-672q-2 0 -11 -0.5t-24 -1t-30 -0.5q-66 -4 -119 -4q-64 0 -104.5 29t-40.5 92q0 34 12.5 54.5t32.5 31.5t41.5 20.5t44.5 31.5t37 56q33 81 74.5 394t41.5 442q0 29 -23 46.5t-50.5 25.5t-50.5 31.5t-23 62.5q0 86 116.5 113.5t422.5 27.5q94 0 155 -8.5
t91.5 -26t41.5 -38.5t11 -52q0 -37 -10.5 -57t-27.5 -26.5t-38 -10t-43 -13t-41.5 -28.5t-34.5 -64t-21 -114l-49 -600q-9 -88 2 -121q5 -11 14 -19t23 -13t25.5 -8t30 -4t28 -1.5t28 0t21.5 0.5q53 0 94 14t66 36t45 48.5t35.5 53t31.5 48.5t39.5 36t53.5 14
q123 0 123 -142q0 -44 -14 -105.5t-39 -124t-67 -106t-91 -43.5q-35 0 -74 13q-50 10 -84 10z" />
    <glyph glyph-name="M" unicode="M" horiz-adv-x="1888" 
d="M1171 569l-159 -254q-20 -32 -30.5 -47t-35 -45.5t-48 -45.5t-46.5 -15q-13 0 -24 3.5t-19 7.5t-16 14.5t-12 15.5t-10.5 20t-8.5 19.5t-7.5 22.5t-6.5 20l-82 247q-43 150 -68 150q-8 0 -14 -6.5t-10.5 -17.5t-7 -20.5t-4.5 -20.5t-3 -13q-59 -295 -59 -336
q0 -25 10.5 -42.5t25 -27.5l29 -20t25 -25.5t10.5 -37.5q0 -30 -10 -50t-42 -40.5t-105 -30.5t-187 -10q-30 0 -49.5 1t-54 4t-57.5 11t-47 20.5t-36 34.5t-12 51q0 39 12 60t31.5 29t40.5 14.5t42.5 25.5t33.5 52q193 516 198 800q1 44 -16.5 69t-42.5 34t-50.5 17t-43 27
t-17.5 54q0 11 2 22t12 28.5t27 31.5t50 30t77 27t112.5 18t152.5 7q64 0 101.5 -7t67 -29.5t47 -53t42.5 -90.5q19 -45 52 -156.5t61 -181.5t52 -70q19 0 50.5 37.5t67.5 97t66.5 113.5t58.5 108t32 60q32 58 64 92.5t75.5 52t86 22.5t112.5 5q33 0 56 -1t63.5 -4.5
t69 -12.5t57.5 -23.5t44 -39t15 -56.5q0 -44 -16 -64.5t-40 -27.5t-49 -17.5t-47 -46.5t-30 -102q-4 -56 -18.5 -222t-21.5 -280t-7 -223q0 -46 18 -76t39 -42t39 -31.5t18 -45.5q0 -84 -115.5 -118.5t-336.5 -34.5q-32 0 -55.5 1t-64.5 4.5t-69.5 12.5t-58 23t-45 38
t-15.5 56q0 34 18.5 54.5t41 27.5t46.5 19.5t32 31.5q24 58 44.5 191.5t20.5 207.5v7v7.5t-0.5 7t-2 8t-3.5 5.5t-5.5 4.5t-8.5 1.5q-24 0 -99 -123z" />
    <glyph glyph-name="N" unicode="N" horiz-adv-x="1665" 
d="M1137 1319q0 16 0.5 22t6.5 23.5t17.5 26.5t37 22.5t61.5 20.5t94.5 12.5t132.5 5.5q61 0 103 -2.5t84 -10.5t66.5 -22t40 -38.5t15.5 -59.5t-18.5 -54t-45.5 -25.5t-54.5 -14t-48.5 -28t-25 -58.5q0 -2 -16 -79t-21 -114l-84 -581q-14 -96 -32 -164t-38 -110t-47.5 -66
t-56 -32.5t-66.5 -8.5q-21 0 -40.5 3.5t-38 13.5t-32 17.5t-31.5 26t-27 26.5t-26.5 32.5l-22.5 31.5t-23.5 34.5t-20.5 31.5l-299 450q-75 117 -109 117q-13 0 -22.5 -12t-15.5 -34.5t-9 -38.5t-6 -41l-2 -26q-7 -45 -19 -168.5t-12 -146.5q0 -38 15 -63.5t36 -38t42 -23.5
t36 -28.5t15 -43.5q0 -120 -273 -120q-358 0 -358 131q0 35 20 54.5t45 26t51.5 22t35.5 40.5q43 116 72.5 249.5t40 212t23.5 220t17 172.5q4 43 -11 65t-40 28t-50.5 11.5t-44 25t-18.5 58.5q0 35 12.5 61t40.5 42t58.5 26.5t82 15t95.5 6t113 1.5q49 0 78.5 -2t60 -11.5
t50.5 -23t46.5 -42t49.5 -63t59 -91.5l231 -347q94 -141 117 -141q24 0 39.5 48.5t21 128t6.5 113.5t1 69q2 50 -5.5 81t-22 42.5t-32.5 16t-36.5 6t-34 6.5t-25.5 24t-10 53z" />
    <glyph glyph-name="O" unicode="O" horiz-adv-x="1540" 
d="M1595 903q0 -188 -71 -360t-191 -297.5t-287 -200t-352 -74.5q-131 0 -241.5 37t-192 107t-127 177t-45.5 240q0 188 71 360t191 297.5t287 200t352 74.5q131 0 241.5 -37t192 -107t127 -177t45.5 -240zM770 236q62 0 112 58.5t79.5 143t49 187t26.5 181t7 134.5
q0 260 -131 260q-62 0 -112 -58.5t-79.5 -143t-49 -187t-26.5 -181t-7 -134.5q0 -260 131 -260z" />
    <glyph glyph-name="P" unicode="P" horiz-adv-x="1366" 
d="M774 1061l-22 -168q-15 -116 -15 -121q0 -24 7 -29.5t32 -5.5q46 0 81 28.5t55 70t32.5 96t16.5 98t4 84.5q0 129 -119 129q-34 0 -48 -40q-8 -25 -24 -142zM715 522l-10 -155q-8 -56 -1.5 -89.5t21.5 -45.5t34.5 -20.5t37 -13t29.5 -22.5t12 -51q0 -78 -102 -109.5
t-345 -31.5q-66 0 -119.5 3.5t-90 11t-64 15t-43.5 20t-26 21.5t-13.5 23.5t-4.5 22t-1 20.5q0 35 11.5 52t29.5 22.5t37.5 11t38.5 25t30 55.5q40 138 84.5 439t44.5 439q0 27 -15 41t-36.5 18.5t-42.5 10.5t-36 24.5t-15 53.5q0 133 219 133q54 0 168 -4q89 -6 147 -6
q80 0 162 6q106 4 160 4q450 0 450 -377q0 -84 -22 -161t-72.5 -148.5t-125 -124t-186.5 -84t-249 -31.5q-17 0 -48 1t-48 1z" />
    <glyph glyph-name="Q" unicode="Q" horiz-adv-x="1581" 
d="M1606 903q0 -187 -70 -358t-179 -288.5t-239 -178.5q14 -31 62 -52.5t87 -28.5t60 -7q48 0 100.5 24.5t75.5 24.5q34 0 59 -35.5t25 -71.5q0 -74 -43 -134.5t-110 -95t-140 -53t-141 -18.5q-63 0 -123 12.5t-104.5 29t-101.5 50.5t-91.5 58t-98.5 71q-22 17 -34 25
q-141 105 -215 105q-39 0 -96 -24t-86 -24q-47 0 -72 35.5t-25 83.5q0 47 25 77.5t72 57.5q-56 73 -82 165t-23 179q0 188 71 360t191 297.5t287 200t352 74.5q131 0 241.5 -37t192 -107t127.5 -177t46 -240zM780 236q62 0 112.5 58.5t79.5 143t49 187t27 181t7 134.5
q0 26 -1 48t-5 56.5t-13 60t-22.5 49.5t-36.5 36t-53 10q-62 0 -112.5 -58.5t-79.5 -143t-49 -187t-27 -181t-7 -134.5q0 -26 1 -48t5 -56.5t13 -60t22.5 -49.5t36.5 -36t53 -10z" />
    <glyph glyph-name="R" unicode="R" horiz-adv-x="1587" 
d="M786 1130l-24 -227q-2 -23 -2 -39t12 -24.5t39 -8.5q43 0 73.5 27.5t44.5 72.5t19.5 85t5.5 82q0 65 -23 100t-85 35q-17 0 -28 -5t-17 -19t-8 -21t-4.5 -30.5t-2.5 -27.5zM725 563l-18 -256q0 -28 0.5 -37t5 -24.5t14.5 -24t29 -18.5q35 -16 51 -32t16 -48
q0 -140 -388 -139h-1h-1h-1h-1h-1h-2h-1h-11h-17h-55.5t-64.5 2.5t-72 7.5t-65.5 15.5t-59 25.5t-38 38.5t-15.5 53.5q0 60 61 78q45 16 57.5 28.5t32.5 60.5l2 4t2 4.5t2 4.5q43 102 85 422t24 440q-3 17 -11 26t-14.5 11.5t-27.5 7.5q-25 7 -36 10.5t-24 12.5t-17.5 23.5
t-4.5 37.5q0 131 209 140h673q91 2 165.5 -13.5t136 -51t98 -99.5t43.5 -152q5 -74 -15 -133t-52 -94t-64.5 -59.5t-56 -42.5t-23.5 -31q0 -8 2 -14.5t7 -12t9 -9t11.5 -9t11.5 -8.5q3 -2 12 -8.5t12 -9t10.5 -8t10.5 -8.5t9 -8.5t9 -9t7.5 -10t7.5 -12t6 -12.5t6 -15
q20 -60 28 -184t21 -168q7 -24 18.5 -34.5t34.5 -18.5q2 -1 13 -5t14.5 -5.5t13 -6t13 -7.5t10 -8.5t9 -10.5t5 -12t2.5 -15q0 -42 -32 -73t-81.5 -46.5t-94 -22.5t-83.5 -7q-103 0 -174 27.5t-104.5 69.5t-54 105t-25 120t-14.5 129.5t-25 119.5q-22 66 -111 66
q-38 0 -48 -9.5t-15 -48.5z" />
    <glyph glyph-name="S" unicode="S" horiz-adv-x="1316" 
d="M606 -31q-83 0 -162 15.5t-152.5 50t-128 84t-87.5 123.5t-33 164q0 81 40.5 135.5t119.5 54.5q35 0 61.5 -13t46 -41.5t29 -49t24.5 -59.5q2 -4 3 -7l2 -6q78 -195 209 -195q56 0 96.5 31t40.5 86q0 36 -27 71.5t-70 67.5t-95 67.5t-104 79t-95 93.5t-70 119.5
t-27 148.5q0 111 47 203t125.5 150.5t178 90t206.5 31.5q59 0 131 -17t76 -17q10 0 49.5 17t71.5 17q57 0 110 -51.5t82 -119t29 -122.5q0 -70 -45 -122t-114 -52q-41 0 -78 22t-64.5 53.5t-54.5 62.5t-61 53t-72 22q-42 0 -69 -22.5t-27 -63.5q0 -27 10.5 -50t31 -41
t39 -30t45.5 -26q163 -89 223 -133q147 -109 179 -256q10 -46 10 -99q0 -104 -41 -192t-108.5 -147t-156.5 -101t-183.5 -61t-190.5 -19z" />
    <glyph glyph-name="T" unicode="T" horiz-adv-x="1384" 
d="M504 1436h583q92 0 146 12t67 12q58 0 106 -61t70.5 -133.5t22.5 -126.5q0 -88 -43.5 -146.5t-126.5 -58.5q-43 0 -73.5 26t-46 63.5t-28 75t-30 63.5t-41.5 26q-22 0 -36 -12.5t-21.5 -39t-12.5 -59.5t-10 -82q-1 -9 -1.5 -14t-1 -12.5t-1.5 -14.5q-2 -21 -18 -161
t-26.5 -257.5t-10.5 -195.5q0 -49 16 -77t38.5 -38t45.5 -17.5t39 -25t16 -51.5q0 -21 -10.5 -39t-43 -38.5t-85 -35.5t-145.5 -24.5t-215 -9.5q-105 0 -180 11t-112 25t-57 36t-23 35.5t-3 31.5q0 34 15 54t38.5 28t48 14.5t47.5 21.5t33 42q31 84 76 435t45 402
q0 27 -12 47.5t-37 20.5q-28 0 -48 -26t-35.5 -63.5t-35 -75t-55.5 -63.5t-86 -26q-69 0 -107.5 42.5t-38.5 110.5q0 67 35 153t100 153t136 67q19 0 59 -12q46 -12 74 -12z" />
    <glyph glyph-name="U" unicode="U" horiz-adv-x="1628" 
d="M1579 1114l-63 -420q-14 -95 -25.5 -157.5t-36 -146t-55.5 -137.5t-82.5 -112.5t-117.5 -92t-161 -55.5t-213 -22q-103 0 -191.5 13.5t-168.5 45.5t-136 81t-89 124t-33 171q0 121 41.5 363.5t40.5 346.5q-1 38 -15 58.5t-33.5 26t-39.5 10.5t-33.5 22t-13.5 51v4
q-9 83 124 125q122 39 351 39q93 0 158.5 -10t98.5 -23t51 -34.5t21 -36t3 -37.5q0 -33 -12 -53t-30.5 -27.5t-40.5 -19t-42 -26t-35.5 -52t-20.5 -93.5q-19 -153 -32.5 -254t-17.5 -126t-7.5 -58.5t-9.5 -105.5q-19 -234 190 -234q201 0 268 187q46 122 70.5 315.5
t24.5 353.5q0 44 -16.5 67.5t-40.5 31.5t-48 15.5t-40.5 29t-16.5 61.5q0 32 13 53.5t47.5 39.5t99.5 27t163 9q71 0 126.5 -6t89.5 -13t58 -21t34.5 -22t16 -25t5.5 -20.5v-17.5q0 -41 -16 -63t-40 -30t-48.5 -16t-45.5 -33t-28 -71z" />
    <glyph glyph-name="V" unicode="V" horiz-adv-x="1521" 
d="M1491 1167l-438 -893q-92 -177 -149.5 -233.5t-145.5 -56.5q-107 0 -151.5 78t-112.5 329l-6 21t-5 19t-6 22l-178 649q-10 34 -30 54.5t-41 29t-41 17t-33 27t-13 50.5v5q0 17 1 27t9.5 29.5t24.5 32.5t49.5 29t81 25.5t122 16.5t169.5 7q87 0 148 -8t94 -19.5t51 -32
t22.5 -38.5t4.5 -45q0 -30 -14 -48.5t-34 -27t-38.5 -16.5t-29.5 -24.5t-7 -43.5q29 -171 72.5 -344.5t72.5 -173.5q24 0 81 120t103.5 252t46.5 168q0 25 -14.5 44t-31.5 30t-31.5 33t-14.5 51q0 123 312 123q272 0 272 -115q0 -39 -13 -62t-34 -32t-43.5 -15t-45.5 -20.5
t-36 -40.5z" />
    <glyph glyph-name="W" unicode="W" horiz-adv-x="2312" 
d="M2281 1151l-487 -952q-111 -215 -240 -215q-35 0 -64 17t-46.5 39t-34 59.5t-24 61.5t-17.5 62q-1 3 -7.5 27.5t-12 46t-15 56t-18 63.5t-19 63t-20.5 60t-20 48t-19 34t-16 12q-31 0 -129 -175t-134 -257q-16 -36 -35 -68.5t-48 -69t-67.5 -58t-80.5 -21.5q-25 0 -46 8
t-36 19.5t-29 33t-22 37.5t-17.5 44.5t-13.5 44t-11 45.5t-9 40l-228 879q-6 24 -24 38t-38.5 20.5t-40.5 15t-33 28.5t-13 53q0 49 35 82t104.5 50t150 23.5t193.5 6.5q38 0 64 -1.5t65 -8.5t63 -20t42 -39.5t18 -63.5q0 -28 -10.5 -46.5t-26 -29t-31 -22.5t-26 -34.5
t-10.5 -56.5q0 -64 46 -258t77 -194q28 0 78 80t89 175.5t39 139.5q0 42 -14 71.5t-34 45.5t-40.5 29.5t-34.5 33t-14 47.5q0 33 17 58t61 47.5t131.5 34.5t216.5 12q305 0 305 -121q0 -37 -13 -59t-32 -31t-37.5 -17.5t-31.5 -27t-13 -51.5q0 -61 25.5 -176.5t62 -211
t62.5 -95.5q35 0 94 133q3 7 22 48t31 67.5t30.5 71.5t29.5 77t19.5 66.5t8.5 56.5q0 24 -13.5 41t-29.5 25t-29.5 28.5t-13.5 52.5q0 65 78.5 94t249.5 29q25 0 40.5 -0.5t46 -2.5t50 -6t45 -13t40.5 -21.5t25.5 -31.5t10.5 -44q0 -41 -23 -64t-53.5 -30.5t-66 -29.5
t-54.5 -58z" />
    <glyph glyph-name="X" unicode="X" horiz-adv-x="1466" 
d="M500 840l-164 299q-20 37 -54 58t-61.5 27t-48 24.5t-20.5 54.5q0 26 11 47.5t34 36.5t49.5 26t67.5 18t76.5 11.5t88 6.5t91.5 2.5t96 0.5q126 0 177 -20q68 -27 68 -91q0 -31 -14.5 -54t-32.5 -34t-32.5 -24t-14.5 -27q0 -23 29 -86t49 -63q25 0 75 72t50 106
q0 8 -10.5 44t-10.5 54q0 22 4.5 37.5t21.5 33t47.5 28t86.5 17.5t135 7q27 0 46 -1t51.5 -4t55.5 -10.5t46 -19.5t35 -32.5t12 -47.5q0 -43 -18 -63.5t-50.5 -28t-70 -15.5t-85.5 -36.5t-87 -79.5l-154 -213q-17 -20 -40 -53.5t-23 -48.5q0 -9 14.5 -40.5t31 -62
t35.5 -65.5t21 -39l172 -293q20 -38 51.5 -62t56 -32.5t42.5 -27t18 -48.5v-4q0 -13 -1 -21.5t-9 -24.5t-23 -27t-47 -25t-77 -22.5t-116 -14.5t-161 -6q-130 0 -201.5 15t-96 41.5t-24.5 72.5q0 30 16 48t34.5 24.5t34.5 19.5t16 33q0 31 -43 123t-68 92
q-27 0 -94.5 -100.5t-67.5 -135.5q0 -9 14.5 -25t29 -39.5t14.5 -52.5q0 -116 -291 -116h-9h-44t-50 2.5t-55.5 6.5t-50.5 12t-45 20t-29 30.5t-12 42.5q0 35 13 54t40 32t59.5 26.5t80 47.5t92.5 86l225 260q59 66 59 92q0 15 -25.5 66t-41.5 78z" />
    <glyph glyph-name="Y" unicode="Y" horiz-adv-x="1441" 
d="M489 825l-206 336q-22 29 -54.5 46.5t-55.5 24t-40.5 24.5t-17.5 49q0 58 44.5 89t151 44.5t305.5 13.5q109 0 170.5 -13.5t84 -38.5t22.5 -67q0 -32 -14.5 -54t-31.5 -31.5t-31.5 -23.5t-14.5 -32q0 -32 42 -115t66 -84q14 -1 54 46.5t73 99.5t33 65t-11 27t-24 25
t-24 31.5t-11 45.5q0 119 301 119q139 0 205 -25.5t66 -89.5q0 -39 -24 -60.5t-54.5 -27t-66.5 -18.5t-54 -35l-239 -295q-45 -55 -67 -87t-39 -60t-23.5 -67t-9.5 -71.5t-7 -109.5l-8 -240q-1 -28 13.5 -43.5t36 -21l43 -11t37 -21t15.5 -44.5v-3q0 -13 -1 -21t-8.5 -24
t-21.5 -27t-43.5 -24.5t-71 -21.5t-107 -14t-148.5 -6q-67 0 -106.5 1t-94.5 4t-87 11t-63.5 21t-46 34t-14.5 49q0 36 17 56.5t41.5 28.5t49.5 15t44.5 22.5t23.5 43.5l58 414q0 52 -56 141z" />
    <glyph glyph-name="Z" unicode="Z" horiz-adv-x="1310" 
d="M147 256l451 686q102 152 102 195q0 26 -30 38.5t-60 12.5q-64 0 -107.5 -13.5t-65.5 -35.5t-35 -48t-22 -52t-20.5 -48t-36 -35.5t-63.5 -13.5q-63 0 -93 39t-30 104q0 75 34.5 161t90.5 146t111 60q27 0 47 -8t82 -8h653h13q26 0 40 -0.5t39.5 -2.5t40.5 -8.5t31.5 -16
t24.5 -27t8 -40.5q0 -40 -24 -87.5t-94 -154t-114 -181.5l-268 -451q-3 -6 -20 -33.5t-28 -47t-21.5 -43.5t-10.5 -38q0 -25 40 -37t73 -12q56 0 95.5 12.5t60 33t34 44.5t22.5 48.5t19.5 45t30.5 33t51 12.5q62 0 92.5 -42.5t30.5 -106.5q0 -54 -24 -135.5t-72.5 -152.5
t-104.5 -71q-8 0 -73.5 13.5t-126.5 9.5h-359q-60 0 -178 -4q-91 -6 -180 -6q-28 0 -49.5 3.5t-42.5 12.5t-32 29t-11 49q0 58 79 172z" />
    <glyph glyph-name="bracketleft" unicode="[" horiz-adv-x="1159" 
d="M889 1260l-184 -1186q-3 -50 9 -69t60 -25q42 0 98.5 4t75.5 4q86 0 86 -62q0 -23 -11 -42t-32 -32t-45.5 -22.5t-57.5 -14.5t-61 -8.5t-62.5 -4t-56.5 -0.5t-49 0.5t-34 0.5q-198 0 -256 19q-28 11 -42.5 41.5t-13.5 63t4 61.5l187 1284q7 51 12 79t17 82t30.5 92
t42.5 60q9 9 22 16t30.5 11.5t33.5 8t39 5.5t39 3.5t40.5 2t36.5 0.5h34.5h27.5q15 -1 74.5 0t101 -1.5t92 -11t78 -32t27.5 -59.5q0 -40 -30 -62.5t-76 -25.5q-32 -2 -86.5 3t-59.5 5q-73 0 -98 -25q-8 -10 -14 -25.5t-11 -37.5t-7.5 -35.5t-6.5 -38t-4 -26.5z" />
    <glyph glyph-name="backslash" unicode="\" horiz-adv-x="911" 
d="M459 1081l370 -788l179 -336q2 -5 9 -19t9.5 -21t5.5 -19t2 -23q0 -26 -31 -43t-65.5 -21.5t-65.5 -3.5q-37 1 -59 14.5t-41 43.5q-10 14 -21 38.5t-22 54t-16 40.5l-447 948l-182 352q-21 42 -21 76q0 68 177 62q25 -1 41.5 -7t28 -19.5t17.5 -25t17 -36.5z" />
    <glyph glyph-name="bracketright" unicode="]" horiz-adv-x="1159" 
d="M395 176l185 1186q3 49 -9.5 68.5t-60.5 25.5q-42 0 -98.5 -4t-75.5 -4q-86 0 -86 61q0 23 11 42t32 32t45.5 22.5t57.5 14.5t61 8.5t62.5 4t56.5 0.5t49 -0.5t34 -0.5q201 0 256 -18q28 -11 42.5 -41.5t13.5 -63t-4 -61.5l-187 -1284q-10 -69 -17 -110t-30.5 -108
t-54.5 -96q-9 -9 -22 -16t-30.5 -11.5t-33.5 -8t-39 -5.5t-39 -3.5t-40.5 -2t-36.5 -0.5h-34.5h-27.5q-31 3 -76.5 0t-97.5 1.5t-96 12t-73.5 31.5t-29.5 60q0 40 30.5 62.5t76.5 25.5q32 2 86 -3t59 -5q74 0 98 24q8 10 14 25.5t11 37.5t7.5 36t6.5 38.5t4 26.5z" />
    <glyph glyph-name="asciicircum" unicode="^" 
d="M879 418l-234 536l-233 -536q-19 -48 -39.5 -63t-57.5 -15h-65q-33 0 -66.5 10t-33.5 31q0 10 2.5 21t4.5 18t7.5 20.5t7.5 18.5l365 837q3 7 8 12.5t13.5 9t15 6t18.5 4t17.5 2t19 1t16.5 0.5t16.5 -0.5t19.5 -1t18 -2t18.5 -4t15 -6t13.5 -9t8 -12.5l364 -837
q2 -7 7.5 -19.5t8 -19.5t5 -18t2.5 -21q0 -21 -34 -31t-67 -10h-63q-38 0 -58 15t-40 63z" />
    <glyph glyph-name="underscore" unicode="_" horiz-adv-x="1024" 
d="M0 -154h1024v-102h-1024v102z" />
    <glyph glyph-name="grave" unicode="`" horiz-adv-x="813" 
d="M655 1317q3 -3 18.5 -19t21 -22.5t12 -20.5t6.5 -28q0 -34 -24 -53t-58 -19q-70 0 -173 40.5t-187.5 112t-84.5 144.5q0 27 21 47t54 29t61.5 12.5t54.5 3.5q22 0 58 -5t78 -14.5t71.5 -28t29.5 -42.5q0 -9 -12 -33q-8 -16 -8 -22q0 -8 4.5 -17.5t13 -19.5t15 -17
t16.5 -16.5t12 -11.5z" />
    <glyph glyph-name="a" unicode="a" horiz-adv-x="1290" 
d="M592 295q50 4 109 98t94.5 201t33.5 160q0 26 -9.5 46t-31.5 19q-51 -4 -110 -87.5t-96.5 -187t-36.5 -169.5q0 -20 3 -36.5t14 -31t30 -12.5zM1161 1049q44 0 65.5 -18.5t18.5 -59.5q-3 -52 -27.5 -230t-33.5 -299q-7 -108 2 -131q2 -6 5 -10.5t5 -6.5t7 -3.5t7.5 -2
t10 -1t10.5 -0.5q51 -7 51 -51q0 -62 -80.5 -123t-176 -95t-155.5 -34q-51 0 -79.5 18t-36.5 43.5t-10.5 51t-8.5 43.5t-24 18q-14 0 -37.5 -19t-54 -46t-68.5 -54.5t-92 -46.5t-113 -19q-90 0 -151.5 49.5t-86 122.5t-20.5 160q8 185 81 348.5t200 271.5t280 122
q49 5 92.5 -7t69 -29.5t52.5 -32.5t46 -15q20 0 78 32q106 54 174 54z" />
    <glyph glyph-name="b" unicode="b" horiz-adv-x="1226" 
d="M696 1290l-14 -131q-1 -11 -10.5 -91.5t-9.5 -123.5q0 -37 24 -37q12 0 39.5 24t59 53t84.5 53t110 24q60 0 108 -21t80 -56t52.5 -82t28.5 -98.5t5 -105.5q-9 -154 -61.5 -285t-143.5 -229.5t-228 -154.5t-306 -56q-68 0 -130.5 13.5t-120 42.5t-92 83t-34.5 126
q0 34 5.5 83t11.5 85.5t16.5 96t13.5 79.5q52 329 52 503q0 48 -9.5 63.5t-52.5 18.5q-51 3 -68.5 16.5t-17.5 63.5q0 25 9.5 46t22.5 34.5t36.5 26.5t39.5 19t44 16q69 26 180.5 50.5t173.5 24.5q60 0 84 -19.5t23 -58t-5 -96.5zM735 739q-40 0 -73.5 -69.5t-50.5 -157.5
t-25.5 -162t-5.5 -90q3 -22 5 -32.5t12.5 -24t27.5 -13.5q44 0 79.5 62t53.5 143.5t27 146t8 83.5l-1.5 27t-4.5 28.5t-9.5 30t-16.5 19.5t-26 9z" />
    <glyph glyph-name="c" unicode="c" horiz-adv-x="1126" 
d="M891 311q4 2 22.5 13.5t26.5 15.5t23 9t28 5q36 0 58 -36.5t22 -75.5q0 -81 -149 -162q-191 -107 -396 -107q-97 0 -176.5 22.5t-140.5 68t-95 121t-34 175.5q0 139 59.5 268.5t157.5 223.5t229 150.5t269 56.5q64 0 123 -16.5t108.5 -48.5t80 -85.5t32.5 -122.5
q3 -97 -70.5 -174t-169.5 -77q-56 0 -103.5 33.5t-47.5 88.5q0 30 17 76.5t17 61.5t-11 25.5t-26 10.5q-44 1 -78.5 -51t-51.5 -127t-25 -138.5t-8 -106.5q0 -29 4 -55t14 -53.5t31.5 -43.5t52.5 -16q86 0 207 71z" />
    <glyph glyph-name="d" unicode="d" horiz-adv-x="1288" 
d="M586 305q56 1 110.5 92.5t84 196.5t28.5 164q0 71 -53 71q-56 0 -109 -93t-81 -199t-27 -168q2 -31 12 -48t35 -16zM621 1059q45 1 82.5 -14.5t60.5 -31.5t33 -16q25 0 39 58.5t14 95.5q0 45 -39 45q-7 0 -21.5 -2t-21.5 -2q-61 0 -61 63q0 32 14 57t42 43t51 28t58 22
q63 21 169 41t165 20q46 0 70 -25.5t24 -72.5l-8 -88l-49 -354l-39 -279l-26 -285q0 -44 9.5 -56.5t49.5 -16.5q56 -6 59 -58q3 -45 -51 -92t-128.5 -79.5t-145 -53.5t-105.5 -22q-29 -1 -49.5 5.5t-31.5 15t-19 30.5t-10.5 35.5t-7.5 46.5q-2 20 -11.5 36.5t-27.5 16.5
q-12 0 -46.5 -31t-75.5 -67.5t-110 -67.5t-141 -31t-123 25t-78.5 71t-40 100.5t-14.5 125.5q-1 90 20 191.5t66.5 202t108.5 182t153.5 133.5t192.5 55z" />
    <glyph glyph-name="e" unicode="e" horiz-adv-x="1157" 
d="M868 1059q86 0 150.5 -22.5t106.5 -79t42 -142.5q0 -90 -47 -173t-120.5 -140.5t-164 -92t-176.5 -34.5q-16 0 -25.5 -1t-24 -4.5t-22 -13t-7.5 -24.5q0 -41 40.5 -66.5t84.5 -25.5q63 0 130 29t118.5 58t76.5 29q32 0 57 -27.5t25 -58.5q0 -38 -21 -72.5t-60 -62.5
t-68 -44t-72 -36q-185 -82 -354 -82q-97 0 -179 22t-146.5 66.5t-100 120t-31.5 174.5q7 154 78.5 288.5t182.5 223.5t249 140t278 51zM717 856q-39 0 -73.5 -51t-51.5 -109.5t-17 -95.5q0 -57 37 -57q28 0 65.5 41.5t63.5 101.5t23 107q-2 25 -13.5 44t-33.5 19z" />
    <glyph glyph-name="f" unicode="f" horiz-adv-x="882" 
d="M879 788l-7 -92q-2 -47 -7 -55q-8 -12 -48 -12q-43 -1 -54.5 -15.5t-19.5 -62.5l-79 -631q0 -9 0.5 -33.5t0 -34.5t-2 -29.5t-5.5 -30.5t-11 -26t-18.5 -26.5t-27.5 -22.5q-48 -33 -146.5 -58.5t-162.5 -25.5q-32 0 -63 6.5t-60.5 19.5t-47.5 38.5t-18 58.5q0 44 37 76
q15 14 24 24.5t14.5 24t8 21.5t6.5 30.5t7 36.5q36 152 66 328.5t30 282.5q0 15 -5 25t-9.5 15.5t-17.5 8t-18.5 3t-23.5 0t-22 -0.5q-52 0 -67 6.5t-15 32.5q0 11 4 61l6 68q1 5 2.5 19.5t3 18.5t6 11t12.5 9t21 1q9 0 29 -1t29.5 -0.5t22 2.5t18 8t5.5 16q0 14 -14.5 34.5
t-31.5 42t-31.5 65.5t-14.5 99q0 82 39 149t102.5 108.5t139.5 64t153 22.5q69 0 131 -22t107 -73t45 -122q0 -74 -45.5 -126t-118.5 -52q-53 0 -90 19t-86 61q-3 2 -16 13.5t-20.5 17t-19.5 11t-22 5.5q-24 0 -38.5 -17t-14.5 -40q0 -36 27 -63.5t65 -37.5q45 -13 71 -21.5
t63 -26.5t61 -43.5t37 -59.5q3 -9 5 -14t5.5 -9.5t4.5 -6t7 -2.5t8 -1h12.5h16.5q53 0 61.5 -8t4.5 -62z" />
    <glyph glyph-name="g" unicode="g" horiz-adv-x="1245" 
d="M623 221l288 8q111 0 184.5 -57t73.5 -166q0 -82 -41 -148.5t-104 -107t-145 -68t-158.5 -38.5t-149.5 -11q-52 0 -106.5 4.5t-124 19.5t-122.5 39t-89.5 68t-36.5 101q0 33 14.5 56t29 36.5t14.5 24.5q0 8 -12 22.5t-26 30t-26 44.5t-12 64q0 65 42 113.5t107 75.5
q2 1 11.5 4.5t13 5.5t9.5 6t8.5 9.5t2.5 13.5q0 5 -1 9t-2 6.5t-4 6t-4.5 5t-6 5.5t-6.5 5q-58 49 -83.5 98.5t-25.5 122.5q0 85 36 156.5t95 120.5t135 83t154.5 50t155.5 16q34 0 104 -8q79 -9 105 -9q37 0 65.5 21t42 45.5t35 45.5t47.5 21q46 0 91.5 -49t45.5 -96
q0 -36 -21.5 -73t-21.5 -42q0 -4 10 -19t21 -33.5t19.5 -52.5t5.5 -71q-8 -95 -47 -170t-95.5 -121t-132 -76t-150.5 -41.5t-157 -11.5q-59 0 -119.5 9.5t-66.5 9.5q-20 0 -34 -13.5t-14 -33.5q0 -12 4.5 -22t13.5 -16.5t18 -11.5t24 -8t25.5 -5t27.5 -2.5t25 -0.5h23.5
h17.5zM666 494q18 0 34 7.5t27.5 22.5t21 31.5t17 41.5t12.5 44t9 47t6 44t4.5 42t3.5 33q5 36 -10.5 58t-53.5 22q-115 0 -136 -309q0 -2 -0.5 -3t-0.5 -3v-3q-6 -75 66 -75zM545 -219q24 0 54 3.5t67 11.5t61.5 26.5t24.5 44.5q0 19 -13 27.5t-32 5.5q-91 -10 -156.5 -5
t-131 14.5t-77.5 8.5q-16 -2 -16 -37q0 -31 24.5 -52.5t63 -31t70 -13t61.5 -3.5z" />
    <glyph glyph-name="h" unicode="h" horiz-adv-x="1347" 
d="M711 1098l-21 -127q-1 -3 -3 -14.5t-3.5 -18t-3 -17.5t-1 -17.5t1.5 -13t5 -10t10 -3.5q11 0 50.5 28.5t86.5 62.5t116.5 62.5t133.5 28.5q108 0 171 -54.5t63 -160.5q0 -83 -34.5 -262.5t-35.5 -231.5q-1 -29 10.5 -42.5t27.5 -15l32 -3t26.5 -14t8.5 -39.5
q-4 -51 -56 -100.5t-122.5 -82t-142.5 -51.5t-118 -16q-78 5 -113.5 41t-35.5 114q0 70 43 260t43 238q0 36 -14 61t-45 25q-145 0 -201 -475q-1 -12 -2 -17q0 -4 -2 -21.5t-3.5 -25t-4 -23.5t-5.5 -25.5t-7.5 -22t-10.5 -22t-14 -17.5q-36 -38 -116 -66t-138 -28
q-178 0 -178 122q0 31 17 118.5t19 99.5q7 45 40 220t57 333.5t24 244.5q0 36 -10.5 52.5t-44.5 17.5q-1 0 -16.5 0.5t-18 1t-14.5 2t-15 4t-11 7t-10 11t-4.5 16t-2.5 21.5q0 32 18 59t50.5 46t58 29.5t61.5 21.5q170 55 303 55q68 0 103 -19.5t35 -78.5q0 -31 -6.5 -79.5
t-17 -107.5t-13.5 -81z" />
    <glyph glyph-name="i" unicode="i" horiz-adv-x="757" 
d="M164 233l53 349q3 17 8 42t8 41.5t3 28.5q0 21 -10.5 31t-35.5 10q-18 0 -26.5 1t-23.5 7t-22 22t-7 42q0 31 14 56.5t43 45t48.5 29.5t55.5 25q79 34 181.5 60t175.5 26q92 0 92 -95q0 -30 -5 -79t-10.5 -87.5t-12.5 -79.5t-7 -44q-31 -179 -51 -338q-2 -18 6 -27
t18 -10.5t31 -1.5q24 0 36 -2t22 -14t10 -35q0 -55 -52 -104.5t-125 -80t-145 -48t-119 -17.5q-64 0 -114.5 36t-50.5 97q0 36 12 114zM387 1133q-182 10 -182 112q0 58 47.5 107.5t116 78.5t138 45.5t122.5 16.5q67 0 119 -28.5t51 -88.5q-1 -70 -79.5 -130t-172.5 -88.5
t-160 -24.5z" />
    <glyph glyph-name="j" unicode="j" horiz-adv-x="739" 
d="M715 840l-101 -740q-4 -25 -10 -73q-9 -62 -13.5 -92.5t-17 -80t-27.5 -74.5t-42 -58.5t-62.5 -50.5t-87 -31.5t-118.5 -20.5q-33 -2 -69 3t-68.5 27t-32.5 58q0 8 1 14t1.5 9.5t4 8.5t4.5 6.5t7 8t8 8.5q11 12 17.5 20.5t10 19.5t4.5 15.5t3.5 23t3.5 28.5l84 590
q2 13 10 63t13.5 92t5.5 60q0 32 -11.5 42.5t-42.5 8.5q-36 0 -52.5 11t-16.5 46q0 32 12.5 59t38 47.5t47.5 34t55 29.5q81 38 181 66.5t174 28.5q54 0 77 -20t23 -75q0 -26 -14 -112zM381 1122q-182 10 -182 113q0 58 47.5 107.5t116 78.5t138 45.5t122.5 16.5
q67 0 119 -28.5t51 -88.5q-1 -70 -79.5 -130t-173 -89t-159.5 -25z" />
    <glyph glyph-name="k" unicode="k" horiz-adv-x="1331" 
d="M711 1260l-37 -273q-14 -82 18 -82q15 0 64 35q84 60 151 90.5t150 30.5q124 0 192 -64.5t68 -189.5q0 -172 -205 -277q-2 -1 -16.5 -7t-24.5 -13t-10 -14q0 -8 20 -41l93 -148q15 -22 22 -28.5t29 -16.5q37 -16 45 -25q10 -14 10 -40q0 -45 -45.5 -87.5t-109 -69
t-126.5 -42.5t-104 -16q-27 0 -48.5 6t-38.5 19.5t-28.5 26t-23 36.5t-17.5 39t-16.5 45t-15.5 43q-1 2 -4.5 11.5t-6 16t-7 18.5t-8 20t-9 19t-10 18.5t-9.5 14t-10 10t-10 3.5q-22 0 -33.5 -27t-13.5 -55q-5 -51 -10 -81t-18 -61.5t-33 -48t-55.5 -32.5t-85.5 -24.5
t-122 -14.5q-143 -13 -143 106q0 51 8 92q8 46 36.5 200t45.5 253t33 234.5t16 228.5q0 55 -13 72.5t-63 13.5q-40 -3 -53 5t-14 46q-2 51 40 92.5t104 66t137 41.5t133 23t98 6q51 0 73.5 -17t22.5 -67q0 -15 -12 -120zM623 471q60 0 142.5 78t82.5 153q0 25 -12 41.5
t-35 16.5q-45 0 -91 -49.5t-73 -111.5t-27 -105q0 -23 13 -23z" />
    <glyph glyph-name="l" unicode="l" horiz-adv-x="770" 
d="M735 1366l-108 -991q0 -72 35 -72q10 0 30.5 3t30.5 3q45 0 45 -63q0 -48 -36 -92t-90.5 -73.5t-119 -51.5t-122 -32.5t-99.5 -10.5q-88 0 -131.5 46t-34.5 152q17 193 64.5 538t54.5 411q3 26 -5.5 37.5t-33.5 11.5q-8 0 -24.5 -2t-24.5 -2q-64 0 -64 59q0 36 14.5 63.5
t45 46.5t53.5 29t64 23q197 65 339 65q59 0 88 -21t29 -77z" />
    <glyph glyph-name="m" unicode="m" horiz-adv-x="2002" 
d="M1100 1049q75 0 134.5 -38t80.5 -108q1 -3 2.5 -11.5t3 -13.5t6 -9.5t10.5 -4.5q9 0 45.5 29t82 63.5t119.5 63.5t149 29q93 0 148.5 -56t55.5 -149q0 -62 -33.5 -259.5t-33.5 -240.5q0 -29 11 -42.5t27 -15l32 -3t27 -12t11 -35.5q0 -53 -49 -101.5t-118.5 -79
t-136.5 -49t-113 -20.5q-68 -3 -106 36.5t-46 108.5q0 91 34 263.5t34 252.5q0 66 -52 66q-32 0 -58 -15.5t-43 -45.5t-29 -60t-19 -74.5t-10.5 -72t-6.5 -69t-4 -50.5q-11 -101 -24 -163t-35 -87q-42 -48 -130.5 -69t-174.5 -21q-66 0 -94.5 25t-28.5 91q0 79 39 262
t39 273q0 39 -10 57.5t-45 18.5q-139 0 -168 -441q-11 -120 -19 -150q-19 -64 -82 -93q-70 -32 -248 -45q-135 -10 -135 110q0 26 41 253t41 325q0 34 -9.5 50.5t-39.5 16.5q-22 0 -35 1.5t-30 7t-25 19.5t-8 36q0 12 3 24t10.5 22.5t14.5 19t20 18.5t21 16t24 15t22.5 12
t23.5 11.5t20 10.5q92 45 167.5 71t150.5 26q101 0 111 -117q0 -68 30 -68q15 0 58 29t91.5 63.5t120.5 63.5t138 29z" />
    <glyph glyph-name="n" unicode="n" horiz-adv-x="1368" 
d="M844 467l24 182q0 29 -14.5 47.5t-42.5 18.5q-22 0 -41.5 -8t-35 -26t-28 -35.5t-23 -49t-18 -52t-14.5 -59t-10.5 -56.5t-8 -57.5t-5.5 -49t-4 -43.5q-6 -72 -17 -116t-31.5 -79.5t-57.5 -54t-89.5 -29t-134.5 -14.5q-65 -3 -107.5 20.5t-42.5 85.5q0 38 45.5 263
t42.5 325q0 65 -57 65h-20q-58 0 -58 66q0 65 105 123q67 40 184 76.5t188 36.5q42 0 64.5 -28.5t26 -62t13.5 -62t30 -28.5q16 0 59 28.5t91.5 63t117 63t129.5 28.5q95 0 164 -53.5t69 -145.5q0 -75 -35.5 -265.5t-35.5 -250.5q0 -27 15.5 -40.5t33.5 -16t33.5 -15
t15.5 -39.5q0 -53 -49.5 -100t-120 -75.5t-140 -45t-116.5 -16.5q-69 0 -108 34.5t-39 102.5q0 46 9 105.5t24 131.5t20 107z" />
    <glyph glyph-name="o" unicode="o" horiz-adv-x="1251" 
d="M555 -27q-131 0 -235 44.5t-168 138t-64 223.5q0 192 92.5 348.5t252 244t351.5 87.5q131 0 235 -44.5t168 -138t64 -223.5q0 -192 -92.5 -348.5t-252 -244t-351.5 -87.5zM717 842q-14 0 -26 -4t-22.5 -14t-18 -18t-15 -25t-11.5 -26t-9.5 -30t-7.5 -27.5t-6.5 -28
t-4.5 -22.5q-41 -198 -41 -362q0 -95 66 -95q14 0 26 4t21.5 13t17 17t14.5 24t11 24.5t8.5 28l6 26t5.5 26.5t4 22q49 255 49 366q0 101 -67 101z" />
    <glyph glyph-name="p" unicode="p" horiz-adv-x="1318" 
d="M801 739q-42 0 -76 -62t-52 -148.5t-27 -160t-9 -114.5q0 -32 9.5 -48t39.5 -16q42 0 78.5 56t57.5 133.5t32.5 147t11.5 108.5q0 104 -65 104zM190 -6l54 577q0 86 -15 119q-10 23 -59 27q-22 1 -34.5 3.5t-25.5 9.5t-18.5 22t-5.5 39q0 21 9.5 40t20.5 31.5t35.5 26.5
t36 20t41.5 18.5t35 14.5q6 3 49 22.5t67 29.5t62.5 25.5t67.5 22.5t49 7q45 0 65.5 -26t22.5 -62q0 -54 39 -54q15 0 48 22.5t69.5 49.5t101.5 49.5t137 22.5q73 0 129 -35.5t87 -94t46 -123.5t15 -134q0 -90 -22.5 -185t-68.5 -185.5t-108.5 -162t-150 -115t-185.5 -43.5
q-28 0 -71 15q-40 12 -54 12q-26 0 -32 -38t0 -76.5t14 -55.5q6 -15 24.5 -26.5t36.5 -18t32 -21.5t14 -36q0 -37 -23.5 -61.5t-62 -35t-71 -14.5t-67.5 -4q-43 0 -89.5 2.5t-113 13.5t-116.5 28.5t-86.5 51t-36.5 78.5q0 31 11.5 47.5t41.5 40.5q31 25 39.5 47t15.5 72z
" />
    <glyph glyph-name="q" unicode="q" horiz-adv-x="1290" 
d="M1276 981l-105 -1055q0 -47 10 -72t46 -47q3 -2 19.5 -10.5t22.5 -13t16.5 -13.5t15 -19.5t4.5 -22.5q0 -38 -31 -63.5t-82 -35.5t-87.5 -13t-76.5 -3q-461 0 -461 141q0 35 20.5 52t59.5 26q36 8 48.5 23.5t25.5 58.5q5 14 13.5 48t18 83.5t6 85t-23.5 35.5
q-13 0 -35.5 -20t-52.5 -48.5t-68.5 -57.5t-95.5 -49t-121 -20q-136 0 -209 92.5t-73 233.5q0 101 28 206.5t83.5 203t130 175t176 125.5t213.5 52q42 1 79.5 -10.5t59 -26t44.5 -27t38 -12.5q27 0 118.5 48t141.5 48t67 -22.5t17 -75.5zM600 276q51 7 111 98.5t98.5 205
t38.5 188.5q0 31 -14 52.5t-43 21.5q-54 0 -112.5 -87.5t-94.5 -200.5t-37 -194q0 -84 53 -84z" />
    <glyph glyph-name="r" unicode="r" horiz-adv-x="1083" 
d="M707 604l-31 -332q9 -151 -68 -215t-286 -73q-67 -4 -112.5 20.5t-45.5 87.5q0 56 42 262t44 308q2 43 -9 57t-51 14q-51 0 -73.5 18.5t-22.5 71.5q0 31 17 57t47.5 44.5t59 31.5t66 27.5t54.5 22.5q101 53 188 53q35 0 55.5 -20t28 -48.5t12 -57.5t13.5 -49t27 -20
q16 0 29.5 20.5t27.5 49t34.5 57.5t59.5 49.5t92 20.5q97 0 160 -72t63 -172q0 -103 -51 -174.5t-149 -71.5q-52 0 -80 20t-57 68q-25 50 -41 50q-31 0 -43 -105z" />
    <glyph glyph-name="s" unicode="s" horiz-adv-x="966" 
d="M977 887q0 -53 -29.5 -101.5t-79.5 -48.5q-27 0 -48.5 18.5t-32.5 41t-31.5 41t-46.5 18.5q-27 0 -45.5 -16.5t-18.5 -42.5q0 -36 30 -76t73.5 -80t86.5 -85t73 -107t30 -130q0 -90 -49 -160t-127.5 -109t-162.5 -58t-167 -19q-44 0 -89.5 5t-98 19.5t-92.5 36.5
t-66.5 60.5t-26.5 87.5q0 52 30 99t79 47q28 0 49 -21.5t32 -47.5t35 -47.5t58 -21.5t61 18t27 50q0 29 -26.5 65t-64 73.5t-75 80.5t-64 102t-26.5 123q0 71 31 131.5t81.5 101t115.5 69.5t132 42t132 13q45 0 94 -8t100.5 -26t84 -54t32.5 -84z" />
    <glyph glyph-name="t" unicode="t" horiz-adv-x="866" 
d="M655 657l-26 -202q-15 -66 1.5 -106t55.5 -40q27 0 65.5 19.5t51.5 19.5q55 0 55 -74q0 -56 -62.5 -112t-147.5 -93.5t-168 -61t-130 -23.5q-96 0 -150.5 47.5t-54.5 142.5q0 63 21 195l61 360q11 61 -0.5 75.5t-72.5 14.5q-39 0 -57.5 15.5t-18.5 54.5q0 133 129 145
q47 6 61.5 26t38.5 97q17 56 38 93t58 55q93 45 256 45q78 0 78 -76q-18 -185 -18 -191q0 -17 7 -27.5t22 -13.5t27.5 -3t36.5 1.5t36 1.5q51 0 51 -36q0 -20 -10 -88q0 -2 -1.5 -13t-2 -14l-2 -12t-3 -12t-4 -10t-5.5 -9.5t-7.5 -7.5t-9.5 -6.5t-12 -3t-15 -1.5h-13h-43
t-31.5 -3.5t-24.5 -5t-17 -13.5t-13.5 -19.5t-9.5 -31.5t-10 -42t-10 -57z" />
    <glyph glyph-name="u" unicode="u" horiz-adv-x="1394" 
d="M1346 858l-70 -395q-12 -62 -12 -94q0 -62 63 -62q25 -1 32.5 -2t20 -5.5t16 -16t3.5 -31.5q0 -56 -55 -108t-132 -85t-154 -53t-126 -20q-36 0 -57.5 18.5t-28.5 45.5t-11.5 54t-14 45.5t-29.5 18.5q-13 0 -57 -29.5t-96 -64.5t-129.5 -63t-150.5 -25q-86 3 -132.5 57
t-49.5 154q-2 66 26.5 223.5t33.5 200.5q1 5 2.5 19.5t2 19t1 16.5t-1.5 16.5t-5.5 12.5t-9.5 11.5t-15.5 7.5t-21.5 5q-26 3 -41.5 6.5t-30 18t-14.5 39.5q0 86 177 170q179 84 329 84q57 0 81 -29t24 -88q0 -36 -10 -101.5t-28 -161t-22 -118.5q0 -2 -4 -20.5t-6.5 -37
t-5.5 -44t-2 -47t5.5 -40.5t16 -30t29.5 -11q73 0 135 132q27 63 43.5 152t22 156t23 129.5t48.5 88.5q39 35 124 53.5t155 18.5q119 0 119 -88q0 -16 -4.5 -55.5t-5.5 -47.5z" />
    <glyph glyph-name="v" unicode="v" 
d="M694 928q0 -55 -9 -123t-24.5 -153.5t-21.5 -125.5q-1 -9 -5 -33t-6 -40t-4.5 -42t-2 -44.5t3 -41t10 -38t19 -29t29.5 -20.5t42 -7q61 0 111 40.5t78.5 101.5t43.5 125t15 120q0 46 -17.5 94.5t-38 81.5t-38 71t-17.5 65q0 62 54 89.5t124 27.5q179 0 179 -228
q0 -125 -25.5 -245t-79.5 -229t-132 -191.5t-190.5 -131.5t-246.5 -49q-72 0 -138.5 19t-122 55.5t-89 97t-33.5 136.5q0 77 30.5 244t30.5 188q0 28 -12.5 40.5t-40.5 14.5q-4 0 -14 1t-13.5 1.5t-11.5 1.5t-10.5 2.5t-8 4.5t-7.5 7t-4.5 9.5t-3.5 13t-1 16.5q0 46 36.5 85
t90.5 64t118.5 42.5t119 25t94.5 7.5q67 0 103 -27.5t36 -93.5z" />
    <glyph glyph-name="w" unicode="w" horiz-adv-x="1863" 
d="M1257 -27q-69 0 -128.5 18t-96.5 43.5t-64 51t-43 43.5t-22 18q-7 0 -32.5 -18t-64 -43.5t-86.5 -51t-115 -43.5t-136 -18q-138 0 -217.5 84t-79.5 222q0 73 29.5 235t29.5 188q0 36 -11.5 44.5t-49.5 11.5q-57 5 -57 76q0 29 10.5 51.5t33.5 38t42 24.5t51 21
q72 29 179.5 54.5t172.5 25.5q62 0 85.5 -35t23.5 -101q0 -73 -35 -245t-41 -224q-16 -182 57 -182q52 0 93.5 45t65 108.5t39.5 142.5t21.5 137t6.5 102q1 46 11.5 82t26.5 61.5t44 44t55 29t69.5 18t77.5 10.5t88 5q59 3 86 -19t27 -82q0 -95 -45 -282t-47 -254
q-2 -87 18.5 -133t75.5 -46q60 0 109.5 38.5t78.5 96.5t44.5 120.5t15.5 117.5q0 58 -15.5 111.5t-34 86t-34 71t-15.5 69.5q0 54 46 80.5t104 26.5q56 0 95 -19t59.5 -55.5t29 -78t10.5 -97.5q5 -160 -35 -307.5t-118.5 -263.5t-205 -185.5t-282.5 -69.5z" />
    <glyph glyph-name="x" unicode="x" horiz-adv-x="1155" 
d="M1157 805q0 -40 -27.5 -77.5t-66.5 -37.5q-24 0 -54 24.5t-46 24.5q-23 0 -74 -53t-51 -76q0 -25 51.5 -118t75.5 -93q8 0 38 16.5t52 16.5q33 0 58.5 -27t25.5 -61q0 -65 -72.5 -151.5t-168.5 -146.5t-161 -60q-34 0 -64.5 26t-52 64.5t-39 77.5t-33.5 69t-28 35
q-7 2 -43.5 -39.5t-79.5 -93.5t-96.5 -95.5t-89.5 -43.5q-34 0 -60 26.5t-38.5 67.5t-18.5 77.5t-6 67.5q0 50 22.5 98t67.5 48q28 0 55 -27t39 -27q19 0 79.5 61t60.5 81q0 27 -48.5 112.5t-74.5 85.5q-11 0 -39 -20.5t-51 -20.5q-37 0 -59.5 31t-22.5 70q0 75 80.5 155
t180.5 128.5t165 48.5q39 0 67 -26t54 -89q11 -25 38 -71t31 -46q8 0 39.5 36t66.5 79t79 79t75 36q68 0 116 -84t48 -158z" />
    <glyph glyph-name="y" unicode="y" horiz-adv-x="1275" 
d="M1290 764q2 -111 -25 -239.5t-78 -258t-129.5 -249t-172 -211.5t-214 -147.5t-247.5 -55.5q-70 0 -134.5 19t-117 55.5t-84 95t-31.5 131.5q0 93 58.5 149t150.5 56q76 0 125 -42t49 -116q0 -17 -4 -52t-4 -53q0 -41 33 -41q45 0 71.5 51.5t24.5 98.5q-2 75 -53.5 241
t-117.5 305.5t-103 139.5q-14 0 -54.5 -35t-64.5 -35q-38 0 -67.5 39t-26.5 78q6 62 99.5 149.5t205 149.5t170.5 62q39 0 69 -13.5t53.5 -45.5t34 -52.5t30.5 -66.5q3 -7 5 -11q18 -43 62 -177.5t81 -228t60 -98.5q19 -4 35.5 26t25.5 74.5t14 82.5t5 57q0 48 -14.5 90
t-32.5 67t-32.5 59.5t-14.5 68.5q0 69 52.5 112t123.5 43q47 0 81.5 -16.5t53.5 -41.5t30.5 -63t15 -72.5t3.5 -78.5z" />
    <glyph glyph-name="z" unicode="z" horiz-adv-x="1036" 
d="M492 1036h426q19 2 42.5 0t44 -6.5t34.5 -20t14 -40.5q0 -21 -5.5 -40.5t-18.5 -41.5t-21 -33.5t-28 -37t-24 -30.5q-3 -4 -59.5 -64.5t-115.5 -126.5t-109.5 -132t-50.5 -88q0 -35 45 -35q25 0 67 6q58 7 75 16.5t32 36.5q12 22 17 29.5t16 20t24 16.5t31 4
q53 0 73.5 -32.5t20.5 -90.5q0 -56 -26 -138.5t-75 -151t-100 -68.5q-15 0 -57 5t-78 3h-475q-48 0 -82.5 18.5t-34.5 61.5q0 19 6.5 35t13.5 24.5t20 21.5t18 19q12 14 129.5 146t185 215t82.5 120q7 16 -18.5 25.5t-47.5 9.5q-95 0 -128 -13.5t-66 -62.5q-23 -38 -64 -38
q-36 0 -59 24.5t-30 54.5t-7 66q0 44 21 121t63 146t88 69q17 0 41 -8q46 -15 150 -15z" />
    <glyph glyph-name="braceleft" unicode="{" horiz-adv-x="1159" 
d="M967 1397l-66 -412q-19 -126 -69 -191t-168 -79v-6q88 -12 124.5 -54t36.5 -118q0 -37 -10 -99l-61 -391q-4 -28 -4 -41q0 -57 77 -57q72 0 72 -76q0 -24 -24 -50t-72 -26h-191q-125 0 -188.5 53t-63.5 177l78 505q2 14 2 43q0 58 -75 58q-25 0 -41 8t-22 22.5t-7.5 24
t-1.5 23.5q0 26 24 53t72 27q51 0 74 23.5t31 74.5l73 469q43 289 336 289h191q25 0 41 -8t21.5 -22.5t7 -23t1.5 -22.5q0 -22 -24.5 -49t-71.5 -27q-51 0 -72.5 -23.5t-29.5 -74.5z" />
    <glyph glyph-name="bar" unicode="|" horiz-adv-x="856" 
d="M389 -512v2048h238v-2048h-238z" />
    <glyph glyph-name="braceright" unicode="}" horiz-adv-x="1159" 
d="M332 43l65 412q19 126 69.5 191t168.5 79v6q-89 12 -125.5 54t-36.5 118q0 36 10 98l62 392q4 28 4 41q0 57 -78 57q-72 0 -72 76q0 24 24.5 49.5t72.5 25.5h190q125 0 188.5 -52.5t63.5 -176.5l-78 -506q-2 -14 -2 -43q0 -57 76 -57q25 0 41 -8t22 -22.5t7.5 -24
t1.5 -23.5q0 -26 -24.5 -53t-72.5 -27q-51 0 -73.5 -23.5t-30.5 -74.5l-74 -469q-43 -289 -336 -289h-190q-72 0 -72 76q0 22 24.5 49t71.5 27q51 0 73 23.5t30 74.5z" />
    <glyph glyph-name="asciitilde" unicode="~" 
d="M961 713q33 0 56 -2.5t48 -10.5t40.5 -22t25.5 -38.5t10 -59.5q0 -98 -69 -171t-163 -73q-55 0 -127.5 21.5t-129.5 47t-113 47t-82 21.5q-17 0 -21 -7.5t-4 -27.5q0 -53 -29.5 -77.5t-72.5 -24.5q-33 0 -56 2.5t-48 10.5t-40.5 22t-25.5 38.5t-10 59.5q0 98 68.5 171
t162.5 73q70 0 166 -34.5t176 -69t111 -34.5q7 0 12 2t7.5 3.5t3.5 7.5t1 9v13q0 53 30 78t73 25z" />
    <glyph glyph-name="uni00A0" unicode="&#xa0;" horiz-adv-x="604" 
 />
    <glyph glyph-name="exclamdown" unicode="&#xa1;" horiz-adv-x="686" 
d="M471 1059q96 0 161.5 -64t61.5 -164q-4 -105 -75.5 -172t-167.5 -67t-162 67t-62 172q4 100 75.5 164t168.5 64zM322 -434q-109 0 -170 57t-60 164q2 98 38 215.5t73.5 195.5t99.5 193q18 36 47 63t64 27q37 0 57.5 -26t36.5 -70q46 -121 72 -269.5t26 -283.5
q0 -133 -74 -199.5t-210 -66.5z" />
    <glyph glyph-name="cent" unicode="&#xa2;" 
d="M745 61q-1 -4 -2 -10q-12 -62 -22 -74q-12 -12 -63 -12h-16h-28q-78 0 -96 7q-22 9 -22 34q0 8 6 38.5t6 39.5q0 10 -5.5 16.5t-17.5 8t-16.5 2t-17.5 0.5q-138 15 -219.5 119.5t-81.5 246.5q0 212 140 396t365 257q12 4 17.5 7t10.5 6t7 12t3 15.5t3.5 27t5.5 37.5
q5 26 8.5 38t14.5 21.5t31 10.5q6 1 38 0.5t33 -0.5q9 0 24.5 0.5t24.5 0.5t21.5 -0.5t20 -3t14.5 -7t10.5 -12.5t3.5 -19q0 -16 -7 -49.5t-7 -51.5q0 -15 31 -20q102 -23 161.5 -86.5t59.5 -163.5t-67 -173t-165 -73q-59 0 -105 34t-46 91q0 28 17.5 72t17.5 57
q0 15 -10 26t-25 11q-34 0 -61.5 -32.5t-43.5 -71.5q-17 -39 -33 -113t-23 -158t20 -145.5t90 -61.5q41 0 86.5 17.5t78.5 39t68.5 39t58.5 17.5q38 0 59 -35t21 -74q0 -40 -39.5 -81.5t-96 -72.5t-108.5 -52t-87 -29q-11 -3 -16 -4t-11 -4.5t-7.5 -4.5t-4 -7.5t-2.5 -9.5
t-2 -15t-3 -19z" />
    <glyph glyph-name="sterling" unicode="&#xa3;" 
d="M819 590h-47q-57 0 -67 -10q-2 -2 -4 -4.5t-3.5 -5t-3 -7t-3 -8.5t-3 -11t-3 -12t-3.5 -15t-4 -17q-10 -45 -47 -109q-10 -15 -10 -26q0 -29 99.5 -51.5t143.5 -22.5q51 0 80.5 24t40.5 57.5t21.5 67.5t35.5 58t70 24q94 0 88 -104q-5 -74 -31.5 -147t-70 -134t-109 -99
t-139.5 -38q-59 0 -129.5 17t-121.5 37.5t-96 37.5t-59 17q-11 0 -32.5 -16t-44.5 -34.5t-63 -34.5t-85 -16q-79 0 -139.5 50.5t-63.5 142.5q-1 84 58 144t139 58q18 0 52 -6t50 -6q13 0 21 12t9.5 33.5t1 41t-4 45t-5 33l-3.5 17.5q-2 9 -13.5 14t-29 6t-33 1t-31.5 -1
t-18 -1q-48 0 -67 17.5t-19 72.5q0 34 6 53.5t21.5 28t30 10.5t44.5 2q5 0 20.5 -1t22.5 -0.5t17 4t14 13t4 25.5q0 19 -5 57t-5 58q0 88 28.5 161.5t75.5 123t109.5 84t129.5 50t136 15.5q51 0 104 -10t108 -33.5t97.5 -58t69.5 -89t27 -120.5q0 -73 -45.5 -120.5
t-108.5 -47.5q-49 0 -96.5 34t-36.5 85q5 23 7 35t5 36t-1 38t-12 30t-26 23.5t-45 7.5q-62 0 -96.5 -49t-36.5 -123q0 -111 23 -193q2 -11 6 -18.5t7 -11.5t11 -5.5t11.5 -2t15.5 0t16 0.5q66 5 90.5 -10.5t24.5 -77.5q0 -53 -14 -74t-58 -22z" />
    <glyph glyph-name="currency" unicode="&#xa4;" 
d="M358 1057q122 73 258 73q153 0 265 -73l14.5 14.5l14.5 14.5t12 11.5t12.5 10.5l10.5 7t11.5 5.5t10.5 1.5q40 0 93.5 -55.5t53.5 -91.5q0 -6 -2 -11t-6 -11.5t-6.5 -11t-10 -12l-11.5 -11.5l-14 -14l-15 -15q77 -121 77 -264q0 -155 -77 -263l15 -15l14 -14l11.5 -11.5
t10 -12t6.5 -11t6 -11.5t2 -11q0 -38 -54.5 -92.5t-92.5 -54.5q-13 1 -28.5 11.5t-24.5 19.5t-33 35q-122 -76 -254 -76q-151 0 -269 76q-6 -6 -15 -15.5t-14 -14t-12.5 -11.5t-12 -10.5t-10.5 -7.5t-11.5 -5.5t-10.5 -1.5q-40 0 -93.5 55.5t-53.5 91.5q0 6 2 11t6 11.5
t6.5 11t10 12l11.5 11.5l14 14l15 15q-39 69 -57 128t-18 133q0 145 75 266l-15 15l-14 14l-11.5 11.5t-10 12t-6.5 11t-6 11.5t-2 11q0 38 54.5 92.5t92.5 54.5q18 -1 35.5 -15.5t50.5 -49.5zM621 373q105 0 178 75t73 177t-73 177t-178 75q-106 0 -179 -75.5t-73 -176.5
t73 -176.5t179 -75.5z" />
    <glyph glyph-name="yen" unicode="&#xa5;" 
d="M965 705h180q44 0 58 -17t14 -67q0 -26 -1 -42t-6.5 -28.5t-11 -18t-20.5 -8.5t-27.5 -3.5t-40.5 -0.5h-141q-110 0 -129 -24t-19 -148q0 -20 -1.5 -47.5t-1.5 -38.5t4 -25t15 -21.5t31 -14.5q36 -11 55 -27.5t19 -52.5q0 -22 -10.5 -40.5t-28.5 -30.5t-41.5 -21.5
t-50.5 -14.5t-55 -8.5t-54.5 -4t-50 -1.5t-40.5 0h-8.5h-6.5q-132 0 -185 9q-141 22 -137 102q0 41 24 60t67 28q34 7 45 30q10 20 25.5 100t15.5 109q0 50 -26.5 66t-76.5 16h-72q-91 0 -120 4q-13 1 -22 6t-13.5 11t-6.5 18.5t-2.5 20.5t-0.5 26q0 25 1 38t6 29.5t17.5 24
t32.5 7.5h188q2 0 17.5 2t23 4.5t15.5 10t8 19.5q0 9 -6.5 26t-18.5 39t-21.5 39t-22.5 39t-15 25l-82 138q-23 36 -33 43q-7 5 -28 14q-51 21 -65 37q-17 20 -17 53q0 31 24 54t61 35.5t82.5 21t88.5 10t78.5 3t52.5 -0.5h10h8q236 3 236 -109q0 -26 -12 -44t-26 -26.5
t-26 -20.5t-12 -27q0 -29 34 -104t58 -75q17 0 72 86t55 105q0 17 -27.5 48t-27.5 64q0 109 262 109h10q26 0 43 -0.5t49.5 -5.5t52.5 -14.5t36 -30t16 -49.5q0 -41 -22 -59t-64 -29q-24 -5 -37 -11t-29 -22q-15 -16 -31.5 -36.5t-39 -51.5t-29.5 -41q-3 -3 -24 -30t-41 -54
t-42.5 -59t-36.5 -57t-14 -36q0 -8 2 -13.5t7.5 -9t9 -5.5t12 -3t12 -1h13h10.5z" />
    <glyph glyph-name="brokenbar" unicode="&#xa6;" horiz-adv-x="856" 
d="M389 774v488q0 26 0.5 37.5t3.5 28.5t10.5 24.5t20 15.5t33 11t49.5 3q30 0 51 -3t34 -11t20.5 -15t11 -24t4 -28.5t0.5 -36.5v-496q0 -29 -2 -42.5t-12.5 -30t-36.5 -23t-70 -6.5q-34 0 -57 5.5t-35 12.5t-17.5 23.5t-6.5 28.5t-1 38zM389 -250v488q0 26 0.5 37.5
t3.5 28.5t10.5 24.5t20 15.5t33 11t49.5 3q30 0 51 -3t34 -11t20.5 -15t11 -24t4 -28.5t0.5 -36.5v-496q0 -29 -2 -42.5t-12.5 -30t-36.5 -23t-70 -6.5q-34 0 -57 5.5t-35 12.5t-17.5 23.5t-6.5 28.5t-1 38z" />
    <glyph glyph-name="section" unicode="&#xa7;" horiz-adv-x="1484" 
d="M1341 229q0 -206 -208 -331q-153 -89 -396 -93q-99 -2 -201 10.5t-200.5 41t-165 84.5t-76.5 131q-3 27 23 48t66 31.5t75.5 15.5t60.5 5q61 0 93 -37q57 -76 117.5 -110.5t150.5 -34.5q29 0 57.5 5t57.5 16t47 33.5t18 53.5q0 18 -6 33.5t-20.5 27.5t-24.5 19.5t-34 17
t-30.5 11.5t-31.5 10q-31 10 -83 24t-90.5 24.5t-89.5 28t-87.5 35t-75 45.5t-62.5 59.5t-39.5 76t-15.5 96.5q0 69 24.5 128t59.5 95.5t70 63t59.5 43t24.5 22.5q0 9 -24 28.5t-52 44t-52 78t-24 122.5q0 93 44 165.5t111 116t156.5 71.5t171.5 38t164 10q41 0 100 -5
t139.5 -19.5t146.5 -36.5t112.5 -61.5t46.5 -88.5q0 -35 -41 -65.5t-88 -45t-80 -14.5q-52 0 -76 27q-61 66 -115 95.5t-135 29.5q-34 0 -68 -9t-62.5 -33t-28.5 -58q0 -21 8 -38.5t27 -31t32.5 -22t42.5 -17t39 -11t39 -9.5q15 -4 59 -15t65.5 -16.5t64 -18.5t65.5 -23
t59 -27.5t56 -34.5t44 -42t36 -52t19 -62t5 -74q-4 -73 -30 -132.5t-59.5 -93.5t-67 -58.5t-57.5 -40t-25 -25.5q-2 -9 14.5 -22t41 -31.5t49.5 -44.5t42.5 -72.5t17.5 -104.5zM690 639l154 -47q34 -13 58.5 -1.5t39.5 39.5t22 51t7 34q0 26 -9.5 44.5t-28 30.5t-34.5 18
t-41 13q-23 6 -71.5 21.5t-81 25t-39.5 9.5q-33 0 -63 -48.5t-30 -83.5q0 -21 8 -37.5t16 -25.5t28.5 -19t29.5 -13t35 -11z" />
    <glyph glyph-name="dieresis" unicode="&#xa8;" horiz-adv-x="1413" 
d="M1102 1192q-36 0 -69 7t-61 30t-28 59q0 51 42 94t103 67.5t122 38t108 13.5q51 0 94 -26t43 -74q0 -68 -100 -135q-54 -34 -122.5 -54t-131.5 -20zM485 1192q-25 0 -49.5 4.5t-49.5 14t-40.5 29.5t-15.5 48q0 51 41.5 94t102.5 67.5t121.5 38t106.5 13.5q53 0 96.5 -26
t43.5 -74q0 -67 -101 -135q-54 -34 -123 -54t-133 -20z" />
    <glyph glyph-name="copyright" unicode="&#xa9;" horiz-adv-x="1638" 
d="M889 -29q-203 0 -375 100t-272.5 272.5t-100.5 375.5q0 152 59.5 290t159.5 237.5t238.5 158.5t290.5 59t290 -59t238.5 -158.5t159.5 -237.5t59 -290t-59 -291t-159.5 -239t-238.5 -159t-290 -59zM889 113q165 0 304.5 81t220.5 220.5t81 304.5q0 164 -81 303
t-220.5 220t-304.5 81t-304.5 -81t-220.5 -220t-81 -303q0 -165 81 -304.5t220.5 -220.5t304.5 -81zM1114 1065q9 0 26 4t25 4q40 0 74.5 -54t34.5 -142q0 -49 -28.5 -83t-76.5 -34q-32 0 -55 20.5t-39.5 49.5t-37 58t-59 49.5t-93.5 20.5q-63 0 -94 -46.5t-31 -112.5
q0 -75 27.5 -140.5t85 -109t133.5 -43.5q45 0 82 12t55.5 27t35 27t25.5 12q23 0 36 -20.5t13 -45.5q0 -47 -29 -95t-79 -58q-19 -3 -95 -34.5t-155 -31.5q-177 0 -303.5 122t-126.5 292q0 112 63.5 207t164.5 147.5t212 52.5q49 0 95 -14t75.5 -27.5t38.5 -13.5z" />
    <glyph glyph-name="ordfeminine" unicode="&#xaa;" horiz-adv-x="839" 
d="M813 1415q0 -37 -18.5 -154.5t-18.5 -177.5v-5q0 -15 1 -21.5t6.5 -12t17.5 -6.5q15 0 25 -8.5t10 -23.5q0 -37 -47.5 -72.5t-103 -54.5t-89.5 -19q-36 0 -55 15t-21 33t-5 33t-11 15q-7 0 -26 -16t-41.5 -35t-61.5 -35t-80 -16q-77 0 -116.5 55t-39.5 135
q0 70 31.5 153.5t77.5 137.5q45 53 107 91t122 38q44 0 86.5 -23.5t52.5 -23.5q9 0 59.5 23.5t86.5 23.5q27 0 39 -11t12 -38zM436 1044q39 7 85 100t44 150q0 13 -4.5 25t-15.5 8q-30 -10 -60.5 -53.5t-49.5 -98t-19 -96.5q0 -14 4.5 -26t15.5 -9z" />
    <glyph glyph-name="guillemotleft" unicode="&#xab;" horiz-adv-x="1159" 
d="M1106 1014q31 0 56.5 -25.5t25.5 -54.5q0 -35 -38.5 -87.5t-84.5 -99t-84.5 -100.5t-38.5 -90q0 -47 68.5 -184.5t68.5 -184.5q0 -35 -28.5 -58.5t-65.5 -23.5q-53 0 -147.5 98t-167 215t-72.5 169q0 66 100 170t222 180t186 76zM590 1014q31 0 56.5 -25.5t25.5 -54.5
q0 -35 -38.5 -87.5t-84.5 -99t-84.5 -100.5t-38.5 -90q0 -47 68.5 -184.5t68.5 -184.5q0 -35 -28.5 -58.5t-65.5 -23.5q-53 0 -147.5 98t-167 215t-72.5 169q0 66 100 170t222 180t186 76z" />
    <glyph glyph-name="logicalnot" unicode="&#xac;" 
d="M903 338v164v24q0 37 -1 52t-7 20q-3 2 -6 3.5t-8.5 2.5t-10 1.5t-14 0.5h-15.5h-19.5h-22.5h-516q-72 0 -89 5q-36 13 -42 74q-2 17 -2 40q0 44 5.5 69t23.5 36t33 12.5t52 1.5h19h725q69 0 101 -32t32 -101v-373q0 -72 -5 -89q-13 -36 -74 -42q-17 -2 -40 -2
q-44 0 -69 5.5t-36 23.5t-12.5 33t-1.5 52v19z" />
    <glyph glyph-name="uni00AD" unicode="&#xad;" horiz-adv-x="604" 
d="M281 752l200 -15q37 0 85.5 6.5t51.5 6.5q35 0 35 -50q0 -29 -13 -84t-33.5 -112.5t-51 -99t-59.5 -39.5q-3 0 -22.5 2t-27.5 4q-161 11 -177 11.5t-183 -3.5q-22 0 -33.5 12.5t-9.5 34.5q2 36 16 91t36.5 111t57 94t70.5 34q9 -1 29 -2t29 -2z" />
    <glyph glyph-name="registered" unicode="&#xae;" horiz-adv-x="1638" 
d="M889 -29q-203 0 -375 100t-272.5 272.5t-100.5 375.5q0 152 59.5 290t159.5 237.5t238.5 158.5t290.5 59t290 -59t238.5 -158.5t159.5 -237.5t59 -290t-59 -291t-159.5 -239t-238.5 -159t-290 -59zM889 113q165 0 304.5 81t220.5 220.5t81 304.5q0 164 -81 303
t-220.5 220t-304.5 81t-304.5 -81t-220.5 -220t-81 -303q0 -165 81 -304.5t220.5 -220.5t304.5 -81zM543 621v253q0 55 -8.5 87t-21 40.5t-25 12t-21 12t-8.5 29.5q0 69 131 69q22 0 68 -4t69 -4q36 0 108.5 4t108.5 4q68 0 127 -18.5t102.5 -66.5t43.5 -119
q0 -43 -11.5 -74.5t-28.5 -47.5t-33.5 -26.5t-28 -19t-11.5 -17.5t16 -17.5t38.5 -21.5t45.5 -32.5t39 -60t17 -95.5q2 -33 16 -49t29.5 -17.5t28 -11t12.5 -31.5q0 -41 -55 -64.5t-124 -23.5q-62 0 -105.5 19.5t-65 50.5t-34.5 68.5t-20.5 75.5t-17.5 69t-30.5 50.5
t-53.5 19.5q-20 0 -26.5 -12.5t-6.5 -61.5q0 -68 8 -109q3 -16 14 -27t22.5 -16t20.5 -16.5t9 -28.5q0 -42 -54.5 -56.5t-154.5 -14.5q-213 0 -213 81q0 18 8.5 26.5t21 14.5t25 19.5t21 53.5t8.5 104zM805 942v-106q0 -6 -1 -16.5t-0.5 -15.5t2.5 -11t8 -8.5t17 -2.5
q97 0 97 109q0 110 -78 110q-28 0 -36.5 -14t-8.5 -45z" />
    <glyph glyph-name="macron" unicode="&#xaf;" horiz-adv-x="1257" 
d="M297 1204h-29q-22 0 -39.5 11t-17.5 32t28.5 89t43.5 94q18 29 36 41t48 12l36 -2l230 -11l469 3l33 4q18 0 32.5 -12.5t14.5 -30.5q0 -27 -20 -83.5t-38 -93.5q-11 -20 -19 -31t-23.5 -20.5t-34.5 -9.5q-18 0 -50 4l-174 10z" />
    <glyph glyph-name="degree" unicode="&#xb0;" horiz-adv-x="724" 
d="M694 1024q0 -127 -90.5 -217t-216.5 -90q-127 0 -217 89.5t-90 217.5q-2 126 89 216.5t218 90.5q126 0 216.5 -90.5t90.5 -216.5zM387 1188q-69 0 -117 -47.5t-47 -116.5q0 -69 48 -116.5t116 -47.5q70 0 117 47.5t47 116.5q0 70 -46.5 117t-117.5 47z" />
    <glyph glyph-name="plusminus" unicode="&#xb1;" 
d="M1008 545h-140h-18h-16h-13.5h-12t-10 -0.5t-8.5 -1t-6.5 -1.5t-5.5 -2t-4 -3t-3.5 -4.5t-2.5 -6l-2 -7t-1.5 -9.5t-0.5 -10v-12v-14v-16.5v-17.5q0 -72 -5 -89q-13 -36 -74 -42q-17 -2 -40 -2q-44 0 -69 5.5t-36 23.5t-12.5 33t-1.5 52v19q0 12 0.5 30t0.5 26.5t-1 18
t-2.5 14.5t-5.5 8q-3 2 -6 3.5t-8.5 2.5t-10 1.5t-14 0.5h-15.5h-19.5h-22.5h-139q-72 0 -89 5q-36 13 -42 74q-2 17 -2 40q0 44 5.5 68.5t23 35.5t32.5 12.5t52 1.5h20h139h12q43 0 59.5 1.5t24.5 9.5q2 2 3 4t2 5.5t1.5 6.5t1 8.5t0.5 10v12v13.5v16v18v19q-1 64 12 83
q20 31 107 31q44 0 69 -5.5t36 -23.5t12.5 -33t1.5 -52v-6.5v-6v-6.5v-17.5v-16v-13.5v-12.5t0.5 -10t1.5 -8.5t2 -6.5t2.5 -5.5t3.5 -4q13 -11 94 -11h140h20q36 0 51.5 -1.5t33 -12.5t23 -35.5t5.5 -68.5t-5.5 -69t-23.5 -36t-33 -12.5t-52 -1.5h-19zM1008 0h-725
q-72 0 -89 5q-36 13 -42 74q-2 17 -2 40q0 44 5.5 69t23.5 36t33 12.5t52 1.5h19h725q72 0 89 -5q36 -13 42 -74q2 -17 2 -40q0 -44 -5.5 -69t-23.5 -36t-33 -12.5t-52 -1.5h-19z" />
    <glyph glyph-name="twosuperior" unicode="&#xb2;" horiz-adv-x="724" 
d="M629 731q1 1 10 14.5t12 16.5t11.5 11t17.5 10.5t20 2.5q56 0 56 -75q0 -92 -41 -176q-44 -95 -103 -95q-29 0 -45 29q-13 19 -14 20q-10 5 -66 5h-288q-4 0 -23 -0.5t-29 0t-28.5 1.5t-29.5 5t-23 10t-17.5 16.5t-5.5 24.5t8 29t14 21.5t21 21.5l90 75q43 34 95 82.5
t101.5 113t49.5 101.5q0 24 -16.5 39t-43.5 15q-28 0 -59.5 -15t-54 -32.5t-48 -32.5t-44.5 -15q-27 0 -47.5 25t-20.5 51q0 61 156 141q142 64 264 64q58 0 108.5 -13.5t89.5 -50.5t39 -92q0 -69 -57 -135l-119 -121l-41 -37q-2 -2 -12.5 -12t-16 -15.5t-11 -14.5t-5.5 -15
t2 -10.5t7 -7t9 -4t11.5 -2t11.5 -0.5h11.5h9.5h15.5h14t11 0.5t11.5 2t10 4.5t11 7.5t11 11.5z" />
    <glyph glyph-name="threesuperior" unicode="&#xb3;" horiz-adv-x="724" 
d="M330 745q-53 -3 -70.5 9t-17.5 61q0 20 1 27.5t8.5 15.5t24.5 12q51 14 90.5 46t39.5 75q0 27 -17 42.5t-47 15.5q-55 0 -129 -58q-3 -2 -10 -8t-10.5 -8t-9.5 -5.5t-12 -5t-13 -1.5q-26 0 -45 23t-19 48q0 69 144 137q131 64 249 64q92 0 160 -40t68 -120q0 -32 -13 -62
t-28 -47t-28 -32.5t-13 -22.5q0 -11 17 -25t37 -28t37 -45.5t17 -73.5q0 -72 -34 -144.5t-93 -117.5q-122 -96 -311 -96q-37 0 -77.5 5.5t-85 18.5t-73 39.5t-28.5 63.5q0 19 14 37t33 18q12 0 64.5 -19.5t99.5 -19.5q75 0 117 29q57 42 57 113q0 46 -23 67q-7 6 -16.5 9
t-15.5 3.5t-20 0t-19 -0.5z" />
    <glyph glyph-name="acute" unicode="&#xb4;" horiz-adv-x="813" 
d="M406 1317q61 54 61 82q0 10 -6 22q-12 24 -12 33q0 24 29.5 42.5t71.5 28t78 14.5t58 5q26 0 54.5 -3.5t61.5 -12.5t54 -29t21 -47q0 -73 -84.5 -144.5t-187.5 -112t-173 -40.5q-34 0 -58 19t-24 53q0 11 3 21t10 20.5t12 16t16 17t15 15.5z" />
    <glyph glyph-name="mu" unicode="&#xb5;" horiz-adv-x="1394" 
d="M1321 858l-70 -395q-12 -62 -12 -94q0 -62 64 -62q25 -1 32 -2t19.5 -5.5t16 -16t3.5 -31.5q0 -56 -55 -108t-132 -85t-154 -53t-126 -20q-36 0 -57.5 18.5t-28.5 45.5t-11.5 54t-14 45.5t-29.5 18.5q-24 0 -78.5 -43t-81.5 -51q-6 -39 -11.5 -72.5t-7.5 -47.5t-5 -28
q-23 -128 -101.5 -216.5t-206.5 -88.5q-63 0 -107 28.5t-63 74t-23.5 102.5t11.5 115q7 40 24 120t23 125q3 20 33 186.5t39 248.5q1 5 3 22t2 22v18t-3 17.5t-8.5 12t-16 11t-24.5 5.5q-26 3 -41.5 6.5t-30 18t-14.5 39.5q0 86 176 170q179 84 330 84q57 0 80.5 -29
t23.5 -88q0 -36 -9.5 -100t-28 -163.5t-21.5 -117.5q0 -2 -4 -20.5t-6.5 -37t-5.5 -44t-2 -47t5.5 -40.5t16 -30t29.5 -11q73 0 135 132q27 63 43.5 152t22 156t23 129.5t48.5 88.5q39 35 124 53.5t154 18.5q119 0 119 -88q0 -16 -4.5 -55.5t-5.5 -47.5z" />
    <glyph glyph-name="paragraph" unicode="&#xb6;" horiz-adv-x="1290" 
d="M950 1182l-207 -1461q-1 -5 -2 -14q-6 -57 -18 -69q-15 -17 -78 -17h-8.5h-9.5t-9.5 0.5t-9.5 1t-8 2t-7.5 4l-5.5 5.5t-4 7.5t-1 10.5q0 11 6 59l108 781q0 3 6.5 38t6.5 52q0 15 -8.5 23.5t-27.5 10.5t-36.5 2t-48.5 -2t-51 -2q-84 0 -154.5 20t-125.5 59.5
t-86.5 106.5t-31.5 154q0 134 71.5 246.5t188.5 175t250 62.5q69 0 216.5 -16.5t224.5 -14.5q239 6 303 14q38 5 62 -11.5t24 -55.5q0 -21 -7.5 -37.5t-16 -26.5t-28.5 -20.5t-30 -14t-35 -12.5q-80 -28 -98 -50t-30 -100q-1 -3 -1.5 -5t-1 -5t-0.5 -6l-4 -47l-185 -1302
q-1 -9 -3 -26t-3 -23t-3.5 -18t-6 -15.5t-9.5 -10t-14.5 -8.5t-20.5 -4t-28 -2q-48 0 -58 6q-20 10 -15 47l196 1399q2 13 7.5 40.5t8.5 50.5t3 42q0 8 -3 14t-9 9.5t-11.5 6t-15.5 3t-15 0.5h-15.5h-12.5q-36 0 -48 -10.5t-16 -46.5zM754 893l37 258q1 11 3.5 26.5t4 24.5
t1.5 19t-3.5 15.5t-11 9t-19.5 3.5q-82 0 -152.5 -77t-70.5 -160q0 -63 17 -110.5t43 -71t49.5 -34t43.5 -10.5q16 0 27 6t16.5 20t7.5 23.5t4 30.5t3 27z" />
    <glyph glyph-name="periodcentered" unicode="&#xb7;" horiz-adv-x="604" 
d="M328 813q97 0 162 -63.5t61 -163.5q-4 -105 -76 -172.5t-168 -67.5t-161.5 67.5t-61.5 172.5q4 100 75.5 163.5t168.5 63.5z" />
    <glyph glyph-name="cedilla" unicode="&#xb8;" horiz-adv-x="659" 
d="M297 -31h135l53 -102q3 -5 14.5 -26.5t17 -32t15 -31.5t14.5 -34.5t9 -30.5t4 -31q0 -34 -20.5 -59t-53.5 -37t-65 -17.5t-64 -5.5q-37 0 -72.5 8t-66.5 33t-31 63t33.5 62.5t73.5 31.5q19 3 28.5 5t20 11.5t10.5 24.5q0 25 -14 60l-23 61z" />
    <glyph glyph-name="onesuperior" unicode="&#xb9;" horiz-adv-x="724" 
d="M283 780l14 146q2 26 -13 47.5t-44 21.5q-13 0 -41 -12q-4 -1 -13 -5t-17 -6.5t-13 -2.5q-19 0 -28 16t-9 35q0 21 6 36.5t21 28t26 18.5t37 19q70 31 206 66t206 35q38 0 57.5 -12.5t19.5 -45.5q0 -36 -45 -63q-25 -14 -32.5 -23.5t-14.5 -38.5q-44 -183 -39 -338
q1 -48 16 -59.5t68 -13.5q49 -5 61 -14q13 -11 13 -37q0 -97 -320 -95h-8h-6q-7 0 -35 -1t-51 -1t-55.5 1t-57.5 6t-48 13.5t-35.5 23.5t-12.5 36q0 14 4.5 23.5t8.5 14.5t17.5 9t18.5 4.5t25 3.5q33 3 47.5 10t30.5 31q24 35 35 123z" />
    <glyph glyph-name="ordmasculine" unicode="&#xba;" horiz-adv-x="839" 
d="M451 852q-119 0 -200 58t-81 173q0 109 57.5 198.5t150 138t197.5 48.5q119 0 200 -58t81 -173q0 -109 -57.5 -198.5t-150 -138t-197.5 -48.5zM485 987q42 0 58 84q30 143 30 215q0 51 -32 51q-45 0 -62 -90q-26 -117 -26 -215q0 -45 32 -45z" />
    <glyph glyph-name="guillemotright" unicode="&#xbb;" horiz-adv-x="1159" 
d="M143 106q-31 0 -56.5 25.5t-25.5 54.5q0 35 38.5 87.5t84.5 99t84.5 100.5t38.5 90q0 47 -68.5 184.5t-68.5 184.5q0 35 28.5 58.5t65.5 23.5q53 0 147.5 -98t167 -215t72.5 -169q0 -66 -100 -170t-222 -180t-186 -76zM659 106q-31 0 -56 25t-25 55q0 35 38.5 87.5t84 99
t84 100.5t38.5 90q0 47 -68.5 184.5t-68.5 184.5q0 35 28.5 58.5t65.5 23.5q53 0 147.5 -98t167 -215t72.5 -169q0 -66 -100 -170t-222 -180t-186 -76z" />
    <glyph glyph-name="onequarter" unicode="&#xbc;" horiz-adv-x="1843" 
d="M1823 217l-2 -33l-11 -102q0 -3 -1 -12.5t-1.5 -11t-1.5 -8t-3 -7.5t-5 -4t-7.5 -3.5t-10.5 -1.5t-15 -1q-32 0 -36 -6q-1 -1 -9 -50q-2 -10 -3 -24t-2 -23.5t-3 -13.5q-8 -16 -57 -16h-150h-12h-13t-11 1t-10.5 3t-7 5.5t-6 9t-1.5 13.5l4 39l6 49q0 5 -3 8t-8.5 4
t-9.5 1.5t-10.5 0t-7.5 -0.5h-221q-61 0 -76 10q-24 13 -24 80q0 50 14.5 91t33 66.5t58.5 73.5l279 301q45 45 72.5 69t76.5 47.5t98 23.5q56 0 84 -17q17 -12 17 -41l-6 -59l-58 -402q0 -4 -1 -13t-1 -13q0 -12 25 -12h4q11 0 16.5 -0.5t11 -5.5t5.5 -15zM1507 432l2 29
q0 1 0.5 6.5t0 9t-1.5 8t-3.5 7t-7.5 2.5q-22 0 -107 -103t-85 -131q0 -22 69 -22h60q10 0 18 1t14 4l10 5t7 7.5t5 8.5t3 11t1.5 11.5t1.5 14t1 14.5zM784 436l478 830q25 51 49 70.5t75 19.5q99 0 99 -47q0 -7 -2 -15.5t-6 -18.5t-8 -18.5t-11 -20.5t-11.5 -19t-13 -19.5
t-11.5 -17.5t-11.5 -16.5t-9.5 -12.5l-184 -299l-390 -662l-112 -208q-14 -28 -20 -38.5t-19.5 -28.5t-30 -25t-39.5 -7q-39 0 -80 11.5t-41 39.5q0 27 23 58l94 147l92 146zM260 780l14 146q2 26 -13 47.5t-44 21.5q-13 0 -41 -12q-4 -1 -13 -5t-17 -6.5t-13 -2.5
q-19 0 -28 16t-9 35q0 21 6 36.5t21 28t26 18.5t37 19q70 31 206 66t206 35q39 0 58.5 -12.5t19.5 -45.5q0 -36 -45 -63q-25 -14 -32.5 -23.5t-14.5 -38.5q-44 -183 -39 -338q1 -48 16 -59.5t68 -13.5q48 -5 60 -14q13 -11 13 -37q0 -97 -319 -95h-14q-7 0 -35 -1t-51 -1
t-55.5 1t-57.5 6t-48 13.5t-35.5 23.5t-12.5 36q0 14 4.5 23.5t8 14.5t17 9t19 4.5t24.5 3.5q33 3 47.5 10t30.5 31q24 35 35 123z" />
    <glyph glyph-name="onehalf" unicode="&#xbd;" horiz-adv-x="1843" 
d="M784 436l478 830q25 51 49 70.5t75 19.5q99 0 99 -47q0 -7 -2 -15.5t-6 -18.5t-8 -18.5t-11 -20.5t-11.5 -19t-13 -19.5t-11.5 -17.5t-11.5 -16.5t-9.5 -12.5l-184 -299l-390 -662l-112 -208q-14 -28 -20 -38.5t-19.5 -28.5t-30 -25t-39.5 -7q-39 0 -80 11.5t-41 39.5
q0 27 23 58l94 147l92 146zM1573 0h-289q-4 0 -23 -0.5t-29 0t-28.5 1.5t-29.5 5t-23 10t-17.5 16.5t-5.5 24.5t8 29t14 21.5t21 21.5l91 76q43 33 94.5 82t101 113.5t49.5 101.5q0 24 -16 38.5t-43 14.5q-36 0 -75.5 -23.5t-74 -47t-57.5 -23.5q-26 0 -46.5 25t-20.5 51
q0 62 155 141q140 63 264 63q42 0 81.5 -8t76 -25t58.5 -48.5t22 -73.5q0 -69 -57 -135l-119 -121l-41 -37q-2 -2 -12.5 -12t-16 -15.5t-11 -14.5t-5.5 -15t1.5 -10.5t4 -7.5t5.5 -5.5t8 -4t8.5 -2t9 -1t8.5 -0.5h9h7q19 -1 33 -0.5t26 8t25 25.5q2 3 7.5 10.5t8 11.5t8 10
t10 9.5t10.5 7t13 5t15 1.5q55 0 55 -76q0 -92 -41 -176q-43 -94 -102 -94q-29 0 -45 28q-13 20 -15 21q-8 4 -65 4zM260 780l14 146q2 26 -13 47.5t-44 21.5q-13 0 -41 -12q-4 -1 -13 -5t-17 -6.5t-13 -2.5q-19 0 -28 16t-9 35q0 21 6 36.5t21 28t26 18.5t37 19
q70 31 206 66t206 35q39 0 58.5 -12.5t19.5 -45.5q0 -36 -45 -63q-25 -14 -32.5 -23.5t-14.5 -38.5q-44 -183 -39 -338q1 -48 16 -59.5t68 -13.5q48 -5 60 -14q13 -11 13 -37q0 -97 -319 -95h-14q-7 0 -35 -1t-51 -1t-55.5 1t-57.5 6t-48 13.5t-35.5 23.5t-12.5 36
q0 14 4.5 23.5t8 14.5t17 9t19 4.5t24.5 3.5q33 3 47.5 10t30.5 31q24 35 35 123z" />
    <glyph glyph-name="threequarters" unicode="&#xbe;" horiz-adv-x="1843" 
d="M1507 432l2 29q0 1 0.5 6.5t0 9t-1.5 8t-3.5 7t-7.5 2.5q-22 0 -107 -103t-85 -131q0 -22 69 -22h60q10 0 18 1t14 4l10 5t7 7.5t5 8.5t3 11t1.5 11.5t1.5 14t1 14.5zM1823 217l-2 -33l-11 -102q0 -3 -1 -12.5t-1.5 -11t-1.5 -8t-3 -7.5t-5 -4t-7.5 -3.5t-10.5 -1.5
t-15 -1q-32 0 -36 -6q-1 -1 -9 -50q-2 -10 -3 -24t-2 -23.5t-3 -13.5q-8 -16 -57 -16h-150h-12h-13t-11 1t-10.5 3t-7 5.5t-6 9t-1.5 13.5l4 39l6 49q0 5 -3 8t-8.5 4t-9.5 1.5t-10.5 0t-7.5 -0.5h-221q-61 0 -76 10q-24 13 -24 80q0 50 14.5 91t33 66.5t58.5 73.5l279 301
q45 45 72.5 69t76.5 47.5t98 23.5q56 0 84 -17q17 -12 17 -41l-6 -59l-58 -402q0 -4 -1 -13t-1 -13q0 -12 25 -12h4q11 0 16.5 -0.5t11 -5.5t5.5 -15zM784 436l478 830q25 51 49 70.5t75 19.5q99 0 99 -47q0 -7 -2 -15.5t-6 -18.5t-8 -18.5t-11 -20.5t-11.5 -19t-13 -19.5
t-11.5 -17.5t-11.5 -16.5t-9.5 -12.5l-184 -299l-390 -662l-112 -208q-14 -28 -20 -38.5t-19.5 -28.5t-30 -25t-39.5 -7q-39 0 -80 11.5t-41 39.5q0 27 23 58l94 147l92 146zM305 745q-53 -3 -70.5 9t-17.5 61q0 19 1.5 27t9 16t24.5 12q51 14 90 46t39 75q0 27 -17 42.5
t-47 15.5q-55 0 -129 -58q-3 -2 -10 -8t-10.5 -8t-9.5 -5.5t-12 -5t-13 -1.5q-26 0 -44.5 23t-18.5 48q0 70 143 137q131 64 250 64q92 0 159.5 -40t67.5 -120q0 -32 -13 -62t-28 -47t-28 -32.5t-13 -22.5q0 -11 17 -25t37.5 -28t37.5 -45.5t17 -73.5q0 -72 -34 -144.5
t-93 -117.5q-122 -96 -311 -96q-37 0 -77.5 5.5t-85.5 18.5t-73.5 39.5t-28.5 63.5q0 19 14 37t33 18q12 0 64.5 -19.5t99.5 -19.5q75 0 117 29q57 42 57 113q0 47 -22 67q-7 6 -16.5 9t-16 3.5t-20.5 0t-19 -0.5z" />
    <glyph glyph-name="questiondown" unicode="&#xbf;" horiz-adv-x="997" 
d="M680 -47q12 31 20 49t22.5 42t30.5 37t40.5 22.5t54.5 9.5q56 0 88.5 -31.5t32.5 -87.5q0 -97 -62.5 -182t-156.5 -138t-197 -82.5t-191 -27.5q-67 2 -127.5 19t-110.5 50t-80 88t-30 125q0 67 25.5 126t70.5 103.5t97.5 78t116.5 59.5q6 3 33.5 14.5t39.5 18.5t31 20.5
t27 30t8 37.5q0 12 -8.5 32.5t-8.5 30.5q0 32 35.5 54.5t74 30t69.5 7.5q54 0 88.5 -28.5t34.5 -81.5q0 -52 -24 -105.5t-58 -99t-68 -89t-58 -91t-24 -90.5q0 -26 12.5 -45t36.5 -19q25 0 43.5 8.5t32.5 29t20.5 33t18.5 42.5zM657 1059q97 0 162.5 -64t61.5 -164
q-4 -105 -76 -172t-168 -67t-161.5 67t-61.5 172q4 100 75.5 164t167.5 64z" />
    <glyph glyph-name="Agrave" unicode="&#xc0;" horiz-adv-x="1587" 
d="M700 575h134q42 3 54.5 15t12.5 39q0 65 -37.5 175.5t-62.5 110.5q-34 0 -98 -135t-64 -170q0 -27 61 -35zM1042 1679q3 -3 18.5 -19t21 -22.5t12 -20.5t6.5 -28q0 -34 -24 -52.5t-58 -18.5q-70 0 -173 40.5t-187.5 112t-84.5 144.5q0 27 21 47t54 29t61.5 12.5t54.5 3.5
q22 0 58 -5t78 -14.5t71.5 -28t29.5 -42.5q0 -9 -12 -33q-8 -16 -8 -23q0 -8 4.5 -17.5t13 -19.5t15 -17t16.5 -16.5t12 -11.5zM870 340h-274q-72 -6 -95.5 -26.5t-23.5 -63.5q0 -22 18.5 -33t40 -14.5t40 -24t18.5 -57.5q0 -25 -5.5 -42.5t-28 -36.5t-62 -31t-111.5 -19.5
t-174 -7.5q-35 0 -54.5 1t-55 4t-57 12t-44.5 23t-34 38.5t-11 56.5q0 37 10.5 55t30 25t41.5 13.5t51 29t53 61.5q37 61 115 186t128 208.5t110.5 194.5t101 212.5t61.5 193.5q22 99 77.5 132.5t160.5 33.5q133 0 205.5 -66t120.5 -202q17 -49 41.5 -137.5t52 -203
t47.5 -201.5t45 -198.5t29 -127.5q10 -45 29.5 -70t39 -32.5t38.5 -14t30.5 -25.5t11.5 -57q0 -36 -21.5 -62.5t-57 -41.5t-79.5 -25t-89.5 -12t-87.5 -4t-72 0h-25q-5 0 -32.5 -0.5t-42 0t-45 1.5t-49 4.5t-44.5 8.5t-42.5 14t-32.5 21t-23.5 30t-7.5 39q0 33 13.5 53
t33 29t38.5 16.5t32.5 23.5t13.5 42q0 42 -26.5 57t-70.5 17z" />
    <glyph glyph-name="Aacute" unicode="&#xc1;" horiz-adv-x="1587" 
d="M700 575h134q42 3 54.5 15t12.5 39q0 65 -37.5 175.5t-62.5 110.5q-34 0 -98 -135t-64 -170q0 -27 61 -35zM793 1679q61 54 61 82q0 11 -6 23q-12 24 -12 33q0 24 29.5 42.5t71.5 28t78 14.5t58 5q26 0 54.5 -3.5t61.5 -12.5t54 -29t21 -47q0 -73 -84.5 -144.5
t-187.5 -112t-173 -40.5q-34 0 -58 18.5t-24 52.5q0 11 3 21t10 20.5t12 16t16 17t15 15.5zM870 340h-274q-72 -6 -95.5 -26.5t-23.5 -63.5q0 -22 18.5 -33t40 -14.5t40 -24t18.5 -57.5q0 -25 -5.5 -42.5t-28 -36.5t-62 -31t-111.5 -19.5t-174 -7.5q-35 0 -54.5 1t-55 4
t-57 12t-44.5 23t-34 38.5t-11 56.5q0 37 10.5 55t30 25t41.5 13.5t51 29t53 61.5q37 61 115 186t128 208.5t110.5 194.5t101 212.5t61.5 193.5q22 99 77.5 132.5t160.5 33.5q133 0 205.5 -66t120.5 -202q17 -49 41.5 -137.5t52 -203t47.5 -201.5t45 -198.5t29 -127.5
q10 -45 29.5 -70t39 -32.5t38.5 -14t30.5 -25.5t11.5 -57q0 -36 -21.5 -62.5t-57 -41.5t-79.5 -25t-89.5 -12t-87.5 -4t-72 0h-25q-5 0 -32.5 -0.5t-42 0t-45 1.5t-49 4.5t-44.5 8.5t-42.5 14t-32.5 21t-23.5 30t-7.5 39q0 33 13.5 53t33 29t38.5 16.5t32.5 23.5t13.5 42
q0 42 -26.5 57t-70.5 17z" />
    <glyph glyph-name="Acircumflex" unicode="&#xc2;" horiz-adv-x="1587" 
d="M700 575h134q42 3 54.5 15t12.5 39q0 65 -37.5 175.5t-62.5 110.5q-34 0 -98 -135t-64 -170q0 -27 61 -35zM831 1591q-5 -2 -49 -26.5t-78 -39t-53 -14.5q-38 0 -66 25t-28 61q0 75 121 142q10 6 50.5 31t76 46t77.5 45t74.5 38t47.5 14q40 0 116.5 -59t138.5 -134
t62 -116q0 -39 -25.5 -68t-62.5 -29q-31 0 -67 23t-63 51t-60 51t-60 23q-13 0 -28.5 -4t-34.5 -13t-31.5 -15.5t-33 -18t-24.5 -13.5zM870 340h-274q-72 -6 -95.5 -26.5t-23.5 -63.5q0 -22 18.5 -33t40 -14.5t40 -24t18.5 -57.5q0 -25 -5.5 -42.5t-28 -36.5t-62 -31
t-111.5 -19.5t-174 -7.5q-35 0 -54.5 1t-55 4t-57 12t-44.5 23t-34 38.5t-11 56.5q0 37 10.5 55t30 25t41.5 13.5t51 29t53 61.5q37 61 115 186t128 208.5t110.5 194.5t101 212.5t61.5 193.5q22 99 77.5 132.5t160.5 33.5q133 0 205.5 -66t120.5 -202q17 -49 41.5 -137.5
t52 -203t47.5 -201.5t45 -198.5t29 -127.5q10 -45 29.5 -70t39 -32.5t38.5 -14t30.5 -25.5t11.5 -57q0 -36 -21.5 -62.5t-57 -41.5t-79.5 -25t-89.5 -12t-87.5 -4t-72 0h-25q-5 0 -32.5 -0.5t-42 0t-45 1.5t-49 4.5t-44.5 8.5t-42.5 14t-32.5 21t-23.5 30t-7.5 39
q0 33 13.5 53t33 29t38.5 16.5t32.5 23.5t13.5 42q0 42 -26.5 57t-70.5 17z" />
    <glyph glyph-name="Atilde" unicode="&#xc3;" horiz-adv-x="1587" 
d="M700 575h134q42 3 54.5 15t12.5 39q0 65 -37.5 175.5t-62.5 110.5q-34 0 -98 -135t-64 -170q0 -27 61 -35zM1128 1792q4 47 41 69.5t88 22.5q127 0 127 -117q0 -97 -60 -167t-157 -70q-51 0 -136 33t-162.5 65.5t-110.5 32.5q-9 0 -14.5 -6t-6.5 -11t-2 -18v-9v-9
t-0.5 -8t-1 -8.5t-2 -7t-3.5 -7.5t-5.5 -7t-7.5 -7q-30 -27 -84 -27q-58 0 -92.5 27.5t-34.5 83.5q0 109 63 172t172 63q68 0 148.5 -30t141.5 -59.5t81 -29.5q18 0 18 29zM870 340h-274q-72 -6 -95.5 -26.5t-23.5 -63.5q0 -22 18.5 -33t40 -14.5t40 -24t18.5 -57.5
q0 -25 -5.5 -42.5t-28 -36.5t-62 -31t-111.5 -19.5t-174 -7.5q-35 0 -54.5 1t-55 4t-57 12t-44.5 23t-34 38.5t-11 56.5q0 37 10.5 55t30 25t41.5 13.5t51 29t53 61.5q37 61 115 186t128 208.5t110.5 194.5t101 212.5t61.5 193.5q22 99 77.5 132.5t160.5 33.5
q133 0 205.5 -66t120.5 -202q17 -49 41.5 -137.5t52 -203t47.5 -201.5t45 -198.5t29 -127.5q10 -45 29.5 -70t39 -32.5t38.5 -14t30.5 -25.5t11.5 -57q0 -36 -21.5 -62.5t-57 -41.5t-79.5 -25t-89.5 -12t-87.5 -4t-72 0h-25q-5 0 -32.5 -0.5t-42 0t-45 1.5t-49 4.5
t-44.5 8.5t-42.5 14t-32.5 21t-23.5 30t-7.5 39q0 33 13.5 53t33 29t38.5 16.5t32.5 23.5t13.5 42q0 42 -26.5 57t-70.5 17z" />
    <glyph glyph-name="Adieresis" unicode="&#xc4;" horiz-adv-x="1587" 
d="M700 575h134q42 3 54.5 15t12.5 39q0 65 -37.5 175.5t-62.5 110.5q-34 0 -98 -135t-64 -170q0 -27 61 -35zM1190 1554q-26 0 -51 4.5t-50.5 14.5t-41 30t-15.5 48q0 51 42 94t103 67.5t122 38t108 13.5q51 0 94 -26.5t43 -74.5q0 -68 -100 -135q-54 -34 -122.5 -54
t-131.5 -20zM573 1554q-25 0 -49.5 4.5t-49.5 14.5t-40.5 30t-15.5 48q0 51 42 94t103 67.5t121.5 38t106.5 13.5q53 0 96 -26.5t43 -74.5q0 -67 -101 -135q-54 -34 -123 -54t-133 -20zM870 340h-274q-72 -6 -95.5 -26.5t-23.5 -63.5q0 -22 18.5 -33t40 -14.5t40 -24
t18.5 -57.5q0 -25 -5.5 -42.5t-28 -36.5t-62 -31t-111.5 -19.5t-174 -7.5q-35 0 -54.5 1t-55 4t-57 12t-44.5 23t-34 38.5t-11 56.5q0 37 10.5 55t30 25t41.5 13.5t51 29t53 61.5q37 61 115 186t128 208.5t110.5 194.5t101 212.5t61.5 193.5q22 99 77.5 132.5t160.5 33.5
q133 0 205.5 -66t120.5 -202q17 -49 41.5 -137.5t52 -203t47.5 -201.5t45 -198.5t29 -127.5q10 -45 29.5 -70t39 -32.5t38.5 -14t30.5 -25.5t11.5 -57q0 -36 -21.5 -62.5t-57 -41.5t-79.5 -25t-89.5 -12t-87.5 -4t-72 0h-25q-5 0 -32.5 -0.5t-42 0t-45 1.5t-49 4.5
t-44.5 8.5t-42.5 14t-32.5 21t-23.5 30t-7.5 39q0 33 13.5 53t33 29t38.5 16.5t32.5 23.5t13.5 42q0 42 -26.5 57t-70.5 17z" />
    <glyph glyph-name="Aring" unicode="&#xc5;" horiz-adv-x="1587" 
d="M700 575h134q42 3 54.5 15t12.5 39q0 65 -37.5 175.5t-62.5 110.5q-34 0 -98 -135t-64 -170q0 -27 61 -35zM1004 1929q56 0 103 -8.5t91.5 -29.5t70 -62t25.5 -100q0 -65 -27.5 -112.5t-74.5 -73.5t-100.5 -38t-114.5 -12q-309 0 -309 203q0 50 22.5 95.5t61.5 74.5
q86 63 252 63zM1001 1833q-57 0 -88.5 -41t-31.5 -100q0 -39 26 -63.5t66 -24.5q58 0 89.5 38.5t31.5 98.5q0 43 -25 67.5t-68 24.5zM870 340h-274q-72 -6 -95.5 -26.5t-23.5 -63.5q0 -22 18.5 -33t40 -14.5t40 -24t18.5 -57.5q0 -25 -5.5 -42.5t-28 -36.5t-62 -31
t-111.5 -19.5t-174 -7.5q-35 0 -54.5 1t-55 4t-57 12t-44.5 23t-34 38.5t-11 56.5q0 37 10.5 55t30 25t41.5 13.5t51 29t53 61.5q37 61 115 186t128 208.5t110.5 194.5t101 212.5t61.5 193.5q22 99 77.5 132.5t160.5 33.5q133 0 205.5 -66t120.5 -202q17 -49 41.5 -137.5
t52 -203t47.5 -201.5t45 -198.5t29 -127.5q10 -45 29.5 -70t39 -32.5t38.5 -14t30.5 -25.5t11.5 -57q0 -36 -21.5 -62.5t-57 -41.5t-79.5 -25t-89.5 -12t-87.5 -4t-72 0h-25q-5 0 -32.5 -0.5t-42 0t-45 1.5t-49 4.5t-44.5 8.5t-42.5 14t-32.5 21t-23.5 30t-7.5 39
q0 33 13.5 53t33 29t38.5 16.5t32.5 23.5t13.5 42q0 42 -26.5 57t-70.5 17z" />
    <glyph glyph-name="AE" unicode="&#xc6;" horiz-adv-x="2189" 
d="M889 770l-58 -74l-11 -15q-12 -15 -17.5 -22.5t-12 -20.5t-6.5 -22q0 -16 7.5 -25.5t22.5 -13t26 -4t31.5 0.5t25.5 1h35t26.5 2.5t23.5 7t15.5 13.5t14 23t8.5 34l33 172q6 42 6 47q0 15 -9 24t-24 9q-11 0 -26.5 -11t-33.5 -30.5t-31 -35.5t-28.5 -37t-17.5 -23z
M842 324h-142h-21h-23.5t-22 -1t-22.5 -3t-19 -6t-18 -10t-13 -14.5t-9.5 -20.5t-2.5 -27q0 -25 24.5 -63.5t24.5 -76.5q0 -32 -13.5 -55.5t-32 -35t-49 -18t-52.5 -8t-54 -1.5h-198q-109 0 -149 10q-93 23 -93 108q0 41 16 64t38.5 31t62 30.5t73.5 57.5q114 115 324 369.5
t330 412.5q87 114 118 165t31 83q0 39 18 65t51.5 37.5t63 15t68.5 3.5h643q88 0 150 12t69 12q60 0 116 -85.5t56 -219.5q0 -64 -31.5 -111t-91.5 -47q-39 0 -64.5 15t-37 37.5t-27 49t-33 49t-57 37.5t-96.5 15q-85 0 -122 -11.5t-49.5 -37t-19.5 -88.5l-12 -117
q-1 -14 -3.5 -34t-2.5 -27t1 -16.5t7 -12t16 -4.5t27 -2q33 0 52 19.5t27 47l16 55t28 47t55 19.5q138 0 138 -256q0 -48 -8.5 -105.5t-27.5 -121t-57 -105.5t-88 -42q-42 0 -62 21t-23.5 51.5t-6 61t-17.5 51.5t-50 21q-38 0 -51 -38.5t-13 -124.5v-91v-41.5t3 -30
t3.5 -22.5t9.5 -14t14 -9.5t23 -4t29 -2.5h40h15q65 0 114 14.5t78.5 38t51 51.5t37.5 56t32 51.5t41 38t58 14.5q123 0 123 -164q0 -68 -23 -134.5t-57 -112.5t-71 -74.5t-66 -28.5q-1 0 -47 8q-75 6 -125 6h-410q-98 0 -200 -6q-23 -1 -63.5 -2.5t-74 -2.5t-63.5 -1
q-37 0 -57.5 1t-50.5 7.5t-46.5 19t-28.5 36.5t-12 59q0 42 16.5 67.5t40 35.5t47 17t40 20.5t16.5 37.5q0 13 -6.5 21t-20 11t-22 3.5t-27 0t-20.5 -0.5z" />
    <glyph glyph-name="Ccedilla" unicode="&#xc7;" horiz-adv-x="1464" 
d="M1133 442q6 6 35.5 38t47.5 49t47.5 34t55.5 17q60 0 90.5 -38t30.5 -100q0 -42 -15.5 -95t-42 -102t-67.5 -84t-86 -38q-31 -3 -41.5 -6t-42.5 -19q-107 -56 -192.5 -85t-184.5 -36q119 -169 119 -296q0 -34 -20.5 -59t-53.5 -37t-65 -17.5t-64 -5.5q-37 0 -72.5 8
t-66.5 33t-31 63t33.5 62.5t73.5 31.5q19 3 28.5 5t20 11.5t10.5 24.5q0 58 -49 174q-240 12 -390.5 160t-150.5 393q0 173 65.5 341t177.5 298.5t274.5 212.5t342.5 84q60 1 116 -11t90 -24t40 -12q12 0 42.5 10.5t45.5 10.5q56 0 107.5 -54.5t79.5 -128.5t28 -139
q0 -92 -49.5 -154.5t-138.5 -62.5q-52 0 -90 27.5t-61.5 67l-47 79t-60 67t-87.5 27.5q-58 0 -109 -42.5t-84 -106t-57 -139.5t-34.5 -142t-10.5 -114q0 -56 11.5 -107.5t35.5 -98t68.5 -74.5t103.5 -28q71 0 126.5 32.5t117.5 94.5z" />
    <glyph glyph-name="Egrave" unicode="&#xc8;" horiz-adv-x="1427" 
d="M1026 0h-547q-46 0 -139 -9t-139 -9q-172 0 -172 120q0 34 13.5 54.5t34.5 31t43.5 20.5t45.5 32.5t35 58.5q35 105 76.5 387.5t41.5 400.5q0 44 -13 72t-31.5 40t-37 22.5t-31.5 29t-13 49.5q0 43 18 73t49 44.5t65 20.5t74 4q102 -4 156 -4q53 -2 160 -2h321
q88 0 150 12t69 12q60 0 116 -85.5t56 -219.5q0 -64 -31 -111t-91 -47q-39 0 -64.5 15t-37 37.5t-27.5 49t-33.5 49t-57 37.5t-96.5 15q-36 0 -61 -1t-45.5 -6.5t-33 -9.5t-23 -18t-15 -23t-9 -34t-5.5 -41.5t-4.5 -55t-6.5 -65.5q-1 -14 -3.5 -34t-2.5 -27t1 -16.5t7 -12
t16 -4.5t27 -2q33 0 52 19.5t27 47t16.5 55t28.5 47t55 19.5q137 0 137 -256q0 -48 -8.5 -105.5t-27 -121t-56.5 -105.5t-88 -42q-42 0 -62 21t-24 51.5t-6 61t-17.5 51.5t-50.5 21q-18 0 -30.5 -10.5t-19.5 -29.5t-11 -40t-5 -48t-0.5 -47.5t1.5 -45t1 -33.5v-52.5t6 -34
t10 -22.5t22.5 -10t33 -5h51.5h4h3.5h4h3.5q65 0 114 14.5t78 38t51 51.5t37.5 56t32 51.5t41 38t57.5 14.5q123 0 123 -164q0 -68 -23 -134.5t-57 -112.5t-71 -74.5t-66 -28.5q-1 0 -47 8q-75 6 -125 6zM963 1679q4 -5 15 -15.5t16.5 -17t12.5 -16.5t10 -20t3 -21
q0 -34 -24 -52.5t-58 -18.5q-51 0 -126 25t-146 64.5t-121.5 96t-50.5 111.5q0 27 21 47t53.5 29t61 12.5t54.5 3.5q22 0 58.5 -5t78.5 -14.5t71.5 -28t29.5 -42.5q0 -7 -13 -33q-8 -16 -8 -23q0 -10 8.5 -23.5t15.5 -21.5t23 -22z" />
    <glyph glyph-name="Eacute" unicode="&#xc9;" horiz-adv-x="1427" 
d="M1026 0h-547q-46 0 -139 -9t-139 -9q-172 0 -172 120q0 34 13.5 54.5t34.5 31t43.5 20.5t45.5 32.5t35 58.5q35 105 76.5 387.5t41.5 400.5q0 44 -13 72t-31.5 40t-37 22.5t-31.5 29t-13 49.5q0 43 18 73t49 44.5t65 20.5t74 4q102 -4 156 -4q53 -2 160 -2h321
q88 0 150 12t69 12q60 0 116 -85.5t56 -219.5q0 -64 -31 -111t-91 -47q-39 0 -64.5 15t-37 37.5t-27.5 49t-33.5 49t-57 37.5t-96.5 15q-36 0 -61 -1t-45.5 -6.5t-33 -9.5t-23 -18t-15 -23t-9 -34t-5.5 -41.5t-4.5 -55t-6.5 -65.5q-1 -14 -3.5 -34t-2.5 -27t1 -16.5t7 -12
t16 -4.5t27 -2q33 0 52 19.5t27 47t16.5 55t28.5 47t55 19.5q137 0 137 -256q0 -48 -8.5 -105.5t-27 -121t-56.5 -105.5t-88 -42q-42 0 -62 21t-24 51.5t-6 61t-17.5 51.5t-50.5 21q-18 0 -30.5 -10.5t-19.5 -29.5t-11 -40t-5 -48t-0.5 -47.5t1.5 -45t1 -33.5v-52.5t6 -34
t10 -22.5t22.5 -10t33 -5h51.5h4h3.5h4h3.5q65 0 114 14.5t78 38t51 51.5t37.5 56t32 51.5t41 38t57.5 14.5q123 0 123 -164q0 -68 -23 -134.5t-57 -112.5t-71 -74.5t-66 -28.5q-1 0 -47 8q-75 6 -125 6zM713 1679q61 54 61 82q0 11 -6 23q-12 24 -12 33q0 24 29.5 42.5
t71.5 28t78 14.5t58 5q26 0 54.5 -3.5t61.5 -12.5t54 -29t21 -47q0 -73 -84.5 -144.5t-187.5 -112t-173 -40.5q-34 0 -58 18.5t-24 52.5q0 11 3 21t10 20.5t12 16t16 17t15 15.5z" />
    <glyph glyph-name="Ecircumflex" unicode="&#xca;" horiz-adv-x="1427" 
d="M1026 0h-547q-46 0 -139 -9t-139 -9q-172 0 -172 120q0 34 13.5 54.5t34.5 31t43.5 20.5t45.5 32.5t35 58.5q35 105 76.5 387.5t41.5 400.5q0 44 -13 72t-31.5 40t-37 22.5t-31.5 29t-13 49.5q0 43 18 73t49 44.5t65 20.5t74 4q102 -4 156 -4q53 -2 160 -2h321
q88 0 150 12t69 12q60 0 116 -85.5t56 -219.5q0 -64 -31 -111t-91 -47q-39 0 -64.5 15t-37 37.5t-27.5 49t-33.5 49t-57 37.5t-96.5 15q-36 0 -61 -1t-45.5 -6.5t-33 -9.5t-23 -18t-15 -23t-9 -34t-5.5 -41.5t-4.5 -55t-6.5 -65.5q-1 -14 -3.5 -34t-2.5 -27t1 -16.5t7 -12
t16 -4.5t27 -2q33 0 52 19.5t27 47t16.5 55t28.5 47t55 19.5q137 0 137 -256q0 -48 -8.5 -105.5t-27 -121t-56.5 -105.5t-88 -42q-42 0 -62 21t-24 51.5t-6 61t-17.5 51.5t-50.5 21q-18 0 -30.5 -10.5t-19.5 -29.5t-11 -40t-5 -48t-0.5 -47.5t1.5 -45t1 -33.5v-52.5t6 -34
t10 -22.5t22.5 -10t33 -5h51.5h4h3.5h4h3.5q65 0 114 14.5t78 38t51 51.5t37.5 56t32 51.5t41 38t57.5 14.5q123 0 123 -164q0 -68 -23 -134.5t-57 -112.5t-71 -74.5t-66 -28.5q-1 0 -47 8q-75 6 -125 6zM752 1591q-4 -2 -49 -26.5t-79 -39t-53 -14.5q-38 0 -66 25t-28 61
q0 75 121 142q10 6 50.5 31t76 46t77.5 45t74.5 38t47.5 14q40 0 116.5 -59t138.5 -134t62 -116q0 -39 -25.5 -68t-62.5 -29q-31 0 -67 23t-63 51t-60 51t-60 23q-13 0 -28.5 -4.5t-34 -13t-31.5 -15t-32.5 -17.5t-24.5 -14z" />
    <glyph glyph-name="Edieresis" unicode="&#xcb;" horiz-adv-x="1427" 
d="M1026 0h-547q-46 0 -139 -9t-139 -9q-172 0 -172 120q0 34 13.5 54.5t34.5 31t43.5 20.5t45.5 32.5t35 58.5q35 105 76.5 387.5t41.5 400.5q0 44 -13 72t-31.5 40t-37 22.5t-31.5 29t-13 49.5q0 43 18 73t49 44.5t65 20.5t74 4q102 -4 156 -4q53 -2 160 -2h321
q88 0 150 12t69 12q60 0 116 -85.5t56 -219.5q0 -64 -31 -111t-91 -47q-39 0 -64.5 15t-37 37.5t-27.5 49t-33.5 49t-57 37.5t-96.5 15q-36 0 -61 -1t-45.5 -6.5t-33 -9.5t-23 -18t-15 -23t-9 -34t-5.5 -41.5t-4.5 -55t-6.5 -65.5q-1 -14 -3.5 -34t-2.5 -27t1 -16.5t7 -12
t16 -4.5t27 -2q33 0 52 19.5t27 47t16.5 55t28.5 47t55 19.5q137 0 137 -256q0 -48 -8.5 -105.5t-27 -121t-56.5 -105.5t-88 -42q-42 0 -62 21t-24 51.5t-6 61t-17.5 51.5t-50.5 21q-18 0 -30.5 -10.5t-19.5 -29.5t-11 -40t-5 -48t-0.5 -47.5t1.5 -45t1 -33.5v-52.5t6 -34
t10 -22.5t22.5 -10t33 -5h51.5h4h3.5h4h3.5q65 0 114 14.5t78 38t51 51.5t37.5 56t32 51.5t41 38t57.5 14.5q123 0 123 -164q0 -68 -23 -134.5t-57 -112.5t-71 -74.5t-66 -28.5q-1 0 -47 8q-75 6 -125 6zM1110 1554q-26 0 -51 4.5t-50.5 14.5t-41 30t-15.5 48q0 51 42 94
t103 67.5t122 38t108 13.5q51 0 94 -26.5t43 -74.5q0 -68 -100 -135q-54 -34 -122.5 -54t-131.5 -20zM494 1554q-25 0 -49.5 4.5t-50 14.5t-41 30t-15.5 48q0 51 42 94t103 67.5t121.5 38t106.5 13.5q53 0 96 -26.5t43 -74.5q0 -68 -100 -135q-54 -34 -123 -54t-133 -20z
" />
    <glyph glyph-name="Igrave" unicode="&#xcc;" horiz-adv-x="944" 
d="M233 383l84 676q1 10 6 43.5t5 58.5q0 27 -15 42.5t-36 21.5t-42 13.5t-36 27t-15 53.5q0 33 13 51q60 82 387 82q176 0 268.5 -11t135 -40t42.5 -84q0 -36 -16.5 -54.5t-40.5 -24.5t-49.5 -12t-46 -23.5t-25.5 -51.5q-4 -23 -14 -67.5t-11 -51.5l-79 -565
q-15 -113 -15 -135q0 -46 15 -72t36.5 -35t43 -16.5t36.5 -26t15 -53.5q0 -30 -15.5 -54t-37 -39t-58.5 -25.5t-65.5 -15.5t-72.5 -8t-65 -3h-58h-7h-6q-265 0 -366 30.5t-101 120.5q0 27 10 44t26.5 25.5t36.5 15t41 16t39.5 25t33 46.5t19.5 76zM721 1679q4 -5 15 -15.5
t16.5 -17t12.5 -16.5t10 -20t3 -21q0 -34 -24 -52.5t-58 -18.5q-51 0 -126 25t-146 64.5t-121.5 96t-50.5 111.5q0 27 21 47t53.5 29t61 12.5t54.5 3.5q22 0 58.5 -5t78.5 -14.5t71.5 -28t29.5 -42.5q0 -9 -12 -33q-9 -18 -9 -23q0 -10 8.5 -23.5t15.5 -21.5t23 -22z" />
    <glyph glyph-name="Iacute" unicode="&#xcd;" horiz-adv-x="944" 
d="M233 383l84 676q1 10 6 43.5t5 58.5q0 27 -15 42.5t-36 21.5t-42 13.5t-36 27t-15 53.5q0 33 13 51q60 82 387 82q176 0 268.5 -11t135 -40t42.5 -84q0 -36 -16.5 -54.5t-40.5 -24.5t-49.5 -12t-46 -23.5t-25.5 -51.5q-4 -23 -14 -67.5t-11 -51.5l-79 -565
q-15 -113 -15 -135q0 -46 15 -72t36.5 -35t43 -16.5t36.5 -26t15 -53.5q0 -30 -15.5 -54t-37 -39t-58.5 -25.5t-65.5 -15.5t-72.5 -8t-65 -3h-58h-7h-6q-265 0 -366 30.5t-101 120.5q0 27 10 44t26.5 25.5t36.5 15t41 16t39.5 25t33 46.5t19.5 76zM594 1679q61 54 61 82
q0 11 -6 23q-12 24 -12 33q0 24 29.5 42.5t71.5 28t78 14.5t58 5q26 0 54.5 -3.5t61.5 -12.5t54 -29t21 -47q0 -55 -50.5 -111.5t-121.5 -96t-146 -64.5t-126 -25q-34 0 -58 18.5t-24 52.5q0 11 2.5 21t10 20.5t11.5 15.5t16 17.5t15 15.5z" />
    <glyph glyph-name="Icircumflex" unicode="&#xce;" horiz-adv-x="944" 
d="M233 383l84 676q1 10 6 43.5t5 58.5q0 27 -15 42.5t-36 21.5t-42 13.5t-36 27t-15 53.5q0 33 13 51q60 82 387 82q176 0 268.5 -11t135 -40t42.5 -84q0 -36 -16.5 -54.5t-40.5 -24.5t-49.5 -12t-46 -23.5t-25.5 -51.5q-4 -23 -14 -67.5t-11 -51.5l-79 -565
q-15 -113 -15 -135q0 -46 15 -72t36.5 -35t43 -16.5t36.5 -26t15 -53.5q0 -30 -15.5 -54t-37 -39t-58.5 -25.5t-65.5 -15.5t-72.5 -8t-65 -3h-58h-7h-6q-265 0 -366 30.5t-101 120.5q0 27 10 44t26.5 25.5t36.5 15t41 16t39.5 25t33 46.5t19.5 76zM551 1591q-5 -2 -49 -26.5
t-78 -39t-53 -14.5q-38 0 -66.5 25t-28.5 61q0 75 121 142q10 6 50.5 31t76 46t77.5 45t74.5 38t47.5 14q40 0 116.5 -59t138.5 -134t62 -116q0 -39 -25.5 -68t-62.5 -29q-31 0 -67 23t-63 51t-60 51t-60 23q-13 0 -28.5 -4.5t-34 -13t-31.5 -15t-32.5 -17.5t-24.5 -14z" />
    <glyph glyph-name="Idieresis" unicode="&#xcf;" horiz-adv-x="944" 
d="M233 383l84 676q1 10 6 43.5t5 58.5q0 27 -15 42.5t-36 21.5t-42 13.5t-36 27t-15 53.5q0 33 13 51q60 82 387 82q176 0 268.5 -11t135 -40t42.5 -84q0 -36 -16.5 -54.5t-40.5 -24.5t-49.5 -12t-46 -23.5t-25.5 -51.5q-4 -23 -14 -67.5t-11 -51.5l-79 -565
q-15 -113 -15 -135q0 -46 15 -72t36.5 -35t43 -16.5t36.5 -26t15 -53.5q0 -30 -15.5 -54t-37 -39t-58.5 -25.5t-65.5 -15.5t-72.5 -8t-65 -3h-58h-7h-6q-265 0 -366 30.5t-101 120.5q0 27 10 44t26.5 25.5t36.5 15t41 16t39.5 25t33 46.5t19.5 76zM907 1554q-59 0 -108 22.5
t-49 74.5q0 51 41.5 94t103 67.5t122 38t107.5 13.5q51 0 94.5 -26.5t43.5 -74.5q0 -67 -101 -135q-54 -34 -122.5 -54t-131.5 -20zM291 1554q-25 0 -49.5 4.5t-50 14.5t-41 30t-15.5 48q0 51 42 94t103 67.5t121.5 38t106.5 13.5q53 0 96 -26.5t43 -74.5q0 -68 -100 -135
q-54 -34 -123 -54t-133 -20z" />
    <glyph glyph-name="Eth" unicode="&#xd0;" horiz-adv-x="1632" 
d="M1133 874q0 54 -4 97t-16.5 89.5t-33.5 78t-58.5 51.5t-88.5 20q-35 0 -58.5 -11.5t-33.5 -32t-14 -37t-5 -40t-2 -28.5l-6 -86l-4 -51q0 -19 1 -27.5t7 -15.5t19 -7h28q21 0 44.5 1.5t31.5 1.5q28 0 36 -14.5t5 -59.5q-3 -60 -12.5 -75t-48.5 -15q-8 0 -40 1t-40 1
q-49 3 -52 -56l-18 -190q-8 -90 -8 -133t15 -65.5t57 -22.5q72 0 127 42t86.5 106t51.5 151.5t27 165.5t7 161zM94 770l8 68q3 24 12.5 33t30.5 8l109 -5q53 0 59 23q17 111 17 205q0 46 -14 71.5t-34 34t-40.5 15.5t-34.5 24t-14 51q0 32 9 56t27.5 39t38 24t49 13t50.5 5
t53 1h246q88 0 180 6q118 4 178 4q59 0 107 -3t117 -17.5t122 -38.5t110 -70.5t94.5 -110t62 -161t24.5 -218.5q0 -43 -3.5 -88t-15 -107t-29.5 -120t-50 -122.5t-74 -119t-104 -105.5t-137.5 -87t-177.5 -57t-220 -21h-463q-30 0 -88 -4q-62 -4 -90 -4q-75 0 -117.5 26
t-42.5 95q0 39 13.5 60.5t34 29.5t42.5 14.5t43 24t31 49.5q18 54 43 198.5t25 182.5q0 23 -9 32t-34 9l-50 -2q-7 0 -25.5 -1t-33.5 -1q-41 0 -35 61z" />
    <glyph glyph-name="Ntilde" unicode="&#xd1;" horiz-adv-x="1665" 
d="M1137 1319q0 16 0.5 22t6.5 23.5t17.5 26.5t37 22.5t61.5 20.5t94.5 12.5t132.5 5.5q61 0 103 -2.5t84 -10.5t66.5 -22t40 -38.5t15.5 -59.5t-18.5 -54t-45.5 -25.5t-54.5 -14t-48.5 -28t-25 -58.5q0 -2 -16 -79t-21 -114l-84 -581q-14 -96 -32 -164t-38 -110t-47.5 -66
t-56 -32.5t-66.5 -8.5q-21 0 -40.5 3.5t-38 13.5t-32 17.5t-31.5 26t-27 26.5t-26.5 32.5l-22.5 31.5t-23.5 34.5t-20.5 31.5l-299 450q-75 117 -109 117q-13 0 -22.5 -12t-15.5 -34.5t-9 -38.5t-6 -41l-2 -26q-7 -45 -19 -168.5t-12 -146.5q0 -38 15 -63.5t36 -38t42 -23.5
t36 -28.5t15 -43.5q0 -120 -273 -120q-358 0 -358 131q0 35 20 54.5t45 26t51.5 22t35.5 40.5q43 116 72.5 249.5t40 212t23.5 220t17 172.5q4 43 -11 65t-40 28t-50.5 11.5t-44 25t-18.5 58.5q0 35 12.5 61t40.5 42t58.5 26.5t82 15t95.5 6t113 1.5q49 0 78.5 -2t60 -11.5
t50.5 -23t46.5 -42t49.5 -63t59 -91.5l231 -347q94 -141 117 -141q24 0 39.5 48.5t21 128t6.5 113.5t1 69q2 50 -5.5 81t-22 42.5t-32.5 16t-36.5 6t-34 6.5t-25.5 24t-10 53zM1167 1792q4 47 41 69.5t88 22.5q127 0 127 -117q0 -97 -60 -167t-157 -70q-51 0 -136 33
t-162.5 65.5t-110.5 32.5q-9 0 -14.5 -6t-6.5 -11t-2 -18v-9v-9t-0.5 -8t-1 -8.5t-2 -7t-3.5 -7.5t-5.5 -7t-7.5 -7q-30 -27 -84 -27q-58 0 -92.5 27.5t-34.5 83.5q0 109 63 172t172 63q68 0 148.5 -30t141.5 -59.5t81 -29.5q18 0 18 29z" />
    <glyph glyph-name="Ograve" unicode="&#xd2;" horiz-adv-x="1540" 
d="M1595 903q0 -188 -71 -360t-191 -297.5t-287 -200t-352 -74.5q-131 0 -241.5 37t-192 107t-127 177t-45.5 240q0 188 71 360t191 297.5t287 200t352 74.5q131 0 241.5 -37t192 -107t127 -177t45.5 -240zM1020 1679q4 -5 15 -15.5t16.5 -17t12.5 -16.5t10 -20t3 -21
q0 -34 -24 -52.5t-58 -18.5q-51 0 -126 25t-146 64.5t-121.5 96t-50.5 111.5q0 27 21 47t53.5 29t61 12.5t54.5 3.5q22 0 58.5 -5t78.5 -14.5t71.5 -28t29.5 -42.5q0 -9 -12 -33q-9 -18 -9 -23q0 -10 8.5 -23.5t15.5 -21.5t22 -22zM770 236q62 0 112 58.5t79.5 143t49 187
t26.5 181t7 134.5q0 260 -131 260q-62 0 -112 -58.5t-79.5 -143t-49 -187t-26.5 -181t-7 -134.5q0 -260 131 -260z" />
    <glyph glyph-name="Oacute" unicode="&#xd3;" horiz-adv-x="1540" 
d="M1595 903q0 -188 -71 -360t-191 -297.5t-287 -200t-352 -74.5q-131 0 -241.5 37t-192 107t-127 177t-45.5 240q0 188 71 360t191 297.5t287 200t352 74.5q131 0 241.5 -37t192 -107t127 -177t45.5 -240zM770 236q62 0 112 58.5t79.5 143t49 187t26.5 181t7 134.5
q0 260 -131 260q-62 0 -112 -58.5t-79.5 -143t-49 -187t-26.5 -181t-7 -134.5q0 -260 131 -260zM893 1679q61 54 61 82q0 11 -6 23q-12 24 -12 33q0 24 29.5 42.5t71.5 28t78.5 14.5t58.5 5q26 0 54.5 -3.5t61 -12.5t53.5 -29t21 -47q0 -55 -50.5 -111.5t-121.5 -96
t-146 -64.5t-126 -25q-34 0 -58 18.5t-24 52.5q0 11 2.5 21t10 20.5t11.5 15.5t16 17.5t15 15.5z" />
    <glyph glyph-name="Ocircumflex" unicode="&#xd4;" horiz-adv-x="1540" 
d="M1595 903q0 -188 -71 -360t-191 -297.5t-287 -200t-352 -74.5q-131 0 -241.5 37t-192 107t-127 177t-45.5 240q0 188 71 360t191 297.5t287 200t352 74.5q131 0 241.5 -37t192 -107t127 -177t45.5 -240zM891 1591q-5 -2 -49 -26.5t-78 -39t-53 -14.5q-38 0 -66.5 25
t-28.5 61q0 75 121 142q10 6 50.5 31t76 46t77.5 45t74.5 38t47.5 14q40 0 116.5 -59t138.5 -134t62 -116q0 -39 -25.5 -68t-62.5 -29q-31 0 -67 23t-63 51t-60 51t-60 23q-13 0 -28.5 -4.5t-34 -13t-31.5 -15t-32.5 -17.5t-24.5 -14zM770 236q62 0 112 58.5t79.5 143
t49 187t26.5 181t7 134.5q0 260 -131 260q-62 0 -112 -58.5t-79.5 -143t-49 -187t-26.5 -181t-7 -134.5q0 -260 131 -260z" />
    <glyph glyph-name="Otilde" unicode="&#xd5;" horiz-adv-x="1540" 
d="M1595 903q0 -188 -71 -360t-191 -297.5t-287 -200t-352 -74.5q-131 0 -241.5 37t-192 107t-127 177t-45.5 240q0 188 71 360t191 297.5t287 200t352 74.5q131 0 241.5 -37t192 -107t127 -177t45.5 -240zM1104 1792q4 47 41 69.5t88 22.5q127 0 127 -117q0 -97 -60 -167
t-157 -70q-51 0 -136.5 33t-163 65.5t-110.5 32.5q-9 0 -13.5 -4t-6 -11.5t-2.5 -15.5v-4v-7v-7.5v-6.5t-0.5 -7l-1.5 -6t-2 -6t-2.5 -6t-3.5 -6l-5 -5l-6 -6q-30 -27 -84 -27q-58 0 -92.5 27.5t-34.5 83.5q0 109 63.5 172t172.5 63q68 0 148 -30t141 -59.5t81 -29.5
q19 0 19 29zM770 236q62 0 112 58.5t79.5 143t49 187t26.5 181t7 134.5q0 260 -131 260q-62 0 -112 -58.5t-79.5 -143t-49 -187t-26.5 -181t-7 -134.5q0 -260 131 -260z" />
    <glyph glyph-name="Odieresis" unicode="&#xd6;" horiz-adv-x="1540" 
d="M1595 903q0 -188 -71 -360t-191 -297.5t-287 -200t-352 -74.5q-131 0 -241.5 37t-192 107t-127 177t-45.5 240q0 188 71 360t191 297.5t287 200t352 74.5q131 0 241.5 -37t192 -107t127 -177t45.5 -240zM1329 1554q-26 0 -51 4.5t-50.5 14.5t-41 30t-15.5 48q0 51 42 94
t103 67.5t122 38t108 13.5q51 0 94 -26.5t43 -74.5q0 -68 -100 -135q-54 -34 -122.5 -54t-131.5 -20zM713 1554q-25 0 -49.5 4.5t-50 14.5t-41 30t-15.5 48q0 51 42 94t103 67.5t121.5 38t106.5 13.5q53 0 96 -26.5t43 -74.5q0 -68 -100 -135q-54 -34 -123 -54t-133 -20z
M770 236q62 0 112 58.5t79.5 143t49 187t26.5 181t7 134.5q0 260 -131 260q-62 0 -112 -58.5t-79.5 -143t-49 -187t-26.5 -181t-7 -134.5q0 -260 131 -260z" />
    <glyph glyph-name="multiply" unicode="&#xd7;" 
d="M1047 758l-160 -160q-6 -6 -15.5 -15t-14 -13.5t-10.5 -11t-9 -10t-6 -8.5t-4 -8.5t-1 -7.5q0 -5 2 -9.5t8 -11.5t11.5 -13t17.5 -18l21 -21l160 -160l15 -15l14 -14l11.5 -11.5t10 -12t6.5 -11t6 -11.5t2 -11q0 -37 -53.5 -92.5t-93.5 -55.5q-5 0 -10.5 1.5t-11.5 5.5
t-10.5 7.5t-12 10.5t-12.5 11.5t-14 14t-15 15.5l-160 160q-24 25 -33.5 34.5t-20.5 17t-20 7.5q-10 0 -23 -10.5t-44 -41.5l-3.5 -3.5l-3.5 -3.5l-159 -160q-6 -6 -15 -15.5t-14 -14t-12.5 -11.5t-12 -10.5t-10.5 -7.5t-11.5 -5.5t-10.5 -1.5q-40 0 -94 56t-54 92q0 7 3 14
t6 12t11 13.5t12.5 13l16.5 16.5l17 17l159 160l12.5 12.5l11.5 11.5l9.5 9.5l8.5 8.5t6.5 7t5 7t3.5 6t2.5 5.5t0.5 5.5q0 12 -12.5 26.5t-40.5 41.5q-5 4 -7 6l-159 160l-17 17l-16.5 16.5t-12.5 13t-11 13.5t-6 12t-3 14q0 36 54 91.5t94 55.5q5 0 10.5 -1.5t11.5 -5.5
l10.5 -7t12.5 -10.5t12 -11.5l14.5 -14.5l14.5 -14.5l159 -160q7 -7 16 -15.5t14 -13.5t11 -10.5t10 -8.5t8.5 -6t8 -4t6.5 -1t6 0.5t6.5 2.5t6 3.5t7 5t7.5 6.5l8.5 8.5l9.5 9.5l11 11l12 12l160 160l14.5 14.5l14.5 14.5t12 11.5t12.5 10.5l10.5 7t11.5 5.5t10.5 1.5
q40 0 93.5 -55.5t53.5 -91.5q0 -6 -2 -11t-6 -11.5t-6.5 -11t-10 -12l-11.5 -11.5l-14 -14z" />
    <glyph glyph-name="Oslash" unicode="&#xd8;" horiz-adv-x="1540" 
d="M1040 803l-403 -340q1 -1 5 -38.5t12 -78.5t36.5 -75.5t73.5 -34.5q34 0 64.5 14.5t54 44.5t42.5 61.5t35 81t27 86.5t22 94.5t16 88t13 83.5q1 9 2 13zM1610 1257l-84 -65q34 -66 52.5 -148.5t16.5 -140.5q0 -188 -71 -360t-191 -297.5t-287 -200t-352 -74.5
q-126 0 -248 40.5t-210 125.5l-50 -41q-2 -2 -17 -15.5t-24.5 -21.5t-24.5 -19t-27.5 -16.5t-22.5 -5.5q-21 0 -42.5 21.5t-21.5 42.5q0 9 6.5 20t15 21t22.5 22t23 19t22.5 17t15.5 12l51 40q-74 124 -74 299q0 188 71 360t191 297.5t287 200t352 74.5q133 0 262 -43.5
t203 -134.5l49 39q80 72 109 72q22 0 42.5 -21t20.5 -43q0 -9 -4 -18t-13.5 -18t-15.5 -14.5t-18.5 -15t-13.5 -10.5zM645 627l399 340q-1 29 -2.5 50t-5.5 51t-13 50.5t-22.5 40.5t-36 30.5t-51.5 10.5q-53 0 -98.5 -45t-75 -112.5t-51.5 -148.5t-32 -149t-11 -118z" />
    <glyph glyph-name="Ugrave" unicode="&#xd9;" horiz-adv-x="1628" 
d="M1579 1114l-63 -420q-14 -95 -25.5 -157.5t-36 -146t-55.5 -137.5t-82.5 -112.5t-117.5 -92t-161 -55.5t-213 -22q-103 0 -191.5 13.5t-168.5 45.5t-136 81t-89 124t-33 171q0 121 41.5 363.5t40.5 346.5q-1 38 -15 58.5t-33.5 26t-39.5 10.5t-33.5 22t-13.5 51v4
q-9 83 124 125q122 39 351 39q93 0 158.5 -10t98.5 -23t51 -34.5t21 -36t3 -37.5q0 -33 -12 -53t-30.5 -27.5t-40.5 -19t-42 -26t-35.5 -52t-20.5 -93.5q-19 -153 -32.5 -254t-17.5 -126t-7.5 -58.5t-9.5 -105.5q-19 -234 190 -234q201 0 268 187q46 122 70.5 315.5
t24.5 353.5q0 44 -16.5 67.5t-40.5 31.5t-48 15.5t-40.5 29t-16.5 61.5q0 32 13 53.5t47.5 39.5t99.5 27t163 9q71 0 126.5 -6t89.5 -13t58 -21t34.5 -22t16 -25t5.5 -20.5v-17.5q0 -41 -16 -63t-40 -30t-48.5 -16t-45.5 -33t-28 -71zM1063 1679q4 -5 15 -15.5t16.5 -17
t12.5 -16.5t10 -20t3 -21q0 -34 -24 -52.5t-58 -18.5q-51 0 -126 25t-146 64.5t-121.5 96t-50.5 111.5q0 27 21 47t53.5 29t61 12.5t54.5 3.5q22 0 58.5 -5t78.5 -14.5t71.5 -28t29.5 -42.5q0 -9 -12 -33q-9 -18 -9 -23q0 -10 8.5 -23.5t15.5 -21.5t23 -22z" />
    <glyph glyph-name="Uacute" unicode="&#xda;" horiz-adv-x="1628" 
d="M1579 1114l-63 -420q-14 -95 -25.5 -157.5t-36 -146t-55.5 -137.5t-82.5 -112.5t-117.5 -92t-161 -55.5t-213 -22q-103 0 -191.5 13.5t-168.5 45.5t-136 81t-89 124t-33 171q0 121 41.5 363.5t40.5 346.5q-1 38 -15 58.5t-33.5 26t-39.5 10.5t-33.5 22t-13.5 51v4
q-9 83 124 125q122 39 351 39q93 0 158.5 -10t98.5 -23t51 -34.5t21 -36t3 -37.5q0 -33 -12 -53t-30.5 -27.5t-40.5 -19t-42 -26t-35.5 -52t-20.5 -93.5q-19 -153 -32.5 -254t-17.5 -126t-7.5 -58.5t-9.5 -105.5q-19 -234 190 -234q201 0 268 187q46 122 70.5 315.5
t24.5 353.5q0 44 -16.5 67.5t-40.5 31.5t-48 15.5t-40.5 29t-16.5 61.5q0 32 13 53.5t47.5 39.5t99.5 27t163 9q71 0 126.5 -6t89.5 -13t58 -21t34.5 -22t16 -25t5.5 -20.5v-17.5q0 -41 -16 -63t-40 -30t-48.5 -16t-45.5 -33t-28 -71zM936 1679q61 54 61 82q0 11 -6 23
q-12 24 -12 33q0 24 29.5 42.5t71.5 28t78.5 14.5t58.5 5q26 0 54.5 -3.5t61 -12.5t53.5 -29t21 -47q0 -55 -50.5 -111.5t-121.5 -96t-146 -64.5t-126 -25q-34 0 -58 18.5t-24 52.5q0 11 2.5 21t10 20.5t11.5 15.5t16 17.5t15 15.5z" />
    <glyph glyph-name="Ucircumflex" unicode="&#xdb;" horiz-adv-x="1628" 
d="M1579 1114l-63 -420q-14 -95 -25.5 -157.5t-36 -146t-55.5 -137.5t-82.5 -112.5t-117.5 -92t-161 -55.5t-213 -22q-103 0 -191.5 13.5t-168.5 45.5t-136 81t-89 124t-33 171q0 121 41.5 363.5t40.5 346.5q-1 38 -15 58.5t-33.5 26t-39.5 10.5t-33.5 22t-13.5 51v4
q-9 83 124 125q122 39 351 39q93 0 158.5 -10t98.5 -23t51 -34.5t21 -36t3 -37.5q0 -33 -12 -53t-30.5 -27.5t-40.5 -19t-42 -26t-35.5 -52t-20.5 -93.5q-19 -153 -32.5 -254t-17.5 -126t-7.5 -58.5t-9.5 -105.5q-19 -234 190 -234q201 0 268 187q46 122 70.5 315.5
t24.5 353.5q0 44 -16.5 67.5t-40.5 31.5t-48 15.5t-40.5 29t-16.5 61.5q0 32 13 53.5t47.5 39.5t99.5 27t163 9q71 0 126.5 -6t89.5 -13t58 -21t34.5 -22t16 -25t5.5 -20.5v-17.5q0 -41 -16 -63t-40 -30t-48.5 -16t-45.5 -33t-28 -71zM934 1591q-5 -2 -49 -26.5t-78 -39
t-53 -14.5q-38 0 -66.5 25t-28.5 61q0 75 121 142q10 6 50.5 31t76 46t77.5 45t74.5 38t47.5 14q40 0 116.5 -59t138.5 -134t62 -116q0 -39 -25.5 -68t-62.5 -29q-31 0 -67 23t-63 51t-60 51t-60 23q-13 0 -28.5 -4.5t-34 -13t-31.5 -15t-32.5 -17.5t-24.5 -14z" />
    <glyph glyph-name="Udieresis" unicode="&#xdc;" horiz-adv-x="1628" 
d="M1579 1114l-63 -420q-14 -95 -25.5 -157.5t-36 -146t-55.5 -137.5t-82.5 -112.5t-117.5 -92t-161 -55.5t-213 -22q-103 0 -191.5 13.5t-168.5 45.5t-136 81t-89 124t-33 171q0 121 41.5 363.5t40.5 346.5q-1 38 -15 58.5t-33.5 26t-39.5 10.5t-33.5 22t-13.5 51v4
q-9 83 124 125q122 39 351 39q93 0 158.5 -10t98.5 -23t51 -34.5t21 -36t3 -37.5q0 -33 -12 -53t-30.5 -27.5t-40.5 -19t-42 -26t-35.5 -52t-20.5 -93.5q-19 -153 -32.5 -254t-17.5 -126t-7.5 -58.5t-9.5 -105.5q-19 -234 190 -234q201 0 268 187q46 122 70.5 315.5
t24.5 353.5q0 44 -16.5 67.5t-40.5 31.5t-48 15.5t-40.5 29t-16.5 61.5q0 32 13 53.5t47.5 39.5t99.5 27t163 9q71 0 126.5 -6t89.5 -13t58 -21t34.5 -22t16 -25t5.5 -20.5v-17.5q0 -41 -16 -63t-40 -30t-48.5 -16t-45.5 -33t-28 -71zM1374 1554q-59 0 -108 22.5t-49 74.5
q0 51 41.5 94t103 67.5t122 38t107.5 13.5q51 0 94.5 -26.5t43.5 -74.5q0 -67 -101 -135q-54 -34 -122.5 -54t-131.5 -20zM758 1554q-25 0 -49.5 4.5t-50 14.5t-41 30t-15.5 48q0 51 42 94t103 67.5t121.5 38t106.5 13.5q53 0 96 -26.5t43 -74.5q0 -68 -100 -135
q-54 -34 -123 -54t-133 -20z" />
    <glyph glyph-name="Yacute" unicode="&#xdd;" horiz-adv-x="1441" 
d="M489 825l-206 336q-22 29 -54.5 46.5t-55.5 24t-40.5 24.5t-17.5 49q0 58 44.5 89t151 44.5t305.5 13.5q109 0 170.5 -13.5t84 -38.5t22.5 -67q0 -32 -14.5 -54t-31.5 -31.5t-31.5 -23.5t-14.5 -32q0 -32 42 -115t66 -84q14 -1 54 46.5t73 99.5t33 65t-11 27t-24 25
t-24 31.5t-11 45.5q0 119 301 119q139 0 205 -25.5t66 -89.5q0 -39 -24 -60.5t-54.5 -27t-66.5 -18.5t-54 -35l-239 -295q-45 -55 -67 -87t-39 -60t-23.5 -67t-9.5 -71.5t-7 -109.5l-8 -240q-1 -28 13.5 -43.5t36 -21l43 -11t37 -21t15.5 -44.5v-3q0 -13 -1 -21t-8.5 -24
t-21.5 -27t-43.5 -24.5t-71 -21.5t-107 -14t-148.5 -6q-67 0 -106.5 1t-94.5 4t-87 11t-63.5 21t-46 34t-14.5 49q0 36 17 56.5t41.5 28.5t49.5 15t44.5 22.5t23.5 43.5l58 414q0 52 -56 141zM762 1761q61 54 61 82q0 11 -6 23q-12 24 -12 32q0 24 29.5 43t71.5 28.5
t78 14.5t58 5q26 0 54.5 -4t61.5 -13t54 -29t21 -47q0 -73 -84.5 -144.5t-187.5 -112t-173 -40.5q-34 0 -57.5 19t-23.5 53q0 11 2.5 21t10 20.5t11.5 15.5t16 17.5t15 15.5z" />
    <glyph glyph-name="Thorn" unicode="&#xde;" horiz-adv-x="1366" 
d="M750 846l-23 -187q0 -51 6 -65q9 -23 51 -23q94 0 160 39.5t66 118.5q0 89 -43 130.5t-107 41.5q-52 0 -79 -12t-31 -43zM963 1315q-3 -34 -22 -51.5t-44 -24t-50 -14.5t-42 -31.5t-17 -65.5q0 -47 31 -47q17 0 53 4.5t54 4.5q105 2 197.5 -17.5t166 -58t115.5 -103
t41 -147.5q-1 -94 -52 -166.5t-135.5 -115t-185 -64t-211.5 -21.5q-16 0 -46 2t-46 2q-43 0 -55.5 -19.5t-12.5 -66.5t14 -72t34 -31t40 -10.5t34 -22t14 -54.5q0 -78 -100 -109.5t-347 -31.5q-66 0 -119.5 3.5t-90 11t-64 15t-43.5 20t-26 21.5t-13.5 23.5t-4.5 22t-1 20.5
q0 40 19 60t42.5 24t48 19.5t33.5 45.5q47 163 90 462t43 417q0 33 -15 50t-36.5 22t-42.5 10t-36 23t-15 53q0 88 96 116.5t356 28.5q102 0 168.5 -5.5t105 -14t56 -27.5t21 -37.5t0.5 -52.5z" />
    <glyph glyph-name="germandbls" unicode="&#xdf;" horiz-adv-x="1413" 
d="M150 332l79 456q16 85 26.5 128t31.5 109t52 117.5t75 98.5q192 207 465 207q151 0 251 -62q125 -78 125 -202q0 -59 -33.5 -132t-33.5 -106q0 -31 24 -81t58 -107t67.5 -120t57.5 -138t24 -142q0 -169 -98 -262q-58 -53 -134 -81.5t-155 -28.5q-137 0 -213 84
q-59 66 -59 100q0 16 9.5 28.5t23.5 12.5q9 0 24 -6q49 -18 82 13.5t33 84.5q0 79 -47 178l-64 137q-53 112 -53 203q0 47 16.5 85t41.5 61.5t54.5 45.5t54.5 39t41.5 41t16.5 52q0 30 -19.5 53t-47.5 23q-110 0 -195 -166q-9 -18 -17.5 -38.5t-14 -36t-12 -41.5l-9.5 -38
t-8.5 -42.5t-6.5 -38t-6 -42.5t-6 -39l-33 -239l-22 -232q0 -34 12 -56t26 -31t26 -25.5t12 -40.5q0 -27 -14 -49t-32.5 -35.5t-51 -23t-56.5 -14t-62.5 -7t-54.5 -2.5h-47h-14h-50t-55 2.5t-60 7t-54 14.5t-47.5 24t-30 35.5t-12.5 49.5q0 30 10 45t37 35q5 4 15 10t13 8.5
t9 8t9 12t7 16.5q9 22 19 80z" />
    <glyph glyph-name="agrave" unicode="&#xe0;" horiz-adv-x="1290" 
d="M592 295q50 4 109 98t94.5 201t33.5 160q0 26 -9.5 46t-31.5 19q-51 -4 -110 -87.5t-96.5 -187t-36.5 -169.5q0 -20 3 -36.5t14 -31t30 -12.5zM1161 1049q44 0 65.5 -18.5t18.5 -59.5q-3 -52 -27.5 -230t-33.5 -299q-7 -108 2 -131q2 -6 5 -10.5t5 -6.5t7 -3.5t7.5 -2
t10 -1t10.5 -0.5q51 -7 51 -51q0 -62 -80.5 -123t-176 -95t-155.5 -34q-51 0 -79.5 18t-36.5 43.5t-10.5 51t-8.5 43.5t-24 18q-14 0 -37.5 -19t-54 -46t-68.5 -54.5t-92 -46.5t-113 -19q-90 0 -151.5 49.5t-86 122.5t-20.5 160q8 185 81 348.5t200 271.5t280 122
q49 5 92.5 -7t69 -29.5t52.5 -32.5t46 -15q20 0 78 32q106 54 174 54zM936 1317q4 -5 15 -15.5t16.5 -17t12.5 -16.5t10 -20t3 -21q0 -34 -24 -53t-58 -19q-51 0 -126 25t-146 64.5t-121.5 96t-50.5 111.5q0 27 21 47t53.5 29t61 12.5t54.5 3.5q22 0 58.5 -5t78.5 -14.5
t71.5 -28t29.5 -42.5q0 -9 -12 -33q-9 -18 -9 -22q0 -10 8.5 -23.5t15.5 -21.5t22 -22z" />
    <glyph glyph-name="aacute" unicode="&#xe1;" horiz-adv-x="1290" 
d="M592 295q50 4 109 98t94.5 201t33.5 160q0 26 -9.5 46t-31.5 19q-51 -4 -110 -87.5t-96.5 -187t-36.5 -169.5q0 -20 3 -36.5t14 -31t30 -12.5zM1161 1049q44 0 65.5 -18.5t18.5 -59.5q-3 -52 -27.5 -230t-33.5 -299q-7 -108 2 -131q2 -6 5 -10.5t5 -6.5t7 -3.5t7.5 -2
t10 -1t10.5 -0.5q51 -7 51 -51q0 -62 -80.5 -123t-176 -95t-155.5 -34q-51 0 -79.5 18t-36.5 43.5t-10.5 51t-8.5 43.5t-24 18q-14 0 -37.5 -19t-54 -46t-68.5 -54.5t-92 -46.5t-113 -19q-90 0 -151.5 49.5t-86 122.5t-20.5 160q8 185 81 348.5t200 271.5t280 122
q49 5 92.5 -7t69 -29.5t52.5 -32.5t46 -15q20 0 78 32q106 54 174 54zM686 1317q62 55 62 82q0 8 -7 22q-12 24 -12 33q0 24 29.5 42.5t71.5 28t78.5 14.5t58.5 5q26 0 54.5 -3.5t61 -12.5t53.5 -29t21 -47q0 -55 -50.5 -111.5t-121.5 -96t-146 -64.5t-126 -25q-34 0 -58 19
t-24 53q0 11 2.5 21t10 20.5t11.5 15.5t16 17.5t15 15.5z" />
    <glyph glyph-name="acircumflex" unicode="&#xe2;" horiz-adv-x="1290" 
d="M592 295q50 4 109 98t94.5 201t33.5 160q0 26 -9.5 46t-31.5 19q-51 -4 -110 -87.5t-96.5 -187t-36.5 -169.5q0 -20 3 -36.5t14 -31t30 -12.5zM1161 1049q44 0 65.5 -18.5t18.5 -59.5q-3 -52 -27.5 -230t-33.5 -299q-7 -108 2 -131q2 -6 5 -10.5t5 -6.5t7 -3.5t7.5 -2
t10 -1t10.5 -0.5q51 -7 51 -51q0 -62 -80.5 -123t-176 -95t-155.5 -34q-51 0 -79.5 18t-36.5 43.5t-10.5 51t-8.5 43.5t-24 18q-14 0 -37.5 -19t-54 -46t-68.5 -54.5t-92 -46.5t-113 -19q-90 0 -151.5 49.5t-86 122.5t-20.5 160q8 185 81 348.5t200 271.5t280 122
q49 5 92.5 -7t69 -29.5t52.5 -32.5t46 -15q20 0 78 32q106 54 174 54zM684 1229q-5 -2 -49 -26.5t-78 -39t-53 -14.5q-38 0 -66 25t-28 61q0 75 120 141q10 6 50.5 31t76 46t77.5 45t74.5 38t47.5 14q40 0 117 -59t139 -134t62 -116q0 -39 -25.5 -67.5t-63.5 -28.5
q-31 0 -67 23t-63 50.5t-59.5 50.5t-59.5 23q-13 0 -28.5 -4t-35.5 -13t-30.5 -14.5t-33 -18t-24.5 -13.5z" />
    <glyph glyph-name="atilde" unicode="&#xe3;" horiz-adv-x="1290" 
d="M592 295q50 4 109 98t94.5 201t33.5 160q0 26 -9.5 46t-31.5 19q-51 -4 -110 -87.5t-96.5 -187t-36.5 -169.5q0 -20 3 -36.5t14 -31t30 -12.5zM1161 1049q44 0 65.5 -18.5t18.5 -59.5q-3 -52 -27.5 -230t-33.5 -299q-7 -108 2 -131q2 -6 5 -10.5t5 -6.5t7 -3.5t7.5 -2
t10 -1t10.5 -0.5q51 -7 51 -51q0 -62 -80.5 -123t-176 -95t-155.5 -34q-51 0 -79.5 18t-36.5 43.5t-10.5 51t-8.5 43.5t-24 18q-14 0 -37.5 -19t-54 -46t-68.5 -54.5t-92 -46.5t-113 -19q-90 0 -151.5 49.5t-86 122.5t-20.5 160q8 185 81 348.5t200 271.5t280 122
q49 5 92.5 -7t69 -29.5t52.5 -32.5t46 -15q20 0 78 32q106 54 174 54zM979 1430q4 47 41 69.5t88 22.5q127 0 127 -117q0 -98 -60 -168t-157 -70q-51 0 -136.5 32.5t-163 65.5t-110.5 33q-9 0 -14 -6t-5.5 -10t-2.5 -18q0 -39 -10 -53q-4 -6 -11 -11q-29 -26 -84 -26
q-59 0 -93 27t-34 83q0 109 63.5 172.5t172.5 63.5q68 0 148.5 -30t141.5 -59.5t81 -29.5q18 0 18 29z" />
    <glyph glyph-name="adieresis" unicode="&#xe4;" horiz-adv-x="1290" 
d="M592 295q50 4 109 98t94.5 201t33.5 160q0 26 -9.5 46t-31.5 19q-51 -4 -110 -87.5t-96.5 -187t-36.5 -169.5q0 -20 3 -36.5t14 -31t30 -12.5zM1161 1049q44 0 65.5 -18.5t18.5 -59.5q-3 -52 -27.5 -230t-33.5 -299q-7 -108 2 -131q2 -6 5 -10.5t5 -6.5t7 -3.5t7.5 -2
t10 -1t10.5 -0.5q51 -7 51 -51q0 -62 -80.5 -123t-176 -95t-155.5 -34q-51 0 -79.5 18t-36.5 43.5t-10.5 51t-8.5 43.5t-24 18q-14 0 -37.5 -19t-54 -46t-68.5 -54.5t-92 -46.5t-113 -19q-90 0 -151.5 49.5t-86 122.5t-20.5 160q8 185 81 348.5t200 271.5t280 122
q49 5 92.5 -7t69 -29.5t52.5 -32.5t46 -15q20 0 78 32q106 54 174 54zM1040 1192q-26 0 -51 4.5t-50 14t-40.5 29.5t-15.5 48q0 51 41.5 94t103 67.5t122 38t107.5 13.5q51 0 94.5 -26t43.5 -74q0 -67 -101 -135q-54 -34 -122.5 -54t-131.5 -20zM424 1192q-35 0 -67.5 7
t-60.5 30t-28 59q0 51 42 94t103 67.5t121.5 38t106.5 13.5q53 0 96 -26t43 -74q0 -68 -100 -135q-54 -34 -123 -54t-133 -20z" />
    <glyph glyph-name="aring" unicode="&#xe5;" horiz-adv-x="1290" 
d="M592 295q50 4 109 98t94.5 201t33.5 160q0 26 -9.5 46t-31.5 19q-51 -4 -110 -87.5t-96.5 -187t-36.5 -169.5q0 -20 3 -36.5t14 -31t30 -12.5zM1161 1049q44 0 65.5 -18.5t18.5 -59.5q-3 -52 -27.5 -230t-33.5 -299q-7 -108 2 -131q2 -6 5 -10.5t5 -6.5t7 -3.5t7.5 -2
t10 -1t10.5 -0.5q51 -7 51 -51q0 -62 -80.5 -123t-176 -95t-155.5 -34q-51 0 -79.5 18t-36.5 43.5t-10.5 51t-8.5 43.5t-24 18q-14 0 -37.5 -19t-54 -46t-68.5 -54.5t-92 -46.5t-113 -19q-90 0 -151.5 49.5t-86 122.5t-20.5 160q8 185 81 348.5t200 271.5t280 122
q49 5 92.5 -7t69 -29.5t52.5 -32.5t46 -15q20 0 78 32q106 54 174 54zM874 1567q44 0 82.5 -5t78 -18.5t67.5 -35.5t45.5 -58.5t17.5 -83.5q0 -65 -27.5 -112.5t-74.5 -73.5t-100.5 -38t-114.5 -12q-309 0 -309 203q0 50 22.5 95.5t61.5 74.5q87 64 251 64zM872 1470
q-57 0 -88.5 -41t-31.5 -100q0 -39 26 -63.5t66 -24.5q58 0 89.5 38.5t31.5 98.5q0 43 -25 67.5t-68 24.5z" />
    <glyph glyph-name="ae" unicode="&#xe6;" horiz-adv-x="1822" 
d="M1307 543q34 0 70 51.5t56.5 110t20.5 90.5q0 61 -51 61q-39 0 -72 -49.5t-49 -105t-16 -91.5q0 -67 41 -67zM1851 815q0 -90 -47 -173t-120.5 -140.5t-164 -92t-176.5 -34.5q-16 0 -25.5 -1t-24 -4.5t-22 -13t-7.5 -24.5q0 -41 40.5 -66.5t84.5 -25.5q63 0 130 29
t118.5 58t76.5 29q32 0 57 -27.5t25 -58.5q0 -38 -21 -72.5t-60 -62.5t-68 -44t-72 -36q-185 -82 -354 -82q-121 0 -199.5 32t-153.5 116q-2 2 -16.5 19.5t-24 27.5t-24 20.5t-25.5 10.5q-15 0 -44.5 -23.5t-67.5 -56.5t-83 -66t-105 -56.5t-120 -23.5q-90 0 -151.5 49.5
t-86 122.5t-20.5 160q8 185 81 348.5t200.5 271.5t280.5 122q49 5 92.5 -7t69 -29.5t52.5 -32.5t46 -15q30 3 114 49.5t125 46.5q26 0 41.5 -10t19.5 -22t11 -22t18 -10q7 0 15 4q154 60 299 60q123 0 204.5 -61.5t81.5 -182.5zM604 295q50 4 109 97.5t95 201t34 160.5
q0 26 -9.5 46t-31.5 19q-51 -4 -110.5 -87.5t-97 -187t-36.5 -169.5q0 -20 3 -36.5t14 -31t30 -12.5z" />
    <glyph glyph-name="ccedilla" unicode="&#xe7;" horiz-adv-x="1126" 
d="M891 311q4 2 22.5 13.5t26.5 15.5t23 9t28 5q36 0 58 -36.5t22 -75.5q0 -81 -149 -162q-165 -92 -330 -103q4 -8 19.5 -35.5t21 -37.5t19 -35t19.5 -37.5t16.5 -33.5t15 -34t10.5 -29.5t8 -29.5t2 -24q0 -34 -20.5 -59t-53.5 -37t-65 -17.5t-64 -5.5q-37 0 -72.5 8
t-66.5 33t-31 63t33.5 62.5t73.5 31.5q36 6 47.5 14t11.5 27q0 34 -61 176q-171 14 -273 109.5t-102 273.5q0 139 59.5 268.5t157.5 223.5t229 150.5t269 56.5q64 0 123 -16.5t108.5 -48.5t80 -85.5t32.5 -122.5q3 -97 -70.5 -174t-169.5 -77q-56 0 -103.5 33.5t-47.5 88.5
q0 30 17 76.5t17 61.5t-11 25.5t-26 10.5q-44 1 -79 -51.5t-52 -125.5t-25 -140t-5 -106q0 -168 100 -168q86 0 207 71z" />
    <glyph glyph-name="egrave" unicode="&#xe8;" horiz-adv-x="1157" 
d="M868 1059q86 0 150.5 -22.5t106.5 -79t42 -142.5q0 -90 -47 -173t-120.5 -140.5t-164 -92t-176.5 -34.5q-16 0 -25.5 -1t-24 -4.5t-22 -13t-7.5 -24.5q0 -41 40.5 -66.5t84.5 -25.5q63 0 130 29t118.5 58t76.5 29q32 0 57 -27.5t25 -58.5q0 -38 -21 -72.5t-60 -62.5
t-68 -44t-72 -36q-185 -82 -354 -82q-97 0 -179 22t-146.5 66.5t-100 120t-31.5 174.5q7 154 78.5 288.5t182.5 223.5t249 140t278 51zM717 856q-39 0 -73.5 -51t-51.5 -109.5t-17 -95.5q0 -57 37 -57q28 0 65.5 41.5t63.5 101.5t23 107q-2 25 -13.5 44t-33.5 19zM827 1317
q3 -3 18.5 -19t21 -22.5t12 -20.5t6.5 -28q0 -34 -24 -53t-58 -19q-70 0 -173 40.5t-187.5 112t-84.5 144.5q0 27 21 47t54 29t61.5 12.5t54.5 3.5q22 0 58 -5t78 -14.5t71.5 -28t29.5 -42.5q0 -9 -12 -33q-8 -16 -8 -22q0 -8 4.5 -17.5t13 -19.5t15 -17t16.5 -16.5
t12 -11.5z" />
    <glyph glyph-name="eacute" unicode="&#xe9;" horiz-adv-x="1157" 
d="M868 1059q86 0 150.5 -22.5t106.5 -79t42 -142.5q0 -90 -47 -173t-120.5 -140.5t-164 -92t-176.5 -34.5q-16 0 -25.5 -1t-24 -4.5t-22 -13t-7.5 -24.5q0 -41 40.5 -66.5t84.5 -25.5q63 0 130 29t118.5 58t76.5 29q32 0 57 -27.5t25 -58.5q0 -38 -21 -72.5t-60 -62.5
t-68 -44t-72 -36q-185 -82 -354 -82q-97 0 -179 22t-146.5 66.5t-100 120t-31.5 174.5q7 154 78.5 288.5t182.5 223.5t249 140t278 51zM717 856q-39 0 -73.5 -51t-51.5 -109.5t-17 -95.5q0 -57 37 -57q28 0 65.5 41.5t63.5 101.5t23 107q-2 25 -13.5 44t-33.5 19zM618 1317
q62 55 62 82q0 10 -6 22q-12 24 -12 33q0 24 29.5 42.5t71.5 28t78 14.5t58 5q26 0 54.5 -3.5t61.5 -12.5t54 -29t21 -47q0 -73 -84.5 -144.5t-187.5 -112t-173 -40.5q-34 0 -58 19t-24 53q0 11 2.5 21t10 20.5t11.5 15.5t16 17.5t15 15.5z" />
    <glyph glyph-name="ecircumflex" unicode="&#xea;" horiz-adv-x="1157" 
d="M868 1059q86 0 150.5 -22.5t106.5 -79t42 -142.5q0 -90 -47 -173t-120.5 -140.5t-164 -92t-176.5 -34.5q-16 0 -25.5 -1t-24 -4.5t-22 -13t-7.5 -24.5q0 -41 40.5 -66.5t84.5 -25.5q63 0 130 29t118.5 58t76.5 29q32 0 57 -27.5t25 -58.5q0 -38 -21 -72.5t-60 -62.5
t-68 -44t-72 -36q-185 -82 -354 -82q-97 0 -179 22t-146.5 66.5t-100 120t-31.5 174.5q7 154 78.5 288.5t182.5 223.5t249 140t278 51zM717 856q-39 0 -73.5 -51t-51.5 -109.5t-17 -95.5q0 -57 37 -57q28 0 65.5 41.5t63.5 101.5t23 107q-2 25 -13.5 44t-33.5 19zM616 1229
q-5 -2 -49 -26.5t-78 -39t-53 -14.5q-38 0 -66 25t-28 61q0 74 121 141q10 6 50 31t76 46t77.5 45t74 38t47.5 14q40 0 117 -59t139 -134t62 -116q0 -39 -25 -67.5t-63 -28.5q-31 0 -67 23t-63 50.5t-60 50.5t-60 23q-13 0 -28.5 -4t-35.5 -13t-30.5 -14.5t-33 -18
t-24.5 -13.5z" />
    <glyph glyph-name="edieresis" unicode="&#xeb;" horiz-adv-x="1157" 
d="M868 1059q86 0 150.5 -22.5t106.5 -79t42 -142.5q0 -90 -47 -173t-120.5 -140.5t-164 -92t-176.5 -34.5q-16 0 -25.5 -1t-24 -4.5t-22 -13t-7.5 -24.5q0 -41 40.5 -66.5t84.5 -25.5q63 0 130 29t118.5 58t76.5 29q32 0 57 -27.5t25 -58.5q0 -38 -21 -72.5t-60 -62.5
t-68 -44t-72 -36q-185 -82 -354 -82q-97 0 -179 22t-146.5 66.5t-100 120t-31.5 174.5q7 154 78.5 288.5t182.5 223.5t249 140t278 51zM717 856q-39 0 -73.5 -51t-51.5 -109.5t-17 -95.5q0 -57 37 -57q28 0 65.5 41.5t63.5 101.5t23 107q-2 25 -13.5 44t-33.5 19zM975 1192
q-36 0 -69 7t-61 30t-28 59q0 51 42 94t103 67.5t122 38t108 13.5q51 0 94 -26t43 -74q0 -68 -100 -135q-54 -34 -122.5 -54t-131.5 -20zM358 1192q-25 0 -49.5 4.5t-49.5 14t-40.5 29.5t-15.5 48q0 51 41.5 94t102.5 67.5t121.5 38t106.5 13.5q53 0 96.5 -26t43.5 -74
q0 -67 -101 -135q-54 -34 -123 -54t-133 -20z" />
    <glyph glyph-name="igrave" unicode="&#xec;" horiz-adv-x="757" 
d="M676 600l-25 -164q-16 -108 -16 -110q0 -19 8 -27.5t17 -10t30 -1.5q24 0 36 -2t22 -14t10 -35q0 -35 -22 -67.5t-46 -50.5t-61 -40q-154 -92 -312 -92q-64 0 -114.5 36t-50.5 97q0 36 12 114l53 349q16 108 16 110q0 25 -9 34t-34 9q-2 0 -12.5 -0.5t-15.5 0t-12.5 2.5
t-12.5 6q-26 23 -26 64q0 31 14 56.5t43 45t48.5 29.5t55.5 25q79 34 181.5 60t175.5 26q92 0 92 -95q0 -31 -5.5 -83t-11 -88.5t-16 -104t-12.5 -78.5zM629 1317q4 -5 15 -15.5t16.5 -17t12.5 -16.5t10 -20t3 -21q0 -34 -24 -53t-58 -19q-51 0 -126 25t-146 64.5t-121.5 96
t-50.5 111.5q0 27 21 47t53.5 29t61 12.5t54.5 3.5q22 0 58.5 -5t78.5 -14.5t71.5 -28t29.5 -42.5q0 -7 -13 -33q-8 -16 -8 -22q0 -10 8.5 -23.5t15.5 -21.5t23 -22z" />
    <glyph glyph-name="iacute" unicode="&#xed;" horiz-adv-x="757" 
d="M676 600l-25 -164q-16 -108 -16 -110q0 -19 8 -27.5t17 -10t30 -1.5q24 0 36 -2t22 -14t10 -35q0 -35 -22 -67.5t-46 -50.5t-61 -40q-154 -92 -312 -92q-64 0 -114.5 36t-50.5 97q0 36 12 114l53 349q16 108 16 110q0 25 -9 34t-34 9q-2 0 -12.5 -0.5t-15.5 0t-12.5 2.5
t-12.5 6q-26 23 -26 64q0 31 14 56.5t43 45t48.5 29.5t55.5 25q79 34 181.5 60t175.5 26q92 0 92 -95q0 -31 -5.5 -83t-11 -88.5t-16 -104t-12.5 -78.5zM379 1317q61 54 61 82q0 10 -6 22q-12 24 -12 33q0 24 29.5 42.5t71.5 28t78 14.5t58 5q26 0 54.5 -3.5t61.5 -12.5
t54 -29t21 -47q0 -55 -50.5 -111.5t-121.5 -96t-146 -64.5t-126 -25q-34 0 -58 19t-24 53q0 11 2.5 21t10 20.5t11.5 15.5t16 17.5t15 15.5z" />
    <glyph glyph-name="icircumflex" unicode="&#xee;" horiz-adv-x="757" 
d="M676 600l-25 -164q-16 -108 -16 -110q0 -19 8 -27.5t17 -10t30 -1.5q24 0 36 -2t22 -14t10 -35q0 -35 -22 -67.5t-46 -50.5t-61 -40q-154 -92 -312 -92q-64 0 -114.5 36t-50.5 97q0 36 12 114l53 349q16 108 16 110q0 25 -9 34t-34 9q-2 0 -12.5 -0.5t-15.5 0t-12.5 2.5
t-12.5 6q-26 23 -26 64q0 31 14 56.5t43 45t48.5 29.5t55.5 25q79 34 181.5 60t175.5 26q92 0 92 -95q0 -31 -5.5 -83t-11 -88.5t-16 -104t-12.5 -78.5zM418 1229q-5 -2 -49 -26.5t-78 -39t-53 -14.5q-38 0 -66.5 25t-28.5 61q0 74 121 141q10 6 50.5 31t76 46t77.5 45
t74.5 38t47.5 14q40 0 116.5 -59t138.5 -134t62 -116q0 -39 -25 -67.5t-63 -28.5q-31 0 -67 23t-63 50.5t-60 50.5t-60 23q-13 0 -28.5 -4t-34.5 -13t-30.5 -14.5t-33 -17.5t-24.5 -14z" />
    <glyph glyph-name="idieresis" unicode="&#xef;" horiz-adv-x="757" 
d="M676 600l-25 -164q-16 -108 -16 -110q0 -19 8 -27.5t17 -10t30 -1.5q24 0 36 -2t22 -14t10 -35q0 -35 -22 -67.5t-46 -50.5t-61 -40q-154 -92 -312 -92q-64 0 -114.5 36t-50.5 97q0 36 12 114l53 349q16 108 16 110q0 25 -9 34t-34 9q-2 0 -12.5 -0.5t-15.5 0t-12.5 2.5
t-12.5 6q-26 23 -26 64q0 31 14 56.5t43 45t48.5 29.5t55.5 25q79 34 181.5 60t175.5 26q92 0 92 -95q0 -31 -5.5 -83t-11 -88.5t-16 -104t-12.5 -78.5zM774 1192q-36 0 -69 7t-61 30t-28 59q0 51 42 94t103 67.5t122 38t108 13.5q51 0 94 -26t43 -74q0 -68 -100 -135
q-54 -34 -122.5 -54t-131.5 -20zM158 1192q-35 0 -67.5 7t-60.5 30t-28 59q0 51 42 94t103 67.5t121.5 38t106.5 13.5q53 0 96 -26t43 -74q0 -68 -100 -135q-54 -34 -123 -54t-133 -20z" />
    <glyph glyph-name="eth" unicode="&#xf0;" horiz-adv-x="1251" 
d="M647 190q28 0 48.5 15t34 49t18 51t11.5 56q2 10 3 14q49 255 49 366q0 101 -68 101q-14 0 -26 -4t-22 -13.5t-18 -18.5t-15 -25t-11.5 -26.5t-9.5 -29.5t-7 -27.5t-6 -27.5t-5 -23q-41 -198 -41 -362q0 -95 65 -95zM96 387q0 167 28.5 286t85 189.5t132.5 102.5t178 32
q74 0 111 -6q63 -10 71 -10q25 0 25 31q0 11 -12 30.5t-27.5 40.5t-19.5 29q-13 23 -41 23q-9 0 -21.5 -3t-21 -6t-27.5 -10t-27 -10q-78 -31 -110 -31q-24 0 -68 49q-12 14 -12 35q0 18 109 58q4 1 13 4.5t15.5 6t15.5 6t15 6.5t12 7t9 7.5t3 7.5q0 14 -23.5 40t-23.5 46
q0 39 117.5 77.5t171.5 38.5q12 0 24 -2t21 -4.5t20.5 -8t17.5 -8.5t16 -10t13 -9.5t13 -10.5l10 -8q12 -10 31 -10q14 0 31 10l116 55q44 19 64 19q13 0 38 -19t36 -37q18 -30 18 -43q0 -10 -31 -22l-73 -35q-7 -4 -17 -9t-15.5 -8t-12.5 -6.5t-10 -6t-6.5 -6t-5 -6
t-1.5 -5.5q0 -8 5 -14.5t19 -18.5t23 -22q168 -181 164 -568q-2 -130 -54.5 -257.5t-142.5 -219.5q-96 -99 -228 -150t-275 -51q-103 0 -189 24t-153.5 72.5t-105.5 129.5t-38 188z" />
    <glyph glyph-name="ntilde" unicode="&#xf1;" horiz-adv-x="1368" 
d="M844 467l24 182q0 29 -14.5 47.5t-42.5 18.5q-22 0 -41.5 -8t-35 -26t-28 -35.5t-23 -49t-18 -52t-14.5 -59t-10.5 -56.5t-8 -57.5t-5.5 -49t-4 -43.5q-6 -72 -17 -116t-31.5 -79.5t-57.5 -54t-89.5 -29t-134.5 -14.5q-65 -3 -107.5 20.5t-42.5 85.5q0 38 45.5 263
t42.5 325q0 65 -57 65h-20q-58 0 -58 66q0 65 105 123q67 40 184 76.5t188 36.5q42 0 64.5 -28.5t26 -62t13.5 -62t30 -28.5q16 0 59 28.5t91.5 63t117 63t129.5 28.5q95 0 164 -53.5t69 -145.5q0 -75 -35.5 -265.5t-35.5 -250.5q0 -27 15.5 -40.5t33.5 -16t33.5 -15
t15.5 -39.5q0 -53 -49.5 -100t-120 -75.5t-140 -45t-116.5 -16.5q-69 0 -108 34.5t-39 102.5q0 46 9 105.5t24 131.5t20 107zM1018 1430q4 47 41 69.5t88 22.5q127 0 127 -117q0 -98 -60 -168t-157 -70q-51 0 -136.5 32.5t-163 65.5t-110.5 33q-9 0 -14 -6t-5.5 -10
t-2.5 -18q0 -39 -10 -53q-4 -6 -11 -11q-29 -26 -84 -26q-59 0 -93 27t-34 83q0 109 63.5 172.5t172.5 63.5q68 0 148 -30t141 -59.5t81 -29.5q19 0 19 29z" />
    <glyph glyph-name="ograve" unicode="&#xf2;" horiz-adv-x="1251" 
d="M555 -27q-131 0 -235 44.5t-168 138t-64 223.5q0 192 92.5 348.5t252 244t351.5 87.5q131 0 235 -44.5t168 -138t64 -223.5q0 -192 -92.5 -348.5t-252 -244t-351.5 -87.5zM717 842q-14 0 -26 -4t-22.5 -14t-18 -18t-15 -25t-11.5 -26t-9.5 -30t-7.5 -27.5t-6.5 -28
t-4.5 -22.5q-41 -198 -41 -362q0 -95 66 -95q14 0 26 4t21.5 13t17 17t14.5 24t11 24.5t8.5 28l6 26t5.5 26.5t4 22q49 255 49 366q0 101 -67 101zM915 1317q3 -3 18.5 -19t21 -22.5t12 -20.5t6.5 -28q0 -34 -24 -53t-58 -19q-70 0 -173 40.5t-187.5 112t-84.5 144.5
q0 27 21 47t54 29t61.5 12.5t54.5 3.5q22 0 58 -5t78 -14.5t71.5 -28t29.5 -42.5q0 -9 -12 -33q-8 -16 -8 -22q0 -8 4.5 -17.5t13 -19.5t15 -17t16.5 -16.5t12 -11.5z" />
    <glyph glyph-name="oacute" unicode="&#xf3;" horiz-adv-x="1251" 
d="M555 -27q-131 0 -235 44.5t-168 138t-64 223.5q0 192 92.5 348.5t252 244t351.5 87.5q131 0 235 -44.5t168 -138t64 -223.5q0 -192 -92.5 -348.5t-252 -244t-351.5 -87.5zM717 842q-14 0 -26 -4t-22.5 -14t-18 -18t-15 -25t-11.5 -26t-9.5 -30t-7.5 -27.5t-6.5 -28
t-4.5 -22.5q-41 -198 -41 -362q0 -95 66 -95q14 0 26 4t21.5 13t17 17t14.5 24t11 24.5t8.5 28l6 26t5.5 26.5t4 22q49 255 49 366q0 101 -67 101zM625 1317q61 54 61 82q0 10 -6 22q-12 24 -12 33q0 24 29.5 42.5t71.5 28t78 14.5t58 5q26 0 54.5 -3.5t61.5 -12.5t54 -29
t21 -47q0 -73 -84.5 -144.5t-187.5 -112t-173 -40.5q-34 0 -58 19t-24 53q0 11 3 21t10 20.5t12 16t16 17t15 15.5z" />
    <glyph glyph-name="ocircumflex" unicode="&#xf4;" horiz-adv-x="1251" 
d="M555 -27q-131 0 -235 44.5t-168 138t-64 223.5q0 192 92.5 348.5t252 244t351.5 87.5q131 0 235 -44.5t168 -138t64 -223.5q0 -192 -92.5 -348.5t-252 -244t-351.5 -87.5zM717 842q-14 0 -26 -4t-22.5 -14t-18 -18t-15 -25t-11.5 -26t-9.5 -30t-7.5 -27.5t-6.5 -28
t-4.5 -22.5q-41 -198 -41 -362q0 -95 66 -95q14 0 26 4t21.5 13t17 17t14.5 24t11 24.5t8.5 28l6 26t5.5 26.5t4 22q49 255 49 366q0 101 -67 101zM664 1229q-4 -2 -49 -26.5t-79 -39t-53 -14.5q-38 0 -66 25t-28 61q0 74 121 141q10 6 50.5 31t76 46t77.5 45t74.5 38
t47.5 14q40 0 116.5 -59t138.5 -134t62 -116q0 -39 -25 -67.5t-63 -28.5q-31 0 -67 23t-63 50.5t-60 50.5t-60 23q-13 0 -28.5 -4t-34.5 -13t-30.5 -14.5t-33 -17.5t-24.5 -14z" />
    <glyph glyph-name="otilde" unicode="&#xf5;" horiz-adv-x="1251" 
d="M555 -27q-131 0 -235 44.5t-168 138t-64 223.5q0 192 92.5 348.5t252 244t351.5 87.5q131 0 235 -44.5t168 -138t64 -223.5q0 -192 -92.5 -348.5t-252 -244t-351.5 -87.5zM717 842q-14 0 -26 -4t-22.5 -14t-18 -18t-15 -25t-11.5 -26t-9.5 -30t-7.5 -27.5t-6.5 -28
t-4.5 -22.5q-41 -198 -41 -362q0 -95 66 -95q14 0 26 4t21.5 13t17 17t14.5 24t11 24.5t8.5 28l6 26t5.5 26.5t4 22q49 255 49 366q0 101 -67 101zM961 1430q4 47 41 69.5t88 22.5q127 0 127 -117q0 -97 -60.5 -167.5t-157.5 -70.5q-51 0 -136 32.5t-162.5 65.5t-110.5 33
q-9 0 -14.5 -5.5t-6.5 -11t-2 -17.5v-8.5v-8v-7t-0.5 -7.5t-1.5 -7t-2.5 -7t-3.5 -6.5t-5 -6.5t-7 -6q-29 -26 -84 -26q-59 0 -93 27t-34 83q0 109 63 172.5t172 63.5q68 0 148.5 -30t141.5 -59.5t81 -29.5q19 0 19 29z" />
    <glyph glyph-name="odieresis" unicode="&#xf6;" horiz-adv-x="1251" 
d="M555 -27q-131 0 -235 44.5t-168 138t-64 223.5q0 192 92.5 348.5t252 244t351.5 87.5q131 0 235 -44.5t168 -138t64 -223.5q0 -192 -92.5 -348.5t-252 -244t-351.5 -87.5zM717 842q-14 0 -26 -4t-22.5 -14t-18 -18t-15 -25t-11.5 -26t-9.5 -30t-7.5 -27.5t-6.5 -28
t-4.5 -22.5q-41 -198 -41 -362q0 -95 66 -95q14 0 26 4t21.5 13t17 17t14.5 24t11 24.5t8.5 28l6 26t5.5 26.5t4 22q49 255 49 366q0 101 -67 101zM1022 1192q-36 0 -69 7t-61 30t-28 59q0 51 42 94t103 67.5t122 38t108 13.5q51 0 94 -26t43 -74q0 -68 -100 -135
q-54 -34 -122.5 -54t-131.5 -20zM406 1192q-35 0 -67.5 7t-60.5 30t-28 59q0 51 42 94t103 67.5t121.5 38t106.5 13.5q53 0 96 -26t43 -74q0 -68 -100 -135q-54 -34 -123 -54t-133 -20z" />
    <glyph glyph-name="divide" unicode="&#xf7;" 
d="M1008 406h-725h-20q-36 0 -51.5 1.5t-33 12.5t-23 35.5t-5.5 68.5t5.5 69t23.5 36t33 12.5t52 1.5h19h725q72 0 89 -5q36 -13 42 -74q2 -17 2 -40q0 -44 -5.5 -68.5t-23 -35.5t-32.5 -12.5t-52 -1.5h-20zM645 336q63 0 108.5 -45.5t45.5 -108.5t-45.5 -108t-108.5 -45
t-108 45t-45 108t45 108.5t108 45.5zM645 1020q63 0 108.5 -45.5t45.5 -108.5t-45.5 -108t-108.5 -45t-108 45t-45 108t45 108.5t108 45.5z" />
    <glyph glyph-name="oslash" unicode="&#xf8;" horiz-adv-x="1251" 
d="M1262 874l-56 -34q22 -31 33.5 -86t11.5 -101q0 -192 -92.5 -348.5t-252 -244t-351.5 -87.5q-90 0 -192 31t-166 98l-31 -24q-5 -3 -28 -20.5t-43 -28.5t-34 -11q-22 0 -38.5 19.5t-16.5 42.5q0 6 2 11.5t6 11.5t7.5 10.5t10.5 10.5t11 9.5t12.5 9.5t11.5 8t11.5 7.5
t9.5 5.5l43 31q-43 92 -43 184q0 192 92.5 348.5t252 244t351.5 87.5q220 0 365 -129l86 67q35 27 55 27q21 0 37 -20.5t16 -40.5q0 -6 -2.5 -13t-6 -13t-10.5 -13t-12 -11.5t-14 -11.5t-13 -10t-13 -9.5t-10 -7.5zM578 514l204 168q0 9 1 27.5t1 31t-1 29.5t-5 28.5t-11 22
t-20 16t-30 5.5q-31 0 -55 -25t-38.5 -69.5t-23.5 -82.5t-17 -87t-10 -60zM760 516l-205 -160q0 -7 -0.5 -35t1 -45.5t7 -40t20.5 -34t38 -11.5q13 0 24 4t19 8.5t16.5 15.5t12.5 16.5t10.5 21.5t8 20t7.5 22t6 19z" />
    <glyph glyph-name="ugrave" unicode="&#xf9;" horiz-adv-x="1394" 
d="M1346 858l-70 -395q-12 -62 -12 -94q0 -62 63 -62q25 -1 32.5 -2t20 -5.5t16 -16t3.5 -31.5q0 -56 -55 -108t-132 -85t-154 -53t-126 -20q-36 0 -57.5 18.5t-28.5 45.5t-11.5 54t-14 45.5t-29.5 18.5q-13 0 -57 -29.5t-96 -64.5t-129.5 -63t-150.5 -25q-86 3 -132.5 57
t-49.5 154q-2 66 26.5 223.5t33.5 200.5q1 5 2.5 19.5t2 19t1 16.5t-1.5 16.5t-5.5 12.5t-9.5 11.5t-15.5 7.5t-21.5 5q-26 3 -41.5 6.5t-30 18t-14.5 39.5q0 86 177 170q179 84 329 84q57 0 81 -29t24 -88q0 -36 -10 -101.5t-28 -161t-22 -118.5q0 -2 -4 -20.5t-6.5 -37
t-5.5 -44t-2 -47t5.5 -40.5t16 -30t29.5 -11q73 0 135 132q27 63 43.5 152t22 156t23 129.5t48.5 88.5q39 35 124 53.5t155 18.5q119 0 119 -88q0 -16 -4.5 -55.5t-5.5 -47.5zM946 1317q3 -3 18.5 -19t21 -22.5t12 -20.5t6.5 -28q0 -34 -24 -53t-58 -19q-70 0 -173 40.5
t-187.5 112t-84.5 144.5q0 27 21 47t54 29t61.5 12.5t54.5 3.5q22 0 58 -5t78 -14.5t71.5 -28t29.5 -42.5q0 -9 -12 -33q-8 -16 -8 -22q0 -8 4.5 -17.5t13 -19.5t15 -17t16.5 -16.5t12 -11.5z" />
    <glyph glyph-name="uacute" unicode="&#xfa;" horiz-adv-x="1394" 
d="M1346 858l-70 -395q-12 -62 -12 -94q0 -62 63 -62q25 -1 32.5 -2t20 -5.5t16 -16t3.5 -31.5q0 -56 -55 -108t-132 -85t-154 -53t-126 -20q-36 0 -57.5 18.5t-28.5 45.5t-11.5 54t-14 45.5t-29.5 18.5q-13 0 -57 -29.5t-96 -64.5t-129.5 -63t-150.5 -25q-86 3 -132.5 57
t-49.5 154q-2 66 26.5 223.5t33.5 200.5q1 5 2.5 19.5t2 19t1 16.5t-1.5 16.5t-5.5 12.5t-9.5 11.5t-15.5 7.5t-21.5 5q-26 3 -41.5 6.5t-30 18t-14.5 39.5q0 86 177 170q179 84 329 84q57 0 81 -29t24 -88q0 -36 -10 -101.5t-28 -161t-22 -118.5q0 -2 -4 -20.5t-6.5 -37
t-5.5 -44t-2 -47t5.5 -40.5t16 -30t29.5 -11q73 0 135 132q27 63 43.5 152t22 156t23 129.5t48.5 88.5q39 35 124 53.5t155 18.5q119 0 119 -88q0 -16 -4.5 -55.5t-5.5 -47.5zM696 1317q62 55 62 82q0 10 -6 22q-13 26 -13 33q0 24 29.5 42.5t71.5 28t78.5 14.5t58.5 5
q26 0 54.5 -3.5t61 -12.5t53.5 -29t21 -47q0 -55 -50.5 -111.5t-121.5 -96t-146 -64.5t-126 -25q-34 0 -58 19t-24 53q0 11 2.5 21t10 20.5t11.5 15.5t16 17.5t15 15.5z" />
    <glyph glyph-name="ucircumflex" unicode="&#xfb;" horiz-adv-x="1394" 
d="M1346 858l-70 -395q-12 -62 -12 -94q0 -62 63 -62q25 -1 32.5 -2t20 -5.5t16 -16t3.5 -31.5q0 -56 -55 -108t-132 -85t-154 -53t-126 -20q-36 0 -57.5 18.5t-28.5 45.5t-11.5 54t-14 45.5t-29.5 18.5q-13 0 -57 -29.5t-96 -64.5t-129.5 -63t-150.5 -25q-86 3 -132.5 57
t-49.5 154q-2 66 26.5 223.5t33.5 200.5q1 5 2.5 19.5t2 19t1 16.5t-1.5 16.5t-5.5 12.5t-9.5 11.5t-15.5 7.5t-21.5 5q-26 3 -41.5 6.5t-30 18t-14.5 39.5q0 86 177 170q179 84 329 84q57 0 81 -29t24 -88q0 -36 -10 -101.5t-28 -161t-22 -118.5q0 -2 -4 -20.5t-6.5 -37
t-5.5 -44t-2 -47t5.5 -40.5t16 -30t29.5 -11q73 0 135 132q27 63 43.5 152t22 156t23 129.5t48.5 88.5q39 35 124 53.5t155 18.5q119 0 119 -88q0 -16 -4.5 -55.5t-5.5 -47.5zM735 1229q-5 -2 -49 -26.5t-78 -39t-53 -14.5q-38 0 -66 25t-28 61q0 74 121 141q10 6 50 31
t76 46t77.5 45t74 38t47.5 14q40 0 117 -59t139 -134t62 -116q0 -39 -25 -67.5t-63 -28.5q-31 0 -67 23t-63 50.5t-60 50.5t-60 23q-13 0 -28.5 -4t-35.5 -13t-30.5 -14.5t-33 -18t-24.5 -13.5z" />
    <glyph glyph-name="udieresis" unicode="&#xfc;" horiz-adv-x="1394" 
d="M1346 858l-70 -395q-12 -62 -12 -94q0 -62 63 -62q25 -1 32.5 -2t20 -5.5t16 -16t3.5 -31.5q0 -56 -55 -108t-132 -85t-154 -53t-126 -20q-36 0 -57.5 18.5t-28.5 45.5t-11.5 54t-14 45.5t-29.5 18.5q-13 0 -57 -29.5t-96 -64.5t-129.5 -63t-150.5 -25q-86 3 -132.5 57
t-49.5 154q-2 66 26.5 223.5t33.5 200.5q1 5 2.5 19.5t2 19t1 16.5t-1.5 16.5t-5.5 12.5t-9.5 11.5t-15.5 7.5t-21.5 5q-26 3 -41.5 6.5t-30 18t-14.5 39.5q0 86 177 170q179 84 329 84q57 0 81 -29t24 -88q0 -36 -10 -101.5t-28 -161t-22 -118.5q0 -2 -4 -20.5t-6.5 -37
t-5.5 -44t-2 -47t5.5 -40.5t16 -30t29.5 -11q73 0 135 132q27 63 43.5 152t22 156t23 129.5t48.5 88.5q39 35 124 53.5t155 18.5q119 0 119 -88q0 -16 -4.5 -55.5t-5.5 -47.5zM1094 1192q-36 0 -69 7t-61 30t-28 59q0 51 42 94t103 67.5t122 38t108 13.5q51 0 94 -26t43 -74
q0 -68 -100 -135q-54 -34 -122.5 -54t-131.5 -20zM477 1192q-25 0 -49.5 4.5t-49.5 14t-40.5 29.5t-15.5 48q0 51 41.5 94t102.5 67.5t121.5 38t106.5 13.5q53 0 96.5 -26t43.5 -74q0 -67 -101 -135q-54 -34 -123 -54t-133 -20z" />
    <glyph glyph-name="yacute" unicode="&#xfd;" horiz-adv-x="1275" 
d="M1290 764q2 -111 -25 -239.5t-78 -258t-129.5 -249t-172 -211.5t-214 -147.5t-247.5 -55.5q-70 0 -134.5 19t-117 55.5t-84 95t-31.5 131.5q0 93 58.5 149t150.5 56q76 0 125 -42t49 -116q0 -17 -4 -52t-4 -53q0 -41 33 -41q45 0 71.5 51.5t24.5 98.5q-2 75 -53.5 241
t-117.5 305.5t-103 139.5q-14 0 -54.5 -35t-64.5 -35q-38 0 -67.5 39t-26.5 78q6 62 99.5 149.5t205 149.5t170.5 62q39 0 69 -13.5t53.5 -45.5t34 -52.5t30.5 -66.5q3 -7 5 -11q18 -43 62 -177.5t81 -228t60 -98.5q19 -4 35.5 26t25.5 74.5t14 82.5t5 57q0 48 -14.5 90
t-32.5 67t-32.5 59.5t-14.5 68.5q0 69 52.5 112t123.5 43q47 0 81.5 -16.5t53.5 -41.5t30.5 -63t15 -72.5t3.5 -78.5zM678 1317q61 54 61 82q0 10 -6 22q-12 24 -12 33q0 24 29.5 42.5t71.5 28t78 14.5t58 5q26 0 54.5 -3.5t61.5 -12.5t54 -29t21 -47q0 -55 -50.5 -111.5
t-121.5 -96t-146 -64.5t-126 -25q-34 0 -58 19t-24 53q0 11 2.5 21t10 20.5t11.5 15.5t16 17.5t15 15.5z" />
    <glyph glyph-name="thorn" unicode="&#xfe;" horiz-adv-x="1318" 
d="M780 739q-42 0 -76 -62t-52 -148.5t-27 -160t-9 -114.5q0 -32 10 -48t40 -16q42 0 78.5 56t57.5 133.5t32.5 147t11.5 108.5q0 104 -66 104zM739 1366l-6 -76l-14 -131q-1 -15 -11 -94t-10 -121q0 -14 6.5 -25.5t18.5 -11.5t39.5 24t59 53t84.5 53t110 24q61 0 110 -25
t80.5 -65t52.5 -93t30 -106.5t9 -107.5q0 -140 -45.5 -269.5t-118 -220t-165 -145t-183.5 -54.5q-34 0 -88 13q-46 12 -59 12q-26 0 -32 -38t0 -76.5t14 -55.5q6 -15 24.5 -26.5t36 -18t31.5 -21.5t14 -36q0 -37 -23 -61.5t-62 -35t-71 -14.5t-67 -4q-43 0 -89.5 2.5
t-113.5 13.5t-117 28.5t-86.5 51t-36.5 78.5q0 21 8 37.5t16.5 25t29.5 25.5q32 26 43.5 49.5t17.5 69.5q40 298 68 611.5t28 479.5q0 48 -9 63.5t-52 18.5q-51 3 -68.5 16.5t-17.5 63.5q0 31 12 55t38 40.5t46 25.5t55 21q69 25 181 50t174 25q60 0 84 -20t24 -78z" />
    <glyph glyph-name="ydieresis" unicode="&#xff;" horiz-adv-x="1275" 
d="M1290 764q2 -111 -25 -239.5t-78 -258t-129.5 -249t-172 -211.5t-214 -147.5t-247.5 -55.5q-70 0 -134.5 19t-117 55.5t-84 95t-31.5 131.5q0 93 58.5 149t150.5 56q76 0 125 -42t49 -116q0 -17 -4 -52t-4 -53q0 -41 33 -41q45 0 71.5 51.5t24.5 98.5q-2 75 -53.5 241
t-117.5 305.5t-103 139.5q-14 0 -54.5 -35t-64.5 -35q-38 0 -67.5 39t-26.5 78q6 62 99.5 149.5t205 149.5t170.5 62q39 0 69 -13.5t53.5 -45.5t34 -52.5t30.5 -66.5q3 -7 5 -11q18 -43 62 -177.5t81 -228t60 -98.5q19 -4 35.5 26t25.5 74.5t14 82.5t5 57q0 48 -14.5 90
t-32.5 67t-32.5 59.5t-14.5 68.5q0 69 52.5 112t123.5 43q47 0 81.5 -16.5t53.5 -41.5t30.5 -63t15 -72.5t3.5 -78.5zM1034 1192q-26 0 -51 4.5t-50 14t-40.5 29.5t-15.5 48q0 51 41.5 94t103 67.5t122 38t107.5 13.5q51 0 94.5 -26t43.5 -74q0 -67 -101 -135
q-54 -34 -122.5 -54t-131.5 -20zM418 1192q-35 0 -67.5 7t-60.5 30t-28 59q0 51 42 94t103 67.5t121.5 38t106.5 13.5q53 0 96 -26t43 -74q0 -68 -100 -135q-54 -34 -123 -54t-133 -20z" />
    <glyph glyph-name="dotlessi" unicode="&#x131;" horiz-adv-x="757" 
d="M676 600l-25 -164q-16 -108 -16 -110q0 -19 8 -27.5t17 -10t30 -1.5q24 0 36 -2t22 -14t10 -35q0 -35 -22 -67.5t-46 -50.5t-61 -40q-154 -92 -312 -92q-64 0 -114.5 36t-50.5 97q0 36 12 114l53 349q16 108 16 110q0 25 -9 34t-34 9q-2 0 -12.5 -0.5t-15.5 0t-12.5 2.5
t-12.5 6q-26 23 -26 64q0 31 14 56.5t43 45t48.5 29.5t55.5 25q79 34 181.5 60t175.5 26q92 0 92 -95q0 -31 -5.5 -83t-11 -88.5t-16 -104t-12.5 -78.5z" />
    <glyph glyph-name="Lslash" unicode="&#x141;" horiz-adv-x="1345" 
d="M1030 0h-672q-2 0 -11 -0.5t-24 -1t-30 -0.5q-66 -4 -119 -4q-64 0 -104.5 29t-40.5 92q0 34 12.5 54.5t32.5 31.5t41.5 20.5t44.5 31.5t37 56q28 70 49 217l-62 -22q-4 -1 -33.5 -14.5t-58 -25t-33.5 -11.5q-16 0 -16 16q0 1 8 57q2 15 5 26.5t8.5 20.5t9 14.5
t14.5 11.5t15.5 8.5t20.5 9.5t23 10l119 51q3 30 18 150.5t22 196t7 120.5q0 29 -23 46.5t-50.5 25.5t-50.5 31.5t-23 62.5q0 86 116.5 113.5t422.5 27.5q94 0 155 -8.5t91.5 -26t41.5 -38.5t11 -52q0 -37 -10.5 -57t-27.5 -26.5t-38 -10t-43 -13t-41.5 -28.5t-34.5 -64
t-21 -114l-16 -178l332 145q25 10 33 10t12.5 -5t5.5 -13t0.5 -15.5t-1.5 -17t-1 -12.5q-2 -21 -6.5 -36t-9 -24t-16 -16.5t-19 -11t-27.5 -11.5t-33 -14l-282 -127l-21 -274q-4 -36 -4 -62q0 -23 0.5 -30.5t3 -23t9 -20t18.5 -13t31.5 -10.5t47 -4.5t66.5 -2.5q53 0 94 14
t66 36t45 48.5t35.5 53t31.5 48.5t39.5 36t53.5 14q123 0 123 -142q0 -44 -14 -105.5t-39 -124t-67 -106t-91 -43.5q-35 0 -74 13q-50 10 -84 10z" />
    <glyph glyph-name="lslash" unicode="&#x142;" horiz-adv-x="770" 
d="M682 864l45 19q117 51 129 51q18 0 18 -23q0 -13 -4 -41q-3 -27 -6.5 -42t-14.5 -26t-17 -14.5t-31 -13.5t-39 -16l-98 -41l-37 -342q0 -72 35 -72q10 0 30.5 3t30.5 3q45 0 45 -63q0 -48 -36 -92t-90.5 -73.5t-119 -51.5t-122 -32.5t-99.5 -10.5q-86 0 -127 35.5
t-41 119.5q0 60 21 203l28 213l-51 -20l-49 -23q-51 -22 -62 -22q-15 0 -17.5 14t1.5 26l4 29q4 33 13 49.5t21 23.5t46 21l113 50l39 301q14 96 14 127q0 27 -7 38t-32 11q-8 0 -24.5 -2t-24.5 -2q-64 0 -64 59q-1 44 30.5 81t85.5 60t111 40.5t121.5 26.5t102 13t65.5 6
q58 3 87.5 -19t29.5 -79z" />
    <glyph glyph-name="OE" unicode="&#x152;" horiz-adv-x="2148" 
d="M1522 1063l-13 -117q-1 -14 -3.5 -34t-2.5 -27t1 -16.5t7 -12t16 -4.5t27 -2q33 0 52 19.5t27 47t16.5 55t28.5 47t55 19.5q137 0 137 -256q0 -48 -8.5 -105.5t-27 -121t-56.5 -105.5t-88 -42q-42 0 -62 21t-24 51.5t-6 61t-17.5 51.5t-50.5 21q-38 0 -51 -38.5
t-13 -124.5v-91v-52.5t6 -34t10 -22.5t22.5 -10t33 -5h51.5h15q65 0 114 14.5t78 38t51 51.5t37.5 56t32 51.5t41 38t57.5 14.5q123 0 123 -164q0 -68 -23 -134.5t-57 -112.5t-71 -74.5t-66 -28.5q-1 0 -47 8q-75 6 -125 6h-403q-242 0 -428 -14q-47 -3 -123.5 -9t-100.5 -6
q-286 0 -445 146.5t-159 429.5q0 180 72 348.5t192.5 293t287.5 200t347 75.5q73 0 203 -14q173 -14 174 -14h393q87 0 149.5 12t69.5 12q60 0 116 -85.5t56 -219.5q0 -64 -31 -111t-91 -47q-39 0 -64.5 15t-37 37.5t-27.5 49t-33.5 49t-57 37.5t-96.5 15q-43 0 -71 -2
t-49.5 -8.5t-32.5 -14.5t-19 -26t-11.5 -35.5t-6.5 -50.5zM918 1190q-51 0 -93.5 -37t-70 -94.5t-48.5 -134t-32.5 -147t-18 -143t-8.5 -113.5t-2 -66q0 -248 129 -248q55 0 99.5 41.5t72.5 111.5t47.5 148.5t29 165.5t13.5 149.5t4 112.5q0 254 -122 254z" />
    <glyph glyph-name="oe" unicode="&#x153;" horiz-adv-x="1781" 
d="M727 842q-14 0 -26 -4t-22.5 -14t-18 -18t-15 -25t-11.5 -26t-9.5 -30t-7.5 -27.5t-6.5 -28t-4.5 -22.5q-41 -198 -41 -362q0 -95 66 -95q14 0 26 4t21.5 13t17 17t14.5 24t11 24.5t8.5 28l6 26t5.5 26.5t4 22q50 260 50 366q0 101 -68 101zM1358 856q-39 0 -73 -51
t-51 -109.5t-17 -95.5q0 -57 36 -57q28 0 65.5 41.5t63.5 101.5t23 107q-2 25 -13.5 44t-33.5 19zM1178 -27q-128 0 -258 54q-20 10 -35 10q-17 0 -41 -12q-119 -52 -279 -52q-131 0 -235 44.5t-168 138t-64 223.5q0 144 54.5 271t148 216.5t222 141t272.5 51.5
q72 0 165.5 -19.5t145.5 -52.5q16 -16 31 -16q4 0 39 14q148 74 346 74q123 0 204.5 -61.5t81.5 -182.5q0 -90 -47 -173t-120.5 -140.5t-164 -92t-176.5 -34.5q-16 0 -25.5 -1t-24 -4.5t-22 -13t-7.5 -24.5q0 -41 40.5 -66.5t84.5 -25.5q64 0 130.5 29t118 58t76.5 29
q32 0 57 -27.5t25 -58.5q0 -38 -21 -72.5t-60 -62.5t-68 -44t-72 -36q-185 -82 -354 -82z" />
    <glyph glyph-name="Scaron" unicode="&#x160;" horiz-adv-x="1316" 
d="M606 -31q-83 0 -162 15.5t-152.5 50t-128 84t-87.5 123.5t-33 164q0 81 40.5 135.5t119.5 54.5q35 0 61.5 -13t46 -41.5t29 -49t24.5 -59.5q2 -4 3 -7l2 -6q78 -195 209 -195q56 0 96.5 31t40.5 86q0 36 -27 71.5t-70 67.5t-95 67.5t-104 79t-95 93.5t-70 119.5
t-27 148.5q0 111 47 203t125.5 150.5t178 90t206.5 31.5q59 0 131 -17t76 -17q10 0 49.5 17t71.5 17q57 0 110 -51.5t82 -119t29 -122.5q0 -70 -45 -122t-114 -52q-41 0 -78 22t-64.5 53.5t-54.5 62.5t-61 53t-72 22q-42 0 -69 -22.5t-27 -63.5q0 -27 10.5 -50t31 -41
t39 -30t45.5 -26q163 -89 223 -133q147 -109 179 -256q10 -46 10 -99q0 -104 -41 -192t-108.5 -147t-156.5 -101t-183.5 -61t-190.5 -19zM973 1829q6 3 37 20t52.5 28t49 21.5t43.5 10.5q38 0 65 -24.5t27 -61.5q0 -70 -121 -142q-8 -5 -91 -56t-146.5 -84.5t-87.5 -33.5
q-40 0 -117 59.5t-139 135.5t-62 117q0 38 25.5 66t62.5 28q32 0 68 -23t63 -51t60.5 -51t60.5 -23q19 0 45.5 10.5t63 31t41.5 22.5z" />
    <glyph glyph-name="scaron" unicode="&#x161;" horiz-adv-x="966" 
d="M977 887q0 -53 -29.5 -101.5t-79.5 -48.5q-27 0 -48.5 18.5t-32.5 41t-31.5 41t-46.5 18.5q-27 0 -45.5 -16.5t-18.5 -42.5q0 -36 30 -76t73.5 -80t86.5 -85t73 -107t30 -130q0 -90 -49 -160t-127.5 -109t-162.5 -58t-167 -19q-44 0 -89.5 5t-98 19.5t-92.5 36.5
t-66.5 60.5t-26.5 87.5q0 52 30 99t79 47q28 0 49 -21.5t32 -47.5t35 -47.5t58 -21.5t61 18t27 50q0 29 -26.5 65t-64 73.5t-75 80.5t-64 102t-26.5 123q0 71 31 131.5t81.5 101t115.5 69.5t132 42t132 13q45 0 94 -8t100.5 -26t84 -54t32.5 -84zM799 1466q6 3 37 20
t52.5 28t49 21.5t43.5 10.5q38 0 65 -24.5t27 -61.5q0 -69 -121 -141q-8 -5 -91 -56t-146.5 -84.5t-87.5 -33.5q-40 0 -117 59.5t-139 135t-62 116.5q0 38 25.5 66t62.5 28q32 0 68 -23t63 -50.5t60.5 -50.5t60.5 -23q19 0 45 10t64 30.5t41 22.5z" />
    <glyph glyph-name="Ydieresis" unicode="&#x178;" horiz-adv-x="1441" 
d="M489 825l-206 336q-22 29 -54.5 46.5t-55.5 24t-40.5 24.5t-17.5 49q0 58 44.5 89t151 44.5t305.5 13.5q109 0 170.5 -13.5t84 -38.5t22.5 -67q0 -32 -14.5 -54t-31.5 -31.5t-31.5 -23.5t-14.5 -32q0 -32 42 -115t66 -84q14 -1 54 46.5t73 99.5t33 65t-11 27t-24 25
t-24 31.5t-11 45.5q0 119 301 119q139 0 205 -25.5t66 -89.5q0 -39 -24 -60.5t-54.5 -27t-66.5 -18.5t-54 -35l-239 -295q-45 -55 -67 -87t-39 -60t-23.5 -67t-9.5 -71.5t-7 -109.5l-8 -240q-1 -28 13.5 -43.5t36 -21l43 -11t37 -21t15.5 -44.5v-3q0 -13 -1 -21t-8.5 -24
t-21.5 -27t-43.5 -24.5t-71 -21.5t-107 -14t-148.5 -6q-67 0 -106.5 1t-94.5 4t-87 11t-63.5 21t-46 34t-14.5 49q0 36 17 56.5t41.5 28.5t49.5 15t44.5 22.5t23.5 43.5l58 414q0 52 -56 141zM1157 1554q-26 0 -51 4.5t-50.5 14.5t-41 30t-15.5 48q0 51 42 94t103 67.5
t122 38t108 13.5q51 0 94 -26.5t43 -74.5q0 -68 -100 -135q-54 -34 -122.5 -54t-131.5 -20zM541 1554q-25 0 -49.5 4.5t-50 14.5t-41 30t-15.5 48q0 51 42 94t103 67.5t121.5 38t106.5 13.5q53 0 96 -26.5t43 -74.5q0 -68 -100 -135q-54 -34 -123 -54t-133 -20z" />
    <glyph glyph-name="Zcaron" unicode="&#x17d;" horiz-adv-x="1310" 
d="M147 256l451 686q102 152 102 195q0 26 -30 38.5t-60 12.5q-64 0 -107.5 -13.5t-65.5 -35.5t-35 -48t-22 -52t-20.5 -48t-36 -35.5t-63.5 -13.5q-63 0 -93 39t-30 104q0 75 34.5 161t90.5 146t111 60q27 0 47 -8t82 -8h653h13q26 0 40 -0.5t39.5 -2.5t40.5 -8.5t31.5 -16
t24.5 -27t8 -40.5q0 -40 -24 -87.5t-94 -154t-114 -181.5l-268 -451q-3 -6 -20 -33.5t-28 -47t-21.5 -43.5t-10.5 -38q0 -25 40 -37t73 -12q56 0 95.5 12.5t60 33t34 44.5t22.5 48.5t19.5 45t30.5 33t51 12.5q62 0 92.5 -42.5t30.5 -106.5q0 -54 -24 -135.5t-72.5 -152.5
t-104.5 -71q-8 0 -73.5 13.5t-126.5 9.5h-359q-60 0 -178 -4q-91 -6 -180 -6q-28 0 -49.5 3.5t-42.5 12.5t-32 29t-11 49q0 58 79 172zM971 1829q6 3 37 20t52.5 28t49 21.5t43.5 10.5q38 0 65 -24.5t27 -61.5q0 -70 -121 -142q-8 -5 -91 -56t-146.5 -84.5t-87.5 -33.5
q-40 0 -117 59.5t-139 135.5t-62 117q0 38 25.5 66t62.5 28q32 0 68 -23t63 -51t60.5 -51t60.5 -23q19 0 45.5 10.5t63 31t41.5 22.5z" />
    <glyph glyph-name="zcaron" unicode="&#x17e;" horiz-adv-x="1036" 
d="M492 1036h426q19 2 42.5 0t44 -6.5t34.5 -20t14 -40.5q0 -21 -5.5 -40.5t-18.5 -41.5t-21 -33.5t-28 -37t-24 -30.5q-3 -4 -59.5 -64.5t-115.5 -126.5t-109.5 -132t-50.5 -88q0 -35 45 -35q25 0 67 6q58 7 75 16.5t32 36.5q12 22 17 29.5t16 20t24 16.5t31 4
q53 0 73.5 -32.5t20.5 -90.5q0 -56 -26 -138.5t-75 -151t-100 -68.5q-15 0 -57 5t-78 3h-475q-48 0 -82.5 18.5t-34.5 61.5q0 19 6.5 35t13.5 24.5t20 21.5t18 19q12 14 129.5 146t185 215t82.5 120q7 16 -18.5 25.5t-47.5 9.5q-95 0 -128 -13.5t-66 -62.5q-23 -38 -64 -38
q-36 0 -59 24.5t-30 54.5t-7 66q0 44 21 121t63 146t88 69q17 0 41 -8q46 -15 150 -15zM834 1466q6 3 37 20t52.5 28t49 21.5t43.5 10.5q38 0 65 -24.5t27 -61.5q0 -69 -121 -141q-8 -5 -91 -56t-146.5 -84.5t-87.5 -33.5q-40 0 -117 59.5t-139 135t-62 116.5q0 38 25.5 66
t62.5 28q32 0 68 -23t63 -50.5t60.5 -50.5t60.5 -23q19 0 45 10t64 30.5t41 22.5z" />
    <glyph glyph-name="florin" unicode="&#x192;" 
d="M883 885h41q98 0 110 -2q20 -3 17 -25q-21 -92 -30 -111q-21 -42 -78 -46q-10 -1 -21 -1q-4 0 -22.5 0.5t-30.5 0.5t-27.5 -2t-24.5 -7q-22 -17 -39 -52.5t-23 -56.5t-16 -61l-106 -381q-31 -123 -75 -211t-111.5 -155t-164.5 -100t-227 -33q-46 0 -93 4.5t-103 18.5
t-98.5 36.5t-71.5 61.5t-29 90q0 73 48 119t122 46q34 0 65.5 -13.5t54.5 -32t43.5 -37.5t42.5 -32.5t42 -13.5q14 0 26 4.5t22.5 14t19 19t16.5 25.5t13.5 27.5t12 30.5t9 28t8 27.5t6.5 22.5l98 348q53 175 53 223q0 27 -11 35.5t-40 10.5q-22 0 -32.5 1.5t-18.5 9.5
t-8 25q0 42 29 107q13 30 28.5 35t57.5 0q33 0 45.5 9.5t23.5 41.5q38 106 82.5 179t107.5 127.5t148.5 80t198.5 25.5q49 0 96 -4t105.5 -17.5t100.5 -35t71.5 -62t29.5 -94.5q0 -64 -45 -109t-110 -45q-50 0 -90.5 20.5t-62 45t-47.5 45t-50 20.5q-36 0 -68 -42t-47.5 -90
t-15.5 -79q0 -5 3 -8.5t9 -4.5t10 -1.5t12 0t9 0.5z" />
    <glyph glyph-name="circumflex" unicode="&#x2c6;" horiz-adv-x="1050" 
d="M563 1229q-5 -2 -49 -26.5t-78 -39t-53 -14.5q-38 0 -66 25t-28 61q0 74 121 141q10 6 50 31t76 46t77.5 45t74 38t47.5 14q40 0 117 -59t139 -134t62 -116q0 -39 -25 -67.5t-63 -28.5q-31 0 -67 23t-63 50.5t-60 50.5t-60 23q-13 0 -28.5 -4t-35.5 -13t-30.5 -14.5
t-33 -18t-24.5 -13.5z" />
    <glyph glyph-name="caron" unicode="&#x2c7;" horiz-adv-x="1050" 
d="M840 1466q6 3 37 20t52.5 28t49 21.5t43.5 10.5q38 0 65 -24.5t27 -61.5q0 -69 -121 -141q-8 -5 -91 -56t-146.5 -84.5t-87.5 -33.5q-40 0 -117 59.5t-139 135t-62 116.5q0 38 25.5 66t62.5 28q32 0 68 -23t63 -50.5t60.5 -50.5t60.5 -23q19 0 45 10t64 30.5t41 22.5z
" />
    <glyph glyph-name="uni02C9" unicode="&#x2c9;" horiz-adv-x="1257" 
d="M297 1204h-29q-22 0 -39.5 11t-17.5 32t28.5 89t43.5 94q18 29 36 41t48 12l36 -2l230 -11l469 3l33 4q18 0 32.5 -12.5t14.5 -30.5q0 -27 -20 -83.5t-38 -93.5q-11 -20 -19 -31t-23.5 -20.5t-34.5 -9.5q-18 0 -50 4l-174 10z" />
    <glyph glyph-name="breve" unicode="&#x2d8;" horiz-adv-x="1150" 
d="M305 1501q74 -50 138.5 -72t148.5 -22q92 0 159 19.5t162 66.5q71 37 101 37q14 0 25.5 -11t11.5 -28q0 -33 -34 -84t-65 -82q-161 -164 -370 -164q-174 0 -291 117q-40 42 -72.5 96.5t-32.5 100.5q0 57 47 57q8 0 15 -1t16.5 -5.5t12 -6t15 -9.5t13.5 -9z" />
    <glyph glyph-name="dotaccent" unicode="&#x2d9;" horiz-adv-x="880" 
d="M369 1167q-41 0 -79.5 8.5t-71 35.5t-32.5 69q0 58 47.5 107.5t116 79.5t138.5 46.5t122 16.5q65 0 117.5 -29t52.5 -90q0 -45 -36.5 -87.5t-84.5 -70.5q-63 -39 -140.5 -62.5t-149.5 -23.5z" />
    <glyph glyph-name="ring" unicode="&#x2da;" horiz-adv-x="913" 
d="M686 1567q44 0 82.5 -5t78 -18.5t67.5 -35.5t45.5 -58.5t17.5 -83.5q0 -65 -27.5 -112.5t-75 -73.5t-101 -38t-114.5 -12q-309 0 -309 203q0 50 22.5 95.5t61.5 74.5q87 64 252 64zM684 1470q-57 0 -89 -41t-32 -100q0 -39 26 -63.5t66 -24.5q58 0 89.5 38.5t31.5 98.5
q0 43 -24.5 67.5t-67.5 24.5z" />
    <glyph glyph-name="ogonek" unicode="&#x2db;" horiz-adv-x="681" 
d="M410 -37l-23 -61q-16 -46 -16 -72q0 -29 21.5 -44t53.5 -15q23 0 50 8q4 1 20 4.5t25 3.5q17 0 29 -12t12 -29q0 -22 -15 -49.5t-32 -44.5q-67 -70 -162 -70q-72 0 -129.5 40.5t-57.5 109.5q0 95 97 231h127z" />
    <glyph glyph-name="tilde" unicode="&#x2dc;" horiz-adv-x="1167" 
d="M918 1430q4 47 41 69.5t88 22.5q127 0 127 -117q0 -97 -60.5 -167.5t-157.5 -70.5q-51 0 -136 32.5t-162.5 65.5t-110.5 33q-9 0 -14.5 -5.5t-6.5 -11t-2 -17.5v-8.5v-8v-7t-0.5 -7.5t-1.5 -7t-2.5 -7t-3.5 -6.5t-5 -6.5t-7 -6q-29 -26 -84 -26q-59 0 -93 27t-34 83
q0 109 63 172.5t172 63.5q68 0 148.5 -30t141.5 -59.5t81 -29.5q19 0 19 29z" />
    <glyph glyph-name="hungarumlaut" unicode="&#x2dd;" horiz-adv-x="1337" 
d="M242 1315l12 12q13 12 18 17.5t14 16.5t13 20.5t4 17.5q0 7 -6 22q-12 24 -12 33q0 23 29.5 41.5t71.5 27.5t78 14t58 5q27 0 55 -3.5t61 -12t54 -28.5t21 -48q0 -72 -84.5 -143.5t-187.5 -111.5t-173 -40q-34 0 -58 19t-24 53q0 8 1.5 15t5.5 14.5t7 12.5t10 13t9.5 11
t11.5 11.5t11 10.5zM768 1315q3 4 15.5 16.5t21 22t16.5 22.5t8 23q0 9 -8 22q-10 20 -10 33q0 23 29.5 41.5t71.5 27.5t78.5 14t58.5 5q27 0 54.5 -3.5t60 -12t53 -28.5t20.5 -48q0 -45 -33 -90.5t-84.5 -81t-111 -64t-116.5 -44t-97 -15.5q-35 0 -58.5 19t-23.5 53
q0 7 1.5 14t3 12t6.5 12t7 10.5t9 11t8.5 9.5t10 10t9.5 9z" />
    <glyph glyph-name="uni03A9" unicode="&#x3a9;" horiz-adv-x="1574" 
d="M1534 360l-111 -360h-594l-16 55q46 65 79.5 118t82 140.5t81 181.5t44.5 185q53 448 -197 448q-125 0 -194.5 -106t-98.5 -342q-34 -271 125 -623l-22 -57h-604l-11 360h86q25 -74 55 -98t103 -24h166q-50 28 -90 55.5t-86 70.5t-74.5 88.5t-44 108.5t-6.5 131
q29 243 225 386t490 143q295 0 453.5 -141.5t129.5 -379.5q-10 -76 -51 -146t-107.5 -128.5t-129.5 -101t-144 -86.5h199q65 0 98.5 24t75.5 98h88z" />
    <glyph glyph-name="uni03BC" unicode="&#x3bc;" horiz-adv-x="1394" 
d="M1321 858l-70 -395q-12 -62 -12 -94q0 -62 64 -62q25 -1 32 -2t19.5 -5.5t16 -16t3.5 -31.5q0 -56 -55 -108t-132 -85t-154 -53t-126 -20q-36 0 -57.5 18.5t-28.5 45.5t-11.5 54t-14 45.5t-29.5 18.5q-24 0 -78.5 -43t-81.5 -51q-6 -39 -11.5 -72.5t-7.5 -47.5t-5 -28
q-23 -128 -101.5 -216.5t-206.5 -88.5q-63 0 -107 28.5t-63 74t-23.5 102.5t11.5 115q7 40 24 120t23 125q3 20 33 186.5t39 248.5q1 5 3 22t2 22v18t-3 17.5t-8.5 12t-16 11t-24.5 5.5q-26 3 -41.5 6.5t-30 18t-14.5 39.5q0 86 176 170q179 84 330 84q57 0 80.5 -29
t23.5 -88q0 -36 -9.5 -100t-28 -163.5t-21.5 -117.5q0 -2 -4 -20.5t-6.5 -37t-5.5 -44t-2 -47t5.5 -40.5t16 -30t29.5 -11q73 0 135 132q27 63 43.5 152t22 156t23 129.5t48.5 88.5q39 35 124 53.5t154 18.5q119 0 119 -88q0 -16 -4.5 -55.5t-5.5 -47.5z" />
    <glyph glyph-name="pi" unicode="&#x3c0;" horiz-adv-x="1284" 
d="M1264 907l67 -18q-10 -66 -54 -164t-73 -123q-56 -16 -133 -16q-26 -116 -43 -281q-8 -80 13 -111.5t53 -31.5q22 0 80 16l18 -69q-49 -54 -137.5 -93t-171.5 -39q-251 0 -219 254q6 55 15 111t15.5 90t16.5 85.5t14 72.5q-131 4 -193 4l-2 -6q-17 -141 -46 -254.5
t-61 -178t-53.5 -96.5t-39.5 -49q-111 -31 -162 -33l-16 52q109 127 178 286.5t84 282.5q-88 2 -144 -9t-129 -48l-32 75q77 91 101 113q98 94 236 112q42 5 89 5q340 -4 589 -4q48 0 80 14t60 51z" />
    <glyph glyph-name="uni2010" unicode="&#x2010;" horiz-adv-x="604" 
d="M281 752l200 -15q37 0 85.5 6.5t51.5 6.5q35 0 35 -50q0 -29 -13 -84t-33.5 -112.5t-51 -99t-59.5 -39.5q-3 0 -22.5 2t-27.5 4q-161 11 -177 11.5t-183 -3.5q-22 0 -33.5 12.5t-9.5 34.5q2 36 16 91t36.5 111t57 94t70.5 34q9 -1 29 -2t29 -2z" />
    <glyph glyph-name="endash" unicode="&#x2013;" horiz-adv-x="1024" 
d="M598 741h242q14 0 41.5 -0.5t44.5 -0.5t41 1t43 4q30 5 39 5q25 0 42 -16.5t17 -41.5q0 -62 -29 -148.5t-67 -137.5q-33 -44 -72 -44q-36 -1 -69.5 1.5t-92 8t-116.5 9.5q-230 5 -412 1.5t-260 -11.5q-30 0 -52 16t-22 45q0 27 32.5 118.5t49.5 123.5q21 43 45.5 64.5
t65.5 21.5q155 -12 489 -19z" />
    <glyph glyph-name="emdash" unicode="&#x2014;" horiz-adv-x="2048" 
d="M596 741h1266q60 0 127.5 4.5t81.5 4.5q25 0 43 -17t18 -41t-12 -76t-32.5 -110.5t-54 -102t-69.5 -43.5q-220 14 -278 17h-1666q-18 0 -45 -0.5t-46.5 14t-10.5 41.5q3 9 10.5 40t15 58.5t19 64.5t26 65.5t32 53.5t40.5 37.5t48 8.5q86 -13 487 -19z" />
    <glyph glyph-name="quoteleft" unicode="&#x2018;" horiz-adv-x="626" 
d="M492 1126q0 -22 16 -38t39 -30.5t45.5 -34.5t38.5 -60t16 -97q0 -103 -58 -162t-161 -59q-119 0 -180.5 77t-63.5 200q-1 79 36 178t89 177.5t108.5 132.5t92.5 54q28 0 66 -35.5t38 -62.5q0 -23 -20 -47q-102 -131 -102 -193z" />
    <glyph glyph-name="quoteright" unicode="&#x2019;" horiz-adv-x="626" 
d="M371 983q0 22 -16 38t-39 30.5t-46 34.5t-39 60t-16 97q0 103 58 162t161 59q119 0 180.5 -77t63.5 -199q1 -79 -36 -178t-89 -178t-108.5 -133t-92.5 -54q-28 0 -66 35.5t-38 62.5q0 24 20 48q103 132 103 192z" />
    <glyph glyph-name="quotesinglbase" unicode="&#x201a;" horiz-adv-x="626" 
d="M242 -45q0 22 -16 38t-39 30.5t-46 34.5t-39 60t-16 97q0 103 58 162t161 59q119 0 180.5 -77t63.5 -199q1 -79 -36 -178t-89 -178t-108.5 -133t-92.5 -54q-28 0 -66 35.5t-38 62.5q0 23 20 47q103 132 103 193z" />
    <glyph glyph-name="quotedblleft" unicode="&#x201c;" horiz-adv-x="1159" 
d="M492 1126q0 -22 16 -38t39 -30.5t45.5 -34.5t38.5 -60t16 -97q0 -103 -58 -162t-161 -59q-119 0 -180.5 77t-63.5 200q-1 79 36 178t89 177.5t108.5 132.5t92.5 54q28 0 66 -35.5t38 -62.5q0 -23 -20 -47q-102 -131 -102 -193zM1026 1126q0 -22 16 -38t39 -30.5t46 -34.5
t39 -60t16 -97q0 -103 -58 -162t-161 -59q-119 0 -180.5 77t-63.5 200q-1 79 35.5 178t88.5 177.5t108.5 132.5t92.5 54q28 0 66.5 -35.5t38.5 -62.5q0 -22 -21 -47q-102 -131 -102 -193z" />
    <glyph glyph-name="quotedblright" unicode="&#x201d;" horiz-adv-x="1159" 
d="M905 983q0 22 -16 38t-38.5 30.5t-45.5 34.5t-39 60t-16 97q0 103 58 162t161 59q119 0 180 -76.5t63 -199.5q1 -79 -35.5 -178t-88.5 -178t-108.5 -133t-92.5 -54q-28 0 -66.5 35.5t-38.5 62.5q0 23 21 48q102 131 102 192zM371 983q0 22 -16 38t-39 30.5t-46 34.5
t-39 60t-16 97q0 103 58 162t161 59q119 0 180.5 -77t63.5 -199q1 -79 -36 -178t-89 -178t-108.5 -133t-92.5 -54q-28 0 -66 35.5t-38 62.5q0 24 20 48q103 132 103 192z" />
    <glyph glyph-name="quotedblbase" unicode="&#x201e;" horiz-adv-x="1159" 
d="M776 -45q0 22 -16 38t-39 30.5t-45.5 34.5t-38.5 60t-16 97q0 103 58 162t161 59q119 0 180 -76.5t63 -199.5q1 -79 -35.5 -178t-88.5 -178t-108.5 -133t-92.5 -54q-28 0 -66.5 35.5t-38.5 62.5q0 22 21 47q102 131 102 193zM242 -45q0 22 -16 38t-39 30.5t-46 34.5
t-39 60t-16 97q0 103 58 162t161 59q119 0 180.5 -77t63.5 -199q1 -79 -36 -178t-89 -178t-108.5 -133t-92.5 -54q-28 0 -66 35.5t-38 62.5q0 23 20 47q103 132 103 193z" />
    <glyph glyph-name="dagger" unicode="&#x2020;" horiz-adv-x="1484" 
d="M997 670l-57 -441q-3 -79 8 -130.5t29 -72t36.5 -32.5t32 -28t13.5 -44q0 -38 -46 -64t-116 -36.5t-118.5 -14.5t-86.5 -4q-21 0 -46 1t-66.5 4.5t-77.5 11t-70 18.5t-54 29.5t-20 42.5q0 12 4.5 23.5t9 19t16 17.5t17 14t20.5 13.5t19 12.5q68 44 97 124.5t41 189.5
l57 407q0 25 -25 25l-125 -6q-30 -2 -36.5 -2.5t-28.5 -3t-27.5 -6t-20 -9.5t-21.5 -15.5t-17.5 -23t-20.5 -31.5q-22 -41 -40 -55t-58 -14q-16 0 -29.5 6.5t-22 19.5t-15.5 27t-11 35.5t-6.5 37t-3 40t-1 37.5t0 34.5t0.5 26.5q0 38 10.5 98t30.5 126.5t56.5 113.5t80.5 47
q34 0 46 -13.5t24 -51.5q18 -55 42.5 -70.5t86.5 -18.5q16 -1 67.5 -4.5t79.5 -3.5q11 0 17.5 3t9 10.5t3.5 13.5t1.5 18t1.5 19l25 174q1 32 -7 54t-22 32t-30.5 18t-30.5 13t-23.5 16.5t-9.5 28.5q0 44 43 77t107 48.5t117 22.5t93 7q39 0 85 -5.5t102 -19t92.5 -43
t36.5 -71.5q0 -12 -4 -22t-8.5 -16.5t-15.5 -13t-17.5 -9.5t-21.5 -9t-21 -8q-17 -6 -30 -14t-22.5 -20t-15 -19.5t-10 -26t-6 -24.5t-5 -31t-4.5 -31l-20 -151q0 -21 35 -21q27 0 76 3.5t65 4.5q63 3 91 18t59 68q16 25 23.5 35.5t24.5 21.5t38 11q17 0 30.5 -5.5t23 -18
t16.5 -24.5t11 -32.5t6.5 -34.5t3.5 -37.5t1.5 -35.5t0 -34.5t-0.5 -27.5q0 -40 -11.5 -102.5t-32.5 -131t-59 -117t-84 -48.5q-38 0 -51 12.5t-22 54.5q-8 25 -17.5 41.5t-18 26t-27.5 14.5t-31.5 6.5t-42.5 3.5q-10 1 -15 1l-127 6q-16 0 -22.5 -16t-8.5 -42.5t-2 -27.5z
" />
    <glyph glyph-name="daggerdbl" unicode="&#x2021;" horiz-adv-x="1484" 
d="M1032 846l-41 -279q-1 -9 6.5 -15t20 -8t28 -2.5t29.5 0t25 -0.5h102q40 0 59 7t46 34l9 9l10 10t9.5 9t10.5 9t9.5 7t11 6.5t11 4t12.5 3.5t13 1q100 0 100 -190q0 -33 -10 -79t-28.5 -93t-51 -80t-70.5 -33q-14 0 -25 5t-21 19t-13 19t-14 24q-11 21 -19.5 34.5
t-18 25.5t-17 18t-18.5 12.5t-22.5 7.5t-27 3.5t-33.5 1.5t-43 0h-29q-2 0 -18.5 1t-26.5 1t-21 -6t-13 -17l-15 -118q-3 -28 -3.5 -35.5t-1.5 -29.5t2 -30.5t9 -24t17 -26t28 -20.5q3 -2 12 -7.5t12.5 -8t11 -7.5t10.5 -9.5l7 -10.5t5.5 -13t1.5 -16q0 -41 -44 -73.5
t-107.5 -49t-118.5 -25t-91 -8.5q-32 0 -81 7.5t-104 23t-93.5 44.5t-38.5 65q0 9 2.5 17.5t4.5 14.5t9 12.5t10.5 10t13.5 9t13.5 7.5t15.5 8t15 7q22 12 38 27t24.5 26.5t15.5 34t9 35t7 43.5l19 118q2 8 -4 13.5t-21 7.5t-31 3t-40 0t-41 -2t-40.5 -2.5t-33.5 -2.5
q-31 -2 -62 -28t-51.5 -56t-47.5 -55t-52 -25q-26 0 -44 16t-27 36.5t-14 53t-5.5 51.5t-0.5 46q0 36 10 80t29 88.5t52.5 74t74.5 29.5q22 0 37.5 -10.5t25 -25t20.5 -29t32.5 -25t52.5 -10.5h90q113 0 123 10q5 3 8.5 13t4.5 18.5t2.5 21t1.5 14.5l30 211q0 2 2 13t2.5 17
t-1 14t-5.5 12q-6 5 -41.5 7t-65.5 1t-44 0q-57 8 -89 1t-54.5 -23.5t-35 -33.5t-31.5 -30t-44 -12q-33 1 -54.5 19.5t-30 51.5t-11 58.5t-2.5 60.5q0 33 9.5 78.5t27 93.5t49.5 80.5t71 32.5q9 0 18 -3.5t14.5 -7.5t12.5 -12.5t10 -13.5t10 -16.5t9 -14.5q12 -22 19 -34
t18 -25t15 -18.5t19.5 -11.5t20.5 -8t28.5 -3.5t34.5 -1.5h46h28q3 0 13.5 -0.5t19.5 -1t19 0.5t16 4t6 9l5 20q5 21 10.5 49t8 63.5t0 67t-16 57.5t-38.5 36q-30 13 -45.5 28.5t-15.5 43.5q0 41 44.5 73t107.5 48.5t118.5 25t91.5 8.5q32 0 81 -7.5t104.5 -22.5t94 -44
t38.5 -65q0 -11 -2.5 -20t-8 -16.5t-10 -12.5t-14.5 -11l-15 -9t-17.5 -9t-16.5 -8q-28 -15 -45 -31.5t-27 -40t-14 -41t-10 -53.5l-17 -121q-1 -20 53 -23.5t105.5 2t62.5 9.5q28 8 56.5 35t48.5 55t46 50t50 22q26 0 44 -16.5t26 -36t12.5 -54t5 -50.5t0.5 -46
q0 -36 -9.5 -80t-28.5 -88.5t-52.5 -74t-75.5 -29.5q-26 0 -43.5 15.5t-26.5 34t-33 34t-61 14.5h-86q-115 0 -124 -6q-5 -3 -8 -8.5t-4 -9t-2 -13t-1 -10.5z" />
    <glyph glyph-name="bullet" unicode="&#x2022;" horiz-adv-x="1484" 
d="M844 1075q149 0 253.5 -104.5t104.5 -253.5t-104.5 -254t-253.5 -105t-254 105t-105 254t105 253.5t254 104.5z" />
    <glyph glyph-name="ellipsis" unicode="&#x2026;" horiz-adv-x="2048" 
d="M360 424q97 0 162.5 -63.5t61.5 -163.5q-4 -105 -76 -172.5t-168 -67.5t-161.5 67.5t-61.5 172.5q4 100 75 163.5t168 63.5zM1042 424q97 0 162.5 -63.5t61.5 -163.5q-4 -105 -76 -172.5t-168 -67.5t-161.5 67.5t-61.5 172.5q4 100 75 163.5t168 63.5zM1724 424
q97 0 162.5 -63.5t61.5 -163.5q-4 -105 -76 -172.5t-168 -67.5t-161.5 67.5t-61.5 172.5q4 100 75 163.5t168 63.5z" />
    <glyph glyph-name="perthousand" unicode="&#x2030;" horiz-adv-x="2430" 
d="M1239 1260q-52 -87 -216.5 -355.5t-273 -455t-198.5 -359.5q-3 -5 -11 -21t-11 -21.5t-11 -17.5t-14 -17t-16 -11.5t-21 -9t-25 -2.5q-37 0 -78.5 12.5t-41.5 40.5q0 20 22 55l94 148q108 169 216 353t243 422.5t201 352.5q27 52 50.5 71t74.5 19q98 0 98 -47
q0 -20 -15 -49t-39 -65t-28 -43zM2013 137q19 0 32.5 10t22 30t12 33.5t7.5 35.5q37 167 37 256q0 76 -47 76q-44 0 -68 -78q-17 -57 -29 -147.5t-12 -151.5q0 -64 45 -64zM422 877q19 0 32.5 10t22 30t12 33t7.5 35q36 162 36 256q0 76 -47 76q-19 0 -33.5 -14t-20.5 -28
t-13 -36q-17 -57 -29 -147.5t-12 -151.5q0 -63 45 -63zM1968 -10q-88 0 -159 28.5t-116.5 92t-45.5 153.5q0 200 137 330.5t338 130.5q88 0 159.5 -28.5t117.5 -92t46 -153.5q0 -132 -64 -238t-173 -164.5t-240 -58.5zM377 729q-88 0 -159 28.5t-117 92.5t-46 154
q0 200 137 330t338 130q65 0 122.5 -17t103 -49.5t72 -86t26.5 -121.5q0 -132 -64 -238t-173 -164.5t-240 -58.5zM1114 -10q-88 0 -159 28.5t-116.5 92t-45.5 153.5q0 200 137 330.5t338 130.5q88 0 159.5 -28.5t117.5 -92t46 -153.5q0 -132 -64 -238t-173 -164.5
t-240 -58.5zM1159 137q19 0 32.5 10t22 30t12 33.5t7.5 35.5q37 167 37 256q0 76 -47 76q-44 0 -68 -78q-17 -57 -29 -147.5t-12 -151.5q0 -64 45 -64z" />
    <glyph glyph-name="guilsinglleft" unicode="&#x2039;" horiz-adv-x="626" 
d="M594 1014q31 0 56.5 -25.5t25.5 -54.5q0 -35 -38.5 -87.5t-84.5 -99t-84.5 -100.5t-38.5 -90q0 -47 68.5 -184.5t68.5 -184.5q0 -35 -28.5 -58.5t-65.5 -23.5q-53 0 -147.5 98t-167 215t-72.5 169q0 66 100 170t222 180t186 76z" />
    <glyph glyph-name="guilsinglright" unicode="&#x203a;" horiz-adv-x="626" 
d="M137 106q-31 0 -56.5 25.5t-25.5 54.5q0 35 38.5 87.5t84.5 99t84.5 100.5t38.5 90q0 47 -68.5 184.5t-68.5 184.5q0 35 28.5 58.5t65.5 23.5q53 0 147.5 -98t167 -215t72.5 -169q0 -66 -100 -170t-222 -180t-186 -76z" />
    <glyph glyph-name="fraction" unicode="&#x2044;" horiz-adv-x="272" 
d="M14 436l478 830q25 51 49 70.5t75 19.5q99 0 99 -47q0 -7 -2 -15.5t-6 -18.5t-8 -18.5t-11 -20.5t-11.5 -19t-13 -19.5t-11.5 -17.5t-11.5 -16.5t-9.5 -12.5l-185 -299l-389 -662l-112 -208q-14 -28 -20 -38.5t-19.5 -28.5t-30 -25t-39.5 -7q-39 0 -80 11.5t-41 39.5
q0 27 23 58l94 147l92 146z" />
    <glyph glyph-name="Euro" unicode="&#x20ac;" 
d="M1266 977q0 -67 -40 -113.5t-106 -46.5q-40 0 -63.5 21.5t-34 52.5t-21 61.5t-35.5 52t-67 21.5q-75 0 -131 -81t-88 -208h313q52 0 66 -26q15 -27 -6 -76l-31 -66q-15 -32 -38.5 -43.5t-74.5 -11.5h-266v-20q0 -49 8 -96.5t26.5 -94t54.5 -75.5t85 -29q42 0 72.5 21
t47.5 51t33.5 60t43 51t63.5 21q65 0 95 -46.5t16 -112.5q-19 -94 -91 -175t-143 -81q-22 0 -41.5 14t-27.5 14q-4 0 -15.5 -2t-30.5 -6t-36 -6q-82 -16 -146 -16q-92 0 -174 32t-144.5 90.5t-99 147.5t-36.5 197q0 10 1 30.5t1 30.5h-60q-51 0 -65 27q-15 26 6 75l31 66
q16 34 36 44.5t76 10.5h27q81 214 252 356t375 142q49 0 88.5 -15.5t40.5 -15.5q7 0 28.5 13.5t44.5 13.5q73 0 127 -80t54 -174z" />
    <glyph glyph-name="uni2113" unicode="&#x2113;" horiz-adv-x="1015" 
d="M940 330l49 -60q-101 -139 -216 -210.5t-259 -71.5q-179 0 -254 78q-39 45 -56 110.5t-1 194.5l4 37l-125 -56l-21 78l160 86l27 227q22 172 59 273.5t109 179.5q144 154 325 154q67 0 115.5 -23.5t73.5 -63.5t33.5 -88t1.5 -102q-18 -146 -113 -257.5t-295 -240.5
l-14 -118q-18 -144 13 -215.5t124 -71.5q117 0 260 160zM592 854l-19 -152q46 47 68.5 73t52.5 72t46.5 101t25.5 127q21 187 -55 187q-48 0 -67.5 -72.5t-47.5 -299.5l-1.5 -12t-1 -11t-1.5 -13z" />
    <glyph glyph-name="trademark" unicode="&#x2122;" horiz-adv-x="2048" 
d="M637 1178v-310q0 -54 11 -84t27 -39t32 -13t27 -14.5t11 -35.5q0 -20 -11.5 -35.5t-33.5 -24.5t-44 -14.5t-54 -8t-52 -3t-48 -0.5q-281 0 -281 90q0 25 16 37.5t35.5 15.5t36.5 20.5t19 51.5l18 342q3 54 -3.5 83t-14 34.5t-19.5 5.5q-17 0 -36.5 -22t-35.5 -48.5
t-44 -48.5t-60 -22t-52 26t-20 60q0 73 50 151t102 78q1 0 6 -1t14 -2.5t19 -2.5q50 -8 106 -8h291q62 0 92 10q36 8 47 8q35 0 69.5 -38t54.5 -89.5t20 -93.5q0 -44 -23.5 -70t-68.5 -26q-34 0 -59.5 21.5t-37 47t-28.5 47t-37 21.5q-15 0 -24 -8t-12.5 -24.5t-4 -26.5
t-0.5 -29v-8zM1548 1147l72 141q6 12 19.5 38t17.5 33t15 25.5t17 22.5t18.5 15t23.5 13t28.5 6.5t37.5 5.5t46 1q170 0 170 -76q0 -20 -7 -31t-17 -16.5t-20.5 -12.5t-19 -27.5t-10.5 -53.5q-10 -152 -10 -182q0 -36 5 -106.5t5 -106.5q0 -43 8 -69.5t19 -36.5t22 -16
t19 -15t8 -27q0 -77 -206 -76h-7h-7q-34 0 -57.5 1.5t-63 7t-61.5 22t-22 41.5q0 15 8.5 25.5t20 16.5t23 22t16.5 40q3 15 6.5 61t-2 95t-23.5 49q-37 0 -86 -131l-61 -135q-1 -2 -9 -20.5t-14 -29t-16.5 -21.5t-21.5 -11q-8 0 -14.5 2t-12.5 8t-10.5 12t-11.5 21t-12.5 28
t-16.5 38.5t-21 47.5l-69 154q-19 51 -41 51q-18 0 -22 -24t-3 -97v-16v-15.5v-17.5q0 -49 8 -76.5t19 -34t22 -9t19 -9.5t8 -26q0 -70 -172 -70q-150 0 -150 66q0 19 10.5 28.5t23.5 12.5t27.5 18t20.5 43q5 22 12 148.5t7 248.5q0 63 -10 99t-24.5 46t-28.5 13.5t-24 13
t-10 33.5q0 82 203 82q64 0 92 -6.5t41 -19.5t32 -48q1 -3 2.5 -5.5t2.5 -4.5l113 -207q1 -3 8.5 -17.5t12.5 -23.5t14.5 -17.5t19.5 -8.5q8 0 15 3.5t13 11.5t9 13t8 16t6 13z" />
    <glyph glyph-name="Omega" unicode="&#x2126;" horiz-adv-x="1574" 
d="M1534 360l-111 -360h-594l-16 55q46 65 79.5 118t82 140.5t81 181.5t44.5 185q53 448 -197 448q-125 0 -194.5 -106t-98.5 -342q-34 -271 125 -623l-22 -57h-604l-11 360h86q25 -74 55 -98t103 -24h166q-50 28 -90 55.5t-86 70.5t-74.5 88.5t-44 108.5t-6.5 131
q29 243 225 386t490 143q295 0 453.5 -141.5t129.5 -379.5q-10 -76 -51 -146t-107.5 -128.5t-129.5 -101t-144 -86.5h199q65 0 98.5 24t75.5 98h88z" />
    <glyph glyph-name="estimated" unicode="&#x212e;" horiz-adv-x="1638" 
d="M1579 592h-1122q-8 0 -8 -8v-338q0 -25 14 -39q84 -87 193 -135.5t231 -48.5q131 0 247 54t199 150h101q-95 -111 -239.5 -175t-309.5 -64q-188 0 -347 82.5t-252 225.5t-93 312q0 170 93 314t252 227.5t347 83.5t348 -83.5t253 -227.5t93 -314v-16zM1323 637v340
q0 28 -16 41q-85 83 -193 130.5t-227 47.5q-120 0 -229 -49t-193 -135q-16 -13 -16 -41v-334q0 -12 8 -12h860q6 0 6 12z" />
    <glyph glyph-name="partialdiff" unicode="&#x2202;" horiz-adv-x="1185" 
d="M625 782q73 0 131.5 -25.5t81.5 -66.5q32 88 49 199q9 58 12 89.5t-2.5 78t-24.5 84.5q-39 76 -129 76q-44 0 -92 -15t-98 -45t-79.5 -50t-74.5 -54q-24 0 -54.5 43t-43 93.5t5.5 90.5q58 24 83 33t93 21t150 12q317 0 461 -261q97 -180 69 -395q-29 -249 -166 -432
q-192 -270 -522 -270q-188 0 -288 105t-78 276q21 181 163 295q140 118 353 118zM707 666q-93 0 -158 -95q-89 -130 -113 -327q-20 -168 72 -168q74 0 162 160q79 149 135 348q-20 41 -41.5 61.5t-56.5 20.5z" />
    <glyph glyph-name="uni2206" unicode="&#x2206;" horiz-adv-x="1388" 
d="M1300 0h-1247l13 90l663 1096l174 35l410 -1131zM885 150l-234 698l-401 -698h635z" />
    <glyph glyph-name="product" unicode="&#x220f;" horiz-adv-x="1671" 
d="M1618 1249v-80q-66 -5 -99 -12.5t-53 -32t-24 -57.5t-4 -102v-818q0 -46 1.5 -73.5t9 -51.5t18 -35.5t33 -21t49 -13.5t71.5 -7v-82h-688v82q38 3 58 6t38 13t25.5 20t13 36t6 52.5t0.5 77.5v929q0 45 -12.5 55.5t-59.5 10.5h-198q-46 0 -57 -11.5t-11 -58.5v-925
q0 -52 0.5 -78.5t6 -53t12 -36.5t23.5 -19.5t35.5 -12t53.5 -5.5v-82h-676v82q43 3 69 7t48 14t32.5 22t18 36t9.5 52t2 74v815q0 46 -2 73.5t-9.5 52t-18.5 36.5t-34 21.5t-50.5 13.5t-72.5 7v80h1436z" />
    <glyph glyph-name="summation" unicode="&#x2211;" horiz-adv-x="1337" 
d="M1292 313l-106 -469h-1006v90l412 521l-397 704v90h985q15 -232 26 -370l-84 -23q-54 151 -90 211q-23 37 -40 53t-56 26.5t-109 10.5h-209l269 -502l-426 -538h444q39 0 59.5 0.5t46.5 4.5t38.5 8t31.5 17.5t29 26t28 39.5t32 53t38 72z" />
    <glyph glyph-name="minus" unicode="&#x2212;" 
d="M1008 406h-725h-20q-36 0 -51.5 1.5t-33 12.5t-23 35.5t-5.5 68.5t5.5 69t23.5 36t33 12.5t52 1.5h19h725q72 0 89 -5q36 -13 42 -74q2 -17 2 -40q0 -44 -5.5 -68.5t-23 -35.5t-32.5 -12.5t-52 -1.5h-20z" />
    <glyph glyph-name="uni2215" unicode="&#x2215;" horiz-adv-x="272" 
d="M14 436l478 830q25 51 49 70.5t75 19.5q99 0 99 -47q0 -7 -2 -15.5t-6 -18.5t-8 -18.5t-11 -20.5t-11.5 -19t-13 -19.5t-11.5 -17.5t-11.5 -16.5t-9.5 -12.5l-185 -299l-389 -662l-112 -208q-14 -28 -20 -38.5t-19.5 -28.5t-30 -25t-39.5 -7q-39 0 -80 11.5t-41 39.5
q0 27 23 58l94 147l92 146z" />
    <glyph glyph-name="uni2219" unicode="&#x2219;" horiz-adv-x="604" 
d="M328 813q97 0 162 -63.5t61 -163.5q-4 -105 -76 -172.5t-168 -67.5t-161.5 67.5t-61.5 172.5q4 100 75.5 163.5t168.5 63.5z" />
    <glyph glyph-name="radical" unicode="&#x221a;" horiz-adv-x="1259" 
d="M1266 1520l-353 -1794l-86 -33l-419 921l-168 -73l-33 96l432 190l250 -591h4l248 1306z" />
    <glyph glyph-name="infinity" unicode="&#x221e;" horiz-adv-x="1507" 
d="M1430 500q0 -80 -27 -147t-72 -109.5t-101 -66t-116 -23.5q-39 0 -71 5.5t-76.5 23t-89.5 58.5t-86 103q-71 -94 -146.5 -142t-175.5 -48q-127 0 -218 90.5t-91 240.5t93 244t234 94q102 0 177.5 -43.5t142.5 -136.5q3 4 21.5 25t27 30t29.5 29t36 30t39.5 25t47 22.5
t52 13t60.5 5.5q128 -2 219 -90.5t91 -232.5zM487 334q102 0 207 143q-25 39 -37 56.5t-34 44t-39.5 38t-43 20.5t-55.5 9q-61 0 -102 -42t-41 -118q0 -60 43.5 -105.5t101.5 -45.5zM1102 645q-32 0 -61.5 -13t-57 -40t-44 -46t-42.5 -54q68 -97 113.5 -127.5t103.5 -30.5
t93.5 47.5t35.5 101.5q0 69 -38 115.5t-103 46.5z" />
    <glyph glyph-name="integral" unicode="&#x222b;" horiz-adv-x="995" 
d="M457 -78l-43 682q-9 154 1.5 281.5t34.5 213t60.5 150.5t75 101.5t83 59t78 29.5t66.5 7q67 0 121.5 -35.5t54.5 -91.5q0 -69 -40.5 -106t-96.5 -37q-28 0 -49.5 24t-31 53.5t-21.5 53.5t-25 24q-23 0 -28 -45t3 -190l37 -639q10 -176 -7.5 -320.5t-55.5 -242
t-93.5 -164.5t-119 -97t-133.5 -30q-69 0 -122 38t-54 95q-1 60 55.5 104.5t114.5 44.5q26 0 43.5 -26.5t24.5 -58.5t18 -58.5t24 -26.5q23 0 28 53.5t-3 153.5z" />
    <glyph glyph-name="approxequal" unicode="&#x2248;" horiz-adv-x="1161" 
d="M983 846l129 -133q-67 -95 -146.5 -143t-150.5 -48q-60 0 -106 15t-109 51q-30 19 -47.5 28t-46 18t-57.5 9q-56 0 -101 -31t-96 -90l-127 131q49 76 141.5 133.5t184.5 57.5q110 0 192 -53q66 -42 94 -55t64 -13q84 0 182 123zM983 475l129 -133q-68 -95 -147 -142.5
t-154 -47.5q-58 0 -104.5 15.5t-106.5 49.5q-36 21 -51.5 29.5t-43 17t-54.5 8.5q-59 0 -103.5 -30.5t-95.5 -89.5l-127 131q48 76 141.5 133t184.5 57q105 0 192 -53q9 -5 35.5 -22.5t38.5 -24t35 -14t45 -7.5q50 0 90.5 29t95.5 94z" />
    <glyph glyph-name="notequal" unicode="&#x2260;" horiz-adv-x="1175" 
d="M926 909l-58 -127h224v-194h-308l-90 -201h398v-197h-484l-90 -200l-160 71l60 129h-228v197h312l90 201h-402v194h486l90 199z" />
    <glyph glyph-name="lessequal" unicode="&#x2264;" horiz-adv-x="1206" 
d="M1120 246l-899 383v209l899 381v-215l-688 -269v-4l688 -270v-215zM1122 -12h-901v200h901v-200z" />
    <glyph glyph-name="greaterequal" unicode="&#x2265;" horiz-adv-x="1206" 
d="M221 1219l901 -383v-209l-899 -381v215l688 270v4l-690 269v215zM1110 -12h-889v200h889v-200z" />
    <glyph glyph-name="lozenge" unicode="&#x25ca;" horiz-adv-x="1343" 
d="M1270 586l-408 -721h-248l-405 721l412 725h241zM1038 586l-295 540h-8l-295 -540l297 -549h4z" />
    <glyph glyph-name="fi" unicode="&#xfb01;" horiz-adv-x="1593" 
d="M995 233l54 349q3 15 8 41.5t7.5 42.5t2.5 28q0 21 -10 31t-35 10q-18 0 -26.5 1t-24 7t-22.5 22t-7 42q0 25 11.5 47.5t25 37t40 30t41.5 22.5t44 19q79 34 181 60t175 26q92 0 92 -95q0 -30 -5 -79t-10.5 -87t-12 -80t-6.5 -44q-35 -199 -52 -338q-1 -14 2 -22.5
t12.5 -12t17.5 -4t24 -0.5q24 0 36 -2t21.5 -14t9.5 -35q0 -55 -52 -104.5t-125 -80t-144.5 -48t-118.5 -17.5q-64 0 -115 36t-51 97q0 36 12 114zM1206 1133q-182 10 -182 112q0 58 47.5 107.5t116 78.5t138 45.5t122.5 16.5q67 0 119 -28.5t51 -88.5q-1 -70 -79.5 -130
t-172.5 -88.5t-160 -24.5zM879 788l-7 -92q-2 -47 -7 -55q-8 -12 -48 -12q-43 -1 -54.5 -15.5t-19.5 -62.5l-79 -631q0 -9 0.5 -33.5t0 -34.5t-2 -29.5t-5.5 -30.5t-11 -26t-18.5 -26.5t-27.5 -22.5q-48 -33 -146.5 -58.5t-162.5 -25.5q-32 0 -63 6.5t-60.5 19.5t-47.5 38.5
t-18 58.5q0 44 37 76q15 14 24 24.5t14.5 24t8 21.5t6.5 30.5t7 36.5q36 152 66 328.5t30 282.5q0 15 -5 25t-9.5 15.5t-17.5 8t-18.5 3t-23.5 0t-22 -0.5q-52 0 -67 6.5t-15 32.5q0 11 4 61l6 68q1 5 2.5 19.5t3 18.5t6 11t12.5 9t21 1q9 0 29 -1t29.5 -0.5t22 2.5t18 8
t5.5 16q0 14 -14.5 34.5t-31.5 42t-31.5 65.5t-14.5 99q0 82 39 149t102.5 108.5t139.5 64t153 22.5q69 0 131 -22t107 -73t45 -122q0 -74 -45.5 -126t-118.5 -52q-53 0 -90 19t-86 61q-3 2 -16 13.5t-20.5 17t-19.5 11t-22 5.5q-24 0 -38.5 -17t-14.5 -40q0 -36 27 -63.5
t65 -37.5q45 -13 71 -21.5t63 -26.5t61 -43.5t37 -59.5q3 -9 5 -14t5.5 -9.5t4.5 -6t7 -2.5t8 -1h12.5h16.5q53 0 61.5 -8t4.5 -62z" />
    <glyph glyph-name="fl" unicode="&#xfb02;" horiz-adv-x="1654" 
d="M1616 1366l-109 -991q0 -72 35 -72q10 0 31 3t31 3q45 0 45 -63q0 -48 -36 -92t-90.5 -73.5t-119 -51.5t-122 -32.5t-99.5 -10.5q-88 0 -131.5 46t-34.5 152q17 193 64.5 538t54.5 411q3 26 -5.5 37.5t-33.5 11.5q-8 0 -24.5 -2t-24.5 -2q-64 0 -64 59q0 36 14.5 63.5
t44.5 46.5t53.5 29t63.5 23q197 65 340 65q59 0 88 -21t29 -77zM879 788l-7 -92q-2 -47 -7 -55q-8 -12 -48 -12q-43 -1 -54.5 -15.5t-19.5 -62.5l-79 -631q0 -9 0.5 -33.5t0 -34.5t-2 -29.5t-5.5 -30.5t-11 -26t-18.5 -26.5t-27.5 -22.5q-48 -33 -146.5 -58.5t-162.5 -25.5
q-32 0 -63 6.5t-60.5 19.5t-47.5 38.5t-18 58.5q0 44 37 76q15 14 24 24.5t14.5 24t8 21.5t6.5 30.5t7 36.5q36 152 66 328.5t30 282.5q0 15 -5 25t-9.5 15.5t-17.5 8t-18.5 3t-23.5 0t-22 -0.5q-52 0 -67 6.5t-15 32.5q0 11 4 61l6 68q1 5 2.5 19.5t3 18.5t6 11t12.5 9
t21 1q9 0 29 -1t29.5 -0.5t22 2.5t18 8t5.5 16q0 14 -14.5 34.5t-31.5 42t-31.5 65.5t-14.5 99q0 82 39 149t102.5 108.5t139.5 64t153 22.5q69 0 131 -22t107 -73t45 -122q0 -74 -45.5 -126t-118.5 -52q-53 0 -90 19t-86 61q-3 2 -16 13.5t-20.5 17t-19.5 11t-22 5.5
q-24 0 -38.5 -17t-14.5 -40q0 -36 27 -63.5t65 -37.5q45 -13 71 -21.5t63 -26.5t61 -43.5t37 -59.5q3 -9 5 -14t5.5 -9.5t4.5 -6t7 -2.5t8 -1h12.5h16.5q53 0 61.5 -8t4.5 -62z" />
    <glyph glyph-name="a.superior" horiz-adv-x="839" 
d="M813 1415q0 -37 -18.5 -154.5t-18.5 -177.5v-5q0 -15 1 -21.5t6.5 -12t17.5 -6.5q15 0 25 -8.5t10 -23.5q0 -37 -47.5 -72.5t-103 -54.5t-89.5 -19q-36 0 -55 15t-21 33t-5 33t-11 15q-7 0 -26 -16t-41.5 -35t-61.5 -35t-80 -16q-77 0 -116.5 55t-39.5 135
q0 70 31.5 153.5t77.5 137.5q45 53 107 91t122 38q44 0 86.5 -23.5t52.5 -23.5q9 0 59.5 23.5t86.5 23.5q27 0 39 -11t12 -38zM436 1044q39 7 85 100t44 150q0 13 -4.5 25t-15.5 8q-30 -10 -60.5 -53.5t-49.5 -98t-19 -96.5q0 -14 4.5 -26t15.5 -9z" />
    <glyph glyph-name="o.superior" horiz-adv-x="839" 
d="M451 852q-119 0 -200 58t-81 173q0 109 57.5 198.5t150 138t197.5 48.5q119 0 200 -58t81 -173q0 -109 -57.5 -198.5t-150 -138t-197.5 -48.5zM485 987q42 0 58 84q30 143 30 215q0 51 -32 51q-45 0 -62 -90q-26 -117 -26 -215q0 -45 32 -45z" />
    <glyph glyph-name="one.superior" horiz-adv-x="724" 
d="M283 780l14 146q2 26 -13 47.5t-44 21.5q-13 0 -41 -12q-4 -1 -13 -5t-17 -6.5t-13 -2.5q-19 0 -28 16t-9 35q0 21 6 36.5t21 28t26 18.5t37 19q70 31 206 66t206 35q38 0 57.5 -12.5t19.5 -45.5q0 -36 -45 -63q-25 -14 -32.5 -23.5t-14.5 -38.5q-44 -183 -39 -338
q1 -48 16 -59.5t68 -13.5q49 -5 61 -14q13 -11 13 -37q0 -97 -320 -95h-8h-6q-7 0 -35 -1t-51 -1t-55.5 1t-57.5 6t-48 13.5t-35.5 23.5t-12.5 36q0 14 4.5 23.5t8.5 14.5t17.5 9t18.5 4.5t25 3.5q33 3 47.5 10t30.5 31q24 35 35 123z" />
    <glyph glyph-name="two.superior" horiz-adv-x="724" 
d="M629 731q1 1 10 14.5t12 16.5t11.5 11t17.5 10.5t20 2.5q56 0 56 -75q0 -92 -41 -176q-44 -95 -103 -95q-29 0 -45 29q-13 19 -14 20q-10 5 -66 5h-288q-4 0 -23 -0.5t-29 0t-28.5 1.5t-29.5 5t-23 10t-17.5 16.5t-5.5 24.5t8 29t14 21.5t21 21.5l90 75q43 34 95 82.5
t101.5 113t49.5 101.5q0 24 -16.5 39t-43.5 15q-28 0 -59.5 -15t-54 -32.5t-48 -32.5t-44.5 -15q-27 0 -47.5 25t-20.5 51q0 61 156 141q142 64 264 64q58 0 108.5 -13.5t89.5 -50.5t39 -92q0 -69 -57 -135l-119 -121l-41 -37q-2 -2 -12.5 -12t-16 -15.5t-11 -14.5t-5.5 -15
t2 -10.5t7 -7t9 -4t11.5 -2t11.5 -0.5h11.5h9.5h15.5h14t11 0.5t11.5 2t10 4.5t11 7.5t11 11.5z" />
    <glyph glyph-name="three.superior" horiz-adv-x="724" 
d="M330 745q-53 -3 -70.5 9t-17.5 61q0 20 1 27.5t8.5 15.5t24.5 12q51 14 90.5 46t39.5 75q0 27 -17 42.5t-47 15.5q-55 0 -129 -58q-3 -2 -10 -8t-10.5 -8t-9.5 -5.5t-12 -5t-13 -1.5q-26 0 -45 23t-19 48q0 69 144 137q131 64 249 64q92 0 160 -40t68 -120q0 -32 -13 -62
t-28 -47t-28 -32.5t-13 -22.5q0 -11 17 -25t37 -28t37 -45.5t17 -73.5q0 -72 -34 -144.5t-93 -117.5q-122 -96 -311 -96q-37 0 -77.5 5.5t-85 18.5t-73 39.5t-28.5 63.5q0 19 14 37t33 18q12 0 64.5 -19.5t99.5 -19.5q75 0 117 29q57 42 57 113q0 46 -23 67q-7 6 -16.5 9
t-15.5 3.5t-20 0t-19 -0.5z" />
    </font>
</defs>
</svg>
