<svg xmlns="http://www.w3.org/2000/svg" width="54" height="54" viewBox="0 0 54 54">
  <g id="giveaway_gift" transform="translate(-1053 -1304)">
    <g id="Group_66" data-name="Group 66">
      <g id="Ellipse_4" data-name="Ellipse 4" transform="translate(1053 1304)" fill="#b13fff" stroke="#fff" stroke-width="1">
        <circle cx="27" cy="27" r="27" stroke="none"/>
        <circle cx="27" cy="27" r="26.5" fill="none"/>
      </g>
      <g id="give" transform="translate(573.3 1114.1)">
        <path id="Path_39" data-name="Path 39" d="M521.543,216.128c-.989,0-1.978-.008-2.974-.008H507.56v-5.6h-1.853V216.1H491.716c-.008-.093-.016-.187-.016-.28v-6.1a.953.953,0,0,1,1.067-1.082h5.139c-.1-.5-.218-.973-.3-1.448a3.482,3.482,0,0,1,1.721-3.776,2.775,2.775,0,0,1,2.414-.21,7.346,7.346,0,0,1,2.818,1.76c.693.662,1.308,1.409,1.954,2.118a2.012,2.012,0,0,1,.163.21c.078-.109.14-.2.2-.3a11.109,11.109,0,0,1,3.254-3.371,3.853,3.853,0,0,1,2.8-.662,3.141,3.141,0,0,1,2.593,2.593,6.729,6.729,0,0,1-.016,2.9c-.008.047-.016.093-.031.171.125.008.226.016.327.016,1.526,0,3.052.016,4.57-.008a1.1,1.1,0,0,1,1.16.724Q521.547,212.745,521.543,216.128Zm-13.477-7.583a.853.853,0,0,0,.078.086c1.752,0,3.511,0,5.263-.008a.244.244,0,0,0,.179-.132,4.854,4.854,0,0,0,.047-2.787,1.273,1.273,0,0,0-1.666-.864,3.679,3.679,0,0,0-.825.358,6.177,6.177,0,0,0-1.736,1.534C508.938,207.314,508.509,207.937,508.066,208.545Zm-2.748.07c-.054-.093-.086-.148-.117-.195a10.99,10.99,0,0,0-2.834-2.826,7.463,7.463,0,0,0-1.3-.638.936.936,0,0,0-.934.148,1.487,1.487,0,0,0-.693,1.448c.078.6.241,1.191.358,1.791.039.218.14.288.374.288q2.417-.012,4.835-.008A2.2,2.2,0,0,0,505.317,208.615Z" fill="#fff"/>
        <path id="Path_40" data-name="Path 40" d="M522.408,396.9h11.577v11.2h1.861V396.908h11.6v11.943c0,.8-.335,1.145-1.129,1.145H523.529c-.786,0-1.129-.343-1.129-1.145V397.235C522.408,397.126,522.408,397.017,522.408,396.9Z" transform="translate(-28.31 -178.896)" fill="#fff"/>
      </g>
    </g>
  </g>
</svg>
