<svg xmlns="http://www.w3.org/2000/svg" width="54" height="54" viewBox="0 0 54 54">
  <g id="giveaway_money" transform="translate(-1053 -1304)">
    <g id="Group_66" data-name="Group 66">
      <g id="Ellipse_4" data-name="Ellipse 4" transform="translate(1053 1304)" fill="#f34235" stroke="#fff" stroke-width="1">
        <circle cx="27" cy="27" r="27" stroke="none"/>
        <circle cx="27" cy="27" r="26.5" fill="none"/>
      </g>
      <g id="Group_80" data-name="Group 80" transform="translate(514.302 1088.579)">
        <path id="Path_66" data-name="Path 66" d="M567.749,259.3h-2.967c-.1-.015-.193-.038-.291-.046-.941-.074-1.887-.114-2.824-.225a15.345,15.345,0,0,1-5.856-1.758,7.571,7.571,0,0,1-3.933-5.294,11.444,11.444,0,0,1,.354-5.406,23.836,23.836,0,0,1,4.879-8.841,18.465,18.465,0,0,1,5.451-4.611c.022-.012.031-.049.046-.074a9.7,9.7,0,0,1-3.071-3.648,5.435,5.435,0,0,1-.693-2.547,1.256,1.256,0,0,1,1.561-1.283,4.264,4.264,0,0,1,.789.226c.634.247,1.257.519,1.889.77a3.609,3.609,0,0,0,2.417.121c1.021-.3,2.048-.581,3.085-.818a10.861,10.861,0,0,1,1.822-.235c.45-.025.589.142.6.594a2.824,2.824,0,0,1-.076.75,11.82,11.82,0,0,1-3.212,5.686.837.837,0,0,1-.245.129c.9.545,1.749.977,2.51,1.527a25.5,25.5,0,0,1,8.169,9.991,14.509,14.509,0,0,1,1.541,6.179,7.406,7.406,0,0,1-4.1,6.962,15.482,15.482,0,0,1-5.754,1.653C569.148,259.185,568.448,259.236,567.749,259.3Zm-1.335-7.366a4.637,4.637,0,0,0,2.288-.8,2.9,2.9,0,0,0-.338-4.932,8.859,8.859,0,0,0-.908-.384c-.341-.13-.83-.146-1-.388s-.045-.72-.046-1.094q0-.952,0-1.9a1.816,1.816,0,0,1,1.694,1.181.9.9,0,0,0,.588.655.785.785,0,0,0,.82-.2.849.849,0,0,0,.186-.944,3.306,3.306,0,0,0-2.16-2.146c-.358-.128-.734-.2-1.129-.311,0-.255,0-.517,0-.778a.846.846,0,0,0-.823-.922.832.832,0,0,0-.84.9c-.009.273,0,.546,0,.829l-.376.083a4.211,4.211,0,0,0-1.767.839,2.755,2.755,0,0,0,.375,4.557,11.444,11.444,0,0,0,1.524.6c.169.06.25.12.248.314-.01.945,0,1.889-.006,2.834a1.136,1.136,0,0,1-.037.2,2.188,2.188,0,0,1-1.567-1.444,1.338,1.338,0,0,0-.343-.54.76.76,0,0,0-.949-.017.811.811,0,0,0-.325.9,3.707,3.707,0,0,0,2.405,2.6c.263.1.639.109.772.3s.037.55.047.835a.833.833,0,1,0,1.662,0C566.422,252.475,566.414,252.213,566.414,251.935Z" transform="translate(0 0)" fill="#fff"/>
        <path id="Path_67" data-name="Path 67" d="M690.6,429.569a11.1,11.1,0,0,1,1.341.6,1.2,1.2,0,0,1,.1,1.863,2.3,2.3,0,0,1-1.443.592Z" transform="translate(-124.167 -182.383)" fill="#fff"/>
        <path id="Path_68" data-name="Path 68" d="M661.915,384.748v2.742a10.423,10.423,0,0,1-1.164-.611,1.062,1.062,0,0,1-.1-1.456A1.857,1.857,0,0,1,661.915,384.748Z" transform="translate(-97.184 -142.317)" fill="#fff"/>
      </g>
    </g>
  </g>
</svg>
