<svg xmlns="http://www.w3.org/2000/svg" width="54" height="54" viewBox="0 0 54 54">
  <g id="launch" transform="translate(-1053 -1570)">
    <g id="Group_74" data-name="Group 74">
      <g id="Group_69" data-name="Group 69" transform="translate(0 136)">
        <g id="Ellipse_5" data-name="Ellipse 5" transform="translate(1053 1434)" fill="#5247e6" stroke="#fff" stroke-width="1">
          <circle cx="27" cy="27" r="27" stroke="none"/>
          <circle cx="27" cy="27" r="26.5" fill="none"/>
        </g>
      </g>
      <g id="Group_71" data-name="Group 71" transform="translate(-256.948 29.744)">
        <g id="Group_70" data-name="Group 70" transform="translate(1324.253 1554.565)">
          <path id="Path_44" data-name="Path 44" d="M603.828,195.471c-.049.506-.094,1.012-.149,1.517a17.7,17.7,0,0,1-4.705,10.477,21.193,21.193,0,0,1-5.51,4.314l-.116.061-9.326-9.347c.182-.32.375-.686.592-1.037a20.682,20.682,0,0,1,7.08-7.051,16.59,16.59,0,0,1,5.719-2.038c.909-.157,1.834-.221,2.752-.329.067-.008.132-.025.2-.038H602.4c.074.015.148.034.222.043a1.332,1.332,0,0,1,1.138,1.015c.028.122.044.248.066.372Zm-12.033,4.756a3.82,3.82,0,1,0,3.821-3.825A3.8,3.8,0,0,0,591.795,200.228Z" transform="translate(-577.741 -192)" fill="#fff"/>
          <path id="Path_45" data-name="Path 45" d="M662.828,485.013a1.424,1.424,0,0,1-1.088-1.062c-.142-.715-.237-1.44-.358-2.191a17.575,17.575,0,0,0,3.912-1.269,20.758,20.758,0,0,0,3.581-2.124c-.029.37-.054.679-.078.989-.034.432-.064.864-.1,1.3a1.94,1.94,0,0,1-.886,1.5q-1.966,1.318-3.947,2.614a3.793,3.793,0,0,1-.524.242Z" transform="translate(-649.835 -458.875)" fill="#fff"/>
          <path id="Path_46" data-name="Path 46" d="M492.307,489.332c-.041-.026-.081-.054-.123-.077a.76.76,0,0,1-.217-1.223c.171-.188.358-.363.538-.543q2.1-2.109,4.211-4.217a.765.765,0,0,1,1.33.3.822.822,0,0,1-.281.823q-1.8,1.8-3.6,3.6c-.276.276-.545.56-.83.827-.195.182-.412.341-.619.51Z" transform="translate(-491.747 -463.194)" fill="#fff"/>
          <path id="Path_47" data-name="Path 47" d="M559.749,520.595c-.046-.019-.091-.04-.138-.057a.754.754,0,0,1-.308-1.246c.829-.853,1.673-1.692,2.52-2.527a.754.754,0,0,1,1.059,0,.742.742,0,0,1,.028,1.057q-1.254,1.287-2.539,2.544a1.73,1.73,0,0,1-.418.228Z" transform="translate(-554.501 -494.457)" fill="#fff"/>
          <path id="Path_48" data-name="Path 48" d="M569.92,378.011a13.987,13.987,0,0,1-3.1.863,1.216,1.216,0,0,1-1.071-.366q-2.392-2.385-4.772-4.781a1.268,1.268,0,0,1-.351-1.244c.156-.661.31-1.322.487-1.977.092-.342.233-.67.343-.978Z" transform="translate(-555.898 -357.444)" fill="#fff"/>
          <path id="Path_49" data-name="Path 49" d="M498.427,295.7a20.9,20.9,0,0,0-2.123,3.6,17.442,17.442,0,0,0-1.261,3.918c-.778-.131-1.546-.221-2.293-.4a1.31,1.31,0,0,1-.944-1.43,1.68,1.68,0,0,1,.248-.684c.844-1.306,1.7-2.6,2.563-3.9a1.983,1.983,0,0,1,1.561-.927Z" transform="translate(-491.793 -288.643)" fill="#fff"/>
          <path id="Path_50" data-name="Path 50" d="M496.045,450.012a2.39,2.39,0,0,1-.3.533c-.8.827-1.622,1.641-2.441,2.453a.763.763,0,1,1-1.082-1.075q1.217-1.231,2.444-2.451a.749.749,0,0,1,.861-.19A.893.893,0,0,1,496.045,450.012Z" transform="translate(-491.957 -431.712)" fill="#fff"/>
          <path id="Path_51" data-name="Path 51" d="M720.685,281.475a2.291,2.291,0,1,1,2.266,2.3A2.292,2.292,0,0,1,720.685,281.475Z" transform="translate(-705.102 -273.251)" fill="#fff"/>
        </g>
      </g>
    </g>
  </g>
</svg>
