<svg xmlns="http://www.w3.org/2000/svg" width="54" height="54" viewBox="0 0 54 54">
  <g id="nft_giveaway" transform="translate(-1053 -1434)">
    <g id="Group_68" data-name="Group 68">
      <g id="Ellipse_5" data-name="Ellipse 5" transform="translate(1053 1434)" fill="#22a2b3" stroke="#fff" stroke-width="1">
        <circle cx="27" cy="27" r="27" stroke="none"/>
        <circle cx="27" cy="27" r="26.5" fill="none"/>
      </g>
      <g id="Group_67" data-name="Group 67" transform="translate(487.185 1124.69)">
        <path id="Path_41" data-name="Path 41" d="M583.429,339.824v-.671q0-5.628,0-11.257a2.7,2.7,0,0,1,.106-.869.956.956,0,0,1,1.093-.662,1,1,0,0,1,.925.895,2.7,2.7,0,0,1,.016.442q0,8.348,0,16.7c0,.147.05.338-.021.435-.234.316-.471.765-.789.847a1.719,1.719,0,0,1-1.1-.363c-.186-.113-.257-.422-.37-.647q-2.976-5.958-5.948-11.917a1.287,1.287,0,0,0-.381-.492v.639q0,5.66,0,11.32a3.863,3.863,0,0,1-.021.631,1.066,1.066,0,0,1-2.119-.051,3.488,3.488,0,0,1-.011-.442q0-8.316,0-16.632c0-.042,0-.084,0-.126.012-.682.3-1.12.851-1.233a1.088,1.088,0,0,1,1.259.714q1.732,3.473,3.46,6.947,1.45,2.907,2.9,5.813Z" transform="translate(0 -0.024)" fill="#fff"/>
        <path id="Path_42" data-name="Path 42" d="M660.092,334.967h3.279c.295,0,.59-.01.884,0,.727.032,1.159.428,1.165,1.055a1.041,1.041,0,0,1-1.144,1.072c-1.157.022-2.314.008-3.472.009h-.747v2.2c0,1.728.009,3.457,0,5.185-.007.942-.714,1.488-1.478,1.165a1.082,1.082,0,0,1-.67-1.11c.006-1.6,0-3.2,0-4.806q0-5.976,0-11.952c0-1.131.339-1.473,1.465-1.474,2.63,0,5.26-.007,7.891.007a1.993,1.993,0,0,1,.9.2.944.944,0,0,1,.46,1.141.986.986,0,0,1-1.008.8c-1.178.01-2.357.006-3.535.007h-3.993Z" transform="translate(-69.074)" fill="#fff"/>
        <path id="Path_43" data-name="Path 43" d="M734.721,328.465v.818q0,7.366,0,14.732c0,.148,0,.3,0,.443-.017.79-.438,1.3-1.079,1.3s-1.069-.505-1.069-1.294q0-7.588,0-15.175v-.823c-1.127,0-2.194.015-3.26-.006a1.006,1.006,0,0,1-1.037-.975,1.062,1.062,0,0,1,.944-1.144,2.717,2.717,0,0,1,.441-.02h7.953a3.107,3.107,0,0,1,.378.009,1.1,1.1,0,0,1,1.03,1.142,1.05,1.05,0,0,1-1.1.99C736.889,328.478,735.859,328.465,734.721,328.465Z" transform="translate(-127.572 -0.006)" fill="#fff"/>
      </g>
    </g>
  </g>
</svg>
