<svg xmlns="http://www.w3.org/2000/svg" width="54" height="54" viewBox="0 0 54 54">
  <g id="party" transform="translate(-1053 -1706)">
    <g id="Group_72" data-name="Group 72" transform="translate(0 272)">
      <g id="Ellipse_5" data-name="Ellipse 5" transform="translate(1053 1434)" fill="#ffa764" stroke="#fff" stroke-width="1">
        <circle cx="27" cy="27" r="27" stroke="none"/>
        <circle cx="27" cy="27" r="26.5" fill="none"/>
      </g>
    </g>
    <g id="Group_75" data-name="Group 75" transform="translate(570.554 1527)">
      <path id="Path_52" data-name="Path 52" d="M717.522,192c.7.34.8.719.448,1.43a1.055,1.055,0,0,0-.026.548c.039.355.137.7.154,1.059a1.107,1.107,0,0,1-1.276,1.275,10.553,10.553,0,0,1-1.112-.17c-.477-.077-.558.005-.473.48.058.324.126.647.166.974a1.146,1.146,0,0,1-1.274,1.416c-.391-.016-.778-.119-1.169-.17-.437-.057-.49,0-.422.425.049.307.116.611.162.918a1.219,1.219,0,0,1-1.518,1.518c-.344-.053-.683-.13-1.027-.179-.278-.04-.351.026-.322.3s.1.575.139.863a3.561,3.561,0,0,1,.048.477,1.141,1.141,0,0,1-1.364,1.253c-.326-.034-.65-.1-.972-.162a.836.836,0,0,0-.693.11.819.819,0,0,1-1.09-.184.851.851,0,0,1,.064-1.134,1.882,1.882,0,0,1,1.5-.511c.243.011.484.051.758.081a2.463,2.463,0,0,1,.426-2.261,2.424,2.424,0,0,1,2.273-.435,2.05,2.05,0,0,1,2.7-2.7,2.4,2.4,0,0,1,.428-2.272,2.378,2.378,0,0,1,2.266-.423c-.023-.174-.044-.328-.063-.483a2.364,2.364,0,0,1,.184-1.379,1.379,1.379,0,0,1,.693-.666Z" transform="translate(-194.032)" fill="#fff"/>
      <path id="Path_53" data-name="Path 53" d="M496.5,493.691a.9.9,0,0,1-.529-1.346l1.929-5.154c.032-.084.068-.167.088-.216.5.872.958,1.781,1.524,2.615s1.236,1.582,1.871,2.381c-.041.017-.121.056-.2.087l-4.14,1.559a1.448,1.448,0,0,0-.145.074Z" transform="translate(0 -272.723)" fill="#fff"/>
      <path id="Path_54" data-name="Path 54" d="M603.7,318.121c-.145.058-.274.111-.4.16-.914.345-1.829.686-2.74,1.035a.328.328,0,0,1-.379-.055,13.452,13.452,0,0,1-4.944-9.027,13.293,13.293,0,0,1,.966-6.773c.029-.069.059-.138.092-.2.007-.015.029-.023.059-.045.788.791,1.549,1.617,2.379,2.365a2.06,2.06,0,0,1,.727,1.74,15.021,15.021,0,0,0,4.1,10.637C603.6,318,603.642,318.051,603.7,318.121Z" transform="translate(-91.801 -102.822)" fill="#fff"/>
      <path id="Path_55" data-name="Path 55" d="M545.679,369.928c-1.128.424-2.216.838-3.31,1.234a.417.417,0,0,1-.333-.105,13.224,13.224,0,0,1-3.729-5.533,2.235,2.235,0,0,1,.023-2.278q1.109-2.958,2.216-5.917a.962.962,0,0,1,.1-.2A15.517,15.517,0,0,0,545.679,369.928Z" transform="translate(-38.978 -152.667)" fill="#fff"/>
      <path id="Path_56" data-name="Path 56" d="M674.754,367.185c.1.095.173.153.237.217q3.374,3.379,6.748,6.758a.984.984,0,0,1,.367.734.818.818,0,0,1-.547.785q-1.157.447-2.323.866a.337.337,0,0,1-.283-.073,13.351,13.351,0,0,1-3.542-5.6A12.8,12.8,0,0,1,674.754,367.185Z" transform="translate(-165.41 -161.97)" fill="#fff"/>
      <path id="Path_57" data-name="Path 57" d="M761.358,350.361c-.194-.042-.385-.1-.579-.125a6.411,6.411,0,0,0-4.893,1.337c-.392.289-.741.637-1.113.954a.848.848,0,0,1-1.02.095.813.813,0,0,1-.363-.929,1,1,0,0,1,.237-.406,9.131,9.131,0,0,1,5.02-2.721,6.627,6.627,0,0,1,2.988.135.84.84,0,0,1,0,1.607A2.314,2.314,0,0,1,761.358,350.361Z" transform="translate(-238.083 -144.657)" fill="#fff"/>
      <path id="Path_58" data-name="Path 58" d="M670.458,202.335a9.139,9.139,0,0,1-2.585,5.947c-.1.111-.2.222-.314.325a.841.841,0,0,1-1.193.007.883.883,0,0,1-.011-1.2,16.745,16.745,0,0,0,1.435-1.877,5.883,5.883,0,0,0,.741-4.559A.838.838,0,0,1,669.1,200a.808.808,0,0,1,1.038.535C670.286,201.126,670.356,201.734,670.458,202.335Z" transform="translate(-157.432 -7.362)" fill="#fff"/>
      <path id="Path_59" data-name="Path 59" d="M818.491,415.593a.837.837,0,0,1-.818.862.847.847,0,1,1-.028-1.693A.833.833,0,0,1,818.491,415.593Z" transform="translate(-296.745 -205.957)" fill="#fff"/>
      <path id="Path_60" data-name="Path 60" d="M643.89,240.678a.845.845,0,1,1-1.69.009.845.845,0,0,1,1.69-.009Z" transform="translate(-135.312 -44.234)" fill="#fff"/>
      <path id="Path_61" data-name="Path 61" d="M754.187,225.544a.843.843,0,1,1,.832-.848A.827.827,0,0,1,754.187,225.544Z" transform="translate(-238.065 -29.454)" fill="#fff"/>
      <path id="Path_62" data-name="Path 62" d="M834.414,304.238a.843.843,0,1,1-.846-.841A.841.841,0,0,1,834.414,304.238Z" transform="translate(-311.467 -102.994)" fill="#fff"/>
    </g>
  </g>
</svg>
