<?xml version="1.0" standalone="no"?>
<!DOCTYPE svg PUBLIC "-//W3C//DTD SVG 1.1//EN" "http://www.w3.org/Graphics/SVG/1.1/DTD/svg11.dtd" >
<svg xmlns="http://www.w3.org/2000/svg" xmlns:xlink="http://www.w3.org/1999/xlink" version="1.1">
<metadata>
Created by FontForge 20170731 at Wed Jun 22 11:25:23 2016
 By Aleksey,,,
(c) 1996-2016 Typodermic Fonts Inc.
</metadata>
<defs>
<font id="MetalLord-Regular" horiz-adv-x="706" >
  <font-face 
    font-family="Metal Lord"
    font-weight="400"
    font-stretch="normal"
    units-per-em="1000"
    panose-1="4 1 0 0 0 0 0 0 0 0"
    ascent="730"
    descent="-270"
    cap-height="712"
    bbox="-516 -274 1220 1107"
    underline-thickness="20"
    underline-position="-163"
    unicode-range="U+0017-E03C"
  />
<missing-glyph horiz-adv-x="641" 
d="M126 -169q-96 0 -96 83v792q0 84 96 84h388q97 0 97 -84v-792q0 -83 -97 -83h-388zM298 484l-97 -129l138 -130l185 267l-140 170h-250v-178h164zM329 176l-122 -123l122 -122l122 122z" />
    <glyph glyph-name="L_A" unicode="LA" horiz-adv-x="960" 
d="M351 -270h-13l-298 231v751h173v-649l138 -106v-227zM515 463l195 249h210v-712h-185l-200 192l-152 -195l-147 107l167 214l-77 74l114 143zM640 337l107 -102v236z" />
    <glyph glyph-name="L_L" unicode="LL" horiz-adv-x="614" 
d="M351 -270h-13l-298 231v751h173v-649l138 -106v-227zM604 -122h-13l-298 231v603h173v-501l138 -106v-227z" />
    <glyph glyph-name="C_A" unicode="CA" horiz-adv-x="1194" 
d="M674 535l73 -72l197 249h210v-712h-185l-209 200l-127 -156l-103 145l104 131l-74 72zM228 534l377 -526l-132 -147l-471 681l140 170h455v-178h-369zM874 339l107 -104v236z" />
    <glyph glyph-name="T_A" unicode="TA" horiz-adv-x="1100" 
d="M655 463l195 249h210v-712h-185l-200 192l-152 -195l-147 107l167 214l-77 74l114 143zM780 337l107 -102v236zM490 -270h-13l-298 231v573h-169v178h530v-178h-188v-471l138 -106v-227z" />
    <glyph glyph-name="L_aacute" unicode="L&#xc1;" horiz-adv-x="960" 
d="M40 0zM733 737l91 190h154l-87 -190h-158zM351 -270h-13l-298 231v751h173v-649l138 -106v-227zM515 463l195 249h210v-712h-185l-200 192l-152 -195l-147 107l167 214l-77 74l114 143zM640 337l107 -102v236z" />
    <glyph glyph-name="L_agrave" unicode="L&#xc0;" horiz-adv-x="960" 
d="M40 0zM746 737l-87 190h154l91 -190h-158zM351 -270h-13l-298 231v751h173v-649l138 -106v-227zM515 463l195 249h210v-712h-185l-200 192l-152 -195l-147 107l167 214l-77 74l114 143zM640 337l107 -102v236z" />
    <glyph glyph-name="L_acircumflex" unicode="L&#xc2;" horiz-adv-x="960" 
d="M40 0zM825 752l-62 78l-61 -78h-126l127 164h122l127 -164h-127zM351 -270h-13l-298 231v751h173v-649l138 -106v-227zM515 463l195 249h210v-712h-185l-200 192l-152 -195l-147 107l167 214l-77 74l114 143zM640 337l107 -102v236z" />
    <glyph glyph-name="L_adieresis" unicode="L&#xc4;" horiz-adv-x="960" 
d="M40 0zM1008 827l-102 -101l-102 101l102 103zM776 827l-102 -101l-101 101l101 103zM351 -270h-13l-298 231v751h173v-649l138 -106v-227zM515 463l195 249h210v-712h-185l-200 192l-152 -195l-147 107l167 214l-77 74l114 143zM640 337l107 -102v236z" />
    <glyph glyph-name="L_atilde" unicode="L&#xc3;" horiz-adv-x="960" 
d="M40 0zM940 783q-14 -17 -34.5 -29.5t-51.5 -12.5q-25 0 -46.5 7t-40.5 15t-36.5 15t-34.5 7q-28 0 -48.5 -11t-40.5 -37v99q13 16 33.5 29.5t52.5 13.5q24 0 45 -7t40 -15.5t37 -15.5t36 -7q26 0 47 11t42 37v-99zM351 -270h-13l-298 231v751h173v-649l138 -106v-227z
M515 463l195 249h210v-712h-185l-200 192l-152 -195l-147 107l167 214l-77 74l114 143zM640 337l107 -102v236z" />
    <glyph glyph-name="L_aring" unicode="L&#xc5;" horiz-adv-x="960" 
d="M40 0zM921 831q0 -48 -24 -71.5t-81 -23.5q-105 0 -105 95q0 47 25.5 71.5t79.5 24.5q57 0 81 -24.5t24 -71.5zM863 831q0 47 -47 47q-43 0 -43 -47q0 -42 43 -42q47 0 47 42zM351 -270h-13l-298 231v751h173v-649l138 -106v-227zM515 463l195 249h210v-712h-185
l-200 192l-152 -195l-147 107l167 214l-77 74l114 143zM640 337l107 -102v236z" />
    <glyph glyph-name="L_amacron" unicode="L&#x100;" horiz-adv-x="960" 
d="M40 0zM631 751v104h326v-104h-326zM351 -270h-13l-298 231v751h173v-649l138 -106v-227zM515 463l195 249h210v-712h-185l-200 192l-152 -195l-147 107l167 214l-77 74l114 143zM640 337l107 -102v236z" />
    <glyph glyph-name="L_abreve" unicode="L&#x102;" horiz-adv-x="960" 
d="M40 0zM955 912q0 -41 -14 -71.5t-36.5 -51t-52 -30.5t-60.5 -10q-32 0 -61.5 10t-52.5 30.5t-37 51t-14 71.5h93q2 -34 19 -53.5t53 -19.5q34 0 50.5 19.5t18.5 53.5h94zM351 -270h-13l-298 231v751h173v-649l138 -106v-227zM515 463l195 249h210v-712h-185l-200 192
l-152 -195l-147 107l167 214l-77 74l114 143zM640 337l107 -102v236z" />
    <glyph glyph-name="C_aacute" unicode="C&#xc1;" horiz-adv-x="1194" 
d="M2 0zM674 535l73 -72l197 249h210v-712h-185l-209 200l-127 -156l-103 145l104 131l-74 72zM228 534l377 -526l-132 -147l-471 681l140 170h455v-178h-369zM874 339l107 -104v236zM949 737l91 190h154l-87 -190h-158z" />
    <glyph glyph-name="C_agrave" unicode="C&#xc0;" horiz-adv-x="1194" 
d="M2 0zM674 535l73 -72l197 249h210v-712h-185l-209 200l-127 -156l-103 145l104 131l-74 72zM228 534l377 -526l-132 -147l-471 681l140 170h455v-178h-369zM874 339l107 -104v236zM999 737l-87 190h154l91 -190h-158z" />
    <glyph glyph-name="C_acircumflex" unicode="C&#xc2;" horiz-adv-x="1194" 
d="M2 0zM674 535l73 -72l197 249h210v-712h-185l-209 200l-127 -156l-103 145l104 131l-74 72zM228 534l377 -526l-132 -147l-471 681l140 170h455v-178h-369zM874 339l107 -104v236zM1067 752l-62 78l-61 -78h-126l127 164h122l127 -164h-127z" />
    <glyph glyph-name="C_adieresis" unicode="C&#xc4;" horiz-adv-x="1194" 
d="M2 0zM674 535l73 -72l197 249h210v-712h-185l-209 200l-127 -156l-103 145l104 131l-74 72zM228 534l377 -526l-132 -147l-471 681l140 170h455v-178h-369zM874 339l107 -104v236zM1220 827l-102 -101l-102 101l102 103zM988 827l-102 -101l-101 101l101 103z" />
    <glyph glyph-name="C_atilde" unicode="C&#xc3;" horiz-adv-x="1194" 
d="M2 0zM674 535l73 -72l197 249h210v-712h-185l-209 200l-127 -156l-103 145l104 131l-74 72zM228 534l377 -526l-132 -147l-471 681l140 170h455v-178h-369zM874 339l107 -104v236zM1195 783q-14 -17 -34.5 -29.5t-51.5 -12.5q-25 0 -46.5 7t-40.5 15t-36.5 15t-34.5 7
q-28 0 -48.5 -11t-40.5 -37v99q13 16 33.5 29.5t52.5 13.5q24 0 45 -7t40 -15.5t37 -15.5t36 -7q26 0 47 11t42 37v-99z" />
    <glyph glyph-name="C_aring" unicode="C&#xc5;" horiz-adv-x="1194" 
d="M2 0zM674 535l73 -72l197 249h210v-712h-185l-209 200l-127 -156l-103 145l104 131l-74 72zM228 534l377 -526l-132 -147l-471 681l140 170h455v-178h-369zM874 339l107 -104v236zM1167 831q0 -48 -24 -71.5t-81 -23.5q-105 0 -105 95q0 47 25.5 71.5t79.5 24.5
q57 0 81 -24.5t24 -71.5zM1109 831q0 47 -47 47q-43 0 -43 -47q0 -42 43 -42q47 0 47 42z" />
    <glyph glyph-name="C_amacron" unicode="C&#x100;" horiz-adv-x="1194" 
d="M2 0zM674 535l73 -72l197 249h210v-712h-185l-209 200l-127 -156l-103 145l104 131l-74 72zM228 534l377 -526l-132 -147l-471 681l140 170h455v-178h-369zM874 339l107 -104v236zM868 751v104h326v-104h-326z" />
    <glyph glyph-name="C_abreve" unicode="C&#x102;" horiz-adv-x="1194" 
d="M2 0zM674 535l73 -72l197 249h210v-712h-185l-209 200l-127 -156l-103 145l104 131l-74 72zM228 534l377 -526l-132 -147l-471 681l140 170h455v-178h-369zM874 339l107 -104v236zM1195 912q0 -41 -14 -71.5t-36.5 -51t-52 -30.5t-60.5 -10q-32 0 -61.5 10t-52.5 30.5
t-37 51t-14 71.5h93q2 -34 19 -53.5t53 -19.5q34 0 50.5 19.5t18.5 53.5h94z" />
    <glyph glyph-name="T_aacute" unicode="T&#xc1;" horiz-adv-x="1100" 
d="M10 0zM655 463l195 249h210v-712h-185l-200 192l-152 -195l-147 107l167 214l-77 74l114 143zM780 337l107 -102v236zM490 -270h-13l-298 231v573h-169v178h530v-178h-188v-471l138 -106v-227zM858 737l91 190h154l-87 -190h-158z" />
    <glyph glyph-name="T_agrave" unicode="T&#xc0;" horiz-adv-x="1100" 
d="M10 0zM655 463l195 249h210v-712h-185l-200 192l-152 -195l-147 107l167 214l-77 74l114 143zM780 337l107 -102v236zM490 -270h-13l-298 231v573h-169v178h530v-178h-188v-471l138 -106v-227zM895 737l-87 190h154l91 -190h-158z" />
    <glyph glyph-name="T_acircumflex" unicode="T&#xc2;" horiz-adv-x="1100" 
d="M10 0zM655 463l195 249h210v-712h-185l-200 192l-152 -195l-147 107l167 214l-77 74l114 143zM780 337l107 -102v236zM490 -270h-13l-298 231v573h-169v178h530v-178h-188v-471l138 -106v-227zM973 752l-62 78l-61 -78h-126l127 164h122l127 -164h-127z" />
    <glyph glyph-name="T_adieresis" unicode="T&#xc4;" horiz-adv-x="1100" 
d="M10 0zM655 463l195 249h210v-712h-185l-200 192l-152 -195l-147 107l167 214l-77 74l114 143zM780 337l107 -102v236zM490 -270h-13l-298 231v573h-169v178h530v-178h-188v-471l138 -106v-227zM1140 827l-102 -101l-102 101l102 103zM908 827l-102 -101l-101 101l101 103
z" />
    <glyph glyph-name="T_atilde" unicode="T&#xc3;" horiz-adv-x="1100" 
d="M10 0zM655 463l195 249h210v-712h-185l-200 192l-152 -195l-147 107l167 214l-77 74l114 143zM780 337l107 -102v236zM490 -270h-13l-298 231v573h-169v178h530v-178h-188v-471l138 -106v-227zM1100 783q-14 -17 -34.5 -29.5t-51.5 -12.5q-25 0 -46.5 7t-40.5 15
t-36.5 15t-34.5 7q-28 0 -48.5 -11t-40.5 -37v99q13 16 33.5 29.5t52.5 13.5q24 0 45 -7t40 -15.5t37 -15.5t36 -7q26 0 47 11t42 37v-99z" />
    <glyph glyph-name="T_aring" unicode="T&#xc5;" horiz-adv-x="1100" 
d="M10 0zM655 463l195 249h210v-712h-185l-200 192l-152 -195l-147 107l167 214l-77 74l114 143zM780 337l107 -102v236zM490 -270h-13l-298 231v573h-169v178h530v-178h-188v-471l138 -106v-227zM1066 831q0 -48 -24 -71.5t-81 -23.5q-105 0 -105 95q0 47 25.5 71.5
t79.5 24.5q57 0 81 -24.5t24 -71.5zM1008 831q0 47 -47 47q-43 0 -43 -47q0 -42 43 -42q47 0 47 42z" />
    <glyph glyph-name="T_amacron" unicode="T&#x100;" horiz-adv-x="1100" 
d="M10 0zM655 463l195 249h210v-712h-185l-200 192l-152 -195l-147 107l167 214l-77 74l114 143zM780 337l107 -102v236zM490 -270h-13l-298 231v573h-169v178h530v-178h-188v-471l138 -106v-227zM774 751v104h326v-104h-326z" />
    <glyph glyph-name="T_abreve" unicode="T&#x102;" horiz-adv-x="1100" 
d="M10 0zM655 463l195 249h210v-712h-185l-200 192l-152 -195l-147 107l167 214l-77 74l114 143zM780 337l107 -102v236zM490 -270h-13l-298 231v573h-169v178h530v-178h-188v-471l138 -106v-227zM1100 912q0 -41 -14 -71.5t-36.5 -51t-52 -30.5t-60.5 -10q-32 0 -61.5 10
t-52.5 30.5t-37 51t-14 71.5h93q2 -34 19 -53.5t53 -19.5q34 0 50.5 19.5t18.5 53.5h94z" />
    <glyph glyph-name=".notdef" horiz-adv-x="641" 
d="M126 -169q-96 0 -96 83v792q0 84 96 84h388q97 0 97 -84v-792q0 -83 -97 -83h-388zM298 484l-97 -129l138 -130l185 267l-140 170h-250v-178h164zM329 176l-122 -123l122 -122l122 122z" />
    <glyph glyph-name=".null" horiz-adv-x="0" 
 />
    <glyph glyph-name="nonmarkingreturn" horiz-adv-x="247" 
 />
    <glyph glyph-name="uni0017" horiz-adv-x="247" 
 />
    <glyph glyph-name="space" unicode=" " horiz-adv-x="247" 
 />
    <glyph glyph-name="exclam" unicode="!" horiz-adv-x="252" 
d="M213 277h-173v435h173v-435zM248 103l-121 -123l-123 123l123 122z" />
    <glyph glyph-name="quotedbl" unicode="&#x22;" horiz-adv-x="376" 
d="M30 474zM157 712v-238h-127v238h127zM345 712v-238h-127v238h127z" />
    <glyph glyph-name="numbersign" unicode="#" horiz-adv-x="479" 
d="M278 0v201h-72v-201h-99v201h-88v94h88v115h-84v100h84v203h99v-203h72v203h99v-203h84v-100h-84v-110h84v-99h-84v-201h-99zM278 410h-72v-115h72v115z" />
    <glyph glyph-name="dollar" unicode="$" horiz-adv-x="465" 
d="M380 720l-70 -70h139v-178h-147l163 -218l-138 -193h-113l67 -67l-92 -93l-93 93l67 67h-163l110 178h139l-185 255l87 156h113l-69 70l93 93z" />
    <glyph glyph-name="percent" unicode="%" horiz-adv-x="805" 
d="M40 0zM40 711h217l62 -76v-317h-218l-61 76v317zM215 605h-72v-180h72v180zM166 0l384 712h93l-387 -712h-90zM486 393h217l62 -76v-317h-218l-61 76v317zM661 287h-72v-180h72v180z" />
    <glyph glyph-name="ampersand" unicode="&#x26;" horiz-adv-x="514" 
d="M243 309l247 -335l-139 -134l-342 475l119 119l-60 82l137 196h309v-178h-252l88 -108z" />
    <glyph glyph-name="quotesingle" unicode="'" horiz-adv-x="188" 
d="M157 712v-238h-127v238h127z" />
    <glyph glyph-name="parenleft" unicode="(" horiz-adv-x="416" 
d="M267 -173q-99 115 -148.5 252.5t-49.5 283.5q0 140 47.5 270.5t150.5 245.5h139q-69 -125 -104.5 -254t-35.5 -264q0 -271 140 -534h-139z" />
    <glyph glyph-name="parenright" unicode=")" horiz-adv-x="416" 
d="M10 -173q139 262 139 534q0 267 -139 518h139q103 -115 150.5 -245.5t47.5 -270.5q0 -146 -49 -283.5t-149 -252.5h-139z" />
    <glyph glyph-name="asterisk" unicode="*" horiz-adv-x="636" 
d="M317 347l-172 -134l74 205l-179 122l217 -8l60 210l61 -210l218 8l-182 -122l75 -205z" />
    <glyph glyph-name="plus" unicode="+" horiz-adv-x="559" 
d="M223 102v183h-183v114h183v183h114v-183h183v-114h-183v-183h-114z" />
    <glyph glyph-name="comma" unicode="," horiz-adv-x="301" 
d="M184 125l111 -109l-184 -194l-105 109z" />
    <glyph glyph-name="hyphen" unicode="-" horiz-adv-x="330" 
d="M306 309h-283v152h283v-152z" />
    <glyph glyph-name="period" unicode="." horiz-adv-x="323" 
d="M284 103l-122 -123l-122 123l122 122z" />
    <glyph glyph-name="slash" unicode="/" horiz-adv-x="309" 
d="M0 0l208 712h101l-207 -712h-102z" />
    <glyph glyph-name="zero" unicode="0" horiz-adv-x="579" 
d="M40 712h390l110 -138v-574h-391l-109 137v575zM367 534h-154v-356h154v356z" />
    <glyph glyph-name="one" unicode="1" horiz-adv-x="303" 
d="M264 0h-173v546h-76v166h249v-712z" />
    <glyph glyph-name="two" unicode="2" horiz-adv-x="583" 
d="M10 0zM147 0l-137 193l255 341h-206v178h357l87 -156l-278 -378h258l100 -162v-16h-436z" />
    <glyph glyph-name="three" unicode="3" horiz-adv-x="511" 
d="M164 426l88 108h-252v178h309l137 -196l-60 -82l119 -119l-342 -475l-139 134l247 335z" />
    <glyph glyph-name="four" unicode="4" horiz-adv-x="643" 
d="M539 323h104v-178h-104v-145h-173v145h-219l-140 170l275 397h257v-389zM366 323v215l-156 -215h156z" />
    <glyph glyph-name="five" unicode="5" horiz-adv-x="549" 
d="M120 309l-107 116l38 287h383v-166h-229l-12 -85h227l125 -153l-327 -468l-139 134l247 335h-206z" />
    <glyph glyph-name="six" unicode="6" horiz-adv-x="645" 
d="M643 170l-140 -170h-360l-140 170l373 542h215l-161 -233zM221 178h206l-104 147z" />
    <glyph glyph-name="seven" unicode="7" horiz-adv-x="590" 
d="M10 534v178h437l140 -170l-499 -721l-139 135l420 578h-359z" />
    <glyph glyph-name="eight" unicode="8" horiz-adv-x="743" 
d="M103 536l157 176h473v-16l-219 -350l137 -170l-157 -176h-484v15l230 351zM461 546h-162l81 -122zM294 166h167l-86 122z" />
    <glyph glyph-name="nine" unicode="9" horiz-adv-x="651" 
d="M144 712h360l140 -170l-372 -542h-216l160 231l-212 311zM426 534h-206l103 -148z" />
    <glyph glyph-name="colon" unicode=":" horiz-adv-x="377" 
d="M310 182l-121 -123l-123 123l123 122zM310 491l-121 -122l-123 122l123 123z" />
    <glyph glyph-name="semicolon" unicode=";" horiz-adv-x="377" 
d="M310 491l-121 -122l-123 122l123 123zM191 305l110 -108l-183 -194l-105 109z" />
    <glyph glyph-name="less" unicode="&#x3c;" horiz-adv-x="559" 
d="M40 285v114l480 189v-126l-351 -121l351 -119v-126z" />
    <glyph glyph-name="equal" unicode="=" horiz-adv-x="559" 
d="M40 384v113h480v-113h-480zM40 185v115h480v-115h-480z" />
    <glyph glyph-name="greater" unicode="&#x3e;" horiz-adv-x="559" 
d="M40 96v126l350 119l-350 121v126l480 -189v-114z" />
    <glyph glyph-name="question" unicode="?" horiz-adv-x="410" 
d="M15 534v178h249l140 -170l-185 -267l-138 129l97 130h-163zM331 103l-121 -123l-123 123l123 122z" />
    <glyph glyph-name="at" unicode="@" horiz-adv-x="586" 
d="M419 534q-15 20 -43.5 28.5t-75.5 8.5t-76.5 -6.5t-46.5 -25t-23 -52.5t-6 -88v-200q0 -55 12 -91v-3h1q10 -32 27.5 -52t38.5 -31t43.5 -14.5t43.5 -3.5q38 0 72.5 3t59.5 8v-98q-22 -5 -56 -10t-70 -5q-60 0 -111.5 12.5t-89 44t-58.5 86.5t-21 141v208q0 82 15 136
t47 85t81 43.5t117 12.5q53 0 98 -9t78 -30.5t52 -57.5t19 -91v-378h-263l-78 111zM448 207v187l-125 -187h125z" />
    <glyph glyph-name="A" unicode="A" 
d="M261 463l195 249h210v-712h-185l-200 192l-154 -201l-127 136l149 191l-77 74l114 143zM386 337l107 -102v236z" />
    <glyph glyph-name="B" unicode="B" horiz-adv-x="582" 
d="M576 335l-276 -335h-260v712h418l96 -148l-100 -123zM321 556h-107v-122zM414 413h-200v-230z" />
    <glyph glyph-name="C" unicode="C" horiz-adv-x="588" 
d="M228 534l413 -578l-140 -135l-499 721l140 170h427v-178h-341z" />
    <glyph glyph-name="D" unicode="D" horiz-adv-x="642" 
d="M639 196l-137 -196h-462v712h260zM431 178l-218 331v-331h218z" />
    <glyph glyph-name="E" unicode="E" horiz-adv-x="450" 
d="M421 0h-272l-109 137v575h381v-178h-208v-73h208v-152h-208v-131h208v-178z" />
    <glyph glyph-name="F" unicode="F" horiz-adv-x="479" 
d="M462 309h-238v-334l-163 -144h-10v478h-64v152h64v251h411v-178h-238v-73h238v-152z" />
    <glyph glyph-name="G" unicode="G" horiz-adv-x="630" 
d="M2 516l136 196h463v-178h-384l211 -331v206h173v-409h-261z" />
    <glyph glyph-name="H" unicode="H" horiz-adv-x="565" 
d="M507 -169h-11l-162 144v334h-121v-309h-173v712h173v-251h121v251h173v-251h95v-11l-95 -125v-494z" />
    <glyph glyph-name="I" unicode="I" horiz-adv-x="252" 
d="M213 0h-173v712h173v-712z" />
    <glyph glyph-name="J" unicode="J" horiz-adv-x="335" 
d="M-3 -270h-13v227l139 106v471h-105v178h278v-751z" />
    <glyph glyph-name="K" unicode="K" horiz-adv-x="655" 
d="M213 510l222 219l118 -129l-181 -166l337 -478l-139 -136l-357 542v-362h-173v712h173v-202z" />
    <glyph glyph-name="L" unicode="L" horiz-adv-x="254" 
d="M351 -270h-13l-298 231v751h173v-649l138 -106v-227z" />
    <glyph glyph-name="M" unicode="M" horiz-adv-x="662" 
d="M450 -25v473l-119 -130l-118 130v-448h-173v577l-107 123v12h280l118 -134l119 134h18l155 -167v-724z" />
    <glyph glyph-name="N" unicode="N" horiz-adv-x="596" 
d="M557 -169h-11l-162 144v235l-171 202v-412h-173v621l-67 79v12h204l207 -246v246h173v-881z" />
    <glyph glyph-name="O" unicode="O" horiz-adv-x="774" 
d="M771 170l-140 -170h-489l-140 170l373 542h24zM220 178h333l-167 238z" />
    <glyph glyph-name="P" unicode="P" horiz-adv-x="584" 
d="M403 314h-190v-314h-173v712h422l120 -135zM350 534h-137v-201z" />
    <glyph glyph-name="Q" unicode="Q" horiz-adv-x="749" 
d="M574 50l-139 -134l-433 626l140 170h464l140 -170l-257 -374zM378 319l159 227h-325z" />
    <glyph glyph-name="R" unicode="R" horiz-adv-x="594" 
d="M659 -49l-138 -130l-308 377v-198h-173v712h173v-134l100 134h15l263 -346l-161 -130zM379 348l-80 102l-81 -102h161z" />
    <glyph glyph-name="S" unicode="S" horiz-adv-x="577" 
d="M0 0v16l100 162h258l-278 378l87 156h357v-178h-206l255 -341l-137 -193h-436z" />
    <glyph glyph-name="T" unicode="T" horiz-adv-x="522" 
d="M490 -270h-13l-298 231v573h-169v178h502v-178h-160v-471l138 -106v-227z" />
    <glyph glyph-name="U" unicode="U" horiz-adv-x="616" 
d="M403 0v210l-245 -221l-118 126v597h173v-466l190 170v296h173v-712h-173z" />
    <glyph glyph-name="V" unicode="V" horiz-adv-x="689" 
d="M685 602l-330 -602h-26l-326 602l142 121l198 -392l201 392z" />
    <glyph glyph-name="W" unicode="W" horiz-adv-x="662" 
d="M331 393l119 -129v448h173v-545l-155 -167h-18l-119 133l-118 -133h-18l-155 167v545h173v-448z" />
    <glyph glyph-name="X" unicode="X" horiz-adv-x="637" 
d="M214 389l-169 226l135 114l148 -209l149 209l135 -114l-180 -240l201 -276l-123 -112l-193 262l-191 -262l-123 112z" />
    <glyph glyph-name="Y" unicode="Y" horiz-adv-x="595" 
d="M213 286l169 179v247h173v-751l-298 -231h-13v218l138 105v189l-224 -228l-118 125v573h173v-426z" />
    <glyph glyph-name="Z" unicode="Z" horiz-adv-x="583" 
d="M147 0l-137 193l255 341h-206v178h357l87 -156l-278 -378h258l100 -162v-16h-436z" />
    <glyph glyph-name="bracketleft" unicode="[" horiz-adv-x="375" 
d="M69 -156v1023h296v-131h-127v-765h127v-127h-296z" />
    <glyph glyph-name="backslash" unicode="\" horiz-adv-x="309" 
d="M208 0l-208 712h102l207 -712h-101z" />
    <glyph glyph-name="bracketright" unicode="]" horiz-adv-x="378" 
d="M10 -156v127h129v765h-129v131h298v-1023h-298z" />
    <glyph glyph-name="asciicircum" unicode="^" horiz-adv-x="559" 
d="M222 712h115l189 -481h-127l-120 351l-119 -351h-126z" />
    <glyph glyph-name="underscore" unicode="_" horiz-adv-x="435" 
d="M0 -13h435v-108h-435v108z" />
    <glyph glyph-name="grave" unicode="`" horiz-adv-x="324" 
d="M127 737l-87 190h154l91 -190h-158z" />
    <glyph glyph-name="a" unicode="a" 
d="M0 0zM261 463l195 249h210v-712h-185l-200 192l-154 -201l-127 136l149 191l-77 74l114 143zM386 337l107 -102v236z" />
    <glyph glyph-name="b" unicode="b" horiz-adv-x="582" 
d="M40 0zM576 335l-276 -335h-260v712h418l96 -148l-100 -123zM321 556h-107v-122zM414 413h-200v-230z" />
    <glyph glyph-name="c" unicode="c" horiz-adv-x="588" 
d="M2 0zM228 534l413 -578l-140 -135l-499 721l140 170h427v-178h-341z" />
    <glyph glyph-name="d" unicode="d" horiz-adv-x="642" 
d="M40 0zM639 196l-137 -196h-462v712h260zM431 178l-218 331v-331h218z" />
    <glyph glyph-name="e" unicode="e" horiz-adv-x="450" 
d="M40 0zM421 0h-272l-109 137v575h381v-178h-208v-73h208v-152h-208v-131h208v-178z" />
    <glyph glyph-name="f" unicode="f" horiz-adv-x="479" 
d="M0 0zM462 309h-238v-334l-163 -144h-10v478h-64v152h64v251h411v-178h-238v-73h238v-152z" />
    <glyph glyph-name="g" unicode="g" horiz-adv-x="630" 
d="M2 0zM2 516l136 196h463v-178h-384l211 -331v206h173v-409h-261z" />
    <glyph glyph-name="h" unicode="h" horiz-adv-x="565" 
d="M40 0zM507 -169h-11l-162 144v334h-121v-309h-173v712h173v-251h121v251h173v-251h95v-11l-95 -125v-494z" />
    <glyph glyph-name="i" unicode="i" horiz-adv-x="252" 
d="M40 0zM213 0h-173v712h173v-712z" />
    <glyph glyph-name="j" unicode="j" horiz-adv-x="335" 
d="M0 0zM-3 -270h-13v227l139 106v471h-105v178h278v-751z" />
    <glyph glyph-name="k" unicode="k" horiz-adv-x="655" 
d="M40 0zM213 510l222 219l118 -129l-181 -166l337 -478l-139 -136l-357 542v-362h-173v712h173v-202z" />
    <glyph glyph-name="l" unicode="l" horiz-adv-x="254" 
d="M40 0zM351 -270h-13l-298 231v751h173v-649l138 -106v-227z" />
    <glyph glyph-name="m" unicode="m" horiz-adv-x="662" 
d="M0 0zM450 -25v473l-119 -130l-118 130v-448h-173v577l-107 123v12h280l118 -134l119 134h18l155 -167v-724z" />
    <glyph glyph-name="n" unicode="n" horiz-adv-x="596" 
d="M0 0zM557 -169h-11l-162 144v235l-171 202v-412h-173v621l-67 79v12h204l207 -246v246h173v-881z" />
    <glyph glyph-name="o" unicode="o" horiz-adv-x="774" 
d="M2 0zM771 170l-140 -170h-489l-140 170l373 542h24zM220 178h333l-167 238z" />
    <glyph glyph-name="p" unicode="p" horiz-adv-x="584" 
d="M40 0zM403 314h-190v-314h-173v712h422l120 -135zM350 534h-137v-201z" />
    <glyph glyph-name="q" unicode="q" horiz-adv-x="749" 
d="M2 0zM574 50l-139 -134l-433 626l140 170h464l140 -170l-257 -374zM378 319l159 227h-325z" />
    <glyph glyph-name="r" unicode="r" horiz-adv-x="594" 
d="M40 0zM659 -49l-138 -130l-308 377v-198h-173v712h173v-134l100 134h15l263 -346l-161 -130zM379 348l-80 102l-81 -102h161z" />
    <glyph glyph-name="s" unicode="s" horiz-adv-x="577" 
d="M0 0zM0 0v16l100 162h258l-278 378l87 156h357v-178h-206l255 -341l-137 -193h-436z" />
    <glyph glyph-name="t" unicode="t" horiz-adv-x="522" 
d="M10 0zM490 -270h-13l-298 231v573h-169v178h502v-178h-160v-471l138 -106v-227z" />
    <glyph glyph-name="u" unicode="u" horiz-adv-x="616" 
d="M40 0zM403 0v210l-245 -221l-118 126v597h173v-466l190 170v296h173v-712h-173z" />
    <glyph glyph-name="v" unicode="v" horiz-adv-x="689" 
d="M3 0zM685 602l-330 -602h-26l-326 602l142 121l198 -392l201 392z" />
    <glyph glyph-name="w" unicode="w" horiz-adv-x="662" 
d="M40 0zM331 393l119 -129v448h173v-545l-155 -167h-18l-119 133l-118 -133h-18l-155 167v545h173v-448z" />
    <glyph glyph-name="x" unicode="x" horiz-adv-x="637" 
d="M3 0zM214 389l-169 226l135 114l148 -209l149 209l135 -114l-180 -240l201 -276l-123 -112l-193 262l-191 -262l-123 112z" />
    <glyph glyph-name="y" unicode="y" horiz-adv-x="595" 
d="M40 0zM213 286l169 179v247h173v-751l-298 -231h-13v218l138 105v189l-224 -228l-118 125v573h173v-426z" />
    <glyph glyph-name="z" unicode="z" horiz-adv-x="583" 
d="M10 0zM147 0l-137 193l255 341h-206v178h357l87 -156l-278 -378h258l100 -162v-16h-436z" />
    <glyph glyph-name="braceleft" unicode="{" horiz-adv-x="391" 
d="M331 -157q-67 0 -108 11t-64 34.5t-31 59t-8 85.5q0 11 1 30t1.5 39t1.5 38.5t1 27.5q0 69 -21 97.5t-79 28.5v125q58 0 79 28.5t21 98.5q0 8 -1 25.5t-1.5 37.5t-1.5 38.5t-1 29.5q0 49 8 85.5t31 59.5t64 34.5t108 11.5h51v-121h-27q-38 0 -54.5 -9.5t-16.5 -39.5
q0 -60 2.5 -111.5t2.5 -110.5q0 -25 -12.5 -45.5t-32.5 -35.5t-45.5 -25t-52.5 -13q27 -3 52.5 -13.5t45.5 -26t32.5 -36.5t12.5 -45q0 -60 -2.5 -112t-2.5 -110q0 -33 16.5 -42.5t54.5 -9.5h27v-119h-51z" />
    <glyph glyph-name="bar" unicode="|" horiz-adv-x="304" 
d="M77 -95v909h150v-909h-150z" />
    <glyph glyph-name="braceright" unicode="}" horiz-adv-x="390" 
d="M10 -157v119h28q38 0 55.5 9.5t17.5 42.5q0 58 -3 110t-3 112q0 24 12 44.5t32 36.5t45.5 26.5t52.5 13.5q-27 3 -52.5 13t-45.5 25t-32 35.5t-12 45.5q0 59 3 110.5t3 111.5q0 30 -17.5 39.5t-55.5 9.5h-28v121h50q68 0 110 -11.5t65.5 -34.5t31.5 -59.5t8 -85.5
q0 -11 -1.5 -29.5t-3 -38.5t-2.5 -37.5t-1 -25.5q0 -70 22 -98.5t80 -28.5v-125q-58 0 -80 -28.5t-22 -97.5q0 -9 1 -27.5t2.5 -38.5t3 -39t1.5 -30q0 -50 -8 -85.5t-31.5 -59t-65.5 -34.5t-110 -11h-50z" />
    <glyph glyph-name="asciitilde" unicode="~" horiz-adv-x="797" 
d="M757 513l-312 -304v102l-405 -87l294 289v-87z" />
    <glyph glyph-name="nonbreakingspace" unicode="&#xa0;" horiz-adv-x="247" 
 />
    <glyph glyph-name="exclamdown" unicode="&#xa1;" horiz-adv-x="252" 
d="M40 435h173v-435h-173v435zM4 609l122 122l122 -122l-122 -123z" />
    <glyph glyph-name="cent" unicode="&#xa2;" horiz-adv-x="480" 
d="M404 720l-69 -70h101v-178h-203l215 -302l-113 -109l67 -67l-92 -93l-93 93l72 71l-282 415l140 170h142l-70 70l93 93z" />
    <glyph glyph-name="sterling" unicode="&#xa3;" horiz-adv-x="493" 
d="M267 335v-157h208v-178h-460v178h79v157h-65v96h65v143l110 138h256v-178h-193v-103h193v-96h-193z" />
    <glyph glyph-name="currency" unicode="&#xa4;" horiz-adv-x="550" 
d="M384 155q-51 -28 -109 -28t-109 28l-63 -69l-81 84l67 62q-29 52 -29 108q0 58 29 110l-66 61l80 81l61 -65q24 14 52 22t59 8q29 0 56.5 -8t52.5 -22l61 65l81 -81l-66 -60q14 -26 22 -53.5t8 -57.5t-8 -57.5t-22 -51.5l67 -61l-81 -84zM380 340q0 45 -30 75.5t-75 30.5
t-75.5 -30.5t-30.5 -75.5q0 -22 8.5 -41t22.5 -33t33.5 -22t41.5 -8q45 0 75 30t30 74z" />
    <glyph glyph-name="yen" unicode="&#xa5;" horiz-adv-x="640" 
d="M405 76v-76h-173v76h-144v83h144v61h-144v85h144v46l-206 361h186l105 -207l108 207h188l-208 -360v-47h136v-85h-136v-61h136v-83h-136z" />
    <glyph glyph-name="brokenbar" unicode="&#xa6;" horiz-adv-x="304" 
d="M77 -95v342h150v-342h-150zM77 482v332h150v-332h-150z" />
    <glyph glyph-name="section" unicode="&#xa7;" horiz-adv-x="696" 
d="M111 -9h232l-250 338l78 141h137l-75 101l78 141h321v-160h-184l228 -306l-123 -173h-70l53 -69l-123 -173h-400zM426 310h-119l58 -78h117z" />
    <glyph glyph-name="dieresis" unicode="&#xa8;" horiz-adv-x="503" 
d="M469 827l-102 -101l-102 101l102 103zM237 827l-102 -101l-101 101l101 103z" />
    <glyph glyph-name="copyright" unicode="&#xa9;" horiz-adv-x="660" 
d="M621 263q0 -75 -17.5 -126.5t-53.5 -84t-91 -47t-129 -14.5t-128.5 14.5t-90.5 47t-53.5 84t-17.5 126.5v186q0 74 17.5 125.5t53.5 84t90.5 47t128.5 14.5t129 -14.5t91 -47t53.5 -84t17.5 -125.5v-186zM536 449q0 51 -12.5 86.5t-38 57.5t-64.5 32t-91 10
q-53 0 -91.5 -10t-63.5 -32t-37.5 -57.5t-12.5 -86.5v-186q0 -103 50 -145t155 -42t155.5 42t50.5 145v186zM269 473l203 -284l-69 -65l-245 353l69 83h220v-87h-178z" />
    <glyph glyph-name="ordfeminine" unicode="&#xaa;" horiz-adv-x="418" 
d="M155 581l104 131h122v-394h-107l-105 101l-84 -109l-76 81l80 104l-42 40l69 86zM235 506l41 -39v90z" />
    <glyph glyph-name="guillemotleft" unicode="&#xab;" horiz-adv-x="472" 
d="M9 121zM176 121l-167 213l167 210l50 -46l-128 -164l129 -165zM412 121l-167 213l167 210l50 -46l-128 -164l129 -165z" />
    <glyph glyph-name="logicalnot" unicode="&#xac;" horiz-adv-x="623" 
d="M439 0v345h-399v145h543v-490h-144z" />
    <glyph glyph-name="uni00AD" unicode="&#xad;" horiz-adv-x="330" 
d="M23 309zM306 309h-283v152h283v-152z" />
    <glyph glyph-name="registered" unicode="&#xae;" horiz-adv-x="660" 
d="M621 263q0 -75 -17.5 -126.5t-53.5 -84t-91 -47t-129 -14.5t-128.5 14.5t-90.5 47t-53.5 84t-17.5 126.5v186q0 74 17.5 125.5t53.5 84t90.5 47t128.5 14.5t129 -14.5t91 -47t53.5 -84t17.5 -125.5v-186zM519 165q17 40 17 98v186q0 51 -12.5 86.5t-38 57.5t-64.5 32
t-91 10q-53 0 -91.5 -10t-63.5 -32t-37.5 -57.5t-12.5 -86.5v-186q0 -103 50 -145t155 -42q81 0 128 23l-171 211v-93h-80v335h80v-64l47 64h7l124 -163l-69 -71zM364 381l-36 46l-37 -46h73z" />
    <glyph glyph-name="macron" unicode="&#xaf;" horiz-adv-x="405" 
d="M40 751v104h326v-104h-326z" />
    <glyph glyph-name="degree" unicode="&#xb0;" horiz-adv-x="381" 
d="M190 403q-41 0 -69.5 12.5t-46.5 34t-26 50t-8 61.5q0 34 8 63t26 50.5t46.5 33.5t69.5 12t69.5 -12t46.5 -33.5t26.5 -50.5t8.5 -63q0 -33 -8.5 -61.5t-26.5 -50t-46.5 -34t-69.5 -12.5zM190 475q40 0 56.5 26t16.5 61q0 37 -16.5 63t-56.5 26t-56.5 -26t-16.5 -63
q0 -35 16.5 -61t56.5 -26z" />
    <glyph glyph-name="plusminus" unicode="&#xb1;" horiz-adv-x="559" 
d="M40 0zM223 102v183h-183v114h183v183h114v-183h183v-114h-183v-183h-114zM40 -113v114h480v-114h-480z" />
    <glyph glyph-name="twosuperior" unicode="&#xb2;" horiz-adv-x="350" 
d="M14 318zM93 318l-79 110l132 177h-103v106h200l51 -90l-145 -196h131l55 -91v-16h-242z" />
    <glyph glyph-name="threesuperior" unicode="&#xb3;" horiz-adv-x="310" 
d="M11 229zM97 552l42 53h-128v106h175l77 -111l-32 -44l65 -63l-191 -264l-83 81l132 180z" />
    <glyph glyph-name="acute" unicode="&#xb4;" horiz-adv-x="308" 
d="M11 737l91 190h154l-87 -190h-158z" />
    <glyph glyph-name="paragraph" unicode="&#xb6;" horiz-adv-x="643" 
d="M417 -77v717h-84v-532q0 -32 -10 -54t-27.5 -36t-41 -20.5t-50.5 -6.5q-53 0 -76 16l9 71q12 -9 34 -9q23 0 35 9t12 30v214q-40 3 -75.5 12.5t-62.5 31.5t-42.5 59.5t-15.5 97.5q0 99 52.5 144t139.5 45h416v-72h-102v-717h-111z" />
    <glyph glyph-name="periodcentered" unicode="&#xb7;" horiz-adv-x="323" 
d="M40 262zM284 385l-122 -123l-122 123l122 122z" />
    <glyph glyph-name="cedilla" unicode="&#xb8;" horiz-adv-x="325" 
d="M128 -223l-88 189h155l91 -189h-158z" />
    <glyph glyph-name="onesuperior" unicode="&#xb9;" horiz-adv-x="197" 
d="M18 318zM163 318h-104v294h-41v99h145v-393z" />
    <glyph glyph-name="ordmasculine" unicode="&#xba;" horiz-adv-x="456" 
d="M439 415l-80 -97h-268l-80 97l204 297h19zM146 425h157l-79 113z" />
    <glyph glyph-name="guillemotright" unicode="&#xbb;" horiz-adv-x="472" 
d="M9 121zM9 169l129 165l-128 164l50 46l167 -210l-167 -213zM245 169l129 165l-128 164l50 46l167 -210l-167 -213z" />
    <glyph glyph-name="onequarter" unicode="&#xbc;" horiz-adv-x="666" 
d="M40 0zM196 318h-104v294h-41v99h145v-393zM40 0l384 712h93l-387 -712h-90zM570 185h57v-107h-57v-78h-104v78h-115l-80 96l152 219h147v-208zM466 185v92l-66 -92h66z" />
    <glyph glyph-name="onehalf" unicode="&#xbd;" horiz-adv-x="693" 
d="M40 0zM186 318h-104v294h-41v99h145v-393zM40 0l384 712h93l-387 -712h-90zM411 0l-79 110l132 177h-103v106h200l51 -90l-145 -196h131l55 -91v-16h-242z" />
    <glyph glyph-name="threequarters" unicode="&#xbe;" horiz-adv-x="746" 
d="M40 0zM126 552l42 53h-128v106h175l77 -111l-32 -44l65 -63l-191 -264l-83 81l132 180zM120 0l384 712h93l-387 -712h-90zM650 185h57v-107h-57v-78h-104v78h-115l-80 96l152 219h147v-208zM546 185v92l-66 -92h66z" />
    <glyph glyph-name="questiondown" unicode="&#xbf;" horiz-adv-x="410" 
d="M400 178v-178h-249l-140 170l185 267l138 -130l-97 -129h163zM84 609l122 122l122 -122l-122 -123z" />
    <glyph glyph-name="Agrave" unicode="&#xc0;" 
d="M0 0zM261 463l195 249h210v-712h-185l-200 192l-154 -201l-127 136l149 191l-77 74l114 143zM386 337l107 -102v236zM476 737l-87 190h154l91 -190h-158z" />
    <glyph glyph-name="Aacute" unicode="&#xc1;" 
d="M0 0zM261 463l195 249h210v-712h-185l-200 192l-154 -201l-127 136l149 191l-77 74l114 143zM386 337l107 -102v236zM486 737l91 190h154l-87 -190h-158z" />
    <glyph glyph-name="Acircumflex" unicode="&#xc2;" 
d="M0 0zM261 463l195 249h210v-712h-185l-200 192l-154 -201l-127 136l149 191l-77 74l114 143zM386 337l107 -102v236zM622 752l-62 78l-61 -78h-126l127 164h122l127 -164h-127z" />
    <glyph glyph-name="Atilde" unicode="&#xc3;" 
d="M0 0zM261 463l195 249h210v-712h-185l-200 192l-154 -201l-127 136l149 191l-77 74l114 143zM386 337l107 -102v236zM730 783q-14 -17 -34.5 -29.5t-51.5 -12.5q-25 0 -46.5 7t-40.5 15t-36.5 15t-34.5 7q-28 0 -48.5 -11t-40.5 -37v99q13 16 33.5 29.5t52.5 13.5
q24 0 45 -7t40 -15.5t37 -15.5t36 -7q26 0 47 11t42 37v-99z" />
    <glyph glyph-name="Adieresis" unicode="&#xc4;" 
d="M0 0zM261 463l195 249h210v-712h-185l-200 192l-154 -201l-127 136l149 191l-77 74l114 143zM386 337l107 -102v236zM775 827l-102 -101l-102 101l102 103zM543 827l-102 -101l-101 101l101 103z" />
    <glyph glyph-name="Aring" unicode="&#xc5;" 
d="M0 0zM261 463l195 249h210v-712h-185l-200 192l-154 -201l-127 136l149 191l-77 74l114 143zM386 337l107 -102v236zM666 831q0 -48 -24 -71.5t-81 -23.5q-105 0 -105 95q0 47 25.5 71.5t79.5 24.5q57 0 81 -24.5t24 -71.5zM608 831q0 47 -47 47q-43 0 -43 -47
q0 -42 43 -42q47 0 47 42z" />
    <glyph glyph-name="AE" unicode="&#xc6;" horiz-adv-x="903" 
d="M875 0h-394l-200 192l-154 -201l-127 136l149 191l-77 74l114 143l75 -72l195 249h419v-178h-209v-73h209v-152h-209v-131h209v-178zM392 337l101 -95v226z" />
    <glyph glyph-name="Ccedilla" unicode="&#xc7;" horiz-adv-x="588" 
d="M2 0zM228 534l413 -578l-140 -135l-499 721l140 170h427v-178h-341zM279 -223l-88 189h155l91 -189h-158z" />
    <glyph glyph-name="Egrave" unicode="&#xc8;" horiz-adv-x="450" 
d="M40 0zM421 0h-272l-109 137v575h381v-178h-208v-73h208v-152h-208v-131h208v-178zM150 737l-87 190h154l91 -190h-158z" />
    <glyph glyph-name="Eacute" unicode="&#xc9;" horiz-adv-x="450" 
d="M40 0zM421 0h-272l-109 137v575h381v-178h-208v-73h208v-152h-208v-131h208v-178zM171 737l91 190h154l-87 -190h-158z" />
    <glyph glyph-name="Ecircumflex" unicode="&#xca;" horiz-adv-x="450" 
d="M40 0zM421 0h-272l-109 137v575h381v-178h-208v-73h208v-152h-208v-131h208v-178zM295 752l-62 78l-61 -78h-126l127 164h122l127 -164h-127z" />
    <glyph glyph-name="Edieresis" unicode="&#xcb;" horiz-adv-x="450" 
d="M19 0zM421 0h-272l-109 137v575h381v-178h-208v-73h208v-152h-208v-131h208v-178zM454 827l-102 -101l-102 101l102 103zM222 827l-102 -101l-101 101l101 103z" />
    <glyph glyph-name="Igrave" unicode="&#xcc;" horiz-adv-x="280" 
d="M0 0zM241 0h-173v712h173v-712zM70 737l-87 190h154l91 -190h-158z" />
    <glyph glyph-name="Iacute" unicode="&#xcd;" horiz-adv-x="272" 
d="M40 0zM213 0h-173v712h173v-712zM53 737l91 190h154l-87 -190h-158z" />
    <glyph glyph-name="Icircumflex" unicode="&#xce;" horiz-adv-x="307" 
d="M0 0zM241 0h-173v712h173v-712zM215 752l-62 78l-61 -78h-126l127 164h122l127 -164h-127z" />
    <glyph glyph-name="Idieresis" unicode="&#xcf;" horiz-adv-x="299" 
d="M0 0zM236 0h-173v712h173v-712zM367 827l-102 -101l-102 101l102 103zM135 827l-102 -101l-101 101l101 103z" />
    <glyph glyph-name="Eth" unicode="&#xd0;" horiz-adv-x="672" 
d="M0 461h70v251h261l338 -516l-136 -196h-463v309h-70v152zM462 178l-219 331v-331h219z" />
    <glyph glyph-name="Ntilde" unicode="&#xd1;" horiz-adv-x="596" 
d="M0 0zM557 -169h-11l-162 144v235l-171 202v-412h-173v621l-67 79v12h204l207 -246v246h173v-881zM465 783q-14 -17 -34.5 -29.5t-51.5 -12.5q-25 0 -46.5 7t-40.5 15t-36.5 15t-34.5 7q-28 0 -48.5 -11t-40.5 -37v99q13 16 33.5 29.5t52.5 13.5q24 0 45 -7t40 -15.5
t37 -15.5t36 -7q26 0 47 11t42 37v-99z" />
    <glyph glyph-name="Ograve" unicode="&#xd2;" horiz-adv-x="774" 
d="M2 0zM771 170l-140 -170h-489l-140 170l373 542h24zM220 178h333l-167 238zM302 737l-87 190h154l91 -190h-158z" />
    <glyph glyph-name="Oacute" unicode="&#xd3;" horiz-adv-x="774" 
d="M2 0zM771 170l-140 -170h-489l-140 170l373 542h24zM220 178h333l-167 238zM313 737l91 190h154l-87 -190h-158z" />
    <glyph glyph-name="Ocircumflex" unicode="&#xd4;" horiz-adv-x="774" 
d="M2 0zM771 170l-140 -170h-489l-140 170l373 542h24zM220 178h333l-167 238zM448 752l-62 78l-61 -78h-126l127 164h122l127 -164h-127z" />
    <glyph glyph-name="Otilde" unicode="&#xd5;" horiz-adv-x="774" 
d="M2 0zM771 170l-140 -170h-489l-140 170l373 542h24zM220 178h333l-167 238zM554 783q-14 -17 -34.5 -29.5t-51.5 -12.5q-25 0 -46.5 7t-40.5 15t-36.5 15t-34.5 7q-28 0 -48.5 -11t-40.5 -37v99q13 16 33.5 29.5t52.5 13.5q24 0 45 -7t40 -15.5t37 -15.5t36 -7
q26 0 47 11t42 37v-99z" />
    <glyph glyph-name="Odieresis" unicode="&#xd6;" horiz-adv-x="774" 
d="M2 0zM771 170l-140 -170h-489l-140 170l373 542h24zM220 178h333l-167 238zM604 827l-102 -101l-102 101l102 103zM372 827l-102 -101l-101 101l101 103z" />
    <glyph glyph-name="multiply" unicode="&#xd7;" horiz-adv-x="501" 
d="M380 130l-130 130l-129 -129l-81 81l128 129l-128 129l81 82l129 -129l130 130l81 -82l-130 -130l131 -130z" />
    <glyph glyph-name="Oslash" unicode="&#xd8;" horiz-adv-x="774" 
d="M60 -169l113 169h-31l-140 170l373 542h24l127 -185l124 185h102l-175 -260l194 -282l-140 -170h-356l-113 -169h-102zM220 178h73l127 190l-34 48zM553 178l-81 116l-78 -116h159z" />
    <glyph glyph-name="Ugrave" unicode="&#xd9;" horiz-adv-x="616" 
d="M40 0zM403 0v210l-245 -221l-118 126v597h173v-466l190 170v296h173v-712h-173zM223 737l-87 190h154l91 -190h-158z" />
    <glyph glyph-name="Uacute" unicode="&#xda;" horiz-adv-x="616" 
d="M40 0zM403 0v210l-245 -221l-118 126v597h173v-466l190 170v296h173v-712h-173zM234 737l91 190h154l-87 -190h-158z" />
    <glyph glyph-name="Ucircumflex" unicode="&#xdb;" horiz-adv-x="616" 
d="M40 0zM403 0v210l-245 -221l-118 126v597h173v-466l190 170v296h173v-712h-173zM369 752l-62 78l-61 -78h-126l127 164h122l127 -164h-127z" />
    <glyph glyph-name="Udieresis" unicode="&#xdc;" horiz-adv-x="616" 
d="M40 0zM403 0v210l-245 -221l-118 126v597h173v-466l190 170v296h173v-712h-173zM525 827l-102 -101l-102 101l102 103zM293 827l-102 -101l-101 101l101 103z" />
    <glyph glyph-name="Yacute" unicode="&#xdd;" horiz-adv-x="595" 
d="M40 0zM213 286l169 179v247h173v-751l-298 -231h-13v218l138 105v189l-224 -228l-118 125v573h173v-426zM234 737l91 190h154l-87 -190h-158z" />
    <glyph glyph-name="Thorn" unicode="&#xde;" horiz-adv-x="582" 
d="M213 554h249l120 -135l-179 -263h-190v-156h-173v712h173v-158zM350 376h-137v-201z" />
    <glyph glyph-name="germandbls" unicode="&#xdf;" horiz-adv-x="1104" 
d="M0 0zM0 0v16l100 162h258l-278 378l87 156h357v-178h-206l255 -341l-137 -193h-436zM527 0v16l100 162h258l-278 378l87 156h357v-178h-206l255 -341l-137 -193h-436z" />
    <glyph glyph-name="agrave" unicode="&#xe0;" 
d="M0 0zM261 463l195 249h210v-712h-185l-200 192l-154 -201l-127 136l149 191l-77 74l114 143zM386 337l107 -102v236zM476 737l-87 190h154l91 -190h-158z" />
    <glyph glyph-name="aacute" unicode="&#xe1;" 
d="M0 0zM261 463l195 249h210v-712h-185l-200 192l-154 -201l-127 136l149 191l-77 74l114 143zM386 337l107 -102v236zM486 737l91 190h154l-87 -190h-158z" />
    <glyph glyph-name="acircumflex" unicode="&#xe2;" 
d="M0 0zM261 463l195 249h210v-712h-185l-200 192l-154 -201l-127 136l149 191l-77 74l114 143zM386 337l107 -102v236zM622 752l-62 78l-61 -78h-126l127 164h122l127 -164h-127z" />
    <glyph glyph-name="atilde" unicode="&#xe3;" 
d="M0 0zM261 463l195 249h210v-712h-185l-200 192l-154 -201l-127 136l149 191l-77 74l114 143zM386 337l107 -102v236zM730 783q-14 -17 -34.5 -29.5t-51.5 -12.5q-25 0 -46.5 7t-40.5 15t-36.5 15t-34.5 7q-28 0 -48.5 -11t-40.5 -37v99q13 16 33.5 29.5t52.5 13.5
q24 0 45 -7t40 -15.5t37 -15.5t36 -7q26 0 47 11t42 37v-99z" />
    <glyph glyph-name="adieresis" unicode="&#xe4;" 
d="M0 0zM261 463l195 249h210v-712h-185l-200 192l-154 -201l-127 136l149 191l-77 74l114 143zM386 337l107 -102v236zM775 827l-102 -101l-102 101l102 103zM543 827l-102 -101l-101 101l101 103z" />
    <glyph glyph-name="aring" unicode="&#xe5;" 
d="M0 0zM261 463l195 249h210v-712h-185l-200 192l-154 -201l-127 136l149 191l-77 74l114 143zM386 337l107 -102v236zM666 831q0 -48 -24 -71.5t-81 -23.5q-105 0 -105 95q0 47 25.5 71.5t79.5 24.5q57 0 81 -24.5t24 -71.5zM608 831q0 47 -47 47q-43 0 -43 -47
q0 -42 43 -42q47 0 47 42z" />
    <glyph glyph-name="ae" unicode="&#xe6;" horiz-adv-x="903" 
d="M0 0zM875 0h-394l-200 192l-154 -201l-127 136l149 191l-77 74l114 143l75 -72l195 249h419v-178h-209v-73h209v-152h-209v-131h209v-178zM392 337l101 -95v226z" />
    <glyph glyph-name="ccedilla" unicode="&#xe7;" horiz-adv-x="588" 
d="M2 0zM228 534l413 -578l-140 -135l-499 721l140 170h427v-178h-341zM279 -223l-88 189h155l91 -189h-158z" />
    <glyph glyph-name="egrave" unicode="&#xe8;" horiz-adv-x="450" 
d="M40 0zM421 0h-272l-109 137v575h381v-178h-208v-73h208v-152h-208v-131h208v-178zM150 737l-87 190h154l91 -190h-158z" />
    <glyph glyph-name="eacute" unicode="&#xe9;" horiz-adv-x="450" 
d="M40 0zM421 0h-272l-109 137v575h381v-178h-208v-73h208v-152h-208v-131h208v-178zM171 737l91 190h154l-87 -190h-158z" />
    <glyph glyph-name="ecircumflex" unicode="&#xea;" horiz-adv-x="450" 
d="M40 0zM421 0h-272l-109 137v575h381v-178h-208v-73h208v-152h-208v-131h208v-178zM295 752l-62 78l-61 -78h-126l127 164h122l127 -164h-127z" />
    <glyph glyph-name="edieresis" unicode="&#xeb;" horiz-adv-x="450" 
d="M19 0zM421 0h-272l-109 137v575h381v-178h-208v-73h208v-152h-208v-131h208v-178zM454 827l-102 -101l-102 101l102 103zM222 827l-102 -101l-101 101l101 103z" />
    <glyph glyph-name="igrave" unicode="&#xec;" horiz-adv-x="280" 
d="M0 0zM241 0h-173v712h173v-712zM70 737l-87 190h154l91 -190h-158z" />
    <glyph glyph-name="iacute" unicode="&#xed;" horiz-adv-x="272" 
d="M40 0zM213 0h-173v712h173v-712zM53 737l91 190h154l-87 -190h-158z" />
    <glyph glyph-name="icircumflex" unicode="&#xee;" horiz-adv-x="307" 
d="M0 0zM241 0h-173v712h173v-712zM215 752l-62 78l-61 -78h-126l127 164h122l127 -164h-127z" />
    <glyph glyph-name="idieresis" unicode="&#xef;" horiz-adv-x="299" 
d="M0 0zM236 0h-173v712h173v-712zM367 827l-102 -101l-102 101l102 103zM135 827l-102 -101l-101 101l101 103z" />
    <glyph glyph-name="eth" unicode="&#xf0;" horiz-adv-x="672" 
d="M0 0zM0 461h70v251h261l338 -516l-136 -196h-463v309h-70v152zM462 178l-219 331v-331h219z" />
    <glyph glyph-name="ntilde" unicode="&#xf1;" horiz-adv-x="596" 
d="M0 0zM557 -169h-11l-162 144v235l-171 202v-412h-173v621l-67 79v12h204l207 -246v246h173v-881zM465 783q-14 -17 -34.5 -29.5t-51.5 -12.5q-25 0 -46.5 7t-40.5 15t-36.5 15t-34.5 7q-28 0 -48.5 -11t-40.5 -37v99q13 16 33.5 29.5t52.5 13.5q24 0 45 -7t40 -15.5
t37 -15.5t36 -7q26 0 47 11t42 37v-99z" />
    <glyph glyph-name="ograve" unicode="&#xf2;" horiz-adv-x="774" 
d="M2 0zM771 170l-140 -170h-489l-140 170l373 542h24zM220 178h333l-167 238zM302 737l-87 190h154l91 -190h-158z" />
    <glyph glyph-name="oacute" unicode="&#xf3;" horiz-adv-x="774" 
d="M2 0zM771 170l-140 -170h-489l-140 170l373 542h24zM220 178h333l-167 238zM313 737l91 190h154l-87 -190h-158z" />
    <glyph glyph-name="ocircumflex" unicode="&#xf4;" horiz-adv-x="774" 
d="M2 0zM771 170l-140 -170h-489l-140 170l373 542h24zM220 178h333l-167 238zM448 752l-62 78l-61 -78h-126l127 164h122l127 -164h-127z" />
    <glyph glyph-name="otilde" unicode="&#xf5;" horiz-adv-x="774" 
d="M2 0zM771 170l-140 -170h-489l-140 170l373 542h24zM220 178h333l-167 238zM554 783q-14 -17 -34.5 -29.5t-51.5 -12.5q-25 0 -46.5 7t-40.5 15t-36.5 15t-34.5 7q-28 0 -48.5 -11t-40.5 -37v99q13 16 33.5 29.5t52.5 13.5q24 0 45 -7t40 -15.5t37 -15.5t36 -7
q26 0 47 11t42 37v-99z" />
    <glyph glyph-name="odieresis" unicode="&#xf6;" horiz-adv-x="774" 
d="M2 0zM771 170l-140 -170h-489l-140 170l373 542h24zM220 178h333l-167 238zM604 827l-102 -101l-102 101l102 103zM372 827l-102 -101l-101 101l101 103z" />
    <glyph glyph-name="divide" unicode="&#xf7;" horiz-adv-x="559" 
d="M40 0zM40 285v114h480v-114h-480zM402 587l-122 -123l-122 123l122 122zM402 103l-122 -123l-122 123l122 122z" />
    <glyph glyph-name="oslash" unicode="&#xf8;" horiz-adv-x="774" 
d="M2 0zM60 -169l113 169h-31l-140 170l373 542h24l127 -185l124 185h102l-175 -260l194 -282l-140 -170h-356l-113 -169h-102zM220 178h73l127 190l-34 48zM553 178l-81 116l-78 -116h159z" />
    <glyph glyph-name="ugrave" unicode="&#xf9;" horiz-adv-x="616" 
d="M40 0zM403 0v210l-245 -221l-118 126v597h173v-466l190 170v296h173v-712h-173zM223 737l-87 190h154l91 -190h-158z" />
    <glyph glyph-name="uacute" unicode="&#xfa;" horiz-adv-x="616" 
d="M40 0zM403 0v210l-245 -221l-118 126v597h173v-466l190 170v296h173v-712h-173zM234 737l91 190h154l-87 -190h-158z" />
    <glyph glyph-name="ucircumflex" unicode="&#xfb;" horiz-adv-x="616" 
d="M40 0zM403 0v210l-245 -221l-118 126v597h173v-466l190 170v296h173v-712h-173zM369 752l-62 78l-61 -78h-126l127 164h122l127 -164h-127z" />
    <glyph glyph-name="udieresis" unicode="&#xfc;" horiz-adv-x="616" 
d="M40 0zM403 0v210l-245 -221l-118 126v597h173v-466l190 170v296h173v-712h-173zM525 827l-102 -101l-102 101l102 103zM293 827l-102 -101l-101 101l101 103z" />
    <glyph glyph-name="yacute" unicode="&#xfd;" horiz-adv-x="595" 
d="M40 0zM213 286l169 179v247h173v-751l-298 -231h-13v218l138 105v189l-224 -228l-118 125v573h173v-426zM234 737l91 190h154l-87 -190h-158z" />
    <glyph glyph-name="thorn" unicode="&#xfe;" horiz-adv-x="582" 
d="M40 0zM213 554h249l120 -135l-179 -263h-190v-156h-173v712h173v-158zM350 376h-137v-201z" />
    <glyph glyph-name="ydieresis" unicode="&#xff;" horiz-adv-x="595" 
d="M40 0zM213 286l169 179v247h173v-751l-298 -231h-13v218l138 105v189l-224 -228l-118 125v573h173v-426zM525 827l-102 -101l-102 101l102 103zM293 827l-102 -101l-101 101l101 103z" />
    <glyph glyph-name="Amacron" unicode="&#x100;" 
d="M0 0zM261 463l195 249h210v-712h-185l-200 192l-154 -201l-127 136l149 191l-77 74l114 143zM386 337l107 -102v236zM400 751v104h326v-104h-326z" />
    <glyph glyph-name="amacron" unicode="&#x101;" 
d="M0 0zM261 463l195 249h210v-712h-185l-200 192l-154 -201l-127 136l149 191l-77 74l114 143zM386 337l107 -102v236zM400 751v104h326v-104h-326z" />
    <glyph glyph-name="Abreve" unicode="&#x102;" 
d="M0 0zM261 463l195 249h210v-712h-185l-200 192l-154 -201l-127 136l149 191l-77 74l114 143zM386 337l107 -102v236zM723 912q0 -41 -14 -71.5t-36.5 -51t-52 -30.5t-60.5 -10q-32 0 -61.5 10t-52.5 30.5t-37 51t-14 71.5h93q2 -34 19 -53.5t53 -19.5q34 0 50.5 19.5
t18.5 53.5h94z" />
    <glyph glyph-name="abreve" unicode="&#x103;" 
d="M0 0zM261 463l195 249h210v-712h-185l-200 192l-154 -201l-127 136l149 191l-77 74l114 143zM386 337l107 -102v236zM723 912q0 -41 -14 -71.5t-36.5 -51t-52 -30.5t-60.5 -10q-32 0 -61.5 10t-52.5 30.5t-37 51t-14 71.5h93q2 -34 19 -53.5t53 -19.5q34 0 50.5 19.5
t18.5 53.5h94z" />
    <glyph glyph-name="Aogonek" unicode="&#x104;" 
d="M666 -270h-11l-196 167l135 103h-113l-200 192l-154 -201l-127 136l149 191l-77 74l114 143l75 -72l195 249h210v-712l-70 -58l70 -61v-151zM392 337l101 -95v226z" />
    <glyph glyph-name="aogonek" unicode="&#x105;" 
d="M0 0zM666 -270h-11l-196 167l135 103h-113l-200 192l-154 -201l-127 136l149 191l-77 74l114 143l75 -72l195 249h210v-712l-70 -58l70 -61v-151zM392 337l101 -95v226z" />
    <glyph glyph-name="Cacute" unicode="&#x106;" horiz-adv-x="588" 
d="M2 0zM228 534l413 -578l-140 -135l-499 721l140 170h427v-178h-341zM297 737l91 190h154l-87 -190h-158z" />
    <glyph glyph-name="cacute" unicode="&#x107;" horiz-adv-x="588" 
d="M2 0zM228 534l413 -578l-140 -135l-499 721l140 170h427v-178h-341zM297 737l91 190h154l-87 -190h-158z" />
    <glyph glyph-name="Cdotaccent" unicode="&#x10a;" horiz-adv-x="588" 
d="M2 0zM228 534l413 -578l-140 -135l-499 721l140 170h427v-178h-341zM455 827l-101 -101l-102 101l102 103z" />
    <glyph glyph-name="cdotaccent" unicode="&#x10b;" horiz-adv-x="588" 
d="M2 0zM228 534l413 -578l-140 -135l-499 721l140 170h427v-178h-341zM455 827l-101 -101l-102 101l102 103z" />
    <glyph glyph-name="Ccaron" unicode="&#x10c;" horiz-adv-x="588" 
d="M2 0zM228 534l413 -578l-140 -135l-499 721l140 170h427v-178h-341zM298 916l61 -76l62 76h127l-127 -164h-122l-127 164h126z" />
    <glyph glyph-name="ccaron" unicode="&#x10d;" horiz-adv-x="588" 
d="M2 0zM228 534l413 -578l-140 -135l-499 721l140 170h427v-178h-341zM298 916l61 -76l62 76h127l-127 -164h-122l-127 164h126z" />
    <glyph glyph-name="Dcaron" unicode="&#x10e;" horiz-adv-x="642" 
d="M0 0zM639 196l-137 -196h-462v712h260zM431 178l-218 331v-331h218zM126 916l61 -76l62 76h127l-127 -164h-122l-127 164h126z" />
    <glyph glyph-name="dcaron" unicode="&#x10f;" horiz-adv-x="642" 
d="M0 0zM639 196l-137 -196h-462v712h260zM431 178l-218 331v-331h218zM126 916l61 -76l62 76h127l-127 -164h-122l-127 164h126z" />
    <glyph glyph-name="Dcroat" unicode="&#x110;" horiz-adv-x="672" 
d="M0 0zM0 461h70v251h261l338 -516l-136 -196h-463v309h-70v152zM462 178l-219 331v-331h219z" />
    <glyph glyph-name="dcroat" unicode="&#x111;" horiz-adv-x="672" 
d="M0 0zM0 461h70v251h261l338 -516l-136 -196h-463v309h-70v152zM462 178l-219 331v-331h219z" />
    <glyph glyph-name="Emacron" unicode="&#x112;" horiz-adv-x="450" 
d="M40 0zM421 0h-272l-109 137v575h381v-178h-208v-73h208v-152h-208v-131h208v-178zM72 751v104h326v-104h-326z" />
    <glyph glyph-name="emacron" unicode="&#x113;" horiz-adv-x="450" 
d="M40 0zM421 0h-272l-109 137v575h381v-178h-208v-73h208v-152h-208v-131h208v-178zM72 751v104h326v-104h-326z" />
    <glyph glyph-name="Ebreve" unicode="&#x114;" horiz-adv-x="450" 
d="M40 0zM421 0h-272l-109 137v575h381v-178h-208v-73h208v-152h-208v-131h208v-178zM399 912q0 -41 -14 -71.5t-36.5 -51t-52 -30.5t-60.5 -10q-32 0 -61.5 10t-52.5 30.5t-37 51t-14 71.5h93q2 -34 19 -53.5t53 -19.5q34 0 50.5 19.5t18.5 53.5h94z" />
    <glyph glyph-name="ebreve" unicode="&#x115;" horiz-adv-x="450" 
d="M40 0zM421 0h-272l-109 137v575h381v-178h-208v-73h208v-152h-208v-131h208v-178zM399 912q0 -41 -14 -71.5t-36.5 -51t-52 -30.5t-60.5 -10q-32 0 -61.5 10t-52.5 30.5t-37 51t-14 71.5h93q2 -34 19 -53.5t53 -19.5q34 0 50.5 19.5t18.5 53.5h94z" />
    <glyph glyph-name="Edotaccent" unicode="&#x116;" horiz-adv-x="450" 
d="M40 0zM421 0h-272l-109 137v575h381v-178h-208v-73h208v-152h-208v-131h208v-178zM336 827l-101 -101l-102 101l102 103z" />
    <glyph glyph-name="edotaccent" unicode="&#x117;" horiz-adv-x="450" 
d="M40 0zM421 0h-272l-109 137v575h381v-178h-208v-73h208v-152h-208v-131h208v-178zM336 827l-101 -101l-102 101l102 103z" />
    <glyph glyph-name="Eogonek" unicode="&#x118;" horiz-adv-x="450" 
d="M421 -270h-11l-196 167l135 103h-200l-109 137v575h381v-178h-208v-73h208v-152h-208v-131h208v-178l-70 -58l70 -61v-151z" />
    <glyph glyph-name="eogonek" unicode="&#x119;" horiz-adv-x="450" 
d="M40 0zM421 -270h-11l-196 167l135 103h-200l-109 137v575h381v-178h-208v-73h208v-152h-208v-131h208v-178l-70 -58l70 -61v-151z" />
    <glyph glyph-name="Ecaron" unicode="&#x11a;" horiz-adv-x="450" 
d="M40 0zM421 0h-272l-109 137v575h381v-178h-208v-73h208v-152h-208v-131h208v-178zM173 916l61 -76l62 76h127l-127 -164h-122l-127 164h126z" />
    <glyph glyph-name="ecaron" unicode="&#x11b;" horiz-adv-x="450" 
d="M40 0zM421 0h-272l-109 137v575h381v-178h-208v-73h208v-152h-208v-131h208v-178zM173 916l61 -76l62 76h127l-127 -164h-122l-127 164h126z" />
    <glyph glyph-name="Gbreve" unicode="&#x11e;" horiz-adv-x="630" 
d="M2 0zM2 516l136 196h463v-178h-384l211 -331v206h173v-409h-261zM528 912q0 -41 -14 -71.5t-36.5 -51t-52 -30.5t-60.5 -10q-32 0 -61.5 10t-52.5 30.5t-37 51t-14 71.5h93q2 -34 19 -53.5t53 -19.5q34 0 50.5 19.5t18.5 53.5h94z" />
    <glyph glyph-name="gbreve" unicode="&#x11f;" horiz-adv-x="630" 
d="M2 0zM2 516l136 196h463v-178h-384l211 -331v206h173v-409h-261zM528 912q0 -41 -14 -71.5t-36.5 -51t-52 -30.5t-60.5 -10q-32 0 -61.5 10t-52.5 30.5t-37 51t-14 71.5h93q2 -34 19 -53.5t53 -19.5q34 0 50.5 19.5t18.5 53.5h94z" />
    <glyph glyph-name="Gdotaccent" unicode="&#x120;" horiz-adv-x="630" 
d="M2 0zM2 516l136 196h463v-178h-384l211 -331v206h173v-409h-261zM465 827l-101 -101l-102 101l102 103z" />
    <glyph glyph-name="gdotaccent" unicode="&#x121;" horiz-adv-x="630" 
d="M2 0zM2 516l136 196h463v-178h-384l211 -331v206h173v-409h-261zM465 827l-101 -101l-102 101l102 103z" />
    <glyph glyph-name="Gcommaaccent" unicode="&#x122;" horiz-adv-x="630" 
d="M2 0zM2 516l136 196h463v-178h-384l211 -331v206h173v-409h-261zM439 -223l-88 189h155l91 -189h-158z" />
    <glyph glyph-name="gcommaaccent" unicode="&#x123;" horiz-adv-x="630" 
d="M2 0zM2 516l136 196h463v-178h-384l211 -331v206h173v-409h-261zM439 -223l-88 189h155l91 -189h-158z" />
    <glyph glyph-name="Hbar" unicode="&#x126;" horiz-adv-x="565" 
d="M507 -169h-11l-162 144v334h-121v-309h-173v712h173v-74h121v74h173v-251h95v-11l-95 -125v-494zM334 461v73h-121v-73h121z" />
    <glyph glyph-name="hbar" unicode="&#x127;" horiz-adv-x="565" 
d="M40 0zM507 -169h-11l-162 144v334h-121v-309h-173v712h173v-74h121v74h173v-251h95v-11l-95 -125v-494zM334 461v73h-121v-73h121z" />
    <glyph glyph-name="Itilde" unicode="&#x128;" horiz-adv-x="292" 
d="M0 0zM233 0h-173v712h173v-712zM313 783q-14 -17 -34.5 -29.5t-51.5 -12.5q-25 0 -46.5 7t-40.5 15t-36.5 15t-34.5 7q-28 0 -48.5 -11t-40.5 -37v99q13 16 33.5 29.5t52.5 13.5q24 0 45 -7t40 -15.5t37 -15.5t36 -7q26 0 47 11t42 37v-99z" />
    <glyph glyph-name="itilde" unicode="&#x129;" horiz-adv-x="292" 
d="M0 0zM233 0h-173v712h173v-712zM313 783q-14 -17 -34.5 -29.5t-51.5 -12.5q-25 0 -46.5 7t-40.5 15t-36.5 15t-34.5 7q-28 0 -48.5 -11t-40.5 -37v99q13 16 33.5 29.5t52.5 13.5q24 0 45 -7t40 -15.5t37 -15.5t36 -7q26 0 47 11t42 37v-99z" />
    <glyph glyph-name="Imacron" unicode="&#x12a;" horiz-adv-x="296" 
d="M0 0zM235 0h-173v712h173v-712zM-14 751v104h326v-104h-326z" />
    <glyph glyph-name="imacron" unicode="&#x12b;" horiz-adv-x="296" 
d="M0 0zM235 0h-173v712h173v-712zM-14 751v104h326v-104h-326z" />
    <glyph glyph-name="Ibreve" unicode="&#x12c;" horiz-adv-x="275" 
d="M0 0zM224 0h-173v712h173v-712zM302 912q0 -41 -14 -71.5t-36.5 -51t-52 -30.5t-60.5 -10q-32 0 -61.5 10t-52.5 30.5t-37 51t-14 71.5h93q2 -34 19 -53.5t53 -19.5q34 0 50.5 19.5t18.5 53.5h94z" />
    <glyph glyph-name="ibreve" unicode="&#x12d;" horiz-adv-x="275" 
d="M0 0zM224 0h-173v712h173v-712zM302 912q0 -41 -14 -71.5t-36.5 -51t-52 -30.5t-60.5 -10q-32 0 -61.5 10t-52.5 30.5t-37 51t-14 71.5h93q2 -34 19 -53.5t53 -19.5q34 0 50.5 19.5t18.5 53.5h94z" />
    <glyph glyph-name="Iogonek" unicode="&#x12e;" horiz-adv-x="252" 
d="M213 -270h-11l-197 167l135 103h-100v712h173v-712l-71 -58l71 -61v-151z" />
    <glyph glyph-name="iogonek" unicode="&#x12f;" horiz-adv-x="252" 
d="M5 0zM213 -270h-11l-197 167l135 103h-100v712h173v-712l-71 -58l71 -61v-151z" />
    <glyph glyph-name="Idotaccent" unicode="&#x130;" horiz-adv-x="252" 
d="M24 0zM213 0h-173v712h173v-712zM227 827l-101 -101l-102 101l102 103z" />
    <glyph glyph-name="dotlessi" unicode="&#x131;" horiz-adv-x="252" 
d="M40 0zM213 0h-173v712h173v-712z" />
    <glyph glyph-name="IJ" unicode="&#x132;" horiz-adv-x="587" 
d="M40 0zM213 0h-173v712h173v-712zM249 -270h-13v227l139 106v471h-105v178h278v-751z" />
    <glyph glyph-name="ij" unicode="&#x133;" horiz-adv-x="587" 
d="M40 0zM213 0h-173v712h173v-712zM249 -270h-13v227l139 106v471h-105v178h278v-751z" />
    <glyph glyph-name="Kcommaaccent" unicode="&#x136;" horiz-adv-x="655" 
d="M40 0zM213 510l222 219l118 -129l-181 -166l337 -478l-139 -136l-357 542v-362h-173v712h173v-202zM333 -223l-88 189h155l91 -189h-158z" />
    <glyph glyph-name="kcommaaccent" unicode="&#x137;" horiz-adv-x="655" 
d="M40 0zM213 510l222 219l118 -129l-181 -166l337 -478l-139 -136l-357 542v-362h-173v712h173v-202zM333 -223l-88 189h155l91 -189h-158z" />
    <glyph glyph-name="Lacute" unicode="&#x139;" horiz-adv-x="254" 
d="M40 0zM351 -270h-13l-298 231v751h173v-649l138 -106v-227zM54 737l91 190h154l-87 -190h-158z" />
    <glyph glyph-name="lacute" unicode="&#x13a;" horiz-adv-x="254" 
d="M40 0zM351 -270h-13l-298 231v751h173v-649l138 -106v-227zM54 737l91 190h154l-87 -190h-158z" />
    <glyph glyph-name="Lcommaaccent" unicode="&#x13b;" horiz-adv-x="363" 
d="M351 -102h-13l-298 231v583h173v-481l138 -105v-228zM131 -223l-88 189h156l91 -189h-159z" />
    <glyph glyph-name="lcommaaccent" unicode="&#x13c;" horiz-adv-x="363" 
d="M40 0zM351 -102h-13l-298 231v583h173v-481l138 -105v-228zM131 -223l-88 189h156l91 -189h-159z" />
    <glyph glyph-name="Lcaron" unicode="&#x13d;" horiz-adv-x="449" 
d="M40 0zM351 -270h-13l-298 231v751h173v-649l138 -106v-227zM314 522l-88 189h155l91 -189h-158z" />
    <glyph glyph-name="lcaron" unicode="&#x13e;" horiz-adv-x="449" 
d="M40 0zM351 -270h-13l-298 231v751h173v-649l138 -106v-227zM314 522l-88 189h155l91 -189h-158z" />
    <glyph glyph-name="Lslash" unicode="&#x141;" horiz-adv-x="367" 
d="M359 291l-117 59v-287l139 -106v-227h-13l-299 231v476l-69 35v152l69 -36v124h173v-211l117 -59v-151z" />
    <glyph glyph-name="lslash" unicode="&#x142;" horiz-adv-x="367" 
d="M0 0zM359 291l-117 59v-287l139 -106v-227h-13l-299 231v476l-69 35v152l69 -36v124h173v-211l117 -59v-151z" />
    <glyph glyph-name="Nacute" unicode="&#x143;" horiz-adv-x="596" 
d="M0 0zM557 -169h-11l-162 144v235l-171 202v-412h-173v621l-67 79v12h204l207 -246v246h173v-881zM225 737l91 190h154l-87 -190h-158z" />
    <glyph glyph-name="nacute" unicode="&#x144;" horiz-adv-x="596" 
d="M0 0zM557 -169h-11l-162 144v235l-171 202v-412h-173v621l-67 79v12h204l207 -246v246h173v-881zM225 737l91 190h154l-87 -190h-158z" />
    <glyph glyph-name="Ncommaaccent" unicode="&#x145;" horiz-adv-x="596" 
d="M0 0zM557 -169h-11l-162 144v235l-171 202v-412h-173v621l-67 79v12h204l207 -246v246h173v-881zM301 -223l-88 189h155l91 -189h-158z" />
    <glyph glyph-name="ncommaaccent" unicode="&#x146;" horiz-adv-x="596" 
d="M0 0zM557 -169h-11l-162 144v235l-171 202v-412h-173v621l-67 79v12h204l207 -246v246h173v-881zM301 -223l-88 189h155l91 -189h-158z" />
    <glyph glyph-name="Ncaron" unicode="&#x147;" horiz-adv-x="596" 
d="M0 0zM557 -169h-11l-162 144v235l-171 202v-412h-173v621l-67 79v12h204l207 -246v246h173v-881zM236 916l61 -76l62 76h127l-127 -164h-122l-127 164h126z" />
    <glyph glyph-name="ncaron" unicode="&#x148;" horiz-adv-x="596" 
d="M0 0zM557 -169h-11l-162 144v235l-171 202v-412h-173v621l-67 79v12h204l207 -246v246h173v-881zM236 916l61 -76l62 76h127l-127 -164h-122l-127 164h126z" />
    <glyph glyph-name="Eng" unicode="&#x14a;" horiz-adv-x="596" 
d="M258 -270h-13v227l139 106v147l-171 202v-412h-173v621l-67 79v12h204l207 -246v246h173v-751z" />
    <glyph glyph-name="eng" unicode="&#x14b;" horiz-adv-x="596" 
d="M0 0zM258 -270h-13v227l139 106v147l-171 202v-412h-173v621l-67 79v12h204l207 -246v246h173v-751z" />
    <glyph glyph-name="Omacron" unicode="&#x14c;" horiz-adv-x="774" 
d="M2 0zM771 170l-140 -170h-489l-140 170l373 542h24zM220 178h333l-167 238zM224 751v104h326v-104h-326z" />
    <glyph glyph-name="omacron" unicode="&#x14d;" horiz-adv-x="774" 
d="M2 0zM771 170l-140 -170h-489l-140 170l373 542h24zM220 178h333l-167 238zM224 751v104h326v-104h-326z" />
    <glyph glyph-name="Obreve" unicode="&#x14e;" horiz-adv-x="774" 
d="M2 0zM771 170l-140 -170h-489l-140 170l373 542h24zM220 178h333l-167 238zM551 912q0 -41 -14 -71.5t-36.5 -51t-52 -30.5t-60.5 -10q-32 0 -61.5 10t-52.5 30.5t-37 51t-14 71.5h93q2 -34 19 -53.5t53 -19.5q34 0 50.5 19.5t18.5 53.5h94z" />
    <glyph glyph-name="obreve" unicode="&#x14f;" horiz-adv-x="774" 
d="M2 0zM771 170l-140 -170h-489l-140 170l373 542h24zM220 178h333l-167 238zM551 912q0 -41 -14 -71.5t-36.5 -51t-52 -30.5t-60.5 -10q-32 0 -61.5 10t-52.5 30.5t-37 51t-14 71.5h93q2 -34 19 -53.5t53 -19.5q34 0 50.5 19.5t18.5 53.5h94z" />
    <glyph glyph-name="Ohungarumlaut" unicode="&#x150;" horiz-adv-x="774" 
d="M2 0zM771 170l-140 -170h-489l-140 170l373 542h24zM220 178h333l-167 238zM422 737l91 190h155l-88 -190h-158zM205 737l91 190h155l-88 -190h-158z" />
    <glyph glyph-name="ohungarumlaut" unicode="&#x151;" horiz-adv-x="774" 
d="M2 0zM771 170l-140 -170h-489l-140 170l373 542h24zM220 178h333l-167 238zM422 737l91 190h155l-88 -190h-158zM205 737l91 190h155l-88 -190h-158z" />
    <glyph glyph-name="OE" unicode="&#x152;" horiz-adv-x="801" 
d="M772 0h-623l-109 137v575h732v-178h-209v-73h209v-152h-209v-131h209v-178zM213 178h177v356h-177v-356z" />
    <glyph glyph-name="oe" unicode="&#x153;" horiz-adv-x="801" 
d="M40 0zM772 0h-623l-109 137v575h732v-178h-209v-73h209v-152h-209v-131h209v-178zM213 178h177v356h-177v-356z" />
    <glyph glyph-name="Racute" unicode="&#x154;" horiz-adv-x="594" 
d="M40 0zM659 -49l-138 -130l-308 377v-198h-173v712h173v-134l100 134h15l263 -346l-161 -130zM379 348l-80 102l-81 -102h161zM194 737l91 190h154l-87 -190h-158z" />
    <glyph glyph-name="racute" unicode="&#x155;" horiz-adv-x="594" 
d="M40 0zM659 -49l-138 -130l-308 377v-198h-173v712h173v-134l100 134h15l263 -346l-161 -130zM379 348l-80 102l-81 -102h161zM194 737l91 190h154l-87 -190h-158z" />
    <glyph glyph-name="Rcommaaccent" unicode="&#x156;" horiz-adv-x="594" 
d="M40 0zM659 -49l-138 -130l-308 377v-198h-173v712h173v-134l100 134h15l263 -346l-161 -130zM379 348l-80 102l-81 -102h161zM294 -223l-88 189h155l91 -189h-158z" />
    <glyph glyph-name="rcommaaccent" unicode="&#x157;" horiz-adv-x="594" 
d="M40 0zM659 -49l-138 -130l-308 377v-198h-173v712h173v-134l100 134h15l263 -346l-161 -130zM379 348l-80 102l-81 -102h161zM294 -223l-88 189h155l91 -189h-158z" />
    <glyph glyph-name="Rcaron" unicode="&#x158;" horiz-adv-x="594" 
d="M40 0zM659 -49l-138 -130l-308 377v-198h-173v712h173v-134l100 134h15l263 -346l-161 -130zM379 348l-80 102l-81 -102h161zM206 916l61 -76l62 76h127l-127 -164h-122l-127 164h126z" />
    <glyph glyph-name="rcaron" unicode="&#x159;" horiz-adv-x="594" 
d="M40 0zM659 -49l-138 -130l-308 377v-198h-173v712h173v-134l100 134h15l263 -346l-161 -130zM379 348l-80 102l-81 -102h161zM206 916l61 -76l62 76h127l-127 -164h-122l-127 164h126z" />
    <glyph glyph-name="Sacute" unicode="&#x15a;" horiz-adv-x="577" 
d="M0 0zM0 0v16l100 162h258l-278 378l87 156h357v-178h-206l255 -341l-137 -193h-436zM271 737l91 190h154l-87 -190h-158z" />
    <glyph glyph-name="sacute" unicode="&#x15b;" horiz-adv-x="577" 
d="M0 0zM0 0v16l100 162h258l-278 378l87 156h357v-178h-206l255 -341l-137 -193h-436zM271 737l91 190h154l-87 -190h-158z" />
    <glyph glyph-name="Scedilla" unicode="&#x15e;" horiz-adv-x="577" 
d="M0 0zM0 0v16l100 162h258l-278 378l87 156h357v-178h-206l255 -341l-137 -193h-436zM283 -223l-88 189h155l91 -189h-158z" />
    <glyph glyph-name="scedilla" unicode="&#x15f;" horiz-adv-x="577" 
d="M0 0zM0 0v16l100 162h258l-278 378l87 156h357v-178h-206l255 -341l-137 -193h-436zM283 -223l-88 189h155l91 -189h-158z" />
    <glyph glyph-name="Scaron" unicode="&#x160;" horiz-adv-x="577" 
d="M0 0zM0 0v16l100 162h258l-278 378l87 156h357v-178h-206l255 -341l-137 -193h-436zM261 916l61 -76l62 76h127l-127 -164h-122l-127 164h126z" />
    <glyph glyph-name="scaron" unicode="&#x161;" horiz-adv-x="577" 
d="M0 0zM0 0v16l100 162h258l-278 378l87 156h357v-178h-206l255 -341l-137 -193h-436zM261 916l61 -76l62 76h127l-127 -164h-122l-127 164h126z" />
    <glyph glyph-name="Tcedilla" unicode="&#x162;" horiz-adv-x="522" 
d="M490 -122h-13l-298 232v424h-169v178h502v-178h-160v-322l138 -106v-228zM235 -223l-88 189h155l91 -189h-158z" />
    <glyph glyph-name="tcedilla" unicode="&#x163;" horiz-adv-x="522" 
d="M10 0zM490 -122h-13l-298 232v424h-169v178h502v-178h-160v-322l138 -106v-228zM235 -223l-88 189h155l91 -189h-158z" />
    <glyph glyph-name="Tcaron" unicode="&#x164;" horiz-adv-x="522" 
d="M10 0zM490 -270h-13l-298 231v573h-169v178h502v-178h-160v-471l138 -106v-227zM206 916l61 -76l62 76h127l-127 -164h-122l-127 164h126z" />
    <glyph glyph-name="tcaron" unicode="&#x165;" horiz-adv-x="522" 
d="M10 0zM490 -270h-13l-298 231v573h-169v178h502v-178h-160v-471l138 -106v-227zM206 916l61 -76l62 76h127l-127 -164h-122l-127 164h126z" />
    <glyph glyph-name="Tbar" unicode="&#x166;" horiz-adv-x="522" 
d="M472 309h-120v-246l138 -106v-227h-13l-298 231v348h-110v152h110v73h-169v178h502v-178h-160v-73h120v-152z" />
    <glyph glyph-name="tbar" unicode="&#x167;" horiz-adv-x="522" 
d="M10 0zM472 309h-120v-246l138 -106v-227h-13l-298 231v348h-110v152h110v73h-169v178h502v-178h-160v-73h120v-152z" />
    <glyph glyph-name="Utilde" unicode="&#x168;" horiz-adv-x="616" 
d="M40 0zM403 0v210l-245 -221l-118 126v597h173v-466l190 170v296h173v-712h-173zM475 783q-14 -17 -34.5 -29.5t-51.5 -12.5q-25 0 -46.5 7t-40.5 15t-36.5 15t-34.5 7q-28 0 -48.5 -11t-40.5 -37v99q13 16 33.5 29.5t52.5 13.5q24 0 45 -7t40 -15.5t37 -15.5t36 -7
q26 0 47 11t42 37v-99z" />
    <glyph glyph-name="utilde" unicode="&#x169;" horiz-adv-x="616" 
d="M40 0zM403 0v210l-245 -221l-118 126v597h173v-466l190 170v296h173v-712h-173zM475 783q-14 -17 -34.5 -29.5t-51.5 -12.5q-25 0 -46.5 7t-40.5 15t-36.5 15t-34.5 7q-28 0 -48.5 -11t-40.5 -37v99q13 16 33.5 29.5t52.5 13.5q24 0 45 -7t40 -15.5t37 -15.5t36 -7
q26 0 47 11t42 37v-99z" />
    <glyph glyph-name="Umacron" unicode="&#x16a;" horiz-adv-x="616" 
d="M40 0zM403 0v210l-245 -221l-118 126v597h173v-466l190 170v296h173v-712h-173zM145 751v104h326v-104h-326z" />
    <glyph glyph-name="umacron" unicode="&#x16b;" horiz-adv-x="616" 
d="M40 0zM403 0v210l-245 -221l-118 126v597h173v-466l190 170v296h173v-712h-173zM145 751v104h326v-104h-326z" />
    <glyph glyph-name="Ubreve" unicode="&#x16c;" horiz-adv-x="616" 
d="M40 0zM403 0v210l-245 -221l-118 126v597h173v-466l190 170v296h173v-712h-173zM472 912q0 -41 -14 -71.5t-36.5 -51t-52 -30.5t-60.5 -10q-32 0 -61.5 10t-52.5 30.5t-37 51t-14 71.5h93q2 -34 19 -53.5t53 -19.5q34 0 50.5 19.5t18.5 53.5h94z" />
    <glyph glyph-name="ubreve" unicode="&#x16d;" horiz-adv-x="616" 
d="M40 0zM403 0v210l-245 -221l-118 126v597h173v-466l190 170v296h173v-712h-173zM472 912q0 -41 -14 -71.5t-36.5 -51t-52 -30.5t-60.5 -10q-32 0 -61.5 10t-52.5 30.5t-37 51t-14 71.5h93q2 -34 19 -53.5t53 -19.5q34 0 50.5 19.5t18.5 53.5h94z" />
    <glyph glyph-name="Uring" unicode="&#x16e;" horiz-adv-x="616" 
d="M40 0zM403 0v210l-245 -221l-118 126v597h173v-466l190 170v296h173v-712h-173zM413 831q0 -48 -24 -71.5t-81 -23.5q-105 0 -105 95q0 47 25.5 71.5t79.5 24.5q57 0 81 -24.5t24 -71.5zM355 831q0 47 -47 47q-43 0 -43 -47q0 -42 43 -42q47 0 47 42z" />
    <glyph glyph-name="uring" unicode="&#x16f;" horiz-adv-x="616" 
d="M40 0zM403 0v210l-245 -221l-118 126v597h173v-466l190 170v296h173v-712h-173zM413 831q0 -48 -24 -71.5t-81 -23.5q-105 0 -105 95q0 47 25.5 71.5t79.5 24.5q57 0 81 -24.5t24 -71.5zM355 831q0 47 -47 47q-43 0 -43 -47q0 -42 43 -42q47 0 47 42z" />
    <glyph glyph-name="Uhungarumlaut" unicode="&#x170;" horiz-adv-x="616" 
d="M40 0zM403 0v210l-245 -221l-118 126v597h173v-466l190 170v296h173v-712h-173zM343 737l91 190h155l-88 -190h-158zM126 737l91 190h155l-88 -190h-158z" />
    <glyph glyph-name="uhungarumlaut" unicode="&#x171;" horiz-adv-x="616" 
d="M40 0zM403 0v210l-245 -221l-118 126v597h173v-466l190 170v296h173v-712h-173zM343 737l91 190h155l-88 -190h-158zM126 737l91 190h155l-88 -190h-158z" />
    <glyph glyph-name="Uogonek" unicode="&#x172;" horiz-adv-x="616" 
d="M576 -270h-11l-196 167l135 103h-101v210l-245 -221l-118 126v597h173v-466l190 170v296h173v-712l-70 -58l70 -61v-151z" />
    <glyph glyph-name="uogonek" unicode="&#x173;" horiz-adv-x="616" 
d="M40 0zM576 -270h-11l-196 167l135 103h-101v210l-245 -221l-118 126v597h173v-466l190 170v296h173v-712l-70 -58l70 -61v-151z" />
    <glyph glyph-name="Wcircumflex" unicode="&#x174;" horiz-adv-x="662" 
d="M40 0zM331 393l119 -129v448h173v-545l-155 -167h-18l-119 133l-118 -133h-18l-155 167v545h173v-448zM392 752l-62 78l-61 -78h-126l127 164h122l127 -164h-127z" />
    <glyph glyph-name="wcircumflex" unicode="&#x175;" horiz-adv-x="662" 
d="M40 0zM331 393l119 -129v448h173v-545l-155 -167h-18l-119 133l-118 -133h-18l-155 167v545h173v-448zM392 752l-62 78l-61 -78h-126l127 164h122l127 -164h-127z" />
    <glyph glyph-name="Ycircumflex" unicode="&#x176;" horiz-adv-x="595" 
d="M40 0zM213 286l169 179v247h173v-751l-298 -231h-13v218l138 105v189l-224 -228l-118 125v573h173v-426zM369 752l-62 78l-61 -78h-126l127 164h122l127 -164h-127z" />
    <glyph glyph-name="ycircumflex" unicode="&#x177;" horiz-adv-x="595" 
d="M40 0zM213 286l169 179v247h173v-751l-298 -231h-13v218l138 105v189l-224 -228l-118 125v573h173v-426zM369 752l-62 78l-61 -78h-126l127 164h122l127 -164h-127z" />
    <glyph glyph-name="Ydieresis" unicode="&#x178;" horiz-adv-x="595" 
d="M40 0zM213 286l169 179v247h173v-751l-298 -231h-13v218l138 105v189l-224 -228l-118 125v573h173v-426zM525 827l-102 -101l-102 101l102 103zM293 827l-102 -101l-101 101l101 103z" />
    <glyph glyph-name="Zacute" unicode="&#x179;" horiz-adv-x="583" 
d="M10 0zM147 0l-137 193l255 341h-206v178h357l87 -156l-278 -378h258l100 -162v-16h-436zM189 737l91 190h154l-87 -190h-158z" />
    <glyph glyph-name="zacute" unicode="&#x17a;" horiz-adv-x="583" 
d="M10 0zM147 0l-137 193l255 341h-206v178h357l87 -156l-278 -378h258l100 -162v-16h-436zM189 737l91 190h154l-87 -190h-158z" />
    <glyph glyph-name="Zdotaccent" unicode="&#x17b;" horiz-adv-x="583" 
d="M10 0zM147 0l-137 193l255 341h-206v178h357l87 -156l-278 -378h258l100 -162v-16h-436zM363 827l-101 -101l-102 101l102 103z" />
    <glyph glyph-name="zdotaccent" unicode="&#x17c;" horiz-adv-x="583" 
d="M10 0zM147 0l-137 193l255 341h-206v178h357l87 -156l-278 -378h258l100 -162v-16h-436zM363 827l-101 -101l-102 101l102 103z" />
    <glyph glyph-name="Zcaron" unicode="&#x17d;" horiz-adv-x="583" 
d="M10 0zM147 0l-137 193l255 341h-206v178h357l87 -156l-278 -378h258l100 -162v-16h-436zM197 916l61 -76l62 76h127l-127 -164h-122l-127 164h126z" />
    <glyph glyph-name="zcaron" unicode="&#x17e;" horiz-adv-x="583" 
d="M10 0zM147 0l-137 193l255 341h-206v178h357l87 -156l-278 -378h258l100 -162v-16h-436zM197 916l61 -76l62 76h127l-127 -164h-122l-127 164h126z" />
    <glyph glyph-name="uni0181" unicode="&#x181;" horiz-adv-x="858" 
d="M852 335l-276 -335h-260v566h-129l84 -116l-114 -110l-155 233l115 139h617l96 -148l-100 -123zM690 413h-200v-230zM597 556h-107v-122z" />
    <glyph glyph-name="uni0187" unicode="&#x187;" horiz-adv-x="678" 
d="M228 534l413 -578l-140 -135l-499 721l140 170h324v65l199 153h13v-227l-39 -28v-141h-411z" />
    <glyph glyph-name="uni0188" unicode="&#x188;" horiz-adv-x="678" 
d="M2 0zM228 534l413 -578l-140 -135l-499 721l140 170h324v65l199 153h13v-227l-39 -28v-141h-411z" />
    <glyph glyph-name="uni018A" unicode="&#x18a;" horiz-adv-x="918" 
d="M915 196l-137 -196h-462v566h-129l84 -116l-114 -110l-155 233l115 139h459zM707 178l-218 331v-331h218z" />
    <glyph glyph-name="uni018E" unicode="&#x18e;" horiz-adv-x="450" 
d="M29 178h208v131h-208v152h208v73h-208v178h381v-575l-109 -137h-272v178z" />
    <glyph glyph-name="uni018F" unicode="&#x18f;" horiz-adv-x="645" 
d="M3 542l140 170h360l140 -170l-373 -542h-215l161 233zM425 534h-206l104 -147z" />
    <glyph glyph-name="florin" unicode="&#x192;" horiz-adv-x="461" 
d="M24 -96v134h23q32 0 45.5 10t19.5 41l47 316h-68v120h87l5 26q7 50 22 81.5t42 49t66.5 24t96.5 6.5h26v-131h-40q-23 0 -33 -9t-12 -25l-3 -22h88v-120h-105l-49 -335q-8 -51 -24 -83.5t-43 -51t-66 -25t-93 -6.5h-32z" />
    <glyph glyph-name="uni0194" unicode="&#x194;" horiz-adv-x="689" 
d="M450 179l175 -324l-103 -125h-355l-103 125l175 323l-236 424l149 127l192 -356l193 356l149 -127zM344 -10l-72 -130h145z" />
    <glyph glyph-name="uni0198" unicode="&#x198;" horiz-adv-x="707" 
d="M213 510l423 420h282v-166h-203l-343 -330l337 -478l-139 -136l-357 542v-362h-173v712h173v-202z" />
    <glyph glyph-name="uni0199" unicode="&#x199;" horiz-adv-x="707" 
d="M40 0zM213 510l423 420h282v-166h-203l-343 -330l337 -478l-139 -136l-357 542v-362h-173v712h173v-202z" />
    <glyph glyph-name="uni019D" unicode="&#x19d;" horiz-adv-x="667" 
d="M-15 -270h-13v227l139 106v558l-67 79v12h204l207 -246v246h173v-881h-11l-162 144v235l-171 202v-451z" />
    <glyph glyph-name="uni01A0" unicode="&#x1a0;" horiz-adv-x="801" 
d="M622 867h11l197 -167l-266 -229l207 -301l-140 -170h-489l-140 170l373 542h24l132 -193l161 136l-70 61v151zM220 178h333l-167 238z" />
    <glyph glyph-name="uni01A1" unicode="&#x1a1;" horiz-adv-x="801" 
d="M2 0zM622 867h11l197 -167l-266 -229l207 -301l-140 -170h-489l-140 170l373 542h24l132 -193l161 136l-70 61v151zM220 178h333l-167 238z" />
    <glyph glyph-name="uni01AF" unicode="&#x1af;" horiz-adv-x="787" 
d="M403 0v210l-245 -221l-118 126v597h173v-466l190 170v296h173v-142l102 85l-70 61v151h11l197 -167l-240 -207v-493h-173z" />
    <glyph glyph-name="uni01B0" unicode="&#x1b0;" horiz-adv-x="787" 
d="M40 0zM403 0v210l-245 -221l-118 126v597h173v-466l190 170v296h173v-142l102 85l-70 61v151h11l197 -167l-240 -207v-493h-173z" />
    <glyph glyph-name="uni01B3" unicode="&#x1b3;" horiz-adv-x="594" 
d="M581 930h13v-227l-39 -28v-714l-298 -231h-13v218l138 105v189l-224 -228l-118 125v573h173v-420l169 179v306z" />
    <glyph glyph-name="uni01B4" unicode="&#x1b4;" horiz-adv-x="594" 
d="M40 0zM581 930h13v-227l-39 -28v-714l-298 -231h-13v218l138 105v189l-224 -228l-118 125v573h173v-420l169 179v306z" />
    <glyph glyph-name="uni01C4" unicode="&#x1c4;" horiz-adv-x="1182" 
d="M40 0zM300 0h-260v712h462l137 -196zM213 534v-331l218 331h-218zM746 0l-137 193l255 341h-206v178h357l87 -156l-278 -378h258l100 -162v-16h-436zM793 916l61 -76l62 76h127l-127 -164h-122l-127 164h126z" />
    <glyph glyph-name="uni01C5" unicode="&#x1c5;" horiz-adv-x="1182" 
d="M40 0zM300 0h-260v712h462l137 -196zM213 534v-331l218 331h-218zM746 0l-137 193l255 341h-206v178h357l87 -156l-278 -378h258l100 -162v-16h-436zM793 916l61 -76l62 76h127l-127 -164h-122l-127 164h126z" />
    <glyph glyph-name="uni01C6" unicode="&#x1c6;" horiz-adv-x="1182" 
d="M40 0zM300 0h-260v712h462l137 -196zM213 534v-331l218 331h-218zM746 0l-137 193l255 341h-206v178h357l87 -156l-278 -378h258l100 -162v-16h-436zM793 916l61 -76l62 76h127l-127 -164h-122l-127 164h126z" />
    <glyph glyph-name="uni01DD" unicode="&#x1dd;" horiz-adv-x="450" 
d="M29 0zM29 178h208v131h-208v152h208v73h-208v178h381v-575l-109 -137h-272v178z" />
    <glyph glyph-name="uni01E6" unicode="&#x1e6;" horiz-adv-x="630" 
d="M2 0zM2 516l136 196h463v-178h-384l211 -331v206h173v-409h-261zM323 916l61 -76l62 76h127l-127 -164h-122l-127 164h126z" />
    <glyph glyph-name="uni01E7" unicode="&#x1e7;" horiz-adv-x="630" 
d="M2 0zM2 516l136 196h463v-178h-384l211 -331v206h173v-409h-261zM323 916l61 -76l62 76h127l-127 -164h-122l-127 164h126z" />
    <glyph glyph-name="uni01F1" unicode="&#x1f1;" horiz-adv-x="1182" 
d="M40 0zM300 0h-260v712h462l137 -196zM213 534v-331l218 331h-218zM746 0l-137 193l255 341h-206v178h357l87 -156l-278 -378h258l100 -162v-16h-436z" />
    <glyph glyph-name="uni01F2" unicode="&#x1f2;" horiz-adv-x="1182" 
d="M40 0zM300 0h-260v712h462l137 -196zM213 534v-331l218 331h-218zM746 0l-137 193l255 341h-206v178h357l87 -156l-278 -378h258l100 -162v-16h-436z" />
    <glyph glyph-name="uni01F3" unicode="&#x1f3;" horiz-adv-x="1182" 
d="M40 0zM300 0h-260v712h462l137 -196zM213 534v-331l218 331h-218zM746 0l-137 193l255 341h-206v178h357l87 -156l-278 -378h258l100 -162v-16h-436z" />
    <glyph glyph-name="uni01F4" unicode="&#x1f4;" horiz-adv-x="630" 
d="M2 0zM2 516l136 196h463v-178h-384l211 -331v206h173v-409h-261zM262 737l91 190h154l-87 -190h-158z" />
    <glyph glyph-name="uni01F5" unicode="&#x1f5;" horiz-adv-x="630" 
d="M2 0zM2 516l136 196h463v-178h-384l211 -331v206h173v-409h-261zM262 737l91 190h154l-87 -190h-158z" />
    <glyph glyph-name="uni01F8" unicode="&#x1f8;" horiz-adv-x="596" 
d="M0 0zM557 -169h-11l-162 144v235l-171 202v-412h-173v621l-67 79v12h204l207 -246v246h173v-881zM203 737l-87 190h154l91 -190h-158z" />
    <glyph glyph-name="uni01F9" unicode="&#x1f9;" horiz-adv-x="596" 
d="M0 0zM557 -169h-11l-162 144v235l-171 202v-412h-173v621l-67 79v12h204l207 -246v246h173v-881zM203 737l-87 190h154l91 -190h-158z" />
    <glyph glyph-name="Scommaaccent" unicode="&#x218;" horiz-adv-x="577" 
d="M0 0zM0 0v16l100 162h258l-278 378l87 156h357v-178h-206l255 -341l-137 -193h-436zM283 -223l-88 189h155l91 -189h-158z" />
    <glyph glyph-name="scommaaccent" unicode="&#x219;" horiz-adv-x="577" 
d="M0 0zM0 0v16l100 162h258l-278 378l87 156h357v-178h-206l255 -341l-137 -193h-436zM283 -223l-88 189h155l91 -189h-158z" />
    <glyph glyph-name="uni021A" unicode="&#x21a;" horiz-adv-x="522" 
d="M10 0zM490 -122h-13l-298 232v424h-169v178h502v-178h-160v-322l138 -106v-228zM235 -223l-88 189h155l91 -189h-158z" />
    <glyph glyph-name="uni021B" unicode="&#x21b;" horiz-adv-x="522" 
d="M10 0zM490 -122h-13l-298 232v424h-169v178h502v-178h-160v-322l138 -106v-228zM235 -223l-88 189h155l91 -189h-158z" />
    <glyph glyph-name="dotlessj" unicode="&#x237;" horiz-adv-x="335" 
d="M0 0zM-3 -270h-13v227l139 106v471h-105v178h278v-751z" />
    <glyph glyph-name="uni0241" unicode="&#x241;" horiz-adv-x="410" 
d="M15 534v178h249l140 -170l-113 -163v-379h-173v454l60 80h-163z" />
    <glyph glyph-name="uni024C" unicode="&#x24c;" horiz-adv-x="665" 
d="M730 -49l-138 -130l-308 377v-198h-173v201h-98v147h98v364h173v-134l100 134h15l263 -346l-161 -130zM450 348l-80 102l-81 -102h161z" />
    <glyph glyph-name="uni024D" unicode="&#x24d;" horiz-adv-x="665" 
d="M13 0zM730 -49l-138 -130l-308 377v-198h-173v201h-98v147h98v364h173v-134l100 134h15l263 -346l-161 -130zM450 348l-80 102l-81 -102h161z" />
    <glyph glyph-name="uni0253" unicode="&#x253;" horiz-adv-x="858" 
d="M2 0zM852 335l-276 -335h-260v566h-129l84 -116l-114 -110l-155 233l115 139h617l96 -148l-100 -123zM690 413h-200v-230zM597 556h-107v-122z" />
    <glyph glyph-name="uni0257" unicode="&#x257;" horiz-adv-x="918" 
d="M2 0zM915 196l-137 -196h-462v566h-129l84 -116l-114 -110l-155 233l115 139h459zM707 178l-218 331v-331h218z" />
    <glyph glyph-name="uni0259" unicode="&#x259;" horiz-adv-x="645" 
d="M3 0zM3 542l140 170h360l140 -170l-373 -542h-215l161 233zM425 534h-206l104 -147z" />
    <glyph glyph-name="uni0263" unicode="&#x263;" horiz-adv-x="689" 
d="M3 0zM450 179l175 -324l-103 -125h-355l-103 125l175 323l-236 424l149 127l192 -356l193 356l149 -127zM344 -10l-72 -130h145z" />
    <glyph glyph-name="uni0272" unicode="&#x272;" horiz-adv-x="667" 
d="M0 0zM-15 -270h-13v227l139 106v558l-67 79v12h204l207 -246v246h173v-881h-11l-162 144v235l-171 202v-451z" />
    <glyph glyph-name="circumflex" unicode="&#x2c6;" horiz-adv-x="456" 
d="M289 752l-62 78l-61 -78h-126l127 164h122l127 -164h-127z" />
    <glyph glyph-name="caron" unicode="&#x2c7;" horiz-adv-x="456" 
d="M166 916l61 -76l62 76h127l-127 -164h-122l-127 164h126z" />
    <glyph glyph-name="breve" unicode="&#x2d8;" horiz-adv-x="407" 
d="M368 912q0 -41 -14 -71.5t-36.5 -51t-52 -30.5t-60.5 -10q-32 0 -61.5 10t-52.5 30.5t-37 51t-14 71.5h93q2 -34 19 -53.5t53 -19.5q34 0 50.5 19.5t18.5 53.5h94z" />
    <glyph glyph-name="dotaccent" unicode="&#x2d9;" horiz-adv-x="252" 
d="M227 827l-101 -101l-102 101l102 103z" />
    <glyph glyph-name="ring" unicode="&#x2da;" horiz-adv-x="290" 
d="M250 831q0 -48 -24 -71.5t-81 -23.5q-105 0 -105 95q0 47 25.5 71.5t79.5 24.5q57 0 81 -24.5t24 -71.5zM192 831q0 47 -47 47q-43 0 -43 -47q0 -42 43 -42q47 0 47 42z" />
    <glyph glyph-name="ogonek" unicode="&#x2db;" horiz-adv-x="309" 
d="M258 -270h-11l-197 167l136 103h72l-70 -58l70 -61v-151z" />
    <glyph glyph-name="tilde" unicode="&#x2dc;" horiz-adv-x="412" 
d="M373 783q-14 -17 -34.5 -29.5t-51.5 -12.5q-25 0 -46.5 7t-40.5 15t-36.5 15t-34.5 7q-28 0 -48.5 -11t-40.5 -37v99q13 16 33.5 29.5t52.5 13.5q24 0 45 -7t40 -15.5t37 -15.5t36 -7q26 0 47 11t42 37v-99z" />
    <glyph glyph-name="hungarumlaut" unicode="&#x2dd;" horiz-adv-x="543" 
d="M257 737l91 190h155l-88 -190h-158zM40 737l91 190h155l-88 -190h-158z" />
    <glyph glyph-name="gravecomb" unicode="&#x300;" horiz-adv-x="0" 
d="M-205 737zM-363 737l-87 190h154l91 -190h-158z" />
    <glyph glyph-name="acutecomb" unicode="&#x301;" horiz-adv-x="0" 
d="M-146 737zM-391 737l91 190h154l-87 -190h-158z" />
    <glyph glyph-name="uni0302" unicode="&#x302;" horiz-adv-x="0" 
d="M-110 752zM-237 752l-62 78l-61 -78h-126l127 164h122l127 -164h-127z" />
    <glyph glyph-name="tildecomb" unicode="&#x303;" horiz-adv-x="0" 
d="M-132 737zM-132 783q-14 -17 -34.5 -29.5t-51.5 -12.5q-25 0 -46.5 7t-40.5 15t-36.5 15t-34.5 7q-28 0 -48.5 -11t-40.5 -37v99q13 16 33.5 29.5t52.5 13.5q24 0 45 -7t40 -15.5t37 -15.5t36 -7q26 0 47 11t42 37v-99z" />
    <glyph glyph-name="uni0304" unicode="&#x304;" horiz-adv-x="0" 
d="M-135 751zM-461 751v104h326v-104h-326z" />
    <glyph glyph-name="uni0306" unicode="&#x306;" horiz-adv-x="0" 
d="M-134 749zM-134 912q0 -41 -14 -71.5t-36.5 -51t-52 -30.5t-60.5 -10q-32 0 -61.5 10t-52.5 30.5t-37 51t-14 71.5h93q2 -34 19 -53.5t53 -19.5q34 0 50.5 19.5t18.5 53.5h94z" />
    <glyph glyph-name="uni0307" unicode="&#x307;" horiz-adv-x="0" 
d="M-197 726zM-197 827l-101 -101l-102 101l102 103z" />
    <glyph glyph-name="uni0308" unicode="&#x308;" horiz-adv-x="0" 
d="M-81 726zM-81 827l-102 -101l-102 101l102 103zM-313 827l-102 -101l-101 101l101 103z" />
    <glyph glyph-name="hookabovecomb" unicode="&#x309;" horiz-adv-x="0" 
d="M-401 847v83h141l65 -80l-95 -134l-65 60l55 71h-101z" />
    <glyph glyph-name="uni030A" unicode="&#x30a;" horiz-adv-x="0" 
d="M-193 736zM-193 831q0 -48 -24 -71.5t-81 -23.5q-105 0 -105 95q0 47 25.5 71.5t79.5 24.5q57 0 81 -24.5t24 -71.5zM-251 831q0 47 -47 47q-43 0 -43 -47q0 -42 43 -42q47 0 47 42z" />
    <glyph glyph-name="uni030B" unicode="&#x30b;" horiz-adv-x="0" 
d="M-37 737zM-283 737l91 190h155l-88 -190h-158zM-500 737l91 190h155l-88 -190h-158z" />
    <glyph glyph-name="uni030C" unicode="&#x30c;" horiz-adv-x="0" 
d="M-110 752zM-360 916l61 -76l62 76h127l-127 -164h-122l-127 164h126z" />
    <glyph glyph-name="uni0313" unicode="&#x313;" horiz-adv-x="0" 
d="M-240 733l-187 197h187v-197z" />
    <glyph glyph-name="uni031B" unicode="&#x31b;" horiz-adv-x="208" 
d="M0 867h11l197 -167l-290 -250v78l152 127l-70 61v151z" />
    <glyph glyph-name="dotbelowcomb" unicode="&#x323;" horiz-adv-x="0" 
d="M-197 -70zM-197 -173l-101 -101l-102 101l102 103z" />
    <glyph glyph-name="uni0326" unicode="&#x326;" horiz-adv-x="0" 
d="M-174 -81zM-332 -270l-88 189h155l91 -189h-158z" />
    <glyph glyph-name="uni0328" unicode="&#x328;" horiz-adv-x="0" 
d="M-223 0zM-223 -270h-11l-197 167l136 103h72l-70 -58l70 -61v-151z" />
    <glyph glyph-name="uni032D" unicode="&#x32d;" horiz-adv-x="0" 
d="M-109 -84zM-236 -248l-62 78l-61 -78h-126l127 164h122l127 -164h-127z" />
    <glyph glyph-name="tonos" unicode="&#x384;" horiz-adv-x="186" 
d="M0 522l32 190h154l-45 -190h-141z" />
    <glyph glyph-name="dieresistonos" unicode="&#x385;" horiz-adv-x="575" 
d="M0 514zM202 615l-101 -101l-102 101l102 103zM196 522l32 190h154l-45 -190h-141zM573 615l-101 -101l-102 101l102 103z" />
    <glyph glyph-name="Alphatonos" unicode="&#x386;" horiz-adv-x="736" 
d="M0 0zM0 522l32 190h154l-45 -190h-141zM291 463l195 249h210v-712h-185l-200 192l-154 -201l-127 136l149 191l-77 74l114 143zM416 337l107 -102v236z" />
    <glyph glyph-name="anoteleia" unicode="&#x387;" horiz-adv-x="323" 
d="M40 376zM284 499l-122 -123l-122 123l122 122z" />
    <glyph glyph-name="Epsilontonos" unicode="&#x388;" horiz-adv-x="616" 
d="M0 0zM0 522l32 190h154l-45 -190h-141zM587 0h-272l-109 137v575h381v-178h-208v-73h208v-152h-208v-131h208v-178z" />
    <glyph glyph-name="Etatonos" unicode="&#x389;" horiz-adv-x="721" 
d="M0 0zM0 522l32 190h154l-45 -190h-141zM663 -169h-11l-162 144v334h-121v-309h-173v712h173v-251h121v251h173v-251h95v-11l-95 -125v-494z" />
    <glyph glyph-name="Iotatonos" unicode="&#x38a;" horiz-adv-x="408" 
d="M0 0zM0 522l32 190h154l-45 -190h-141zM369 0h-173v712h173v-712z" />
    <glyph glyph-name="Omicrontonos" unicode="&#x38c;" horiz-adv-x="955" 
d="M0 0zM0 522l32 190h154l-45 -190h-141zM560 0h-24l-373 542l140 170h489l140 -170zM547 296l167 238h-333z" />
    <glyph glyph-name="Upsilontonos" unicode="&#x38e;" horiz-adv-x="807" 
d="M0 0zM0 522l32 190h154l-45 -190h-141zM391 0v217l-215 428l154 84l155 -327l162 327l154 -84l-213 -428v-217h-197z" />
    <glyph glyph-name="Omegatonos" unicode="&#x38f;" horiz-adv-x="924" 
d="M1 0zM1 522l32 190h154l-45 -190h-141zM682 0l-137 193l126 341h-278l126 -341l-137 -193h-242v16l100 162h129l-169 378l87 156h490l87 -156l-169 -378h129l100 -162v-16h-242z" />
    <glyph glyph-name="iotadieresistonos" unicode="&#x390;" horiz-adv-x="408" 
d="M0 0zM0 522l32 190h154l-45 -190h-141zM369 0h-173v712h173v-712z" />
    <glyph glyph-name="Alpha" unicode="&#x391;" 
d="M0 0zM261 463l195 249h210v-712h-185l-200 192l-154 -201l-127 136l149 191l-77 74l114 143zM386 337l107 -102v236z" />
    <glyph glyph-name="Beta" unicode="&#x392;" horiz-adv-x="582" 
d="M40 0zM576 335l-276 -335h-260v712h418l96 -148l-100 -123zM321 556h-107v-122zM414 413h-200v-230z" />
    <glyph glyph-name="Gamma" unicode="&#x393;" horiz-adv-x="413" 
d="M40 0zM40 0v712h363v-178h-190v-534h-173z" />
    <glyph glyph-name="Delta" unicode="&#x394;" 
d="M212 0v102l-85 -111l-127 136l456 585h210v-712h-454zM269 178h224v293z" />
    <glyph glyph-name="Epsilon" unicode="&#x395;" horiz-adv-x="450" 
d="M40 0zM421 0h-272l-109 137v575h381v-178h-208v-73h208v-152h-208v-131h208v-178z" />
    <glyph glyph-name="Zeta" unicode="&#x396;" horiz-adv-x="583" 
d="M10 0zM147 0l-137 193l255 341h-206v178h357l87 -156l-278 -378h258l100 -162v-16h-436z" />
    <glyph glyph-name="Eta" unicode="&#x397;" horiz-adv-x="565" 
d="M40 0zM507 -169h-11l-162 144v334h-121v-309h-173v712h173v-251h121v251h173v-251h95v-11l-95 -125v-494z" />
    <glyph glyph-name="Theta" unicode="&#x398;" horiz-adv-x="730" 
d="M40 712h540l110 -138v-574h-541l-109 137v575zM519 534h-308v-356h308v356zM260 430h205v-152h-205v152z" />
    <glyph glyph-name="Iota" unicode="&#x399;" horiz-adv-x="252" 
d="M40 0zM213 0h-173v712h173v-712z" />
    <glyph glyph-name="Kappa" unicode="&#x39a;" horiz-adv-x="655" 
d="M40 0zM213 510l222 219l118 -129l-181 -166l337 -478l-139 -136l-357 542v-362h-173v712h173v-202z" />
    <glyph glyph-name="Lambda" unicode="&#x39b;" 
d="M127 -9l-127 136l456 585h210v-712h-173v471z" />
    <glyph glyph-name="Mu" unicode="&#x39c;" horiz-adv-x="662" 
d="M0 0zM450 -25v473l-119 -130l-118 130v-448h-173v577l-107 123v12h280l118 -134l119 134h18l155 -167v-724z" />
    <glyph glyph-name="Nu" unicode="&#x39d;" horiz-adv-x="596" 
d="M0 0zM557 -169h-11l-162 144v235l-171 202v-412h-173v621l-67 79v12h204l207 -246v246h173v-881z" />
    <glyph glyph-name="Xi" unicode="&#x39e;" horiz-adv-x="520" 
d="M29 534v178h462v-178h-462zM491 0h-462v178h462v-178zM29 280v152h462v-152h-462z" />
    <glyph glyph-name="Omicron" unicode="&#x39f;" horiz-adv-x="774" 
d="M2 0zM399 0h-24l-373 542l140 170h489l140 -170zM386 296l167 238h-333z" />
    <glyph glyph-name="Pi" unicode="&#x3a0;" horiz-adv-x="565" 
d="M40 0zM602 -25l-162 -144h-11v729h-121v-560h-173v576l-95 125v11h562v-737z" />
    <glyph glyph-name="Rho" unicode="&#x3a1;" horiz-adv-x="584" 
d="M40 0zM403 314h-190v-314h-173v712h422l120 -135zM350 534h-137v-201z" />
    <glyph glyph-name="Sigma" unicode="&#x3a3;" horiz-adv-x="557" 
d="M528 178v-178h-383l-140 170l190 188l-190 184l140 170h383v-178h-297l169 -170v-11l-169 -175h297z" />
    <glyph glyph-name="Tau" unicode="&#x3a4;" horiz-adv-x="522" 
d="M10 0zM490 -270h-13l-298 231v573h-169v178h502v-178h-160v-471l138 -106v-227z" />
    <glyph glyph-name="Upsilon" unicode="&#x3a5;" horiz-adv-x="637" 
d="M6 0zM221 0v217l-215 428l154 84l155 -327l162 327l154 -84l-213 -428v-217h-197z" />
    <glyph glyph-name="Phi" unicode="&#x3a6;" horiz-adv-x="869" 
d="M2 0zM352 712h165v-157h236l114 -128l-170 -250h-180v-177h-165v177h-180l-170 250l114 128h236v157zM647 386h-130v-191zM352 195v191h-130z" />
    <glyph glyph-name="Chi" unicode="&#x3a7;" horiz-adv-x="637" 
d="M3 0zM214 389l-169 226l135 114l148 -209l149 209l135 -114l-180 -240l201 -276l-123 -112l-193 262l-191 -262l-123 112z" />
    <glyph glyph-name="Psi" unicode="&#x3a8;" horiz-adv-x="869" 
d="M352 333h-236l-114 128l170 250h525l170 -250l-114 -128h-236v-333h-165v333zM517 693v-191h130zM222 502h130v191z" />
    <glyph glyph-name="Omega" unicode="&#x3a9;" horiz-adv-x="784" 
d="M542 0l-137 193l126 341h-278l126 -341l-137 -193h-242v16l100 162h129l-169 378l87 156h490l87 -156l-169 -378h129l100 -162v-16h-242z" />
    <glyph glyph-name="Iotadieresis" unicode="&#x3aa;" horiz-adv-x="299" 
d="M0 0zM236 0h-173v712h173v-712zM367 827l-102 -101l-102 101l102 103zM135 827l-102 -101l-101 101l101 103z" />
    <glyph glyph-name="Upsilondieresis" unicode="&#x3ab;" horiz-adv-x="637" 
d="M6 0zM221 0v217l-215 428l154 84l155 -327l162 327l154 -84l-213 -428v-217h-197zM531 827l-102 -101l-102 101l102 103zM299 827l-102 -101l-101 101l101 103z" />
    <glyph glyph-name="alphatonos" unicode="&#x3ac;" horiz-adv-x="736" 
d="M0 0zM0 522l32 190h154l-45 -190h-141zM291 463l195 249h210v-712h-185l-200 192l-154 -201l-127 136l149 191l-77 74l114 143zM416 337l107 -102v236z" />
    <glyph glyph-name="epsilontonos" unicode="&#x3ad;" horiz-adv-x="616" 
d="M0 0zM0 522l32 190h154l-45 -190h-141zM587 0h-272l-109 137v575h381v-178h-208v-73h208v-152h-208v-131h208v-178z" />
    <glyph glyph-name="etatonos" unicode="&#x3ae;" horiz-adv-x="721" 
d="M0 0zM0 522l32 190h154l-45 -190h-141zM663 -169h-11l-162 144v334h-121v-309h-173v712h173v-251h121v251h173v-251h95v-11l-95 -125v-494z" />
    <glyph glyph-name="iotatonos" unicode="&#x3af;" horiz-adv-x="408" 
d="M0 0zM0 522l32 190h154l-45 -190h-141zM369 0h-173v712h173v-712z" />
    <glyph glyph-name="upsilondieresistonos" unicode="&#x3b0;" horiz-adv-x="807" 
d="M0 0zM0 522l32 190h154l-45 -190h-141zM391 0v217l-215 428l154 84l155 -327l162 327l154 -84l-213 -428v-217h-197z" />
    <glyph glyph-name="alpha" unicode="&#x3b1;" 
d="M0 0zM261 463l195 249h210v-712h-185l-200 192l-154 -201l-127 136l149 191l-77 74l114 143zM386 337l107 -102v236z" />
    <glyph glyph-name="beta" unicode="&#x3b2;" horiz-adv-x="582" 
d="M40 0zM576 335l-276 -335h-260v712h418l96 -148l-100 -123zM321 556h-107v-122zM414 413h-200v-230z" />
    <glyph glyph-name="gamma" unicode="&#x3b3;" horiz-adv-x="413" 
d="M40 0zM40 0v712h363v-178h-190v-534h-173z" />
    <glyph glyph-name="delta" unicode="&#x3b4;" 
d="M0 0zM212 0v102l-85 -111l-127 136l456 585h210v-712h-454zM269 178h224v293z" />
    <glyph glyph-name="epsilon" unicode="&#x3b5;" horiz-adv-x="450" 
d="M40 0zM421 0h-272l-109 137v575h381v-178h-208v-73h208v-152h-208v-131h208v-178z" />
    <glyph glyph-name="zeta" unicode="&#x3b6;" horiz-adv-x="583" 
d="M10 0zM147 0l-137 193l255 341h-206v178h357l87 -156l-278 -378h258l100 -162v-16h-436z" />
    <glyph glyph-name="eta" unicode="&#x3b7;" horiz-adv-x="565" 
d="M40 0zM507 -169h-11l-162 144v334h-121v-309h-173v712h173v-251h121v251h173v-251h95v-11l-95 -125v-494z" />
    <glyph glyph-name="theta" unicode="&#x3b8;" horiz-adv-x="730" 
d="M40 0zM40 712h540l110 -138v-574h-541l-109 137v575zM519 534h-308v-356h308v356zM260 430h205v-152h-205v152z" />
    <glyph glyph-name="iota" unicode="&#x3b9;" horiz-adv-x="252" 
d="M40 0zM213 0h-173v712h173v-712z" />
    <glyph glyph-name="kappa" unicode="&#x3ba;" horiz-adv-x="655" 
d="M40 0zM213 510l222 219l118 -129l-181 -166l337 -478l-139 -136l-357 542v-362h-173v712h173v-202z" />
    <glyph glyph-name="lambda" unicode="&#x3bb;" 
d="M0 0zM127 -9l-127 136l456 585h210v-712h-173v471z" />
    <glyph glyph-name="mu" unicode="&#x3bc;" horiz-adv-x="662" 
d="M0 0zM450 -25v473l-119 -130l-118 130v-448h-173v577l-107 123v12h280l118 -134l119 134h18l155 -167v-724z" />
    <glyph glyph-name="nu" unicode="&#x3bd;" horiz-adv-x="596" 
d="M0 0zM557 -169h-11l-162 144v235l-171 202v-412h-173v621l-67 79v12h204l207 -246v246h173v-881z" />
    <glyph glyph-name="xi" unicode="&#x3be;" horiz-adv-x="520" 
d="M29 0zM29 534v178h462v-178h-462zM491 0h-462v178h462v-178zM29 280v152h462v-152h-462z" />
    <glyph glyph-name="omicron" unicode="&#x3bf;" horiz-adv-x="774" 
d="M2 0zM399 0h-24l-373 542l140 170h489l140 -170zM386 296l167 238h-333z" />
    <glyph glyph-name="pi" unicode="&#x3c0;" horiz-adv-x="642" 
d="M40 0zM602 -25l-162 -144h-11v729h-121v-560h-173v576l-95 125v11h562v-737z" />
    <glyph glyph-name="rho" unicode="&#x3c1;" horiz-adv-x="584" 
d="M40 0zM403 314h-190v-314h-173v712h422l120 -135zM350 534h-137v-201z" />
    <glyph glyph-name="sigma1" unicode="&#x3c2;" horiz-adv-x="557" 
d="M5 0zM528 178v-178h-383l-140 170l190 188l-190 184l140 170h383v-178h-297l169 -170v-11l-169 -175h297z" />
    <glyph glyph-name="sigma" unicode="&#x3c3;" horiz-adv-x="557" 
d="M5 0zM528 178v-178h-383l-140 170l190 188l-190 184l140 170h383v-178h-297l169 -170v-11l-169 -175h297z" />
    <glyph glyph-name="tau" unicode="&#x3c4;" horiz-adv-x="522" 
d="M10 0zM490 -270h-13l-298 231v573h-169v178h502v-178h-160v-471l138 -106v-227z" />
    <glyph glyph-name="upsilon" unicode="&#x3c5;" horiz-adv-x="637" 
d="M6 0zM221 0v217l-215 428l154 84l155 -327l162 327l154 -84l-213 -428v-217h-197z" />
    <glyph glyph-name="phi" unicode="&#x3c6;" horiz-adv-x="869" 
d="M2 0zM352 712h165v-157h236l114 -128l-170 -250h-180v-177h-165v177h-180l-170 250l114 128h236v157zM647 386h-130v-191zM352 195v191h-130z" />
    <glyph glyph-name="chi" unicode="&#x3c7;" horiz-adv-x="637" 
d="M3 0zM214 389l-169 226l135 114l148 -209l149 209l135 -114l-180 -240l201 -276l-123 -112l-193 262l-191 -262l-123 112z" />
    <glyph glyph-name="psi" unicode="&#x3c8;" horiz-adv-x="869" 
d="M2 0zM352 333h-236l-114 128l170 250h525l170 -250l-114 -128h-236v-333h-165v333zM517 693v-191h130zM222 502h130v191z" />
    <glyph glyph-name="omega" unicode="&#x3c9;" horiz-adv-x="784" 
d="M0 0zM542 0l-137 193l126 341h-278l126 -341l-137 -193h-242v16l100 162h129l-169 378l87 156h490l87 -156l-169 -378h129l100 -162v-16h-242z" />
    <glyph glyph-name="iotadieresis" unicode="&#x3ca;" horiz-adv-x="299" 
d="M0 0zM236 0h-173v712h173v-712zM367 827l-102 -101l-102 101l102 103zM135 827l-102 -101l-101 101l101 103z" />
    <glyph glyph-name="upsilondieresis" unicode="&#x3cb;" horiz-adv-x="637" 
d="M6 0zM221 0v217l-215 428l154 84l155 -327l162 327l154 -84l-213 -428v-217h-197zM531 827l-102 -101l-102 101l102 103zM299 827l-102 -101l-101 101l101 103z" />
    <glyph glyph-name="omicrontonos" unicode="&#x3cc;" horiz-adv-x="955" 
d="M0 0zM0 522l32 190h154l-45 -190h-141zM560 0h-24l-373 542l140 170h489l140 -170zM547 296l167 238h-333z" />
    <glyph glyph-name="upsilontonos" unicode="&#x3cd;" horiz-adv-x="807" 
d="M0 0zM0 522l32 190h154l-45 -190h-141zM391 0v217l-215 428l154 84l155 -327l162 327l154 -84l-213 -428v-217h-197z" />
    <glyph glyph-name="omegatonos" unicode="&#x3ce;" horiz-adv-x="924" 
d="M1 0zM1 522l32 190h154l-45 -190h-141zM682 0l-137 193l126 341h-278l126 -341l-137 -193h-242v16l100 162h129l-169 378l87 156h490l87 -156l-169 -378h129l100 -162v-16h-242z" />
    <glyph glyph-name="uni0400" unicode="&#x400;" horiz-adv-x="450" 
d="M40 0zM421 0h-272l-109 137v575h381v-178h-208v-73h208v-152h-208v-131h208v-178zM150 737l-87 190h154l91 -190h-158z" />
    <glyph glyph-name="uni0401" unicode="&#x401;" horiz-adv-x="450" 
d="M19 0zM421 0h-272l-109 137v575h381v-178h-208v-73h208v-152h-208v-131h208v-178zM454 827l-102 -101l-102 101l102 103zM222 827l-102 -101l-101 101l101 103z" />
    <glyph glyph-name="uni0402" unicode="&#x402;" horiz-adv-x="733" 
d="M394 -270h-13v227l139 106v213h-190v-276h-173v534h-147v178h510v-178h-190v-101h245l118 -126v-346z" />
    <glyph glyph-name="uni0403" unicode="&#x403;" horiz-adv-x="413" 
d="M40 0zM40 0v712h363v-178h-190v-534h-173zM124 737l91 190h154l-87 -190h-158z" />
    <glyph glyph-name="uni0404" unicode="&#x404;" horiz-adv-x="450" 
d="M421 0h-272l-109 137v441l111 134h270v-178h-208v-73h129v-152h-129v-131h208v-178z" />
    <glyph glyph-name="uni0405" unicode="&#x405;" horiz-adv-x="577" 
d="M0 0zM0 0v16l100 162h258l-278 378l87 156h357v-178h-206l255 -341l-137 -193h-436z" />
    <glyph glyph-name="uni0406" unicode="&#x406;" horiz-adv-x="252" 
d="M40 0zM213 0h-173v712h173v-712z" />
    <glyph glyph-name="uni0407" unicode="&#x407;" horiz-adv-x="299" 
d="M0 0zM236 0h-173v712h173v-712zM367 827l-102 -101l-102 101l102 103zM135 827l-102 -101l-101 101l101 103z" />
    <glyph glyph-name="uni0408" unicode="&#x408;" horiz-adv-x="335" 
d="M0 0zM-3 -270h-13v227l139 106v471h-105v178h278v-751z" />
    <glyph glyph-name="uni0409" unicode="&#x409;" horiz-adv-x="948" 
d="M14 0v178h89l96 534h378v-314h249l120 -135l-179 -263h-363v560h-71l-124 -560h-195zM714 220h-137v-201z" />
    <glyph glyph-name="uni040A" unicode="&#x40a;" horiz-adv-x="877" 
d="M507 398h248l120 -135l-179 -263h-363v221h-120v-221h-173v712h173v-313h120v313h174v-314zM643 220h-137v-201z" />
    <glyph glyph-name="uni040B" unicode="&#x40b;" horiz-adv-x="733" 
d="M10 712h510v-178h-190v-101h245l118 -126v-307h-173v276h-190v-276h-173v534h-147v178z" />
    <glyph glyph-name="uni040C" unicode="&#x40c;" horiz-adv-x="655" 
d="M40 0zM213 510l222 219l118 -129l-181 -166l337 -478l-139 -136l-357 542v-362h-173v712h173v-202zM235 737l91 190h154l-87 -190h-158z" />
    <glyph glyph-name="uni040D" unicode="&#x40d;" horiz-adv-x="547" 
d="M40 0zM507 -169h-11l-162 144v415l-121 -390h-173v712h173v-390l121 390h173v-881zM198 737l-87 190h154l91 -190h-158z" />
    <glyph glyph-name="uni040E" unicode="&#x40e;" horiz-adv-x="637" 
d="M6 0zM75 0v178h129l17 34l-215 433l154 84l155 -327l162 327l154 -84l-321 -645h-235zM482 912q0 -41 -14 -71.5t-36.5 -51t-52 -30.5t-60.5 -10q-32 0 -61.5 10t-52.5 30.5t-37 51t-14 71.5h93q2 -34 19 -53.5t53 -19.5q34 0 50.5 19.5t18.5 53.5h94z" />
    <glyph glyph-name="uni040F" unicode="&#x40f;" horiz-adv-x="565" 
d="M207 -169v169h-167v712h173v-534h121v534h173v-712h-150v-169h-150z" />
    <glyph glyph-name="uni0410" unicode="&#x410;" 
d="M0 0zM261 463l195 249h210v-712h-185l-200 192l-154 -201l-127 136l149 191l-77 74l114 143zM386 337l107 -102v236z" />
    <glyph glyph-name="uni0411" unicode="&#x411;" horiz-adv-x="584" 
d="M403 0h-363v712h363v-178h-190v-136h249l120 -135zM350 220h-137v-201z" />
    <glyph glyph-name="uni0412" unicode="&#x412;" horiz-adv-x="582" 
d="M40 0zM576 335l-276 -335h-260v712h418l96 -148l-100 -123zM321 556h-107v-122zM414 413h-200v-230z" />
    <glyph glyph-name="uni0413" unicode="&#x413;" horiz-adv-x="413" 
d="M40 0v712h363v-178h-190v-534h-173z" />
    <glyph glyph-name="uni0414" unicode="&#x414;" horiz-adv-x="729" 
d="M10 -169v347h125l96 534h378v-534h110v-347h-150v169h-409v-169h-150zM280 178h156v382h-83z" />
    <glyph glyph-name="uni0415" unicode="&#x415;" horiz-adv-x="450" 
d="M40 0zM421 0h-272l-109 137v575h381v-178h-208v-73h208v-152h-208v-131h208v-178z" />
    <glyph glyph-name="uni0416" unicode="&#x416;" horiz-adv-x="1037" 
d="M374 712h173v-202l222 219l118 -129l-181 -166l337 -478l-139 -136l-357 542v-362h-173v362l-241 -367l-145 120l226 316l-177 171l115 127l222 -219v202z" />
    <glyph glyph-name="uni0417" unicode="&#x417;" horiz-adv-x="511" 
d="M0 0zM164 426l88 108h-252v178h309l137 -196l-60 -82l119 -119l-342 -475l-139 134l247 335z" />
    <glyph glyph-name="uni0418" unicode="&#x418;" horiz-adv-x="547" 
d="M507 -169h-11l-162 144v415l-121 -390h-173v712h173v-390l121 390h173v-881z" />
    <glyph glyph-name="uni0419" unicode="&#x419;" horiz-adv-x="547" 
d="M40 0zM507 -169h-11l-162 144v415l-121 -390h-173v712h173v-390l121 390h173v-881zM437 912q0 -41 -14 -71.5t-36.5 -51t-52 -30.5t-60.5 -10q-32 0 -61.5 10t-52.5 30.5t-37 51t-14 71.5h93q2 -34 19 -53.5t53 -19.5q34 0 50.5 19.5t18.5 53.5h94z" />
    <glyph glyph-name="uni041A" unicode="&#x41a;" horiz-adv-x="655" 
d="M40 0zM213 510l222 219l118 -129l-181 -166l337 -478l-139 -136l-357 542v-362h-173v712h173v-202z" />
    <glyph glyph-name="uni041B" unicode="&#x41b;" horiz-adv-x="635" 
d="M14 0v178h86l99 534h378v-881h-11l-162 144v585h-80l-106 -560h-204z" />
    <glyph glyph-name="uni041C" unicode="&#x41c;" horiz-adv-x="662" 
d="M0 0zM450 -25v473l-119 -130l-118 130v-448h-173v577l-107 123v12h280l118 -134l119 134h18l155 -167v-724z" />
    <glyph glyph-name="uni041D" unicode="&#x41d;" horiz-adv-x="565" 
d="M40 0zM507 -169h-11l-162 144v334h-121v-309h-173v712h173v-251h121v251h173v-251h95v-11l-95 -125v-494z" />
    <glyph glyph-name="uni041E" unicode="&#x41e;" horiz-adv-x="774" 
d="M2 0zM771 170l-140 -170h-489l-140 170l373 542h24zM220 178h333l-167 238z" />
    <glyph glyph-name="uni041F" unicode="&#x41f;" horiz-adv-x="565" 
d="M525 -25l-162 -144h-11v729h-121v-560h-173v576l-95 125v11h562v-737z" />
    <glyph glyph-name="uni0420" unicode="&#x420;" horiz-adv-x="584" 
d="M40 0zM403 314h-190v-314h-173v712h422l120 -135zM350 534h-137v-201z" />
    <glyph glyph-name="uni0421" unicode="&#x421;" horiz-adv-x="588" 
d="M2 0zM228 534l413 -578l-140 -135l-499 721l140 170h427v-178h-341z" />
    <glyph glyph-name="uni0422" unicode="&#x422;" horiz-adv-x="522" 
d="M10 0zM490 -270h-13l-298 231v573h-169v178h502v-178h-160v-471l138 -106v-227z" />
    <glyph glyph-name="uni0423" unicode="&#x423;" horiz-adv-x="637" 
d="M75 0v178h129l17 34l-215 433l154 84l155 -327l162 327l154 -84l-321 -645h-235z" />
    <glyph glyph-name="uni0424" unicode="&#x424;" horiz-adv-x="869" 
d="M352 712h165v-157h236l114 -128l-170 -250h-180v-177h-165v177h-180l-170 250l114 128h236v157zM647 386h-130v-191zM352 195v191h-130z" />
    <glyph glyph-name="uni0425" unicode="&#x425;" horiz-adv-x="637" 
d="M3 0zM214 389l-169 226l135 114l148 -209l149 209l135 -114l-180 -240l201 -276l-123 -112l-193 262l-191 -262l-123 112z" />
    <glyph glyph-name="uni0426" unicode="&#x426;" horiz-adv-x="627" 
d="M467 -169v169h-427v712h173v-534h121v534h173v-534h110v-347h-150z" />
    <glyph glyph-name="uni0427" unicode="&#x427;" horiz-adv-x="546" 
d="M333 0v274h-175l-118 126v312h173v-281h120v281h173v-281h96v-11l-96 -125v-295h-173z" />
    <glyph glyph-name="uni0428" unicode="&#x428;" horiz-adv-x="756" 
d="M717 0h-677v712h173v-534h79v534h173v-534h79v534h173v-712z" />
    <glyph glyph-name="uni0429" unicode="&#x429;" horiz-adv-x="837" 
d="M677 -169v169h-637v712h173v-534h79v534h173v-534h79v534h173v-534h110v-347h-150z" />
    <glyph glyph-name="uni042A" unicode="&#x42a;" horiz-adv-x="744" 
d="M563 0h-363v534h-190v178h363v-314h249l120 -135zM510 220h-137v-201z" />
    <glyph glyph-name="uni042B" unicode="&#x42b;" horiz-adv-x="836" 
d="M40 0zM403 0h-363v712h173v-314h249l120 -135zM350 220h-137v-201zM797 0h-173v712h173v-712z" />
    <glyph glyph-name="uni042C" unicode="&#x42c;" horiz-adv-x="584" 
d="M403 0h-363v712h173v-314h249l120 -135zM350 220h-137v-201z" />
    <glyph glyph-name="uni042D" unicode="&#x42d;" horiz-adv-x="450" 
d="M29 178h208v131h-129v152h129v73h-208v178h270l111 -134v-441l-109 -137h-272v178z" />
    <glyph glyph-name="uni042E" unicode="&#x42e;" horiz-adv-x="849" 
d="M310 304h-97v-304h-173v712h173v-256h97v256h390l110 -138v-574h-391l-109 137v167zM637 534h-154v-356h154v356z" />
    <glyph glyph-name="uni042F" unicode="&#x42f;" horiz-adv-x="594" 
d="M164 236l-161 130l263 346h15l100 -134v134h173v-712h-173v198l-276 -337l-138 130zM376 348l-81 102l-80 -102h161z" />
    <glyph glyph-name="uni0430" unicode="&#x430;" 
d="M0 0zM261 463l195 249h210v-712h-185l-200 192l-154 -201l-127 136l149 191l-77 74l114 143zM386 337l107 -102v236z" />
    <glyph glyph-name="uni0431" unicode="&#x431;" horiz-adv-x="584" 
d="M40 0zM403 0h-363v712h363v-178h-190v-136h249l120 -135zM350 220h-137v-201z" />
    <glyph glyph-name="uni0432" unicode="&#x432;" horiz-adv-x="582" 
d="M40 0zM576 335l-276 -335h-260v712h418l96 -148l-100 -123zM321 556h-107v-122zM414 413h-200v-230z" />
    <glyph glyph-name="uni0433" unicode="&#x433;" horiz-adv-x="413" 
d="M40 0zM40 0v712h363v-178h-190v-534h-173z" />
    <glyph glyph-name="uni0434" unicode="&#x434;" horiz-adv-x="729" 
d="M10 0zM10 -169v347h125l96 534h378v-534h110v-347h-150v169h-409v-169h-150zM280 178h156v382h-83z" />
    <glyph glyph-name="uni0435" unicode="&#x435;" horiz-adv-x="450" 
d="M40 0zM421 0h-272l-109 137v575h381v-178h-208v-73h208v-152h-208v-131h208v-178z" />
    <glyph glyph-name="uni0436" unicode="&#x436;" horiz-adv-x="1037" 
d="M0 0zM374 712h173v-202l222 219l118 -129l-181 -166l337 -478l-139 -136l-357 542v-362h-173v362l-241 -367l-145 120l226 316l-177 171l115 127l222 -219v202z" />
    <glyph glyph-name="uni0437" unicode="&#x437;" horiz-adv-x="511" 
d="M0 0zM164 426l88 108h-252v178h309l137 -196l-60 -82l119 -119l-342 -475l-139 134l247 335z" />
    <glyph glyph-name="uni0438" unicode="&#x438;" horiz-adv-x="547" 
d="M40 0zM507 -169h-11l-162 144v415l-121 -390h-173v712h173v-390l121 390h173v-881z" />
    <glyph glyph-name="uni0439" unicode="&#x439;" horiz-adv-x="547" 
d="M40 0zM507 -169h-11l-162 144v415l-121 -390h-173v712h173v-390l121 390h173v-881zM437 912q0 -41 -14 -71.5t-36.5 -51t-52 -30.5t-60.5 -10q-32 0 -61.5 10t-52.5 30.5t-37 51t-14 71.5h93q2 -34 19 -53.5t53 -19.5q34 0 50.5 19.5t18.5 53.5h94z" />
    <glyph glyph-name="uni043A" unicode="&#x43a;" horiz-adv-x="655" 
d="M40 0zM213 510l222 219l118 -129l-181 -166l337 -478l-139 -136l-357 542v-362h-173v712h173v-202z" />
    <glyph glyph-name="uni043B" unicode="&#x43b;" horiz-adv-x="635" 
d="M14 0zM14 0v178h86l99 534h378v-881h-11l-162 144v585h-80l-106 -560h-204z" />
    <glyph glyph-name="uni043C" unicode="&#x43c;" horiz-adv-x="662" 
d="M0 0zM450 -25v473l-119 -130l-118 130v-448h-173v577l-107 123v12h280l118 -134l119 134h18l155 -167v-724z" />
    <glyph glyph-name="uni043D" unicode="&#x43d;" horiz-adv-x="565" 
d="M40 0zM507 -169h-11l-162 144v334h-121v-309h-173v712h173v-251h121v251h173v-251h95v-11l-95 -125v-494z" />
    <glyph glyph-name="uni043E" unicode="&#x43e;" horiz-adv-x="774" 
d="M2 0zM771 170l-140 -170h-489l-140 170l373 542h24zM220 178h333l-167 238z" />
    <glyph glyph-name="uni043F" unicode="&#x43f;" horiz-adv-x="565" 
d="M40 0zM602 -25l-162 -144h-11v729h-121v-560h-173v576l-95 125v11h562v-737z" />
    <glyph glyph-name="uni0440" unicode="&#x440;" horiz-adv-x="584" 
d="M40 0zM403 314h-190v-314h-173v712h422l120 -135zM350 534h-137v-201z" />
    <glyph glyph-name="uni0441" unicode="&#x441;" horiz-adv-x="588" 
d="M2 0zM228 534l413 -578l-140 -135l-499 721l140 170h427v-178h-341z" />
    <glyph glyph-name="uni0442" unicode="&#x442;" horiz-adv-x="522" 
d="M10 0zM490 -270h-13l-298 231v573h-169v178h502v-178h-160v-471l138 -106v-227z" />
    <glyph glyph-name="uni0443" unicode="&#x443;" horiz-adv-x="637" 
d="M6 0zM75 0v178h129l17 34l-215 433l154 84l155 -327l162 327l154 -84l-321 -645h-235z" />
    <glyph glyph-name="uni0444" unicode="&#x444;" horiz-adv-x="869" 
d="M2 0zM352 712h165v-157h236l114 -128l-170 -250h-180v-177h-165v177h-180l-170 250l114 128h236v157zM647 386h-130v-191zM352 195v191h-130z" />
    <glyph glyph-name="uni0445" unicode="&#x445;" horiz-adv-x="637" 
d="M3 0zM214 389l-169 226l135 114l148 -209l149 209l135 -114l-180 -240l201 -276l-123 -112l-193 262l-191 -262l-123 112z" />
    <glyph glyph-name="uni0446" unicode="&#x446;" horiz-adv-x="627" 
d="M40 0zM467 -169v169h-427v712h173v-534h121v534h173v-534h110v-347h-150z" />
    <glyph glyph-name="uni0447" unicode="&#x447;" horiz-adv-x="546" 
d="M40 0zM333 0v274h-175l-118 126v312h173v-281h120v281h173v-281h96v-11l-96 -125v-295h-173z" />
    <glyph glyph-name="uni0448" unicode="&#x448;" horiz-adv-x="756" 
d="M40 0zM717 0h-677v712h173v-534h79v534h173v-534h79v534h173v-712z" />
    <glyph glyph-name="uni0449" unicode="&#x449;" horiz-adv-x="837" 
d="M40 0zM677 -169v169h-637v712h173v-534h79v534h173v-534h79v534h173v-534h110v-347h-150z" />
    <glyph glyph-name="uni044A" unicode="&#x44a;" horiz-adv-x="744" 
d="M10 0zM563 0h-363v534h-190v178h363v-314h249l120 -135zM510 220h-137v-201z" />
    <glyph glyph-name="uni044B" unicode="&#x44b;" horiz-adv-x="836" 
d="M40 0zM403 0h-363v712h173v-314h249l120 -135zM350 220h-137v-201zM797 0h-173v712h173v-712z" />
    <glyph glyph-name="uni044C" unicode="&#x44c;" horiz-adv-x="584" 
d="M40 0zM403 0h-363v712h173v-314h249l120 -135zM350 220h-137v-201z" />
    <glyph glyph-name="uni044D" unicode="&#x44d;" horiz-adv-x="450" 
d="M29 0zM29 178h208v131h-129v152h129v73h-208v178h270l111 -134v-441l-109 -137h-272v178z" />
    <glyph glyph-name="uni044E" unicode="&#x44e;" horiz-adv-x="849" 
d="M40 0zM310 304h-97v-304h-173v712h173v-256h97v256h390l110 -138v-574h-391l-109 137v167zM637 534h-154v-356h154v356z" />
    <glyph glyph-name="uni044F" unicode="&#x44f;" horiz-adv-x="594" 
d="M0 0zM164 236l-161 130l263 346h15l100 -134v134h173v-712h-173v198l-276 -337l-138 130zM376 348l-81 102l-80 -102h161z" />
    <glyph glyph-name="uni0450" unicode="&#x450;" horiz-adv-x="450" 
d="M40 0zM421 0h-272l-109 137v575h381v-178h-208v-73h208v-152h-208v-131h208v-178zM150 737l-87 190h154l91 -190h-158z" />
    <glyph glyph-name="uni0451" unicode="&#x451;" horiz-adv-x="450" 
d="M19 0zM421 0h-272l-109 137v575h381v-178h-208v-73h208v-152h-208v-131h208v-178zM454 827l-102 -101l-102 101l102 103zM222 827l-102 -101l-101 101l101 103z" />
    <glyph glyph-name="uni0452" unicode="&#x452;" horiz-adv-x="733" 
d="M10 0zM394 -270h-13v227l139 106v213h-190v-276h-173v534h-147v178h510v-178h-190v-101h245l118 -126v-346z" />
    <glyph glyph-name="uni0453" unicode="&#x453;" horiz-adv-x="413" 
d="M40 0zM40 0v712h363v-178h-190v-534h-173zM124 737l91 190h154l-87 -190h-158z" />
    <glyph glyph-name="uni0454" unicode="&#x454;" horiz-adv-x="588" 
d="M40 0zM421 0h-272l-109 137v441l111 134h270v-178h-208v-73h129v-152h-129v-131h208v-178z" />
    <glyph glyph-name="uni0455" unicode="&#x455;" horiz-adv-x="577" 
d="M0 0zM0 0v16l100 162h258l-278 378l87 156h357v-178h-206l255 -341l-137 -193h-436z" />
    <glyph glyph-name="uni0456" unicode="&#x456;" horiz-adv-x="252" 
d="M40 0zM213 0h-173v712h173v-712z" />
    <glyph glyph-name="uni0457" unicode="&#x457;" horiz-adv-x="299" 
d="M0 0zM236 0h-173v712h173v-712zM367 827l-102 -101l-102 101l102 103zM135 827l-102 -101l-101 101l101 103z" />
    <glyph glyph-name="uni0458" unicode="&#x458;" horiz-adv-x="335" 
d="M0 0zM-3 -270h-13v227l139 106v471h-105v178h278v-751z" />
    <glyph glyph-name="uni0459" unicode="&#x459;" horiz-adv-x="948" 
d="M14 0zM14 0v178h89l96 534h378v-314h249l120 -135l-179 -263h-363v560h-71l-124 -560h-195zM714 220h-137v-201z" />
    <glyph glyph-name="uni045A" unicode="&#x45a;" horiz-adv-x="877" 
d="M40 0zM507 398h248l120 -135l-179 -263h-363v221h-120v-221h-173v712h173v-313h120v313h174v-314zM643 220h-137v-201z" />
    <glyph glyph-name="uni045B" unicode="&#x45b;" horiz-adv-x="733" 
d="M10 0zM10 712h510v-178h-190v-101h245l118 -126v-307h-173v276h-190v-276h-173v534h-147v178z" />
    <glyph glyph-name="uni045C" unicode="&#x45c;" horiz-adv-x="655" 
d="M40 0zM213 510l222 219l118 -129l-181 -166l337 -478l-139 -136l-357 542v-362h-173v712h173v-202zM235 737l91 190h154l-87 -190h-158z" />
    <glyph glyph-name="uni045D" unicode="&#x45d;" horiz-adv-x="547" 
d="M40 0zM507 -169h-11l-162 144v415l-121 -390h-173v712h173v-390l121 390h173v-881zM198 737l-87 190h154l91 -190h-158z" />
    <glyph glyph-name="uni045E" unicode="&#x45e;" horiz-adv-x="637" 
d="M6 0zM75 0v178h129l17 34l-215 433l154 84l155 -327l162 327l154 -84l-321 -645h-235zM482 912q0 -41 -14 -71.5t-36.5 -51t-52 -30.5t-60.5 -10q-32 0 -61.5 10t-52.5 30.5t-37 51t-14 71.5h93q2 -34 19 -53.5t53 -19.5q34 0 50.5 19.5t18.5 53.5h94z" />
    <glyph glyph-name="uni045F" unicode="&#x45f;" horiz-adv-x="565" 
d="M40 0zM207 -169v169h-167v712h173v-534h121v534h173v-712h-150v-169h-150z" />
    <glyph glyph-name="uni0490" unicode="&#x490;" horiz-adv-x="413" 
d="M213 534v-534h-173v712h213v169h150v-347h-190z" />
    <glyph glyph-name="uni0491" unicode="&#x491;" horiz-adv-x="413" 
d="M40 0zM213 534v-534h-173v712h213v169h150v-347h-190z" />
    <glyph glyph-name="uni0492" unicode="&#x492;" horiz-adv-x="440" 
d="M67 0v251h-65v104h65v357h363v-178h-190v-179h148v-104h-148v-251h-173z" />
    <glyph glyph-name="uni0493" unicode="&#x493;" horiz-adv-x="440" 
d="M2 0zM67 0v251h-65v104h65v357h363v-178h-190v-179h148v-104h-148v-251h-173z" />
    <glyph glyph-name="uni0496" unicode="&#x496;" horiz-adv-x="1093" 
d="M884 178h150v-347h-150v169h-99l-238 362v-362h-173v362l-241 -367l-145 120l226 316l-177 171l115 127l222 -219v202h173v-202l222 219l118 -129l-181 -166z" />
    <glyph glyph-name="uni0497" unicode="&#x497;" horiz-adv-x="1093" 
d="M0 0zM884 178h150v-347h-150v169h-99l-238 362v-362h-173v362l-241 -367l-145 120l226 316l-177 171l115 127l222 -219v202h173v-202l222 219l118 -129l-181 -166z" />
    <glyph glyph-name="uni0498" unicode="&#x498;" horiz-adv-x="511" 
d="M306 -270h-11l-271 244l247 335l-107 117l88 108h-252v178h309l137 -196l-60 -82l119 -119l-269 -373l70 -61v-151z" />
    <glyph glyph-name="uni0499" unicode="&#x499;" horiz-adv-x="511" 
d="M0 0zM306 -270h-11l-271 244l247 335l-107 117l88 108h-252v178h309l137 -196l-60 -82l119 -119l-269 -373l70 -61v-151z" />
    <glyph glyph-name="uni049A" unicode="&#x49a;" horiz-adv-x="712" 
d="M552 -169v169h-101l-238 362v-362h-173v712h173v-202l222 219l118 -129l-181 -166l180 -256h150v-347h-150z" />
    <glyph glyph-name="uni049B" unicode="&#x49b;" horiz-adv-x="712" 
d="M40 0zM552 -169v169h-101l-238 362v-362h-173v712h173v-202l222 219l118 -129l-181 -166l180 -256h150v-347h-150z" />
    <glyph glyph-name="uni04A0" unicode="&#x4a0;" horiz-adv-x="815" 
d="M373 510l222 219l118 -129l-181 -166l337 -478l-139 -136l-357 542v-362h-173v534h-190v178h363v-202z" />
    <glyph glyph-name="uni04A1" unicode="&#x4a1;" horiz-adv-x="815" 
d="M10 0zM373 510l222 219l118 -129l-181 -166l337 -478l-139 -136l-357 542v-362h-173v534h-190v178h363v-202z" />
    <glyph glyph-name="uni04A2" unicode="&#x4a2;" horiz-adv-x="627" 
d="M467 -169v169h-133v309h-121v-309h-173v712h173v-251h121v251h173v-251h95v-11l-95 -125v-147h110v-347h-150z" />
    <glyph glyph-name="uni04A3" unicode="&#x4a3;" horiz-adv-x="627" 
d="M40 0zM467 -169v169h-133v309h-121v-309h-173v712h173v-251h121v251h173v-251h95v-11l-95 -125v-147h110v-347h-150z" />
    <glyph glyph-name="uni04AA" unicode="&#x4aa;" horiz-adv-x="588" 
d="M398 -270h-11l-197 167l167 132l-355 513l140 170h427v-178h-341l303 -424l-203 -168l70 -61v-151z" />
    <glyph glyph-name="uni04AB" unicode="&#x4ab;" horiz-adv-x="588" 
d="M2 0zM398 -270h-11l-197 167l167 132l-355 513l140 170h427v-178h-341l303 -424l-203 -168l70 -61v-151z" />
    <glyph glyph-name="uni04AE" unicode="&#x4ae;" horiz-adv-x="637" 
d="M221 0v217l-215 428l154 84l155 -327l162 327l154 -84l-213 -428v-217h-197z" />
    <glyph glyph-name="uni04AF" unicode="&#x4af;" horiz-adv-x="637" 
d="M6 0zM221 0v217l-215 428l154 84l155 -327l162 327l154 -84l-213 -428v-217h-197z" />
    <glyph glyph-name="uni04B0" unicode="&#x4b0;" horiz-adv-x="637" 
d="M221 0v172h-186v118h147l-176 355l154 84l155 -327l162 327l154 -84l-177 -355h146v-118h-182v-172h-197z" />
    <glyph glyph-name="uni04B1" unicode="&#x4b1;" horiz-adv-x="637" 
d="M6 0zM221 0v172h-186v118h147l-176 355l154 84l155 -327l162 327l154 -84l-177 -355h146v-118h-182v-172h-197z" />
    <glyph glyph-name="uni04B2" unicode="&#x4b2;" horiz-adv-x="735" 
d="M575 -169v169h-75l-183 249l-191 -262l-123 112l211 290l-169 226l135 114l148 -209l149 209l135 -114l-180 -240l143 -197h150v-347h-150z" />
    <glyph glyph-name="uni04B3" unicode="&#x4b3;" horiz-adv-x="735" 
d="M3 0zM575 -169v169h-75l-183 249l-191 -262l-123 112l211 290l-169 226l135 114l148 -209l149 209l135 -114l-180 -240l143 -197h150v-347h-150z" />
    <glyph glyph-name="uni04B6" unicode="&#x4b6;" horiz-adv-x="626" 
d="M466 -169v169h-133v279h-175l-118 126v307h173v-276h120v276h173v-534h110v-347h-150z" />
    <glyph glyph-name="uni04B7" unicode="&#x4b7;" horiz-adv-x="626" 
d="M40 0zM466 -169v169h-133v279h-175l-118 126v307h173v-276h120v276h173v-534h110v-347h-150z" />
    <glyph glyph-name="uni04BA" unicode="&#x4ba;" horiz-adv-x="546" 
d="M213 712v-209h175l118 -126v-377h-173v346h-120v-346h-173v712h173z" />
    <glyph glyph-name="uni04BB" unicode="&#x4bb;" horiz-adv-x="546" 
d="M40 0zM213 712v-209h175l118 -126v-377h-173v346h-120v-346h-173v712h173z" />
    <glyph glyph-name="uni04C0" unicode="&#x4c0;" horiz-adv-x="252" 
d="M40 0zM213 0h-173v712h173v-712z" />
    <glyph glyph-name="uni04C3" unicode="&#x4c3;" horiz-adv-x="675" 
d="M213 510l222 219l118 -129l-181 -166l337 -473l-299 -231h-13v227l55 42l-239 363v-362h-173v712h173v-202z" />
    <glyph glyph-name="uni04C4" unicode="&#x4c4;" horiz-adv-x="675" 
d="M40 0zM213 510l222 219l118 -129l-181 -166l337 -473l-299 -231h-13v227l55 42l-239 363v-362h-173v712h173v-202z" />
    <glyph glyph-name="uni04C7" unicode="&#x4c7;" horiz-adv-x="565" 
d="M208 -270h-13v227l139 106v246h-121v-309h-173v712h173v-251h121v251h173v-251h95v-11l-95 -125v-364z" />
    <glyph glyph-name="uni04C8" unicode="&#x4c8;" horiz-adv-x="565" 
d="M40 0zM208 -270h-13v227l139 106v246h-121v-309h-173v712h173v-251h121v251h173v-251h95v-11l-95 -125v-364z" />
    <glyph glyph-name="uni04D9" unicode="&#x4d9;" horiz-adv-x="450" 
d="M29 0zM29 178h208v131h-208v152h208v73h-208v178h381v-575l-109 -137h-272v178z" />
    <glyph glyph-name="uni04E8" unicode="&#x4e8;" horiz-adv-x="774" 
d="M771 170l-140 -170h-489l-140 170l373 542h24zM509 240h-246l-43 -62h333zM315 315h142l-71 101z" />
    <glyph glyph-name="uni04E9" unicode="&#x4e9;" horiz-adv-x="774" 
d="M2 0zM771 170l-140 -170h-489l-140 170l373 542h24zM509 240h-246l-43 -62h333zM315 315h142l-71 101z" />
    <glyph glyph-name="uni04EE" unicode="&#x4ee;" horiz-adv-x="637" 
d="M6 0zM75 0v178h129l17 34l-215 433l154 84l155 -327l162 327l154 -84l-321 -645h-235zM155 751v104h326v-104h-326z" />
    <glyph glyph-name="uni04EF" unicode="&#x4ef;" horiz-adv-x="637" 
d="M6 0zM75 0v178h129l17 34l-215 433l154 84l155 -327l162 327l154 -84l-321 -645h-235zM155 751v104h326v-104h-326z" />
    <glyph glyph-name="uni0512" unicode="&#x512;" horiz-adv-x="635" 
d="M278 -270h-13v227l139 106v497h-71l-124 -560h-195v178h89l96 534h378v-751z" />
    <glyph glyph-name="uni0513" unicode="&#x513;" horiz-adv-x="635" 
d="M14 0zM278 -270h-13v227l139 106v497h-71l-124 -560h-195v178h89l96 534h378v-751z" />
    <glyph glyph-name="uni058F" unicode="&#x58f;" horiz-adv-x="515" 
d="M340 101v-101h-173v101h-153v104h153v96h-153v104h153v54l-139 106v227h13l299 -231v-156h160v-104h-160v-96h160v-104h-160z" />
    <glyph glyph-name="uni1E0C" unicode="&#x1e0c;" horiz-adv-x="642" 
d="M40 0zM639 196l-137 -196h-462v712h260zM431 178l-218 331v-331h218zM422 -173l-101 -101l-102 101l102 103z" />
    <glyph glyph-name="uni1E0D" unicode="&#x1e0d;" horiz-adv-x="642" 
d="M40 0zM639 196l-137 -196h-462v712h260zM431 178l-218 331v-331h218zM422 -173l-101 -101l-102 101l102 103z" />
    <glyph glyph-name="uni1E12" unicode="&#x1e12;" horiz-adv-x="642" 
d="M40 0zM639 196l-137 -196h-462v712h260zM431 178l-218 331v-331h218zM382 -248l-62 78l-61 -78h-126l127 164h122l127 -164h-127z" />
    <glyph glyph-name="uni1E13" unicode="&#x1e13;" horiz-adv-x="642" 
d="M40 0zM639 196l-137 -196h-462v712h260zM431 178l-218 331v-331h218zM382 -248l-62 78l-61 -78h-126l127 164h122l127 -164h-127z" />
    <glyph glyph-name="uni1E24" unicode="&#x1e24;" horiz-adv-x="565" 
d="M40 0zM507 -169h-11l-162 144v334h-121v-309h-173v712h173v-251h121v251h173v-251h95v-11l-95 -125v-494zM384 -173l-101 -101l-102 101l102 103z" />
    <glyph glyph-name="uni1E25" unicode="&#x1e25;" horiz-adv-x="565" 
d="M40 0zM507 -169h-11l-162 144v334h-121v-309h-173v712h173v-251h121v251h173v-251h95v-11l-95 -125v-494zM384 -173l-101 -101l-102 101l102 103z" />
    <glyph glyph-name="uni1E3C" unicode="&#x1e3c;" horiz-adv-x="373" 
d="M351 -124h-13l-298 231v605h173v-503l138 -106v-227zM248 -248l-62 78l-61 -78h-126l127 164h122l127 -164h-127z" />
    <glyph glyph-name="uni1E3D" unicode="&#x1e3d;" horiz-adv-x="373" 
d="M0 0zM351 -124h-13l-298 231v605h173v-503l138 -106v-227zM248 -248l-62 78l-61 -78h-126l127 164h122l127 -164h-127z" />
    <glyph glyph-name="uni1E44" unicode="&#x1e44;" horiz-adv-x="596" 
d="M0 0zM557 -169h-11l-162 144v235l-171 202v-412h-173v621l-67 79v12h204l207 -246v246h173v-881zM399 827l-101 -101l-102 101l102 103z" />
    <glyph glyph-name="uni1E45" unicode="&#x1e45;" horiz-adv-x="596" 
d="M0 0zM557 -169h-11l-162 144v235l-171 202v-412h-173v621l-67 79v12h204l207 -246v246h173v-881zM399 827l-101 -101l-102 101l102 103z" />
    <glyph glyph-name="uni1E4A" unicode="&#x1e4a;" horiz-adv-x="596" 
d="M0 0zM557 -169h-11l-162 144v235l-171 202v-412h-173v621l-67 79v12h204l207 -246v246h173v-881zM359 -248l-62 78l-61 -78h-126l127 164h122l127 -164h-127z" />
    <glyph glyph-name="uni1E4B" unicode="&#x1e4b;" horiz-adv-x="596" 
d="M0 0zM557 -169h-11l-162 144v235l-171 202v-412h-173v621l-67 79v12h204l207 -246v246h173v-881zM359 -248l-62 78l-61 -78h-126l127 164h122l127 -164h-127z" />
    <glyph glyph-name="uni1E5A" unicode="&#x1e5a;" horiz-adv-x="594" 
d="M40 0zM659 -49l-138 -130l-308 377v-198h-173v712h173v-134l100 134h15l263 -346l-161 -130zM379 348l-80 102l-81 -102h161zM398 -173l-101 -101l-102 101l102 103z" />
    <glyph glyph-name="uni1E5B" unicode="&#x1e5b;" horiz-adv-x="594" 
d="M40 0zM659 -49l-138 -130l-308 377v-198h-173v712h173v-134l100 134h15l263 -346l-161 -130zM379 348l-80 102l-81 -102h161zM398 -173l-101 -101l-102 101l102 103z" />
    <glyph glyph-name="uni1E62" unicode="&#x1e62;" horiz-adv-x="577" 
d="M0 0zM0 0v16l100 162h258l-278 378l87 156h357v-178h-206l255 -341l-137 -193h-436zM390 -173l-101 -101l-102 101l102 103z" />
    <glyph glyph-name="uni1E63" unicode="&#x1e63;" horiz-adv-x="577" 
d="M0 0zM0 0v16l100 162h258l-278 378l87 156h357v-178h-206l255 -341l-137 -193h-436zM390 -173l-101 -101l-102 101l102 103z" />
    <glyph glyph-name="uni1E6C" unicode="&#x1e6c;" horiz-adv-x="522" 
d="M10 0zM490 -270h-13l-298 231v573h-169v178h502v-178h-160v-471l138 -106v-227zM262 -173l-101 -101l-102 101l102 103z" />
    <glyph glyph-name="uni1E6D" unicode="&#x1e6d;" horiz-adv-x="522" 
d="M10 0zM490 -270h-13l-298 231v573h-169v178h502v-178h-160v-471l138 -106v-227zM262 -173l-101 -101l-102 101l102 103z" />
    <glyph glyph-name="Wgrave" unicode="&#x1e80;" horiz-adv-x="662" 
d="M40 0zM331 393l119 -129v448h173v-545l-155 -167h-18l-119 133l-118 -133h-18l-155 167v545h173v-448zM247 737l-87 190h154l91 -190h-158z" />
    <glyph glyph-name="wgrave" unicode="&#x1e81;" horiz-adv-x="662" 
d="M40 0zM331 393l119 -129v448h173v-545l-155 -167h-18l-119 133l-118 -133h-18l-155 167v545h173v-448zM247 737l-87 190h154l91 -190h-158z" />
    <glyph glyph-name="Wacute" unicode="&#x1e82;" horiz-adv-x="662" 
d="M40 0zM331 393l119 -129v448h173v-545l-155 -167h-18l-119 133l-118 -133h-18l-155 167v545h173v-448zM258 737l91 190h154l-87 -190h-158z" />
    <glyph glyph-name="wacute" unicode="&#x1e83;" horiz-adv-x="662" 
d="M40 0zM331 393l119 -129v448h173v-545l-155 -167h-18l-119 133l-118 -133h-18l-155 167v545h173v-448zM258 737l91 190h154l-87 -190h-158z" />
    <glyph glyph-name="Wdieresis" unicode="&#x1e84;" horiz-adv-x="662" 
d="M40 0zM331 393l119 -129v448h173v-545l-155 -167h-18l-119 133l-118 -133h-18l-155 167v545h173v-448zM549 827l-102 -101l-102 101l102 103zM317 827l-102 -101l-101 101l101 103z" />
    <glyph glyph-name="wdieresis" unicode="&#x1e85;" horiz-adv-x="662" 
d="M40 0zM331 393l119 -129v448h173v-545l-155 -167h-18l-119 133l-118 -133h-18l-155 167v545h173v-448zM549 827l-102 -101l-102 101l102 103zM317 827l-102 -101l-101 101l101 103z" />
    <glyph glyph-name="uni1E92" unicode="&#x1e92;" horiz-adv-x="583" 
d="M10 0zM147 0l-137 193l255 341h-206v178h357l87 -156l-278 -378h258l100 -162v-16h-436zM393 -173l-101 -101l-102 101l102 103z" />
    <glyph glyph-name="uni1E93" unicode="&#x1e93;" horiz-adv-x="583" 
d="M10 0zM147 0l-137 193l255 341h-206v178h357l87 -156l-278 -378h258l100 -162v-16h-436zM393 -173l-101 -101l-102 101l102 103z" />
    <glyph glyph-name="uni1E9E" unicode="&#x1e9e;" horiz-adv-x="650" 
d="M40 549l131 163h277l137 -196l-60 -82l119 -119l-342 -475l-139 134l19 26h-142v549zM303 426l88 108h-178v-492l197 267z" />
    <glyph glyph-name="uni1EA0" unicode="&#x1ea0;" 
d="M0 0zM261 463l195 249h210v-712h-185l-200 192l-154 -201l-127 136l149 191l-77 74l114 143zM386 337l107 -102v236zM454 -173l-101 -101l-102 101l102 103z" />
    <glyph glyph-name="uni1EA1" unicode="&#x1ea1;" 
d="M0 0zM261 463l195 249h210v-712h-185l-200 192l-154 -201l-127 136l149 191l-77 74l114 143zM386 337l107 -102v236zM454 -173l-101 -101l-102 101l102 103z" />
    <glyph glyph-name="uni1EA2" unicode="&#x1ea2;" 
d="M0 0zM261 463l195 249h210v-712h-185l-200 192l-154 -201l-127 136l149 191l-77 74l114 143zM386 337l107 -102v236zM469 847v83h141l65 -80l-95 -134l-65 60l55 71h-101z" />
    <glyph glyph-name="uni1EA3" unicode="&#x1ea3;" 
d="M0 0zM261 463l195 249h210v-712h-185l-200 192l-154 -201l-127 136l149 191l-77 74l114 143zM386 337l107 -102v236zM469 847v83h141l65 -80l-95 -134l-65 60l55 71h-101z" />
    <glyph glyph-name="uni1EA4" unicode="&#x1ea4;" 
d="M0 0zM261 463l195 249h210v-712h-185l-200 192l-154 -201l-127 136l149 191l-77 74l114 143zM386 337l107 -102v236zM562 732l-62 78l-61 -78h-126l127 164h122l127 -164h-127zM632 817l91 190h154l-87 -190h-158z" />
    <glyph glyph-name="uni1EA5" unicode="&#x1ea5;" 
d="M0 0zM261 463l195 249h210v-712h-185l-200 192l-154 -201l-127 136l149 191l-77 74l114 143zM386 337l107 -102v236zM562 732l-62 78l-61 -78h-126l127 164h122l127 -164h-127zM632 817l91 190h154l-87 -190h-158z" />
    <glyph glyph-name="uni1EA6" unicode="&#x1ea6;" 
d="M0 0zM261 463l195 249h210v-712h-185l-200 192l-154 -201l-127 136l149 191l-77 74l114 143zM386 337l107 -102v236zM562 732l-62 78l-61 -78h-126l127 164h122l127 -164h-127zM665 817l-87 190h154l91 -190h-158z" />
    <glyph glyph-name="uni1EA7" unicode="&#x1ea7;" 
d="M0 0zM261 463l195 249h210v-712h-185l-200 192l-154 -201l-127 136l149 191l-77 74l114 143zM386 337l107 -102v236zM562 732l-62 78l-61 -78h-126l127 164h122l127 -164h-127zM665 817l-87 190h154l91 -190h-158z" />
    <glyph glyph-name="uni1EA8" unicode="&#x1ea8;" 
d="M0 0zM261 463l195 249h210v-712h-185l-200 192l-154 -201l-127 136l149 191l-77 74l114 143zM386 337l107 -102v236zM562 732l-62 78l-61 -78h-126l127 164h122l127 -164h-127zM592 897v83h141l65 -80l-95 -134l-65 60l55 71h-101z" />
    <glyph glyph-name="uni1EA9" unicode="&#x1ea9;" 
d="M0 0zM261 463l195 249h210v-712h-185l-200 192l-154 -201l-127 136l149 191l-77 74l114 143zM386 337l107 -102v236zM562 732l-62 78l-61 -78h-126l127 164h122l127 -164h-127zM592 897v83h141l65 -80l-95 -134l-65 60l55 71h-101z" />
    <glyph glyph-name="uni1EAA" unicode="&#x1eaa;" 
d="M0 0zM261 463l195 249h210v-712h-185l-200 192l-154 -201l-127 136l149 191l-77 74l114 143zM386 337l107 -102v236zM622 732l-62 78l-61 -78h-126l127 164h122l127 -164h-127zM738 943q-14 -17 -34.5 -29.5t-51.5 -12.5q-25 0 -46.5 7t-40.5 15t-36.5 15t-34.5 7
q-28 0 -48.5 -11t-40.5 -37v99q13 16 33.5 29.5t52.5 13.5q24 0 45 -7t40 -15.5t37 -15.5t36 -7q26 0 47 11t42 37v-99z" />
    <glyph glyph-name="uni1EAB" unicode="&#x1eab;" 
d="M0 0zM261 463l195 249h210v-712h-185l-200 192l-154 -201l-127 136l149 191l-77 74l114 143zM386 337l107 -102v236zM622 732l-62 78l-61 -78h-126l127 164h122l127 -164h-127zM738 943q-14 -17 -34.5 -29.5t-51.5 -12.5q-25 0 -46.5 7t-40.5 15t-36.5 15t-34.5 7
q-28 0 -48.5 -11t-40.5 -37v99q13 16 33.5 29.5t52.5 13.5q24 0 45 -7t40 -15.5t37 -15.5t36 -7q26 0 47 11t42 37v-99z" />
    <glyph glyph-name="uni1EAC" unicode="&#x1eac;" 
d="M0 0zM261 463l195 249h210v-712h-185l-200 192l-154 -201l-127 136l149 191l-77 74l114 143zM386 337l107 -102v236zM582 732l-62 78l-61 -78h-126l127 164h122l127 -164h-127zM454 -173l-101 -101l-102 101l102 103z" />
    <glyph glyph-name="uni1EAD" unicode="&#x1ead;" 
d="M0 0zM261 463l195 249h210v-712h-185l-200 192l-154 -201l-127 136l149 191l-77 74l114 143zM386 337l107 -102v236zM582 732l-62 78l-61 -78h-126l127 164h122l127 -164h-127zM454 -173l-101 -101l-102 101l102 103z" />
    <glyph glyph-name="uni1EAE" unicode="&#x1eae;" 
d="M0 0zM261 463l195 249h210v-712h-185l-200 192l-154 -201l-127 136l149 191l-77 74l114 143zM386 337l107 -102v236zM723 892q0 -41 -14 -71.5t-36.5 -51t-52 -30.5t-60.5 -10q-32 0 -61.5 10t-52.5 30.5t-37 51t-14 71.5h93q2 -34 19 -53.5t53 -19.5q34 0 50.5 19.5
t18.5 53.5h94zM465 917l91 190h154l-87 -190h-158z" />
    <glyph glyph-name="uni1EAF" unicode="&#x1eaf;" 
d="M0 0zM261 463l195 249h210v-712h-185l-200 192l-154 -201l-127 136l149 191l-77 74l114 143zM386 337l107 -102v236zM723 892q0 -41 -14 -71.5t-36.5 -51t-52 -30.5t-60.5 -10q-32 0 -61.5 10t-52.5 30.5t-37 51t-14 71.5h93q2 -34 19 -53.5t53 -19.5q34 0 50.5 19.5
t18.5 53.5h94zM465 917l91 190h154l-87 -190h-158z" />
    <glyph glyph-name="uni1EB0" unicode="&#x1eb0;" 
d="M0 0zM261 463l195 249h210v-712h-185l-200 192l-154 -201l-127 136l149 191l-77 74l114 143zM386 337l107 -102v236zM723 892q0 -41 -14 -71.5t-36.5 -51t-52 -30.5t-60.5 -10q-32 0 -61.5 10t-52.5 30.5t-37 51t-14 71.5h93q2 -34 19 -53.5t53 -19.5q34 0 50.5 19.5
t18.5 53.5h94zM473 917l-87 190h154l91 -190h-158z" />
    <glyph glyph-name="uni1EB1" unicode="&#x1eb1;" 
d="M0 0zM261 463l195 249h210v-712h-185l-200 192l-154 -201l-127 136l149 191l-77 74l114 143zM386 337l107 -102v236zM723 892q0 -41 -14 -71.5t-36.5 -51t-52 -30.5t-60.5 -10q-32 0 -61.5 10t-52.5 30.5t-37 51t-14 71.5h93q2 -34 19 -53.5t53 -19.5q34 0 50.5 19.5
t18.5 53.5h94zM473 917l-87 190h154l91 -190h-158z" />
    <glyph glyph-name="uni1EB2" unicode="&#x1eb2;" 
d="M0 0zM261 463l195 249h210v-712h-185l-200 192l-154 -201l-127 136l149 191l-77 74l114 143zM386 337l107 -102v236zM723 892q0 -41 -14 -71.5t-36.5 -51t-52 -30.5t-60.5 -10q-32 0 -61.5 10t-52.5 30.5t-37 51t-14 71.5h93q2 -34 19 -53.5t53 -19.5q34 0 50.5 19.5
t18.5 53.5h94zM458 977v83h141l65 -80l-95 -134l-65 60l55 71h-101z" />
    <glyph glyph-name="uni1EB3" unicode="&#x1eb3;" 
d="M0 0zM261 463l195 249h210v-712h-185l-200 192l-154 -201l-127 136l149 191l-77 74l114 143zM386 337l107 -102v236zM723 892q0 -41 -14 -71.5t-36.5 -51t-52 -30.5t-60.5 -10q-32 0 -61.5 10t-52.5 30.5t-37 51t-14 71.5h93q2 -34 19 -53.5t53 -19.5q34 0 50.5 19.5
t18.5 53.5h94zM458 977v83h141l65 -80l-95 -134l-65 60l55 71h-101z" />
    <glyph glyph-name="uni1EB4" unicode="&#x1eb4;" 
d="M0 0zM261 463l195 249h210v-712h-185l-200 192l-154 -201l-127 136l149 191l-77 74l114 143zM386 337l107 -102v236zM723 892q0 -41 -14 -71.5t-36.5 -51t-52 -30.5t-60.5 -10q-32 0 -61.5 10t-52.5 30.5t-37 51t-14 71.5h93q2 -34 19 -53.5t53 -19.5q34 0 50.5 19.5
t18.5 53.5h94zM729 943q-14 -17 -34.5 -29.5t-51.5 -12.5q-25 0 -46.5 7t-40.5 15t-36.5 15t-34.5 7q-28 0 -48.5 -11t-40.5 -37v99q13 16 33.5 29.5t52.5 13.5q24 0 45 -7t40 -15.5t37 -15.5t36 -7q26 0 47 11t42 37v-99z" />
    <glyph glyph-name="uni1EB5" unicode="&#x1eb5;" 
d="M0 0zM261 463l195 249h210v-712h-185l-200 192l-154 -201l-127 136l149 191l-77 74l114 143zM386 337l107 -102v236zM723 892q0 -41 -14 -71.5t-36.5 -51t-52 -30.5t-60.5 -10q-32 0 -61.5 10t-52.5 30.5t-37 51t-14 71.5h93q2 -34 19 -53.5t53 -19.5q34 0 50.5 19.5
t18.5 53.5h94zM729 943q-14 -17 -34.5 -29.5t-51.5 -12.5q-25 0 -46.5 7t-40.5 15t-36.5 15t-34.5 7q-28 0 -48.5 -11t-40.5 -37v99q13 16 33.5 29.5t52.5 13.5q24 0 45 -7t40 -15.5t37 -15.5t36 -7q26 0 47 11t42 37v-99z" />
    <glyph glyph-name="uni1EB6" unicode="&#x1eb6;" 
d="M0 0zM261 463l195 249h210v-712h-185l-200 192l-154 -201l-127 136l149 191l-77 74l114 143zM386 337l107 -102v236zM723 892q0 -41 -14 -71.5t-36.5 -51t-52 -30.5t-60.5 -10q-32 0 -61.5 10t-52.5 30.5t-37 51t-14 71.5h93q2 -34 19 -53.5t53 -19.5q34 0 50.5 19.5
t18.5 53.5h94zM454 -173l-101 -101l-102 101l102 103z" />
    <glyph glyph-name="uni1EB7" unicode="&#x1eb7;" 
d="M0 0zM261 463l195 249h210v-712h-185l-200 192l-154 -201l-127 136l149 191l-77 74l114 143zM386 337l107 -102v236zM723 892q0 -41 -14 -71.5t-36.5 -51t-52 -30.5t-60.5 -10q-32 0 -61.5 10t-52.5 30.5t-37 51t-14 71.5h93q2 -34 19 -53.5t53 -19.5q34 0 50.5 19.5
t18.5 53.5h94zM454 -173l-101 -101l-102 101l102 103z" />
    <glyph glyph-name="uni1EB8" unicode="&#x1eb8;" horiz-adv-x="450" 
d="M40 0zM421 0h-272l-109 137v575h381v-178h-208v-73h208v-152h-208v-131h208v-178zM336 -173l-101 -101l-102 101l102 103z" />
    <glyph glyph-name="uni1EB9" unicode="&#x1eb9;" horiz-adv-x="450" 
d="M40 0zM421 0h-272l-109 137v575h381v-178h-208v-73h208v-152h-208v-131h208v-178zM336 -173l-101 -101l-102 101l102 103z" />
    <glyph glyph-name="uni1EBA" unicode="&#x1eba;" horiz-adv-x="450" 
d="M40 0zM421 0h-272l-109 137v575h381v-178h-208v-73h208v-152h-208v-131h208v-178zM132 847v83h141l65 -80l-95 -134l-65 60l55 71h-101z" />
    <glyph glyph-name="uni1EBB" unicode="&#x1ebb;" horiz-adv-x="450" 
d="M40 0zM421 0h-272l-109 137v575h381v-178h-208v-73h208v-152h-208v-131h208v-178zM132 847v83h141l65 -80l-95 -134l-65 60l55 71h-101z" />
    <glyph glyph-name="uni1EBC" unicode="&#x1ebc;" horiz-adv-x="450" 
d="M40 0zM421 0h-272l-109 137v575h381v-178h-208v-73h208v-152h-208v-131h208v-178zM400 783q-14 -17 -34.5 -29.5t-51.5 -12.5q-25 0 -46.5 7t-40.5 15t-36.5 15t-34.5 7q-28 0 -48.5 -11t-40.5 -37v99q13 16 33.5 29.5t52.5 13.5q24 0 45 -7t40 -15.5t37 -15.5t36 -7
q26 0 47 11t42 37v-99z" />
    <glyph glyph-name="uni1EBD" unicode="&#x1ebd;" horiz-adv-x="450" 
d="M40 0zM421 0h-272l-109 137v575h381v-178h-208v-73h208v-152h-208v-131h208v-178zM400 783q-14 -17 -34.5 -29.5t-51.5 -12.5q-25 0 -46.5 7t-40.5 15t-36.5 15t-34.5 7q-28 0 -48.5 -11t-40.5 -37v99q13 16 33.5 29.5t52.5 13.5q24 0 45 -7t40 -15.5t37 -15.5t36 -7
q26 0 47 11t42 37v-99z" />
    <glyph glyph-name="uni1EBE" unicode="&#x1ebe;" horiz-adv-x="450" 
d="M26 0zM421 0h-272l-109 137v575h381v-178h-208v-73h208v-152h-208v-131h208v-178zM275 732l-62 78l-61 -78h-126l127 164h122l127 -164h-127zM342 817l91 190h154l-87 -190h-158z" />
    <glyph glyph-name="uni1EBF" unicode="&#x1ebf;" horiz-adv-x="450" 
d="M26 0zM421 0h-272l-109 137v575h381v-178h-208v-73h208v-152h-208v-131h208v-178zM275 732l-62 78l-61 -78h-126l127 164h122l127 -164h-127zM342 817l91 190h154l-87 -190h-158z" />
    <glyph glyph-name="uni1EC0" unicode="&#x1ec0;" horiz-adv-x="450" 
d="M26 0zM421 0h-272l-109 137v575h381v-178h-208v-73h208v-152h-208v-131h208v-178zM275 732l-62 78l-61 -78h-126l127 164h122l127 -164h-127zM349 817l-87 190h154l91 -190h-158z" />
    <glyph glyph-name="uni1EC1" unicode="&#x1ec1;" horiz-adv-x="450" 
d="M26 0zM421 0h-272l-109 137v575h381v-178h-208v-73h208v-152h-208v-131h208v-178zM275 732l-62 78l-61 -78h-126l127 164h122l127 -164h-127zM349 817l-87 190h154l91 -190h-158z" />
    <glyph glyph-name="uni1EC2" unicode="&#x1ec2;" horiz-adv-x="450" 
d="M26 0zM421 0h-272l-109 137v575h381v-178h-208v-73h208v-152h-208v-131h208v-178zM275 732l-62 78l-61 -78h-126l127 164h122l127 -164h-127zM304 897v83h141l65 -80l-95 -134l-65 60l55 71h-101z" />
    <glyph glyph-name="uni1EC3" unicode="&#x1ec3;" horiz-adv-x="450" 
d="M26 0zM421 0h-272l-109 137v575h381v-178h-208v-73h208v-152h-208v-131h208v-178zM275 732l-62 78l-61 -78h-126l127 164h122l127 -164h-127zM304 897v83h141l65 -80l-95 -134l-65 60l55 71h-101z" />
    <glyph glyph-name="uni1EC4" unicode="&#x1ec4;" horiz-adv-x="450" 
d="M40 0zM421 0h-272l-109 137v575h381v-178h-208v-73h208v-152h-208v-131h208v-178zM295 732l-62 78l-61 -78h-126l127 164h122l127 -164h-127zM401 963q-14 -17 -34.5 -29.5t-51.5 -12.5q-25 0 -46.5 7t-40.5 15t-36.5 15t-34.5 7q-28 0 -48.5 -11t-40.5 -37v99
q13 16 33.5 29.5t52.5 13.5q24 0 45 -7t40 -15.5t37 -15.5t36 -7q26 0 47 11t42 37v-99z" />
    <glyph glyph-name="uni1EC5" unicode="&#x1ec5;" horiz-adv-x="450" 
d="M40 0zM421 0h-272l-109 137v575h381v-178h-208v-73h208v-152h-208v-131h208v-178zM295 732l-62 78l-61 -78h-126l127 164h122l127 -164h-127zM401 963q-14 -17 -34.5 -29.5t-51.5 -12.5q-25 0 -46.5 7t-40.5 15t-36.5 15t-34.5 7q-28 0 -48.5 -11t-40.5 -37v99
q13 16 33.5 29.5t52.5 13.5q24 0 45 -7t40 -15.5t37 -15.5t36 -7q26 0 47 11t42 37v-99z" />
    <glyph glyph-name="uni1EC6" unicode="&#x1ec6;" horiz-adv-x="450" 
d="M40 0zM421 0h-272l-109 137v575h381v-178h-208v-73h208v-152h-208v-131h208v-178zM295 732l-62 78l-61 -78h-126l127 164h122l127 -164h-127zM336 -173l-101 -101l-102 101l102 103z" />
    <glyph glyph-name="uni1EC7" unicode="&#x1ec7;" horiz-adv-x="450" 
d="M40 0zM421 0h-272l-109 137v575h381v-178h-208v-73h208v-152h-208v-131h208v-178zM295 732l-62 78l-61 -78h-126l127 164h122l127 -164h-127zM336 -173l-101 -101l-102 101l102 103z" />
    <glyph glyph-name="uni1EC8" unicode="&#x1ec8;" horiz-adv-x="252" 
d="M23 0zM213 0h-173v712h173v-712zM23 847v83h141l65 -80l-95 -134l-65 60l55 71h-101z" />
    <glyph glyph-name="uni1EC9" unicode="&#x1ec9;" horiz-adv-x="252" 
d="M23 0zM213 0h-173v712h173v-712zM23 847v83h141l65 -80l-95 -134l-65 60l55 71h-101z" />
    <glyph glyph-name="uni1ECA" unicode="&#x1eca;" horiz-adv-x="252" 
d="M24 0zM213 0h-173v712h173v-712zM227 -173l-101 -101l-102 101l102 103z" />
    <glyph glyph-name="uni1ECB" unicode="&#x1ecb;" horiz-adv-x="252" 
d="M24 0zM213 0h-173v712h173v-712zM227 -173l-101 -101l-102 101l102 103z" />
    <glyph glyph-name="uni1ECC" unicode="&#x1ecc;" horiz-adv-x="774" 
d="M2 0zM771 170l-140 -170h-489l-140 170l373 542h24zM220 178h333l-167 238zM488 -173l-101 -101l-102 101l102 103z" />
    <glyph glyph-name="uni1ECD" unicode="&#x1ecd;" horiz-adv-x="774" 
d="M2 0zM771 170l-140 -170h-489l-140 170l373 542h24zM220 178h333l-167 238zM488 -173l-101 -101l-102 101l102 103z" />
    <glyph glyph-name="uni1ECE" unicode="&#x1ece;" horiz-adv-x="774" 
d="M2 0zM771 170l-140 -170h-489l-140 170l373 542h24zM220 178h333l-167 238zM284 847v83h141l65 -80l-95 -134l-65 60l55 71h-101z" />
    <glyph glyph-name="uni1ECF" unicode="&#x1ecf;" horiz-adv-x="774" 
d="M2 0zM771 170l-140 -170h-489l-140 170l373 542h24zM220 178h333l-167 238zM284 847v83h141l65 -80l-95 -134l-65 60l55 71h-101z" />
    <glyph glyph-name="uni1ED0" unicode="&#x1ed0;" horiz-adv-x="774" 
d="M2 0zM771 170l-140 -170h-489l-140 170l373 542h24zM220 178h333l-167 238zM448 732l-62 78l-61 -78h-126l127 164h122l127 -164h-127zM515 817l91 190h154l-87 -190h-158z" />
    <glyph glyph-name="uni1ED1" unicode="&#x1ed1;" horiz-adv-x="774" 
d="M2 0zM771 170l-140 -170h-489l-140 170l373 542h24zM220 178h333l-167 238zM448 732l-62 78l-61 -78h-126l127 164h122l127 -164h-127zM515 817l91 190h154l-87 -190h-158z" />
    <glyph glyph-name="uni1ED2" unicode="&#x1ed2;" horiz-adv-x="774" 
d="M2 0zM771 170l-140 -170h-489l-140 170l373 542h24zM220 178h333l-167 238zM448 732l-62 78l-61 -78h-126l127 164h122l127 -164h-127zM550 817l-87 190h154l91 -190h-158z" />
    <glyph glyph-name="uni1ED3" unicode="&#x1ed3;" horiz-adv-x="774" 
d="M2 0zM771 170l-140 -170h-489l-140 170l373 542h24zM220 178h333l-167 238zM448 732l-62 78l-61 -78h-126l127 164h122l127 -164h-127zM550 817l-87 190h154l91 -190h-158z" />
    <glyph glyph-name="uni1ED4" unicode="&#x1ed4;" horiz-adv-x="774" 
d="M2 0zM771 170l-140 -170h-489l-140 170l373 542h24zM220 178h333l-167 238zM448 732l-62 78l-61 -78h-126l127 164h122l127 -164h-127zM475 897v83h141l65 -80l-95 -134l-65 60l55 71h-101z" />
    <glyph glyph-name="uni1ED5" unicode="&#x1ed5;" horiz-adv-x="774" 
d="M2 0zM771 170l-140 -170h-489l-140 170l373 542h24zM220 178h333l-167 238zM448 732l-62 78l-61 -78h-126l127 164h122l127 -164h-127zM475 897v83h141l65 -80l-95 -134l-65 60l55 71h-101z" />
    <glyph glyph-name="uni1ED6" unicode="&#x1ed6;" horiz-adv-x="774" 
d="M2 0zM771 170l-140 -170h-489l-140 170l373 542h24zM220 178h333l-167 238zM448 732l-62 78l-61 -78h-126l127 164h122l127 -164h-127zM553 943q-14 -17 -34.5 -29.5t-51.5 -12.5q-25 0 -46.5 7t-40.5 15t-36.5 15t-34.5 7q-28 0 -48.5 -11t-40.5 -37v99q13 16 33.5 29.5
t52.5 13.5q24 0 45 -7t40 -15.5t37 -15.5t36 -7q26 0 47 11t42 37v-99z" />
    <glyph glyph-name="uni1ED7" unicode="&#x1ed7;" horiz-adv-x="774" 
d="M2 0zM771 170l-140 -170h-489l-140 170l373 542h24zM220 178h333l-167 238zM448 732l-62 78l-61 -78h-126l127 164h122l127 -164h-127zM553 943q-14 -17 -34.5 -29.5t-51.5 -12.5q-25 0 -46.5 7t-40.5 15t-36.5 15t-34.5 7q-28 0 -48.5 -11t-40.5 -37v99q13 16 33.5 29.5
t52.5 13.5q24 0 45 -7t40 -15.5t37 -15.5t36 -7q26 0 47 11t42 37v-99z" />
    <glyph glyph-name="uni1ED8" unicode="&#x1ed8;" horiz-adv-x="774" 
d="M2 0zM771 170l-140 -170h-489l-140 170l373 542h24zM220 178h333l-167 238zM448 732l-62 78l-61 -78h-126l127 164h122l127 -164h-127zM488 -173l-101 -101l-102 101l102 103z" />
    <glyph glyph-name="uni1ED9" unicode="&#x1ed9;" horiz-adv-x="774" 
d="M2 0zM771 170l-140 -170h-489l-140 170l373 542h24zM220 178h333l-167 238zM448 732l-62 78l-61 -78h-126l127 164h122l127 -164h-127zM488 -173l-101 -101l-102 101l102 103z" />
    <glyph glyph-name="uni1EDA" unicode="&#x1eda;" horiz-adv-x="801" 
d="M2 0zM622 867h11l197 -167l-266 -229l207 -301l-140 -170h-489l-140 170l373 542h24l132 -193l161 136l-70 61v151zM220 178h333l-167 238zM308 737l91 190h154l-87 -190h-158z" />
    <glyph glyph-name="uni1EDB" unicode="&#x1edb;" horiz-adv-x="801" 
d="M2 0zM622 867h11l197 -167l-266 -229l207 -301l-140 -170h-489l-140 170l373 542h24l132 -193l161 136l-70 61v151zM220 178h333l-167 238zM308 737l91 190h154l-87 -190h-158z" />
    <glyph glyph-name="uni1EDC" unicode="&#x1edc;" horiz-adv-x="801" 
d="M2 0zM622 867h11l197 -167l-266 -229l207 -301l-140 -170h-489l-140 170l373 542h24l132 -193l161 136l-70 61v151zM220 178h333l-167 238zM321 737l-87 190h154l91 -190h-158z" />
    <glyph glyph-name="uni1EDD" unicode="&#x1edd;" horiz-adv-x="801" 
d="M2 0zM622 867h11l197 -167l-266 -229l207 -301l-140 -170h-489l-140 170l373 542h24l132 -193l161 136l-70 61v151zM220 178h333l-167 238zM321 737l-87 190h154l91 -190h-158z" />
    <glyph glyph-name="uni1EDE" unicode="&#x1ede;" horiz-adv-x="801" 
d="M2 0zM622 867h11l197 -167l-266 -229l207 -301l-140 -170h-489l-140 170l373 542h24l132 -193l161 136l-70 61v151zM220 178h333l-167 238zM283 847v83h141l65 -80l-95 -134l-65 60l55 71h-101z" />
    <glyph glyph-name="uni1EDF" unicode="&#x1edf;" horiz-adv-x="801" 
d="M2 0zM622 867h11l197 -167l-266 -229l207 -301l-140 -170h-489l-140 170l373 542h24l132 -193l161 136l-70 61v151zM220 178h333l-167 238zM283 847v83h141l65 -80l-95 -134l-65 60l55 71h-101z" />
    <glyph glyph-name="uni1EE0" unicode="&#x1ee0;" horiz-adv-x="801" 
d="M2 0zM622 867h11l197 -167l-266 -229l207 -301l-140 -170h-489l-140 170l373 542h24l132 -193l161 136l-70 61v151zM220 178h333l-167 238zM553 783q-14 -17 -34.5 -29.5t-51.5 -12.5q-25 0 -46.5 7t-40.5 15t-36.5 15t-34.5 7q-28 0 -48.5 -11t-40.5 -37v99
q13 16 33.5 29.5t52.5 13.5q24 0 45 -7t40 -15.5t37 -15.5t36 -7q26 0 47 11t42 37v-99z" />
    <glyph glyph-name="uni1EE1" unicode="&#x1ee1;" horiz-adv-x="801" 
d="M2 0zM622 867h11l197 -167l-266 -229l207 -301l-140 -170h-489l-140 170l373 542h24l132 -193l161 136l-70 61v151zM220 178h333l-167 238zM553 783q-14 -17 -34.5 -29.5t-51.5 -12.5q-25 0 -46.5 7t-40.5 15t-36.5 15t-34.5 7q-28 0 -48.5 -11t-40.5 -37v99
q13 16 33.5 29.5t52.5 13.5q24 0 45 -7t40 -15.5t37 -15.5t36 -7q26 0 47 11t42 37v-99z" />
    <glyph glyph-name="uni1EE2" unicode="&#x1ee2;" horiz-adv-x="801" 
d="M2 0zM622 867h11l197 -167l-266 -229l207 -301l-140 -170h-489l-140 170l373 542h24l132 -193l161 136l-70 61v151zM220 178h333l-167 238zM488 -173l-101 -101l-102 101l102 103z" />
    <glyph glyph-name="uni1EE3" unicode="&#x1ee3;" horiz-adv-x="801" 
d="M2 0zM622 867h11l197 -167l-266 -229l207 -301l-140 -170h-489l-140 170l373 542h24l132 -193l161 136l-70 61v151zM220 178h333l-167 238zM488 -173l-101 -101l-102 101l102 103z" />
    <glyph glyph-name="uni1EE4" unicode="&#x1ee4;" horiz-adv-x="616" 
d="M40 0zM403 0v210l-245 -221l-118 126v597h173v-466l190 170v296h173v-712h-173zM409 -173l-101 -101l-102 101l102 103z" />
    <glyph glyph-name="uni1EE5" unicode="&#x1ee5;" horiz-adv-x="616" 
d="M40 0zM403 0v210l-245 -221l-118 126v597h173v-466l190 170v296h173v-712h-173zM409 -173l-101 -101l-102 101l102 103z" />
    <glyph glyph-name="uni1EE6" unicode="&#x1ee6;" horiz-adv-x="616" 
d="M40 0zM403 0v210l-245 -221l-118 126v597h173v-466l190 170v296h173v-712h-173zM205 847v83h141l65 -80l-95 -134l-65 60l55 71h-101z" />
    <glyph glyph-name="uni1EE7" unicode="&#x1ee7;" horiz-adv-x="616" 
d="M40 0zM403 0v210l-245 -221l-118 126v597h173v-466l190 170v296h173v-712h-173zM205 847v83h141l65 -80l-95 -134l-65 60l55 71h-101z" />
    <glyph glyph-name="uni1EE8" unicode="&#x1ee8;" horiz-adv-x="787" 
d="M40 0zM403 0v210l-245 -221l-118 126v597h173v-466l190 170v296h173v-142l102 85l-70 61v151h11l197 -167l-240 -207v-493h-173zM221 737l91 190h154l-87 -190h-158z" />
    <glyph glyph-name="uni1EE9" unicode="&#x1ee9;" horiz-adv-x="787" 
d="M40 0zM403 0v210l-245 -221l-118 126v597h173v-466l190 170v296h173v-142l102 85l-70 61v151h11l197 -167l-240 -207v-493h-173zM221 737l91 190h154l-87 -190h-158z" />
    <glyph glyph-name="uni1EEA" unicode="&#x1eea;" horiz-adv-x="787" 
d="M40 0zM403 0v210l-245 -221l-118 126v597h173v-466l190 170v296h173v-142l102 85l-70 61v151h11l197 -167l-240 -207v-493h-173zM243 737l-87 190h154l91 -190h-158z" />
    <glyph glyph-name="uni1EEB" unicode="&#x1eeb;" horiz-adv-x="787" 
d="M40 0zM403 0v210l-245 -221l-118 126v597h173v-466l190 170v296h173v-142l102 85l-70 61v151h11l197 -167l-240 -207v-493h-173zM243 737l-87 190h154l91 -190h-158z" />
    <glyph glyph-name="uni1EEC" unicode="&#x1eec;" horiz-adv-x="787" 
d="M40 0zM403 0v210l-245 -221l-118 126v597h173v-466l190 170v296h173v-142l102 85l-70 61v151h11l197 -167l-240 -207v-493h-173zM210 847v83h141l65 -80l-95 -134l-65 60l55 71h-101z" />
    <glyph glyph-name="uni1EED" unicode="&#x1eed;" horiz-adv-x="787" 
d="M40 0zM403 0v210l-245 -221l-118 126v597h173v-466l190 170v296h173v-142l102 85l-70 61v151h11l197 -167l-240 -207v-493h-173zM210 847v83h141l65 -80l-95 -134l-65 60l55 71h-101z" />
    <glyph glyph-name="uni1EEE" unicode="&#x1eee;" horiz-adv-x="787" 
d="M40 0zM403 0v210l-245 -221l-118 126v597h173v-466l190 170v296h173v-142l102 85l-70 61v151h11l197 -167l-240 -207v-493h-173zM478 783q-14 -17 -34.5 -29.5t-51.5 -12.5q-25 0 -46.5 7t-40.5 15t-36.5 15t-34.5 7q-28 0 -48.5 -11t-40.5 -37v99q13 16 33.5 29.5
t52.5 13.5q24 0 45 -7t40 -15.5t37 -15.5t36 -7q26 0 47 11t42 37v-99z" />
    <glyph glyph-name="uni1EEF" unicode="&#x1eef;" horiz-adv-x="787" 
d="M40 0zM403 0v210l-245 -221l-118 126v597h173v-466l190 170v296h173v-142l102 85l-70 61v151h11l197 -167l-240 -207v-493h-173zM478 783q-14 -17 -34.5 -29.5t-51.5 -12.5q-25 0 -46.5 7t-40.5 15t-36.5 15t-34.5 7q-28 0 -48.5 -11t-40.5 -37v99q13 16 33.5 29.5
t52.5 13.5q24 0 45 -7t40 -15.5t37 -15.5t36 -7q26 0 47 11t42 37v-99z" />
    <glyph glyph-name="uni1EF0" unicode="&#x1ef0;" horiz-adv-x="787" 
d="M40 0zM403 0v210l-245 -221l-118 126v597h173v-466l190 170v296h173v-142l102 85l-70 61v151h11l197 -167l-240 -207v-493h-173zM408 -173l-101 -101l-102 101l102 103z" />
    <glyph glyph-name="uni1EF1" unicode="&#x1ef1;" horiz-adv-x="787" 
d="M40 0zM403 0v210l-245 -221l-118 126v597h173v-466l190 170v296h173v-142l102 85l-70 61v151h11l197 -167l-240 -207v-493h-173zM408 -173l-101 -101l-102 101l102 103z" />
    <glyph glyph-name="Ygrave" unicode="&#x1ef2;" horiz-adv-x="595" 
d="M40 0zM213 286l169 179v247h173v-751l-298 -231h-13v218l138 105v189l-224 -228l-118 125v573h173v-426zM223 737l-87 190h154l91 -190h-158z" />
    <glyph glyph-name="ygrave" unicode="&#x1ef3;" horiz-adv-x="595" 
d="M40 0zM213 286l169 179v247h173v-751l-298 -231h-13v218l138 105v189l-224 -228l-118 125v573h173v-426zM223 737l-87 190h154l91 -190h-158z" />
    <glyph glyph-name="uni1EF6" unicode="&#x1ef6;" horiz-adv-x="595" 
d="M40 0zM213 286l169 179v247h173v-751l-298 -231h-13v218l138 105v189l-224 -228l-118 125v573h173v-426zM194 847v83h141l65 -80l-95 -134l-65 60l55 71h-101z" />
    <glyph glyph-name="uni1EF7" unicode="&#x1ef7;" horiz-adv-x="595" 
d="M40 0zM213 286l169 179v247h173v-751l-298 -231h-13v218l138 105v189l-224 -228l-118 125v573h173v-426zM194 847v83h141l65 -80l-95 -134l-65 60l55 71h-101z" />
    <glyph glyph-name="endash" unicode="&#x2013;" horiz-adv-x="495" 
d="M472 309h-449v152h449v-152z" />
    <glyph glyph-name="emdash" unicode="&#x2014;" horiz-adv-x="783" 
d="M759 309h-736v152h736v-152z" />
    <glyph glyph-name="quoteleft" unicode="&#x2018;" horiz-adv-x="251" 
d="M142 435l-135 76l153 220l83 -50z" />
    <glyph glyph-name="quoteright" unicode="&#x2019;" horiz-adv-x="251" 
d="M108 731l135 -76l-153 -220l-83 50z" />
    <glyph glyph-name="quotesinglbase" unicode="&#x201a;" horiz-adv-x="251" 
d="M7 0zM108 120l135 -76l-153 -220l-83 50z" />
    <glyph glyph-name="quotedblleft" unicode="&#x201c;" horiz-adv-x="462" 
d="M7 435zM142 435l-135 76l153 220l83 -50zM353 435l-135 76l153 220l83 -50z" />
    <glyph glyph-name="quotedblright" unicode="&#x201d;" horiz-adv-x="462" 
d="M7 435zM108 731l135 -76l-153 -220l-83 50zM319 731l135 -76l-153 -220l-83 50z" />
    <glyph glyph-name="quotedblbase" unicode="&#x201e;" horiz-adv-x="462" 
d="M7 0zM108 120l135 -76l-153 -220l-83 50zM319 120l135 -76l-153 -220l-83 50z" />
    <glyph glyph-name="dagger" unicode="&#x2020;" horiz-adv-x="450" 
d="M163 0v466h-123v96h123v150h125v-150h122v-96h-122v-466h-125z" />
    <glyph glyph-name="daggerdbl" unicode="&#x2021;" horiz-adv-x="450" 
d="M163 0v147h-123v97h123v222h-123v96h123v150h125v-150h122v-96h-122v-222h122v-97h-122v-147h-125z" />
    <glyph glyph-name="bullet" unicode="&#x2022;" horiz-adv-x="517" 
d="M40 178l218 291l219 -291h-437z" />
    <glyph glyph-name="ellipsis" unicode="&#x2026;" horiz-adv-x="993" 
d="M53 0zM297 103l-122 -123l-122 123l122 122zM616 103l-122 -123l-122 123l122 122zM934 103l-122 -123l-122 123l122 122z" />
    <glyph glyph-name="perthousand" unicode="&#x2030;" horiz-adv-x="1093" 
d="M40 0zM40 711h217l62 -76v-317h-218l-61 76v317zM215 605h-72v-180h72v180zM156 0l384 712h93l-387 -712h-90zM466 393h217l62 -76v-317h-218l-61 76v317zM641 287h-72v-180h72v180zM774 393h217l62 -76v-317h-218l-61 76v317zM949 287h-72v-180h72v180z" />
    <glyph glyph-name="guilsinglleft" unicode="&#x2039;" horiz-adv-x="236" 
d="M176 121l-167 213l167 210l50 -46l-128 -164l129 -165z" />
    <glyph glyph-name="guilsinglright" unicode="&#x203a;" horiz-adv-x="236" 
d="M9 169l129 165l-128 164l50 46l167 -210l-167 -213z" />
    <glyph glyph-name="fraction" unicode="&#x2044;" horiz-adv-x="216" 
d="M-130 0l384 712h93l-387 -712h-90z" />
    <glyph glyph-name="zerosuperior" unicode="&#x2070;" horiz-adv-x="348" 
d="M33 318zM33 711h217l62 -76v-317h-218l-61 76v317zM208 605h-72v-180h72v180z" />
    <glyph glyph-name="foursuperior" unicode="&#x2074;" horiz-adv-x="384" 
d="M13 318zM312 503h57v-107h-57v-78h-104v78h-115l-80 96l152 219h147v-208zM208 503v92l-66 -92h66z" />
    <glyph glyph-name="fivesuperior" unicode="&#x2075;" horiz-adv-x="331" 
d="M18 229zM79 484l-61 66l22 161h215v-99h-123l-5 -35h118l72 -86l-182 -262l-84 81l129 174h-101z" />
    <glyph glyph-name="sixsuperior" unicode="&#x2076;" horiz-adv-x="385" 
d="M11 318zM371 415l-81 -97h-199l-80 97l204 296h130l-91 -129zM147 425h89l-45 64z" />
    <glyph glyph-name="sevensuperior" unicode="&#x2077;" horiz-adv-x="354" 
d="M0 218zM16 605v106h244l80 -95l-275 -398l-84 81l221 306h-186z" />
    <glyph glyph-name="eightsuperior" unicode="&#x2078;" horiz-adv-x="439" 
d="M16 318zM64 612l91 99h262v-14l-116 -186l74 -92l-90 -101h-269v15l122 187zM253 612h-65l32 -51zM186 419h67l-35 49z" />
    <glyph glyph-name="ninesuperior" unicode="&#x2079;" horiz-adv-x="387" 
d="M11 318zM91 711h199l82 -95l-207 -298h-128l89 130l-115 168zM234 605h-87l44 -64z" />
    <glyph glyph-name="zeroinferior" unicode="&#x2080;" horiz-adv-x="348" 
d="M33 393h217l62 -76v-317h-218l-61 76v317zM208 287h-72v-180h72v180z" />
    <glyph glyph-name="oneinferior" unicode="&#x2081;" horiz-adv-x="197" 
d="M163 0h-104v294h-41v99h145v-393z" />
    <glyph glyph-name="twoinferior" unicode="&#x2082;" horiz-adv-x="350" 
d="M93 0l-79 110l132 177h-103v106h200l51 -90l-145 -196h131l55 -91v-16h-242z" />
    <glyph glyph-name="threeinferior" unicode="&#x2083;" horiz-adv-x="310" 
d="M97 234l42 53h-128v106h175l77 -111l-32 -44l65 -63l-191 -264l-83 81l132 180z" />
    <glyph glyph-name="fourinferior" unicode="&#x2084;" horiz-adv-x="384" 
d="M312 185h57v-107h-57v-78h-104v78h-115l-80 96l152 219h147v-208zM208 185v92l-66 -92h66z" />
    <glyph glyph-name="fiveinferior" unicode="&#x2085;" horiz-adv-x="331" 
d="M79 166l-61 66l22 161h215v-99h-123l-5 -35h118l72 -86l-182 -262l-84 81l129 174h-101z" />
    <glyph glyph-name="sixinferior" unicode="&#x2086;" horiz-adv-x="385" 
d="M371 97l-81 -97h-199l-80 97l204 296h130l-91 -129zM147 107h89l-45 64z" />
    <glyph glyph-name="seveninferior" unicode="&#x2087;" horiz-adv-x="354" 
d="M16 287v106h244l80 -95l-275 -398l-84 81l221 306h-186z" />
    <glyph glyph-name="eightinferior" unicode="&#x2088;" horiz-adv-x="439" 
d="M64 294l91 99h262v-14l-116 -186l74 -92l-90 -101h-269v15l122 187zM253 294h-65l32 -51zM186 101h67l-35 49z" />
    <glyph glyph-name="nineinferior" unicode="&#x2089;" horiz-adv-x="387" 
d="M91 393h199l82 -95l-207 -298h-128l89 130l-115 168zM234 287h-87l44 -64z" />
    <glyph glyph-name="uni20A9" unicode="&#x20a9;" horiz-adv-x="662" 
d="M662 418h-74v-270l-137 -148h-16l-105 117l-104 -117h-16l-137 148v270h-73v62h73v58h-73v62h73v112h153v-112h209v112h153v-112h74v-62h-74v-58h74v-62zM330 347l105 -114v185h-209v-185zM226 480h209v58h-209v-58z" />
    <glyph glyph-name="uni20AA" unicode="&#x20aa;" horiz-adv-x="816" 
d="M40 582h449l90 -113v-259h-142v227h-256v-437h-141v582zM777 0h-449l-90 113v259h142v-227h256v437h141v-582z" />
    <glyph glyph-name="dong" unicode="&#x20ab;" horiz-adv-x="462" 
d="M237 548h-172v95h172v69h116v-69h77v-95h-77v-394h-239l-71 102zM25 99h395v-99h-395v99zM263 247v172l-114 -172h114z" />
    <glyph glyph-name="Euro" unicode="&#x20ac;" horiz-adv-x="491" 
d="M264 244v-66h208v-178h-271l-110 137v107h-75l20 76h55v67h-75l20 77h55v110l110 138h271l-52 -178h-156v-70h133l-19 -77h-114v-67h96l-20 -76h-76z" />
    <glyph glyph-name="uni20AD" unicode="&#x20ad;" horiz-adv-x="634" 
d="M606 339h-166l165 -225l-128 -125l-228 344v-333h-159v339h-70v102h70v271h159v-242l252 253l108 -119l-170 -163h167v-102z" />
    <glyph glyph-name="uni20AE" unicode="&#x20ae;" horiz-adv-x="522" 
d="M422 253l-78 -56v-366h-13l-145 146v106l-85 -61v112l85 61v48l-85 -61v112l85 61v194h-155v163h460v-163h-147v-80l78 56v-112l-78 -56v-48l78 56v-112z" />
    <glyph glyph-name="uni20B1" unicode="&#x20b1;" horiz-adv-x="704" 
d="M679 319h-210l-88 -123h-170v-196h-154v319h-40v62h40v58h-40v62h40v211h501l107 -121l-65 -90h79v-62h-124l-41 -58h165v-62zM211 501h209l38 52h-247v-52zM333 381l42 58h-164v-58h122zM288 319h-77v-106z" />
    <glyph glyph-name="uni20B2" unicode="&#x20b2;" horiz-adv-x="678" 
d="M40 0l160 237l-198 308l115 167h403l45 66h101l-321 -476l82 -130v176h147v-348h-222l-103 160l-107 -160h-102zM297 380l121 181h-234z" />
    <glyph glyph-name="uni20B4" unicode="&#x20b4;" horiz-adv-x="577" 
d="M54 331v49h103l30 36h-133v48h175l48 56l-103 141l172 99l148 -223l-64 -73h81v-48h-121l-30 -36h151v-49h-192l-79 -93l168 -212l-137 -77l-226 300l69 82h-60z" />
    <glyph glyph-name="uni20B8" unicode="&#x20b8;" horiz-adv-x="545" 
d="M189 0v363h-169v133h505v-133h-163v-363h-173zM525 579h-505v133h505v-133z" />
    <glyph glyph-name="uni20B9" unicode="&#x20b9;" horiz-adv-x="594" 
d="M552 402h-190l-117 -163l241 -245l-124 -129l-339 366l128 171h-114v114h199l53 70h-252v126h515v-126h-58l-50 -70h108v-114z" />
    <glyph glyph-name="uni20BA" unicode="&#x20ba;" horiz-adv-x="631" 
d="M433 160l-57 89l127 104l117 -177l-123 -176h-422v272l-70 -50v112l70 50v48l-70 -50v112l70 50v168h155v-56l96 69v-112l-96 -69v-48l96 69v-112l-96 -69v-224h203z" />
    <glyph glyph-name="uni20BC" unicode="&#x20bc;" horiz-adv-x="795" 
d="M319 712h150v-334h214l103 -128l-154 -250h-476l-154 250l103 128h214v334zM587 209h-118v-191zM319 18v191h-118z" />
    <glyph glyph-name="uni20BD" unicode="&#x20bd;" horiz-adv-x="591" 
d="M450 161h-206v-161h-162v161h-67v89h67v462h395l112 -135l-167 -263h-178v-64h206v-89zM372 534h-128v-201z" />
    <glyph glyph-name="uni20BE" unicode="&#x20be;" horiz-adv-x="677" 
d="M600 783l-70 -71h147l-83 -178h-70l76 -77l-89 -90l-81 80l-79 -80l-82 81l110 -255l-137 -193h-242v16l100 162h105l-165 378l87 156h205l-71 71l90 90l79 -81l81 81zM430 466l68 68h-134zM264 460l74 74h-105zM370 712h122l-62 61z" />
    <glyph glyph-name="uni20BF" unicode="&#x20bf;" horiz-adv-x="561" 
d="M266 800l81 81l89 -90l-78 -79h99l85 -131l-159 -171l144 -86l-268 -324h-59l66 -67l81 80l89 -90l-89 -90l-81 81l-79 -81l-90 90l77 77h-145v712h147l-79 79l90 90zM361 392h-178v-230zM361 574h-178v-164zM198 712h138l-70 69z" />
    <glyph glyph-name="uni2116" unicode="&#x2116;" horiz-adv-x="937" 
d="M0 0zM557 -169h-11l-162 144v235l-171 202v-412h-173v621l-67 79v12h204l207 -246v246h173v-881zM611 711h217l62 -76v-317h-218l-61 76v317zM786 605h-72v-180h72v180z" />
    <glyph glyph-name="uni2117" unicode="&#x2117;" horiz-adv-x="660" 
d="M621 263q0 -75 -17.5 -126.5t-53.5 -84t-91 -47t-129 -14.5t-128.5 14.5t-90.5 47t-53.5 84t-17.5 126.5v186q0 74 17.5 125.5t53.5 84t90.5 47t128.5 14.5t129 -14.5t91 -47t53.5 -84t17.5 -125.5v-186zM536 449q0 51 -12.5 86.5t-38 57.5t-64.5 32t-91 10
q-53 0 -91.5 -10t-63.5 -32t-37.5 -57.5t-12.5 -86.5v-186q0 -103 50 -145t155 -42t155.5 42t50.5 145v186zM397 330h-100v-165h-90v374h221l63 -70zM370 446h-73v-106z" />
    <glyph glyph-name="trademark" unicode="&#x2122;" horiz-adv-x="823" 
d="M115 305v318h-91v89h288v-89h-92v-318h-105zM690 305v305l-61 -305h-96l-61 305v-305h-94v407h163l43 -248l44 248h156v-407h-94z" />
    <glyph glyph-name="onethird" unicode="&#x2153;" horiz-adv-x="682" 
d="M40 0zM196 318h-104v294h-41v99h145v-393zM40 0l384 712h93l-387 -712h-90zM444 234l42 53h-128v106h175l77 -111l-32 -44l65 -63l-191 -264l-83 81l132 180z" />
    <glyph glyph-name="twothirds" unicode="&#x2154;" horiz-adv-x="848" 
d="M40 0zM119 318l-79 110l132 177h-103v106h200l51 -90l-145 -196h131l55 -91v-16h-242zM206 0l384 712h93l-387 -712h-90zM610 234l42 53h-128v106h175l77 -111l-32 -44l65 -63l-191 -264l-83 81l132 180z" />
    <glyph glyph-name="oneeighth" unicode="&#x215b;" horiz-adv-x="725" 
d="M40 0zM186 318h-104v294h-41v99h145v-393zM40 0l384 712h93l-387 -712h-90zM332 294l91 99h262v-14l-116 -186l74 -92l-90 -101h-269v15l122 187zM521 294h-65l32 -51zM454 101h67l-35 49z" />
    <glyph glyph-name="threeeighths" unicode="&#x215c;" horiz-adv-x="795" 
d="M40 0zM126 552l42 53h-128v106h175l77 -111l-32 -44l65 -63l-191 -264l-83 81l132 180zM110 0l384 712h93l-387 -712h-90zM402 294l91 99h262v-14l-116 -186l74 -92l-90 -101h-269v15l122 187zM591 294h-65l32 -51zM524 101h67l-35 49z" />
    <glyph glyph-name="fiveeighths" unicode="&#x215d;" horiz-adv-x="828" 
d="M40 0zM101 484l-61 66l22 161h215v-99h-123l-5 -35h118l72 -86l-182 -262l-84 81l129 174h-101zM124 0l384 712h93l-387 -712h-90zM436 294l91 99h262v-14l-116 -186l74 -92l-90 -101h-269v15l122 187zM625 294h-65l32 -51zM558 101h67l-35 49z" />
    <glyph glyph-name="seveneighths" unicode="&#x215e;" horiz-adv-x="838" 
d="M39 0zM74 605v106h244l80 -95l-275 -398l-84 81l221 306h-186zM134 0l384 712h93l-387 -712h-90zM446 294l91 99h262v-14l-116 -186l74 -92l-90 -101h-269v15l122 187zM635 294h-65l32 -51zM568 101h67l-35 49z" />
    <glyph glyph-name="partialdiff" unicode="&#x2202;" horiz-adv-x="509" 
d="M211 715q22 5 46 5q42 0 80.5 -16.5t68 -51t47 -89t17.5 -130.5q0 -84 -11 -162.5t-38.5 -138.5t-73.5 -96t-115 -36q-54 0 -90.5 15t-59 43.5t-32.5 69.5t-10 94q0 58 14 103t39 76t59 47t75 16q10 0 25.5 -1.5t32 -5t32 -11t25.5 -19.5q1 5 1 13v16q0 57 -30 89.5
t-78 32.5q-14 0 -24 -3v140zM328 281q-10 17 -28.5 31t-63.5 14q-32 0 -50 -25.5t-18 -79.5q0 -42 20 -61.5t44 -19.5q42 0 65.5 31t30.5 110z" />
    <glyph glyph-name="product" unicode="&#x220f;" horiz-adv-x="515" 
d="M336 -111v712h-159v-712h-137v824h435v-824h-139z" />
    <glyph glyph-name="summation" unicode="&#x2211;" horiz-adv-x="452" 
d="M40 -130v95l169 326l-169 326v95h372v-132h-197l133 -289l-133 -291h197v-130h-372z" />
    <glyph glyph-name="minus" unicode="&#x2212;" horiz-adv-x="559" 
d="M40 285v114h480v-114h-480z" />
    <glyph glyph-name="radical" unicode="&#x221a;" horiz-adv-x="504" 
d="M165 0l-81 270h-64v96h182l33 -164l116 510h144l-183 -712h-147z" />
    <glyph glyph-name="infinity" unicode="&#x221e;" horiz-adv-x="853" 
d="M695 613l115 -95v-328l-115 -95l-268 185l-269 -185l-115 95v328l115 95l269 -185zM324 354l-160 112v-224zM690 242v224l-161 -112z" />
    <glyph glyph-name="integral" unicode="&#x222b;" horiz-adv-x="367" 
d="M2 -157v119h27q38 0 55 9.5t17 42.5v663q0 49 8 85.5t30.5 59.5t64 34.5t107.5 11.5h53v-121h-28q-39 0 -54.5 -9.5t-15.5 -39.5v-665q0 -50 -8.5 -85.5t-31.5 -59t-64.5 -34.5t-108.5 -11h-51z" />
    <glyph glyph-name="approxequal" unicode="&#x2248;" horiz-adv-x="797" 
d="M40 61zM757 365l-312 -304v102l-405 -87l294 289v-87zM757 661l-312 -304v102l-405 -87l294 289v-87z" />
    <glyph glyph-name="notequal" unicode="&#x2260;" horiz-adv-x="559" 
d="M41 0l99 185h-100v115h163l44 84h-207v113h268l117 215h93l-117 -215h119v-113h-181l-44 -84h225v-115h-289l-100 -185h-90z" />
    <glyph glyph-name="lessequal" unicode="&#x2264;" horiz-adv-x="559" 
d="M40 0zM40 285v114l480 189v-126l-351 -121l351 -119v-126zM40 -113v114h480v-114h-480z" />
    <glyph glyph-name="greaterequal" unicode="&#x2265;" horiz-adv-x="559" 
d="M40 0zM40 96v126l350 119l-350 121v126l480 -189v-114zM40 -113v114h480v-114h-480z" />
    <glyph glyph-name="lozenge" unicode="&#x25ca;" horiz-adv-x="528" 
d="M182 0l-158 357l158 355h173l149 -355l-149 -357h-173zM346 357l-80 196l-76 -196l76 -197z" />
    <glyph glyph-name="d.1" unicode="&#xe000;" horiz-adv-x="642" 
d="M300 0h-260v712h462l137 -196zM213 534v-331l218 331h-218z" />
    <glyph glyph-name="h.1" unicode="&#xe001;" horiz-adv-x="547" 
d="M507 -169h-11l-162 144v334h-121v-309h-173v534h-85v178h258v-251h121v251h173v-251h95v-11l-95 -125v-494z" />
    <glyph glyph-name="k.1" unicode="&#xe002;" horiz-adv-x="609" 
d="M213 510l222 219l118 -129l-181 -166l230 -320l-138 -136l-251 384v-362h-173v712h173v-202z" />
    <glyph glyph-name="o.1" unicode="&#xe003;" horiz-adv-x="774" 
d="M399 0h-24l-373 542l140 170h489l140 -170zM386 296l167 238h-333z" />
    <glyph glyph-name="s.1" unicode="&#xe004;" horiz-adv-x="799" 
d="M342 178h238l-169 229l-251 -407h-268l123 178h52l322 534h206l-83 -140l284 -379l-138 -193h-426z" />
    <glyph glyph-name="u.1" unicode="&#xe005;" horiz-adv-x="616" 
d="M213 246l190 170v296h173v-712h-173v210l-245 -221l-118 126v419h-85v178h258v-466z" />
    <glyph glyph-name="w.1" unicode="&#xe006;" horiz-adv-x="662" 
d="M331 393l119 -129v448h173v-545l-155 -167h-18l-119 133l-118 -133h-18l-155 167v367h-85v178h258v-448z" />
    <glyph glyph-name="s.2" unicode="&#xe007;" horiz-adv-x="573" 
d="M106 0l-98 158v20h346l-278 378l87 156h357v-178h-206l255 -341l-137 -193h-326z" />
    <glyph glyph-name="dcaron.1" unicode="&#xe00c;" horiz-adv-x="642" 
d="M40 0zM300 0h-260v712h462l137 -196zM213 534v-331l218 331h-218zM209 916l61 -76l62 76h127l-127 -164h-122l-127 164h126z" />
    <glyph glyph-name="ddotbelow.1" unicode="&#xe00d;" horiz-adv-x="642" 
d="M40 0zM300 0h-260v712h462l137 -196zM213 534v-331l218 331h-218zM262 -173l-101 -101l-102 101l102 103z" />
    <glyph glyph-name="dcircbelow.1" unicode="&#xe00e;" horiz-adv-x="642" 
d="M13 0zM300 0h-260v712h462l137 -196zM213 534v-331l218 331h-218zM262 -248l-62 78l-61 -78h-126l127 164h122l127 -164h-127z" />
    <glyph glyph-name="scaron.2" unicode="&#xe00f;" horiz-adv-x="573" 
d="M8 0zM106 0l-98 158v20h346l-278 378l87 156h357v-178h-206l255 -341l-137 -193h-326zM264 916l61 -76l62 76h127l-127 -164h-122l-127 164h126z" />
    <glyph glyph-name="sacute.2" unicode="&#xe010;" horiz-adv-x="573" 
d="M8 0zM106 0l-98 158v20h346l-278 378l87 156h357v-178h-206l255 -341l-137 -193h-326zM224 737l91 190h154l-87 -190h-158z" />
    <glyph glyph-name="scedilla.2" unicode="&#xe011;" horiz-adv-x="573" 
d="M8 0zM106 0l-98 158v20h346l-278 378l87 156h357v-178h-206l255 -341l-137 -193h-326zM221 -223l-88 189h155l91 -189h-158z" />
    <glyph glyph-name="uacute.1" unicode="&#xe012;" horiz-adv-x="616" 
d="M0 0zM213 246l190 170v296h173v-712h-173v210l-245 -221l-118 126v419h-85v178h258v-466zM235 737l91 190h154l-87 -190h-158z" />
    <glyph glyph-name="ugrave.1" unicode="&#xe013;" horiz-adv-x="616" 
d="M0 0zM213 246l190 170v296h173v-712h-173v210l-245 -221l-118 126v419h-85v178h258v-466zM272 737l-87 190h154l91 -190h-158z" />
    <glyph glyph-name="ucircumflex.1" unicode="&#xe014;" horiz-adv-x="616" 
d="M0 0zM213 246l190 170v296h173v-712h-173v210l-245 -221l-118 126v419h-85v178h258v-466zM369 752l-62 78l-61 -78h-126l127 164h122l127 -164h-127z" />
    <glyph glyph-name="udieresis.1" unicode="&#xe015;" horiz-adv-x="616" 
d="M0 0zM213 246l190 170v296h173v-712h-173v210l-245 -221l-118 126v419h-85v178h258v-466zM525 827l-102 -101l-102 101l102 103zM293 827l-102 -101l-101 101l101 103z" />
    <glyph glyph-name="utilde.1" unicode="&#xe016;" horiz-adv-x="616" 
d="M0 0zM213 246l190 170v296h173v-712h-173v210l-245 -221l-118 126v419h-85v178h258v-466zM474 783q-14 -17 -34.5 -29.5t-51.5 -12.5q-25 0 -46.5 7t-40.5 15t-36.5 15t-34.5 7q-28 0 -48.5 -11t-40.5 -37v99q13 16 33.5 29.5t52.5 13.5q24 0 45 -7t40 -15.5t37 -15.5
t36 -7q26 0 47 11t42 37v-99z" />
    <glyph glyph-name="umacron.1" unicode="&#xe017;" horiz-adv-x="616" 
d="M0 0zM213 246l190 170v296h173v-712h-173v210l-245 -221l-118 126v419h-85v178h258v-466zM145 751v104h326v-104h-326z" />
    <glyph glyph-name="ubreve.1" unicode="&#xe018;" horiz-adv-x="616" 
d="M0 0zM213 246l190 170v296h173v-712h-173v210l-245 -221l-118 126v419h-85v178h258v-466zM472 912q0 -41 -14 -71.5t-36.5 -51t-52 -30.5t-60.5 -10q-32 0 -61.5 10t-52.5 30.5t-37 51t-14 71.5h93q2 -34 19 -53.5t53 -19.5q34 0 50.5 19.5t18.5 53.5h94z" />
    <glyph glyph-name="uring.1" unicode="&#xe019;" horiz-adv-x="616" 
d="M0 0zM213 246l190 170v296h173v-712h-173v210l-245 -221l-118 126v419h-85v178h258v-466zM413 831q0 -48 -24 -71.5t-81 -23.5q-105 0 -105 95q0 47 25.5 71.5t79.5 24.5q57 0 81 -24.5t24 -71.5zM355 831q0 47 -47 47q-43 0 -43 -47q0 -42 43 -42q47 0 47 42z" />
    <glyph glyph-name="uhungarumlaut.1" unicode="&#xe01a;" horiz-adv-x="616" 
d="M0 0zM213 246l190 170v296h173v-712h-173v210l-245 -221l-118 126v419h-85v178h258v-466zM293 737l91 190h155l-88 -190h-158zM76 737l91 190h155l-88 -190h-158z" />
    <glyph glyph-name="oacute.1" unicode="&#xe01b;" horiz-adv-x="774" 
d="M2 0zM399 0h-24l-373 542l140 170h489l140 -170zM386 296l167 238h-333zM294 737l91 190h154l-87 -190h-158z" />
    <glyph glyph-name="ograve.1" unicode="&#xe01c;" horiz-adv-x="774" 
d="M2 0zM399 0h-24l-373 542l140 170h489l140 -170zM386 296l167 238h-333zM321 737l-87 190h154l91 -190h-158z" />
    <glyph glyph-name="ocircumflex.1" unicode="&#xe01d;" horiz-adv-x="774" 
d="M2 0zM399 0h-24l-373 542l140 170h489l140 -170zM386 296l167 238h-333zM448 752l-62 78l-61 -78h-126l127 164h122l127 -164h-127z" />
    <glyph glyph-name="odieresis.1" unicode="&#xe01e;" horiz-adv-x="774" 
d="M2 0zM399 0h-24l-373 542l140 170h489l140 -170zM386 296l167 238h-333zM604 827l-102 -101l-102 101l102 103zM372 827l-102 -101l-101 101l101 103z" />
    <glyph glyph-name="otilde.1" unicode="&#xe01f;" horiz-adv-x="774" 
d="M2 0zM399 0h-24l-373 542l140 170h489l140 -170zM386 296l167 238h-333zM553 783q-14 -17 -34.5 -29.5t-51.5 -12.5q-25 0 -46.5 7t-40.5 15t-36.5 15t-34.5 7q-28 0 -48.5 -11t-40.5 -37v99q13 16 33.5 29.5t52.5 13.5q24 0 45 -7t40 -15.5t37 -15.5t36 -7q26 0 47 11
t42 37v-99z" />
    <glyph glyph-name="omacron.1" unicode="&#xe020;" horiz-adv-x="774" 
d="M2 0zM399 0h-24l-373 542l140 170h489l140 -170zM386 296l167 238h-333zM224 751v104h326v-104h-326z" />
    <glyph glyph-name="obreve.1" unicode="&#xe021;" horiz-adv-x="774" 
d="M2 0zM399 0h-24l-373 542l140 170h489l140 -170zM386 296l167 238h-333zM551 912q0 -41 -14 -71.5t-36.5 -51t-52 -30.5t-60.5 -10q-32 0 -61.5 10t-52.5 30.5t-37 51t-14 71.5h93q2 -34 19 -53.5t53 -19.5q34 0 50.5 19.5t18.5 53.5h94z" />
    <glyph glyph-name="ohungarumlaut.1" unicode="&#xe022;" horiz-adv-x="774" 
d="M2 0zM399 0h-24l-373 542l140 170h489l140 -170zM386 296l167 238h-333zM402 737l91 190h155l-88 -190h-158zM185 737l91 190h155l-88 -190h-158z" />
    <glyph glyph-name="kcommaaccent.1" unicode="&#xe023;" horiz-adv-x="609" 
d="M40 0zM213 510l222 219l118 -129l-181 -166l230 -320l-138 -136l-251 384v-362h-173v712h173v-202zM329 -223l-88 189h155l91 -189h-158z" />
    <glyph glyph-name="kacute.1" unicode="&#xe024;" horiz-adv-x="609" 
d="M40 0zM213 510l222 219l118 -129l-181 -166l230 -320l-138 -136l-251 384v-362h-173v712h173v-202zM230 737l91 190h154l-87 -190h-158z" />
    <glyph glyph-name=".ttfautohint" horiz-adv-x="247" 
d="M0 0z" />
    </font>
</defs>
</svg>
